<svg version="1.1" xmlns="http://www.w3.org/2000/svg" xmlns:xlink="http://www.w3.org/1999/xlink" width="187.22069" height="318.35941" viewBox="0,0,187.22069,318.35941"><defs><linearGradient x1="447.53557" y1="196.37719" x2="633.54183" y2="211.8282" gradientUnits="userSpaceOnUse" id="color-1"><stop offset="0" stop-color="#ff0000"/><stop offset="1" stop-color="#0050ff"/></linearGradient></defs><g transform="translate(-446.38966,-160.82029)"><g data-paper-data="{&quot;isPaintingLayer&quot;:true}" fill-rule="nonzero" stroke-linejoin="miter" stroke-miterlimit="10" stroke-dasharray="" stroke-dashoffset="0" style="mix-blend-mode: normal"><path d="M611.5759,344.64156c-6.47762,77.98038 -48.51812,138.13998 -93.90014,134.37022c-45.38209,-3.76976 -76.92028,-70.0413 -70.44272,-148.02174c6.47762,-77.98038 48.51812,-138.13998 93.90014,-134.37022c45.38209,3.76976 76.92028,70.0413 70.44272,148.02174z" fill="#7f7f7f" stroke="none" stroke-width="0" stroke-linecap="butt"/><path d="M633.54183,211.8282c-1.95342,23.51613 -45.17592,39.12095 -96.54012,34.85424c-51.3642,-4.26664 -91.41955,-26.78906 -89.46613,-50.30525c1.95342,-23.51613 45.17592,-39.12095 96.54012,-34.85424c51.3642,4.26664 91.41955,26.78906 89.46613,50.30525z" fill="url(#color-1)" stroke="none" stroke-width="0" stroke-linecap="butt"/><path d="M471.42325,370.60787l6.32219,-103.27398l-10.74544,-17.33389" fill="none" stroke="#000000" stroke-width="2.5" stroke-linecap="round"/><path d="M497.25609,367.48858l7.63,-100.90883l24.11391,-8.57975" fill="none" stroke="#000000" stroke-width="2.5" stroke-linecap="round"/></g></g></svg>