<svg version="1.1" xmlns="http://www.w3.org/2000/svg" xmlns:xlink="http://www.w3.org/1999/xlink" width="66.40425" height="51.85273" viewBox="0,0,66.40425,51.85273"><g transform="translate(-506.78491,-294.07999)"><g data-paper-data="{&quot;isPaintingLayer&quot;:true}" fill="#dd2726" fill-rule="nonzero" stroke="#bc192d" stroke-width="1" stroke-linecap="butt" stroke-linejoin="miter" stroke-miterlimit="10" stroke-dasharray="" stroke-dashoffset="0" style="mix-blend-mode: normal"><path d="M554.64119,329.10666c1.50011,1.55283 6.59094,11.79664 5.0381,13.29786c-1.55283,1.499 -9.1616,-6.31345 -10.66171,-7.86628l-9.7521,10.6101l-7.94176,-10.73996c-1.52231,1.53063 -10.65672,9.86199 -12.18846,8.33912c-1.53008,-1.52231 5.12246,-12.32165 6.64532,-13.8534l-17.89309,-8.93461l18.02629,-9.34308c-0.31487,-0.32606 -0.75137,-0.93744 -1.23016,-1.71385c-1.80145,-2.92122 -4.20158,-8.17853 -2.97436,-9.3641c1.55228,-1.49955 8.32858,4.09353 9.82869,5.64636l8.64159,-10.33316l9.05227,10.46303c1.52286,-1.53063 10.51908,-7.92011 12.04971,-6.3978c1.53119,1.52286 -4.98372,10.38034 -6.50602,11.91152l17.337,10.32151z"/></g></g></svg>