<svg version="1.1" xmlns="http://www.w3.org/2000/svg" xmlns:xlink="http://www.w3.org/1999/xlink" width="21.33333" height="41.77219" viewBox="0,0,21.33333,41.77219"><defs><radialGradient cx="544.08333" cy="299.33333" r="9.91666" gradientUnits="userSpaceOnUse" id="color-1"><stop offset="0" stop-color="#ffffff"/><stop offset="1" stop-color="#66ebff"/></radialGradient></defs><g transform="translate(-527.33333,-295.58331)"><g data-paper-data="{&quot;isPaintingLayer&quot;:true}" fill-rule="nonzero" stroke="#000000" stroke-linecap="butt" stroke-linejoin="miter" stroke-miterlimit="10" stroke-dasharray="" stroke-dashoffset="0" style="mix-blend-mode: normal"><path d="M542.68664,317.2029c0.44043,0.24411 0.88803,0.3988 1.33483,0.39394c0.22497,-0.00246 0.88371,0.08878 0.67305,-0.15375c-0.48473,-0.55803 -1.25482,-0.44691 -2.00788,-0.24019zM531.47047,319.2505c-0.10696,-0.23782 -0.20268,-0.61177 -0.26531,-1.18895c-0.23717,-2.18558 0.47434,-2.91411 0.47434,-2.91411l0.61387,-0.59883c3.12804,-1.57799 6.44658,-1.56721 9.6233,-1.56721c0.79058,0 2.37226,-0.8223 3.0705,0.11823c1.22054,1.64404 1.73338,4.56988 0.56643,8.07595c-0.06234,0.18728 -0.13431,0.3481 -0.21421,0.48531c0.40037,1.10746 0.48832,2.78737 -0.00938,5.32408c-0.02729,0.13909 -0.08134,0.25583 -0.15544,0.35375c1.15924,2.39301 1.62072,6.6586 -0.35406,9.07458c-1.00201,1.22588 -2.24035,-0.43288 -3.19064,-0.93544c-3.12556,-1.65298 -6.86109,-0.99416 -10.04653,-0.99416c0,0 -0.75,0 -0.75,-2.30381c0,-0.43495 0.02673,-0.78778 0.0701,-1.074c-0.04498,-0.29581 -0.0701,-0.62582 -0.0701,-0.97383c0,-0.52702 0.05761,-1.01273 0.15455,-1.4009l0.49545,-2.02923l0.26579,0.61232c0.36795,-1.17034 0.79599,-2.07715 1.26724,-2.77269c-0.05461,-0.03671 -0.10901,-0.07444 -0.1632,-0.11316c-0.60053,-0.4294 -1.47965,0.13515 -1.78288,-1.51395c-0.20884,-1.13578 0.09951,-2.48253 0.40018,-3.66387zM540.21786,330.88292c0.17712,0.00851 0.35449,0.01432 0.53214,0.01702c0.14807,0.00224 4.25634,1.34682 3.96606,0.05431c-0.16909,-0.75289 -0.57997,-0.42009 -0.8733,-0.57745c-1.22633,0.01484 -2.42996,0.22516 -3.6249,0.50616zM534.66617,327.62643c1.13964,-0.19066 2.26782,-0.49206 3.39636,-0.79595c-1.03794,-0.14477 -2.06034,-0.09178 -3.02572,0.45596c-0.11345,0.06438 -0.23822,0.18534 -0.37064,0.33997zM538.76277,320.61709c-1.10108,-0.48018 -2.21078,-0.9493 -3.3461,-0.98024c-0.49084,-0.01341 -1.08021,0.17352 -1.61553,0.47019c0.31693,0.22996 0.58705,0.52816 0.68289,0.56302c1.34401,0.48912 2.84103,0.4139 4.27875,-0.05296z" fill="#8a8a8a" stroke-width="1"/><path d="M528.08333,312.95692v-16.62361h19.83333v16.62361z" fill="url(#color-1)" stroke-width="1.5"/></g></g></svg>