<svg version="1.1" xmlns="http://www.w3.org/2000/svg" xmlns:xlink="http://www.w3.org/1999/xlink" width="1196.6967" height="657.56492" viewBox="0,0,1196.6967,657.56492"><g transform="translate(110.15015,-284.05671)"><g data-paper-data="{&quot;isPaintingLayer&quot;:true}" fill-rule="nonzero" stroke="none" stroke-linecap="butt" stroke-linejoin="miter" stroke-miterlimit="10" stroke-dasharray="" stroke-dashoffset="0" style="mix-blend-mode: normal"><path d="M1086.54655,623.30332v318.31832h-298.37932c5.25842,-4.43419 9.09576,-12.08803 10.19278,-18.61629c0.36207,-2.15465 -0.01079,-4.7412 0.39063,-6.83462c0.57892,-3.01914 1.45058,-5.98307 1.5015,-9.08365c0.05388,-3.28099 -0.52361,-6.60491 0,-9.84429c1.01051,-6.25162 4.48358,-12.18958 4.5045,-18.68424c0.1024,-31.78535 2.57326,-63.68381 -0.10267,-95.35649c-2.04992,-24.26311 -5.9372,-48.193 -8.69591,-72.32078c0.14982,-29.19431 0.22854,-58.3879 -0.21043,-87.57798z" fill="#0c7d00" stroke-width="0"/><path d="M750.36681,941.62164c0.06398,-1.0317 0.12279,-2.02132 0.18109,-2.95771c0.06259,-1.00528 0.10874,-2.01107 0.14187,-3.01727c1.64913,2.23346 3.64036,4.2681 5.86122,5.97497z" fill="#0d7d00" stroke-width="0"/><path d="" fill="#0d7d00" stroke-width="0"/><path d="" fill="#0d7d00" stroke-width="0"/><path d="M-110.15015,941.62164v-318.31832h358.29437c-0.11765,0.82989 -0.2423,1.61374 -0.37935,2.34121c-0.98597,5.2335 -3.45444,10.25846 -3.49084,15.6843c-0.0908,13.53564 -1.33688,27.15797 0.19112,40.6074c1.16798,10.2805 3.21338,20.40432 4.55664,30.62721c0.02459,0.18718 0.04921,0.37434 0.07384,0.56149c-0.02055,4.99136 -0.05232,9.98266 -0.09876,14.97391c-0.03011,3.23597 -1.4381,6.64967 -1.5015,9.983c-0.40693,21.39428 -6.45176,41.47154 -6.00601,63.06306c0.2838,13.74669 9.72024,24.43223 23.85885,24.9781c0.32798,1.22814 0.73445,2.49309 1.23736,3.80976c5.20672,13.63172 -7.37301,39.69638 10.65237,49.9966c4.28969,2.45125 9.36793,3.86719 14.30859,3.86719c1.49914,0 2.91829,-0.09931 4.26131,-0.29064c0.73969,0.17851 1.48828,0.27219 2.25234,0.21985c8.77036,-0.60073 14.84051,-5.40458 19.43534,-11.84304c4.49277,11.07205 8.01436,22.53293 9.5876,34.38654c0.72696,5.47735 1.34415,10.97391 1.82263,16.48176c-0.03863,6.29019 -0.07964,12.5804 -0.11927,18.87062z" fill="#0c7d00" stroke-width="0"/><path d="M1080,623.5v313h-643.54043c-0.0126,-7.79981 -0.02807,-15.59962 -0.0429,-23.3994c-0.01998,-10.5035 -4.42014,-32.30124 -4.62136,-34.10845c-0.79821,-7.16899 -0.90979,-14.39813 -1.43946,-21.59195c-0.41651,-5.65691 -2.51335,-13.14559 -3.29409,-17.54891c-1.93711,-10.92526 -2.48018,-22.00664 -4.49535,-32.92166c-2.66591,-14.43965 -10.11778,-27.09213 -10.17376,-42.21059c-0.1743,-47.07232 0.0052,-94.1458 0.15922,-141.21903z" fill="#0c7d00" stroke-width="0"/><path d="M210.34985,936.5v-313h37.76622c-0.10937,0.75725 -0.22503,1.47478 -0.35121,2.14453c-0.98597,5.2335 -3.45444,10.25846 -3.49084,15.6843c-0.0908,13.53564 -1.33688,27.15797 0.19112,40.6074c1.16798,10.2805 3.21338,20.40432 4.55664,30.62721c3.3258,25.31102 6.98234,50.36732 12.36488,75.33792c0.86201,3.99904 2.06397,7.95786 2.40687,12.03436c1.00545,11.95322 -1.31156,19.25341 2.79203,29.99704c5.20672,13.63172 -7.37301,39.69638 10.65237,49.9966c4.28969,2.45125 9.36793,3.86719 14.30859,3.86719c13.03394,0 20.02189,-7.50716 23.49238,-17.72264c5.64969,12.85956 10.19414,26.25591 12.04421,40.19535c1.33103,10.02874 2.29406,20.12192 2.7115,30.23074z" fill="#0c7d00" stroke-width="0"/><path d="M381.07333,862.3106c0.82393,6.93496 0.89952,13.93858 1.39365,20.90481c0.76249,10.74939 3.96568,18.21014 4.44969,31.64411c0.25982,7.21147 0.38487,14.42524 0.42741,21.64047h-7.98748c-0.02112,-2.83536 -0.14272,-5.66656 -0.33064,-8.49494c5.52334,-10.68047 5.37403,-25.87012 2.92261,-36.95808c-1.17641,-5.32101 -4.06792,-10.50872 -4.09045,-16.03078c-0.04095,-10.03729 0.02027,-20.08229 0.13904,-30.13197c1.161,6.23383 2.59872,13.40761 3.07618,17.42638z" fill="#0c7d00" stroke-width="0"/><path d="M695.07508,599.28688v-22.28544h141.14114v22.28544z" fill="#0c7d00" stroke-width="0"/><path d="M847.22223,382.30174v22.28544c0,0 -69.80256,0 -95.83334,0c-17.89845,0 -45.3078,0 -45.3078,0l1.5015,-2.76592c0,0 48.7889,-14.32746 72.49001,-17.64052c22.81138,-3.18869 67.14962,-1.879 67.14962,-1.879z" data-paper-data="{&quot;index&quot;:null}" fill="#0c7d00" stroke-width="0"/><path d="M667.53754,315.22966v2.76592h-141.14114v-22.28544z" data-paper-data="{&quot;index&quot;:null}" fill="#0c7d00" stroke-width="0"/><path d="M277.55856,316.22066l-1.5015,4.26742h-220.14114v-22.28544z" data-paper-data="{&quot;index&quot;:null}" fill="#0c7d00" stroke-width="0"/><path d="M154.54778,627.18076c-3.72919,-0.39442 -3.33479,-4.12362 -3.33479,-4.12362l0.03507,-0.33148c0.37031,-3.50128 0.24096,-10.58317 3.50912,-12.69231c1.98565,-1.28145 4.70111,-0.53406 7.06973,0.77943c0.77226,-1.94183 2.24802,-3.44387 5.20885,-3.8631c1.84214,-0.26083 3.68915,0.65924 5.19796,2.13825c0.58043,-0.13005 1.24406,-0.1712 2.00383,-0.10384c0.64424,0.05712 1.20413,0.32636 1.69994,0.72997c0.63431,-0.23058 1.29075,-0.35744 1.9464,-0.34432c0.61649,0.01235 1.21689,0.19057 1.78956,0.49769c0.09562,-0.07346 0.19462,-0.14345 0.29718,-0.20974c1.74506,-1.12765 4.29078,-0.5809 6.231,0.16234c0.88383,0.33858 1.56149,1.01244 2.18169,1.76517c1.75491,-0.346 3.68226,1.03886 5.13632,2.54758c1.39705,0.40316 2.85522,1.17132 4.01203,2.12358c1.46017,-1.44605 3.09718,-2.12018 4.75158,-1.97533c3.96249,-4.62989 6.8232,-1.60418 10.09721,0.58825c1.18383,0.79274 2.50848,1.43561 3.61551,2.32229c0.67604,-0.41238 1.48755,-0.61475 2.3356,-0.52716c0.25856,-1.00185 0.69602,-1.89663 1.47461,-2.58722c4.73908,-4.20344 6.93348,-0.50006 8.13633,2.6283c0.06015,-0.02832 0.12115,-0.05509 0.1831,-0.08023c0.07644,-2.51406 1.59659,-4.42402 6.46575,-4.59432c1.73281,-0.06061 2.54079,2.36311 3.73634,3.61889c2.39661,2.51732 4.54634,5.61564 6.71393,8.29596c0,0 2.35803,2.91583 -0.5578,5.27388c-2.2793,1.84328 -4.21776,0.46395 -4.95549,-0.22611c-0.47872,1.73794 -2.15772,2.92461 -4.00912,2.7288c-0.83472,-0.08828 -1.57637,-0.44405 -2.14881,-0.97308l-3.33502,-3.0097l0.00461,-0.00511c-0.00835,-0.00448 -0.01667,-0.00897 -0.025,-0.01345c-0.04667,-0.02512 -0.09267,-0.05016 -0.13801,-0.07512c-0.58955,1.55449 -2.16977,2.57983 -3.9007,2.39676c-0.39086,-0.04134 -0.76132,-0.14132 -1.10354,-0.29028c-0.66378,1.39753 -2.15674,2.29182 -3.78267,2.11985c-0.71475,-0.0756 -1.36126,-0.34731 -1.89173,-0.75599c-0.77651,0.86394 -1.94222,1.35607 -3.18571,1.22455c-1.83343,-0.19391 -3.2179,-1.67823 -3.34617,-3.45476c-0.48955,0.32945 -1.65684,0.47966 -3.0422,0.51945c-0.61536,0.30456 -1.3216,0.44391 -2.05492,0.36635c-0.11951,-0.01264 -0.2371,-0.03076 -0.35255,-0.05408c-0.41366,1.39429 -0.80363,2.57724 -0.99045,3.34854l-4.28406,-4.11519c-0.17201,0.49316 -0.44272,0.93582 -0.78641,1.30712c0.02427,0.24888 0.02387,0.50391 -0.00346,0.7623c-0.21783,2.05959 -2.06403,3.55261 -4.12362,3.33479c-0.36956,-0.0391 -0.72088,-0.1306 -1.04734,-0.26637l-3.46112,-1.34892l0.00007,-0.00018c-1.20173,-0.48971 -2.42277,-1.00524 -3.57545,-1.5861c-1.10308,-0.12903 -2.04016,-0.72595 -2.63339,-1.57084c-1.41062,-1.02366 -2.53363,-2.24801 -3.11028,-3.78968c-0.74309,1.15047 -2.09167,1.85051 -3.54674,1.69662c-0.61041,-0.06456 -1.17106,-0.27216 -1.65216,-0.58597c-0.74293,0.59037 -1.70902,0.90084 -2.72725,0.79316c-1.40331,-0.14842 -2.54361,-1.05282 -3.05892,-2.26559c-0.44446,0.12469 -0.91955,0.16886 -1.40658,0.11735c-1.47695,-0.15621 -2.66255,-1.14981 -3.13481,-2.45898c-0.59284,1.54829 -2.16965,2.56834 -3.89648,2.3857c-1.91983,-0.20305 -3.3474,-1.82098 -3.35586,-3.70774l-0.05006,-2.6372l0.2401,-0.00457c-0.09469,-0.10879 -0.19298,-0.21491 -0.29527,-0.31809c-0.24978,-0.25197 -0.56935,-0.42574 -0.89657,-0.5891c0.09079,1.81461 -0.62218,4.42564 -0.71421,5.29573l-0.03506,0.33148c0,0 -0.39442,3.7292 -4.12363,3.33478z" fill="#14c700" stroke-width="0.5"/><path d="M70.52143,626.7107c-3.74925,-0.0755 -3.67374,-3.82474 -3.67374,-3.82474l0.00671,-0.33327c0.07089,-3.5201 -0.66092,-10.56527 2.41582,-12.94497c1.86935,-1.44584 4.63859,-0.93235 7.11042,0.17473c0.60416,-2.00051 1.94666,-3.62275 4.86105,-4.29253c1.81325,-0.41671 3.73188,0.34279 5.36113,1.68796c0.56726,-0.17899 1.22496,-0.27647 1.98772,-0.27405c0.64677,0.00206 1.22754,0.22266 1.75591,0.58259c0.61238,-0.28375 1.25563,-0.46603 1.91002,-0.50877c0.6153,-0.04018 1.22869,0.08628 1.82543,0.34353c0.08903,-0.08133 0.1817,-0.1595 0.27826,-0.23427c1.64272,-1.27212 4.22574,-0.94408 6.2222,-0.36871c0.90943,0.26209 1.64202,0.87582 2.32404,1.57302c1.71909,-0.49415 3.75733,0.72161 5.33456,2.10107c1.4263,0.28276 2.94458,0.924 4.17826,1.77431c1.33178,-1.56511 2.90544,-2.37616 4.56617,-2.37268c3.55394,-4.95042 6.66186,-2.17923 10.11063,-0.27349c1.24702,0.68908 2.6216,1.21684 3.80009,2.00606c0.63849,-0.46843 1.42981,-0.73916 2.28225,-0.72408c0.17235,-1.02022 0.53202,-1.94899 1.249,-2.70337c4.36403,-4.59164 6.86574,-1.08851 8.33054,1.92608c0.05752,-0.03334 0.11604,-0.06521 0.1756,-0.09553c-0.13786,-2.51143 1.21416,-4.54388 6.05114,-5.12809c1.72135,-0.20791 2.73275,2.13822 4.03086,3.28765c2.60222,2.30415 5.00791,5.20821 7.39581,7.69426c0,0 2.59772,2.7045 -0.10678,5.30222c-2.1141,2.03063 -4.16294,0.82134 -4.95673,0.19658c-0.32903,1.77239 -1.9009,3.09769 -3.76225,3.06021c-0.83921,-0.01691 -1.60846,-0.30822 -2.22385,-0.7866l-3.57914,-2.71484l0.00416,-0.00548c-0.0087,-0.00375 -0.01738,-0.00752 -0.02607,-0.01127c-0.04864,-0.02106 -0.09659,-0.04208 -0.14389,-0.0631c-0.45507,1.59904 -1.94226,2.75518 -3.68249,2.72014c-0.39296,-0.00791 -0.77058,-0.076 -1.12425,-0.19528c-0.54239,1.44896 -1.9538,2.4671 -3.58845,2.43418c-0.7186,-0.01447 -1.3859,-0.23017 -1.94923,-0.5922c-0.70015,0.92691 -1.81972,1.5165 -3.06989,1.49133c-1.84328,-0.03712 -3.34909,-1.39818 -3.62813,-3.15734c-0.45973,0.36993 -1.60999,0.61897 -2.98695,0.77655c-0.58718,0.35586 -1.27901,0.55481 -2.01627,0.53995c-0.12014,-0.00242 -0.23884,-0.01046 -0.35587,-0.02388c-0.29346,1.42445 -0.5813,2.6363 -0.70178,3.4207l-4.61885,-3.73554c-0.12939,0.50601 -0.36144,0.97012 -0.67227,1.36932c0.04537,0.24591 0.06668,0.50005 0.06145,0.75982c-0.0417,2.07065 -1.75409,3.71544 -3.82475,3.67374c-0.37155,-0.00748 -0.72938,-0.06875 -1.06623,-0.17624l-3.56339,-1.04936l0.00005,-0.00017c-1.23906,-0.38562 -2.49955,-0.79534 -3.69749,-1.27596c-1.11006,-0.03467 -2.09455,-0.54963 -2.75756,-1.34095c-1.49264,-0.89986 -2.71583,-2.02415 -3.42163,-3.51112c-0.64245,1.20955 -1.92655,2.02186 -3.38943,1.9924c-0.6137,-0.01236 -1.18998,-0.17147 -1.69605,-0.44317c-0.68999,0.65147 -1.62611,1.04307 -2.64982,1.02246c-1.41085,-0.02842 -2.62401,-0.83245 -3.24069,-1.99695c-0.43224,0.16208 -0.90183,0.24653 -1.39148,0.23667c-1.48488,-0.0299 -2.75077,-0.91896 -3.33277,-2.18317c-0.45888,1.59313 -1.94313,2.74372 -3.67923,2.70876c-1.93015,-0.03887 -3.49028,-1.5294 -3.65934,-3.4086l-0.27439,-2.62336l0.23884,-0.02499c-0.10361,-0.10033 -0.21059,-0.19769 -0.32128,-0.2918c-0.27032,-0.22979 -0.60353,-0.37572 -0.94348,-0.51063c0.24494,1.80028 -0.24314,4.46255 -0.26076,5.3373l-0.00672,0.33327c0,0 -0.07551,3.74923 -3.82475,3.67373z" fill="#14c700" stroke-width="0.5"/><path d="M7.89613,626.17476c-3.72919,-0.39442 -3.33479,-4.12362 -3.33479,-4.12362l0.03507,-0.33148c0.37031,-3.50128 0.24096,-10.58317 3.50912,-12.69231c1.98565,-1.28145 4.70111,-0.53406 7.06973,0.77943c0.77226,-1.94183 2.24802,-3.44387 5.20885,-3.8631c1.84214,-0.26083 3.68915,0.65924 5.19796,2.13825c0.58043,-0.13005 1.24406,-0.1712 2.00383,-0.10384c0.64424,0.05712 1.20413,0.32636 1.69994,0.72997c0.63431,-0.23058 1.29075,-0.35744 1.9464,-0.34432c0.61649,0.01235 1.21689,0.19057 1.78956,0.49769c0.09562,-0.07346 0.19462,-0.14345 0.29718,-0.20974c1.74506,-1.12765 4.29078,-0.5809 6.231,0.16234c0.88383,0.33858 1.56149,1.01244 2.18169,1.76517c1.75491,-0.346 3.68226,1.03886 5.13632,2.54758c1.39705,0.40316 2.85522,1.17132 4.01203,2.12358c1.46017,-1.44605 3.09718,-2.12018 4.75158,-1.97533c3.96249,-4.62989 6.8232,-1.60418 10.09721,0.58825c1.18383,0.79274 2.50848,1.43561 3.61551,2.32229c0.67604,-0.41238 1.48755,-0.61475 2.3356,-0.52716c0.25856,-1.00185 0.69602,-1.89663 1.47461,-2.58722c4.73908,-4.20344 6.93348,-0.50006 8.13633,2.6283c0.06015,-0.02832 0.12115,-0.05509 0.1831,-0.08023c0.07644,-2.51406 1.59659,-4.42402 6.46575,-4.59432c1.73281,-0.06061 2.54079,2.36311 3.73634,3.61889c2.39661,2.51732 4.54634,5.61564 6.71393,8.29596c0,0 2.35803,2.91583 -0.5578,5.27388c-2.2793,1.84328 -4.21776,0.46395 -4.95549,-0.22611c-0.47872,1.73794 -2.15772,2.92461 -4.00912,2.7288c-0.83472,-0.08828 -1.57637,-0.44405 -2.14881,-0.97308l-3.33502,-3.0097l0.00461,-0.00511c-0.00835,-0.00448 -0.01667,-0.00897 -0.025,-0.01345c-0.04667,-0.02512 -0.09267,-0.05016 -0.13801,-0.07512c-0.58955,1.55449 -2.16977,2.57983 -3.9007,2.39676c-0.39086,-0.04134 -0.76132,-0.14132 -1.10354,-0.29028c-0.66378,1.39753 -2.15674,2.29182 -3.78267,2.11985c-0.71475,-0.0756 -1.36126,-0.34731 -1.89173,-0.75599c-0.77651,0.86394 -1.94222,1.35607 -3.18571,1.22455c-1.83343,-0.19391 -3.2179,-1.67823 -3.34617,-3.45476c-0.48955,0.32945 -1.65684,0.47966 -3.0422,0.51945c-0.61536,0.30456 -1.3216,0.44391 -2.05492,0.36635c-0.11951,-0.01264 -0.2371,-0.03076 -0.35255,-0.05408c-0.41366,1.39429 -0.80363,2.57724 -0.99045,3.34854l-4.28406,-4.11519c-0.17201,0.49316 -0.44272,0.93582 -0.78641,1.30712c0.02427,0.24888 0.02387,0.50391 -0.00346,0.7623c-0.21783,2.05959 -2.06403,3.55261 -4.12362,3.33479c-0.36956,-0.0391 -0.72088,-0.1306 -1.04734,-0.26637l-3.46112,-1.34892l0.00007,-0.00018c-1.20173,-0.48971 -2.42277,-1.00524 -3.57545,-1.5861c-1.10308,-0.12903 -2.04016,-0.72595 -2.63339,-1.57084c-1.41062,-1.02366 -2.53363,-2.24801 -3.11028,-3.78968c-0.74309,1.15047 -2.09167,1.85051 -3.54674,1.69662c-0.61041,-0.06456 -1.17106,-0.27216 -1.65216,-0.58597c-0.74293,0.59037 -1.70902,0.90084 -2.72725,0.79316c-1.40331,-0.14842 -2.54361,-1.05282 -3.05892,-2.26559c-0.44446,0.12469 -0.91955,0.16886 -1.40658,0.11735c-1.47695,-0.15621 -2.66255,-1.14981 -3.13481,-2.45898c-0.59284,1.54829 -2.16965,2.56834 -3.89648,2.3857c-1.91983,-0.20305 -3.3474,-1.82098 -3.35586,-3.70774l-0.05006,-2.6372l0.2401,-0.00457c-0.09469,-0.10879 -0.19298,-0.21491 -0.29527,-0.31809c-0.24978,-0.25197 -0.56935,-0.42574 -0.89657,-0.5891c0.09079,1.81461 -0.62218,4.42564 -0.71421,5.29573l-0.03506,0.33148c0,0 -0.39442,3.7292 -4.12363,3.33478z" fill="#14c700" stroke-width="0.5"/><path d="M-76.13022,625.7047c-3.74925,-0.0755 -3.67374,-3.82474 -3.67374,-3.82474l0.00671,-0.33327c0.07089,-3.5201 -0.66092,-10.56527 2.41582,-12.94497c1.86935,-1.44584 4.63859,-0.93235 7.11042,0.17473c0.60416,-2.00051 1.94666,-3.62275 4.86105,-4.29253c1.81325,-0.41671 3.73188,0.34279 5.36113,1.68796c0.56726,-0.17899 1.22496,-0.27647 1.98772,-0.27405c0.64677,0.00206 1.22754,0.22266 1.75591,0.58259c0.61238,-0.28375 1.25563,-0.46603 1.91002,-0.50877c0.6153,-0.04018 1.22869,0.08628 1.82543,0.34353c0.08903,-0.08133 0.1817,-0.1595 0.27826,-0.23427c1.64272,-1.27212 4.22574,-0.94408 6.2222,-0.36871c0.90943,0.26209 1.64202,0.87582 2.32404,1.57302c1.71909,-0.49415 3.75733,0.72161 5.33456,2.10107c1.4263,0.28276 2.94458,0.924 4.17826,1.77431c1.33178,-1.56511 2.90544,-2.37616 4.56617,-2.37268c3.55394,-4.95042 6.66186,-2.17923 10.11063,-0.27349c1.24702,0.68908 2.6216,1.21684 3.80009,2.00606c0.63849,-0.46843 1.42981,-0.73916 2.28225,-0.72408c0.17235,-1.02022 0.53202,-1.94899 1.249,-2.70337c4.36403,-4.59164 6.86574,-1.08851 8.33054,1.92608c0.05752,-0.03334 0.11604,-0.06521 0.1756,-0.09553c-0.13786,-2.51143 1.21416,-4.54388 6.05114,-5.12809c1.72135,-0.20791 2.73275,2.13822 4.03086,3.28765c2.60222,2.30415 5.00791,5.20821 7.39581,7.69426c0,0 2.59772,2.7045 -0.10678,5.30222c-2.1141,2.03063 -4.16294,0.82134 -4.95673,0.19658c-0.32903,1.77239 -1.9009,3.09769 -3.76225,3.06021c-0.83921,-0.01691 -1.60846,-0.30822 -2.22385,-0.7866l-3.57914,-2.71484l0.00416,-0.00548c-0.0087,-0.00375 -0.01738,-0.00752 -0.02607,-0.01127c-0.04864,-0.02106 -0.09659,-0.04208 -0.14389,-0.0631c-0.45507,1.59904 -1.94226,2.75518 -3.68249,2.72014c-0.39296,-0.00791 -0.77058,-0.076 -1.12425,-0.19528c-0.54239,1.44896 -1.9538,2.4671 -3.58845,2.43418c-0.7186,-0.01447 -1.3859,-0.23017 -1.94923,-0.5922c-0.70015,0.92691 -1.81972,1.5165 -3.06989,1.49133c-1.84328,-0.03712 -3.34909,-1.39818 -3.62813,-3.15734c-0.45973,0.36993 -1.60999,0.61897 -2.98695,0.77655c-0.58718,0.35586 -1.27901,0.55481 -2.01627,0.53995c-0.12014,-0.00242 -0.23884,-0.01046 -0.35587,-0.02388c-0.29346,1.42445 -0.5813,2.6363 -0.70178,3.4207l-4.61885,-3.73554c-0.12939,0.50601 -0.36144,0.97012 -0.67227,1.36932c0.04537,0.24591 0.06668,0.50005 0.06145,0.75982c-0.0417,2.07065 -1.75409,3.71544 -3.82475,3.67374c-0.37155,-0.00748 -0.72938,-0.06875 -1.06623,-0.17624l-3.56339,-1.04936l0.00005,-0.00017c-1.23906,-0.38562 -2.49955,-0.79534 -3.69749,-1.27596c-1.11006,-0.03467 -2.09455,-0.54963 -2.75756,-1.34095c-1.49264,-0.89986 -2.71583,-2.02415 -3.42163,-3.51112c-0.64245,1.20955 -1.92655,2.02186 -3.38943,1.9924c-0.6137,-0.01236 -1.18998,-0.17147 -1.69605,-0.44317c-0.68999,0.65147 -1.62611,1.04307 -2.64982,1.02246c-1.41085,-0.02842 -2.62401,-0.83245 -3.24069,-1.99695c-0.43224,0.16208 -0.90183,0.24653 -1.39148,0.23667c-1.48488,-0.0299 -2.75077,-0.91896 -3.33277,-2.18317c-0.45888,1.59313 -1.94313,2.74372 -3.67923,2.70876c-1.93015,-0.03887 -3.49028,-1.5294 -3.65934,-3.4086l-0.27439,-2.62336l0.23884,-0.02499c-0.10361,-0.10033 -0.21059,-0.19769 -0.32128,-0.2918c-0.27032,-0.22979 -0.60353,-0.37572 -0.94348,-0.51063c0.24494,1.80028 -0.24314,4.46255 -0.26076,5.3373l-0.00672,0.33327c0,0 -0.07551,3.74923 -3.82475,3.67373z" fill="#14c700" stroke-width="0.5"/><path d="M499.38261,631.17476c-3.72919,-0.39442 -3.33479,-4.12362 -3.33479,-4.12362l0.03507,-0.33148c0.37031,-3.50128 0.24096,-10.58317 3.50912,-12.69231c1.98565,-1.28145 4.70111,-0.53406 7.06973,0.77943c0.77226,-1.94183 2.24802,-3.44387 5.20885,-3.8631c1.84214,-0.26083 3.68915,0.65924 5.19796,2.13825c0.58043,-0.13005 1.24406,-0.1712 2.00383,-0.10384c0.64424,0.05712 1.20413,0.32636 1.69994,0.72997c0.63431,-0.23058 1.29075,-0.35744 1.9464,-0.34432c0.61649,0.01235 1.21689,0.19057 1.78956,0.49769c0.09562,-0.07346 0.19462,-0.14345 0.29718,-0.20974c1.74506,-1.12765 4.29078,-0.5809 6.231,0.16234c0.88383,0.33858 1.56149,1.01244 2.18169,1.76517c1.75491,-0.346 3.68226,1.03886 5.13632,2.54758c1.39705,0.40316 2.85522,1.17132 4.01203,2.12358c1.46017,-1.44605 3.09718,-2.12018 4.75158,-1.97533c3.96249,-4.62989 6.8232,-1.60418 10.09721,0.58825c1.18383,0.79274 2.50848,1.43561 3.61551,2.32229c0.67604,-0.41238 1.48755,-0.61475 2.3356,-0.52716c0.25856,-1.00185 0.69602,-1.89663 1.47461,-2.58722c4.73908,-4.20344 6.93348,-0.50006 8.13633,2.6283c0.06015,-0.02832 0.12115,-0.05509 0.1831,-0.08023c0.07644,-2.51406 1.59659,-4.42402 6.46575,-4.59432c1.73281,-0.06061 2.54079,2.36311 3.73634,3.61889c2.39661,2.51732 4.54634,5.61564 6.71393,8.29596c0,0 2.35803,2.91583 -0.5578,5.27388c-2.2793,1.84328 -4.21776,0.46395 -4.95549,-0.22611c-0.47872,1.73794 -2.15772,2.92461 -4.00912,2.7288c-0.83472,-0.08828 -1.57637,-0.44405 -2.14881,-0.97308l-3.33502,-3.0097l0.00461,-0.00511c-0.00835,-0.00448 -0.01667,-0.00897 -0.025,-0.01345c-0.04667,-0.02512 -0.09267,-0.05016 -0.13801,-0.07512c-0.58955,1.55449 -2.16977,2.57983 -3.9007,2.39676c-0.39086,-0.04134 -0.76132,-0.14132 -1.10354,-0.29028c-0.66378,1.39753 -2.15674,2.29182 -3.78267,2.11985c-0.71475,-0.0756 -1.36126,-0.34731 -1.89173,-0.75599c-0.77651,0.86394 -1.94222,1.35607 -3.18571,1.22455c-1.83343,-0.19391 -3.2179,-1.67823 -3.34617,-3.45476c-0.48955,0.32945 -1.65684,0.47966 -3.0422,0.51945c-0.61536,0.30456 -1.3216,0.44391 -2.05492,0.36635c-0.11951,-0.01264 -0.2371,-0.03076 -0.35255,-0.05408c-0.41366,1.39429 -0.80363,2.57724 -0.99045,3.34854l-4.28406,-4.11519c-0.17201,0.49316 -0.44272,0.93582 -0.78641,1.30712c0.02427,0.24888 0.02387,0.50391 -0.00346,0.7623c-0.21783,2.05959 -2.06403,3.55261 -4.12362,3.33479c-0.36956,-0.0391 -0.72088,-0.1306 -1.04734,-0.26637l-3.46112,-1.34892l0.00007,-0.00018c-1.20173,-0.48971 -2.42277,-1.00524 -3.57545,-1.5861c-1.10308,-0.12903 -2.04016,-0.72595 -2.63339,-1.57084c-1.41062,-1.02366 -2.53363,-2.24801 -3.11028,-3.78968c-0.74309,1.15047 -2.09167,1.85051 -3.54674,1.69662c-0.61041,-0.06456 -1.17106,-0.27216 -1.65216,-0.58597c-0.74293,0.59037 -1.70902,0.90084 -2.72725,0.79316c-1.40331,-0.14842 -2.54361,-1.05282 -3.05892,-2.26559c-0.44446,0.12469 -0.91955,0.16886 -1.40658,0.11735c-1.47695,-0.15621 -2.66255,-1.14981 -3.13481,-2.45898c-0.59284,1.54829 -2.16965,2.56834 -3.89648,2.3857c-1.91983,-0.20305 -3.3474,-1.82098 -3.35586,-3.70774l-0.05006,-2.6372l0.2401,-0.00457c-0.09469,-0.10879 -0.19298,-0.21491 -0.29527,-0.31809c-0.24978,-0.25197 -0.56935,-0.42574 -0.89657,-0.5891c0.09079,1.81461 -0.62218,4.42564 -0.71421,5.29573l-0.03506,0.33148c0,0 -0.39442,3.7292 -4.12363,3.33478z" fill="#14c700" stroke-width="0.5"/><path d="M415.35626,630.7047c-3.74925,-0.0755 -3.67374,-3.82474 -3.67374,-3.82474l0.00671,-0.33327c0.07089,-3.5201 -0.66092,-10.56527 2.41582,-12.94497c1.86935,-1.44584 4.63859,-0.93235 7.11042,0.17473c0.60416,-2.00051 1.94666,-3.62275 4.86105,-4.29253c1.81325,-0.41671 3.73188,0.34279 5.36113,1.68796c0.56726,-0.17899 1.22496,-0.27647 1.98772,-0.27405c0.64677,0.00206 1.22754,0.22266 1.75591,0.58259c0.61238,-0.28375 1.25563,-0.46603 1.91002,-0.50877c0.6153,-0.04018 1.22869,0.08628 1.82543,0.34353c0.08903,-0.08133 0.1817,-0.1595 0.27826,-0.23427c1.64272,-1.27212 4.22574,-0.94408 6.2222,-0.36871c0.90943,0.26209 1.64202,0.87582 2.32404,1.57302c1.71909,-0.49415 3.75733,0.72161 5.33456,2.10107c1.4263,0.28276 2.94458,0.924 4.17826,1.77431c1.33178,-1.56511 2.90544,-2.37616 4.56617,-2.37268c3.55394,-4.95042 6.66186,-2.17923 10.11063,-0.27349c1.24702,0.68908 2.6216,1.21684 3.80009,2.00606c0.63849,-0.46843 1.42981,-0.73916 2.28225,-0.72408c0.17235,-1.02022 0.53202,-1.94899 1.249,-2.70337c4.36403,-4.59164 6.86574,-1.08851 8.33054,1.92608c0.05752,-0.03334 0.11604,-0.06521 0.1756,-0.09553c-0.13786,-2.51143 1.21416,-4.54388 6.05114,-5.12809c1.72135,-0.20791 2.73275,2.13822 4.03086,3.28765c2.60222,2.30415 5.00791,5.20821 7.39581,7.69426c0,0 2.59772,2.7045 -0.10678,5.30222c-2.1141,2.03063 -4.16294,0.82134 -4.95673,0.19658c-0.32903,1.77239 -1.9009,3.09769 -3.76225,3.06021c-0.83921,-0.01691 -1.60846,-0.30822 -2.22385,-0.7866l-3.57914,-2.71484l0.00416,-0.00548c-0.0087,-0.00375 -0.01738,-0.00752 -0.02607,-0.01127c-0.04864,-0.02106 -0.09659,-0.04208 -0.14389,-0.0631c-0.45507,1.59904 -1.94226,2.75518 -3.68249,2.72014c-0.39296,-0.00791 -0.77058,-0.076 -1.12425,-0.19528c-0.54239,1.44896 -1.9538,2.4671 -3.58845,2.43418c-0.7186,-0.01447 -1.3859,-0.23017 -1.94923,-0.5922c-0.70015,0.92691 -1.81972,1.5165 -3.06989,1.49133c-1.84328,-0.03712 -3.34909,-1.39818 -3.62813,-3.15734c-0.45973,0.36993 -1.60999,0.61897 -2.98695,0.77655c-0.58718,0.35586 -1.27901,0.55481 -2.01627,0.53995c-0.12014,-0.00242 -0.23884,-0.01046 -0.35587,-0.02388c-0.29346,1.42445 -0.5813,2.6363 -0.70178,3.4207l-4.61885,-3.73554c-0.12939,0.50601 -0.36144,0.97012 -0.67227,1.36932c0.04537,0.24591 0.06668,0.50005 0.06145,0.75982c-0.0417,2.07065 -1.75409,3.71544 -3.82475,3.67374c-0.37155,-0.00748 -0.72938,-0.06875 -1.06623,-0.17624l-3.56339,-1.04936l0.00005,-0.00017c-1.23906,-0.38562 -2.49955,-0.79534 -3.69749,-1.27596c-1.11006,-0.03467 -2.09455,-0.54963 -2.75756,-1.34095c-1.49264,-0.89986 -2.71583,-2.02415 -3.42163,-3.51112c-0.64245,1.20955 -1.92655,2.02186 -3.38943,1.9924c-0.6137,-0.01236 -1.18998,-0.17147 -1.69605,-0.44317c-0.68999,0.65147 -1.62611,1.04307 -2.64982,1.02246c-1.41085,-0.02842 -2.62401,-0.83245 -3.24069,-1.99695c-0.43224,0.16208 -0.90183,0.24653 -1.39148,0.23667c-1.48488,-0.0299 -2.75077,-0.91896 -3.33277,-2.18317c-0.45888,1.59313 -1.94313,2.74372 -3.67923,2.70876c-1.93015,-0.03887 -3.49028,-1.5294 -3.65934,-3.4086l-0.27439,-2.62336l0.23884,-0.02499c-0.10361,-0.10033 -0.21059,-0.19769 -0.32128,-0.2918c-0.27032,-0.22979 -0.60353,-0.37572 -0.94348,-0.51063c0.24494,1.80028 -0.24314,4.46255 -0.26076,5.3373l-0.00672,0.33327c0,0 -0.07551,3.74923 -3.82475,3.67373z" fill="#14c700" stroke-width="0.5"/><path d="M638.01625,634.67326c-3.72919,-0.39442 -3.33479,-4.12362 -3.33479,-4.12362l0.03507,-0.33148c0.37031,-3.50128 0.24096,-10.58317 3.50912,-12.69231c1.98565,-1.28145 4.70111,-0.53406 7.06973,0.77943c0.77226,-1.94183 2.24802,-3.44387 5.20885,-3.8631c1.84214,-0.26083 3.68915,0.65924 5.19796,2.13825c0.58043,-0.13005 1.24406,-0.1712 2.00383,-0.10384c0.64424,0.05712 1.20413,0.32636 1.69994,0.72997c0.63431,-0.23058 1.29075,-0.35744 1.9464,-0.34432c0.61649,0.01235 1.21689,0.19057 1.78956,0.49769c0.09562,-0.07346 0.19462,-0.14345 0.29718,-0.20974c1.74506,-1.12765 4.29078,-0.5809 6.231,0.16234c0.88383,0.33858 1.56149,1.01244 2.18169,1.76517c1.75491,-0.346 3.68226,1.03886 5.13632,2.54758c1.39705,0.40316 2.85522,1.17132 4.01203,2.12358c1.46017,-1.44605 3.09718,-2.12018 4.75158,-1.97533c3.96249,-4.62989 6.8232,-1.60418 10.09721,0.58825c1.18383,0.79274 2.50848,1.43561 3.61551,2.32229c0.67604,-0.41238 1.48755,-0.61475 2.3356,-0.52716c0.25856,-1.00185 0.69602,-1.89663 1.47461,-2.58722c4.73908,-4.20344 6.93348,-0.50006 8.13633,2.6283c0.06015,-0.02832 0.12115,-0.05509 0.1831,-0.08023c0.07644,-2.51406 1.59659,-4.42402 6.46575,-4.59432c1.73281,-0.06061 2.54079,2.36311 3.73634,3.61889c2.39661,2.51732 4.54634,5.61564 6.71393,8.29596c0,0 2.35803,2.91583 -0.5578,5.27388c-2.2793,1.84328 -4.21776,0.46395 -4.95549,-0.22611c-0.47872,1.73794 -2.15772,2.92461 -4.00912,2.7288c-0.83472,-0.08828 -1.57637,-0.44405 -2.14881,-0.97308l-3.33502,-3.0097l0.00461,-0.00511c-0.00835,-0.00448 -0.01667,-0.00897 -0.025,-0.01345c-0.04667,-0.02512 -0.09267,-0.05016 -0.13801,-0.07512c-0.58955,1.55449 -2.16977,2.57983 -3.9007,2.39676c-0.39086,-0.04134 -0.76132,-0.14132 -1.10354,-0.29028c-0.66378,1.39753 -2.15674,2.29182 -3.78267,2.11985c-0.71475,-0.0756 -1.36126,-0.34731 -1.89173,-0.75599c-0.77651,0.86394 -1.94222,1.35607 -3.18571,1.22455c-1.83343,-0.19391 -3.2179,-1.67823 -3.34617,-3.45476c-0.48955,0.32945 -1.65684,0.47966 -3.0422,0.51945c-0.61536,0.30456 -1.3216,0.44391 -2.05492,0.36635c-0.11951,-0.01264 -0.2371,-0.03076 -0.35255,-0.05408c-0.41366,1.39429 -0.80363,2.57724 -0.99045,3.34854l-4.28406,-4.11519c-0.17201,0.49316 -0.44272,0.93582 -0.78641,1.30712c0.02427,0.24888 0.02387,0.50391 -0.00346,0.7623c-0.21783,2.05959 -2.06403,3.55261 -4.12362,3.33479c-0.36956,-0.0391 -0.72088,-0.1306 -1.04734,-0.26637l-3.46112,-1.34892l0.00007,-0.00018c-1.20173,-0.48971 -2.42277,-1.00524 -3.57545,-1.5861c-1.10308,-0.12903 -2.04016,-0.72595 -2.63339,-1.57084c-1.41062,-1.02366 -2.53363,-2.24801 -3.11028,-3.78968c-0.74309,1.15047 -2.09167,1.85051 -3.54674,1.69662c-0.61041,-0.06456 -1.17106,-0.27216 -1.65216,-0.58597c-0.74293,0.59037 -1.70902,0.90084 -2.72725,0.79316c-1.40331,-0.14842 -2.54361,-1.05282 -3.05892,-2.26559c-0.44446,0.12469 -0.91955,0.16886 -1.40658,0.11735c-1.47695,-0.15621 -2.66255,-1.14981 -3.13481,-2.45898c-0.59284,1.54829 -2.16965,2.56834 -3.89648,2.3857c-1.91983,-0.20305 -3.3474,-1.82098 -3.35586,-3.70774l-0.05006,-2.6372l0.2401,-0.00457c-0.09469,-0.10879 -0.19298,-0.21491 -0.29527,-0.31809c-0.24978,-0.25197 -0.56935,-0.42574 -0.89657,-0.5891c0.09079,1.81461 -0.62218,4.42564 -0.71421,5.29573l-0.03506,0.33148c0,0 -0.39442,3.7292 -4.12363,3.33478z" fill="#14c700" stroke-width="0.5"/><path d="M553.9899,634.2032c-3.74925,-0.0755 -3.67374,-3.82474 -3.67374,-3.82474l0.00671,-0.33327c0.07089,-3.5201 -0.66092,-10.56527 2.41582,-12.94497c1.86935,-1.44584 4.63859,-0.93235 7.11042,0.17473c0.60416,-2.00051 1.94666,-3.62275 4.86105,-4.29253c1.81325,-0.41671 3.73188,0.34279 5.36113,1.68796c0.56726,-0.17899 1.22496,-0.27647 1.98772,-0.27405c0.64677,0.00206 1.22754,0.22266 1.75591,0.58259c0.61238,-0.28375 1.25563,-0.46603 1.91002,-0.50877c0.6153,-0.04018 1.22869,0.08628 1.82543,0.34353c0.08903,-0.08133 0.1817,-0.1595 0.27826,-0.23427c1.64272,-1.27212 4.22574,-0.94408 6.2222,-0.36871c0.90943,0.26209 1.64202,0.87582 2.32404,1.57302c1.71909,-0.49415 3.75733,0.72161 5.33456,2.10107c1.4263,0.28276 2.94458,0.924 4.17826,1.77431c1.33178,-1.56511 2.90544,-2.37616 4.56617,-2.37268c3.55394,-4.95042 6.66186,-2.17923 10.11063,-0.27349c1.24702,0.68908 2.6216,1.21684 3.80009,2.00606c0.63849,-0.46843 1.42981,-0.73916 2.28225,-0.72408c0.17235,-1.02022 0.53202,-1.94899 1.249,-2.70337c4.36403,-4.59164 6.86574,-1.08851 8.33054,1.92608c0.05752,-0.03334 0.11604,-0.06521 0.1756,-0.09553c-0.13786,-2.51143 1.21416,-4.54388 6.05114,-5.12809c1.72135,-0.20791 2.73275,2.13822 4.03086,3.28765c2.60222,2.30415 5.00791,5.20821 7.39581,7.69426c0,0 2.59772,2.7045 -0.10678,5.30222c-2.1141,2.03063 -4.16294,0.82134 -4.95673,0.19658c-0.32903,1.77239 -1.9009,3.09769 -3.76225,3.06021c-0.83921,-0.01691 -1.60846,-0.30822 -2.22385,-0.7866l-3.57914,-2.71484l0.00416,-0.00548c-0.0087,-0.00375 -0.01738,-0.00752 -0.02607,-0.01127c-0.04864,-0.02106 -0.09659,-0.04208 -0.14389,-0.0631c-0.45507,1.59904 -1.94226,2.75518 -3.68249,2.72014c-0.39296,-0.00791 -0.77058,-0.076 -1.12425,-0.19528c-0.54239,1.44896 -1.9538,2.4671 -3.58845,2.43418c-0.7186,-0.01447 -1.3859,-0.23017 -1.94923,-0.5922c-0.70015,0.92691 -1.81972,1.5165 -3.06989,1.49133c-1.84328,-0.03712 -3.34909,-1.39818 -3.62813,-3.15734c-0.45973,0.36993 -1.60999,0.61897 -2.98695,0.77655c-0.58718,0.35586 -1.27901,0.55481 -2.01627,0.53995c-0.12014,-0.00242 -0.23884,-0.01046 -0.35587,-0.02388c-0.29346,1.42445 -0.5813,2.6363 -0.70178,3.4207l-4.61885,-3.73554c-0.12939,0.50601 -0.36144,0.97012 -0.67227,1.36932c0.04537,0.24591 0.06668,0.50005 0.06145,0.75982c-0.0417,2.07065 -1.75409,3.71544 -3.82475,3.67374c-0.37155,-0.00748 -0.72938,-0.06875 -1.06623,-0.17624l-3.56339,-1.04936l0.00005,-0.00017c-1.23906,-0.38562 -2.49955,-0.79534 -3.69749,-1.27596c-1.11006,-0.03467 -2.09455,-0.54963 -2.75756,-1.34095c-1.49264,-0.89986 -2.71583,-2.02415 -3.42163,-3.51112c-0.64245,1.20955 -1.92655,2.02186 -3.38943,1.9924c-0.6137,-0.01236 -1.18998,-0.17147 -1.69605,-0.44317c-0.68999,0.65147 -1.62611,1.04307 -2.64982,1.02246c-1.41085,-0.02842 -2.62401,-0.83245 -3.24069,-1.99695c-0.43224,0.16208 -0.90183,0.24653 -1.39148,0.23667c-1.48488,-0.0299 -2.75077,-0.91896 -3.33277,-2.18317c-0.45888,1.59313 -1.94313,2.74372 -3.67923,2.70876c-1.93015,-0.03887 -3.49028,-1.5294 -3.65934,-3.4086l-0.27439,-2.62336l0.23884,-0.02499c-0.10361,-0.10033 -0.21059,-0.19769 -0.32128,-0.2918c-0.27032,-0.22979 -0.60353,-0.37572 -0.94348,-0.51063c0.24494,1.80028 -0.24314,4.46255 -0.26076,5.3373l-0.00672,0.33327c0,0 -0.07551,3.74923 -3.82475,3.67373z" fill="#14c700" stroke-width="0.5"/><path d="M794.6679,641.17476c-3.72919,-0.39442 -3.33479,-4.12362 -3.33479,-4.12362l0.03507,-0.33148c0.37031,-3.50128 0.24096,-10.58317 3.50912,-12.69231c1.98565,-1.28145 4.70111,-0.53406 7.06973,0.77943c0.77226,-1.94183 2.24802,-3.44387 5.20885,-3.8631c1.84214,-0.26083 3.68915,0.65924 5.19796,2.13825c0.58043,-0.13005 1.24406,-0.1712 2.00383,-0.10384c0.64424,0.05712 1.20413,0.32636 1.69994,0.72997c0.63431,-0.23058 1.29075,-0.35744 1.9464,-0.34432c0.61649,0.01235 1.21689,0.19057 1.78956,0.49769c0.09562,-0.07346 0.19462,-0.14345 0.29718,-0.20974c1.74506,-1.12765 4.29078,-0.5809 6.231,0.16234c0.88383,0.33858 1.56149,1.01244 2.18169,1.76517c1.75491,-0.346 3.68226,1.03886 5.13632,2.54758c1.39705,0.40316 2.85522,1.17132 4.01203,2.12358c1.46017,-1.44605 3.09718,-2.12018 4.75158,-1.97533c3.96249,-4.62989 6.8232,-1.60418 10.09721,0.58825c1.18383,0.79274 2.50848,1.43561 3.61551,2.32229c0.67604,-0.41238 1.48755,-0.61475 2.3356,-0.52716c0.25856,-1.00185 0.69602,-1.89663 1.47461,-2.58722c4.73908,-4.20344 6.93348,-0.50006 8.13633,2.6283c0.06015,-0.02832 0.12115,-0.05509 0.1831,-0.08023c0.07644,-2.51406 1.59659,-4.42402 6.46575,-4.59432c1.73281,-0.06061 2.54079,2.36311 3.73634,3.61889c2.39661,2.51732 4.54634,5.61564 6.71393,8.29596c0,0 2.35803,2.91583 -0.5578,5.27388c-2.2793,1.84328 -4.21776,0.46395 -4.95549,-0.22611c-0.47872,1.73794 -2.15772,2.92461 -4.00912,2.7288c-0.83472,-0.08828 -1.57637,-0.44405 -2.14881,-0.97308l-3.33502,-3.0097l0.00461,-0.00511c-0.00835,-0.00448 -0.01667,-0.00897 -0.025,-0.01345c-0.04667,-0.02512 -0.09267,-0.05016 -0.13801,-0.07512c-0.58955,1.55449 -2.16977,2.57983 -3.9007,2.39676c-0.39086,-0.04134 -0.76132,-0.14132 -1.10354,-0.29028c-0.66378,1.39753 -2.15674,2.29182 -3.78267,2.11985c-0.71475,-0.0756 -1.36126,-0.34731 -1.89173,-0.75599c-0.77651,0.86394 -1.94222,1.35607 -3.18571,1.22455c-1.83343,-0.19391 -3.2179,-1.67823 -3.34617,-3.45476c-0.48955,0.32945 -1.65684,0.47966 -3.0422,0.51945c-0.61536,0.30456 -1.3216,0.44391 -2.05492,0.36635c-0.11951,-0.01264 -0.2371,-0.03076 -0.35255,-0.05408c-0.41366,1.39429 -0.80363,2.57724 -0.99045,3.34854l-4.28406,-4.11519c-0.17201,0.49316 -0.44272,0.93582 -0.78641,1.30712c0.02427,0.24888 0.02387,0.50391 -0.00346,0.7623c-0.21783,2.05959 -2.06403,3.55261 -4.12362,3.33479c-0.36956,-0.0391 -0.72088,-0.1306 -1.04734,-0.26637l-3.46112,-1.34892l0.00007,-0.00018c-1.20173,-0.48971 -2.42277,-1.00524 -3.57545,-1.5861c-1.10308,-0.12903 -2.04016,-0.72595 -2.63339,-1.57084c-1.41062,-1.02366 -2.53363,-2.24801 -3.11028,-3.78968c-0.74309,1.15047 -2.09167,1.85051 -3.54674,1.69662c-0.61041,-0.06456 -1.17106,-0.27216 -1.65216,-0.58597c-0.74293,0.59037 -1.70902,0.90084 -2.72725,0.79316c-1.40331,-0.14842 -2.54361,-1.05282 -3.05892,-2.26559c-0.44446,0.12469 -0.91955,0.16886 -1.40658,0.11735c-1.47695,-0.15621 -2.66255,-1.14981 -3.13481,-2.45898c-0.59284,1.54829 -2.16965,2.56834 -3.89648,2.3857c-1.91983,-0.20305 -3.3474,-1.82098 -3.35586,-3.70774l-0.05006,-2.6372l0.2401,-0.00457c-0.09469,-0.10879 -0.19298,-0.21491 -0.29527,-0.31809c-0.24978,-0.25197 -0.56935,-0.42574 -0.89657,-0.5891c0.09079,1.81461 -0.62218,4.42564 -0.71421,5.29573l-0.03506,0.33148c0,0 -0.39442,3.7292 -4.12363,3.33478z" fill="#14c700" stroke-width="0.5"/><path d="M710.64155,640.7047c-3.74925,-0.0755 -3.67374,-3.82474 -3.67374,-3.82474l0.00671,-0.33327c0.07089,-3.5201 -0.66092,-10.56527 2.41582,-12.94497c1.86935,-1.44584 4.63859,-0.93235 7.11042,0.17473c0.60416,-2.00051 1.94666,-3.62275 4.86105,-4.29253c1.81325,-0.41671 3.73188,0.34279 5.36113,1.68796c0.56726,-0.17899 1.22496,-0.27647 1.98772,-0.27405c0.64677,0.00206 1.22754,0.22266 1.75591,0.58259c0.61238,-0.28375 1.25563,-0.46603 1.91002,-0.50877c0.6153,-0.04018 1.22869,0.08628 1.82543,0.34353c0.08903,-0.08133 0.1817,-0.1595 0.27826,-0.23427c1.64272,-1.27212 4.22574,-0.94408 6.2222,-0.36871c0.90943,0.26209 1.64202,0.87582 2.32404,1.57302c1.71909,-0.49415 3.75733,0.72161 5.33456,2.10107c1.4263,0.28276 2.94458,0.924 4.17826,1.77431c1.33178,-1.56511 2.90544,-2.37616 4.56617,-2.37268c3.55394,-4.95042 6.66186,-2.17923 10.11063,-0.27349c1.24702,0.68908 2.6216,1.21684 3.80009,2.00606c0.63849,-0.46843 1.42981,-0.73916 2.28225,-0.72408c0.17235,-1.02022 0.53202,-1.94899 1.249,-2.70337c4.36403,-4.59164 6.86574,-1.08851 8.33054,1.92608c0.05752,-0.03334 0.11604,-0.06521 0.1756,-0.09553c-0.13786,-2.51143 1.21416,-4.54388 6.05114,-5.12809c1.72135,-0.20791 2.73275,2.13822 4.03086,3.28765c2.60222,2.30415 5.00791,5.20821 7.39581,7.69426c0,0 2.59772,2.7045 -0.10678,5.30222c-2.1141,2.03063 -4.16294,0.82134 -4.95673,0.19658c-0.32903,1.77239 -1.9009,3.09769 -3.76225,3.06021c-0.83921,-0.01691 -1.60846,-0.30822 -2.22385,-0.7866l-3.57914,-2.71484l0.00416,-0.00548c-0.0087,-0.00375 -0.01738,-0.00752 -0.02607,-0.01127c-0.04864,-0.02106 -0.09659,-0.04208 -0.14389,-0.0631c-0.45507,1.59904 -1.94226,2.75518 -3.68249,2.72014c-0.39296,-0.00791 -0.77058,-0.076 -1.12425,-0.19528c-0.54239,1.44896 -1.9538,2.4671 -3.58845,2.43418c-0.7186,-0.01447 -1.3859,-0.23017 -1.94923,-0.5922c-0.70015,0.92691 -1.81972,1.5165 -3.06989,1.49133c-1.84328,-0.03712 -3.34909,-1.39818 -3.62813,-3.15734c-0.45973,0.36993 -1.60999,0.61897 -2.98695,0.77655c-0.58718,0.35586 -1.27901,0.55481 -2.01627,0.53995c-0.12014,-0.00242 -0.23884,-0.01046 -0.35587,-0.02388c-0.29346,1.42445 -0.5813,2.6363 -0.70178,3.4207l-4.61885,-3.73554c-0.12939,0.50601 -0.36144,0.97012 -0.67227,1.36932c0.04537,0.24591 0.06668,0.50005 0.06145,0.75982c-0.0417,2.07065 -1.75409,3.71544 -3.82475,3.67374c-0.37155,-0.00748 -0.72938,-0.06875 -1.06623,-0.17624l-3.56339,-1.04936l0.00005,-0.00017c-1.23906,-0.38562 -2.49955,-0.79534 -3.69749,-1.27596c-1.11006,-0.03467 -2.09455,-0.54963 -2.75756,-1.34095c-1.49264,-0.89986 -2.71583,-2.02415 -3.42163,-3.51112c-0.64245,1.20955 -1.92655,2.02186 -3.38943,1.9924c-0.6137,-0.01236 -1.18998,-0.17147 -1.69605,-0.44317c-0.68999,0.65147 -1.62611,1.04307 -2.64982,1.02246c-1.41085,-0.02842 -2.62401,-0.83245 -3.24069,-1.99695c-0.43224,0.16208 -0.90183,0.24653 -1.39148,0.23667c-1.48488,-0.0299 -2.75077,-0.91896 -3.33277,-2.18317c-0.45888,1.59313 -1.94313,2.74372 -3.67923,2.70876c-1.93015,-0.03887 -3.49028,-1.5294 -3.65934,-3.4086l-0.27439,-2.62336l0.23884,-0.02499c-0.10361,-0.10033 -0.21059,-0.19769 -0.32128,-0.2918c-0.27032,-0.22979 -0.60353,-0.37572 -0.94348,-0.51063c0.24494,1.80028 -0.24314,4.46255 -0.26076,5.3373l-0.00672,0.33327c0,0 -0.07551,3.74923 -3.82475,3.67373z" fill="#14c700" stroke-width="0.5"/><path d="M894.26249,641.67025c-3.72919,-0.39442 -3.33479,-4.12362 -3.33479,-4.12362l0.03507,-0.33148c0.37031,-3.50128 0.24096,-10.58317 3.50912,-12.69231c1.98565,-1.28145 4.70111,-0.53406 7.06973,0.77943c0.77226,-1.94183 2.24802,-3.44387 5.20885,-3.8631c1.84214,-0.26083 3.68915,0.65924 5.19796,2.13825c0.58043,-0.13005 1.24406,-0.1712 2.00383,-0.10384c0.64424,0.05712 1.20413,0.32636 1.69994,0.72997c0.63431,-0.23058 1.29075,-0.35744 1.9464,-0.34432c0.61649,0.01235 1.21689,0.19057 1.78956,0.49769c0.09562,-0.07346 0.19462,-0.14345 0.29718,-0.20974c1.74506,-1.12765 4.29078,-0.5809 6.231,0.16234c0.88383,0.33858 1.56149,1.01244 2.18169,1.76517c1.75491,-0.346 3.68226,1.03886 5.13632,2.54758c1.39705,0.40316 2.85522,1.17132 4.01203,2.12358c1.46017,-1.44605 3.09718,-2.12018 4.75158,-1.97533c3.96249,-4.62989 6.8232,-1.60418 10.09721,0.58825c1.18383,0.79274 2.50848,1.43561 3.61551,2.32229c0.67604,-0.41238 1.48755,-0.61475 2.3356,-0.52716c0.25856,-1.00185 0.69602,-1.89663 1.47461,-2.58722c4.73908,-4.20344 6.93348,-0.50006 8.13633,2.6283c0.06015,-0.02832 0.12115,-0.05509 0.1831,-0.08023c0.07644,-2.51406 1.59659,-4.42402 6.46575,-4.59432c1.73281,-0.06061 2.54079,2.36311 3.73634,3.61889c2.39661,2.51732 4.54634,5.61564 6.71393,8.29596c0,0 2.35803,2.91583 -0.5578,5.27388c-2.2793,1.84328 -4.21776,0.46395 -4.95549,-0.22611c-0.47872,1.73794 -2.15772,2.92461 -4.00912,2.7288c-0.83472,-0.08828 -1.57637,-0.44405 -2.14881,-0.97308l-3.33502,-3.0097l0.00461,-0.00511c-0.00835,-0.00448 -0.01667,-0.00897 -0.025,-0.01345c-0.04667,-0.02512 -0.09267,-0.05016 -0.13801,-0.07512c-0.58955,1.55449 -2.16977,2.57983 -3.9007,2.39676c-0.39086,-0.04134 -0.76132,-0.14132 -1.10354,-0.29028c-0.66378,1.39753 -2.15674,2.29182 -3.78267,2.11985c-0.71475,-0.0756 -1.36126,-0.34731 -1.89173,-0.75599c-0.77651,0.86394 -1.94222,1.35607 -3.18571,1.22455c-1.83343,-0.19391 -3.2179,-1.67823 -3.34617,-3.45476c-0.48955,0.32945 -1.65684,0.47966 -3.0422,0.51945c-0.61536,0.30456 -1.3216,0.44391 -2.05492,0.36635c-0.11951,-0.01264 -0.2371,-0.03076 -0.35255,-0.05408c-0.41366,1.39429 -0.80363,2.57724 -0.99045,3.34854l-4.28406,-4.11519c-0.17201,0.49316 -0.44272,0.93582 -0.78641,1.30712c0.02427,0.24888 0.02387,0.50391 -0.00346,0.7623c-0.21783,2.05959 -2.06403,3.55261 -4.12362,3.33479c-0.36956,-0.0391 -0.72088,-0.1306 -1.04734,-0.26637l-3.46112,-1.34892l0.00007,-0.00018c-1.20173,-0.48971 -2.42277,-1.00524 -3.57545,-1.5861c-1.10308,-0.12903 -2.04016,-0.72595 -2.63339,-1.57084c-1.41062,-1.02366 -2.53363,-2.24801 -3.11028,-3.78968c-0.74309,1.15047 -2.09167,1.85051 -3.54674,1.69662c-0.61041,-0.06456 -1.17106,-0.27216 -1.65216,-0.58597c-0.74293,0.59037 -1.70902,0.90084 -2.72725,0.79316c-1.40331,-0.14842 -2.54361,-1.05282 -3.05892,-2.26559c-0.44446,0.12469 -0.91955,0.16886 -1.40658,0.11735c-1.47695,-0.15621 -2.66255,-1.14981 -3.13481,-2.45898c-0.59284,1.54829 -2.16965,2.56834 -3.89648,2.3857c-1.91983,-0.20305 -3.3474,-1.82098 -3.35586,-3.70774l-0.05006,-2.6372l0.2401,-0.00457c-0.09469,-0.10879 -0.19298,-0.21491 -0.29527,-0.31809c-0.24978,-0.25197 -0.56935,-0.42574 -0.89657,-0.5891c0.09079,1.81461 -0.62218,4.42564 -0.71421,5.29573l-0.03506,0.33148c0,0 -0.39442,3.7292 -4.12363,3.33478z" fill="#14c700" stroke-width="0.5"/><path d="M810.23614,641.20019c-3.74925,-0.0755 -3.67374,-3.82474 -3.67374,-3.82474l0.00671,-0.33327c0.07089,-3.5201 -0.66092,-10.56527 2.41582,-12.94497c1.86935,-1.44584 4.63859,-0.93235 7.11042,0.17473c0.60416,-2.00051 1.94666,-3.62275 4.86105,-4.29253c1.81325,-0.41671 3.73188,0.34279 5.36113,1.68796c0.56726,-0.17899 1.22496,-0.27647 1.98772,-0.27405c0.64677,0.00206 1.22754,0.22266 1.75591,0.58259c0.61238,-0.28375 1.25563,-0.46603 1.91002,-0.50877c0.6153,-0.04018 1.22869,0.08628 1.82543,0.34353c0.08903,-0.08133 0.1817,-0.1595 0.27826,-0.23427c1.64272,-1.27212 4.22574,-0.94408 6.2222,-0.36871c0.90943,0.26209 1.64202,0.87582 2.32404,1.57302c1.71909,-0.49415 3.75733,0.72161 5.33456,2.10107c1.4263,0.28276 2.94458,0.924 4.17826,1.77431c1.33178,-1.56511 2.90544,-2.37616 4.56617,-2.37268c3.55394,-4.95042 6.66186,-2.17923 10.11063,-0.27349c1.24702,0.68908 2.6216,1.21684 3.80009,2.00606c0.63849,-0.46843 1.42981,-0.73916 2.28225,-0.72408c0.17235,-1.02022 0.53202,-1.94899 1.249,-2.70337c4.36403,-4.59164 6.86574,-1.08851 8.33054,1.92608c0.05752,-0.03334 0.11604,-0.06521 0.1756,-0.09553c-0.13786,-2.51143 1.21416,-4.54388 6.05114,-5.12809c1.72135,-0.20791 2.73275,2.13822 4.03086,3.28765c2.60222,2.30415 5.00791,5.20821 7.39581,7.69426c0,0 2.59772,2.7045 -0.10678,5.30222c-2.1141,2.03063 -4.16294,0.82134 -4.95673,0.19658c-0.32903,1.77239 -1.9009,3.09769 -3.76225,3.06021c-0.83921,-0.01691 -1.60846,-0.30822 -2.22385,-0.7866l-3.57914,-2.71484l0.00416,-0.00548c-0.0087,-0.00375 -0.01738,-0.00752 -0.02607,-0.01127c-0.04864,-0.02106 -0.09659,-0.04208 -0.14389,-0.0631c-0.45507,1.59904 -1.94226,2.75518 -3.68249,2.72014c-0.39296,-0.00791 -0.77058,-0.076 -1.12425,-0.19528c-0.54239,1.44896 -1.9538,2.4671 -3.58845,2.43418c-0.7186,-0.01447 -1.3859,-0.23017 -1.94923,-0.5922c-0.70015,0.92691 -1.81972,1.5165 -3.06989,1.49133c-1.84328,-0.03712 -3.34909,-1.39818 -3.62813,-3.15734c-0.45973,0.36993 -1.60999,0.61897 -2.98695,0.77655c-0.58718,0.35586 -1.27901,0.55481 -2.01627,0.53995c-0.12014,-0.00242 -0.23884,-0.01046 -0.35587,-0.02388c-0.29346,1.42445 -0.5813,2.6363 -0.70178,3.4207l-4.61885,-3.73554c-0.12939,0.50601 -0.36144,0.97012 -0.67227,1.36932c0.04537,0.24591 0.06668,0.50005 0.06145,0.75982c-0.0417,2.07065 -1.75409,3.71544 -3.82475,3.67374c-0.37155,-0.00748 -0.72938,-0.06875 -1.06623,-0.17624l-3.56339,-1.04936l0.00005,-0.00017c-1.23906,-0.38562 -2.49955,-0.79534 -3.69749,-1.27596c-1.11006,-0.03467 -2.09455,-0.54963 -2.75756,-1.34095c-1.49264,-0.89986 -2.71583,-2.02415 -3.42163,-3.51112c-0.64245,1.20955 -1.92655,2.02186 -3.38943,1.9924c-0.6137,-0.01236 -1.18998,-0.17147 -1.69605,-0.44317c-0.68999,0.65147 -1.62611,1.04307 -2.64982,1.02246c-1.41085,-0.02842 -2.62401,-0.83245 -3.24069,-1.99695c-0.43224,0.16208 -0.90183,0.24653 -1.39148,0.23667c-1.48488,-0.0299 -2.75077,-0.91896 -3.33277,-2.18317c-0.45888,1.59313 -1.94313,2.74372 -3.67923,2.70876c-1.93015,-0.03887 -3.49028,-1.5294 -3.65934,-3.4086l-0.27439,-2.62336l0.23884,-0.02499c-0.10361,-0.10033 -0.21059,-0.19769 -0.32128,-0.2918c-0.27032,-0.22979 -0.60353,-0.37572 -0.94348,-0.51063c0.24494,1.80028 -0.24314,4.46255 -0.26076,5.3373l-0.00672,0.33327c0,0 -0.07551,3.74923 -3.82475,3.67373z" fill="#14c700" stroke-width="0.5"/><path d="M966.83006,643.66725c-3.72919,-0.39442 -3.33479,-4.12362 -3.33479,-4.12362l0.03507,-0.33148c0.37031,-3.50128 0.24096,-10.58317 3.50912,-12.69231c1.98565,-1.28145 4.70111,-0.53406 7.06973,0.77943c0.77226,-1.94183 2.24802,-3.44387 5.20885,-3.8631c1.84214,-0.26083 3.68915,0.65924 5.19796,2.13825c0.58043,-0.13005 1.24406,-0.1712 2.00383,-0.10384c0.64424,0.05712 1.20413,0.32636 1.69994,0.72997c0.63431,-0.23058 1.29075,-0.35744 1.9464,-0.34432c0.61649,0.01235 1.21689,0.19057 1.78956,0.49769c0.09562,-0.07346 0.19462,-0.14345 0.29718,-0.20974c1.74506,-1.12765 4.29078,-0.5809 6.231,0.16234c0.88383,0.33858 1.56149,1.01244 2.18169,1.76517c1.75491,-0.346 3.68226,1.03886 5.13632,2.54758c1.39705,0.40316 2.85522,1.17132 4.01203,2.12358c1.46017,-1.44605 3.09718,-2.12018 4.75158,-1.97533c3.96249,-4.62989 6.8232,-1.60418 10.09721,0.58825c1.18383,0.79274 2.50848,1.43561 3.61551,2.32229c0.67604,-0.41238 1.48755,-0.61475 2.3356,-0.52716c0.25856,-1.00185 0.69602,-1.89663 1.47461,-2.58722c4.73908,-4.20344 6.93348,-0.50006 8.13633,2.6283c0.06015,-0.02832 0.12115,-0.05509 0.1831,-0.08023c0.07644,-2.51406 1.59659,-4.42402 6.46575,-4.59432c1.73281,-0.06061 2.54079,2.36311 3.73634,3.61889c2.39661,2.51732 4.54634,5.61564 6.71393,8.29596c0,0 2.35803,2.91583 -0.5578,5.27388c-2.2793,1.84328 -4.21776,0.46395 -4.95549,-0.22611c-0.47872,1.73794 -2.15772,2.92461 -4.00912,2.7288c-0.83472,-0.08828 -1.57637,-0.44405 -2.14881,-0.97308l-3.33502,-3.0097l0.00461,-0.00511c-0.00835,-0.00448 -0.01667,-0.00897 -0.025,-0.01345c-0.04667,-0.02512 -0.09267,-0.05016 -0.13801,-0.07512c-0.58955,1.55449 -2.16977,2.57983 -3.9007,2.39676c-0.39086,-0.04134 -0.76132,-0.14132 -1.10354,-0.29028c-0.66378,1.39753 -2.15674,2.29182 -3.78267,2.11985c-0.71475,-0.0756 -1.36126,-0.34731 -1.89173,-0.75599c-0.77651,0.86394 -1.94222,1.35607 -3.18571,1.22455c-1.83343,-0.19391 -3.2179,-1.67823 -3.34617,-3.45476c-0.48955,0.32945 -1.65684,0.47966 -3.0422,0.51945c-0.61536,0.30456 -1.3216,0.44391 -2.05492,0.36635c-0.11951,-0.01264 -0.2371,-0.03076 -0.35255,-0.05408c-0.41366,1.39429 -0.80363,2.57724 -0.99045,3.34854l-4.28406,-4.11519c-0.17201,0.49316 -0.44272,0.93582 -0.78641,1.30712c0.02427,0.24888 0.02387,0.50391 -0.00346,0.7623c-0.21783,2.05959 -2.06403,3.55261 -4.12362,3.33479c-0.36956,-0.0391 -0.72088,-0.1306 -1.04734,-0.26637l-3.46112,-1.34892l0.00007,-0.00018c-1.20173,-0.48971 -2.42277,-1.00524 -3.57545,-1.5861c-1.10308,-0.12903 -2.04016,-0.72595 -2.63339,-1.57084c-1.41062,-1.02366 -2.53363,-2.24801 -3.11028,-3.78968c-0.74309,1.15047 -2.09167,1.85051 -3.54674,1.69662c-0.61041,-0.06456 -1.17106,-0.27216 -1.65216,-0.58597c-0.74293,0.59037 -1.70902,0.90084 -2.72725,0.79316c-1.40331,-0.14842 -2.54361,-1.05282 -3.05892,-2.26559c-0.44446,0.12469 -0.91955,0.16886 -1.40658,0.11735c-1.47695,-0.15621 -2.66255,-1.14981 -3.13481,-2.45898c-0.59284,1.54829 -2.16965,2.56834 -3.89648,2.3857c-1.91983,-0.20305 -3.3474,-1.82098 -3.35586,-3.70774l-0.05006,-2.6372l0.2401,-0.00457c-0.09469,-0.10879 -0.19298,-0.21491 -0.29527,-0.31809c-0.24978,-0.25197 -0.56935,-0.42574 -0.89657,-0.5891c0.09079,1.81461 -0.62218,4.42564 -0.71421,5.29573l-0.03506,0.33148c0,0 -0.39442,3.7292 -4.12363,3.33478z" fill="#14c700" stroke-width="0.5"/><path d="M882.80371,643.19719c-3.74925,-0.0755 -3.67374,-3.82474 -3.67374,-3.82474l0.00671,-0.33327c0.07089,-3.5201 -0.66092,-10.56527 2.41582,-12.94497c1.86935,-1.44584 4.63859,-0.93235 7.11042,0.17473c0.60416,-2.00051 1.94666,-3.62275 4.86105,-4.29253c1.81325,-0.41671 3.73188,0.34279 5.36113,1.68796c0.56726,-0.17899 1.22496,-0.27647 1.98772,-0.27405c0.64677,0.00206 1.22754,0.22266 1.75591,0.58259c0.61238,-0.28375 1.25563,-0.46603 1.91002,-0.50877c0.6153,-0.04018 1.22869,0.08628 1.82543,0.34353c0.08903,-0.08133 0.1817,-0.1595 0.27826,-0.23427c1.64272,-1.27212 4.22574,-0.94408 6.2222,-0.36871c0.90943,0.26209 1.64202,0.87582 2.32404,1.57302c1.71909,-0.49415 3.75733,0.72161 5.33456,2.10107c1.4263,0.28276 2.94458,0.924 4.17826,1.77431c1.33178,-1.56511 2.90544,-2.37616 4.56617,-2.37268c3.55394,-4.95042 6.66186,-2.17923 10.11063,-0.27349c1.24702,0.68908 2.6216,1.21684 3.80009,2.00606c0.63849,-0.46843 1.42981,-0.73916 2.28225,-0.72408c0.17235,-1.02022 0.53202,-1.94899 1.249,-2.70337c4.36403,-4.59164 6.86574,-1.08851 8.33054,1.92608c0.05752,-0.03334 0.11604,-0.06521 0.1756,-0.09553c-0.13786,-2.51143 1.21416,-4.54388 6.05114,-5.12809c1.72135,-0.20791 2.73275,2.13822 4.03086,3.28765c2.60222,2.30415 5.00791,5.20821 7.39581,7.69426c0,0 2.59772,2.7045 -0.10678,5.30222c-2.1141,2.03063 -4.16294,0.82134 -4.95673,0.19658c-0.32903,1.77239 -1.9009,3.09769 -3.76225,3.06021c-0.83921,-0.01691 -1.60846,-0.30822 -2.22385,-0.7866l-3.57914,-2.71484l0.00416,-0.00548c-0.0087,-0.00375 -0.01738,-0.00752 -0.02607,-0.01127c-0.04864,-0.02106 -0.09659,-0.04208 -0.14389,-0.0631c-0.45507,1.59904 -1.94226,2.75518 -3.68249,2.72014c-0.39296,-0.00791 -0.77058,-0.076 -1.12425,-0.19528c-0.54239,1.44896 -1.9538,2.4671 -3.58845,2.43418c-0.7186,-0.01447 -1.3859,-0.23017 -1.94923,-0.5922c-0.70015,0.92691 -1.81972,1.5165 -3.06989,1.49133c-1.84328,-0.03712 -3.34909,-1.39818 -3.62813,-3.15734c-0.45973,0.36993 -1.60999,0.61897 -2.98695,0.77655c-0.58718,0.35586 -1.27901,0.55481 -2.01627,0.53995c-0.12014,-0.00242 -0.23884,-0.01046 -0.35587,-0.02388c-0.29346,1.42445 -0.5813,2.6363 -0.70178,3.4207l-4.61885,-3.73554c-0.12939,0.50601 -0.36144,0.97012 -0.67227,1.36932c0.04537,0.24591 0.06668,0.50005 0.06145,0.75982c-0.0417,2.07065 -1.75409,3.71544 -3.82475,3.67374c-0.37155,-0.00748 -0.72938,-0.06875 -1.06623,-0.17624l-3.56339,-1.04936l0.00005,-0.00017c-1.23906,-0.38562 -2.49955,-0.79534 -3.69749,-1.27596c-1.11006,-0.03467 -2.09455,-0.54963 -2.75756,-1.34095c-1.49264,-0.89986 -2.71583,-2.02415 -3.42163,-3.51112c-0.64245,1.20955 -1.92655,2.02186 -3.38943,1.9924c-0.6137,-0.01236 -1.18998,-0.17147 -1.69605,-0.44317c-0.68999,0.65147 -1.62611,1.04307 -2.64982,1.02246c-1.41085,-0.02842 -2.62401,-0.83245 -3.24069,-1.99695c-0.43224,0.16208 -0.90183,0.24653 -1.39148,0.23667c-1.48488,-0.0299 -2.75077,-0.91896 -3.33277,-2.18317c-0.45888,1.59313 -1.94313,2.74372 -3.67923,2.70876c-1.93015,-0.03887 -3.49028,-1.5294 -3.65934,-3.4086l-0.27439,-2.62336l0.23884,-0.02499c-0.10361,-0.10033 -0.21059,-0.19769 -0.32128,-0.2918c-0.27032,-0.22979 -0.60353,-0.37572 -0.94348,-0.51063c0.24494,1.80028 -0.24314,4.46255 -0.26076,5.3373l-0.00672,0.33327c0,0 -0.07551,3.74923 -3.82475,3.67373z" fill="#14c700" stroke-width="0.5"/><path d="M994.35259,638.15674c-3.72919,-0.39442 -3.33479,-4.12362 -3.33479,-4.12362l0.03507,-0.33148c0.37031,-3.50128 0.24096,-10.58317 3.50912,-12.69231c1.98565,-1.28145 4.70111,-0.53406 7.06973,0.77943c0.77226,-1.94183 2.24802,-3.44387 5.20885,-3.8631c1.84214,-0.26083 3.68915,0.65924 5.19796,2.13825c0.58043,-0.13005 1.24406,-0.1712 2.00383,-0.10384c0.64424,0.05712 1.20413,0.32636 1.69994,0.72997c0.63431,-0.23058 1.29075,-0.35744 1.9464,-0.34432c0.61649,0.01235 1.21689,0.19057 1.78956,0.49769c0.09562,-0.07346 0.19462,-0.14345 0.29718,-0.20974c1.74506,-1.12765 4.29078,-0.5809 6.231,0.16234c0.88383,0.33858 1.56149,1.01244 2.18169,1.76517c1.75491,-0.346 3.68226,1.03886 5.13632,2.54758c1.39705,0.40316 2.85522,1.17132 4.01203,2.12358c1.46017,-1.44605 3.09718,-2.12018 4.75158,-1.97533c3.96249,-4.62989 6.8232,-1.60418 10.09721,0.58825c1.18383,0.79274 2.50848,1.43561 3.61551,2.32229c0.67604,-0.41238 1.48755,-0.61475 2.3356,-0.52716c0.25856,-1.00185 0.69602,-1.89663 1.47461,-2.58722c4.73908,-4.20344 6.93348,-0.50006 8.13633,2.6283c0.06015,-0.02832 0.12115,-0.05509 0.1831,-0.08023c0.07644,-2.51406 1.59659,-4.42402 6.46575,-4.59432c1.73281,-0.06061 2.54079,2.36311 3.73634,3.61889c2.39661,2.51732 4.54634,5.61564 6.71393,8.29596c0,0 2.35803,2.91583 -0.5578,5.27388c-2.2793,1.84328 -4.21776,0.46395 -4.95549,-0.22611c-0.47872,1.73794 -2.15772,2.92461 -4.00912,2.7288c-0.83472,-0.08828 -1.57637,-0.44405 -2.14881,-0.97308l-3.33502,-3.0097l0.00461,-0.00511c-0.00835,-0.00448 -0.01667,-0.00897 -0.025,-0.01345c-0.04667,-0.02512 -0.09267,-0.05016 -0.13801,-0.07512c-0.58955,1.55449 -2.16977,2.57983 -3.9007,2.39676c-0.39086,-0.04134 -0.76132,-0.14132 -1.10354,-0.29028c-0.66378,1.39753 -2.15674,2.29182 -3.78267,2.11985c-0.71475,-0.0756 -1.36126,-0.34731 -1.89173,-0.75599c-0.77651,0.86394 -1.94222,1.35607 -3.18571,1.22455c-1.83343,-0.19391 -3.2179,-1.67823 -3.34617,-3.45476c-0.48955,0.32945 -1.65684,0.47966 -3.0422,0.51945c-0.61536,0.30456 -1.3216,0.44391 -2.05492,0.36635c-0.11951,-0.01264 -0.2371,-0.03076 -0.35255,-0.05408c-0.41366,1.39429 -0.80363,2.57724 -0.99045,3.34854l-4.28406,-4.11519c-0.17201,0.49316 -0.44272,0.93582 -0.78641,1.30712c0.02427,0.24888 0.02387,0.50391 -0.00346,0.7623c-0.21783,2.05959 -2.06403,3.55261 -4.12362,3.33479c-0.36956,-0.0391 -0.72088,-0.1306 -1.04734,-0.26637l-3.46112,-1.34892l0.00007,-0.00018c-1.20173,-0.48971 -2.42277,-1.00524 -3.57545,-1.5861c-1.10308,-0.12903 -2.04016,-0.72595 -2.63339,-1.57084c-1.41062,-1.02366 -2.53363,-2.24801 -3.11028,-3.78968c-0.74309,1.15047 -2.09167,1.85051 -3.54674,1.69662c-0.61041,-0.06456 -1.17106,-0.27216 -1.65216,-0.58597c-0.74293,0.59037 -1.70902,0.90084 -2.72725,0.79316c-1.40331,-0.14842 -2.54361,-1.05282 -3.05892,-2.26559c-0.44446,0.12469 -0.91955,0.16886 -1.40658,0.11735c-1.47695,-0.15621 -2.66255,-1.14981 -3.13481,-2.45898c-0.59284,1.54829 -2.16965,2.56834 -3.89648,2.3857c-1.91983,-0.20305 -3.3474,-1.82098 -3.35586,-3.70774l-0.05006,-2.6372l0.2401,-0.00457c-0.09469,-0.10879 -0.19298,-0.21491 -0.29527,-0.31809c-0.24978,-0.25197 -0.56935,-0.42574 -0.89657,-0.5891c0.09079,1.81461 -0.62218,4.42564 -0.71421,5.29573l-0.03506,0.33148c0,0 -0.39442,3.7292 -4.12363,3.33478z" fill="#14c700" stroke-width="0.5"/><path d="M910.32624,637.68668c-3.74925,-0.0755 -3.67374,-3.82474 -3.67374,-3.82474l0.00671,-0.33327c0.07089,-3.5201 -0.66092,-10.56527 2.41582,-12.94497c1.86935,-1.44584 4.63859,-0.93235 7.11042,0.17473c0.60416,-2.00051 1.94666,-3.62275 4.86105,-4.29253c1.81325,-0.41671 3.73188,0.34279 5.36113,1.68796c0.56726,-0.17899 1.22496,-0.27647 1.98772,-0.27405c0.64677,0.00206 1.22754,0.22266 1.75591,0.58259c0.61238,-0.28375 1.25563,-0.46603 1.91002,-0.50877c0.6153,-0.04018 1.22869,0.08628 1.82543,0.34353c0.08903,-0.08133 0.1817,-0.1595 0.27826,-0.23427c1.64272,-1.27212 4.22574,-0.94408 6.2222,-0.36871c0.90943,0.26209 1.64202,0.87582 2.32404,1.57302c1.71909,-0.49415 3.75733,0.72161 5.33456,2.10107c1.4263,0.28276 2.94458,0.924 4.17826,1.77431c1.33178,-1.56511 2.90544,-2.37616 4.56617,-2.37268c3.55394,-4.95042 6.66186,-2.17923 10.11063,-0.27349c1.24702,0.68908 2.6216,1.21684 3.80009,2.00606c0.63849,-0.46843 1.42981,-0.73916 2.28225,-0.72408c0.17235,-1.02022 0.53202,-1.94899 1.249,-2.70337c4.36403,-4.59164 6.86574,-1.08851 8.33054,1.92608c0.05752,-0.03334 0.11604,-0.06521 0.1756,-0.09553c-0.13786,-2.51143 1.21416,-4.54388 6.05114,-5.12809c1.72135,-0.20791 2.73275,2.13822 4.03086,3.28765c2.60222,2.30415 5.00791,5.20821 7.39581,7.69426c0,0 2.59772,2.7045 -0.10678,5.30222c-2.1141,2.03063 -4.16294,0.82134 -4.95673,0.19658c-0.32903,1.77239 -1.9009,3.09769 -3.76225,3.06021c-0.83921,-0.01691 -1.60846,-0.30822 -2.22385,-0.7866l-3.57914,-2.71484l0.00416,-0.00548c-0.0087,-0.00375 -0.01738,-0.00752 -0.02607,-0.01127c-0.04864,-0.02106 -0.09659,-0.04208 -0.14389,-0.0631c-0.45507,1.59904 -1.94226,2.75518 -3.68249,2.72014c-0.39296,-0.00791 -0.77058,-0.076 -1.12425,-0.19528c-0.54239,1.44896 -1.9538,2.4671 -3.58845,2.43418c-0.7186,-0.01447 -1.3859,-0.23017 -1.94923,-0.5922c-0.70015,0.92691 -1.81972,1.5165 -3.06989,1.49133c-1.84328,-0.03712 -3.34909,-1.39818 -3.62813,-3.15734c-0.45973,0.36993 -1.60999,0.61897 -2.98695,0.77655c-0.58718,0.35586 -1.27901,0.55481 -2.01627,0.53995c-0.12014,-0.00242 -0.23884,-0.01046 -0.35587,-0.02388c-0.29346,1.42445 -0.5813,2.6363 -0.70178,3.4207l-4.61885,-3.73554c-0.12939,0.50601 -0.36144,0.97012 -0.67227,1.36932c0.04537,0.24591 0.06668,0.50005 0.06145,0.75982c-0.0417,2.07065 -1.75409,3.71544 -3.82475,3.67374c-0.37155,-0.00748 -0.72938,-0.06875 -1.06623,-0.17624l-3.56339,-1.04936l0.00005,-0.00017c-1.23906,-0.38562 -2.49955,-0.79534 -3.69749,-1.27596c-1.11006,-0.03467 -2.09455,-0.54963 -2.75756,-1.34095c-1.49264,-0.89986 -2.71583,-2.02415 -3.42163,-3.51112c-0.64245,1.20955 -1.92655,2.02186 -3.38943,1.9924c-0.6137,-0.01236 -1.18998,-0.17147 -1.69605,-0.44317c-0.68999,0.65147 -1.62611,1.04307 -2.64982,1.02246c-1.41085,-0.02842 -2.62401,-0.83245 -3.24069,-1.99695c-0.43224,0.16208 -0.90183,0.24653 -1.39148,0.23667c-1.48488,-0.0299 -2.75077,-0.91896 -3.33277,-2.18317c-0.45888,1.59313 -1.94313,2.74372 -3.67923,2.70876c-1.93015,-0.03887 -3.49028,-1.5294 -3.65934,-3.4086l-0.27439,-2.62336l0.23884,-0.02499c-0.10361,-0.10033 -0.21059,-0.19769 -0.32128,-0.2918c-0.27032,-0.22979 -0.60353,-0.37572 -0.94348,-0.51063c0.24494,1.80028 -0.24314,4.46255 -0.26076,5.3373l-0.00672,0.33327c0,0 -0.07551,3.74923 -3.82475,3.67373z" fill="#14c700" stroke-width="0.5"/><path d="M146.24803,308.25663c-3.71401,-0.51824 -3.19579,-4.23225 -3.19579,-4.23225l0.04608,-0.33013c0.48656,-3.48703 0.59282,-10.5693 3.92933,-12.56857c2.02717,-1.2147 4.71627,-0.37741 7.03989,1.01414c0.83642,-1.91507 2.36132,-3.3672 5.33446,-3.68772c1.8498,-0.19942 3.66518,0.78158 5.12397,2.30995c0.58443,-0.11067 1.24907,-0.12973 2.00618,-0.03713c0.64198,0.07852 1.19261,0.36623 1.67472,0.78611c0.64163,-0.20936 1.30192,-0.31431 1.95678,-0.27939c0.61574,0.03285 1.20988,0.23094 1.77202,0.55694c0.09801,-0.07024 0.19928,-0.1369 0.30399,-0.19974c1.7816,-1.06899 4.30773,-0.43787 6.22215,0.36949c0.87208,0.36779 1.52695,1.06382 2.12177,1.83676c1.76545,-0.28744 3.64567,1.16076 5.04875,2.71701c1.38287,0.4494 2.81468,1.26564 3.93918,2.25585c1.50746,-1.39668 3.16598,-2.01599 4.81465,-1.8162c4.11429,-4.49554 6.87278,-1.37635 10.07206,0.92376c1.15681,0.83168 2.45934,1.51825 3.53627,2.44126c0.68938,-0.38967 1.50717,-0.56493 2.35184,-0.44919c0.29174,-0.9927 0.75872,-1.87243 1.55985,-2.53674c4.87626,-4.04349 6.94628,-0.26917 8.04441,2.89746c0.06106,-0.0263 0.12292,-0.05103 0.18567,-0.0741c0.16002,-2.51013 1.74285,-4.36847 6.61498,-4.37673c1.73387,-0.00294 2.46079,2.44631 3.61391,3.74116c2.31156,2.59564 4.35705,5.76374 6.43429,8.51468c0,0 2.25974,2.99265 -0.7329,5.25241c-2.33935,1.76645 -4.23086,0.32341 -4.94523,-0.39081c-0.53626,1.72106 -2.2538,2.85123 -4.09766,2.59395c-0.83132,-0.11599 -1.56073,-0.49623 -2.11526,-1.04401l-3.23307,-3.11896l0.00478,-0.00495c-0.0082,-0.00476 -0.01636,-0.00952 -0.02454,-0.01427c-0.04581,-0.02666 -0.09095,-0.05321 -0.13544,-0.07967c-0.64093,1.53402 -2.25438,2.50624 -3.97826,2.2657c-0.38927,-0.05432 -0.7562,-0.16656 -1.09327,-0.32682c-0.70989,1.37468 -2.23177,2.21882 -3.85108,1.99287c-0.71184,-0.09933 -1.34896,-0.39239 -1.86554,-0.81849c-0.80482,0.83764 -1.98625,1.29072 -3.22468,1.11792c-1.82597,-0.25478 -3.1603,-1.78433 -3.22941,-3.56414c-0.50024,0.31299 -1.67188,0.42429 -3.05779,0.41798c-0.62515,0.28392 -1.33563,0.39971 -2.06597,0.2978c-0.11902,-0.01661 -0.23595,-0.03863 -0.35056,-0.06578c-0.45981,1.37976 -0.8889,2.54909 -1.10127,3.31374l-4.14482,-4.2554c-0.18832,0.48717 -0.4736,0.92058 -0.82945,1.28024c0.01598,0.24955 0.0071,0.50443 -0.02881,0.76176c-0.28621,2.05121 -2.18105,3.48199 -4.23225,3.19579c-0.36806,-0.05137 -0.71614,-0.1545 -1.0379,-0.30106l-3.41434,-1.46329l0.00008,-0.00018c-1.18478,-0.52941 -2.388,-1.08527 -3.52072,-1.70414c-1.09818,-0.16565 -2.01489,-0.7934 -2.57969,-1.65756c-1.37579,-1.07001 -2.45746,-2.33104 -2.98251,-3.89103c-0.78094,1.12512 -2.15206,1.77992 -3.60121,1.57772c-0.60793,-0.08483 -1.16136,-0.31096 -1.63176,-0.6406c-0.76215,0.56533 -1.73804,0.8435 -2.75212,0.70201c-1.3976,-0.19501 -2.50719,-1.13684 -2.98187,-2.36608c-0.44836,0.10984 -0.92466,0.13818 -1.4097,0.0705c-1.47094,-0.20525 -2.62283,-1.23773 -3.05129,-2.56188c-0.64401,1.52772 -2.25387,2.49476 -3.97367,2.25478c-1.91201,-0.26679 -3.28498,-1.93131 -3.23068,-3.8173l0.03768,-2.63741l0.24012,0.00342c-0.09102,-0.11188 -0.18573,-0.22121 -0.28453,-0.32773c-0.24126,-0.26014 -0.55487,-0.44444 -0.87648,-0.61859c0.03039,1.81663 -0.76903,4.4025 -0.88995,5.26905l-0.04607,0.33013c0,0 -0.51824,3.71402 -4.23226,3.19578z" fill="#14c700" stroke-width="0.5"/><path d="M62.2838,304.9921c-3.74466,-0.20016 -3.5445,-3.94481 -3.5445,-3.94481l0.01779,-0.33286c0.18793,-3.51579 -0.30915,-10.58141 2.84503,-12.85746c1.9164,-1.38287 4.66703,-0.77755 7.10067,0.41113c0.67036,-1.97931 2.06608,-3.556 5.00113,-4.12848c1.82611,-0.35617 3.71841,0.46672 5.30202,1.86534c0.5729,-0.16002 1.23348,-0.23557 1.99574,-0.20779c0.64634,0.02357 1.21946,0.26336 1.73556,0.64067c0.62148,-0.26323 1.27044,-0.42401 1.92588,-0.44496c0.6163,-0.01969 1.22514,0.1271 1.81299,0.40405c0.09169,-0.07832 0.1869,-0.15337 0.2859,-0.22489c1.68412,-1.21678 4.2548,-0.80301 6.23102,-0.16155c0.90021,0.29219 1.61198,0.92995 2.27044,1.64945c1.73457,-0.4367 3.73125,0.84618 5.26173,2.27734c1.41611,0.33004 2.91222,1.02143 4.11693,1.9123c1.3831,-1.51995 2.98286,-2.27821 4.64256,-2.2195c3.71663,-4.82948 6.73066,-1.95645 10.11413,0.06294c1.22341,0.73017 2.57968,1.30336 3.73127,2.13134c0.65372,-0.44693 1.4536,-0.6912 2.30507,-0.64777c0.20619,-1.01392 0.59655,-1.93022 1.33822,-2.66033c4.51433,-4.44395 6.89815,-0.85955 8.26187,2.20209c0.0586,-0.03141 0.11814,-0.06131 0.17868,-0.08964c-0.05425,-2.51463 1.36462,-4.50098 6.21835,-4.92399c1.72731,-0.15054 2.66012,2.22793 3.91928,3.4199c2.52414,2.38943 4.83191,5.37189 7.13581,7.93599c0,0 2.50633,2.7894 -0.28307,5.29573c-2.18047,1.95919 -4.18795,0.68243 -4.96053,0.03161c-0.3878,1.76047 -2.00288,3.03275 -3.86195,2.93338c-0.83818,-0.04481 -1.59732,-0.36155 -2.19646,-0.86013l-3.48686,-2.83238l0.00434,-0.00534c-0.00857,-0.00404 -0.01712,-0.00809 -0.02568,-0.01213c-0.04791,-0.02267 -0.09514,-0.04527 -0.14171,-0.06785c-0.508,1.58302 -2.03282,2.68906 -3.77092,2.59615c-0.39248,-0.02098 -0.76763,-0.10159 -1.11713,-0.23256c-0.59028,1.43012 -2.03478,2.40075 -3.66743,2.31348c-0.71772,-0.03836 -1.37748,-0.27614 -1.92845,-0.6567c-0.73059,0.90311 -1.86915,1.45514 -3.11779,1.3884c-1.84103,-0.09841 -3.30073,-1.5088 -3.52111,-3.27627c-0.47178,0.35443 -1.62969,0.56508 -3.01113,0.67677c-0.59869,0.33613 -1.29676,0.51196 -2.03311,0.47259c-0.11999,-0.00641 -0.23836,-0.0184 -0.35488,-0.0357c-0.34068,1.4139 -0.66866,2.61551 -0.81516,3.39547l-4.49205,-3.8871c-0.14615,0.50143 -0.39351,0.95756 -0.71744,1.3462c0.03717,0.24728 0.05001,0.50199 0.03614,0.76144c-0.11055,2.06812 -1.8767,3.65504 -3.94482,3.5445c-0.3711,-0.01983 -0.72669,-0.09297 -1.05978,-0.21161l-3.52652,-1.1673l0.00006,-0.00017c-1.22555,-0.42662 -2.47171,-0.87804 -3.65301,-1.39823c-1.10829,-0.07157 -2.07511,-0.61899 -2.71143,-1.43192c-1.46188,-0.94901 -2.647,-2.11336 -3.30296,-3.62298c-0.68232,1.18751 -1.99273,1.95666 -3.45382,1.87856c-0.61295,-0.03276 -1.18362,-0.21095 -1.68037,-0.49934c-0.71128,0.62816 -1.6599,0.98841 -2.68236,0.93376c-1.40912,-0.07533 -2.59487,-0.91926 -3.17248,-2.10363c-0.43739,0.14761 -0.90953,0.2164 -1.39858,0.19026c-1.48306,-0.07927 -2.71868,-1.00994 -3.25831,-2.29281c-0.51161,1.57699 -2.03331,2.67757 -3.76729,2.58489c-1.92779,-0.10305 -3.43748,-1.64464 -3.54394,-3.52842l-0.18698,-2.63103l0.23954,-0.01703c-0.10022,-0.10372 -0.2039,-0.20458 -0.3114,-0.30232c-0.26253,-0.23865 -0.5907,-0.39559 -0.92597,-0.54173c0.18493,1.80743 -0.39143,4.45199 -0.43814,5.32567l-0.0178,0.33286c0,0 -0.20017,3.74464 -3.94482,3.54449z" fill="#14c700" stroke-width="0.5"/><path d="M191.78857,311.75513c-3.71401,-0.51824 -3.1958,-4.23225 -3.1958,-4.23225l0.04608,-0.33013c0.48656,-3.48703 0.59283,-10.5693 3.92933,-12.56858c2.02717,-1.2147 4.71627,-0.37741 7.03989,1.01414c0.83642,-1.91507 2.36132,-3.3672 5.33445,-3.68772c1.8498,-0.19941 3.66519,0.78158 5.12397,2.30995c0.58444,-0.11068 1.24906,-0.12973 2.00617,-0.03713c0.64199,0.07851 1.19261,0.36623 1.67472,0.78611c0.64163,-0.20936 1.30192,-0.31431 1.95677,-0.27939c0.61574,0.03285 1.20988,0.23094 1.77202,0.55694c0.09801,-0.07024 0.19928,-0.1369 0.30399,-0.19974c1.7816,-1.06898 4.30773,-0.43786 6.22215,0.3695c0.87208,0.36779 1.52696,1.06382 2.12178,1.83676c1.76544,-0.28744 3.64567,1.16076 5.04874,2.71701c1.38287,0.44941 2.81468,1.26563 3.93918,2.25584c1.50746,-1.39668 3.16599,-2.01599 4.81465,-1.8162c4.11429,-4.49554 6.87278,-1.37635 10.07206,0.92376c1.15681,0.83168 2.45935,1.51824 3.53627,2.44125c0.68938,-0.38966 1.50717,-0.56493 2.35184,-0.44918c0.29174,-0.9927 0.75871,-1.87243 1.55984,-2.53674c4.87626,-4.04349 6.94628,-0.26917 8.04441,2.89747c0.06106,-0.0263 0.12292,-0.05103 0.18566,-0.07409c0.16002,-2.51013 1.74285,-4.36847 6.61498,-4.37673c1.73387,-0.00295 2.46079,2.44631 3.61391,3.74116c2.31156,2.59564 4.35704,5.76374 6.43429,8.51467c0,0 2.25975,2.99264 -0.7329,5.25241c-2.33934,1.76645 -4.23086,0.32341 -4.94523,-0.39081c-0.53626,1.72105 -2.25379,2.85123 -4.09766,2.59395c-0.83132,-0.11599 -1.56073,-0.49624 -2.11526,-1.04402l-3.23307,-3.11895l0.00478,-0.00495c-0.0082,-0.00475 -0.01636,-0.00952 -0.02454,-0.01427c-0.04581,-0.02666 -0.09095,-0.05322 -0.13544,-0.07967c-0.64092,1.53402 -2.25437,2.50624 -3.97826,2.2657c-0.38927,-0.05431 -0.7562,-0.16656 -1.09328,-0.32682c-0.70989,1.37468 -2.23177,2.21882 -3.85108,1.99286c-0.71184,-0.09933 -1.34896,-0.3924 -1.86554,-0.81849c-0.80481,0.83763 -1.98624,1.29072 -3.22467,1.11792c-1.82596,-0.25479 -3.1603,-1.78433 -3.22941,-3.56415c-0.50024,0.31299 -1.67188,0.42429 -3.0578,0.41798c-0.62515,0.28393 -1.33563,0.39971 -2.06596,0.2978c-0.11902,-0.01661 -0.23595,-0.03863 -0.35056,-0.06578c-0.4598,1.37976 -0.8889,2.54908 -1.10127,3.31374l-4.14482,-4.2554c-0.18831,0.48717 -0.4736,0.92057 -0.82945,1.28024c0.01598,0.24955 0.0071,0.50442 -0.02881,0.76176c-0.28621,2.0512 -2.18105,3.48199 -4.23225,3.19579c-0.36805,-0.05137 -0.71614,-0.1545 -1.0379,-0.30106l-3.41433,-1.46329l0.00008,-0.00018c-1.18478,-0.52941 -2.388,-1.08527 -3.52072,-1.70414c-1.09818,-0.16564 -2.01488,-0.7934 -2.57968,-1.65756c-1.37579,-1.07001 -2.45746,-2.33104 -2.98252,-3.89103c-0.78095,1.12512 -2.15207,1.77992 -3.60121,1.57772c-0.60792,-0.08483 -1.16136,-0.31096 -1.63175,-0.6406c-0.76216,0.56534 -1.73803,0.8435 -2.75212,0.70202c-1.39759,-0.19501 -2.50718,-1.13684 -2.98188,-2.36608c-0.44836,0.10984 -0.92466,0.13818 -1.40971,0.0705c-1.47093,-0.20524 -2.62283,-1.23773 -3.05129,-2.56188c-0.64401,1.52772 -2.25387,2.49476 -3.97367,2.25478c-1.91201,-0.26679 -3.28499,-1.93131 -3.23069,-3.8173l0.03768,-2.63741l0.24012,0.00342c-0.09102,-0.11188 -0.18572,-0.22121 -0.28453,-0.32774c-0.24126,-0.26014 -0.55487,-0.44444 -0.87648,-0.6186c0.03038,1.81662 -0.76904,4.40249 -0.88996,5.26905l-0.04606,0.33013c0,0 -0.51824,3.71402 -4.23227,3.19578z" fill="#14c700" stroke-width="0.5"/><path d="M107.82434,308.4906c-3.74466,-0.20016 -3.54449,-3.94482 -3.54449,-3.94482l0.01779,-0.33286c0.18793,-3.5158 -0.30915,-10.58141 2.84504,-12.85746c1.9164,-1.38286 4.66703,-0.77755 7.10067,0.41113c0.67037,-1.97931 2.06607,-3.556 5.00113,-4.12848c1.8261,-0.35617 3.71842,0.46672 5.30203,1.86534c0.5729,-0.16003 1.23348,-0.23558 1.99573,-0.20779c0.64634,0.02357 1.21946,0.26337 1.73556,0.64067c0.62148,-0.26322 1.27044,-0.42401 1.92588,-0.44496c0.6163,-0.0197 1.22514,0.1271 1.813,0.40405c0.09169,-0.07833 0.1869,-0.15337 0.2859,-0.22488c1.68412,-1.21678 4.25481,-0.80301 6.23103,-0.16156c0.90021,0.29219 1.61198,0.92995 2.27043,1.64945c1.73458,-0.4367 3.73125,0.84618 5.26172,2.27734c1.41611,0.33004 2.91222,1.02143 4.11694,1.9123c1.3831,-1.51995 2.98287,-2.27821 4.64256,-2.21949c3.71663,-4.82948 6.73066,-1.95645 10.11413,0.06294c1.22341,0.73017 2.57968,1.30336 3.73127,2.13135c0.65371,-0.44693 1.4536,-0.6912 2.30507,-0.64778c0.20619,-1.01392 0.59655,-1.93021 1.33822,-2.66033c4.51434,-4.44395 6.89815,-0.85955 8.26187,2.20209c0.05859,-0.03141 0.11815,-0.06132 0.17868,-0.08964c-0.05426,-2.51463 1.36462,-4.50098 6.21836,-4.92399c1.72731,-0.15055 2.66012,2.22793 3.91928,3.4199c2.52415,2.38943 4.83191,5.37189 7.13581,7.93599c0,0 2.50633,2.7894 -0.28307,5.29573c-2.18047,1.95919 -4.18796,0.68243 -4.96053,0.03161c-0.3878,1.76047 -2.00287,3.03276 -3.86195,2.93338c-0.83819,-0.04482 -1.59731,-0.36154 -2.19646,-0.86013l-3.48686,-2.83238l0.00434,-0.00534c-0.00857,-0.00403 -0.01712,-0.0081 -0.02568,-0.01213c-0.04791,-0.02267 -0.09514,-0.04527 -0.14172,-0.06785c-0.508,1.58302 -2.03282,2.68905 -3.77092,2.59616c-0.39248,-0.02098 -0.76763,-0.10159 -1.11713,-0.23256c-0.59028,1.43012 -2.03478,2.40075 -3.66743,2.31348c-0.71772,-0.03836 -1.37748,-0.27614 -1.92845,-0.6567c-0.73059,0.90311 -1.86916,1.45513 -3.1178,1.3884c-1.84103,-0.09841 -3.30073,-1.5088 -3.52111,-3.27627c-0.47178,0.35444 -1.62969,0.56508 -3.01113,0.67678c-0.59869,0.33614 -1.29675,0.51197 -2.03311,0.47259c-0.12,-0.00642 -0.23836,-0.01839 -0.35488,-0.0357c-0.34067,1.4139 -0.66866,2.6155 -0.81516,3.39547l-4.49205,-3.8871c-0.14615,0.50142 -0.39351,0.95756 -0.71744,1.3462c0.03717,0.24728 0.05001,0.50199 0.03615,0.76144c-0.11055,2.06811 -1.8767,3.65504 -3.94482,3.54449c-0.37109,-0.01984 -0.72669,-0.09297 -1.05978,-0.2116l-3.52651,-1.1673l0.00006,-0.00017c-1.22555,-0.42662 -2.47172,-0.87803 -3.65301,-1.39823c-1.10829,-0.07157 -2.07511,-0.61899 -2.71143,-1.43192c-1.46188,-0.94901 -2.647,-2.11336 -3.30295,-3.62298c-0.68233,1.18752 -1.99274,1.95666 -3.45382,1.87856c-0.61295,-0.03276 -1.18362,-0.21096 -1.68037,-0.49934c-0.71128,0.62816 -1.6599,0.98841 -2.68236,0.93377c-1.40913,-0.07533 -2.59488,-0.91927 -3.17248,-2.10364c-0.43739,0.14761 -0.90953,0.2164 -1.39858,0.19026c-1.48306,-0.07927 -2.71868,-1.00994 -3.25831,-2.29281c-0.51162,1.57698 -2.03332,2.67757 -3.76729,2.58489c-1.92779,-0.10305 -3.43748,-1.64464 -3.54394,-3.52842l-0.18699,-2.63103l0.23954,-0.01703c-0.10022,-0.10372 -0.2039,-0.20459 -0.3114,-0.30232c-0.26253,-0.23865 -0.5907,-0.39559 -0.92597,-0.54173c0.18493,1.80743 -0.39143,4.452 -0.43814,5.32567l-0.0178,0.33286c0,0 -0.20017,3.74465 -3.94482,3.54449z" fill="#14c700" stroke-width="0.5"/><path d="M539.2038,505.18778v-22.28544h99.09566v22.28544z" fill="#0c7d00" stroke-width="0"/><path d="M588.287,487.9263c-2.10419,-0.51824 -1.8106,-4.23225 -1.8106,-4.23225l0.0261,-0.33013c0.27566,-3.48703 0.33587,-10.5693 2.22618,-12.56858c1.14851,-1.2147 2.67202,-0.37741 3.98849,1.01414c0.47388,-1.91507 1.33782,-3.3672 3.02227,-3.68772c1.04801,-0.19941 2.07653,0.78158 2.90301,2.30995c0.33111,-0.11068 0.70766,-0.12973 1.13661,-0.03713c0.36372,0.07851 0.67568,0.36623 0.94882,0.78611c0.36352,-0.20936 0.73762,-0.31431 1.10862,-0.27939c0.34885,0.03285 0.68546,0.23094 1.00394,0.55694c0.05553,-0.07024 0.11291,-0.1369 0.17223,-0.19974c1.00937,-1.06898 2.44057,-0.43786 3.5252,0.3695c0.49408,0.36779 0.8651,1.06382 1.20211,1.83676c1.00022,-0.28744 2.06548,1.16076 2.86039,2.71701c0.78347,0.44941 1.59467,1.26563 2.23176,2.25584c0.85406,-1.39668 1.79371,-2.01599 2.72776,-1.8162c2.33098,-4.49554 3.89381,-1.37635 5.70638,0.92376c0.6554,0.83168 1.39335,1.51824 2.00349,2.44125c0.39057,-0.38966 0.8539,-0.56493 1.33244,-0.44918c0.16529,-0.9927 0.42986,-1.87243 0.88374,-2.53674c2.76267,-4.04349 3.93545,-0.26917 4.55761,2.89747c0.03459,-0.0263 0.06964,-0.05103 0.10519,-0.07409c0.09066,-2.51013 0.98742,-4.36847 3.74775,-4.37673c0.98233,-0.00295 1.39417,2.44631 2.04748,3.74116c1.30963,2.59564 2.4685,5.76374 3.64538,8.51467c0,0 1.28027,2.99264 -0.41523,5.25241c-1.32537,1.76645 -2.39702,0.32341 -2.80174,-0.39081c-0.30382,1.72105 -1.2769,2.85123 -2.32155,2.59395c-0.47099,-0.11599 -0.88424,-0.49624 -1.19841,-1.04402l-1.83172,-3.11895l0.00271,-0.00495c-0.00464,-0.00475 -0.00927,-0.00952 -0.0139,-0.01427c-0.02596,-0.02666 -0.05153,-0.05322 -0.07673,-0.07967c-0.36312,1.53402 -1.27723,2.50624 -2.25391,2.2657c-0.22054,-0.05431 -0.42843,-0.16656 -0.6194,-0.32682c-0.40219,1.37468 -1.26442,2.21882 -2.18185,1.99286c-0.4033,-0.09933 -0.76426,-0.3924 -1.05693,-0.81849c-0.45597,0.83763 -1.12532,1.29072 -1.82696,1.11792c-1.03451,-0.25479 -1.79049,-1.78433 -1.82964,-3.56415c-0.28341,0.31299 -0.94721,0.42429 -1.73241,0.41798c-0.35418,0.28393 -0.75671,0.39971 -1.17048,0.2978c-0.06744,-0.01661 -0.13368,-0.03863 -0.19861,-0.06578c-0.26051,1.37976 -0.50361,2.54908 -0.62393,3.31374l-2.34827,-4.2554c-0.10669,0.48717 -0.26832,0.92057 -0.46993,1.28024c0.00905,0.24955 0.00402,0.50442 -0.01632,0.76176c-0.16215,2.0512 -1.23568,3.48199 -2.3978,3.19579c-0.20852,-0.05137 -0.40573,-0.1545 -0.58803,-0.30106l-1.93441,-1.46329l0.00004,-0.00018c-0.67124,-0.52941 -1.35293,-1.08527 -1.99468,-1.70414c-0.62218,-0.16564 -1.14154,-0.7934 -1.46153,-1.65756c-0.77946,-1.07001 -1.39228,-2.33104 -1.68976,-3.89103c-0.44245,1.12512 -1.21927,1.77992 -2.04028,1.57772c-0.34442,-0.08483 -0.65798,-0.31096 -0.92448,-0.6406c-0.4318,0.56534 -0.98469,0.8435 -1.55923,0.70202c-0.79182,-0.19501 -1.42046,-1.13684 -1.68939,-2.36608c-0.25402,0.10984 -0.52387,0.13818 -0.79868,0.0705c-0.83337,-0.20524 -1.48598,-1.23773 -1.72873,-2.56188c-0.36487,1.52772 -1.27694,2.49476 -2.2513,2.25478c-1.08326,-0.26679 -1.86113,-1.93131 -1.83036,-3.8173l0.02135,-2.63741l0.13604,0.00342c-0.05157,-0.11188 -0.10522,-0.22121 -0.1612,-0.32774c-0.13669,-0.26014 -0.31437,-0.44444 -0.49658,-0.6186c0.01722,1.81662 -0.4357,4.40249 -0.50421,5.26905l-0.0261,0.33013c0,0 -0.29361,3.71402 -2.39781,3.19578z" fill="#14c700" stroke-width="0.5"/><path d="M540.71662,484.66177c-2.12156,-0.20016 -2.00816,-3.94482 -2.00816,-3.94482l0.01008,-0.33286c0.10647,-3.5158 -0.17515,-10.58141 1.61187,-12.85746c1.08575,-1.38286 2.64414,-0.77755 4.02293,0.41113c0.3798,-1.97931 1.17055,-3.556 2.83342,-4.12848c1.03459,-0.35617 2.10669,0.46672 3.00389,1.86534c0.32458,-0.16003 0.69883,-0.23558 1.1307,-0.20779c0.36619,0.02357 0.69089,0.26337 0.98329,0.64067c0.3521,-0.26322 0.71977,-0.42401 1.09112,-0.44496c0.34916,-0.0197 0.69411,0.1271 1.02716,0.40405c0.05194,-0.07833 0.10589,-0.15337 0.16198,-0.22488c0.95414,-1.21678 2.41058,-0.80301 3.53022,-0.16156c0.51002,0.29219 0.91327,0.92995 1.28633,1.64945c0.98273,-0.4367 2.11396,0.84618 2.98106,2.27734c0.8023,0.33004 1.64994,1.02143 2.33247,1.9123c0.7836,-1.51995 1.68996,-2.27821 2.63027,-2.21949c2.10567,-4.82948 3.81329,-1.95645 5.73022,0.06294c0.69313,0.73017 1.46153,1.30336 2.11397,2.13135c0.37037,-0.44693 0.82355,-0.6912 1.30595,-0.64778c0.11682,-1.01392 0.33798,-1.93021 0.75818,-2.66033c2.55762,-4.44395 3.90818,-0.85955 4.6808,2.20209c0.0332,-0.03141 0.06694,-0.06132 0.10123,-0.08964c-0.03074,-2.51463 0.77314,-4.50098 3.52304,-4.92399c0.97862,-0.15055 1.50711,2.22793 2.22049,3.4199c1.43007,2.38943 2.73754,5.37189 4.04283,7.93599c0,0 1.41998,2.7894 -0.16037,5.29573c-1.23536,1.95919 -2.37271,0.68243 -2.81041,0.03161c-0.21971,1.76047 -1.13474,3.03276 -2.18801,2.93338c-0.47488,-0.04482 -0.90497,-0.36154 -1.24441,-0.86013l-1.9755,-2.83238l0.00246,-0.00534c-0.00486,-0.00403 -0.0097,-0.0081 -0.01455,-0.01213c-0.02714,-0.02267 -0.0539,-0.04527 -0.08029,-0.06785c-0.28781,1.58302 -1.1517,2.68905 -2.13644,2.59616c-0.22236,-0.02098 -0.4349,-0.10159 -0.63292,-0.23256c-0.33443,1.43012 -1.15281,2.40075 -2.0778,2.31348c-0.40663,-0.03836 -0.78042,-0.27614 -1.09258,-0.6567c-0.41392,0.90311 -1.05898,1.45513 -1.7664,1.3884c-1.04304,-0.09841 -1.87005,-1.5088 -1.9949,-3.27627c-0.26729,0.35444 -0.92331,0.56508 -1.70597,0.67678c-0.33919,0.33614 -0.73468,0.51197 -1.15187,0.47259c-0.06798,-0.00642 -0.13504,-0.01839 -0.20106,-0.0357c-0.19301,1.4139 -0.37883,2.6155 -0.46184,3.39547l-2.545,-3.8871c-0.0828,0.50142 -0.22295,0.95756 -0.40648,1.3462c0.02106,0.24728 0.02834,0.50199 0.02048,0.76144c-0.06263,2.06811 -1.06325,3.65504 -2.23496,3.54449c-0.21024,-0.01984 -0.41171,-0.09297 -0.60042,-0.2116l-1.99797,-1.1673l0.00003,-0.00017c-0.69435,-0.42662 -1.40037,-0.87803 -2.06963,-1.39823c-0.62791,-0.07157 -1.17566,-0.61899 -1.53618,-1.43192c-0.82824,-0.94901 -1.49967,-2.11336 -1.87131,-3.62298c-0.38658,1.18752 -1.129,1.95666 -1.95678,1.87856c-0.34727,-0.03276 -0.67059,-0.21096 -0.95202,-0.49934c-0.40298,0.62816 -0.94043,0.98841 -1.5197,0.93377c-0.79835,-0.07533 -1.47014,-0.91927 -1.79738,-2.10364c-0.24781,0.14761 -0.5153,0.2164 -0.79237,0.19026c-0.84024,-0.07927 -1.54029,-1.00994 -1.84602,-2.29281c-0.28986,1.57698 -1.15198,2.67757 -2.13438,2.58489c-1.0922,-0.10305 -1.94752,-1.64464 -2.00784,-3.52842l-0.10594,-2.63103l0.13571,-0.01703c-0.05678,-0.10372 -0.11552,-0.20459 -0.17642,-0.30232c-0.14874,-0.23865 -0.33466,-0.39559 -0.52462,-0.54173c0.10477,1.80743 -0.22177,4.452 -0.24823,5.32567l-0.01008,0.33286c0,0 -0.11341,3.74465 -2.23496,3.54449z" fill="#14c700" stroke-width="0.5"/><path d="M761.47036,584.51789c-2.99698,-0.51824 -2.57881,-4.23226 -2.57881,-4.23226l0.03718,-0.33013c0.39262,-3.48703 0.47838,-10.5693 3.17073,-12.56858c1.63581,-1.2147 3.80574,-0.37741 5.68077,1.01414c0.67494,-1.91507 1.90545,-3.3672 4.30459,-3.68772c1.49267,-0.19941 2.95759,0.78158 4.13474,2.30995c0.4716,-0.11067 1.00792,-0.12973 1.61886,-0.03713c0.51805,0.07852 0.96236,0.36624 1.3514,0.78611c0.51775,-0.20936 1.05057,-0.31431 1.579,-0.2794c0.49686,0.03285 0.97629,0.23094 1.42991,0.55693c0.07909,-0.07024 0.16081,-0.1369 0.2453,-0.19974c1.43764,-1.06898 3.47609,-0.43786 5.02091,0.3695c0.70371,0.36779 1.23216,1.06382 1.71215,1.83676c1.42461,-0.28744 2.94184,1.16076 4.07403,2.71701c1.1159,0.4494 2.27127,1.26563 3.17868,2.25584c1.21643,-1.39668 2.55476,-2.01599 3.88513,-1.8162c3.31998,-4.49554 5.54593,-1.37635 8.12755,0.92376c0.93348,0.83168 1.98454,1.51824 2.85355,2.44125c0.55629,-0.38966 1.2162,-0.56493 1.8978,-0.44918c0.23541,-0.9927 0.61224,-1.87244 1.2587,-2.53674c3.93485,-4.04349 5.60523,-0.26917 6.49135,2.89746c0.04927,-0.0263 0.09918,-0.05103 0.14982,-0.07409c0.12913,-2.51013 1.40638,-4.36847 5.3379,-4.37673c1.39913,-0.00294 1.9857,2.44631 2.9162,3.74116c1.86529,2.59564 3.51588,5.76374 5.19209,8.51467c0,0 1.82348,2.99264 -0.59141,5.25241c-1.88771,1.76645 -3.41405,0.32341 -3.9905,-0.39081c-0.43273,1.72105 -1.81867,2.85123 -3.30656,2.59395c-0.67083,-0.11599 -1.25942,-0.49624 -1.70689,-1.04401l-2.60889,-3.11896l0.00386,-0.00495c-0.00662,-0.00476 -0.01321,-0.00952 -0.0198,-0.01427c-0.03697,-0.02666 -0.0734,-0.05322 -0.10929,-0.07967c-0.51719,1.53402 -1.81915,2.50624 -3.21022,2.2657c-0.31412,-0.05431 -0.61021,-0.16656 -0.88221,-0.32682c-0.57285,1.37468 -1.8009,2.21882 -3.10759,1.99286c-0.57441,-0.09933 -1.08853,-0.39239 -1.50538,-0.81849c-0.64944,0.83763 -1.60278,1.29072 -2.60212,1.11792c-1.47344,-0.25479 -2.55017,-1.78433 -2.60594,-3.56415c-0.40366,0.31299 -1.34911,0.42429 -2.46746,0.41798c-0.50446,0.28392 -1.07777,0.3997 -1.66711,0.2978c-0.09605,-0.01661 -0.19039,-0.03863 -0.28288,-0.06578c-0.37104,1.37976 -0.71729,2.54908 -0.88866,3.31374l-3.34462,-4.2554c-0.15196,0.48717 -0.38217,0.92057 -0.66932,1.28024c0.01289,0.24955 0.00572,0.50442 -0.02325,0.76176c-0.23095,2.0512 -1.75997,3.48199 -3.41517,3.19579c-0.297,-0.05137 -0.57789,-0.1545 -0.83753,-0.30106l-2.75517,-1.46329l0.00007,-0.00018c-0.95604,-0.52941 -1.92697,-1.08527 -2.84101,-1.70415c-0.88617,-0.16564 -1.62589,-0.7934 -2.08165,-1.65755c-1.11018,-1.07001 -1.98302,-2.33104 -2.40671,-3.89104c-0.63018,1.12512 -1.73659,1.77992 -2.90596,1.57772c-0.49056,-0.08482 -0.93715,-0.31096 -1.31673,-0.6406c-0.61501,0.56534 -1.40249,0.8435 -2.22079,0.70202c-1.12778,-0.19501 -2.02315,-1.13684 -2.4062,-2.36608c-0.3618,0.10984 -0.74615,0.13818 -1.13755,0.0705c-1.18696,-0.20524 -2.11647,-1.23773 -2.46221,-2.56188c-0.51968,1.52772 -1.81874,2.49476 -3.20652,2.25478c-1.54288,-0.26679 -2.65078,-1.93131 -2.60697,-3.8173l0.03041,-2.63741l0.19376,0.00342c-0.07345,-0.11188 -0.14987,-0.22121 -0.2296,-0.32774c-0.19468,-0.26014 -0.44775,-0.44444 -0.70727,-0.61859c0.02452,1.81662 -0.62056,4.40249 -0.71814,5.26905l-0.03718,0.33014c0,0 -0.41818,3.71401 -3.41518,3.19578z" fill="#14c700" stroke-width="0.5"/><path d="M693.71626,581.25337c-3.02172,-0.20016 -2.86019,-3.94481 -2.86019,-3.94481l0.01435,-0.33286c0.15165,-3.5158 -0.24946,-10.58141 2.29578,-12.85745c1.54642,-1.38287 3.76602,-0.77756 5.72982,0.41112c0.54094,-1.97931 1.6672,-3.556 4.03562,-4.12848c1.47356,-0.35617 3.00054,0.46672 4.27841,1.86534c0.4623,-0.16003 0.99534,-0.23558 1.61044,-0.20779c0.52156,0.02357 0.98402,0.26337 1.40049,0.64067c0.50149,-0.26323 1.02517,-0.42401 1.55408,-0.44496c0.49731,-0.01969 0.98861,0.1271 1.46298,0.40405c0.07398,-0.07832 0.15082,-0.15337 0.2307,-0.22488c1.35898,-1.21678 3.43337,-0.80301 5.02806,-0.16156c0.72641,0.29219 1.30077,0.92995 1.8321,1.64945c1.3997,-0.4367 3.0109,0.84618 4.2459,2.27734c1.14271,0.33004 2.34999,1.02143 3.32212,1.91229c1.11608,-1.51995 2.40699,-2.27821 3.74627,-2.21949c2.9991,-4.82948 5.43123,-1.95645 8.16149,0.06294c0.98722,0.73018 2.08165,1.30336 3.01091,2.13135c0.52751,-0.44693 1.17297,-0.6912 1.86005,-0.64777c0.16638,-1.01392 0.48138,-1.93022 1.07987,-2.66033c3.6428,-4.44395 5.56639,-0.85955 6.66683,2.20209c0.04728,-0.03141 0.09533,-0.06132 0.14418,-0.08964c-0.04378,-2.51463 1.10117,-4.50098 5.01784,-4.92399c1.39384,-0.15054 2.14656,2.22793 3.16262,3.4199c2.03683,2.38942 3.89907,5.37189 5.75817,7.93598c0,0 2.02246,2.7894 -0.22843,5.29574c-1.75951,1.95919 -3.37943,0.68242 -4.00285,0.03161c-0.31293,1.76046 -1.6162,3.03275 -3.11636,2.93338c-0.67637,-0.04481 -1.28894,-0.36154 -1.77241,-0.86013l-2.81369,-2.83238l0.00351,-0.00534c-0.00692,-0.00404 -0.01382,-0.0081 -0.02072,-0.01213c-0.03867,-0.02266 -0.07677,-0.04527 -0.11436,-0.06785c-0.40993,1.58302 -1.64036,2.68905 -3.04291,2.59616c-0.31671,-0.02098 -0.61943,-0.10159 -0.90146,-0.23257c-0.47632,1.43012 -1.64195,2.40075 -2.9594,2.31348c-0.57916,-0.03836 -1.11154,-0.27614 -1.55614,-0.6567c-0.58954,0.90311 -1.5083,1.45513 -2.51588,1.3884c-1.48559,-0.09841 -2.6635,-1.50879 -2.84132,-3.27626c-0.3807,0.35443 -1.31506,0.56508 -2.4298,0.67677c-0.48311,0.33614 -1.04639,0.51197 -1.64059,0.47259c-0.09683,-0.00641 -0.19235,-0.0184 -0.28637,-0.0357c-0.2749,1.4139 -0.53957,2.6155 -0.65779,3.39547l-3.62482,-3.8871c-0.11793,0.50142 -0.31754,0.95757 -0.57894,1.3462c0.02999,0.24729 0.04036,0.502 0.02917,0.76145c-0.0892,2.06811 -1.51438,3.65504 -3.18324,3.54449c-0.29945,-0.01983 -0.5864,-0.09297 -0.85518,-0.2116l-2.84569,-1.1673l0.00005,-0.00017c-0.98894,-0.42662 -1.99452,-0.87803 -2.94775,-1.39823c-0.89433,-0.07157 -1.67449,-0.61899 -2.18797,-1.43192c-1.17966,-0.94901 -2.13597,-2.11336 -2.66529,-3.62298c-0.5506,1.18752 -1.60802,1.95666 -2.78703,1.87856c-0.49461,-0.03277 -0.95511,-0.21096 -1.35595,-0.49934c-0.57395,0.62816 -1.33944,0.98841 -2.1645,0.93377c-1.13708,-0.07533 -2.09391,-0.91927 -2.56,-2.10364c-0.35295,0.14762 -0.73393,0.2164 -1.12857,0.19026c-1.19674,-0.07927 -2.19382,-1.00994 -2.62927,-2.29281c-0.41284,1.57699 -1.64076,2.67758 -3.03998,2.58489c-1.55561,-0.10305 -2.77384,-1.64464 -2.85975,-3.52842l-0.15089,-2.63103l0.1933,-0.01703c-0.08087,-0.10372 -0.16454,-0.20458 -0.25128,-0.30232c-0.21185,-0.23866 -0.47666,-0.39559 -0.74721,-0.54173c0.14923,1.80743 -0.31586,4.452 -0.35355,5.32567l-0.01436,0.33286c0,0 -0.16152,3.74465 -3.18323,3.54449z" fill="#14c700" stroke-width="0.5"/><path d="M595.29919,310.23861c-2.99698,-0.51824 -2.57881,-4.23226 -2.57881,-4.23226l0.03718,-0.33013c0.39262,-3.48703 0.47838,-10.5693 3.17073,-12.56858c1.63581,-1.2147 3.80574,-0.37741 5.68077,1.01414c0.67494,-1.91507 1.90545,-3.3672 4.30459,-3.68772c1.49267,-0.19941 2.95759,0.78158 4.13474,2.30995c0.4716,-0.11068 1.00792,-0.12973 1.61886,-0.03713c0.51805,0.07851 0.96236,0.36624 1.3514,0.78611c0.51775,-0.20936 1.05057,-0.31432 1.579,-0.2794c0.49686,0.03285 0.97629,0.23094 1.42991,0.55694c0.07909,-0.07024 0.16081,-0.1369 0.2453,-0.19974c1.43764,-1.06898 3.47609,-0.43786 5.02091,0.3695c0.70371,0.36779 1.23216,1.06382 1.71215,1.83676c1.42461,-0.28744 2.94184,1.16076 4.07403,2.71701c1.1159,0.44941 2.27127,1.26563 3.17868,2.25584c1.21643,-1.39668 2.55476,-2.01599 3.88513,-1.8162c3.31998,-4.49554 5.54593,-1.37635 8.12755,0.92376c0.93348,0.83168 1.98454,1.51824 2.85355,2.44125c0.55629,-0.38966 1.2162,-0.56493 1.8978,-0.44918c0.23541,-0.9927 0.61224,-1.87243 1.2587,-2.53674c3.93485,-4.04349 5.60523,-0.26917 6.49135,2.89747c0.04927,-0.0263 0.09918,-0.05103 0.14982,-0.07409c0.12913,-2.51013 1.40638,-4.36847 5.3379,-4.37673c1.39913,-0.00295 1.9857,2.44631 2.9162,3.74116c1.86529,2.59564 3.51588,5.76374 5.19209,8.51467c0,0 1.82348,2.99264 -0.59141,5.25241c-1.88771,1.76645 -3.41405,0.32341 -3.9905,-0.39081c-0.43273,1.72105 -1.81867,2.85123 -3.30656,2.59395c-0.67083,-0.11599 -1.25942,-0.49624 -1.70689,-1.04402l-2.60889,-3.11895l0.00386,-0.00495c-0.00662,-0.00475 -0.01321,-0.00952 -0.0198,-0.01427c-0.03697,-0.02666 -0.0734,-0.05322 -0.10929,-0.07967c-0.51719,1.53402 -1.81915,2.50624 -3.21022,2.2657c-0.31412,-0.05431 -0.61021,-0.16656 -0.88221,-0.32682c-0.57285,1.37468 -1.8009,2.21882 -3.10759,1.99286c-0.57441,-0.09933 -1.08853,-0.3924 -1.50538,-0.81849c-0.64944,0.83763 -1.60278,1.29072 -2.60212,1.11792c-1.47344,-0.25479 -2.55017,-1.78433 -2.60594,-3.56414c-0.40366,0.31299 -1.34911,0.42429 -2.46746,0.41798c-0.50446,0.28393 -1.07777,0.3997 -1.66711,0.2978c-0.09605,-0.01661 -0.19039,-0.03863 -0.28288,-0.06578c-0.37104,1.37976 -0.71729,2.54908 -0.88866,3.31374l-3.34462,-4.2554c-0.15196,0.48717 -0.38217,0.92057 -0.66932,1.28024c0.01289,0.24955 0.00572,0.50442 -0.02325,0.76176c-0.23095,2.0512 -1.75997,3.48199 -3.41517,3.19579c-0.297,-0.05137 -0.57789,-0.1545 -0.83753,-0.30106l-2.75517,-1.46329l0.00007,-0.00018c-0.95604,-0.52941 -1.92697,-1.08527 -2.84101,-1.70414c-0.88617,-0.16564 -1.62589,-0.7934 -2.08165,-1.65756c-1.11018,-1.07001 -1.98302,-2.33104 -2.40671,-3.89103c-0.63018,1.12512 -1.73659,1.77992 -2.90596,1.57772c-0.49056,-0.08483 -0.93715,-0.31096 -1.31673,-0.6406c-0.61501,0.56534 -1.40249,0.8435 -2.22079,0.70202c-1.12778,-0.19501 -2.02315,-1.13684 -2.4062,-2.36608c-0.3618,0.10984 -0.74615,0.13818 -1.13755,0.0705c-1.18696,-0.20524 -2.11647,-1.23773 -2.46221,-2.56188c-0.51968,1.52772 -1.81874,2.49476 -3.20652,2.25478c-1.54288,-0.26679 -2.65078,-1.93131 -2.60697,-3.8173l0.03041,-2.63741l0.19376,0.00342c-0.07345,-0.11188 -0.14987,-0.22121 -0.2296,-0.32774c-0.19468,-0.26014 -0.44775,-0.44444 -0.70727,-0.6186c0.02452,1.81662 -0.62056,4.40249 -0.71814,5.26905l-0.03718,0.33014c0,0 -0.41818,3.71401 -3.41518,3.19578z" fill="#14c700" stroke-width="0.5"/><path d="M527.54509,306.97409c-3.02172,-0.20016 -2.86019,-3.94482 -2.86019,-3.94482l0.01435,-0.33286c0.15165,-3.5158 -0.24946,-10.58141 2.29578,-12.85746c1.54642,-1.38286 3.76602,-0.77755 5.72982,0.41113c0.54094,-1.97931 1.6672,-3.556 4.03562,-4.12848c1.47356,-0.35617 3.00054,0.46672 4.27841,1.86534c0.4623,-0.16003 0.99534,-0.23558 1.61044,-0.20779c0.52156,0.02357 0.98402,0.26337 1.40049,0.64067c0.50149,-0.26322 1.02517,-0.42401 1.55408,-0.44496c0.49731,-0.0197 0.98861,0.1271 1.46298,0.40405c0.07398,-0.07833 0.15082,-0.15337 0.2307,-0.22488c1.35898,-1.21678 3.43337,-0.80301 5.02806,-0.16156c0.72641,0.29219 1.30077,0.92995 1.8321,1.64945c1.3997,-0.4367 3.0109,0.84618 4.2459,2.27734c1.14271,0.33004 2.34999,1.02143 3.32212,1.9123c1.11608,-1.51995 2.40699,-2.27821 3.74627,-2.21949c2.9991,-4.82948 5.43123,-1.95645 8.16149,0.06294c0.98722,0.73017 2.08165,1.30336 3.01091,2.13135c0.52751,-0.44693 1.17297,-0.6912 1.86005,-0.64778c0.16638,-1.01392 0.48138,-1.93021 1.07987,-2.66033c3.6428,-4.44395 5.56639,-0.85955 6.66683,2.20209c0.04728,-0.03141 0.09533,-0.06132 0.14418,-0.08964c-0.04378,-2.51463 1.10117,-4.50098 5.01784,-4.92399c1.39384,-0.15055 2.14656,2.22793 3.16262,3.4199c2.03683,2.38943 3.89907,5.37189 5.75817,7.93599c0,0 2.02246,2.7894 -0.22843,5.29573c-1.75951,1.95919 -3.37943,0.68243 -4.00285,0.03161c-0.31293,1.76047 -1.6162,3.03276 -3.11636,2.93338c-0.67637,-0.04482 -1.28894,-0.36154 -1.77241,-0.86013l-2.81369,-2.83238l0.00351,-0.00534c-0.00692,-0.00403 -0.01382,-0.0081 -0.02072,-0.01213c-0.03867,-0.02267 -0.07677,-0.04527 -0.11436,-0.06785c-0.40993,1.58302 -1.64036,2.68905 -3.04291,2.59616c-0.31671,-0.02098 -0.61943,-0.10159 -0.90146,-0.23256c-0.47632,1.43012 -1.64195,2.40075 -2.9594,2.31348c-0.57916,-0.03836 -1.11154,-0.27614 -1.55614,-0.6567c-0.58954,0.90311 -1.5083,1.45513 -2.51588,1.3884c-1.48559,-0.09841 -2.6635,-1.50879 -2.84132,-3.27626c-0.3807,0.35444 -1.31506,0.56508 -2.4298,0.67677c-0.48311,0.33614 -1.04639,0.51197 -1.64059,0.47259c-0.09683,-0.00642 -0.19235,-0.01839 -0.28637,-0.0357c-0.2749,1.4139 -0.53957,2.6155 -0.65779,3.39547l-3.62482,-3.8871c-0.11793,0.50142 -0.31754,0.95756 -0.57894,1.3462c0.02999,0.24728 0.04036,0.50199 0.02917,0.76144c-0.0892,2.06811 -1.51438,3.65504 -3.18324,3.54449c-0.29945,-0.01984 -0.5864,-0.09297 -0.85518,-0.2116l-2.84569,-1.1673l0.00005,-0.00017c-0.98894,-0.42662 -1.99452,-0.87803 -2.94775,-1.39823c-0.89433,-0.07157 -1.67449,-0.61899 -2.18797,-1.43192c-1.17966,-0.94901 -2.13597,-2.11336 -2.66529,-3.62298c-0.5506,1.18752 -1.60802,1.95666 -2.78703,1.87856c-0.49461,-0.03276 -0.95511,-0.21096 -1.35595,-0.49934c-0.57395,0.62816 -1.33944,0.98841 -2.1645,0.93377c-1.13708,-0.07533 -2.09391,-0.91927 -2.56,-2.10363c-0.35295,0.14761 -0.73393,0.2164 -1.12857,0.19026c-1.19674,-0.07927 -2.19382,-1.00994 -2.62927,-2.29281c-0.41284,1.57698 -1.64076,2.67757 -3.03998,2.58489c-1.55561,-0.10305 -2.77384,-1.64464 -2.85975,-3.52842l-0.15089,-2.63103l0.1933,-0.01703c-0.08087,-0.10372 -0.16454,-0.20459 -0.25128,-0.30232c-0.21185,-0.23865 -0.47666,-0.39559 -0.74721,-0.54173c0.14923,1.80743 -0.31586,4.452 -0.35355,5.32567l-0.01436,0.33286c0,0 -0.16152,3.74465 -3.18323,3.54449z" fill="#14c700" stroke-width="0.5"/><path d="M711.99556,403.96206c-3.03777,0.14974 -3.44197,-3.56582 -3.44197,-3.56582l-0.03592,-0.33027c-0.37948,-3.48848 -1.84468,-10.41807 0.34527,-12.95775c1.33056,-1.54304 3.63108,-1.20057 5.76504,-0.25278c0.23978,-2.01632 1.12292,-3.7024 3.39389,-4.53985c1.41293,-0.52103 3.05692,0.11584 4.53983,1.34978c0.43598,-0.21113 0.95515,-0.34702 1.57155,-0.39028c0.52268,-0.03668 1.01916,0.1469 1.49061,0.47153c0.45944,-0.31752 0.9564,-0.53646 1.47967,-0.61795c0.49202,-0.07661 1.00317,0.01184 1.5171,0.23074c0.06181,-0.08584 0.12697,-0.16875 0.19568,-0.24855c1.16906,-1.35752 3.29618,-1.18748 4.98018,-0.73751c0.76711,0.20499 1.43499,0.7686 2.07239,1.41786c1.32726,-0.59204 3.12448,0.48929 4.56962,1.76025c1.18717,0.19448 2.49308,0.73828 3.59508,1.50607c0.88153,-1.6289 2.05202,-2.52591 3.39389,-2.6219c2.25646,-5.11278 5.11067,-2.55591 8.13283,-0.87607c1.09276,0.60739 2.26854,1.04748 3.31837,1.7581c0.45761,-0.50189 1.0632,-0.81724 1.75362,-0.85335c0.01262,-1.02015 0.18792,-1.961 0.67346,-2.75061c2.9553,-4.80615 5.41067,-1.4885 6.96788,1.40769c0.04232,-0.03644 0.08562,-0.07149 0.12999,-0.10507c-0.42296,-2.4776 0.41696,-4.5703 4.2515,-5.43816c1.36461,-0.30886 2.47264,1.95282 3.66379,3.01283c2.3878,2.12487 4.69128,4.85531 6.92854,7.17306c0,0 2.43382,2.52141 0.57159,5.2546c-1.4557,2.13653 -3.26068,1.06222 -3.97937,0.49137c-0.04587,1.77403 -1.15109,3.17995 -2.65923,3.25429c-0.67995,0.03352 -1.33745,-0.2088 -1.89389,-0.64545l-3.22785,-2.4729l0.00268,-0.00568c-0.00749,-0.00319 -0.01497,-0.0064 -0.02244,-0.0096c-0.0419,-0.01793 -0.08326,-0.03588 -0.12407,-0.05384c-0.16918,1.60999 -1.227,2.84341 -2.637,2.91292c-0.31839,0.0157 -0.63187,-0.02908 -0.93233,-0.12598c-0.25834,1.46668 -1.27206,2.55896 -2.59653,2.62424c-0.58223,0.0287 -1.14799,-0.14484 -1.64794,-0.46945c-0.45053,0.95939 -1.2817,1.61 -2.29465,1.65993c-1.4935,0.07362 -2.87867,-1.18342 -3.32233,-2.90796c-0.32544,0.39369 -1.22366,0.70907 -2.31632,0.94749c-0.43015,0.38738 -0.96427,0.62574 -1.56163,0.65518c-0.09735,0.0048 -0.19423,0.00394 -0.29042,-0.00232c-0.0603,1.4275 -0.14245,2.64425 -0.14244,3.42788l-4.1943,-3.42093c-0.04174,0.50861 -0.17159,0.98187 -0.37313,1.39563c0.06716,0.24069 0.1159,0.49096 0.14391,0.7484c0.22323,2.05206 -0.95586,3.78261 -2.63359,3.86532c-0.30104,0.01483 -0.59769,-0.02438 -0.8831,-0.11061l-3.00849,-0.82532l0.00003,-0.00018c-1.04868,-0.30751 -2.11767,-0.63758 -3.14493,-1.04157c-0.90094,0.03217 -1.76005,-0.41862 -2.39377,-1.16218c-1.31731,-0.80131 -2.44481,-1.84093 -3.19941,-3.2705c-0.36886,1.2357 -1.30528,2.11662 -2.49057,2.17505c-0.49724,0.02451 -0.98247,-0.09848 -1.42495,-0.33713c-0.47649,0.68615 -1.18407,1.1298 -2.01351,1.1707c-1.14312,0.05635 -2.2228,-0.66686 -2.8654,-1.78258c-0.32902,0.18631 -0.69786,0.29802 -1.09459,0.31758c-1.20311,0.05931 -2.33592,-0.7449 -2.96288,-1.96139c-0.17299,1.60438 -1.22912,2.83212 -2.63578,2.90146c-1.56388,0.07709 -3.00899,-1.30484 -3.3787,-3.15476l-0.54712,-2.58022l0.18982,-0.03904c-0.09614,-0.09311 -0.19462,-0.18308 -0.29571,-0.26959c-0.24686,-0.21127 -0.53411,-0.33576 -0.82543,-0.44894c0.42122,1.76729 0.35727,4.43164 0.45157,5.29855l0.03592,0.33027c0,0 0.40418,3.71556 -2.63361,3.86531z" fill="#14c700" stroke-width="0.5"/><path d="M778.79133,393.05517c-3.02172,-0.20016 -2.86019,-3.94482 -2.86019,-3.94482l0.01435,-0.33286c0.15165,-3.5158 -0.24946,-10.58141 2.29578,-12.85746c1.54642,-1.38286 3.76602,-0.77755 5.72982,0.41113c0.54094,-1.97931 1.6672,-3.556 4.03562,-4.12848c1.47356,-0.35617 3.00054,0.46672 4.27841,1.86534c0.4623,-0.16003 0.99534,-0.23558 1.61044,-0.20779c0.52156,0.02357 0.98402,0.26337 1.40049,0.64067c0.50149,-0.26322 1.02517,-0.42401 1.55408,-0.44496c0.49731,-0.0197 0.98861,0.1271 1.46298,0.40405c0.07398,-0.07833 0.15082,-0.15337 0.2307,-0.22488c1.35898,-1.21678 3.43337,-0.80301 5.02806,-0.16156c0.72641,0.29219 1.30077,0.92995 1.8321,1.64945c1.3997,-0.4367 3.0109,0.84618 4.2459,2.27734c1.14271,0.33004 2.34999,1.02143 3.32212,1.9123c1.11608,-1.51995 2.40699,-2.27821 3.74627,-2.21949c2.9991,-4.82948 5.43123,-1.95645 8.16149,0.06294c0.98722,0.73017 2.08165,1.30336 3.01091,2.13135c0.52751,-0.44693 1.17297,-0.6912 1.86005,-0.64778c0.16638,-1.01392 0.48138,-1.93021 1.07987,-2.66033c3.6428,-4.44395 5.56639,-0.85955 6.66683,2.20209c0.04728,-0.03141 0.09533,-0.06132 0.14418,-0.08964c-0.04378,-2.51463 1.10117,-4.50098 5.01784,-4.92399c1.39384,-0.15055 2.14656,2.22793 3.16262,3.4199c2.03683,2.38943 3.89907,5.37189 5.75817,7.93599c0,0 2.02246,2.7894 -0.22843,5.29573c-1.75951,1.95919 -3.37943,0.68243 -4.00285,0.03161c-0.31293,1.76047 -1.6162,3.03276 -3.11636,2.93338c-0.67637,-0.04482 -1.28894,-0.36154 -1.77241,-0.86013l-2.81369,-2.83238l0.00351,-0.00534c-0.00692,-0.00403 -0.01382,-0.0081 -0.02072,-0.01213c-0.03867,-0.02267 -0.07677,-0.04527 -0.11436,-0.06785c-0.40993,1.58302 -1.64036,2.68905 -3.04291,2.59616c-0.31671,-0.02098 -0.61943,-0.10159 -0.90146,-0.23256c-0.47632,1.43012 -1.64195,2.40075 -2.9594,2.31348c-0.57916,-0.03836 -1.11154,-0.27614 -1.55614,-0.6567c-0.58954,0.90311 -1.5083,1.45513 -2.51588,1.3884c-1.48559,-0.09841 -2.6635,-1.50879 -2.84132,-3.27626c-0.3807,0.35444 -1.31506,0.56508 -2.4298,0.67677c-0.48311,0.33614 -1.04639,0.51197 -1.64059,0.47259c-0.09683,-0.00642 -0.19235,-0.01839 -0.28637,-0.0357c-0.2749,1.4139 -0.53957,2.6155 -0.65779,3.39547l-3.62482,-3.8871c-0.11793,0.50142 -0.31754,0.95756 -0.57894,1.3462c0.02999,0.24728 0.04036,0.50199 0.02917,0.76144c-0.0892,2.06811 -1.51438,3.65504 -3.18324,3.54449c-0.29945,-0.01984 -0.5864,-0.09297 -0.85518,-0.2116l-2.84569,-1.1673l0.00005,-0.00017c-0.98894,-0.42662 -1.99452,-0.87803 -2.94775,-1.39823c-0.89433,-0.07157 -1.67449,-0.61899 -2.18797,-1.43192c-1.17966,-0.94901 -2.13597,-2.11336 -2.66529,-3.62298c-0.5506,1.18752 -1.60802,1.95666 -2.78703,1.87856c-0.49461,-0.03276 -0.95511,-0.21096 -1.35595,-0.49934c-0.57395,0.62816 -1.33944,0.98841 -2.1645,0.93377c-1.13708,-0.07533 -2.09391,-0.91927 -2.56,-2.10363c-0.35295,0.14761 -0.73393,0.2164 -1.12857,0.19026c-1.19674,-0.07927 -2.19382,-1.00994 -2.62927,-2.29281c-0.41284,1.57698 -1.64076,2.67757 -3.03998,2.58489c-1.55561,-0.10305 -2.77384,-1.64464 -2.85975,-3.52842l-0.15089,-2.63103l0.1933,-0.01703c-0.08087,-0.10372 -0.16454,-0.20459 -0.25128,-0.30232c-0.21185,-0.23865 -0.47666,-0.39559 -0.74721,-0.54173c0.14923,1.80743 -0.31586,4.452 -0.35355,5.32567l-0.01436,0.33286c0,0 -0.16152,3.74465 -3.18323,3.54449z" fill="#14c700" stroke-width="0.5"/></g></g></svg>