<svg version="1.1" xmlns="http://www.w3.org/2000/svg" xmlns:xlink="http://www.w3.org/1999/xlink" width="1196.6967" height="526.32664" viewBox="0,0,1196.6967,526.32664"><g transform="translate(96.63661,-395.77553)"><g data-paper-data="{&quot;isPaintingLayer&quot;:true}" fill="#8a8a8a" fill-rule="nonzero" stroke-linecap="butt" stroke-linejoin="miter" stroke-miterlimit="10" stroke-dasharray="" stroke-dashoffset="0" style="mix-blend-mode: normal"><path d="M691.85503,611.25075c0,-7.70833 3.91317,-7.70833 3.91317,-7.70833c4.70051,0 11.75126,0 16.45177,0c0,0 3.91317,0 3.91317,7.70833c0,7.70833 -3.91317,7.70833 -3.91317,7.70833c-4.70051,0 -9.40101,0 -14.10152,0h-2.35025c0,0 -3.91317,0 -3.91317,-7.70833z" stroke="none" stroke-width="0.5"/><path d="M1100.06009,603.78383v318.31832h-365.29359c-0.00748,-5.0948 0.01322,-10.18953 0.06419,-15.2837c1.41372,-0.53646 2.82308,-1.19985 4.21701,-1.99638c0.58874,-0.33642 1.14053,-0.69183 1.65787,-1.06475c2.51778,0.4397 5.14287,0.51908 7.79913,0.21536c2.74211,8.86604 8.29128,15.1099 21.71305,15.1099c35.52778,0 23.24731,-53.80657 18.17435,-77.92671c0.58111,-0.28093 1.15072,-0.58068 1.70666,-0.89836c16.31502,-9.32286 6.92757,-35.3432 13.43824,-49.82997c4.2672,-9.49487 16.29591,-29.29346 21.11812,-44.60724c9.52049,-30.23397 11.077,-63.9504 11.52177,-95.14142c0.22213,-15.57715 0.4296,-31.33178 -0.75362,-46.89505z" stroke="none" stroke-width="0"/><path d="M446.73283,777.95802c-19.09763,-8.38755 -37.4595,-16.79392 -51.31051,-25.31767c-42.03692,-25.86901 -39.66313,-44.3275 -35.42044,-70.3573c2.33155,-14.3044 7.04267,-28.60337 12.57286,-42.89561c3.8103,-9.84741 8.20871,-19.69151 12.86365,-29.53403c17.12894,15.82786 38.42714,31.61443 52.63055,47.47789c39.78451,44.43439 57.81938,65.89717 62.73178,107.53432c0.51484,4.36358 1.06896,8.72784 1.57122,13.09239z" stroke="none" stroke-width="0"/><path d="" stroke="none" stroke-width="0"/><path d="M270.19372,851.53173c0.10728,-5.50915 0.97427,-7.26717 1.36963,-10.99377c1.69707,-15.9964 3.90601,-32.08609 6.18719,-48.16418c0.02065,0.27861 0.04106,0.55724 0.0612,0.83588c1.49568,20.69019 2.34733,41.43604 4.39551,62.0779c0.01869,5.7853 0.05471,11.54928 0.04652,17.2725c-0.02105,14.70776 0.33542,29.41938 0,44.12333c-0.03807,1.66867 -0.17361,3.49127 -0.34841,5.41877h-12.69918c-0.40956,-1.42399 -0.82378,-2.84501 -1.23801,-4.26216c8.82125,-20.43994 2.02519,-56.0183 2.22555,-66.30827z" stroke="none" stroke-width="0"/><path d="M-96.63661,922.10216v-318.31832h305.36257c0.01431,0.23297 0.03194,0.46505 0.05285,0.69618c-0.74487,9.43906 0.10911,18.93201 -0.0986,22.44364c-0.19424,3.28396 -2.49022,6.91904 -2.87113,10.39124c-1.72123,15.68993 -2.93533,31.66833 -4.63637,47.35335c-0.40016,3.68984 -1.48429,8.22846 -1.5015,12.21614c-0.0583,13.50481 -1.43493,27.10699 0.18533,40.51437c1.09462,9.05783 2.34888,18.09656 3.45499,27.15279c-2.17605,26.44504 -3.69691,53.30667 -0.41724,78.2182c2.73964,20.80963 6.23688,41.55039 10.86195,62.02368c1.11237,4.92399 3.33272,11.81374 5.16383,17.30874z" stroke="none" stroke-width="0"/><path d="M76.52405,560.24775v-12.01201h126.12613v12.01201z" stroke="#000000" stroke-width="0.5"/><path d="M256.68926,504.67719v-12.01201c0,0 9.46854,0 21.72665,0c12.58168,0 28.10213,0 39.33941,0c26.56926,0 87.58258,0 87.58258,0v12.01201z" stroke="#000000" stroke-width="0.5"/><path d="M713.72887,737.76408v-178.85397c0,0 11.76297,0 18.47503,0c8.03831,0 26.49738,0 26.49738,0v178.85397z" stroke="#000000" stroke-width="0.5"/><path d="M544.84174,606.55075v-3h5.66667v3z" stroke="#000000" stroke-width="0.5"/><path d="M794.7223,527.6952v-12.01201c0,0 38.8805,0 61.06606,0c26.56926,0 87.58258,0 87.58258,0v12.01201z" stroke="#000000" stroke-width="0.5"/><path d="M609.03161,447.10961v-12.01201c0,0 38.8805,0 61.06606,0c26.56926,0 87.58258,0 87.58258,0v12.01201z" stroke="#000000" stroke-width="0.5"/><path d="M415.33491,408.03754v-12.01201c0,0 38.8805,0 61.06606,0c26.56926,0 87.58258,0 87.58258,0v12.01201z" stroke="#000000" stroke-width="0.5"/></g></g></svg>