<svg version="1.1" xmlns="http://www.w3.org/2000/svg" xmlns:xlink="http://www.w3.org/1999/xlink" width="1456.54065" height="1085.53377" viewBox="0,0,1456.54065,1085.53377"><defs><linearGradient x1="378.6306" y1="-280.78078" x2="378.6306" y2="647.14715" gradientUnits="userSpaceOnUse" id="color-1"><stop offset="0" stop-color="#7000ff"/><stop offset="1" stop-color="#e000ff"/></linearGradient><linearGradient x1="555.14134" y1="45.85348" x2="555.14134" y2="684.21381" gradientUnits="userSpaceOnUse" id="color-2"><stop offset="0" stop-color="#9f00cb"/><stop offset="1" stop-color="#a600d3"/></linearGradient></defs><g transform="translate(349.63972,281.78077)"><g data-paper-data="{&quot;isPaintingLayer&quot;:true}" fill-rule="nonzero" stroke-linejoin="miter" stroke-miterlimit="10" stroke-dasharray="" stroke-dashoffset="0" style="mix-blend-mode: normal"><path d="M-348.63972,647.14715v-927.92792h1454.54065v927.92793z" fill="url(#color-1)" stroke="#000000" stroke-width="2" stroke-linecap="butt"/><path d="M826.15218,621.7529c0,3.12677 1.20146,11.56082 -0.77004,13.9542c-1.33135,1.61625 -3.08688,2.57403 -4.81304,3.18467c-1.21163,0.42862 -2.69063,-0.50509 -3.74318,0.41786c-1.08996,0.95576 -1.05775,3.30559 -1.9553,4.57951c-2.29318,3.25479 -6.57096,2.24465 -9.31786,3.18513c-1.19035,0.40755 -2.16883,1.5886 -3.31769,2.17694c-2.78211,1.42474 -5.73368,2.14275 -8.59195,3.25316c-2.99776,3.90738 -6.74828,10.86683 -10.76558,13.03442c-0.70691,0.38142 -1.51851,-0.12484 -2.27871,-0.14587c-3.42914,-0.09486 -7.61756,-0.59694 -10.95746,0.05584c-4.14766,0.81065 -7.94039,4.88688 -12.01343,6.13698c-1.01828,0.31253 -2.11876,-0.30687 -3.13161,0.0368c-1.08596,0.36849 -1.90595,1.74688 -3.00341,2.04554c-1.4392,0.39166 -2.95475,-0.3505 -4.40331,-0.02916c-5.35415,1.18773 -10.14669,6.85489 -15.50042,8.1756c-5.71636,1.41017 -12.72701,-0.05242 -18.56558,-0.05242c-33.59289,0 -67.20752,0.25034 -100.79937,-0.12998c-6.66404,-0.52757 -13.01934,-3.14799 -19.63335,-3.9363c-3.30243,-0.3936 -6.64685,0.43168 -9.94725,0.00777c-2.84417,-0.36531 -5.57598,-1.70807 -8.3648,-2.55181c-7.56844,-2.28976 -15.51891,-4.67408 -23.24018,-5.63667c-4.34241,-0.54136 -8.90931,-0.0118 -13.27222,-0.0118c-8.33334,0 -16.6721,-0.00099 -25.00544,-0.00099c-8.31646,0 -16.90525,-0.83383 -25.19579,0.00819c-6.5433,0.66457 -12.99616,3.16898 -19.52299,4.08849c-7.11793,1.00278 -14.51412,-0.29867 -21.67205,0.32477c-11.1871,0.97438 -22.09397,3.73316 -33.3331,3.80488c-6.86521,0.04381 -13.79686,-0.09154 -20.53408,2.10263c-1.22782,0.39987 -6.57487,3.82908 -7.36528,4.03563c-3.11944,0.8152 -6.35363,-0.06207 -9.52997,-0.06207c-5,0 -10.00153,-0.00166 -15.00153,-0.00166c-16.01601,0 -32.03606,-0.00509 -48.05207,-0.00509c-6.47748,0.07341 -11.29912,-3.82327 -17.43707,-6.38166c-1.54823,-0.64532 -3.18498,-0.87032 -4.71547,-1.58988c-1.02779,-0.48321 -1.88265,-1.52862 -2.91394,-1.99781c-1.10491,-0.5027 -2.70501,0.34769 -3.43336,-0.89058c-0.64172,-1.091 0.39184,-2.75085 0.47171,-4.14453c0.0779,-1.35924 0.17021,-2.74699 -0.00021,-4.09046c-0.08149,-0.64241 -1.07499,-1.45659 -0.65452,-1.76811c0.87932,-0.65148 2.26674,1.11249 2.92534,0.08578c2.46386,-3.84098 -0.60375,-7.39674 0.54137,-11.33091c0.4913,-1.68791 2.2541,-2.16991 2.8894,-3.76619c0.26359,-0.6623 2.00384,-12.19978 2.10538,-12.74094c0.78656,-4.19199 1.33691,-8.53961 2.69465,-12.45123c0.70664,-2.03581 2.02495,-3.59714 2.75589,-5.61698c1.22283,-3.37908 1.86678,-7.11747 3.13999,-10.46186c0.98394,-2.01107 4.13732,-7.88725 4.55408,-10.70389c0.12696,-0.8581 -1.09066,-2.00505 -0.58246,-2.54089c0.79154,-0.83457 2.40792,1.24752 2.92009,0.07614c2.16642,-4.95484 -0.03086,-9.01458 0.6646,-13.89731c0.38152,-2.67863 1.84515,-4.84487 2.7308,-7.29231c1.48292,-4.09794 2.9271,-8.2231 4.33283,-12.3712c2.10962,-6.22519 4.50314,-12.43009 6.36096,-18.80115c2.10316,-7.2124 2.28119,-15.69228 4.65861,-22.72267c0.74378,-2.19947 2.28374,-3.82817 2.89448,-6.10237c0.92843,-3.45721 0.10646,-11.02595 0.10646,-14.65013c0,-12.39741 -0.67057,-25.18691 0.0284,-37.55291c0.51046,-9.03088 2.47033,-17.91811 2.9648,-26.95252c0.2473,-4.51825 -0.24912,-9.07697 -0.00203,-13.59524c0.22614,-4.13507 1.22369,-8.14366 1.50119,-12.27293c0.63497,-9.44841 -0.46555,-19.11635 -0.00408,-28.58249c0.16427,-3.36962 0.98432,-6.62193 1.47051,-9.93342c0.16915,-1.30596 1.52318,-11.74455 1.53511,-11.931c0.1373,-2.14625 -0.24951,-4.32985 -0.03555,-6.46443c0.35539,-3.54547 2.22336,-6.51754 2.95576,-9.95404c0.85548,-4.01404 0.78703,-8.31134 1.52047,-12.36994c0.3946,-2.18356 1.2728,-4.19367 1.5431,-6.41206c0.2312,-1.89743 -0.32133,-3.88108 -0.0587,-5.77091c0.13583,-0.97739 0.8224,-1.64567 1.20686,-2.49143c0.18105,-0.39829 5.23029,-11.83805 5.29553,-12.03632c2.04247,-6.20734 2.78517,-13.34717 4.51195,-19.73222c3.36169,-12.43032 7.93471,-24.03311 10.31592,-36.94783c0.35233,-2.00167 0.50266,-4.09162 1.05746,-6.0063c1.4886,-5.13733 5.60129,-9.26734 7.46703,-14.20146c3.88119,-10.26417 4.56773,-23.68359 13.58107,-28.58219c3.00369,-1.63245 4.39567,-3.3377 7.6449,-2.37831c2.1875,0.6459 3.83752,3.33536 6.00621,4.08975c0.84733,0.29475 1.82235,-0.65401 2.62095,-0.16857c1.91311,1.16289 2.46634,5.21809 3.51121,7.1104c0.81605,1.4779 2.20173,2.30701 2.90455,3.88916c1.50131,3.37967 1.90028,7.47099 3.05071,11.09704c0.46585,2.39165 0.55128,4.98477 1.39814,7.17387c0.37196,0.9615 5.99749,8.3478 6.43435,9.13052c1.93964,3.47518 3.22118,7.54736 4.82871,11.3239c1.04411,2.45291 1.37338,5.82677 3.12127,7.36678c1.63191,1.43783 3.79273,0.33848 5.73507,0.43416c3.74545,0.18451 9.5517,1.31331 12.40102,-3.22268c1.02892,-1.63799 0.55348,-4.41173 1.5025,-6.1369c0.74344,-1.35145 2.57342,-1.06491 3.2418,-2.48722c0.72488,-1.54253 0.14862,-10.1307 0.32342,-11.33032c0.27414,-1.88128 1.26371,-3.44413 1.71128,-5.26266c1.46655,-5.95884 3.39159,-13.29051 4.31808,-19.42535c0.18379,-1.21701 -0.32117,-2.53744 -0.05801,-3.72711c0.77777,-3.51602 2.85374,-6.23555 4.24088,-9.38438c3.37712,-7.66612 6.7125,-14.71457 7.83712,-23.71836c0.88689,-7.10052 1.18387,-14.28652 2.26137,-21.33581c0.05888,-0.3852 1.72045,-11.62898 1.99918,-12.40378c1.39712,-3.88369 4.99498,-5.89482 6.13157,-9.93309c0.63992,-2.2736 -0.24074,-4.91455 0.10419,-7.30372c0.2717,-1.88194 1.26324,-3.44328 1.71103,-5.26171c0.52541,-2.13365 0.69548,-4.40806 1.19914,-6.55141c0.77125,-3.28211 2.35502,-6.12142 3.2457,-9.34695c1.15875,-4.19634 1.44013,-8.79679 2.70129,-12.93799c1.09166,-3.58465 2.9577,-6.63605 4.42625,-9.96167c3.74051,-7.45312 7.97737,-14.778 11.32112,-22.56956c0.70298,-1.63807 0.74243,-3.89591 1.7928,-5.14225c0.92437,-1.09683 2.34913,-1.04233 3.56829,-1.21792c3.80979,-0.5487 9.27954,-0.9491 12.79648,1.54281c2.76455,1.95881 3.6205,8.20706 5.32706,11.39372c3.08615,5.76279 7.5991,10.79552 10.99423,16.34985c2.0714,3.38876 4.45918,6.45883 6.22833,10.15167c0.94787,1.97853 1.33817,4.40685 2.35637,6.31947c0.44925,0.8439 5.76386,6.688 6.12968,7.09686c0.4374,2.29604 2.02736,10.85932 2.56089,12.61745c1.77855,5.86088 4.92717,10.34751 7.83269,15.0557c5.40743,8.76238 7.89737,20.8242 12.96813,29.92046c0.99618,1.78701 2.51137,2.95892 3.50189,4.75177c2.703,4.89243 4.05988,11.72679 6.333,17.01778c1.65224,3.84581 3.98962,7.13047 5.46154,11.10984c2.62392,7.09381 2.77588,15.20294 6.29556,21.76313c3.09136,5.60967 4.58666,11.88189 7.44448,17.59263c1.59459,3.18643 4.27792,5.13147 6.00923,8.18266c1.63667,2.88439 2.3677,6.54304 3.56466,9.80357c2.68445,7.31241 4.88544,15.19012 7.69401,22.36608c3.09836,7.91639 8.13246,14.55032 11.06165,22.57195c1.89459,5.18837 1.25461,11.15901 2.98626,16.31099c1.91616,5.70094 6.81797,11.64859 9.94794,16.15033c4.71421,6.75657 7.59881,15.86495 13.80276,20.34357c2.15712,1.55723 4.28077,4.88062 6.62742,3.96327c1.72117,-0.67284 1.05257,-4.67786 1.32063,-7.08927c0.63914,-5.74961 0.09596,-12.59858 0.00117,-18.39795c-0.02636,-1.61262 -0.65715,-3.34804 -0.1899,-4.83021c0.55852,-1.77169 2.37362,-2.36215 3.00324,-4.08904c0.46993,-1.2889 -0.21069,-2.92465 0.0624,-4.31483c0.14833,-0.75511 0.79978,-1.129 1.13291,-1.76551c0.75283,-1.43845 1.08049,-3.38493 2.11835,-4.44432c0.5077,-0.51823 1.34518,0.26546 1.97871,0.31205c0.99955,0.07351 2.00214,0.0005 3.00314,0.0005c6.13149,0 11.7675,-0.65202 17.61834,2.00427c4.29216,-0.24657 6.04808,4.29949 9.48445,7.6182c0.68221,0.65886 7.04755,5.67237 7.3966,6.02587c2.32476,2.35442 3.8211,6.02993 6.1687,8.34192c2.0543,2.02314 5.09529,1.57195 7.11614,3.65665c0.56086,0.57858 0.34443,1.86337 0.5927,2.76001c0.64728,2.33762 1.13168,4.80559 2.09121,6.93484c1.46854,3.25877 4.49313,4.84374 5.96663,8.09835c0.83073,1.83488 0.68726,4.28839 1.50157,6.13687c0.72834,1.65333 2.269,2.4426 3.00302,4.09125c1.25203,2.81211 1.51032,6.25878 2.46089,9.28197c2.62047,8.33413 5.24391,16.67266 7.86626,25.00569c0.48923,1.66613 3.00964,10.26583 3.11897,10.55829c1.24247,3.32381 3.16812,6.08668 4.76026,9.12131c2.67638,5.1012 4.87857,10.31941 7.33299,15.61365c1.62524,3.5057 3.67886,6.65545 5.08754,10.33088c2.0763,5.41733 4.0113,12.55582 5.28115,18.41794c1.09033,5.03344 0.84536,8.31635 2.00659,13.39687c1.48711,6.50627 4.23644,12.50128 5.90703,18.92433c2.23784,8.60401 3.70821,17.75048 5.5898,26.51496c1.70043,3.40216 3.67924,6.568 5.14159,10.16962c1.60374,3.94981 2.39533,8.4362 3.91095,12.45005c2.14415,5.67842 5.28193,10.65515 7.4808,16.29194c1.97753,5.06938 2.70732,11.12914 4.49384,16.33429c1.21477,3.53931 3.33081,6.43706 4.44276,10.03851c1.85523,6.00881 1.44626,13.38856 3.46249,19.32515c1.40062,4.12399 4.47075,6.91205 5.88173,11.02949c0.58983,1.72121 0.6887,3.67615 0.97783,5.54029z" data-paper-data="{&quot;noHover&quot;:false,&quot;origItem&quot;:[&quot;Path&quot;,{&quot;applyMatrix&quot;:true,&quot;segments&quot;:[[[1538.10811,1271.19366],[0,0],[-0.57827,-2.73733]],[[1536.15195,1263.05891],[1.17966,2.52746],[-2.82195,-6.04613]],[[1524.3879,1246.86388],[2.80125,6.05575],[-4.03247,-8.71741]],[[1517.46117,1218.48919],[3.71047,8.82346],[-2.22391,-5.28844]],[[1508.57496,1203.74958],[2.42953,5.19719],[-3.57304,-7.64334]],[[1499.58589,1179.7664],[3.95505,7.44398],[-4.39774,-8.27718]],[[1484.62311,1155.84516],[4.28831,8.33832],[-3.03123,-5.89402]],[[1476.80017,1137.56534],[3.20748,5.79999],[-2.92471,-5.28867]],[[1466.51624,1122.6336],[3.40087,4.99581],[-3.76317,-12.86994]],[[1455.33417,1083.70412],[4.47569,12.63431],[-3.34118,-9.43173]],[[1443.51854,1055.91948],[2.97422,9.55394],[-2.32246,-7.46035]],[[1439.5042,1036.25077],[2.18067,7.39121],[-2.53968,-8.60805]],[[1428.94053,1009.21041],[4.1526,7.95492],[-2.81736,-5.39708]],[[1418.76481,994.04307],[3.25048,5.14785],[-4.90882,-7.77418]],[[1404.09793,971.12021],[5.35277,7.4907],[-3.18429,-4.45612]],[[1394.57696,957.72912],[2.48494,4.88075],[-0.21865,-0.42946]],[[1388.33856,942.22873],[0.97846,2.44658],[-5.24471,-12.23639]],[[1372.60546,905.51911],[5.24094,12.23801],[-1.90114,-4.43932]],[[1367.68368,891.89292],[2.50406,4.12936],[-1.46805,-2.42092]],[[1361.67767,885.88691],[1.45667,2.42778],[-1.62861,-2.71435]],[[1358.67467,876.8779],[1.66145,2.69437],[-2.947,-4.77915]],[[1346.74171,864.98969],[2.93708,4.78525],[-1.91906,-3.12663]],[[1342.55962,854.80942],[1.29455,3.4326],[-0.49655,-1.31664]],[[1341.37437,850.75776],[1.12172,0.8496],[-4.04169,-3.06121]],[[1327.14244,845.39042],[4.10859,2.97081],[-4.6952,-3.39497]],[[1314.80582,833.14523],[4.64952,3.45727],[-0.6981,-0.51909]],[[1300.01345,824.30035],[1.36442,0.96747],[-6.87273,-4.87327]],[[1281.04593,813.11862],[8.58432,-0.36207],[-11.70167,-3.90056]],[[1245.81081,810.18018],[12.26298,0],[-2.002,0]],[[1239.8048,810.18018],[1.99909,0.10794],[-1.26706,-0.06842]],[[1236.03486,809.65232],[1.0154,-0.76098],[-2.07572,1.55562]],[[1231.7988,816.18018],[1.50566,-2.11225],[-0.66625,0.93466]],[[1229.5332,818.77333],[0.29666,-1.10882],[-0.54617,2.04136]],[[1229.40919,825.11162],[0.93987,-1.89265],[-1.25925,2.53581]],[[1223.40318,831.11762],[1.11704,-2.60159],[-0.9345,2.17646]],[[1223.78378,838.21321],[-0.05272,-2.36801],[0.18959,8.51591]],[[1223.78378,865.24024],[1.27829,-8.44284],[-0.53612,3.54096]],[[1221.14307,875.65462],[3.44234,-0.98801],[-4.6933,1.34706]],[[1207.68978,869.8595],[4.31425,2.28666],[-12.4079,-6.57649]],[[1180.08817,840.00348],[9.42843,9.92148],[-6.25994,-6.61045]],[[1160.19827,816.30246],[3.83233,8.37139],[-3.4633,-7.56527]],[[1154.23215,792.36192],[3.78919,7.61871],[-5.85839,-11.77913]],[[1132.12202,759.23248],[6.19672,11.62459],[-5.61714,-10.53733]],[[1116.74642,726.3999],[5.36891,10.73769],[-2.39394,-4.78783]],[[1109.62247,712.00764],[3.27334,4.2355],[-3.46263,-4.48043]],[[1097.61045,699.99562],[3.18917,4.67903],[-5.71563,-8.38576]],[[1082.73095,674.16645],[6.18273,8.23735],[-7.03936,-9.63312]],[[1070.14806,642.21177],[5.24783,10.4167],[-2.94384,-5.84338]],[[1059.23015,625.8992],[3.30448,5.64727],[-4.54624,-7.7694]],[[1046.56996,600.91111],[5.40601,7.18414],[-1.98104,-2.63264]],[[1039.56876,593.93392],[1.99236,2.62408],[-10.14153,-13.35713]],[[1013.64155,549.99898],[10.81486,12.86685],[-5.81103,-6.9136]],[[997.98069,527.89101],[3.55709,8.60624],[-1.06705,-2.58168]],[[992.86025,509.36328],[0.87479,3.37155],[-0.73163,-0.60038]],[[980.60393,498.94204],[0.89851,1.2392],[-2.03639,-2.80853]],[[975.89224,489.66236],[1.89574,2.90532],[-3.5383,-5.42264]],[[963.43834,474.75527],[4.1428,4.97612],[-6.79026,-8.15611]],[[941.4543,450.74637],[6.17231,8.4622],[-3.41311,-4.67936]],[[930.80198,434.01536],[5.5291,2.87635],[-7.03388,-3.65918]],[[905.21419,431.749],[7.61957,-0.80573],[-2.43831,0.25784]],[[898.07913,433.5371],[1.84873,-1.6106],[-2.10074,1.83015]],[[894.49459,441.08787],[1.40596,-2.40538],[-6.68752,11.44128]],[[871.85874,474.22783],[7.48102,-10.94432],[-2.93711,4.88341]],[[863.00903,488.85489],[2.18333,-5.26378],[-2.52231,6.08103]],[[857.60896,507.85245],[2.3175,-6.16199],[-1.78136,4.73644]],[[851.12004,521.5768],[1.54251,-4.81952],[-1.00732,3.14734]],[[848.72308,531.1965],[1.05082,-3.13309],[-0.89557,2.67022]],[[845.30245,538.92232],[0.54339,-2.76348],[-0.68985,3.50832]],[[845.09513,549.64682],[1.27984,-3.3386],[-2.2732,5.92987]],[[832.83613,564.23086],[2.79424,-5.7029],[-0.55746,1.13774]],[[828.84065,582.44337],[0.11776,-0.56563],[-2.15501,10.35132]],[[824.32276,613.77057],[1.77379,-10.42655],[-2.24924,13.22134]],[[808.65683,648.5935],[6.75425,-11.25709],[-2.77428,4.62381]],[[800.17893,662.3707],[1.55554,-5.163],[-0.52633,1.74693]],[[800.2958,667.84295],[0.36759,-1.78709],[-1.85297,9.00852]],[[791.66602,696.36166],[2.9331,-8.75008],[-0.89513,2.67036]],[[788.2454,704.08748],[0.54827,-2.76252],[-0.34961,1.76154]],[[787.6016,720.72175],[1.44976,-2.26507],[-1.33678,2.08855]],[[781.11961,724.3721],[1.48688,-1.9845],[-1.89805,2.53327]],[[778.11661,733.38111],[2.05784,-2.40527],[-5.69864,6.66073]],[[753.31832,738.10811],[7.49089,0.27093],[-3.88466,-0.1405]],[[741.68065,737.36136],[3.26383,2.11133],[-3.49579,-2.26138]],[[735.43911,726.54229],[2.08822,3.6019],[-3.21506,-5.54555]],[[725.78315,709.91192],[3.87928,5.10303],[-0.87372,-1.14935]],[[712.91504,696.50365],[0.74393,1.41189],[-1.69373,-3.21452]],[[710.1199,685.96782],[0.93171,3.51194],[-2.30087,-5.32456]],[[704.02002,669.6707],[3.00262,4.96279],[-1.40564,-2.32327]],[[698.21105,663.95959],[1.6321,2.17018],[-2.08976,-2.77872]],[[691.34484,653.64342],[3.82622,1.70762],[-1.59721,-0.71282]],[[686.10349,653.89027],[1.69466,0.43281],[-4.33739,-1.10777]],[[674.09147,647.88426],[4.37499,0.94845],[-6.49846,-1.4088]],[[658.80342,651.37431],[6.00738,-2.39712],[-18.02668,7.19319]],[[631.64776,693.33495],[7.76237,-15.07212],[-3.73147,7.24536]],[[616.71654,714.18331],[2.9772,-7.54376],[-1.1096,2.81155]],[[614.60253,723.00119],[0.70467,-2.93929],[-4.76243,18.96424]],[[593.97561,777.24324],[6.72338,-18.25294],[-3.45357,9.37593]],[[584.95356,806.21147],[4.08494,-9.11499],[-0.13048,0.29114]],[[574.36341,823.88138],[0.3621,-0.58486],[-0.76891,1.24194]],[[571.94986,827.53892],[0.27165,-1.43522],[-0.52525,2.77507]],[[572.06757,836.01112],[0.46239,-2.78623],[-0.5406,3.25753]],[[568.98169,845.42448],[0.7892,-3.20639],[-1.46689,5.95973]],[[565.94119,863.58451],[1.71097,-5.8943],[-1.4648,5.04623]],[[560.0299,878.19779],[0.71077,-5.20624],[-0.42792,3.13446]],[[560.10108,887.68813],[0.2746,-3.15159],[-0.02386,0.27379]],[[557.03089,905.20385],[0.33831,-1.9177],[-0.97237,4.86265]],[[554.08978,919.78698],[0.32854,-4.94803],[-0.92294,13.90028]],[[554.09708,961.74874],[1.26994,-13.87423],[-0.55501,6.0635]],[[551.09407,979.76676],[0.45228,-6.07203],[-0.49419,6.63472]],[[551.09727,999.72605],[0.49459,-6.63469],[-0.98895,13.26632]],[[545.16564,1039.29604],[1.02092,-13.26113],[-1.39794,18.15848]],[[545.1051,1094.42943],[0,-18.20461],[0,5.32182]],[[544.89056,1115.93841],[1.85686,-5.07664],[-1.22147,3.33947]],[[539.10113,1124.89827],[1.48756,-3.22974],[-4.75484,10.32356]],[[529.78167,1158.26041],[4.20632,-10.59084],[-3.71564,9.3554]],[[517.05814,1185.8656],[4.21924,-9.14119],[-2.81146,6.09116]],[[508.39147,1204.03007],[2.96584,-6.0175],[-1.77131,3.59388]],[[502.92931,1214.73735],[0.76304,-3.93335],[-1.39091,7.1699]],[[501.59859,1235.14214],[4.33284,-7.27579],[-1.02434,1.7201]],[[495.59259,1235.14214],[1.58309,-1.2255],[-1.01641,0.78682]],[[496.9233,1238.76138],[0.25393,-1.26004],[-0.83352,4.13603]],[[487.81441,1254.47814],[1.96788,-2.95309],[-2.54641,4.91097]],[[481.53362,1269.8394],[2.44567,-4.96191],[-1.46189,2.96597]],[[476.02152,1278.08704],[1.41328,-2.98944],[-2.71548,5.7439]],[[470.63116,1296.36926],[1.57311,-6.15561],[-0.20308,0.79465]],[[466.41928,1315.07684],[0.52718,-0.97254],[-1.2706,2.34401]],[[460.64042,1320.60711],[0.9826,-2.47857],[-2.29024,5.77702]],[[459.55655,1337.24424],[4.92773,-5.64018],[-1.3172,1.50764]],[[453.55055,1337.24424],[1.75864,-0.95665],[-0.84094,0.45745]],[[455.01501,1339.71471],[-0.16298,-0.94333],[0.34083,1.97278]],[[455.01501,1345.72072],[0.15579,-1.99593],[-0.15974,2.04651]],[[454.07122,1351.80618],[-1.28344,-1.60204],[1.45669,1.8183]],[[460.93744,1353.11334],[-2.20982,-0.73816],[2.06257,0.68898]],[[466.76476,1356.04631],[-2.05558,-0.70956],[3.06099,1.05662]],[[476.19496,1358.38007],[-3.09647,-0.94761],[12.27591,3.75678]],[[511.06606,1367.74775],[-12.95496,0.1078],[32.03203,0]],[[607.16216,1367.74775],[-32.03203,0],[10,0]],[[637.16216,1367.74775],[-10,0],[6.35268,0]],[[656.22,1367.83732],[-6.23888,1.19705],[1.58082,-0.30331]],[[670.94935,1361.91045],[-2.45563,0.58718],[13.47443,-3.22196]],[[712.01258,1358.81966],[-13.73041,0.06434],[22.47826,-0.10532]],[[778.66939,1353.22735],[-22.37421,1.43079],[14.31586,-0.91547]],[[822.00613,1352.74729],[-14.23585,1.47251],[13.05367,-1.35023]],[[861.04517,1346.74128],[-13.08661,0.97586],[16.58108,-1.23644]],[[911.42642,1346.72673],[-16.63291,0],[16.66667,0]],[[961.42642,1346.72673],[-16.66667,0],[8.72583,0]],[[987.96495,1346.74376],[-8.68483,-0.79494],[15.44254,1.41349]],[[1034.43511,1355.0211],[-15.13687,-3.36234],[5.57764,1.23896]],[[1051.1612,1358.76859],[-5.68835,-0.53643],[6.60081,0.62248]],[[1071.05149,1358.75777],[-6.60486,-0.57798],[13.22803,1.15756]],[[1110.31045,1364.53951],[-13.32807,-0.7747],[67.1837,0.55846]],[[1311.87687,1364.74474],[-67.18578,0],[11.67715,0]],[[1349.00378,1364.82479],[-11.43272,2.07072],[10.70745,-1.93936]],[[1380.00041,1352.82295],[-10.70831,1.74409],[2.89712,-0.47186]],[[1388.80619,1352.86649],[-2.8784,0.57512],[2.19492,-0.43856]],[[1394.81219,1349.86348],[-2.17192,0.5411],[2.02571,-0.50467]],[[1401.07484,1349.80996],[-2.03656,0.45893],[8.14608,-1.83567]],[[1425.09886,1340.80095],[-8.29532,1.19037],[6.6798,-0.95855]],[[1447.01201,1340.72072],[-6.85829,-0.13929],[1.5204,0.03088]],[[1451.5691,1340.93526],[-1.41381,0.56009],[8.03461,-3.18293]],[[1473.09719,1321.79856],[-5.99553,5.73768],[5.71653,-1.63055]],[[1490.27957,1317.02331],[-5.56422,2.09212],[2.29772,-0.86393]],[[1496.9143,1313.82745],[-2.3807,0.59846],[5.4938,-1.38102]],[[1515.54855,1309.15215],[-4.58636,4.7794],[1.7951,-1.87066]],[[1519.45843,1302.42843],[-2.17992,1.40345],[2.1051,-1.35529]],[[1526.94433,1301.81544],[-2.42325,0.6294],[3.45233,-0.89668]],[[1536.56957,1297.14014],[-2.66269,2.37333],[3.94298,-3.51449]],[[1538.10811,1276.65165],[0,4.59142],[0,0]]],&quot;closed&quot;:true}]}" fill="url(#color-2)" stroke="none" stroke-width="0.5" stroke-linecap="butt"/><path d="M-261.47896,803.003v-241.25375h1364.86486v241.25375z" fill="#000000" stroke="#ffffff" stroke-width="1.5" stroke-linecap="butt"/><text transform="translate(3.32889,597.78528) scale(0.63014,0.63014)" font-size="40" xml:space="preserve" fill="#ffffff" fill-rule="nonzero" stroke="none" stroke-width="1" stroke-linecap="butt" stroke-linejoin="miter" stroke-miterlimit="10" stroke-dasharray="" stroke-dashoffset="0" font-family="Marker" font-weight="normal" text-anchor="start" style="mix-blend-mode: normal"><tspan x="0" dy="0">These objects were once stolen, but the powerful robot retrieved them.</tspan></text><text transform="translate(805.60061,629.31681) scale(0.5,0.5)" font-size="40" xml:space="preserve" fill="#ffffff" fill-rule="nonzero" stroke="none" stroke-width="1" stroke-linecap="butt" stroke-linejoin="miter" stroke-miterlimit="10" stroke-dasharray="" stroke-dashoffset="0" font-family="Marker" font-weight="normal" text-anchor="start" style="mix-blend-mode: normal"><tspan x="0" dy="0">Press Z to continue.</tspan></text><path d="M326.36637,83.10811l-35,27" fill="none" stroke="#ffffff" stroke-width="2" stroke-linecap="round"/><path d="M326.36637,112.44144l-32,-32" fill="none" stroke="#ffffff" stroke-width="2" stroke-linecap="round"/><path d="M309.69971,115.77478l-0.33334,-37.66667" fill="none" stroke="#ffffff" stroke-width="2" stroke-linecap="round"/><path d="M332.36637,92.10811l-44,4.66667" fill="none" stroke="#ffffff" stroke-width="2" stroke-linecap="round"/><path d="M780.82289,207.88594l43.53403,7.66737" fill="none" stroke="#ffffff" stroke-width="2" stroke-linecap="round"/><path d="M804.76458,190.11217l-2.08155,45.20694" fill="none" stroke="#ffffff" stroke-width="2" stroke-linecap="round"/><path d="M816.59615,199.62313l-27.60663,25.62738" fill="none" stroke="#ffffff" stroke-width="2" stroke-linecap="round"/><path d="M821.74998,226.05111l-33.09682,-29.36627" fill="none" stroke="#ffffff" stroke-width="2" stroke-linecap="round"/><path d="M456.53698,355.17002l-42.31037,-12.79972" fill="none" stroke="#ffffff" stroke-width="2" stroke-linecap="round"/><path d="M440.11545,327.57574l-7.45302,44.6369" fill="none" stroke="#ffffff" stroke-width="2" stroke-linecap="round"/><path d="M450.72953,338.42865l-30.46342,22.15556" fill="none" stroke="#ffffff" stroke-width="2" stroke-linecap="round"/><path d="M452.69782,365.28244l-29.36214,-33.10049" fill="none" stroke="#ffffff" stroke-width="2" stroke-linecap="round"/><path d="M741.46763,497.29107l-33.33817,-29.027" fill="none" stroke="#ffffff" stroke-width="2" stroke-linecap="round"/><path d="M737.80853,465.38931l-25.10491,37.65294" fill="none" stroke="#ffffff" stroke-width="2" stroke-linecap="round"/><path d="M743.03751,479.6407l-36.87025,7.7119" fill="none" stroke="#ffffff" stroke-width="2" stroke-linecap="round"/><path d="M733.81868,504.93919l-13.20286,-42.23106" fill="none" stroke="#ffffff" stroke-width="2" stroke-linecap="round"/><path d="M659.81799,320.45668l-17.90267,-40.41651" fill="none" stroke="#ffffff" stroke-width="2" stroke-linecap="round"/><path d="M631.32607,313.48134l38.69155,-23.47263" fill="none" stroke="#ffffff" stroke-width="2" stroke-linecap="round"/><path d="M668.71709,305.13329l-36.66547,-8.63319" fill="none" stroke="#ffffff" stroke-width="2" stroke-linecap="round"/><path d="M649.64938,324.14441l5.9302,-43.84758" fill="none" stroke="#ffffff" stroke-width="2" stroke-linecap="round"/></g></g></svg>