<svg version="1.1" xmlns="http://www.w3.org/2000/svg" xmlns:xlink="http://www.w3.org/1999/xlink" width="26.18751" height="41.77219" viewBox="0,0,26.18751,41.77219"><g transform="translate(-527.33333,-295.58331)"><g data-paper-data="{&quot;isPaintingLayer&quot;:true}" fill-rule="nonzero" stroke-linecap="butt" stroke-linejoin="miter" stroke-miterlimit="10" stroke-dasharray="" stroke-dashoffset="0" style="mix-blend-mode: normal"><path d="M542.68664,317.2029c0.44043,0.24411 0.88803,0.3988 1.33483,0.39394c0.22497,-0.00246 0.88371,0.08878 0.67305,-0.15375c-0.48473,-0.55803 -1.25482,-0.44691 -2.00788,-0.24019zM531.47047,319.2505c-0.10696,-0.23782 -0.20268,-0.61177 -0.26531,-1.18895c-0.23717,-2.18558 0.47434,-2.91411 0.47434,-2.91411l0.61387,-0.59883c3.12804,-1.57799 6.44658,-1.56721 9.6233,-1.56721c0.79058,0 2.37226,-0.8223 3.0705,0.11823c1.22054,1.64404 1.73338,4.56988 0.56643,8.07595c-0.06234,0.18728 -0.13431,0.3481 -0.21421,0.48531c0.40037,1.10746 0.48832,2.78737 -0.00938,5.32408c-0.02729,0.13909 -0.08134,0.25583 -0.15544,0.35375c1.15924,2.39301 1.62072,6.6586 -0.35406,9.07458c-1.00201,1.22588 -2.24035,-0.43288 -3.19064,-0.93544c-3.12556,-1.65298 -6.86109,-0.99416 -10.04653,-0.99416c0,0 -0.75,0 -0.75,-2.30381c0,-0.43495 0.02673,-0.78778 0.0701,-1.074c-0.04498,-0.29581 -0.0701,-0.62582 -0.0701,-0.97383c0,-0.52702 0.05761,-1.01273 0.15455,-1.4009l0.49545,-2.02923l0.26579,0.61232c0.36795,-1.17034 0.79599,-2.07715 1.26724,-2.77269c-0.05461,-0.03671 -0.10901,-0.07444 -0.1632,-0.11316c-0.60053,-0.4294 -1.47965,0.13515 -1.78288,-1.51395c-0.20884,-1.13578 0.09951,-2.48253 0.40018,-3.66387zM540.21786,330.88292c0.17712,0.00851 0.35449,0.01432 0.53214,0.01702c0.14807,0.00224 4.25634,1.34682 3.96606,0.05431c-0.16909,-0.75289 -0.57997,-0.42009 -0.8733,-0.57745c-1.22633,0.01484 -2.42996,0.22516 -3.6249,0.50616zM534.66617,327.62643c1.13964,-0.19066 2.26782,-0.49206 3.39636,-0.79595c-1.03794,-0.14477 -2.06034,-0.09178 -3.02572,0.45596c-0.11345,0.06438 -0.23822,0.18534 -0.37064,0.33997zM538.76277,320.61709c-1.10108,-0.48018 -2.21078,-0.9493 -3.3461,-0.98024c-0.49084,-0.01341 -1.08021,0.17352 -1.61553,0.47019c0.31693,0.22996 0.58705,0.52816 0.68289,0.56302c1.34401,0.48912 2.84103,0.4139 4.27875,-0.05296z" fill="#ffffff" stroke="#000000" stroke-width="1"/><path d="M528.08333,312.95692v-16.62361h19.83333v16.62361z" fill="#ffffff" stroke="#000000" stroke-width="1.5"/><path d="M533.77084,299.38608c0,-0.25 0.25,-0.25 0.25,-0.25c0.26664,0 1.03328,0 1.29993,0c2.07536,-1.33592 4.94624,-2.12152 7.07507,-2.125c0.70833,0 1.41667,0 2.125,0l0.25,0c0.13807,0 0.25,0.11193 0.25,0.25c0,0.10923 -0.07005,0.2021 -0.16768,0.23613l-0.4627,0.17351l-0.01199,-0.03196c-2.28785,1.38055 -5.28327,1.88166 -7.95636,1.97885c-0.67978,0.34472 -1.37302,0.65992 -2.11319,0.87793l0.00425,0.00496l-0.02329,0.01996c1.57827,0.56222 3.30978,0.20019 4.88591,0.65212c0.42021,-0.13557 0.83427,-0.25899 1.23978,-0.36125c3.37523,-0.91663 6.72709,-1.19101 10.1668,-1.73412c0.80023,-0.12581 1.61841,-0.14044 2.42665,-0.19077l0.00768,0.00342l0,-0.00354l0.25385,-0.00024c0.00001,0 0.00006,0 0.00002,0c0.00005,0 0.00019,0 0.00019,0c0.00002,0 0.00005,0 0.00007,0c0.13807,0 0.25,0.11193 0.25,0.25c0,0.12431 -0.09072,0.22742 -0.20957,0.24675l-0.48765,0.08866l-0.00086,-0.00476c-2.7333,1.36436 -5.74485,2.62048 -8.71177,3.3273c-2.13983,0.50978 -4.20004,1.25483 -6.34077,1.75611c0.55611,0.13691 1.15392,0.46242 1.66227,0.55442c2.23562,0.40461 4.47201,0.74539 6.56554,1.64262c1.57171,0.67816 0.87121,2.05266 -0.07789,2.98115c-1.51887,1.48589 -4.15875,2.08402 -6.21345,2.45761c-1.5668,0.28487 -3.14865,0.34692 -4.73605,0.34983c-1.03865,0.17625 -2.03894,0.21106 -2.90506,-0.02352c-0.13992,-0.00074 -0.27984,-0.00116 -0.41975,-0.00116h-0.25c0,0 0,0 0,0c-0.13807,0 -0.25,-0.11193 -0.25,-0.25c0,-0.13807 0.11193,-0.25 0.25,-0.25h0.5v0.00045c0.06984,0.00024 0.13968,0.00058 0.20953,0.00099c1.17837,-0.26372 2.55041,0.03131 3.72747,-0.23063c1.71079,-0.38072 3.42057,-1.05386 5.12262,-1.5121c0.27102,-0.07391 0.86308,-0.19227 1.22748,-0.25653c-0.74777,-0.05711 -2.14497,-1.01736 -2.78308,-1.1864c-1.57334,-0.41681 -3.26655,-0.44076 -4.87902,-0.44076c-0.99893,-0.17139 -0.33224,-1.1282 0.24357,-1.46266c0.22879,-0.13289 0.48226,-0.24363 0.75011,-0.33883c-1.91918,-0.01314 -4.18465,-0.32351 -5.24368,-0.32351h-0.25c0,0 0,0 0,0c-0.13807,0 -0.25,-0.11193 -0.25,-0.25c0,-0.06904 0.02798,-0.13154 0.07322,-0.17678l0.25,-0.25l0.05226,0.05226c1.60167,-1.75808 5.43457,-2.44657 7.80901,-3.52641c-1.93187,0.67356 -3.93259,1.40093 -5.80949,1.40093c0,0 -0.25,0 -0.25,-0.25c0,-0.25 0.25,-0.25 0.25,-0.25c1.79352,0 3.71615,-0.68842 5.57523,-1.34186c-1.36236,-0.08566 -2.99494,-0.44157 -3.71499,-0.72201l-0.28676,-0.06645c-0.11335,-0.02375 -0.19847,-0.12428 -0.19847,-0.24468c0,-0.07652 0.03438,-0.14501 0.08854,-0.19087l0.37839,-0.32434l0.03094,0.03609c0.18489,-0.1802 0.38479,-0.35394 0.59743,-0.52088c-0.03176,0 -0.06353,0 -0.09529,0h-0.5c0,0 -0.25,0 -0.25,-0.25zM539.06638,302.08867c-1.94728,1.20909 -4.32597,1.9154 -6.41617,2.86549c-0.33095,0.15043 -0.96289,0.55176 -1.5264,0.79278c2.26293,-0.06872 4.83045,-0.34883 7.02203,0.04883v-0.0347l0.5,0c0.13807,0 0.25,0.11193 0.25,0.25c0,0.10643 -0.06651,0.19733 -0.16023,0.2334l-0.38219,0.15728l-0.00227,-0.00553l-0.01469,0.0118c-0.97153,0.24489 -1.93423,0.49693 -2.88722,0.80711c-0.30969,0.1008 -0.88723,0.63499 -0.92793,0.67094c2.23436,0.00003 4.33667,0.19873 6.43254,1.00324c0.43392,0.16656 1.85274,0.56496 1.94171,1.13362c0.06085,0.38895 -1.58535,0.66835 -1.80933,0.72943c-1.05571,0.28423 -2.40311,0.79457 -3.80825,1.21849c0.78287,-0.05032 1.56308,-0.13574 2.33927,-0.27687c1.63889,-0.29798 4.38291,-0.77458 5.59583,-1.97343c0.71531,-0.70702 2.02569,-1.90234 0.588,-2.51382c-2.70071,-1.15745 -6.0249,-0.98944 -8.62812,-2.33268l-0.01383,0.03917l-0.46601,-0.16448c-0.10002,-0.03269 -0.17228,-0.12675 -0.17228,-0.23768c0,-0.12228 0.08778,-0.22405 0.20377,-0.24573l0.30899,-0.06422c2.36581,-0.49158 4.6156,-1.33461 6.96153,-1.89349c2.29344,-0.54637 4.36426,-1.34278 6.4569,-2.44417c0.1821,-0.09584 0.38915,-0.22143 0.60956,-0.34673c-0.1342,0.01535 -0.26799,0.03322 -0.40123,0.05435c-3.42366,0.54058 -6.75907,0.81185 -10.11813,1.72393c-0.17593,0.04437 -0.35331,0.09255 -0.53198,0.14383c0.00689,0.02287 0.01059,0.04711 0.01059,0.07222c0,0.11936 -0.08364,0.21918 -0.19552,0.24405l-0.37797,0.09265c-0.12699,0.0803 -0.25399,0.1606 -0.38098,0.2409zM537.56668,299.01767c1.45249,-0.16126 2.83242,-0.48175 4.33184,-0.92751c0.38109,-0.11329 0.86125,-0.37849 1.33917,-0.57908c-0.28062,0 -0.56123,0 -0.84185,0c-1.86538,-0.00331 -3.36018,0.73109 -4.82916,1.50659z" fill="#ececec" stroke="none" stroke-width="0.5"/></g></g></svg>