<svg version="1.1" xmlns="http://www.w3.org/2000/svg" xmlns:xlink="http://www.w3.org/1999/xlink" width="21.33333" height="19.73491" viewBox="0,0,21.33333,19.73491"><defs><radialGradient cx="542.58333" cy="320.33333" r="9.91666" gradientUnits="userSpaceOnUse" id="color-1"><stop offset="0" stop-color="#ffffff"/><stop offset="1" stop-color="#66ebff"/></radialGradient></defs><g transform="translate(-527.33333,-317.41665)"><g data-paper-data="{&quot;isPaintingLayer&quot;:true}" fill-rule="nonzero" stroke="#000000" stroke-linecap="butt" stroke-linejoin="miter" stroke-miterlimit="10" stroke-dasharray="" stroke-dashoffset="0" style="mix-blend-mode: normal"><path d="M542.68664,327.79172c0.44043,0.11258 0.88803,0.18393 1.33483,0.18168c0.22497,-0.00113 0.88371,0.04095 0.67305,-0.07091c-0.48473,-0.25737 -1.25482,-0.20612 -2.00788,-0.11078zM531.47047,328.73607c-0.10696,-0.10969 -0.20268,-0.28215 -0.26531,-0.54834c-0.23717,-1.00799 0.47434,-1.34399 0.47434,-1.34399l0.61387,-0.27618c3.12804,-0.72777 6.44658,-0.7228 9.6233,-0.7228c0.79058,0 2.37226,-0.37925 3.0705,0.05453c1.22054,0.75823 1.73338,2.10763 0.56643,3.72463c-0.06234,0.08637 -0.13431,0.16054 -0.21421,0.22382c0.40037,0.51076 0.48832,1.28554 -0.00938,2.45547c-0.02729,0.06415 -0.08134,0.11799 -0.15544,0.16315c1.15924,1.10366 1.62072,3.07095 -0.35406,4.1852c-1.00201,0.56538 -2.24035,-0.19965 -3.19064,-0.43143c-3.12556,-0.76236 -6.86109,-0.45851 -10.04653,-0.45851c0,0 -0.75,0 -0.75,-1.06252c0,-0.2006 0.02673,-0.36332 0.0701,-0.49533c-0.04498,-0.13643 -0.0701,-0.28863 -0.0701,-0.44913c0,-0.24306 0.05761,-0.46707 0.15455,-0.64609l0.49545,-0.93588l0.26579,0.2824c0.36795,-0.53976 0.79599,-0.95798 1.26724,-1.27877c-0.05461,-0.01693 -0.10901,-0.03433 -0.1632,-0.05219c-0.60053,-0.19804 -1.47965,0.06233 -1.78288,-0.69823c-0.20884,-0.52382 0.09951,-1.14495 0.40018,-1.68978zM540.21786,334.10095c0.17712,0.00392 0.35449,0.0066 0.53214,0.00785c0.14807,0.00103 4.25634,0.62115 3.96606,0.02505c-0.16909,-0.34723 -0.57997,-0.19374 -0.8733,-0.26632c-1.22633,0.00684 -2.42996,0.10384 -3.6249,0.23344zM534.66617,332.59906c1.13964,-0.08793 2.26782,-0.22694 3.39636,-0.36709c-1.03794,-0.06677 -2.06034,-0.04233 -3.02572,0.21029c-0.11345,0.02969 -0.23822,0.08548 -0.37064,0.1568zM538.76277,329.36635c-1.10108,-0.22146 -2.21078,-0.43782 -3.3461,-0.45209c-0.49084,-0.00619 -1.08021,0.08003 -1.61553,0.21685c0.31693,0.10606 0.58705,0.24359 0.68289,0.25967c1.34401,0.22558 2.84103,0.19089 4.27875,-0.02442z" fill="#8a8a8a" stroke-width="1"/><path d="M528.08333,325.83347v-7.66682h19.83333v7.66682z" fill="url(#color-1)" stroke-width="1.5"/></g></g></svg>