<svg version="1.1" xmlns="http://www.w3.org/2000/svg" xmlns:xlink="http://www.w3.org/1999/xlink" width="1822.82283" height="460.46548" viewBox="0,0,1822.82283,460.46548"><g transform="translate(274.99249,-541.22373)"><g data-paper-data="{&quot;isPaintingLayer&quot;:true}" fill-rule="nonzero" stroke="none" stroke-linecap="butt" stroke-linejoin="miter" stroke-miterlimit="10" stroke-dasharray="" stroke-dashoffset="0" style="mix-blend-mode: normal"><path d="" fill="#8a8a8a" stroke-width="0"/><path d="" fill="#8a8a8a" stroke-width="0"/><path d="M303.05859,865.5c-0.031,-13.05948 3.08605,-24.57599 4.9042,-37.61909c1.10875,-7.95401 1.67083,-12.68815 1.94184,-17.00962c0.00588,0.05319 0.01171,0.10637 0.01747,0.15954c1.71957,15.85527 3.55249,31.71905 4.33166,47.64825c0.6662,13.61972 -0.11885,27.27253 0,40.90802c0.03957,4.53958 2.40301,8.00913 3.003,12.32207c0.67674,4.86462 -0.03538,8.5636 0.89461,12.69749h-26.18125c0.17167,-1.62532 0.25293,-3.30704 0.26389,-5.01221c0.54376,-2.16082 1.02218,-4.35224 1.29626,-6.73604c0.87087,-7.57405 1.72174,-15.14563 2.56191,-22.71572c6.9664,-1.78417 6.9664,-9.64266 6.9664,-9.64266c0,-3.66667 0,-11.33336 0,-15.00003z" fill="#8a8a8a" stroke-width="0"/><path d="M652.87614,924.60664c2.62174,-6.89158 4.95124,-13.87414 6.70021,-21.03679c2.96015,-12.12284 5.24318,-24.42329 8.73679,-36.40329c3.64087,-12.48499 8.09388,-24.11216 12.1679,-35.81033c-1.62984,31.52061 -1.28853,62.80979 5.68452,93.25041z" fill="#8a8a8a" stroke-width="0"/><path d="" fill="#0c7d00" stroke-width="0"/><path d="" fill="#0c7d00" stroke-width="0"/><path d="" fill="#0c7d00" stroke-width="0"/><path d="" fill="#dabe00" stroke-width="0"/><path d="" fill="#0c7d00" stroke-width="0"/><path d="M219.68008,925.08368c-0.31605,-2.16037 -0.89813,-5.68302 -1.58518,-10.91339c-0.08542,-0.65029 -6.63603,-37.70955 -6.82044,-38.75392c-0.26021,-6.33675 -0.50992,-12.67591 -0.75783,-19.01637c1.9623,9.69145 3.93992,19.37485 5.8622,29.05271l-0.04549,2.04729c0,0 0,6.25019 4.94128,8.868c0.20158,9.93212 0.5344,19.87069 0.82366,29.80643c-0.8078,-0.496 -1.64288,-0.84508 -2.4182,-1.09075z" fill="#8a8a8a" stroke-width="0"/><path d="" fill="#8a8a8a" stroke-width="0"/><path d="M210.91315,730.55592c1.01522,7.00332 2.01985,14.00831 3.02153,21.0137c-0.02308,0.00238 -0.04611,0.00481 -0.06907,0.00731c-1.07839,-6.99834 -2.22022,-13.99038 -2.95246,-21.02101z" fill="#8a8a8a" stroke-width="0"/><path d="" fill="#8a8a8a" stroke-width="0"/><path d="" fill="#8a8a8a" stroke-width="0"/><path d="M293.53028,912.85839c4.55177,-39.58729 8.55732,-79.10717 13.3426,-118.69973c1.21091,5.67875 2.44852,11.33344 3.04921,16.87216c1.71957,15.85527 3.55249,31.71905 4.33166,47.64825c0.6662,13.61972 -0.11885,27.27253 0,40.90802c0.03957,4.53958 2.40301,8.00913 3.003,12.32207c0.78375,5.63385 -0.29532,9.70428 1.47094,14.69749l-27.02073,-0.00001c0.35489,-2.22786 0.51151,-4.59647 0.52704,-7.01216c0.54376,-2.16084 1.02218,-4.35228 1.29627,-6.73609z" fill="#8a8a8a" stroke-width="0"/><path d="" fill="#dabe00" stroke-width="0"/><path d="M652.10637,926.60664c2.93479,-7.54066 5.5516,-15.18039 7.46997,-23.03679c2.96015,-12.12284 5.24318,-24.42329 8.73679,-36.40329c3.64087,-12.48499 8.09388,-24.11216 12.1679,-35.81033c-1.66556,32.21136 -1.27262,64.18102 6.15255,95.25041z" fill="#8a8a8a" stroke-width="0"/><path d="M307.40858,954.84546c-4.26625,10.70738 -7.2887,22.11879 -13.47298,31.84523c-0.88129,1.38606 -2.8706,0.71395 -4.75831,0.27486c3.62189,-18.03568 -0.58409,-41.6476 0.00138,-51.86994c0.01521,-0.26556 0.03257,-0.5282 0.05195,-0.78808c2.19461,-3.91147 2.96789,-9.18921 3.00338,-14.7131c0.54376,-2.16082 1.02217,-4.35224 1.29626,-6.73603c4.55177,-39.58729 8.55732,-79.10717 13.3426,-118.69973c1.21091,5.67875 2.44852,11.33344 3.04921,16.87216c1.71957,15.85527 3.55249,31.71905 4.33166,47.64825c0.6662,13.61972 -0.11885,27.27253 0,40.90802c0.03957,4.53958 2.40301,8.00913 3.003,12.32207c0.78691,5.65655 -0.30405,9.73705 1.49243,14.75788c-3.72402,9.41481 -7.59448,18.77646 -11.3406,28.17843z" fill="#8a8a8a" stroke-width="0"/><path d="" fill="#dabe00" stroke-width="0"/><path d="M124.24851,641.74174c0,-0.41421 0.33579,-0.75 0.75,-0.75c0.41421,0 0.75,0.33579 0.75,0.75c0,0.41421 -0.33579,0.75 -0.75,0.75c-0.41421,0 -0.75,-0.33579 -0.75,-0.75z" fill="#8a8a8a" stroke-width="0.5"/><path d="" fill="#8a8a8a" stroke-width="0.5"/><path d="" fill="#8a8a8a" stroke-width="0.5"/><path d="M173.79657,700.3003c0,0.75 -0.75,0.75 -0.75,0.75c-6.5,0 -13.01952,0 -19.51952,0c0,0 -0.75,0 -0.75,-0.75c0,-0.75 0.75,-0.75 0.75,-0.75c6.5,0 13,0 19.5,0h0.01952c0,0 0.75,0 0.75,0.75z" fill="#8a8a8a" stroke-width="0.5"/><path d="M600.97448,648.49925c0.41421,0 0.75,0.33579 0.75,0.75c0,0.41421 -0.33579,0.75 -0.75,0.75c-0.08916,0 -0.17468,-0.01556 -0.25401,-0.04411c-0.00448,-0.46881 -0.00934,-0.9376 -0.01461,-1.40636c0.0834,-0.032 0.17396,-0.04954 0.26861,-0.04954z" fill="#8a8a8a" stroke-width="0.5"/><path d="" fill="#8a8a8a" stroke-width="0.5"/><path d="" fill="#8a8a8a" stroke-width="0.5"/><path d="" fill="#dabe00" stroke-width="0.5"/><path d="" fill="#dabe00" stroke-width="0.5"/><path d="" fill="#8a8a8a" stroke-width="0.5"/><path d="" fill="#dabe00" stroke-width="0.5"/><path d="M919.76205,636.83024c0,-0.41421 0.33579,-0.75 0.75,-0.75c0.41421,0 0.75,0.33579 0.75,0.75c0,0.41421 -0.33579,0.75 -0.75,0.75c-0.41421,0 -0.75,-0.33579 -0.75,-0.75z" fill="#8a8a8a" stroke-width="0.5"/><path d="" fill="#dabe00" stroke-width="0.5"/><path d="" fill="#dabe00" stroke-width="0.5"/><path d="" fill="#dabe00" stroke-width="0.5"/><path d="M-274.99249,1001.68919v-370.87087h735.47447c0,12.51251 0,25.02502 0,37.53753c0,4.9197 -0.00633,34.96466 0.03092,35.52873c0.54266,8.2187 2.30895,16.31792 3.0418,24.52184c0.93437,10.45988 1.3041,20.96253 1.95755,31.44372c0.98225,15.75525 0.98345,31.58427 2.62135,47.28491c0.50823,4.87185 2.27878,9.5335 3.13973,14.35553c1.72008,9.63381 2.74729,19.38671 4.60046,28.99581c0.61138,3.17014 2.1446,6.11263 2.78086,9.27787c0.24897,1.23854 -0.14503,2.52351 -0.15465,3.78679c-0.04193,5.50535 0,11.01101 0,16.51652c0,15.51552 0,31.03103 0,46.54655c0,2.5025 0,8.00801 0,10.51051c0,0 0,16 16,16c16,0 16,-16 16,-16c0,-2.5025 0,-8.00801 0,-10.51051c0,-5.70488 0,-11.40976 0,-17.11464c1.5015,-3.60526 1.5015,-6.90939 1.5015,-6.90939l-0.42802,0.67304c0.48702,-0.97403 0.97403,-1.94807 1.46105,-2.9221c0,11.2602 0,22.52039 0,33.78059c0.06887,3.6502 0.13773,7.3004 0.2066,10.9506l-0.88703,2.00778c0,0 -5.05964,15.17893 10.11929,20.23858c15.17893,5.05964 20.23858,-10.11929 20.23858,-10.11929l2.11597,-7.00123c0.06887,-5.35881 0.13773,-10.71762 0.2066,-16.07643c0,-20.87698 0,-41.75396 0,-62.63093c1.10711,2.2366 2.8364,4.4795 5.53754,6.02936c0,19.05915 0,38.87519 0,56.60158c0,0 0,16 16,16c16,0 16,-16 16,-16c0,-4.58337 0,-9.30644 0,-14.12001c0.64268,0.05908 1.3149,0.08998 2.01802,0.08998c16,0 16,-16 16,-16c0,-1.5015 0,-6.00601 0,-7.50751c0,-66.56657 0,-133.13313 0,-199.6997c0,-18.50003 0.39206,-37.05909 0,-55.55556c-0.06974,-3.29008 -0.64965,-6.65032 -1.92952,-9.68205c-0.11389,-0.26979 -0.21803,-0.54646 -0.31457,-0.82845h99.97982c0,75.57557 0,151.15113 0,226.7267c0,16.01602 0,32.03203 0,48.04805c0,6.1209 -0.01299,22.58776 0.11988,24.47745c0.17119,2.43471 1.23313,4.72736 1.68004,7.12681c0.70078,3.76253 1.05236,7.59586 1.16438,11.42945c-0.35329,4.29066 0.22605,8.64559 0.24531,12.96192c-0.5005,1.5015 -1.30411,2.93414 -1.5015,4.5045c-0.3461,2.75343 0.2807,5.57725 -0.11106,8.32456c-0.65141,4.56818 -2.2883,8.95481 -3.003,13.51351c-0.11084,0.70696 -0.09554,7.31052 -0.09554,9.25338v1.5015c0,0 0,1.22773 0.34009,3.00302z" fill="#8a8a8a" stroke-width="0"/><path d="M753.88138,932.62012c0,21.03296 0,42.06591 0,63.09887c-0.77013,1.65018 -1.29548,3.61966 -1.45246,5.97022h-23.94469c0.34009,-1.77528 0.34009,-3.00302 0.34009,-3.00302v-1.5015c0,-7.62795 1.55269,-9.81029 2.90747,-19.27515c0.31604,-2.20796 -0.38598,-4.47701 -0.11106,-6.69046c0.19508,-1.57065 1.001,-3.003 1.5015,-4.5045c0.01319,-3.13442 -0.23497,-6.28794 -0.26742,-9.42569c0.47402,-2.11581 0.47402,-3.64774 0.47402,-3.64774v-1.5015c-0.00258,-0.55294 -0.00821,-1.10608 -0.01701,-1.65934c0.90501,-5.13469 3.3879,-9.93287 4.27799,-15.07923c1.09773,-6.34687 1.02508,-12.84227 1.66998,-19.25101c0.7761,-7.71266 1.93901,-15.38873 2.67384,-23.10363c0.30087,0.01201 0.60774,0.01813 0.92073,0.01813c5.16193,0 8.65851,-1.66534 11.02703,-3.92148c0,14.49235 0,28.98469 0,43.47704z" fill="#8a8a8a" stroke-width="0"/><path d="M1547.83034,630.81834v370.87087l-694.18445,-0.00001c-0.03874,-0.87192 -0.15355,-1.69515 -0.33104,-2.47161c7.64162,-4.26887 7.64162,-14.04492 7.64162,-14.04492l-0.17787,-5.38214c-2.25995,-7.52543 -4.16623,-15.16627 -6.77985,-22.57629c-1.48349,-4.20593 -3.26668,-8.29682 -5.05429,-12.38601c0,-0.13279 0,-0.26559 0,-0.39838c2.27892,1.60429 5.35998,2.68878 9.52553,2.68878c16,0 16,-16 16,-16c0,-10.51051 0,-22.52252 0,-33.03303c0,-63.06306 0,-126.12613 0,-189.18919c0,-25.8345 1.50378,-52.17835 -0.29645,-78.07805z" fill="#8a8a8a" stroke-width="0"/><path d="M785.88138,1001.6892c0,-7.8045 0,-15.60901 0,-23.41351c12.01201,-2.40902 12.01201,-15.62554 12.01201,-15.62554v-7.50751c0,-2.30416 0.00228,-27.28097 -0.00886,-27.55947c-0.49072,-12.26384 -1.6946,-25.56727 -2.94399,-38.3759c1.09028,5.03157 2.5246,10.62081 4.64059,17.91292c4.47185,15.41082 10.79773,28.97086 17.0886,43.65799c-0.22905,11.47453 -0.41813,22.94784 0.27472,34.3945c0.33467,5.52918 1.06182,11.0236 1.80585,16.51653z" fill="#8a8a8a" stroke-width="0"/><path d="M817.25201,821.73367c-0.16968,-2.90861 -0.1195,-5.82671 -0.03217,-8.74647c0.01418,2.91533 0.02475,5.83083 0.03217,8.74647z" fill="#8a8a8a" stroke-width="0"/><path d="M144.65015,635.32282v-42.04204h136.63664v42.04204z" fill="#8a8a8a" stroke-width="0"/><path d="M302.8033,583.26577v-42.04204h136.63664v42.04204z" fill="#8a8a8a" stroke-width="0"/></g></g></svg>