<svg version="1.1" xmlns="http://www.w3.org/2000/svg" xmlns:xlink="http://www.w3.org/1999/xlink" width="1208.64566" height="759.30225" viewBox="0,0,1208.64566,759.30225"><g transform="translate(108.58559,-162.7999)"><g data-paper-data="{&quot;isPaintingLayer&quot;:true}" fill-rule="nonzero" stroke-linejoin="miter" stroke-miterlimit="10" stroke-dasharray="" stroke-dashoffset="0" style="mix-blend-mode: normal"><path d="M-96.63662,922.10215v-318.31832h791.47296c0,32.25349 0,64.50697 0,96.76046c0,13.33333 -0.00777,26.66667 0,40c0.00256,4.39131 -0.31364,8.79525 0.01932,13.17393c0.05528,0.72694 4.1761,33.49523 4.55938,36.63057c2.34791,19.20653 4.62323,38.37848 7.35924,57.53484c0.02463,0.17238 0.04932,0.34477 0.07407,0.51715c0,24.605 0,49.19613 0,73.70138z" fill="#8a8a8a" stroke="none" stroke-width="0" stroke-linecap="butt"/><path d="" fill="#8a8a8a" stroke="none" stroke-width="0" stroke-linecap="butt"/><path d="M734.63136,869.70159c0.24976,2.34922 0.49794,4.6987 0.74552,7.04841c0,8.9858 0,17.9716 0,26.9574c-1.44087,-11.65993 -3.29674,-23.29731 -5.15177,-34.92912c1.1866,0.54857 2.63596,0.89513 4.40624,0.92331z" fill="#8a8a8a" stroke="none" stroke-width="0" stroke-linecap="butt"/><path d="" fill="#8a8a8a" stroke="none" stroke-width="0" stroke-linecap="butt"/><path d="M1100.06007,603.78383v318.31832h-257.3761c-0.68723,-41.14814 -0.22001,-82.32883 -0.22001,-123.47978c0,-64.94618 0,-129.89236 0,-194.83854z" fill="#8a8a8a" stroke="none" stroke-width="0" stroke-linecap="butt"/><path d="" fill="#8a8a8a" stroke="none" stroke-width="0" stroke-linecap="butt"/><path d="M794.41592,922.10216c0,-2.91134 0,-5.82267 0,-8.73401c1.07842,-0.6568 1.89866,-1.49317 2.52252,-2.38547c0,3.70649 0,7.41299 0,11.11948z" fill="#8a8a8a" stroke="none" stroke-width="0" stroke-linecap="butt"/><path d="" fill="#8a8a8a" stroke="none" stroke-width="0" stroke-linecap="butt"/><path d="M131.10987,631.70763l-11.8918,-28.6284l124.67206,-51.78685l11.8918,28.6284z" fill="#8a8a8a" stroke="none" stroke-width="0" stroke-linecap="butt"/><path d="M255.10987,579.70763l-11.8918,-28.62839l124.67206,-51.78686l11.8918,28.62839z" fill="#8a8a8a" stroke="none" stroke-width="0" stroke-linecap="butt"/><path d="M378.10987,527.70763l-11.8918,-28.62839l124.67206,-51.78686l11.8918,28.62839z" fill="#8a8a8a" stroke="none" stroke-width="0" stroke-linecap="butt"/><path d="M141.10987,660.70763l-11.8918,-28.62839l124.67206,-51.78686l11.8918,28.62839z" fill="#8a8a8a" stroke="none" stroke-width="0" stroke-linecap="butt"/><path d="M265.10987,608.70763l-11.8918,-28.62839l124.67206,-51.78686l11.8918,28.62839z" fill="#8a8a8a" stroke="none" stroke-width="0" stroke-linecap="butt"/><path d="M388.10987,556.70763l-11.8918,-28.62839l124.67206,-51.78686l11.8918,28.6284z" fill="#8a8a8a" stroke="none" stroke-width="0" stroke-linecap="butt"/><path d="M148.10987,687.70763l-11.8918,-28.62839l124.67206,-51.78686l11.8918,28.62839z" fill="#8a8a8a" stroke="none" stroke-width="0" stroke-linecap="butt"/><path d="M272.10987,635.70763l-11.8918,-28.62839l124.67206,-51.78686l11.8918,28.62839z" fill="#8a8a8a" stroke="none" stroke-width="0" stroke-linecap="butt"/><path d="M395.10987,583.70763l-11.8918,-28.62839l124.67206,-51.78686l11.8918,28.62839z" fill="#8a8a8a" stroke="none" stroke-width="0" stroke-linecap="butt"/><path d="M158.10987,716.70763l-11.8918,-28.62839l124.67206,-51.78686l11.8918,28.62839z" fill="#8a8a8a" stroke="none" stroke-width="0" stroke-linecap="butt"/><path d="M282.10987,664.70763l-11.8918,-28.62839l124.67206,-51.78686l11.8918,28.62839z" fill="#8a8a8a" stroke="none" stroke-width="0" stroke-linecap="butt"/><path d="M405.10987,612.70763l-11.8918,-28.62839l124.67206,-51.78686l11.8918,28.62839z" fill="#8a8a8a" stroke="none" stroke-width="0" stroke-linecap="butt"/><path d="M170.10987,742.70763l-11.8918,-28.62839l124.67206,-51.78686l11.8918,28.62839z" fill="#8a8a8a" stroke="none" stroke-width="0" stroke-linecap="butt"/><path d="M294.10987,690.70763l-11.8918,-28.62839l124.67206,-51.78686l11.8918,28.62839z" fill="#8a8a8a" stroke="none" stroke-width="0" stroke-linecap="butt"/><path d="M417.10987,638.70763l-11.8918,-28.62839l124.67206,-51.78686l11.8918,28.62839z" fill="#8a8a8a" stroke="none" stroke-width="0" stroke-linecap="butt"/><path d="M180.10987,771.70763l-11.8918,-28.62839l124.67206,-51.78686l11.8918,28.62839z" fill="#8a8a8a" stroke="none" stroke-width="0" stroke-linecap="butt"/><path d="M304.10987,719.70763l-11.8918,-28.62839l124.67206,-51.78686l11.8918,28.62839z" fill="#8a8a8a" stroke="none" stroke-width="0" stroke-linecap="butt"/><path d="M427.10987,667.70763l-11.8918,-28.62839l124.67206,-51.78686l11.8918,28.62839z" fill="#8a8a8a" stroke="none" stroke-width="0" stroke-linecap="butt"/><path d="M593,463.5v-32h104v32z" fill="#8a8a8a" stroke="none" stroke-width="0" stroke-linecap="butt"/><path d="M830.73273,400.93243v-32h104v32z" fill="#8a8a8a" stroke="none" stroke-width="0" stroke-linecap="butt"/><path d="M585.98798,319.85135v-32h104v32z" fill="#8a8a8a" stroke="none" stroke-width="0" stroke-linecap="butt"/><path d="M416.81381,246.77327v-32h104v32z" fill="#8a8a8a" stroke="none" stroke-width="0" stroke-linecap="butt"/><path d="M-108.58559,246.22072v-32h566.22823v32z" fill="#8a8a8a" stroke="none" stroke-width="0" stroke-linecap="butt"/><path d="M482.33551,452.45895l10.91926,-4.97693l73.40972,161.05904l-10.91926,4.97693z" fill="#8a8a8a" stroke="none" stroke-width="0" stroke-linecap="butt"/><path d="M476.5,516.5c0,2.5 -2.5,2.5 -2.5,2.5l-3.66822,-0.02211c-3.04568,0.84622 -6.14137,1.52522 -9.14414,2.51298c-2.48595,0.81775 -7.2534,3.06322 -9.78719,3.47686c-7.82269,1.27703 -17.7359,-0.71197 -25.20437,-3.1005c-2.86543,-0.91641 -5.44297,-2.56858 -8.10686,-3.96649c-1.82233,-0.95629 -4.2443,-1.28383 -5.40563,-2.98285c-1.68057,-2.45867 -1.78813,-8.58373 0.47162,-11.10513c1.15392,-1.28752 7.72785,-3.24162 9.05867,-3.68594c2.60367,-0.85317 5.37462,-1.12764 7.97476,-1.99149c3.56949,-1.18589 6.98007,-3.92141 10.33198,-5.50952c3.01897,-1.43036 6.36608,-2.06237 9.42957,-3.39471c3.84928,-1.67408 6.32348,-5.7634 10.31783,-7.12154c1.1288,-0.38381 2.3925,0.03695 3.57491,-0.11602c2.69542,-0.34871 5.39292,-0.68119 8.08978,-1.01866c7.67616,-0.96054 15.06539,-3.10116 22.79119,-3.95958c0,0 2.48471,-0.27608 2.76079,2.20863c0.27608,2.48471 -2.20863,2.76079 -2.20863,2.76079c-7.73687,0.85965 -15.12778,2.98867 -22.82042,3.96274c-2.70122,0.34204 -5.40105,0.69555 -8.10442,1.02018c-0.86724,0.10414 -1.78688,-0.34188 -2.61928,-0.07718c-3.55041,1.12901 -6.151,5.30216 -9.68217,6.87846c-3.03544,1.35501 -6.38296,1.94497 -9.38447,3.37357c-3.60238,1.71459 -7.03549,4.43507 -10.85398,5.72221c-2.61313,0.88083 -5.40716,1.14252 -8.02524,2.00851c-2.31419,0.77009 -5.09893,0.71589 -6.94133,2.31406c-1.20756,1.04749 -1.12166,3.55324 -0.11416,4.79436c0.80749,0.99474 2.39911,0.90518 3.56655,1.43303c4.50893,2.03869 7.268,3.60499 12.1218,4.61978c5.92121,1.23795 12.04534,2.98639 18.18058,1.99786c1.44763,-0.23325 7.8529,-2.90586 9.02685,-3.29142c0.57218,-0.18792 9.54016,-2.58421 10.04182,-2.71875l4.33178,-0.02211c0,0 2.5,0 2.5,2.5z" fill="#8a8a8a" stroke="none" stroke-width="0.5" stroke-linecap="butt"/><path d="M554,623.5c-6,0 -6,-6 -6,-6l0.07748,-2.03891c-0.66545,-1.99635 -0.73494,-4.14481 -1.03252,-6.22799c-0.19436,-1.36056 -0.95534,-2.62636 -1,-4c-0.01115,-0.3429 1.13233,-0.38215 0.85114,-0.57871c-0.99458,-0.69525 -2.6448,-0.29696 -3.42882,-1.22318c-1.29492,-1.52979 -1.80471,-3.61233 -2.30677,-5.55269c-0.51127,-1.97593 -0.08381,-4.13786 -0.70378,-6.08242c-0.31292,-0.98146 -1.28872,-1.6098 -1.98945,-2.36489c-1.80867,-1.94898 -3.37693,-4.10848 -5.10733,-6.12728c-2.78187,-3.24552 -5.03472,-4.15924 -6.64392,-7.87515c-2.3564,0.03673 -4.57879,-0.49867 -6.95867,-2.68615c-1.87593,-1.72427 -1.37336,-5.01983 -2.86126,-7.08825c-0.82583,-1.14804 -2.28307,-1.78098 -3,-3c-1.79895,-3.05882 -2.0494,-6.46458 -2.01163,-9.88884c-0.60231,-0.58595 -1.16185,-1.1936 -1.42774,-1.96945c-0.90168,-2.63099 0.12161,-5.59927 -0.37925,-8.33501c-0.48225,-2.63411 -1.03566,-5.28353 -1.07748,-7.96109c0,0 0,-6 6,-6c1.53758,0 2.68113,0.39402 3.53164,0.98013c4.64678,-1.8725 9.10921,1.30377 11.57227,4.86549c2.72785,3.94463 2.7207,12.60551 1.8961,17.15439c-0.55103,3.03968 0.26985,7.14232 -1.7692,9.2651c0.55926,-0.17233 1.15339,-0.2651 1.7692,-0.2651c3.31371,0 6,2.68629 6,6v3c0.15944,0.39838 -0.37752,0.84934 -0.25745,1.2613c0.64847,2.22493 3.38929,3.17519 4.8975,4.93477c0.78215,0.91251 1.23071,2.07662 2,3c2.82132,3.38646 5.00116,3.65024 6.90322,8.50783c0.97509,2.49023 0.98207,5.26177 1.29622,7.91758c0.02124,0.17955 -0.45099,0.33827 -0.30677,0.44731c1.42212,1.0752 3.58766,1.28982 4.57118,2.77682c1.00912,1.5257 0.49847,3.62637 0.85114,5.42129c0.66016,3.35986 0.8937,6.55066 1.96748,9.77201l0.07748,3.96109c0,0 0,6 -6,6z" fill="#8a8a8a" stroke="none" stroke-width="0.5" stroke-linecap="butt"/><path d="M313,678.5v-152.33333h191.74264v152.33333z" fill="#8a8a8a" stroke="none" stroke-width="0" stroke-linecap="butt"/><path d="M358.33333,586.83333v-79.66667h156.33333v79.66667z" fill="#8a8a8a" stroke="none" stroke-width="0" stroke-linecap="butt"/><path d="M523.33333,566.83333v-14.33333h8.33333v14.33333z" fill="#8a8a8a" stroke="none" stroke-width="0" stroke-linecap="butt"/><path d="M461.75472,213.54948v-49.74958h41.83488v49.74959z" fill="#66fff5" stroke="#000000" stroke-width="2" stroke-linecap="butt"/><path d="M501.43295,188.19466c0,12.31815 -8.11826,22.30399 -18.13264,22.30399c-10.01438,0 -18.13263,-9.98584 -18.13263,-22.30399c0,-12.31815 8.11825,-22.30399 18.13263,-22.30399c10.01438,0 18.13264,9.98584 18.13264,22.30399z" fill="#66fff5" stroke="none" stroke-width="0" stroke-linecap="butt"/><path d="M488.50457,192.65546l-0.11438,-17.2713" fill="none" stroke="#000000" stroke-width="1.5" stroke-linecap="round"/><path d="M477.18099,175.04103v17.61443" fill="none" stroke="#000000" stroke-width="1.5" stroke-linecap="round"/><path d="M476.15157,198.03129c0,0.34314 -0.34314,0.34314 -0.34314,0.34314h-0.11438c-0.97812,0 -0.92069,0.35599 -1.83594,0.66867c0,0 -0.32553,0.10851 -0.43404,-0.21702c-0.10851,-0.32553 0.21702,-0.43404 0.21702,-0.43404c0.48409,-0.15621 0.45737,-0.4431 0.86163,-0.66328c0.24524,-0.13357 0.9023,-0.0406 1.19133,-0.0406h0.11438c0,0 0.34314,0 0.34314,0.34314z" fill="#66fff5" stroke="none" stroke-width="0.5" stroke-linecap="butt"/><path d="M476.84066,198.56337c-0.00122,-0.66417 0.02084,-1.32413 -0.2833,-1.93572c-0.1073,-0.21578 -0.9066,-0.08329 -1.09207,-0.08329c-1.06782,0 -1.98155,0.63959 -1.94445,1.83007c0,0 0,0.34314 -0.34314,0.34314c-0.34314,0 -0.34314,-0.34314 -0.34314,-0.34314c0.03367,-1.53548 1.16403,-2.51635 2.63073,-2.51635c0.56188,0 1.25485,-0.15456 1.65304,0.37423c0.52399,0.69586 0.41051,1.83217 0.40136,2.6546l-0.03697,0.04561l0.02379,0.00793l-0.11188,0.33563c-0.04312,0.14022 -0.17367,0.24214 -0.32803,0.24214c-0.18951,0 -0.34314,-0.15363 -0.34314,-0.34314v-0.34314h0.09582l0.03617,-0.10851l0.32553,0.10851h0.22876v0.07625l0.07298,0.02433l-0.47108,0.58127l-0.28817,-0.68185c0,0 0,-0.16765 0.11719,-0.26858z" fill="#000000" stroke="none" stroke-width="0.5" stroke-linecap="butt"/><path d="M489.77662,197.13013c-0.24264,0.24264 -0.48527,0 -0.48527,0l-0.34314,-0.34314c-0.63628,-0.66569 -1.32825,-0.57728 -1.86744,0.16652c-0.3585,0.49454 0.0121,1.60972 0.24378,2.06811c0,0 0.15346,0.30691 -0.15346,0.46037c-0.30691,0.15346 -0.46037,-0.15346 -0.46037,-0.15346c-0.34831,-0.70316 -0.68705,-1.98862 -0.21374,-2.73582c0.74688,-1.1791 2.00181,-1.19575 2.9365,-0.291l0.34314,0.34314c0,0 0.24264,0.24264 0,0.48527z" fill="#000000" stroke="none" stroke-width="0.5" stroke-linecap="butt"/><path d="M483.35749,210.95617c-0.34314,0 -0.34314,-0.34314 -0.34314,-0.34314l0.03623,-0.38221c0.24497,-0.48843 0.46273,-0.82829 0.84834,-1.21516c1.48018,-1.94623 5.41819,-3.16009 7.36463,-1.27599c0,0 0.24264,0.24264 0,0.48527c-0.24264,0.24264 -0.48527,0 -0.48527,0c-1.58942,-1.66287 -5.19385,-0.34043 -6.36091,1.24036c-0.3567,0.3555 -0.52828,0.62152 -0.75297,1.07243l0.03623,0.0753c0,0 0,0.34314 -0.34314,0.34314z" fill="#000000" stroke="none" stroke-width="0.5" stroke-linecap="butt"/><path d="M481.08377,210.39815c-0.24264,0.24264 -0.48527,0 -0.48527,0l-0.19727,-0.24851c-0.07764,-0.23292 -0.1552,-0.46587 -0.23268,-0.69885c-0.17035,-0.67989 -0.37101,-1.25094 -0.83392,-1.80359c-0.86755,-1.03575 -4.22942,-0.58688 -5.16592,0.04871c0,0 -0.28551,0.19034 -0.47585,-0.09517c-0.19034,-0.28551 0.09517,-0.47585 0.09517,-0.47585c1.23754,-0.81323 4.90881,-1.25142 6.04327,0.04871c0.54052,0.61945 0.80255,1.30909 0.99615,2.08531c0.07503,0.22454 0.14997,0.44911 0.22483,0.6737l0.03149,-0.01975c0,0 0.24264,0.24264 0,0.48527z" fill="#000000" stroke="none" stroke-width="0.5" stroke-linecap="butt"/></g></g></svg>