<svg version="1.1" xmlns="http://www.w3.org/2000/svg" xmlns:xlink="http://www.w3.org/1999/xlink" width="1473.15462" height="697.72571" viewBox="0,0,1473.15462,697.72571"><g transform="translate(143.18315,-239.37647)"><g data-paper-data="{&quot;isPaintingLayer&quot;:true}" fill-rule="nonzero" stroke-linejoin="miter" stroke-miterlimit="10" stroke-dasharray="" stroke-dashoffset="0" style="mix-blend-mode: normal"><path d="M-143.18315,877.05712v-318.31832h1425.56412c0.06681,0.23297 0.14911,0.46505 0.24673,0.69618c-3.47737,9.43906 0.50937,18.93201 -0.46031,22.44364c-0.9068,3.28396 -11.62542,6.91904 -13.40367,10.39124c-8.03544,15.68993 -13.70339,31.66833 -21.64457,47.35335c-1.86812,3.68984 -6.92931,8.22846 -7.00965,12.21614c-0.27217,13.50481 -6.69887,27.10699 0.8652,40.51437c5.11016,9.05783 10.96558,18.09656 16.12938,27.15279c-10.15874,26.44504 -17.25877,53.30667 -1.94786,78.2182c12.78982,20.80963 29.11644,41.55039 50.70827,62.02368c5.19302,4.92399 15.55857,11.81374 24.10698,17.30874z" fill="#8a8a8a" stroke="none" stroke-width="0" stroke-linecap="butt"/><path d="M163.61865,850.52559v-318.31832h305.36257c0.01431,0.23297 0.03194,0.46505 0.05285,0.69618c-0.74487,9.43906 0.10911,18.93201 -0.0986,22.44364c-0.19424,3.28396 -2.49022,6.91904 -2.87113,10.39124c-1.72123,15.68993 -2.93533,31.66833 -4.63637,47.35335c-0.40016,3.68984 -1.48429,8.22846 -1.5015,12.21614c-0.0583,13.50481 -1.43493,27.10699 0.18533,40.51437c1.09462,9.05783 2.34888,18.09656 3.45499,27.15279c-2.17605,26.44504 -3.69691,53.30667 -0.41724,78.2182c2.73964,20.80963 6.23688,41.55039 10.86195,62.02368c1.11237,4.92399 3.33272,11.81374 5.16383,17.30874z" fill="#8a8a8a" stroke="none" stroke-width="0" stroke-linecap="butt"/><path d="M429.87991,833.00307v-318.31832h559.63674c0.02623,0.23297 0.05854,0.46505 0.09686,0.69618c-1.36512,9.43906 0.19997,18.93201 -0.1807,22.44364c-0.35598,3.28396 -4.56382,6.91904 -5.26191,10.39124c-3.15449,15.68993 -5.37957,31.66833 -8.49706,47.35335c-0.73337,3.68984 -2.72025,8.22846 -2.75179,12.21614c-0.10685,13.50481 -2.62979,27.10699 0.33965,40.51437c2.00611,9.05783 4.30478,18.09656 6.33195,27.15279c-3.98804,26.44504 -6.77531,53.30667 -0.76467,78.2182c5.02093,20.80963 11.4303,41.55039 19.90665,62.02368c2.03864,4.92399 6.10786,11.81374 9.46373,17.30874z" fill="#8a8a8a" stroke="none" stroke-width="0" stroke-linecap="butt"/><path d="M-81.6366,937.10217v-318.31832h305.36257c0.01431,0.23297 0.03194,0.46505 0.05285,0.69618c-0.74487,9.43906 0.10911,18.93201 -0.0986,22.44364c-0.19424,3.28396 -2.49022,6.91904 -2.87113,10.39124c-1.72123,15.68993 -2.93533,31.66833 -4.63637,47.35335c-0.40016,3.68984 -1.48429,8.22846 -1.5015,12.21614c-0.0583,13.50481 -1.43493,27.10699 0.18533,40.51437c1.09462,9.05783 2.34888,18.09656 3.45499,27.15279c-2.17605,26.44504 -3.69691,53.30667 -0.41724,78.2182c2.73964,20.80963 6.23688,41.55039 10.86195,62.02368c1.11237,4.92399 3.33272,11.81374 5.16383,17.30874z" fill="#8a8a8a" stroke="none" stroke-width="0" stroke-linecap="butt"/><path d="M737.17721,821.98204v-318.31832h478.269c0.02241,0.23297 0.05003,0.46505 0.08278,0.69618c-1.16664,9.43906 0.17089,18.93201 -0.15443,22.44364c-0.30423,3.28396 -3.90027,6.91904 -4.49686,10.39124c-2.69585,15.68993 -4.59741,31.66833 -7.26164,47.35335c-0.62674,3.68984 -2.32474,8.22846 -2.3517,12.21614c-0.09131,13.50481 -2.24744,27.10699 0.29027,40.51437c1.71443,9.05783 3.67889,18.09656 5.41132,27.15279c-3.4082,26.44504 -5.79022,53.30667 -0.6535,78.2182c4.29092,20.80963 9.76841,41.55039 17.01235,62.02368c1.74223,4.92399 5.21982,11.81374 8.08776,17.30874z" fill="#8a8a8a" stroke="none" stroke-width="0" stroke-linecap="butt"/><path d="M571.4429,345.27247l7.12443,-9.67113c0,0 73.89052,66.72329 91.68819,80.99569c7.19993,5.77381 41.16892,2.16434 41.16892,2.16434l-1.09681,6.77544c0,0 -35.43001,4.28098 -42.55437,-0.96732c-18.12231,-13.35016 -96.33036,-79.29702 -96.33036,-79.29702z" fill="#8a8a8a" stroke="none" stroke-width="0" stroke-linecap="butt"/><path d="M440.90844,347.34234v-12.01201h138.13814v12.01201z" fill="#8a8a8a" stroke="none" stroke-width="0" stroke-linecap="butt"/><path d="M304.7673,283.27327v-12.01201h138.13814v12.01201z" fill="#8a8a8a" stroke="none" stroke-width="0" stroke-linecap="butt"/><path d="M-1.04351,277.76276v-12.01201h138.13814v12.01201z" fill="#8a8a8a" stroke="none" stroke-width="0" stroke-linecap="butt"/><path d="M230.45442,290.12606v-49.74959h41.83488v49.74959z" fill="#66fff5" stroke="#000000" stroke-width="2" stroke-linecap="butt"/><path d="M270.13264,264.77124c0,12.31815 -8.11826,22.30399 -18.13264,22.30399c-10.01438,0 -18.13263,-9.98584 -18.13263,-22.30399c0,-12.31815 8.11825,-22.30399 18.13263,-22.30399c10.01438,0 18.13264,9.98584 18.13264,22.30399z" fill="#66fff5" stroke="none" stroke-width="0" stroke-linecap="butt"/><path d="M257.08988,251.96074l0.11438,17.2713" fill="none" stroke="#000000" stroke-width="1.5" stroke-linecap="round"/><path d="M245.88068,269.23204v-17.61443" fill="none" stroke="#000000" stroke-width="1.5" stroke-linecap="round"/><path d="M244.85128,274.60787c0,0.34314 -0.34314,0.34314 -0.34314,0.34314h-0.11438c-0.97812,0 -0.92069,0.35599 -1.83594,0.66867c0,0 -0.32553,0.10851 -0.43404,-0.21702c-0.10851,-0.32553 0.21702,-0.43404 0.21702,-0.43404c0.48409,-0.15621 0.45737,-0.4431 0.86163,-0.66328c0.24524,-0.13357 0.9023,-0.0406 1.19133,-0.0406h0.11438c0,0 0.34314,0 0.34314,0.34314z" fill="#66fff5" stroke="none" stroke-width="0.5" stroke-linecap="butt"/><path d="M245.54035,275.13995c-0.00122,-0.66417 0.02084,-1.32413 -0.2833,-1.93572c-0.1073,-0.21578 -0.9066,-0.08329 -1.09207,-0.08329c-1.06782,0 -1.98155,0.63959 -1.94445,1.83007c0,0 0,0.34314 -0.34314,0.34314c-0.34314,0 -0.34314,-0.34314 -0.34314,-0.34314c0.03367,-1.53548 1.16403,-2.51635 2.63073,-2.51635c0.56188,0 1.25485,-0.15456 1.65304,0.37423c0.52399,0.69586 0.41051,1.83217 0.40136,2.6546l-0.03697,0.04561l0.02379,0.00793l-0.11188,0.33563c-0.04312,0.14022 -0.17367,0.24214 -0.32803,0.24214c-0.18951,0 -0.34314,-0.15363 -0.34314,-0.34314v-0.34314h0.09582l0.03617,-0.10851l0.32553,0.10851h0.22876v0.07625l0.07298,0.02433l-0.47108,0.58127l-0.28817,-0.68185c0,0 0,-0.16765 0.11719,-0.26858z" fill="#000000" stroke="none" stroke-width="0.5" stroke-linecap="butt"/><path d="M258.47632,273.70671c-0.24264,0.24264 -0.48527,0 -0.48527,0l-0.34314,-0.34314c-0.63628,-0.66569 -1.32825,-0.57728 -1.86744,0.16652c-0.3585,0.49454 0.0121,1.60972 0.24378,2.06811c0,0 0.15346,0.30691 -0.15346,0.46037c-0.30691,0.15346 -0.46037,-0.15346 -0.46037,-0.15346c-0.34831,-0.70316 -0.68705,-1.98862 -0.21374,-2.73582c0.74688,-1.1791 2.00181,-1.19575 2.9365,-0.291l0.34314,0.34314c0,0 0.24264,0.24264 0,0.48527z" fill="#000000" stroke="none" stroke-width="0.5" stroke-linecap="butt"/><path d="M252.0572,287.53275c-0.34314,0 -0.34314,-0.34314 -0.34314,-0.34314l0.03623,-0.38221c0.24497,-0.48843 0.46273,-0.82829 0.84834,-1.21516c1.48018,-1.94623 5.41819,-3.16009 7.36463,-1.27599c0,0 0.24264,0.24264 0,0.48527c-0.24264,0.24264 -0.48527,0 -0.48527,0c-1.58942,-1.66287 -5.19385,-0.34043 -6.36091,1.24036c-0.3567,0.3555 -0.52828,0.62152 -0.75297,1.07243l0.03623,0.0753c0,0 0,0.34314 -0.34314,0.34314z" fill="#000000" stroke="none" stroke-width="0.5" stroke-linecap="butt"/><path d="M249.78347,286.97473c-0.24264,0.24264 -0.48527,0 -0.48527,0l-0.19727,-0.24851c-0.07764,-0.23292 -0.1552,-0.46587 -0.23268,-0.69885c-0.17035,-0.67989 -0.37101,-1.25094 -0.83392,-1.80359c-0.86755,-1.03575 -4.22942,-0.58688 -5.16592,0.04871c0,0 -0.28551,0.19034 -0.47585,-0.09517c-0.19034,-0.28551 0.09517,-0.47585 0.09517,-0.47585c1.23754,-0.81323 4.90881,-1.25142 6.04327,0.04871c0.54052,0.61945 0.80255,1.30909 0.99615,2.08531c0.07503,0.22454 0.14997,0.44911 0.22483,0.6737l0.03149,-0.01975c0,0 0.24264,0.24264 0,0.48527z" fill="#000000" stroke="none" stroke-width="0.5" stroke-linecap="butt"/><path d="M161.45442,290.12606v-49.74958h41.83488v49.74959z" fill="#66fff5" stroke="#000000" stroke-width="2" stroke-linecap="butt"/><path d="M201.13265,264.77124c0,12.31815 -8.11826,22.30399 -18.13264,22.30399c-10.01438,0 -18.13263,-9.98584 -18.13263,-22.30399c0,-12.31815 8.11825,-22.30399 18.13263,-22.30399c10.01438,0 18.13264,9.98584 18.13264,22.30399z" fill="#66fff5" stroke="none" stroke-width="0" stroke-linecap="butt"/><path d="M188.08989,251.96074l0.11438,17.2713" fill="none" stroke="#000000" stroke-width="1.5" stroke-linecap="round"/><path d="M176.88069,269.23204v-17.61443" fill="none" stroke="#000000" stroke-width="1.5" stroke-linecap="round"/><path d="M175.85127,274.60787c0,0.34314 -0.34314,0.34314 -0.34314,0.34314h-0.11438c-0.97812,0 -0.92069,0.35599 -1.83594,0.66867c0,0 -0.32553,0.10851 -0.43404,-0.21702c-0.10851,-0.32553 0.21702,-0.43404 0.21702,-0.43404c0.48409,-0.15621 0.45737,-0.4431 0.86163,-0.66328c0.24524,-0.13357 0.9023,-0.0406 1.19133,-0.0406h0.11438c0,0 0.34314,0 0.34314,0.34314z" fill="#66fff5" stroke="none" stroke-width="0.5" stroke-linecap="butt"/><path d="M176.54036,275.13995c-0.00122,-0.66417 0.02084,-1.32413 -0.2833,-1.93572c-0.1073,-0.21578 -0.9066,-0.08329 -1.09207,-0.08329c-1.06782,0 -1.98155,0.63959 -1.94445,1.83007c0,0 0,0.34314 -0.34314,0.34314c-0.34314,0 -0.34314,-0.34314 -0.34314,-0.34314c0.03367,-1.53548 1.16403,-2.51635 2.63073,-2.51635c0.56188,0 1.25485,-0.15456 1.65304,0.37423c0.52399,0.69586 0.41051,1.83217 0.40136,2.6546l-0.03697,0.04561l0.02379,0.00793l-0.11188,0.33563c-0.04312,0.14022 -0.17367,0.24214 -0.32803,0.24214c-0.18951,0 -0.34314,-0.15363 -0.34314,-0.34314v-0.34314h0.09582l0.03617,-0.10851l0.32553,0.10851h0.22876v0.07625l0.07298,0.02433l-0.47108,0.58127l-0.28817,-0.68185c0,0 0,-0.16765 0.11719,-0.26858z" fill="#000000" stroke="none" stroke-width="0.5" stroke-linecap="butt"/><path d="M189.47632,273.70671c-0.24264,0.24264 -0.48527,0 -0.48527,0l-0.34314,-0.34314c-0.63628,-0.66569 -1.32825,-0.57728 -1.86744,0.16652c-0.3585,0.49454 0.0121,1.60972 0.24378,2.06811c0,0 0.15346,0.30691 -0.15346,0.46037c-0.30691,0.15346 -0.46037,-0.15346 -0.46037,-0.15346c-0.34831,-0.70316 -0.68705,-1.98862 -0.21374,-2.73582c0.74688,-1.1791 2.00181,-1.19575 2.9365,-0.291l0.34314,0.34314c0,0 0.24264,0.24264 0,0.48527z" fill="#000000" stroke="none" stroke-width="0.5" stroke-linecap="butt"/><path d="M183.05719,287.53275c-0.34314,0 -0.34314,-0.34314 -0.34314,-0.34314l0.03623,-0.38221c0.24497,-0.48843 0.46273,-0.82829 0.84834,-1.21516c1.48018,-1.94623 5.41819,-3.16009 7.36463,-1.27599c0,0 0.24264,0.24264 0,0.48527c-0.24264,0.24264 -0.48527,0 -0.48527,0c-1.58942,-1.66287 -5.19385,-0.34043 -6.36091,1.24036c-0.3567,0.3555 -0.52828,0.62152 -0.75297,1.07243l0.03623,0.0753c0,0 0,0.34314 -0.34314,0.34314z" fill="#000000" stroke="none" stroke-width="0.5" stroke-linecap="butt"/><path d="M180.78347,286.97473c-0.24264,0.24264 -0.48527,0 -0.48527,0l-0.19727,-0.24851c-0.07764,-0.23292 -0.1552,-0.46587 -0.23268,-0.69885c-0.17035,-0.67989 -0.37101,-1.25094 -0.83392,-1.80359c-0.86755,-1.03575 -4.22942,-0.58688 -5.16592,0.04871c0,0 -0.28551,0.19034 -0.47585,-0.09517c-0.19034,-0.28551 0.09517,-0.47585 0.09517,-0.47585c1.23754,-0.81323 4.90881,-1.25142 6.04327,0.04871c0.54052,0.61945 0.80255,1.30909 0.99615,2.08531c0.07503,0.22454 0.14997,0.44911 0.22483,0.6737l0.03149,-0.01975c0,0 0.24264,0.24264 0,0.48527z" fill="#000000" stroke="none" stroke-width="0.5" stroke-linecap="butt"/></g></g></svg>