<svg version="1.1" xmlns="http://www.w3.org/2000/svg" xmlns:xlink="http://www.w3.org/1999/xlink" width="44.87824" height="76.96974" viewBox="0,0,44.87824,76.96974"><defs><linearGradient x1="559.03449" y1="326.875" x2="534.28449" y2="326.875" gradientUnits="userSpaceOnUse" id="color-1"><stop offset="0" stop-color="#cc00ff" stop-opacity="0"/><stop offset="1" stop-color="#cc00ff"/></linearGradient><linearGradient x1="544.89815" y1="394.55139" x2="544.89815" y2="413.4126" gradientUnits="userSpaceOnUse" id="color-2"><stop offset="0" stop-color="#7d7d7d"/><stop offset="1" stop-color="#adadad"/></linearGradient><linearGradient x1="3253.31544" y1="2274.14581" x2="3252.21951" y2="2289.00493" gradientUnits="userSpaceOnUse" id="color-3"><stop offset="0" stop-color="#7d7d7d"/><stop offset="1" stop-color="#adadad"/></linearGradient><linearGradient x1="521.01516" y1="310.77496" x2="517.41149" y2="310.77496" gradientUnits="userSpaceOnUse" id="color-4"><stop offset="0" stop-color="#006cff"/><stop offset="1" stop-color="#00a0ff"/></linearGradient><linearGradient x1="524.24467" y1="310.60777" x2="522.1164" y2="310.60777" gradientUnits="userSpaceOnUse" id="color-5"><stop offset="0" stop-color="#006cff"/><stop offset="1" stop-color="#00a0ff"/></linearGradient><linearGradient x1="540.10766" y1="310.43525" x2="525.8106" y2="310.43525" gradientUnits="userSpaceOnUse" id="color-6"><stop offset="0" stop-color="#006cff"/><stop offset="1" stop-color="#00a0ff"/></linearGradient><linearGradient x1="532.26388" y1="341.98217" x2="543.54023" y2="358.52718" gradientUnits="userSpaceOnUse" id="color-7"><stop offset="0" stop-color="#393939"/><stop offset="1" stop-color="#717171"/></linearGradient><linearGradient x1="537.16301" y1="338.10227" x2="549.80749" y2="356.65465" gradientUnits="userSpaceOnUse" id="color-8"><stop offset="0" stop-color="#393939"/><stop offset="1" stop-color="#717171"/></linearGradient><linearGradient x1="525.10421" y1="327.23829" x2="527.2144" y2="341.8632" gradientUnits="userSpaceOnUse" id="color-9"><stop offset="0" stop-color="#9e9e9e"/><stop offset="1" stop-color="#717171"/></linearGradient><linearGradient x1="538.98268" y1="324.50489" x2="540.7324" y2="336.63152" gradientUnits="userSpaceOnUse" id="color-10"><stop offset="0" stop-color="#9e9e9e"/><stop offset="1" stop-color="#717171"/></linearGradient><linearGradient x1="530.99754" y1="321.30159" x2="533.42605" y2="338.13264" gradientUnits="userSpaceOnUse" id="color-11"><stop offset="0" stop-color="#9e9e9e"/><stop offset="1" stop-color="#717171"/></linearGradient><linearGradient x1="530.65432" y1="287.462" x2="533.30611" y2="305.84048" gradientUnits="userSpaceOnUse" id="color-12"><stop offset="0" stop-color="#9e9e9e"/><stop offset="1" stop-color="#717171"/></linearGradient><linearGradient x1="530.01802" y1="314.20572" x2="530.69527" y2="318.89944" gradientUnits="userSpaceOnUse" id="color-13"><stop offset="0" stop-color="#9e9e9e"/><stop offset="1" stop-color="#717171"/></linearGradient></defs><g transform="translate(-514.15625,-284.62425)"><g data-paper-data="{&quot;isPaintingLayer&quot;:true}" fill-rule="nonzero" stroke-linejoin="miter" stroke-miterlimit="10" stroke-dasharray="" stroke-dashoffset="0" style="mix-blend-mode: normal"><path d="M540.81196,329.875c-3.60502,0 -6.52747,-1.34315 -6.52747,-3c0,-1.65685 2.92245,-3 6.52747,-3c3.60503,0 18.22253,1.09315 18.22253,2.75c0,1.65685 -14.61751,3.25 -18.22253,3.25z" data-paper-data="{&quot;index&quot;:null}" fill="url(#color-1)" stroke="none" stroke-width="0.5" stroke-linecap="butt"/><path d="" data-paper-data="{&quot;index&quot;:null}" fill="#000000" stroke="none" stroke-width="0.5" stroke-linecap="butt"/><path d="" data-paper-data="{&quot;noHover&quot;:false,&quot;origItem&quot;:[&quot;Path&quot;,{&quot;applyMatrix&quot;:true,&quot;segments&quot;:[[[214.21936,363.46624],[-0.30208,-0.37388],[3.00673,0.15442]],[[223.17564,365.12684],[-2.72214,-1.01229],[0.78421,0.29162]],[[225.23038,366.56847],[-0.80035,-0.24385],[0.7421,0.2261]],[[227.55523,366.4612],[-0.77495,0.03576],[3.50491,0]],[[238.06996,366.4612],[-3.50491,0],[-1.08058,-2.14878]],[[237.21302,359.55162],[0.01277,2.28708],[0,0]],[[239.71302,357.05162],[-2.5,0],[2.5,0]],[[242.21302,359.55162],[0,0],[-0.01909,2.79627]],[[244.14909,365.09479],[-2.53148,-1.37374],[0,0]],[[244.57107,366.4612],[0,0],[7.03354,0]],[[265.67169,366.4612],[-7.03354,0],[3.04925,0]],[[274.81964,366.4612],[-3.04923,-0.00986],[0.84642,0.00274]],[[277.35997,366.4598],[-0.84249,-0.07098],[-2.84376,-3.86932]],[[269.2555,354.64224],[2.9011,3.87495],[-1.52693,-2.0395]],[[264.37183,348.76265],[1.03081,2.32992],[-0.4631,-1.04675]],[[264.2484,345.33101],[0.26442,1.11366],[-0.24124,-1.01601]],[[261.55208,340.80707],[0.56849,0.84929],[0,0]],[[261.11463,339.02281],[-0.11332,0.95811],[-0.5179,0.09202]],[[259.60671,339.31511],[0.48224,-0.10965],[-4.9579,1.12734]],[[244.77858,341.16631],[4.93186,-0.53102],[-0.36495,0.13559]],[[243.66918,341.57508],[0.37522,-0.13655],[-2.05219,0.74685]],[[237.17595,342.44759],[2.13113,-0.47702],[-1.33538,0.29891]],[[233.36431,343.97224],[1.3434,-0.26048],[-3.96057,0.76793]],[[221.09473,343.98507],[3.96691,-0.63065],[-1.45541,0.23138]],[[216.91087,345.41372],[1.39462,-0.47622],[0,0]],[[216.89509,345.41869],[0.01038,-0.00317],[-0.03209,0.04913]],[[216.84315,345.4943],[0,0],[-0.66286,0.84427]],[[214.85458,348.02711],[0.40217,-0.9952],[-0.90439,2.23798]],[[214.22695,355.24129],[0.57394,-2.34458],[-0.27021,1.10382]],[[212.7023,358.2906],[0.23015,-1.11286],[-0.27004,1.30575]],[[212.76917,362.29019],[-0.0223,-1.33319],[0,0]],[[212.76917,362.68043],[0,0],[0.69117,0.09707]]],&quot;closed&quot;:true}],&quot;index&quot;:null}" fill="url(#color-2)" stroke="none" stroke-width="0.5" stroke-linecap="butt"/><path d="" data-paper-data="{&quot;index&quot;:null}" fill="#000000" stroke="none" stroke-width="0.5" stroke-linecap="butt"/><path d="" data-paper-data="{&quot;noHover&quot;:false,&quot;origItem&quot;:[&quot;Path&quot;,{&quot;applyMatrix&quot;:true,&quot;segments&quot;:[[[214.21936,363.46624],[-0.30208,-0.37388],[3.00673,0.15442]],[[223.17564,365.12684],[-2.72214,-1.01229],[0.78421,0.29162]],[[225.23038,366.56847],[-0.80035,-0.24385],[0.7421,0.2261]],[[227.55523,366.4612],[-0.77495,0.03576],[3.50491,0]],[[238.06996,366.4612],[-3.50491,0],[-1.08058,-2.14878]],[[237.21302,359.55162],[0.01277,2.28708],[0,0]],[[239.71302,357.05162],[-2.5,0],[2.5,0]],[[242.21302,359.55162],[0,0],[-0.01909,2.79627]],[[244.14909,365.09479],[-2.53148,-1.37374],[0,0]],[[244.57107,366.4612],[0,0],[7.03354,0]],[[265.67169,366.4612],[-7.03354,0],[3.04925,0]],[[274.81964,366.4612],[-3.04923,-0.00986],[0.84642,0.00274]],[[277.35997,366.4598],[-0.84249,-0.07098],[-2.84376,-3.86932]],[[269.2555,354.64224],[2.9011,3.87495],[-1.52693,-2.0395]],[[264.37183,348.76265],[1.03081,2.32992],[-0.4631,-1.04675]],[[264.2484,345.33101],[0.26442,1.11366],[-0.24124,-1.01601]],[[261.55208,340.80707],[0.56849,0.84929],[0,0]],[[261.11463,339.02281],[-0.11332,0.95811],[-0.5179,0.09202]],[[259.60671,339.31511],[0.48224,-0.10965],[-4.9579,1.12734]],[[244.77858,341.16631],[4.93186,-0.53102],[-0.36495,0.13559]],[[243.66918,341.57508],[0.37522,-0.13655],[-2.05219,0.74685]],[[237.17595,342.44759],[2.13113,-0.47702],[-1.33538,0.29891]],[[233.36431,343.97224],[1.3434,-0.26048],[-3.96057,0.76793]],[[221.09473,343.98507],[3.96691,-0.63065],[-1.45541,0.23138]],[[216.91087,345.41372],[1.39462,-0.47622],[0,0]],[[216.89509,345.41869],[0.01038,-0.00317],[-0.03209,0.04913]],[[216.84315,345.4943],[0,0],[-0.66286,0.84427]],[[214.85458,348.02711],[0.40217,-0.9952],[-0.90439,2.23798]],[[214.22695,355.24129],[0.57394,-2.34458],[-0.27021,1.10382]],[[212.7023,358.2906],[0.23015,-1.11286],[-0.27004,1.30575]],[[212.76917,362.29019],[-0.0223,-1.33319],[0,0]],[[212.76917,362.68043],[0,0],[0.69117,0.09707]]],&quot;closed&quot;:true}],&quot;index&quot;:null}" fill="url(#color-3)" stroke="none" stroke-width="0.5" stroke-linecap="butt"/><path d="" data-paper-data="{&quot;index&quot;:null}" fill="#000000" stroke="none" stroke-width="0.5" stroke-linecap="butt"/><path d="M527.13038,305.5027c-0.05804,0.08706 -0.10801,0.1769 -0.15182,0.26868c3.3138,-0.06654 6.7672,-0.786 10.05186,-1.06914c0.43896,-0.03784 1.024,0.04788 1.63475,0.13742c-0.12266,-0.33701 -0.25393,-0.66578 -0.39511,-0.98437c0,0 -0.58163,-1.33986 0.75823,-1.92149c1.33986,-0.58163 1.92149,0.75823 1.92149,0.75823c0.25773,0.60388 0.49604,1.24466 0.71633,1.91109c1.20369,-0.73494 2.00703,-1.79529 3.47173,-2.36868c2.3176,-1.10369 4.22521,-5.90252 2.1679,-8.1869c-0.4938,-0.54831 -4.22815,1.5183 -4.91166,1.68963c-1.69796,0.42559 -5.83383,-0.41608 -7.19303,0.82626c-0.77295,0.70649 -0.64443,2.03543 -1.27576,2.87085l-0.59276,1.55684c-0.17677,0.49239 -0.61297,0.87329 -1.16685,0.95321c-0.79843,0.11521 -1.53908,-0.43866 -1.65428,-1.23709c-0.03178,-0.22025 -0.01265,-0.43612 0.0485,-0.63567l0.43772,-1.5518c0.74565,-2.6435 1.75459,-5.30023 1.94206,-8.06335c0.03349,-0.49357 -0.07304,-2.6963 -0.72286,-2.98998c-0.76979,-0.3479 -2.86159,0.46878 -3.58547,0.64419c-3.93012,0.95236 -6.73057,2.98544 -8.91089,6.34936c-2.27169,3.51776 -2.87381,7.76193 -2.59731,11.94224l-0.00001,0.00001c0.0258,-0.00146 0.04011,-0.00148 0.04011,-0.00148l0.6652,0.093c2.37538,-0.88552 4.32744,-0.84415 6.55062,-0.76917c0.48706,-1.25022 1.33506,-2.77619 2.2503,-2.30431c0.30429,0.15688 0.60069,0.33592 0.61293,0.692c0.14346,0.1731 0.22969,0.39534 0.22969,0.63772c0,0.30014 -0.13223,0.5694 -0.34162,0.7527zM526.28449,312.75001c0,0.09147 -0.01228,0.18007 -0.03528,0.26424c2.15065,0.05215 4.43004,-0.37491 5.43871,-1.18648c2.6099,-0.48346 5.18163,-1.03278 7.60746,-1.38279l0.76228,0.02225c-0.16045,-0.87092 -0.33128,-1.75085 -0.52926,-2.61508c-2.23317,0.08749 -4.50942,0.31859 -6.78338,0.5173c-1.32182,-0.16636 -4.15422,-0.56833 -6.64984,-0.41005c-0.07527,0.08492 -0.1557,0.16771 -0.23687,0.24936c0.20306,1.36845 0.29828,2.95606 0.41282,4.37736c0.00879,0.05333 0.01336,0.10807 0.01336,0.16388zM520.2707,308.79837c-0.45175,0.09995 -0.91802,0.23842 -1.40776,0.42741l-1.41309,0.08025c0.17043,1.08836 0.38959,2.1593 0.64277,3.19812c0.3753,-0.09882 0.70968,-0.03851 0.70968,-0.03851c0.71203,0.13873 1.43616,0.23407 2.16969,0.29263v-0.95125c-0.304,-0.47772 -0.77339,-1.94659 -0.70129,-3.00865zM529.68213,343.15986c-0.51577,-0.12134 -0.97299,-0.36878 -1.31782,-0.76641c-0.27407,0.84024 -0.71033,1.57391 -1.39267,1.97252c-2.29143,1.33863 -3.66587,0.31912 -4.55575,-1.74484c-0.63378,-1.46996 -0.0687,-3.89118 -0.12945,-5.45367c-0.12238,-3.14745 -0.00818,-6.81153 1.33976,-9.77379c0.92557,-2.03404 2.21736,-3.65749 2.93861,-5.7981c-2.29453,0.19164 -4.47857,0.76241 -6.6026,-0.53796c-2.5916,-1.58662 -3.91793,-4.75905 -4.63025,-7.54824c-1.73413,-6.79018 -1.90141,-14.50246 1.92971,-20.62686c2.59941,-4.0027 6.02536,-6.43526 10.66404,-7.60669c2.78546,-0.70343 5.43575,-1.48884 7.14704,1.46127c1.12741,1.94357 1.013,4.28492 0.4979,6.60907c1.54771,-0.28584 3.30004,-0.12265 4.67778,-0.23988c2.15592,-0.18345 4.26434,-2.05274 6.30685,-2.08863c4.88001,-0.08573 4.82358,6.61744 3.59682,9.77017c-0.83972,2.15805 -1.82128,3.07543 -3.84041,4.12171c-1.58618,0.5754 -2.54805,1.73013 -3.8739,2.40143c0.60759,2.46877 1.022,5.07015 1.30174,7.34178c0.24866,2.01923 0.69761,2.97537 -1.22998,4.64976c-0.60922,0.5292 -3.37247,1.09786 -4.29507,1.3263c-0.36107,0.0894 -0.72043,0.16861 -1.07846,0.23892c0.0968,0.10771 0.14789,0.18892 0.14789,0.18892c1.14496,1.8676 2.91489,3.23138 4.22521,5.03569c1.33867,1.84334 2.18676,3.97741 3.16385,6.02705c0.60241,1.26367 1.33214,2.26188 1.0908,3.79896c-0.42429,2.70239 -1.95203,3.35045 -3.80114,2.81936c0.68794,0.46792 1.34764,0.9588 1.96111,1.47418c2.99474,2.51595 5.15795,6.81748 6.99242,10.20777c1.02238,3.20605 2.78522,11.52057 -3.75546,9.51218c-0.38348,-0.11776 -0.72621,-0.29427 -1.03604,-0.51526c-0.85564,2.41394 -4.26047,2.80349 -6.55172,1.25464c-1.4498,-0.98005 -2.27635,-3.00959 -3.14696,-4.44354c-2.48875,-4.0991 -5.57255,-8.36984 -6.74385,-13.06782zM523.98356,312.75424c0.07877,0.01776 0.15871,0.03461 0.23969,0.05054c-0.3706,-1.10445 -0.60212,-3.22217 -0.59965,-4.42165c-0.17081,0.05618 -0.33443,0.11842 -0.48976,0.18722c-0.33325,-0.00888 -0.66342,-0.01048 -0.99466,0.00073c0.54813,1.16446 0.90611,3.12645 0.89804,4.26048c0.31716,-0.00171 0.63556,-0.00892 0.955,-0.02112c-0.00287,-0.01874 -0.00576,-0.03747 -0.00867,-0.0562zM539.71255,313.33633c-6.21338,0.89651 -12.93791,2.75531 -19.29453,2.26449c-0.20749,0.32941 -0.54473,0.57434 -0.95187,0.65481c0.5185,0.92248 1.18744,1.74531 2.06533,2.33791c1.40388,0.94767 3.86797,0.13081 5.42516,0.04755c0.4906,-0.02071 0.977,-0.03515 1.46019,-0.04686c0.10268,-0.01043 0.19878,-0.01225 0.2887,-0.0067c2.97151,-0.06631 5.82845,-0.05536 8.80332,-0.79355c1.05227,-0.26111 2.24029,-0.19091 3.16208,-0.76164c0.87464,-0.54153 0.11244,-2.68512 -0.02514,-3.37765c-0.01854,-0.09334 -0.03695,-0.18721 -0.05523,-0.28157c-0.18508,0.02914 -0.31563,0.02207 -0.31563,0.02207l-0.56238,-0.05885zM542.05886,342.46045c-1.71478,-1.41127 -3.78175,-2.63409 -5.7986,-3.6927c-0.04353,0.11641 -0.09227,0.2308 -0.14589,0.34297c0.09207,0.08029 0.1755,0.17353 0.24752,0.27918l0.84614,1.24147c1.57808,2.3197 2.86271,4.76007 4.10763,7.22194c1.72285,2.07956 3.54045,4.07293 4.81936,6.48469c0.34327,0.64732 1.42121,3.40365 2.6562,2.93716c1.35281,-0.51099 -0.30147,-4.87885 -0.56271,-5.71074c-1.6132,-2.93956 -3.53676,-6.93712 -6.16963,-9.10395zM532.68697,321.37681c-0.84178,0.04373 -1.68506,0.06753 -2.53501,0.08876c0.4144,5.33461 -0.34409,11.11125 1.7793,16.22915c0.0821,0.1979 0.3227,0.31797 0.63503,0.37435c0.65281,-0.21461 1.31993,-0.42 1.84368,-0.21691c0.26312,-0.11004 0.46244,-0.2506 0.53721,-0.41179c0.16692,-0.35988 0.05028,-1.97987 0.04168,-2.21059c-0.61348,-4.24334 -1.39251,-8.46718 -2.00162,-12.70354zM534.21451,341.73696c-0.45376,0.4277 -1.01511,0.78725 -1.61645,1.04842c1.24407,4.72566 4.63206,9.26653 7.12303,13.39273c0.08387,0.13892 1.30091,1.94024 1.50367,2.08361c0.29002,0.20507 2.73808,1.08376 2.16857,-0.31186c-0.36848,-0.90298 -0.99908,-1.67622 -1.456,-2.53785c-1.03755,-1.87219 -1.97184,-3.7797 -2.92385,-5.67604c-2.04795,-2.23009 -4.05244,-4.55482 -4.52982,-7.36444c-0.00135,-0.00797 -0.00268,-0.01592 -0.004,-0.02387l-0.00536,0.00227zM536.61094,324.88634c0.00979,0.04384 0.01348,0.0694 0.01348,0.0694l0.1151,0.84851c0.3794,1.53751 0.57057,2.9867 1.13735,4.46334c0.6685,2.57554 1.57756,3.66076 3.79207,5.15373c0.43274,0.29174 0.95882,1.12723 1.35395,0.78628c0.30614,-0.26416 -0.89483,-2.64224 -0.98053,-2.81781c-0.91674,-1.87808 -1.65626,-3.88843 -2.89602,-5.57951c-0.78135,-1.06582 -1.67839,-1.97765 -2.5354,-2.92394zM526.98233,333.42877c-0.00333,-0.34301 0.08373,-1.11225 0.89194,-1.3993c-0.27926,-1.41551 -0.57873,-2.82612 -0.7101,-4.2724c-0.02319,-0.25534 -0.03837,-0.51161 -0.04734,-0.76854c-0.28572,0.51603 -0.56493,1.04202 -0.82208,1.59379c-1.18192,2.53607 -1.19227,5.76206 -1.0899,8.45488c0.05174,1.36116 -0.53438,3.70952 0.02929,5.0041c0.12764,0.29313 0.25765,-0.58669 0.35269,-0.89196c0.26818,-0.86141 0.32816,-1.78868 0.2963,-2.6903c0.39657,-1.68552 0.65345,-3.3623 1.09922,-5.03028z" data-paper-data="{&quot;index&quot;:null}" fill="#000000" stroke="none" stroke-width="0.5" stroke-linecap="butt"/><path d="M520.2943,308.75428c-0.0721,1.06206 0.41687,2.60023 0.72087,3.07795l-0.00994,0.96339c-0.73353,-0.05856 -1.50266,-0.14266 -2.21469,-0.28139c0,0 -0.3498,-0.06694 -0.7251,0.03188c-0.25318,-1.03882 -0.48351,-2.18379 -0.65394,-3.27215l1.44051,-0.09697c0.48974,-0.18899 0.99054,-0.32275 1.44229,-0.4227z" data-paper-data="{&quot;noHover&quot;:false,&quot;origItem&quot;:[&quot;Path&quot;,{&quot;applyMatrix&quot;:true,&quot;segments&quot;:[[[552.21875,311.80702],[0.304,-0.47772],[0,0]],[[552.21875,312.75827],[0,0],[0.73353,-0.05856]],[[554.38844,312.46564],[-0.71203,0.13873],[0,0]],[[555.09812,312.50415],[-0.3753,-0.09882],[0.25318,-1.03882]],[[555.74089,309.30603],[-0.17043,1.08836],[0,0]],[[554.3278,309.22578],[0,0],[-0.48974,-0.18899]],[[552.92004,308.79837],[0.45175,0.09995],[0.0721,1.06206]]],&quot;closed&quot;:true,&quot;fillColor&quot;:[0,0,0,1]}],&quot;index&quot;:null}" fill="url(#color-4)" stroke="none" stroke-width="0.5" stroke-linecap="butt"/><path d="M524.00104,312.80108c0.00291,0.01873 0.00557,0.03755 0.00844,0.05629c-0.31944,0.0122 -0.65834,0.02238 -0.9755,0.02409c0.00807,-1.13403 -0.36946,-3.19043 -0.91759,-4.35489c0.33124,-0.01121 0.68303,-0.01509 1.01628,-0.00621c0.15533,-0.0688 0.32987,-0.13009 0.50068,-0.18627c-0.00247,1.19948 0.24072,3.41142 0.61132,4.51587c-0.08098,-0.01593 -0.16484,-0.03112 -0.24361,-0.04888z" data-paper-data="{&quot;noHover&quot;:false,&quot;origItem&quot;:[&quot;Path&quot;,{&quot;applyMatrix&quot;:true,&quot;segments&quot;:[[[549.20719,312.75424],[0,0],[-0.00291,0.01873]],[[549.19852,312.81044],[0.00287,-0.01874],[0.31944,0.0122]],[[550.15352,312.83156],[-0.31716,-0.00171],[-0.00807,-1.13403]],[[551.05156,308.57108],[-0.54813,1.16446],[-0.33124,-0.01121]],[[550.0569,308.57035],[0.33325,-0.00888],[-0.15533,-0.0688]],[[549.56714,308.38313],[0.17081,0.05618],[0.00247,1.19948]],[[548.96749,312.80478],[0.3706,-1.10445],[0.08098,-0.01593]],[[549.20718,312.75424],[-0.07877,0.01776],[0,0]]],&quot;closed&quot;:true,&quot;fillColor&quot;:[0,0,0,1]}],&quot;index&quot;:null}" fill="url(#color-5)" stroke="none" stroke-width="0.5" stroke-linecap="butt"/><path d="M526.23724,312.76639c0,-0.05581 -0.00493,-0.11162 -0.01372,-0.16495c-0.11454,-1.4213 -0.20987,-3.03918 -0.41293,-4.40763c0.08117,-0.08165 0.16228,-0.16645 0.23755,-0.25137c2.49562,-0.15828 5.36993,0.21092 6.69175,0.37728c2.27396,-0.19871 4.60187,-0.39837 6.83504,-0.48586c0.19798,0.86423 0.37228,1.76268 0.53273,2.6336l-0.76228,-0.0224c-2.42583,0.35001 -5.08125,0.9362 -7.69115,1.41966c-1.00867,0.81157 -3.30104,1.21963 -5.45169,1.16748c0.023,-0.08417 0.03471,-0.17433 0.03471,-0.2658z" data-paper-data="{&quot;noHover&quot;:false,&quot;origItem&quot;:[&quot;Path&quot;,{&quot;applyMatrix&quot;:true,&quot;segments&quot;:[[[546.90625,312.75],[0,0],[0,-0.05581]],[[546.91961,312.58612],[-0.00879,0.05333],[0.11454,-1.4213]],[[547.33243,308.20876],[-0.20306,1.36845],[-0.08117,-0.08165]],[[547.09556,307.9594],[0.07527,0.08492],[-2.49562,-0.15828]],[[540.44572,308.36945],[1.32182,-0.16636],[-2.27396,-0.19871]],[[533.66234,307.85215],[2.23317,0.08749],[-0.19798,0.86423]],[[533.13308,310.46723],[0.16045,-0.87092],[0,0]],[[533.89536,310.44498],[0,0],[2.42583,0.35001]],[[541.50282,311.82777],[-2.6099,-0.48346],[1.00867,0.81157]],[[546.94153,313.01425],[-2.15065,0.05215],[-0.023,-0.08417]],[[546.90625,312.75001],[0,0.09147],[0,0]]],&quot;closed&quot;:true,&quot;fillColor&quot;:[0,0,0,1]}],&quot;index&quot;:null}" fill="url(#color-6)" stroke="none" stroke-width="0.5" stroke-linecap="butt"/><path d="M534.49094,342.38823l0.00532,-0.00226c0.00131,0.00796 -0.03056,-0.06067 -0.02921,-0.0527c0.47739,2.80962 2.53631,5.15499 4.58426,7.38507c0.95202,1.89634 1.87419,3.85436 2.91175,5.72655c0.45692,0.86163 1.08606,1.63596 1.45453,2.53894c0.56951,1.39563 -1.8868,0.5215 -2.17682,0.31643c-0.20276,-0.14336 -1.42356,-1.94332 -1.50743,-2.08226c-2.60844,-4.32078 -6.236,-9.17081 -7.31992,-14.13703c0,0 -0.01435,-0.06577 -0.05125,-0.16579c0.57221,-0.12365 1.13884,-0.34824 1.65268,-0.6486z" data-paper-data="{&quot;noHover&quot;:false,&quot;origItem&quot;:[&quot;Path&quot;,{&quot;applyMatrix&quot;:true,&quot;segments&quot;:[[1084.41817,683.30254],[[1084.40675,683.30483],[0,0],[0.00679,0.01464]],[[1084.42703,683.3488],[-0.00673,-0.01468],[2.37574,5.18106]],[[1085.23593,700.62198],[0.87263,-5.99234],[0.56264,4.20632]],[[1086.79716,713.29588],[-0.39405,-4.26276],[0.2154,1.93864]],[[1087.24948,719.13008],[-0.40813,-1.90739],[0.63079,2.94797]],[[1091.18463,717.20284],[-0.24832,0.66559],[0.1736,-0.46531]],[[1091.32275,712.06563],[0.01788,0.32408],[-0.55598,-10.07886]],[[1087.52169,680.62017],[3.8025,9.42836],[0,0]],[[1087.42007,680.28843],[0.05167,0.20687],[-1.08495,0.44018]],[[1083.97297,681.07658],[1.18752,-0.0824],[0,0]]],&quot;closed&quot;:true}],&quot;index&quot;:null}" fill="url(#color-7)" stroke="none" stroke-width="0.5" stroke-linecap="butt"/><path d="M536.23341,338.73585c2.01685,1.05861 4.09896,2.27332 5.81375,3.68458c2.63286,2.16683 4.59938,6.23213 6.21258,9.17169c0.26124,0.83189 1.90396,5.20888 0.55115,5.71987c-1.23499,0.46649 -2.31783,-2.28761 -2.66109,-2.93493c-1.27891,-2.41175 -3.15204,-4.43514 -4.87489,-6.5147c-1.24492,-2.46187 -2.51728,-4.94177 -4.09535,-7.26147l-0.84547,-1.24207c-0.07202,-0.10565 -0.15544,-0.1989 -0.24751,-0.27919c0.05361,-0.11217 0.10331,-0.22737 0.14683,-0.34379z" data-paper-data="{&quot;noHover&quot;:false,&quot;origItem&quot;:[&quot;Path&quot;,{&quot;applyMatrix&quot;:true,&quot;segments&quot;:[[[1072.00798,692.02832],[1.24434,-4.26381],[-1.91055,6.54663]],[[1072.06621,714.02337],[-0.64499,-6.67517],[0.50528,1.66908]],[[1077.56871,724.09509],[-2.8113,0.67928],[2.56645,-0.62012]],[[1078.65013,716.2491],[0.16183,1.45645],[-0.60293,-5.42633]],[[1079.31067,700.10372],[-0.5049,5.37738],[-0.71558,-5.47088]],[[1077.96453,683.5416],[0.00485,5.61117],[0,0]],[[1077.96453,680.53681],[0,0],[0,-0.25573]],[[1078.05912,679.79663],[-0.06173,0.23639],[-0.21497,-0.12498]],[[1077.43171,679.39415],[0.20304,0.14337],[-2.14075,4.02126]]],&quot;closed&quot;:true}],&quot;index&quot;:null}" fill="url(#color-8)" stroke="none" stroke-width="0.5" stroke-linecap="butt"/><path d="M527.89782,331.995c-0.80821,0.28706 -0.89398,1.0572 -0.89065,1.40021c-0.44577,1.66797 -0.73034,3.41993 -1.12691,5.10545c0.03185,0.90162 -0.02882,1.82883 -0.297,2.69024c-0.09504,0.30527 -0.22655,1.18494 -0.35419,0.8918c-0.56367,-1.29458 0.01269,-3.64536 -0.03906,-5.00652c-0.10236,-2.69281 -0.07616,-5.99954 1.10576,-8.5356c0.25716,-0.55177 0.54064,-1.07744 0.82636,-1.59345c0.00897,0.25693 0.02502,0.51331 0.04821,0.76865c0.13137,1.44628 0.44823,2.86371 0.72749,4.27922z" data-paper-data="{&quot;noHover&quot;:false,&quot;origItem&quot;:[&quot;Path&quot;,{&quot;applyMatrix&quot;:true,&quot;segments&quot;:[[[1095.1308,664.17353],[-0.09138,-0.67994],[1.3588,3.17445]],[[1098.74344,673.81701],[-1.26643,-3.22323],[0.19447,1.79386]],[[1100.09835,679.05782],[-0.77689,-1.62856],[0.27532,0.57713]],[[1101.05124,680.72271],[-0.16893,0.61671],[0.74605,-2.72363]],[[1099.67997,670.80873],[0.28634,2.70919],[-0.56648,-5.35967]],[[1095.10764,654.38359],[3.06397,4.68256],[-0.66663,-1.01879]],[[1093.02512,651.4635],[0.71296,0.93985],[0.05562,0.51116]],[[1093.15091,652.99834],[-0.02702,-0.51205],[0.15304,2.90043]],[[1092.96554,661.65838],[0.1485,-2.88175],[1.68185,0.33738]]],&quot;closed&quot;:true}],&quot;index&quot;:null}" fill="url(#color-9)" stroke="none" stroke-width="0.5" stroke-linecap="butt"/><path d="M536.60359,324.91956c0,0 -0.00357,-0.02563 -0.01336,-0.06947c0.85701,0.94629 1.76433,1.85395 2.54569,2.91977c1.23975,1.69109 2.01527,3.77484 2.932,5.65293c0.0857,0.17557 1.28154,2.55704 0.9754,2.82121c-0.39513,0.34096 -0.92704,-0.49184 -1.35978,-0.78358c-2.2145,-1.49297 -3.17941,-2.62355 -3.84792,-5.19909c-0.56678,-1.47665 -0.73956,-2.95449 -1.11896,-4.49201l-0.11308,-0.84975z" data-paper-data="{&quot;noHover&quot;:false,&quot;origItem&quot;:[&quot;Path&quot;,{&quot;applyMatrix&quot;:true,&quot;segments&quot;:[[[1073.63116,650.01387],[-0.00687,0.08958],[-1.42618,2.11797]],[[1069.44743,656.52599],[1.24229,-2.33296],[-1.97109,3.7016]],[[1065.30836,668.3978],[1.27826,-3.97951],[-0.1195,0.37202]],[[1064.17222,674.25572],[-0.68146,-0.43548],[0.87954,0.56207]],[[1066.62778,672.31256],[-0.77328,0.70111],[3.9572,-3.58784]],[[1072.66221,661.02765],[-0.58769,5.28922],[0.70018,-3.0849]],[[1073.63879,651.86762],[-0.31189,3.15187],[0,0]],[1073.62429,650.15511]],&quot;closed&quot;:true}],&quot;index&quot;:null}" fill="url(#color-10)" stroke="none" stroke-width="0.5" stroke-linecap="butt"/><path d="M532.99173,322.48475c0.60911,4.23635 1.40244,8.53895 2.01592,12.78229c0.00861,0.23071 0.1204,1.85277 -0.04652,2.21265c-0.30714,0.66217 -2.73173,0.97878 -3.03132,0.25671c-2.1234,-5.11789 -1.37354,-10.97674 -1.78794,-16.31135c0.84995,-0.02123 1.70572,-0.0462 2.54749,-0.08993z" data-paper-data="{&quot;noHover&quot;:false,&quot;origItem&quot;:[&quot;Path&quot;,{&quot;applyMatrix&quot;:true,&quot;segments&quot;:[[[1080.13018,644.30709],[0,0],[0.00423,8.55984]],[[1079.79632,670.02545],[0.00242,-8.57492],[0.04887,0.45917]],[[1080.5102,674.38941],[-0.43321,-0.6647],[0.79709,1.22304]],[[1086.55285,674.03147],[-0.38679,1.51491],[2.7415,-10.73736]],[[1085.43966,641.39766],[0.70336,10.67823],[-1.68854,0.20073]],[[1080.39626,641.946],[1.67878,-0.15386],[0,0]]],&quot;closed&quot;:true}],&quot;index&quot;:null}" fill="url(#color-11)" stroke="none" stroke-width="0.5" stroke-linecap="butt"/><path d="M517.1284,306.42371c0,0 -0.01434,-0.00001 -0.04014,0.00144c-0.2765,-4.18031 0.31943,-8.45473 2.59112,-11.97249c2.18031,-3.36393 5.00663,-5.42851 8.93675,-6.38087c0.72388,-0.17542 2.83198,-0.99495 3.60177,-0.64705c0.64982,0.29368 0.76165,2.49688 0.72817,2.99044c-0.18748,2.76313 -1.18335,5.42418 -1.929,8.06768l-0.44115,1.55018c-0.06113,0.19955 -0.08207,0.41472 -0.05029,0.63498c0.1152,0.79843 0.84016,1.34982 1.63859,1.23462c0.55389,-0.07992 0.9791,-0.45896 1.15588,-0.95134l0.58126,-1.55118c0.63134,-0.83543 0.48505,-2.12897 1.258,-2.83546c1.3592,-1.24234 5.49522,-0.39821 7.19317,-0.82381c0.68351,-0.17133 4.50056,-2.24862 4.99436,-1.70032c2.05731,2.28438 0.14699,7.1065 -2.17061,8.21018c-1.4647,0.57339 -2.27421,1.64393 -3.4779,2.37886c-0.22029,-0.66644 -0.52549,-1.35698 -0.78322,-1.96086c0,0 -0.51359,-1.29156 -1.85345,-0.70993c-1.33985,0.58162 -0.76417,1.9279 -0.76417,1.9279c0.14117,0.3186 0.27138,0.64826 0.39404,0.98528c-0.61074,-0.08954 -1.2,-0.17223 -1.63896,-0.1344c-3.54004,0.30515 -7.32061,1.11705 -10.86664,1.07224c-3.05173,-0.03858 -5.38964,-0.41141 -8.39179,0.70776l-0.6658,-0.09388z" data-paper-data="{&quot;noHover&quot;:false,&quot;origItem&quot;:[&quot;Path&quot;,{&quot;applyMatrix&quot;:true,&quot;segments&quot;:[[[1106.92786,607.85856],[-0.05147,0.00449],[-0.64665,-8.3539]],[[1098.37558,584.96072],[5.50155,6.31458],[-5.27673,-6.03614]],[[1078.92297,574.93726],[8.05168,0.76268],[-1.48302,-0.14047]],[[1071.64153,574.68617],[1.42444,-0.90854],[-1.20243,0.76694]],[[1071.06461,580.81128],[-0.20725,-0.96743],[1.1603,5.41606]],[[1077.21195,596.218],[-2.23104,-5.01984],[0,0]],[[1078.52163,599.16477],[0,0],[0.17803,0.37754]],[[1078.7992,600.40924],[0,-0.44508],[0,1.6134]],[[1075.87788,603.33056],[1.6134,0],[-1.11924,0]],[[1073.29585,601.77695],[0.49056,0.92419],[0,0]],[[1071.67782,598.8645],[0,0],[-1.48833,-1.4734]],[[1068.33248,593.54604],[1.73184,1.17773],[-3.04537,-2.07099]],[[1053.85789,593.96489],[3.48266,0.35751],[-1.40194,-0.14391]],[[1043.65268,592.0231],[0.82087,-1.22639],[-3.41998,5.10954]],[[1050.28235,607.60987],[-4.90292,-1.52279],[3.06313,0.71668]],[[1057.83118,611.30708],[-2.59262,-1.11101],[0.24572,-1.38213]],[[1058.70331,607.31948],[-0.3377,1.26901],[0,0]],[[1062.29034,605.26975],[-2.81838,-0.76865],[2.81838,0.76865]],[[1064.34007,608.85678],[0,0],[-0.18846,0.67098]],[[1063.83911,610.9182],[0.14655,-0.70216],[1.1834,-0.35168]],[[1067.03584,610.17926],[-0.87972,0.05047],[7.09467,-0.40706]],[[1088.76453,609.21092],[-7.00658,1.10151],[6.02988,-0.94797]],[[1105.55785,608.24117],[-6.26241,-1.35794],[0,0]],[1106.84804,607.86709]],&quot;closed&quot;:true}],&quot;index&quot;:null}" fill="url(#color-12)" stroke="none" stroke-width="0.5" stroke-linecap="butt"/><path d="M520.3765,315.59687c6.35661,0.49082 13.16215,-1.37757 19.37554,-2.27408l0.56267,0.05977c0,0 0.13062,0.00734 0.31572,-0.0218c0.01828,0.09435 0.037,0.18929 0.05555,0.28263c0.13758,0.69253 0.90129,2.84937 0.02666,3.3909c-0.92179,0.57073 -2.11039,0.50573 -3.16265,0.76684c-2.97489,0.7382 -5.89919,0.75252 -8.87071,0.81884c-0.08992,-0.00556 -0.18848,-0.00588 -0.29116,0.00455c-0.48319,0.01172 -0.97642,0.01775 -1.46702,0.03845c-1.55719,0.08325 -4.02641,0.88766 -5.43027,-0.06001c-0.87789,-0.5926 -1.5479,-1.42597 -2.0664,-2.34845c0.40714,-0.08047 0.74456,-0.32823 0.95205,-0.65764z" data-paper-data="{&quot;noHover&quot;:false,&quot;origItem&quot;:[&quot;Path&quot;,{&quot;applyMatrix&quot;:true,&quot;segments&quot;:[[[1064.19261,628.03656],[12.55545,0],[0,0]],[1063.09619,628.31369],[[1062.46509,628.36014],[0.37471,0.00483],[-0.00924,0.19201]],[[1062.43618,628.93328],[0.01005,-0.19005],[-0.07454,1.41016]],[[1063.35112,635.62651],[-1.886,-0.82214],[1.9877,0.86648]],[[1069.828,636.23104],[-2.15753,-0.21633],[6.09961,0.61158]],[[1087.48083,635.2875],[-5.90106,0.71743],[0.17641,-0.03668]],[[1088.05424,635.21831],[-0.20624,0.00867],[0.95982,-0.11483]],[[1090.95808,634.89401],[-0.97707,0.09914],[3.10624,-0.27995]],[[1101.6836,633.25037],[-2.50829,2.27687],[1.56851,-1.42379]],[[1105.10419,628.03258],[-0.76291,1.97414],[-0.82893,-0.04299]],[[1103.03293,627.00827],[0.50482,0.59279],[-12.44275,2.78715]]],&quot;closed&quot;:true}],&quot;index&quot;:null}" fill="url(#color-13)" stroke="none" stroke-width="0.5" stroke-linecap="butt"/><path d="M522.44014,315.19606l0.90258,3.91763" data-paper-data="{&quot;index&quot;:null}" fill="none" stroke="#000000" stroke-width="1.5" stroke-linecap="round"/><path d="M529.97045,314.78416l0.80724,3.25675l0.28607,1.98266" data-paper-data="{&quot;index&quot;:null}" fill="none" stroke="#000000" stroke-width="1.5" stroke-linecap="round"/><path d="M536.13794,318.95412l-1.75584,-6.32444" data-paper-data="{&quot;index&quot;:null}" fill="none" stroke="#000000" stroke-width="1.5" stroke-linecap="round"/><path d="M537.28622,312.88529l1.49361,4.50701" data-paper-data="{&quot;index&quot;:null}" fill="none" stroke="#000000" stroke-width="1.5" stroke-linecap="round"/><path d="M527.04911,319.08489l-1.02178,-4.74374" data-paper-data="{&quot;index&quot;:null}" fill="none" stroke="#000000" stroke-width="1.5" stroke-linecap="round"/><path d="M541.53926,315.4762l-21.3629,1.56445" data-paper-data="{&quot;index&quot;:null}" fill="none" stroke="#000000" stroke-width="1.5" stroke-linecap="round"/><path d="M524.84699,308l2.3125,-1.9375" data-paper-data="{&quot;index&quot;:null}" fill="none" stroke="#000000" stroke-width="2" stroke-linecap="round"/><path d="M518.78449,306.25l2.3125,1.9375" data-paper-data="{&quot;index&quot;:null}" fill="none" stroke="#000000" stroke-width="2" stroke-linecap="round"/></g></g></svg>