<svg version="1.1" xmlns="http://www.w3.org/2000/svg" xmlns:xlink="http://www.w3.org/1999/xlink" width="1473.15462" height="416.99758" viewBox="0,0,1473.15462,416.99758"><g transform="translate(143.18315,-460.05955)"><g data-paper-data="{&quot;isPaintingLayer&quot;:true}" fill="#8a8a8a" fill-rule="nonzero" stroke="none" stroke-width="0" stroke-linecap="butt" stroke-linejoin="miter" stroke-miterlimit="10" stroke-dasharray="" stroke-dashoffset="0" style="mix-blend-mode: normal"><path d="M1282.38097,558.7388c0.06681,0.23297 0.14911,0.46505 0.24673,0.69618c-3.47737,9.43906 0.50937,18.93201 -0.46031,22.44364c-0.9068,3.28396 -11.62542,6.91904 -13.40367,10.39124c-8.03544,15.68993 -13.70339,31.66833 -21.64457,47.35335c-1.86812,3.68984 -6.92931,8.22846 -7.00965,12.21614c-0.27217,13.50481 -6.69887,27.10699 0.8652,40.51437c5.11016,9.05783 10.96558,18.09656 16.12938,27.15279c-10.15874,26.44504 -17.25877,53.30667 -1.94786,78.2182c12.78982,20.80963 29.11644,41.55039 50.70827,62.02368c5.19302,4.92399 15.55857,11.81374 24.10698,17.30874h-537.91746c0.00979,-18.18561 -0.05404,-36.3714 -0.05401,-54.55703c0.00005,-26.32353 -0.17767,-48.92894 0.98613,-76.05647c1.27655,-29.75577 2.90611,-59.49935 4.95621,-89.21185c1.92611,-27.9155 4.66921,-55.76863 6.9713,-83.65564c0.40775,-4.93934 0.67957,-9.88605 0.8684,-14.83734z"/><path d=""/><path d="M262.18606,560.85119c27.32313,-9.08777 54.63043,-18.153 81.94961,-27.23488c39.64367,-13.17898 79.2447,-26.58464 118.90905,-39.84383c33.68872,-11.26163 67.38663,-22.48452 101.08108,-33.71293l2.29976,6.88516c-15.79942,5.23583 -31.59651,10.47108 -47.27802,15.66787c-62.94894,20.86101 -126.79777,42.13545 -189.80384,63.04723c-21.67068,7.19253 -43.37012,14.40128 -65.02449,21.57772z"/><path d="M353.38189,877.05712c0.03525,-4.22669 0.08122,-8.45317 0.14326,-12.67931c0.98734,-0.38576 1.94186,-0.8474 2.86529,-1.37991c-0.27834,4.68836 -0.53607,9.37509 -0.7559,14.05922z"/><path d="M-143.18315,877.05712v-318.31832h408.63083c2.82644,75.70969 5.38779,151.8003 9.62565,227.1629c1.54875,27.5416 -0.22437,59.48327 1.07942,91.15542z"/></g></g></svg>