<svg version="1.1" xmlns="http://www.w3.org/2000/svg" xmlns:xlink="http://www.w3.org/1999/xlink" width="1093.16579" height="876.8919" viewBox="0,0,1093.16579,876.8919"><g transform="translate(175.72069,-139.29614)"><g data-paper-data="{&quot;isPaintingLayer&quot;:true}" fill-rule="nonzero" stroke="none" stroke-width="0" stroke-linecap="butt" stroke-linejoin="miter" stroke-miterlimit="10" stroke-dasharray="" stroke-dashoffset="0" style="mix-blend-mode: normal"><path d="" fill="#8a8a8a"/><path d="" fill="#8a8a8a"/><path d="M682.84933,683.82718l0.50057,3.65416l-0.29785,1.89879c-0.19149,-1.85159 -0.31414,-3.71198 -0.43558,-5.57274z" fill="#d0d0d0"/><path d="M480.30972,886.56164c-0.3777,-7.35756 -0.94208,-14.70021 -1.81651,-22.01774c-3.38333,-28.31298 -9.23463,-56.4306 -10.2498,-84.92693c-0.25939,-7.2812 -0.23441,-14.56388 -0.01353,-21.84557c2.07128,-7.54881 3.80053,-15.11685 4.40211,-25.54025c1.04272,-18.06709 1.5416,-36.15972 2.10745,-54.2496c1.86294,-15.56496 4.17895,-31.08169 6.42633,-46.59529c0.30921,-2.1345 1.54138,-4.0414 2.04609,-6.13829c0.94987,-2.64201 1.46746,-5.49021 1.46746,-8.4593c0,-4.6999 -1.29692,-9.09689 -3.55241,-12.85261c-0.57419,-1.39446 -1.30454,-3.01199 -2.66988,-3.65234c-0.07965,-0.09054 -0.15994,-0.1805 -0.24086,-0.26987c0.55703,-10.58974 1.11717,-21.17935 1.64421,-31.77052h129.00436c-0.39992,1.7752 -0.61098,3.62192 -0.61098,5.51793c-0.94583,9.90562 -0.09712,18.41314 1.65636,27.03372c-1.85318,1.78428 -3.43165,3.85188 -4.66573,6.13307c-1.91143,3.5333 -2.99664,7.57904 -2.99664,11.87826c0,0.34366 0.00693,0.68569 0.02067,1.02598c-1.40188,12.29161 -0.06008,25.57992 -0.02067,29.00405c0.05215,4.53047 1.58677,8.78214 2.99026,13.02771c0.79473,2.40406 0.48104,5.47176 1.25452,7.99759c0.86736,2.83241 2.47057,4.90747 3.36144,7.59635c1.61942,4.88782 2.41058,10.0916 4.14607,14.92617c1.87272,5.21685 4.15737,10.16042 6.04715,15.40892c0.71499,1.98574 2.66728,4.39398 3.17549,6.3513c1.60176,6.16904 4.08225,11.58797 6.22676,17.51953c0.05699,0.15762 0.10934,0.316 0.15768,0.47507c-0.85397,0.65841 -1.63814,1.40267 -2.33382,2.25184c-2.16009,2.63669 -3.4087,5.52376 -4.19922,8.54937c-0.84742,2.51124 -1.3068,5.2011 -1.3068,7.99825c0,2.47749 0.36038,4.8708 1.03157,7.13038c2.95278,10.82686 5.88376,21.65969 8.85834,32.48059c1.56295,5.68567 3.9904,9.74336 5.49047,16.59312c0.97572,4.45544 0.78569,9.08842 1.23881,13.62688c0.31366,3.14169 1.10038,6.40141 1.82398,9.57262c-0.0062,18.74092 -0.11298,37.48123 -0.38477,56.21962z" fill="#d0d0d0"/><path d="M-175.72069,886.56163v-318.31832h524.02809c-0.36562,0.33386 -0.70656,0.69378 -1.02154,1.0585c-1.3092,1.12648 -2.50043,2.38625 -3.55262,3.75825c-0.75855,0.84069 -1.46107,1.72117 -2.02501,2.70006c-0.64801,1.12479 -1.11941,2.32557 -1.48304,3.5703c-1.06081,2.77316 -1.64196,5.78357 -1.64196,8.9297c-0.23534,1.29104 0.20675,2.64102 0,3.93694c-4.90344,30.73609 -14.43768,61.03975 -15.01502,92.15916c-0.2034,10.96348 1.69584,36.35416 1.43069,41.05208c-0.88756,15.72537 -4.41349,31.20584 -5.76587,46.89806c-1.09891,12.75116 -4.22381,31.81217 1.00514,45.27092c2.01914,5.19706 4.36599,10.28233 6.00448,15.61166c3.52711,11.47217 5.44986,40.28497 22.72553,44.9144c4.82049,1.29177 10.14511,1.36947 14.97136,0.09941c2.27639,-0.59905 4.29762,-1.36695 6.08638,-2.28245c4.12525,6.18142 10.45018,9.55275 17.47322,10.07114c-0.0276,0.19001 -0.05471,0.38008 -0.08128,0.5702z" fill="#d0d0d0"/><path d="" fill="#8a8a8a"/><path d="M223.94359,1016.18804v-527.02702h126.12612v72.63913c-0.53294,1.84803 -0.85841,3.78402 -0.94957,5.7811c-0.68288,0.48898 -1.29642,1.09777 -1.83428,1.72055c-1.3092,1.12648 -2.50043,2.38625 -3.55262,3.75825c-0.75855,0.84069 -1.46107,1.72117 -2.02501,2.70006c-0.64801,1.12479 -1.11941,2.32557 -1.48304,3.5703c-1.06081,2.77316 -1.64196,5.78357 -1.64196,8.9297c-0.23534,1.29104 0.20675,2.64102 0,3.93694c-4.90344,30.73609 -14.43768,61.03975 -15.01502,92.15916c-0.2034,10.96348 1.69584,36.35416 1.43069,41.05208c-0.88756,15.72537 -4.41349,31.20584 -5.76587,46.89806c-1.09891,12.75116 -4.22381,31.81217 1.00514,45.27092c2.01914,5.19706 4.36599,10.28233 6.00448,15.61166c3.52711,11.47217 5.44986,40.28497 22.72553,44.9144c0.36444,0.09766 0.73176,0.18838 1.10152,0.27211v137.8126z" fill="#d0d0d0"/><path d="M477.69734,744.41627v-88.96111c1.12643,-8.02797 2.3066,-16.04887 3.46843,-24.06893c0.30921,-2.1345 1.54138,-4.0414 2.04609,-6.13829c0.94987,-2.64201 1.46746,-5.49021 1.46746,-8.4593c0,-4.6999 -1.29692,-9.09689 -3.55241,-12.85261c-0.57419,-1.39446 -1.30454,-3.01199 -2.66988,-3.65234c-0.07965,-0.09054 -0.15994,-0.1805 -0.24086,-0.26987c0.65805,-12.51002 1.32041,-25.01986 1.92745,-37.53229c0.3884,-8.00602 0.80998,-23.31119 -2.44628,-33.98397v-102.3996h130.63063v145.72254c-0.04917,0.64047 -0.07422,1.28769 -0.07422,1.94076c-0.57827,6.05617 -0.48575,11.58973 0.07422,16.94604v11.75696c-1.18147,1.36662 -2.21737,2.86258 -3.08358,4.46379c-1.91143,3.5333 -2.99664,7.57904 -2.99664,11.87826c0,0.34366 0.00693,0.68569 0.02067,1.02598c-1.40188,12.29161 -0.06008,25.57992 -0.02067,29.00405c0.05215,4.53047 1.58677,8.78214 2.99026,13.02771c0.79473,2.40406 0.48104,5.47176 1.25452,7.99759c0.47179,1.54064 1.16129,2.85722 1.83544,4.17038v70.38426z" fill="#d0d0d0"/><path d="M329.04869,851.02287v-294.29429h19.51952v294.29429z" fill="#d0d0d0"/><path d="M308.02767,890.06191v-247.74775h31.53153v247.74775z" fill="#d0d0d0"/><path d="M479.19884,866.03789v-370.87087h37.53754v370.87087z" fill="#d0d0d0"/><path d="M465.68533,870.54239v-442.94294h60.06006v442.94294z" fill="#d0d0d0"/><path d="M647.18382,421.59344v-81.08108h123.12312v81.08108z" fill="#d0d0d0"/><path d="M818.34599,324.47633v-65.26039h99.09911v65.26039z" fill="#d0d0d0"/><path d="M642.16881,195.85771v-53.89668l124.62463,51.05105l-1.5015,2.84563z" fill="#d0d0d0"/><path d="M415.93758,193.19282v-53.89668h123.12313v53.89668z" fill="#d0d0d0"/><path d="M219.73638,193.52219v-53.89668h123.12313v53.89668z" fill="#d0d0d0"/><path d="M598.14264,835.02252v-408.40841h37.53754v408.40841z" fill="#d0d0d0"/></g></g></svg>