<svg version="1.1" xmlns="http://www.w3.org/2000/svg" xmlns:xlink="http://www.w3.org/1999/xlink" width="24.95115" height="19.73491" viewBox="0,0,24.95115,19.73491"><g transform="translate(-524.69469,-317.41665)"><g data-paper-data="{&quot;isPaintingLayer&quot;:true}" fill-rule="nonzero" stroke-linecap="butt" stroke-linejoin="miter" stroke-miterlimit="10" stroke-dasharray="" stroke-dashoffset="0" style="mix-blend-mode: normal"><path d="M542.68664,327.79172c0.44043,0.11258 0.88803,0.18393 1.33483,0.18168c0.22497,-0.00113 0.88371,0.04095 0.67305,-0.07091c-0.48473,-0.25737 -1.25482,-0.20612 -2.00788,-0.11078zM531.47047,328.73607c-0.10696,-0.10969 -0.20268,-0.28215 -0.26531,-0.54834c-0.23717,-1.00799 0.47434,-1.34399 0.47434,-1.34399l0.61387,-0.27618c3.12804,-0.72777 6.44658,-0.7228 9.6233,-0.7228c0.79058,0 2.37226,-0.37925 3.0705,0.05453c1.22054,0.75823 1.73338,2.10763 0.56643,3.72463c-0.06234,0.08637 -0.13431,0.16054 -0.21421,0.22382c0.40037,0.51076 0.48832,1.28554 -0.00938,2.45547c-0.02729,0.06415 -0.08134,0.11799 -0.15544,0.16315c1.15924,1.10366 1.62072,3.07095 -0.35406,4.1852c-1.00201,0.56538 -2.24035,-0.19965 -3.19064,-0.43143c-3.12556,-0.76236 -6.86109,-0.45851 -10.04653,-0.45851c0,0 -0.75,0 -0.75,-1.06252c0,-0.2006 0.02673,-0.36332 0.0701,-0.49533c-0.04498,-0.13643 -0.0701,-0.28863 -0.0701,-0.44913c0,-0.24306 0.05761,-0.46707 0.15455,-0.64609l0.49545,-0.93588l0.26579,0.2824c0.36795,-0.53976 0.79599,-0.95798 1.26724,-1.27877c-0.05461,-0.01693 -0.10901,-0.03433 -0.1632,-0.05219c-0.60053,-0.19804 -1.47965,0.06233 -1.78288,-0.69823c-0.20884,-0.52382 0.09951,-1.14495 0.40018,-1.68978zM540.21786,334.10095c0.17712,0.00392 0.35449,0.0066 0.53214,0.00785c0.14807,0.00103 4.25634,0.62115 3.96606,0.02505c-0.16909,-0.34723 -0.57997,-0.19374 -0.8733,-0.26632c-1.22633,0.00684 -2.42996,0.10384 -3.6249,0.23344zM534.66617,332.59906c1.13964,-0.08793 2.26782,-0.22694 3.39636,-0.36709c-1.03794,-0.06677 -2.06034,-0.04233 -3.02572,0.21029c-0.11345,0.02969 -0.23822,0.08548 -0.37064,0.1568zM538.76277,329.36635c-1.10108,-0.22146 -2.21078,-0.43782 -3.3461,-0.45209c-0.49084,-0.00619 -1.08021,0.08003 -1.61553,0.21685c0.31693,0.10606 0.58705,0.24359 0.68289,0.25967c1.34401,0.22558 2.84103,0.19089 4.27875,-0.02442z" fill="#ffffff" stroke="#000000" stroke-width="1"/><path d="M528.08333,325.83347v-7.66682h19.83333v7.66682z" fill="#ffffff" stroke="#000000" stroke-width="1.5"/><path d="M528.64584,320.88608c0,-0.25 0.25,-0.25 0.25,-0.25h0.125c2.01459,0 4.42951,-0.28317 6.69277,-0.24398c-1.77993,-0.26335 -3.59679,-0.43711 -4.58097,0.09259c0,0 -0.22361,0.1118 -0.33541,-0.1118c-0.1118,-0.22361 0.1118,-0.33541 0.1118,-0.33541c2.072,-0.9851 6.28776,0.3396 8.60952,0.34473c2.00076,0.00442 4.00151,0.00388 6.00228,0.00388c0.19064,0 1.7214,-0.13133 1.83202,0.10984c0.30389,0.66257 -0.97297,1.45041 -1.35152,1.78473c-0.08133,0.07103 -0.16395,0.141 -0.24777,0.20991c1.11821,0.24675 2.20517,0.57497 3.21006,1.06281l0.00778,-0.0311l0.48,0.12c0.11133,0.02526 0.19444,0.12483 0.19444,0.2438c0,0.13807 -0.11193,0.25 -0.25,0.25l-0.25,0c-2.04687,0 -4.08722,0.01763 -6.12906,0.06053c-2.10022,0.98815 -4.47995,1.51643 -6.63924,1.56225c-1.68049,0.00235 -3.35548,0.05552 -5.02002,-0.15928c-1.97688,0.28616 -3.96063,0.50718 -5.95985,0.53649c-1.93675,0.00005 0.68183,-1.56739 1.25088,-1.84237c2.01608,-0.97424 4.21149,-1.60656 6.34109,-2.28258c-0.26998,-0.07519 -0.52814,-0.15846 -0.7715,-0.25092c-0.0241,0.00013 -0.0482,0.00024 -0.0723,0.00034v0.00053c0,0 -0.125,0 -0.25,0c-0.125,0 -0.25,0 -0.25,0c-0.13807,0 -0.25,-0.11193 -0.25,-0.25c0,-0.13807 0.11193,-0.25 0.25,-0.25l0.25,0c0.16285,0 0.32591,-0.00069 0.48916,-0.00187c0.70286,-0.15186 1.54528,-0.13564 2.4412,-0.03156c0.34723,-0.0032 0.6945,-0.00446 1.04148,-0.00202c0.12592,-0.02837 0.25201,-0.05608 0.37834,-0.08319c-0.08018,-0.00396 -0.15567,-0.00636 -0.22519,-0.00636c-2.33333,0 -4.66667,0 -7,0h-0.125c0,0 -0.25,0 -0.25,-0.25zM544.26022,322.76977c-1.50164,-0.29363 -3.00731,-0.47339 -4.5332,-0.76256c-0.59455,-0.09907 -1.19418,-0.16546 -1.79698,-0.20898c1.18542,0.26163 2.29697,0.51925 3.14278,0.59405c1.02899,0.40345 2.10187,0.39508 3.1874,0.3775zM544.74364,323.26273c-0.02819,0.00857 -0.05639,0.01709 -0.08458,0.02555c-0.20887,0.13517 -0.4227,0.26491 -0.64084,0.38921c1.11458,-0.01898 2.22912,-0.03083 3.34489,-0.03677c-0.34424,-0.12713 -0.66911,-0.26197 -0.92372,-0.33932c-0.30717,-0.09331 -0.61418,-0.17734 -0.92117,-0.25399c-0.0176,0.12085 -0.12165,0.21367 -0.24738,0.21367l-0.25,0c-0.09232,0 -0.18473,0.00063 -0.2772,0.00165zM540.35893,323.76703c0.78829,-0.1307 1.57619,-0.29199 2.3688,-0.5142c-0.60233,-0.04112 -1.19558,-0.14246 -1.76924,-0.3738c-1.91097,-0.14797 -4.71819,-0.18615 -7.00821,-0.6415c-0.21387,0.06298 -0.42845,0.12875 -0.64412,0.19758c-1.87069,0.59703 -3.70474,1.21329 -5.5276,1.94378c-0.57361,0.22987 -2.98561,1.25719 -2.38456,1.25721c1.64231,-0.02414 3.27431,-0.17919 4.90065,-0.39337c-0.01528,-0.03234 -0.02382,-0.06849 -0.02382,-0.10664c0,-0.11618 0.07925,-0.21385 0.18663,-0.2419l0.47545,-0.13584l0.01191,0.04168c2.57375,-1.03625 6.31558,-0.92666 8.94061,-1.01718c0.15786,-0.00544 0.31569,-0.01071 0.47349,-0.01581zM538.03369,321.30547c0.59721,0.04446 1.19145,0.11121 1.78097,0.20948c1.69056,0.32024 3.52722,0.49934 5.30955,0.8454c0.1886,-0.14602 0.37089,-0.29751 0.54614,-0.45447c0.24686,-0.21802 1.19876,-0.80426 1.26847,-1.12965c0.06456,-0.30134 -0.60981,0.10984 -0.91798,0.10984c-0.5,0 -1,0 -1.5,0c-1.6678,0 -3.33559,-0.00019 -5.00338,-0.00388c-0.07883,-0.00017 -0.16119,-0.0023 -0.24681,-0.00617c0.00013,0.00333 0.0002,0.00668 0.0002,0.01004c0,0.12559 -0.0926,0.22954 -0.21325,0.24732l-0.44315,0.07327c-0.19503,0.03225 -0.38853,0.06512 -0.58075,0.0988zM541.68236,324.22831c-0.54286,0.01442 -1.08596,0.03074 -1.62943,0.04911c-1.38451,0.21521 -2.78022,0.39059 -4.19794,0.61281c-0.65957,0.12102 -1.32312,0.2355 -1.96516,0.31652c-0.08643,0.01397 -0.17287,0.02791 -0.25932,0.04182c0.91042,0.02301 1.82296,0.01156 2.74138,0.01032c1.69396,-0.03603 3.56636,-0.38075 5.31047,-1.03058z" fill="#ececec" stroke="none" stroke-width="0.5"/></g></g></svg>