<svg version="1.1" xmlns="http://www.w3.org/2000/svg" xmlns:xlink="http://www.w3.org/1999/xlink" width="1585.65837" height="1020.01802" viewBox="0,0,1585.65837,1020.01802"><defs><linearGradient x1="540" y1="-189.00901" x2="540" y2="829.00901" gradientUnits="userSpaceOnUse" id="color-1"><stop offset="0" stop-color="#001d56"/><stop offset="1" stop-color="#001d7b"/></linearGradient><radialGradient cx="258.79129" cy="197.62012" r="99.84985" gradientUnits="userSpaceOnUse" id="color-2"><stop offset="0" stop-color="#ffffff"/><stop offset="1" stop-color="#ffffff" stop-opacity="0"/></radialGradient><radialGradient cx="844.87237" cy="240.15766" r="99.84985" gradientUnits="userSpaceOnUse" id="color-3"><stop offset="0" stop-color="#ffffff"/><stop offset="1" stop-color="#ffffff" stop-opacity="0"/></radialGradient><radialGradient cx="957.98048" cy="440.35285" r="99.84985" gradientUnits="userSpaceOnUse" id="color-4"><stop offset="0" stop-color="#ffffff"/><stop offset="1" stop-color="#ffffff" stop-opacity="0"/></radialGradient><radialGradient cx="642.66517" cy="287.1997" r="99.84985" gradientUnits="userSpaceOnUse" id="color-5"><stop offset="0" stop-color="#ffffff"/><stop offset="1" stop-color="#ffffff" stop-opacity="0"/></radialGradient><radialGradient cx="446.97447" cy="156.07358" r="99.84985" gradientUnits="userSpaceOnUse" id="color-6"><stop offset="0" stop-color="#ffffff"/><stop offset="1" stop-color="#ffffff" stop-opacity="0"/></radialGradient><radialGradient cx="729.25676" cy="411.32883" r="99.84985" gradientUnits="userSpaceOnUse" id="color-7"><stop offset="0" stop-color="#ffffff"/><stop offset="1" stop-color="#ffffff" stop-opacity="0"/></radialGradient></defs><g transform="translate(262.22898,190.00901)"><g data-paper-data="{&quot;isPaintingLayer&quot;:true}" fill-rule="nonzero" stroke-linejoin="miter" stroke-miterlimit="10" stroke-dasharray="" stroke-dashoffset="0" style="mix-blend-mode: normal"><path d="M-242.42939,829.00901v-1018.01802h1564.85878v1018.01802z" fill="url(#color-1)" stroke="#000000" stroke-width="2" stroke-linecap="butt"/><path d="M352.63514,197.62012c0,55.14555 -42.01532,99.84985 -93.84384,99.84985c-51.82852,0 -93.84384,-44.7043 -93.84384,-99.84985c0,-55.14555 42.01532,-99.84985 93.84384,-99.84985c51.82852,0 93.84384,44.7043 93.84384,99.84985z" fill="url(#color-2)" stroke="#ffffff" stroke-width="0" stroke-linecap="butt"/><path d="M325.57553,226.47203c-11.48909,38.11015 -51.3754,59.7878 -89.08857,48.41839c-37.71317,-11.36941 -58.97199,-51.48052 -47.4829,-89.59067c11.48909,-38.11015 51.3754,-59.7878 89.08857,-48.41839c37.71317,11.36941 58.97199,51.48052 47.4829,89.59067z" fill="#000000" stroke="#000000" stroke-width="2" stroke-linecap="butt"/><path d="M226.50901,165.33784l-3.003,52.55255" fill="none" stroke="#ffffff" stroke-width="2" stroke-linecap="round"/><path d="M246.02853,168.34084l-1.5015,48.04805" fill="none" stroke="#ffffff" stroke-width="2" stroke-linecap="round"/><path d="M938.71622,240.15766c0,55.14555 -42.01532,99.84985 -93.84385,99.84985c-51.82853,0 -93.84384,-44.7043 -93.84384,-99.84985c0,-55.14555 42.01532,-99.84985 93.84384,-99.84985c51.82853,0 93.84385,44.7043 93.84385,99.84985z" fill="url(#color-3)" stroke="#ffffff" stroke-width="0" stroke-linecap="butt"/><path d="M867.35735,306.52183c-38.29052,10.87286 -78.05349,-11.03021 -88.81309,-48.92186c-10.7596,-37.89166 11.55862,-77.42311 49.84914,-88.29597c38.29052,-10.87286 78.05349,11.03021 88.81309,48.92187c10.7596,37.89166 -11.55862,77.42311 -49.84914,88.29597z" fill="#000000" stroke="#000000" stroke-width="2" stroke-linecap="butt"/><path d="M878.16065,250.92342l15.01502,-4.5045l-51.05105,33.03303" fill="none" stroke="#ffffff" stroke-width="1.5" stroke-linecap="round"/><path d="M881.16366,228.4009l-45.04505,27.02703" fill="none" stroke="#ffffff" stroke-width="1.5" stroke-linecap="round"/><path d="M1051.82433,440.35285c0,55.14555 -42.01532,99.84985 -93.84385,99.84985c-51.82853,0 -93.84384,-44.7043 -93.84384,-99.84985c0,-55.14555 42.01532,-99.84985 93.84384,-99.84985c51.82852,0 93.84385,44.7043 93.84385,99.84985z" fill="url(#color-4)" stroke="#ffffff" stroke-width="0" stroke-linecap="butt"/><path d="M977.46246,508.21853c-38.29051,10.87286 -78.05349,-11.03021 -88.81309,-48.92186c-10.7596,-37.89166 11.55863,-77.42312 49.84914,-88.29597c38.29051,-10.87286 78.05348,11.03021 88.81309,48.92186c10.7596,37.89166 -11.55862,77.42311 -49.84914,88.29597z" fill="#000000" stroke="#000000" stroke-width="2" stroke-linecap="butt"/><path d="M736.50901,287.1997c0,55.14555 -42.01532,99.84985 -93.84384,99.84985c-51.82852,0 -93.84384,-44.7043 -93.84384,-99.84985c0,-55.14555 42.01532,-99.84985 93.84384,-99.84985c51.82853,0 93.84384,44.7043 93.84384,99.84985z" fill="url(#color-5)" stroke="#ffffff" stroke-width="0" stroke-linecap="butt"/><path d="M664.14414,357.06237c-38.29052,10.87285 -78.05349,-11.03021 -88.81309,-48.92187c-10.7596,-37.89166 11.55862,-77.42311 49.84914,-88.29597c38.29052,-10.87286 78.05349,11.03021 88.81309,48.92186c10.7596,37.89166 -11.55862,77.42312 -49.84913,88.29597z" fill="#000000" stroke="#000000" stroke-width="2" stroke-linecap="butt"/><path d="M642.42492,344.01652l-51.05105,-27.02703" fill="none" stroke="#ffffff" stroke-width="1.5" stroke-linecap="round"/><path d="M643.92643,330.503l-45.04505,-25.52553" fill="none" stroke="#ffffff" stroke-width="1.5" stroke-linecap="round"/><path d="M540.81832,156.07358c0,55.14555 -42.01532,99.84985 -93.84385,99.84985c-51.82853,0 -93.84384,-44.7043 -93.84384,-99.84985c0,-55.14555 42.01532,-99.84985 93.84384,-99.84985c51.82853,0 93.84385,44.7043 93.84385,99.84985z" fill="url(#color-6)" stroke="#ffffff" stroke-width="0" stroke-linecap="butt"/><path d="M466.44144,225.42573c-38.29052,10.87285 -78.05349,-11.03021 -88.81309,-48.92186c-10.7596,-37.89166 11.55863,-77.42312 49.84914,-88.29597c38.29052,-10.87285 78.05348,11.03021 88.81309,48.92186c10.7596,37.89166 -11.55862,77.42312 -49.84914,88.29597z" fill="#000000" stroke="#000000" stroke-width="2" stroke-linecap="butt"/><path d="M423.20571,189.36186l1.5015,-69.06907" fill="none" stroke="#ffffff" stroke-width="1.5" stroke-linecap="round"/><path d="M439.72222,187.86036v-66.06607" fill="none" stroke="#ffffff" stroke-width="1.5" stroke-linecap="round"/><path d="M823.1006,411.32883c0,55.14555 -42.01532,99.84985 -93.84385,99.84985c-51.82852,0 -93.84384,-44.7043 -93.84384,-99.84985c0,-55.14555 42.01532,-99.84985 93.84384,-99.84985c51.82853,0 93.84385,44.7043 93.84385,99.84985z" fill="url(#color-7)" stroke="#ffffff" stroke-width="0" stroke-linecap="butt"/><path d="M749.21921,484.17949c-38.29052,10.87286 -78.05349,-11.03021 -88.81309,-48.92186c-10.7596,-37.89165 11.55863,-77.42311 49.84914,-88.29597c38.29051,-10.87286 78.05348,11.03021 88.81308,48.92186c10.7596,37.89166 -11.55862,77.42312 -49.84913,88.29597z" fill="#000000" stroke="#000000" stroke-width="2" stroke-linecap="butt"/><path d="M722.0045,449.12162l24.02402,-60.06006" fill="none" stroke="#ffffff" stroke-width="1.5" stroke-linecap="round"/><path d="M740.02252,450.62312l22.52252,-54.05405" fill="none" stroke="#ffffff" stroke-width="1.5" stroke-linecap="round"/><path d="M942.72523,474.64715l-40.54054,-33.03303" fill="none" stroke="#ffffff" stroke-width="1.5" stroke-linecap="round"/><path d="M948.73123,464.13664l-37.53754,-30.03003" fill="none" stroke="#ffffff" stroke-width="1.5" stroke-linecap="round"/><path d="M-261.47898,803.003v-241.25375h1364.86486v241.25375z" fill="#000000" stroke="#ffffff" stroke-width="1.5" stroke-linecap="butt"/><text transform="translate(46.87241,606.79429) scale(0.63014,0.63014)" font-size="40" xml:space="preserve" fill="#ffffff" fill-rule="nonzero" stroke="none" stroke-width="1" stroke-linecap="butt" stroke-linejoin="miter" stroke-miterlimit="10" stroke-dasharray="" stroke-dashoffset="0" font-family="Marker" font-weight="normal" text-anchor="start" style="mix-blend-mode: normal"><tspan x="0" dy="0">One day, 6 mysterious objects landed on the earth.</tspan></text><text transform="translate(829.62462,617.3048) scale(0.5,0.5)" font-size="40" xml:space="preserve" fill="#ffffff" fill-rule="nonzero" stroke="none" stroke-width="1" stroke-linecap="butt" stroke-linejoin="miter" stroke-miterlimit="10" stroke-dasharray="" stroke-dashoffset="0" font-family="Marker" font-weight="normal" text-anchor="start" style="mix-blend-mode: normal"><tspan x="0" dy="0">Press Z to continue.</tspan></text></g></g></svg>