<svg version="1.1" xmlns="http://www.w3.org/2000/svg" xmlns:xlink="http://www.w3.org/1999/xlink" width="1786.43055" height="706.70428" viewBox="0,0,1786.43055,706.70428"><g transform="translate(175.72069,-179.85736)"><g data-paper-data="{&quot;isPaintingLayer&quot;:true}" fill-rule="nonzero" stroke-linecap="butt" stroke-linejoin="miter" stroke-miterlimit="10" stroke-dasharray="" stroke-dashoffset="0" style="mix-blend-mode: normal"><path d="M631.83634,629.97372v-154.65465h151.65165v154.65465z" fill="#cecece" stroke="#000000" stroke-width="0"/><path d="M1552.99893,568.24331c0.08101,0.23297 0.18082,0.46505 0.29919,0.69618c-4.21686,9.43906 0.61769,18.93201 -0.55819,22.44364c-1.09963,3.28396 -14.09764,6.91904 -16.25405,10.39124c-9.74423,15.68993 -16.6175,31.66833 -26.24743,47.35335c-2.26539,3.68984 -8.40287,8.22846 -8.5003,12.21614c-0.33005,13.50481 -8.12343,27.10699 1.04919,40.51437c6.19687,9.05783 13.29749,18.09656 19.5594,27.15279c-12.31906,26.44504 -20.92896,53.30667 -2.36208,78.2182c15.50966,20.80963 35.30825,41.55039 61.49171,62.02368c6.29735,4.92399 18.86721,11.81374 29.23349,17.30874h-598.22338c-0.00896,-6.6692 -0.01865,-13.33839 -0.02852,-20.00758c-0.00989,-6.68399 -2.56369,-15.87773 -3.15017,-20.97009c-0.84356,-7.32457 -1.48627,-14.67257 -2.1706,-22.0153c-1.96982,-85.06707 0.70664,-170.21199 0.92042,-255.32536z" fill="#cecece" stroke="none" stroke-width="0"/><path d="M530.94861,886.56163c0.17853,-106.10647 0.33484,-212.21301 0.02518,-318.31832h272.20495c0.09466,2.34183 0.1611,4.24154 0.12006,5.46301c-0.14377,4.27874 -1.49984,9.08152 -1.5015,13.56846c-0.03696,99.76227 -0.08753,199.52458 -0.06491,299.28686z" fill="#cecece" stroke="none" stroke-width="0"/><path d="" fill="#5f5f5f" stroke="none" stroke-width="0"/><path d="" fill="#5f5f5f" stroke="none" stroke-width="0"/><path d="" fill="#5f5f5f" stroke="none" stroke-width="0"/><path d="M-175.72069,886.56163v-318.31832h491.97763c0.38916,12.73663 0.66128,25.48024 0.78961,38.23248c0.93946,93.35789 0.66345,186.72168 0.34942,280.08585z" fill="#cecece" stroke="none" stroke-width="0"/><path d="" fill="#5f5f5f" stroke="none" stroke-width="0"/><path d="M775.74625,498.68619v-25.52553h171.17117v25.52553z" fill="#cecece" stroke="none" stroke-width="0"/><path d="M1017.48799,461.14865v-27.02703h313.81381v27.02703z" fill="#cecece" stroke="none" stroke-width="0"/><path d="M732.71662,407.88336l-1.56078,-8.09633l206.23865,-31.01875l1.56078,8.09633z" fill="#cecece" stroke="none" stroke-width="0"/><path d="M990.46096,300.48799l-7.50751,-12.01201c0,0 15.90233,-7.63104 23.22212,-14.78339c6.45565,-6.30799 14.41092,-12.24363 21.48959,-12.24363c4.73512,0 11.41704,-6.00601 19.51952,-6.00601c60.46343,0 200.03304,0 200.03304,0v22.52252c0,0 -143.73351,0 -189.52253,0c-9.3958,0 -18.61771,0.65115 -26.56671,3.40216c-6.55138,2.26732 -12.56367,6.56893 -17.1184,10.51868c-5.22675,4.53251 -23.54912,8.60169 -23.54912,8.60169z" fill="#cecece" stroke="none" stroke-width="0"/><path d="M465.14865,205.14264v-24.02402h133.63363v24.02402z" data-paper-data="{&quot;index&quot;:null}" fill="#cecece" stroke="none" stroke-width="0"/><path d="M583.76726,203.3033v-21.02102h159.15916v21.02102z" data-paper-data="{&quot;index&quot;:null}" fill="#cecece" stroke="none" stroke-width="NaN"/><path d="M711.18168,199.88739v-15.01502h148.64865v15.01502z" data-paper-data="{&quot;index&quot;:null}" fill="#cecece" stroke="none" stroke-width="0"/><path d="M823.79429,196.88438v-7.50751h121.62162v7.50751z" data-paper-data="{&quot;index&quot;:null}" fill="#cecece" stroke="none" stroke-width="0"/><path d="M281.96547,205.89339v-22.52252h67.56757v22.52252z" fill="#cecece" stroke="none" stroke-width="0"/><path d="M138.31682,204.88739v-22.52252h67.56757v22.52253z" fill="#cecece" stroke="none" stroke-width="0"/><path d="M-4.60736,203.38589v-22.52252h67.56757v22.52253z" fill="#cecece" stroke="none" stroke-width="0"/><path d="M-148.25601,202.37988v-22.52252h67.56757v22.52253z" fill="#cecece" stroke="none" stroke-width="0"/></g></g></svg>