<svg version="1.1" xmlns="http://www.w3.org/2000/svg" xmlns:xlink="http://www.w3.org/1999/xlink" width="2443.03857" height="831.70434" viewBox="0,0,2443.03857,831.70434"><g transform="translate(891.56708,-236.04343)"><g data-paper-data="{&quot;isPaintingLayer&quot;:true}" fill-rule="nonzero" stroke-linejoin="miter" stroke-miterlimit="10" stroke-dasharray="" stroke-dashoffset="0" style="mix-blend-mode: normal"><path d="M-891.56708,1067.74777v-466.95605h1288.41378c0.13826,3.99236 0.38554,8.5003 0.42206,13.83853c0.00808,1.18146 0.0939,2.36458 0.25126,3.53553c0.86384,6.42813 2.55099,12.77938 2.75174,19.26218c0.71808,23.18937 0.34313,46.40352 0,69.60147c-0.46568,31.48312 -5.39813,53.08996 -10.25925,87.24847c-3.71291,26.09024 -6.195,52.68581 -9.09719,78.85965c-2.37155,21.38815 -7.63289,48.91624 -7.67059,73.32453c-0.04329,28.02799 -0.12443,56.05633 0,84.08408c0.06266,14.11553 10.44125,25 25,25c8.50396,0 15.58094,-3.71321 20.00946,-9.61463c8.12144,10.71534 25.73136,10.53356 39.46782,10.09982c1.71863,-0.05427 3.37378,-0.23309 4.96638,-0.5309c0.53472,0.03034 1.07564,0.04571 1.62242,0.04571c8.93904,0 16.31007,-4.10806 20.67833,-10.5496c1.26244,2.00679 2.95703,3.82214 5.20877,5.37022c4.11243,2.8273 9.10548,4.67858 14.0788,5.09302c26.42745,2.20229 28.56441,-24.0596 28.57764,-42.93166c0.0331,-47.22076 -0.36018,-94.44297 -0.03711,-141.66245c1.52773,33.87327 3.09283,67.74517 4.09116,101.63715c0.60802,20.64131 -4.6178,41.91586 0.39063,61.94956c1.6363,6.54521 3.59713,13.43943 10.15625,17.1875c10.3393,5.90817 22.52723,5.08517 30.87556,-2.05778c4.31607,3.74047 10.05031,5.96403 16.6106,5.96403c14.51437,0 24.9854,-10.88436 25,-25c0.02327,-22.50292 0.03981,-45.00585 0.05099,-67.50878c0.25353,-3.96576 0.53714,-7.71818 1.04259,-10.95415c0.72276,-4.62718 3.91915,-8.93978 4.5218,-13.72692c0.80271,-6.37624 -0.35523,-12.89262 0.39063,-19.27576c0.85241,-7.29501 3.31932,-13.42566 4.27526,-20.2917c2.16427,-15.54496 4.31736,-31.10474 7.25127,-46.52297c0.42285,-2.22217 0.74866,-4.46664 1.00801,-6.7262c-5.403,52.9126 -11.53168,105.94511 -11.48349,157.97946c0.01307,14.11564 10.48704,25 25,25c14.51284,0 24.98705,-10.88436 25,-25c0.12314,-134.24241 0.12875,-268.48499 0.01681,-402.72742h874.45618v466.95606z" fill="#cecece" stroke="#000000" stroke-width="0" stroke-linecap="butt"/><path d="M640.79388,814.31544c0.73351,-5.66598 1.45777,-11.33483 2.22302,-16.99772c-1.22913,14.99488 -2.68669,30.02696 -4.214,45.07052c0.83867,-9.32554 0.79691,-18.84915 1.99098,-28.07281z" fill="#cecece" stroke="#000000" stroke-width="0" stroke-linecap="butt"/><path d="M427.2988,941.95758c-0.0053,22.21474 -0.0732,44.42963 -0.05342,66.64434c-1.47492,0.69983 -2.8523,1.49037 -4.11996,2.38104c-0.28978,-21.07375 -0.89958,-42.1532 0.11933,-63.19482c0.74152,-15.31321 2.6002,-30.54152 4.51464,-45.76404c-0.27774,16.19249 -0.45831,30.36763 -0.46059,39.93349z" fill="#cecece" stroke="#000000" stroke-width="0" stroke-linecap="butt"/><path d="" fill="#cecece" stroke="#000000" stroke-width="0" stroke-linecap="butt"/><path d="M367.21622,611.95571c0,-50.16586 1.11929,-90.83333 2.5,-90.83333c1.38071,0 2.5,40.66747 2.5,90.83333c0,50.16586 -1.11929,90.83333 -2.5,90.83333c-1.38071,0 -2.5,-40.66747 -2.5,-90.83333z" fill="#cecece" stroke="none" stroke-width="0.5" stroke-linecap="butt"/><path d="M299.14565,527.54317l141.14114,-1.5015" fill="none" stroke="#cecece" stroke-width="4" stroke-linecap="round"/><path d="M667.76303,427.24763l-119.54969,75.03965" fill="none" stroke="#cecece" stroke-width="4" stroke-linecap="round"/><path d="M413.57371,304.62001l119.54969,75.03965" data-paper-data="{&quot;index&quot;:null}" fill="none" stroke="#cecece" stroke-width="4" stroke-linecap="round"/><path d="M307.46259,239.04943l119.54969,75.03965" data-paper-data="{&quot;index&quot;:null}" fill="none" stroke="#cecece" stroke-width="4" stroke-linecap="round"/><path d="M49.69983,313.08308l119.54969,-75.03965" data-paper-data="{&quot;index&quot;:null}" fill="none" stroke="#cecece" stroke-width="4" stroke-linecap="round"/></g></g></svg>