<svg version="1.1" xmlns="http://www.w3.org/2000/svg" xmlns:xlink="http://www.w3.org/1999/xlink" width="2443.03863" height="780.6792" viewBox="0,0,2443.03863,780.6792"><g transform="translate(891.56708,-287.06858)"><g data-paper-data="{&quot;isPaintingLayer&quot;:true}" fill-rule="nonzero" stroke-linecap="butt" stroke-linejoin="miter" stroke-miterlimit="10" stroke-dasharray="" stroke-dashoffset="0" style="mix-blend-mode: normal"><path d="" fill="#cecece" stroke="#000000" stroke-width="2"/><path d="M-891.56708,1067.74777v-466.95605h1622.36319c-0.01464,134.133 -0.11191,268.26602 -0.00783,402.39897c0.01346,17.34307 16.73332,28.77873 33.41075,24.60938c6.54521,-1.6363 13.43943,-3.59713 17.1875,-10.15625c2.34634,-4.1061 3.75357,-8.92746 3.89454,-13.66803c1.12679,0.12602 2.3061,0.19088 3.54024,0.19088c4.2412,0 7.82955,-0.75295 10.86005,-2.11198c0.89885,2.91641 1.86944,5.80137 2.91984,8.6496c0.85733,2.32471 1.5707,4.71598 2.6639,6.93953c0.96361,1.95997 3.30386,2.85738 4.95879,4.28259c8.35755,7.19742 15.25369,6.57295 26.64547,6.26429c0.19855,-0.00538 0.39848,-0.01292 0.59964,-0.02264c0.29908,0.01233 0.59973,0.0199 0.90186,0.02264c11.77577,0.10711 33.087,3.36778 47.874,-1.83359c16.57049,6.10914 34.99885,-4.38195 35.0149,-23.16643c0.04729,-55.36782 0.18308,-110.73603 0.29108,-166.10421c1.86585,12.79092 4.25507,26.7356 6.75575,40.40798c0.75018,41.98667 1.47156,83.92017 1.51173,125.69623c0.02383,24.784 22.52421,25.36326 41.51652,25c1.8068,-0.03456 3.73242,-0.25955 5.67066,-0.67766c2.08451,0.43682 4.25452,0.61455 6.34135,0.67766c11.58983,0.35054 23.36013,-1.39386 29.55582,-9.58765c4.43775,5.88577 11.51957,9.58765 19.99373,9.58765c14.53081,0 24.9676,-10.88438 25,-25c0.03556,-15.48933 0.03916,-30.33533 0.02795,-44.67878l1.54227,1.97405l5.37814,1.74119l3.18919,1.92812l2.90877,0.04612l2.7677,0.89605l3.64107,-0.79444l5.65227,0.08962l3.04103,-1.9864l2.29318,-0.50035l2.52049,-2.64394l1.65192,-1.07904l1.44821,-2.17294l2.21443,-2.32289l0.84787,-2.27188l0.49094,-0.73662l1.45426,-3.64644l24.93268,-86.76573l16.54874,-23.74384l0.20306,-0.16127l0.31247,-0.57841l1.0319,-1.48055l1.9131,-3.42804l0.39498,-1.27398l0.63396,-1.17351l1.11099,-3.76525l0.33596,-1.77312l0.19468,-0.62793l-0.02683,-0.25792l0.93372,-4.92794l0.58593,0.1968l5.87197,2.12419l0.2929,-0.05355l2.10826,0.70812l9.92456,-2.75136l-5.07242,46.5469l-0.02087,2.35116l-0.04664,2.35079l2.78231,34.77884l-0.4058,1.85881l0.84978,2.13043l0.4776,2.63211l3.41098,8.34833l8.08355,7.97452l2.51005,0.46748l2.01179,1.57213l11.32813,0.78125l8.51563,-2.96875l2.28916,-1.38414l2.15944,-0.7731l1.12479,-1.53451l9.79801,-7.3485l0.94388,-0.86735l1.55612,-1.00765l2.75685,-4.10103l2.86815,-4.02397l0.39541,-1.81122l0.47959,-1.18878l10.51051,-36.03604l0.20756,-1.11449l0.01194,-0.02922l0.24649,-1.35841l0.25277,-1.35725l-0.00077,-0.03156l0.2024,-1.11544l2.94747,-36.84335l4.41041,-32.34302l0.06072,-1.69257l0.16853,-1.68526v-40.63883l0.04162,-0.13293l-0.04162,-0.41129v-2.36049l-0.39062,-3.90625l-0.35715,-1.12248l-0.1186,-1.17194l-1.19473,-3.73952l-0.93855,-2.16588l-0.12534,-0.39393l-0.09104,-0.10542l-12.01912,-27.73643l7.58052,-69.56244l0.00354,-0.39854l0.06996,-0.39237l2.57273,-33.4455h312.39731v466.95606z" fill="#cecece" stroke="#000000" stroke-width="0"/><path d="" fill="#8a8a8a" stroke="#000000" stroke-width="0"/><path d="" fill="#8a8a8a" stroke="#000000" stroke-width="0"/><path d="" fill="#8a8a8a" stroke="#000000" stroke-width="0"/><path d="" fill="#8a8a8a" stroke="#000000" stroke-width="0"/><path d="M165.08559,581.26877v-18.01802h153.15315v18.01802z" fill="#cecece" stroke="#000000" stroke-width="0"/><path d="M363.25676,505.14265l-9.00901,-10.51051c0,0 40.83668,-34.53453 59.3033,-34.53453c28.27687,0 107.36337,0 107.36337,0v18.01802c0,0 -85.25289,0 -113.36938,0c-16.65583,0 -44.28828,27.02703 -44.28828,27.02703z" fill="#cecece" stroke="#000000" stroke-width="0"/><path d="M165.56606,397.06456v-18.01802h153.15315v18.01802z" fill="#cecece" stroke="#000000" stroke-width="0"/><path d="M363.68615,300.092c0,0 8.09719,-2.84117 8.52097,-7.04108c0.71303,-7.0666 -4.63839,-5.91236 -4.63839,-5.91236c0,0 24.1311,22.00256 43.12384,23.95687c36.97274,3.80441 163.42009,16.81557 163.42009,16.81557l-3.88258,18.95944c0,0 -122.4358,-12.59838 -159.82693,-16.44584c-20.21534,-2.08011 -46.717,-30.3326 -46.717,-30.3326z" fill="#cecece" stroke="none" stroke-width="0"/><path d="M567.96847,346.01352v-18.01802h153.15316v18.01802z" fill="#cecece" stroke="#000000" stroke-width="0"/><path d="M815.47598,621.80931v-18.01802h61.56156v18.01802z" fill="#cecece" stroke="none" stroke-width="0"/></g></g></svg>