<svg version="1.1" xmlns="http://www.w3.org/2000/svg" xmlns:xlink="http://www.w3.org/1999/xlink" width="21.33333" height="26.16395" viewBox="0,0,21.33333,26.16395"><defs><radialGradient cx="543.08333" cy="313.5" r="9.91666" gradientUnits="userSpaceOnUse" id="color-1"><stop offset="0" stop-color="#ffffff"/><stop offset="1" stop-color="#66ebff"/></radialGradient></defs><g transform="translate(-527.33333,-310.91665)"><g data-paper-data="{&quot;isPaintingLayer&quot;:true}" fill-rule="nonzero" stroke="#000000" stroke-linecap="butt" stroke-linejoin="miter" stroke-miterlimit="10" stroke-dasharray="" stroke-dashoffset="0" style="mix-blend-mode: normal"><path d="M542.68664,324.63932c0.44043,0.15174 0.88803,0.2479 1.33483,0.24488c0.22497,-0.00153 0.88371,0.05518 0.67305,-0.09557c-0.48473,-0.34687 -1.25482,-0.2778 -2.00788,-0.1493zM531.47047,325.91212c-0.10696,-0.14783 -0.20268,-0.38028 -0.26531,-0.73906c-0.23717,-1.35857 0.47434,-1.81143 0.47434,-1.81143l0.61387,-0.37224c3.12804,-0.98089 6.44658,-0.97419 9.6233,-0.97419c0.79058,0 2.37226,-0.51115 3.0705,0.07349c1.22054,1.02194 1.73338,2.84066 0.56643,5.02006c-0.06234,0.11642 -0.13431,0.21638 -0.21421,0.30167c0.40037,0.6884 0.48832,1.73265 -0.00938,3.30948c-0.02729,0.08646 -0.08134,0.15902 -0.15544,0.21989c1.15924,1.48751 1.62072,4.13903 -0.35406,5.64081c-1.00201,0.76201 -2.24035,-0.26908 -3.19064,-0.58148c-3.12556,-1.0275 -6.86109,-0.61798 -10.04653,-0.61798c0,0 -0.75,0 -0.75,-1.43206c0,-0.27037 0.02673,-0.48969 0.0701,-0.66761c-0.04498,-0.18388 -0.0701,-0.38901 -0.0701,-0.60534c0,-0.3276 0.05761,-0.62952 0.15455,-0.87081l0.49545,-1.26138l0.26579,0.38062c0.36795,-0.72749 0.79599,-1.29117 1.26724,-1.72352c-0.05461,-0.02282 -0.10901,-0.04627 -0.1632,-0.07034c-0.60053,-0.26692 -1.47965,0.08401 -1.78288,-0.94108c-0.20884,-0.70601 0.09951,-1.54315 0.40018,-2.27748zM540.21786,333.1429c0.17712,0.00529 0.35449,0.0089 0.53214,0.01058c0.14807,0.00139 4.25634,0.83719 3.96606,0.03376c-0.16909,-0.468 -0.57997,-0.26113 -0.8733,-0.35895c-1.22633,0.00922 -2.42996,0.13996 -3.6249,0.31463zM534.66617,331.11865c1.13964,-0.11852 2.26782,-0.30587 3.39636,-0.49477c-1.03794,-0.08999 -2.06034,-0.05705 -3.02572,0.28343c-0.11345,0.04002 -0.23822,0.11521 -0.37064,0.21133zM538.76277,326.7616c-1.10108,-0.29848 -2.21078,-0.59009 -3.3461,-0.60933c-0.49084,-0.00833 -1.08021,0.10786 -1.61553,0.29227c0.31693,0.14294 0.58705,0.32831 0.68289,0.34998c1.34401,0.30404 2.84103,0.25728 4.27875,-0.03292z" fill="#8a8a8a" stroke-width="1"/><path d="M528.08333,321.99999v-10.33334h19.83333v10.33334z" fill="url(#color-1)" stroke-width="1.5"/></g></g></svg>