<svg version="1.1" xmlns="http://www.w3.org/2000/svg" xmlns:xlink="http://www.w3.org/1999/xlink" width="37.88696" height="77.65676" viewBox="0,0,37.88696,77.65676"><defs><linearGradient x1="533.29259" y1="399.55139" x2="533.29259" y2="418.4126" gradientUnits="userSpaceOnUse" id="color-1"><stop offset="0" stop-color="#7d7d7d"/><stop offset="1" stop-color="#adadad"/></linearGradient><linearGradient x1="-2175.1247" y1="2279.14581" x2="-2174.02877" y2="2294.00493" gradientUnits="userSpaceOnUse" id="color-2"><stop offset="0" stop-color="#7d7d7d"/><stop offset="1" stop-color="#adadad"/></linearGradient><linearGradient x1="552.54716" y1="313.98661" x2="558.58921" y2="313.98661" gradientUnits="userSpaceOnUse" id="color-3"><stop offset="0" stop-color="#006cff"/><stop offset="1" stop-color="#00a3ff"/></linearGradient><linearGradient x1="536.30548" y1="314.68504" x2="545.52442" y2="314.68504" gradientUnits="userSpaceOnUse" id="color-4"><stop offset="0" stop-color="#006cff"/><stop offset="1" stop-color="#00a3ff"/></linearGradient><linearGradient x1="548.20253" y1="314.47486" x2="549.85077" y2="314.47486" gradientUnits="userSpaceOnUse" id="color-5"><stop offset="0" stop-color="#006cff"/><stop offset="1" stop-color="#00a3ff"/></linearGradient><linearGradient x1="548.8285" y1="345.10249" x2="548.8285" y2="365.12482" gradientUnits="userSpaceOnUse" id="color-6"><stop offset="0" stop-color="#393939"/><stop offset="1" stop-color="#717171"/></linearGradient><linearGradient x1="548.8285" y1="345.10249" x2="548.8285" y2="365.12482" gradientUnits="userSpaceOnUse" id="color-7"><stop offset="0" stop-color="#393939"/><stop offset="1" stop-color="#717171"/></linearGradient><linearGradient x1="548.8285" y1="345.10249" x2="548.8285" y2="365.12482" gradientUnits="userSpaceOnUse" id="color-8"><stop offset="0" stop-color="#393939"/><stop offset="1" stop-color="#717171"/></linearGradient><linearGradient x1="547.18211" y1="343.35666" x2="551.87305" y2="361.27209" gradientUnits="userSpaceOnUse" id="color-9"><stop offset="0" stop-color="#393939"/><stop offset="1" stop-color="#717171"/></linearGradient><linearGradient x1="541.49992" y1="344.41716" x2="546.76001" y2="364.50622" gradientUnits="userSpaceOnUse" id="color-10"><stop offset="0" stop-color="#393939"/><stop offset="1" stop-color="#717171"/></linearGradient><linearGradient x1="542.5951" y1="344.65556" x2="542.5951" y2="367.10714" gradientUnits="userSpaceOnUse" id="color-11"><stop offset="0" stop-color="#393939"/><stop offset="1" stop-color="#717171"/></linearGradient><linearGradient x1="553.54024" y1="330.69154" x2="553.54024" y2="345.4679" gradientUnits="userSpaceOnUse" id="color-12"><stop offset="0" stop-color="#9e9e9e"/><stop offset="1" stop-color="#717171"/></linearGradient><linearGradient x1="539.41367" y1="329.96812" x2="539.41367" y2="342.22033" gradientUnits="userSpaceOnUse" id="color-13"><stop offset="0" stop-color="#9e9e9e"/><stop offset="1" stop-color="#717171"/></linearGradient><linearGradient x1="546.8595" y1="325.65731" x2="546.8595" y2="342.66266" gradientUnits="userSpaceOnUse" id="color-14"><stop offset="0" stop-color="#9e9e9e"/><stop offset="1" stop-color="#717171"/></linearGradient><linearGradient x1="542.36662" y1="292.11555" x2="542.36662" y2="310.68435" gradientUnits="userSpaceOnUse" id="color-15"><stop offset="0" stop-color="#9e9e9e"/><stop offset="1" stop-color="#717171"/></linearGradient><linearGradient x1="546.81563" y1="318.49428" x2="546.81563" y2="323.23661" gradientUnits="userSpaceOnUse" id="color-16"><stop offset="0" stop-color="#9e9e9e"/><stop offset="1" stop-color="#717171"/></linearGradient></defs><g transform="translate(-523.5945,-289.36468)"><g data-paper-data="{&quot;isPaintingLayer&quot;:true}" fill-rule="nonzero" stroke-linejoin="miter" stroke-miterlimit="10" stroke-dasharray="" stroke-dashoffset="0" style="mix-blend-mode: normal"><path d="" data-paper-data="{&quot;index&quot;:null}" fill="#000000" stroke="none" stroke-width="0.5" stroke-linecap="butt"/><path d="" data-paper-data="{&quot;noHover&quot;:false,&quot;origItem&quot;:[&quot;Path&quot;,{&quot;applyMatrix&quot;:true,&quot;segments&quot;:[[[214.21936,363.46624],[-0.30208,-0.37388],[3.00673,0.15442]],[[223.17564,365.12684],[-2.72214,-1.01229],[0.78421,0.29162]],[[225.23038,366.56847],[-0.80035,-0.24385],[0.7421,0.2261]],[[227.55523,366.4612],[-0.77495,0.03576],[3.50491,0]],[[238.06996,366.4612],[-3.50491,0],[-1.08058,-2.14878]],[[237.21302,359.55162],[0.01277,2.28708],[0,0]],[[239.71302,357.05162],[-2.5,0],[2.5,0]],[[242.21302,359.55162],[0,0],[-0.01909,2.79627]],[[244.14909,365.09479],[-2.53148,-1.37374],[0,0]],[[244.57107,366.4612],[0,0],[7.03354,0]],[[265.67169,366.4612],[-7.03354,0],[3.04925,0]],[[274.81964,366.4612],[-3.04923,-0.00986],[0.84642,0.00274]],[[277.35997,366.4598],[-0.84249,-0.07098],[-2.84376,-3.86932]],[[269.2555,354.64224],[2.9011,3.87495],[-1.52693,-2.0395]],[[264.37183,348.76265],[1.03081,2.32992],[-0.4631,-1.04675]],[[264.2484,345.33101],[0.26442,1.11366],[-0.24124,-1.01601]],[[261.55208,340.80707],[0.56849,0.84929],[0,0]],[[261.11463,339.02281],[-0.11332,0.95811],[-0.5179,0.09202]],[[259.60671,339.31511],[0.48224,-0.10965],[-4.9579,1.12734]],[[244.77858,341.16631],[4.93186,-0.53102],[-0.36495,0.13559]],[[243.66918,341.57508],[0.37522,-0.13655],[-2.05219,0.74685]],[[237.17595,342.44759],[2.13113,-0.47702],[-1.33538,0.29891]],[[233.36431,343.97224],[1.3434,-0.26048],[-3.96057,0.76793]],[[221.09473,343.98507],[3.96691,-0.63065],[-1.45541,0.23138]],[[216.91087,345.41372],[1.39462,-0.47622],[0,0]],[[216.89509,345.41869],[0.01038,-0.00317],[-0.03209,0.04913]],[[216.84315,345.4943],[0,0],[-0.66286,0.84427]],[[214.85458,348.02711],[0.40217,-0.9952],[-0.90439,2.23798]],[[214.22695,355.24129],[0.57394,-2.34458],[-0.27021,1.10382]],[[212.7023,358.2906],[0.23015,-1.11286],[-0.27004,1.30575]],[[212.76917,362.29019],[-0.0223,-1.33319],[0,0]],[[212.76917,362.68043],[0,0],[0.69117,0.09707]]],&quot;closed&quot;:true}],&quot;index&quot;:null}" fill="url(#color-1)" stroke="none" stroke-width="0.5" stroke-linecap="butt"/><path d="" data-paper-data="{&quot;index&quot;:null}" fill="#000000" stroke="none" stroke-width="0.5" stroke-linecap="butt"/><path d="" data-paper-data="{&quot;noHover&quot;:false,&quot;origItem&quot;:[&quot;Path&quot;,{&quot;applyMatrix&quot;:true,&quot;segments&quot;:[[[214.21936,363.46624],[-0.30208,-0.37388],[3.00673,0.15442]],[[223.17564,365.12684],[-2.72214,-1.01229],[0.78421,0.29162]],[[225.23038,366.56847],[-0.80035,-0.24385],[0.7421,0.2261]],[[227.55523,366.4612],[-0.77495,0.03576],[3.50491,0]],[[238.06996,366.4612],[-3.50491,0],[-1.08058,-2.14878]],[[237.21302,359.55162],[0.01277,2.28708],[0,0]],[[239.71302,357.05162],[-2.5,0],[2.5,0]],[[242.21302,359.55162],[0,0],[-0.01909,2.79627]],[[244.14909,365.09479],[-2.53148,-1.37374],[0,0]],[[244.57107,366.4612],[0,0],[7.03354,0]],[[265.67169,366.4612],[-7.03354,0],[3.04925,0]],[[274.81964,366.4612],[-3.04923,-0.00986],[0.84642,0.00274]],[[277.35997,366.4598],[-0.84249,-0.07098],[-2.84376,-3.86932]],[[269.2555,354.64224],[2.9011,3.87495],[-1.52693,-2.0395]],[[264.37183,348.76265],[1.03081,2.32992],[-0.4631,-1.04675]],[[264.2484,345.33101],[0.26442,1.11366],[-0.24124,-1.01601]],[[261.55208,340.80707],[0.56849,0.84929],[0,0]],[[261.11463,339.02281],[-0.11332,0.95811],[-0.5179,0.09202]],[[259.60671,339.31511],[0.48224,-0.10965],[-4.9579,1.12734]],[[244.77858,341.16631],[4.93186,-0.53102],[-0.36495,0.13559]],[[243.66918,341.57508],[0.37522,-0.13655],[-2.05219,0.74685]],[[237.17595,342.44759],[2.13113,-0.47702],[-1.33538,0.29891]],[[233.36431,343.97224],[1.3434,-0.26048],[-3.96057,0.76793]],[[221.09473,343.98507],[3.96691,-0.63065],[-1.45541,0.23138]],[[216.91087,345.41372],[1.39462,-0.47622],[0,0]],[[216.89509,345.41869],[0.01038,-0.00317],[-0.03209,0.04913]],[[216.84315,345.4943],[0,0],[-0.66286,0.84427]],[[214.85458,348.02711],[0.40217,-0.9952],[-0.90439,2.23798]],[[214.22695,355.24129],[0.57394,-2.34458],[-0.27021,1.10382]],[[212.7023,358.2906],[0.23015,-1.11286],[-0.27004,1.30575]],[[212.76917,362.29019],[-0.0223,-1.33319],[0,0]],[[212.76917,362.68043],[0,0],[0.69117,0.09707]]],&quot;closed&quot;:true}],&quot;index&quot;:null}" fill="url(#color-2)" stroke="none" stroke-width="0.5" stroke-linecap="butt"/><path d="" fill="#000000" stroke="none" stroke-width="0.5" stroke-linecap="butt"/><path d="M552.71232,311.92267c1.38685,-0.2427 2.79081,-0.3649 4.4586,0.0168l1.41829,-0.11379c-0.01325,1.10154 -0.0724,2.23253 -0.17463,3.29686c-0.38557,-0.04422 -0.71032,0.06825 -0.71032,0.06825c-1.61096,0.56212 -3.39205,0.90095 -5.15711,1.08717c0.00824,-0.93095 0.05301,-1.89548 0.1558,-2.82049z" data-paper-data="{&quot;noHover&quot;:false,&quot;origItem&quot;:[&quot;Path&quot;,{&quot;applyMatrix&quot;:true,&quot;segments&quot;:[[[1095.48797,616.93017],[0,0],[-0.20556,1.85001]],[[1095.16083,622.5055],[0.01649,-1.8619],[3.53012,-0.37244]],[[1105.33578,620.34065],[-3.22192,1.12423],[0,0]],[[1106.75161,620.21419],[-0.77114,-0.08843],[0.20447,-2.12866]],[[1107.11054,613.69993],[-0.02651,2.20308],[0,0]],[[1104.2904,613.94467],[0,0],[-3.33558,-0.7634]],[[1095.49225,613.89425],[2.7737,-0.4854],[0,0]]],&quot;closed&quot;:true}]}" fill="url(#color-3)" stroke="none" stroke-width="0.5" stroke-linecap="butt"/><path d="M545.37202,316.41364c-2.82526,-0.10186 -5.70695,-0.30221 -8.31486,-0.30221l-0.75168,0.12975c0.03443,-0.88491 0.07693,-1.80381 0.14946,-2.68746c2.92445,-0.30566 6.03766,-0.38045 9.02121,-0.59728l0.04825,0.24818c0.00149,0.94929 -0.05159,1.92535 -0.15789,2.86867c0,0 -0.01647,0.14257 0.00552,0.34035z" data-paper-data="{&quot;noHover&quot;:false,&quot;origItem&quot;:[&quot;Path&quot;,{&quot;applyMatrix&quot;:true,&quot;segments&quot;:[[[1080.65332,622.12172],[0,0],[0.21261,-1.88664]],[[1080.96932,616.43475],[0.00299,1.89858],[0,0]],[[1080.87424,615.94245],[0,0],[-5.96709,0.43366]],[[1062.99078,617.12796],[5.8489,-0.61131],[-0.14506,1.76731]],[[1062.69003,622.45567],[0.06885,-1.76981],[0,0]],[[1064.19261,622.19392],[0,0],[5.21582,0]],[[1080.66622,622.7971],[-5.65053,-0.20373],[-0.04399,-0.39556]]],&quot;closed&quot;:true}]}" fill="url(#color-4)" stroke="none" stroke-width="0.5" stroke-linecap="butt"/><path d="M548.31291,312.66099c0.50251,-0.0604 1.03291,-0.12856 1.52863,-0.20677l0.00923,0.81491c-0.11555,1.04 -0.175,2.16236 -0.17961,3.2089c-0.47835,0.01295 -0.98722,0.01758 -1.46863,0.01745c0.00888,-0.04631 0.01158,-0.07348 0.01158,-0.07348c0.11525,-1.05068 0.17201,-2.18511 0.1735,-3.2421z" data-paper-data="{&quot;noHover&quot;:false,&quot;origItem&quot;:[&quot;Path&quot;,{&quot;applyMatrix&quot;:true,&quot;segments&quot;:[[[1086.81195,616.43475],[0,0],[-0.00298,2.11398]],[[1086.46022,622.76693],[0.2305,-2.10137],[0,0]],[[1086.43644,622.91363],[0.01777,-0.09261],[0.96282,0.00027]],[[1089.31661,622.87666],[-0.95671,0.02591],[0.00922,-2.09308]],[[1089.65427,616.60707],[-0.23111,2.08],[0,0]],[[1089.65172,614.98581],[0,0],[-0.99144,0.15641]],[[1086.65624,615.3997],[1.00502,-0.1208],[0,0]]],&quot;closed&quot;:true}]}" fill="url(#color-5)" stroke="none" stroke-width="0.5" stroke-linecap="butt"/><path d="M546.97861,345.49731c0.59376,-0.0412 1.18847,-0.17473 1.73094,-0.39482c0.02584,0.10343 0.05102,0.16586 0.05102,0.16586c0.44853,1.11213 0.77643,2.29865 1.01932,3.52872c-0.65543,-0.04904 -1.30975,-0.11138 -1.96283,-0.18573c-0.12507,-0.68361 -0.32153,-1.34586 -0.61137,-1.97793c-0.00029,-0.00063 -0.00047,-0.00066 -0.00054,-0.00017z" data-paper-data="{&quot;noHover&quot;:false,&quot;origItem&quot;:[&quot;Path&quot;,{&quot;applyMatrix&quot;:true,&quot;segments&quot;:[[1084.41817,683.30254],[[1084.40675,683.30483],[0,0],[0.00679,0.01464]],[[1084.42703,683.3488],[-0.00673,-0.01468],[2.37574,5.18106]],[[1085.23593,700.62198],[0.87263,-5.99234],[0.56264,4.20632]],[[1086.79716,713.29588],[-0.39405,-4.26276],[0.2154,1.93864]],[[1087.24948,719.13008],[-0.40813,-1.90739],[0.63079,2.94797]],[[1091.18463,717.20284],[-0.24832,0.66559],[0.1736,-0.46531]],[[1091.32275,712.06563],[0.01788,0.32408],[-0.55598,-10.07886]],[[1087.52169,680.62017],[3.8025,9.42836],[0,0]],[[1087.42007,680.28843],[0.05167,0.20687],[-1.08495,0.44018]],[[1083.97297,681.07658],[1.18752,-0.0824],[0,0]]],&quot;closed&quot;:true}]}" fill="url(#color-6)" stroke="none" stroke-width="0.5" stroke-linecap="butt"/><path d="M547.21182,346.69328c0.00045,-0.00612 -0.0074,-0.05548 -0.00667,-0.06005l0.01177,0.05903z" data-paper-data="{&quot;noHover&quot;:false,&quot;origItem&quot;:[&quot;Path&quot;,{&quot;applyMatrix&quot;:true,&quot;segments&quot;:[[1084.41817,683.30254],[[1084.40675,683.30483],[0,0],[0.00679,0.01464]],[[1084.42703,683.3488],[-0.00673,-0.01468],[2.37574,5.18106]],[[1085.23593,700.62198],[0.87263,-5.99234],[0.56264,4.20632]],[[1086.79716,713.29588],[-0.39405,-4.26276],[0.2154,1.93864]],[[1087.24948,719.13008],[-0.40813,-1.90739],[0.63079,2.94797]],[[1091.18463,717.20284],[-0.24832,0.66559],[0.1736,-0.46531]],[[1091.32275,712.06563],[0.01788,0.32408],[-0.55598,-10.07886]],[[1087.52169,680.62017],[3.8025,9.42836],[0,0]],[[1087.42007,680.28843],[0.05167,0.20687],[-1.08495,0.44018]],[[1083.97297,681.07658],[1.18752,-0.0824],[0,0]]],&quot;closed&quot;:true}]}" fill="url(#color-7)" stroke="none" stroke-width="0.5" stroke-linecap="butt"/><path d="M547.21124,346.6934l0.00058,-0.00012c-0.00006,0.00076 -0.00024,0.00085 -0.00058,0.00012z" data-paper-data="{&quot;noHover&quot;:false,&quot;origItem&quot;:[&quot;Path&quot;,{&quot;applyMatrix&quot;:true,&quot;segments&quot;:[[1084.41817,683.30254],[[1084.40675,683.30483],[0,0],[0.00679,0.01464]],[[1084.42703,683.3488],[-0.00673,-0.01468],[2.37574,5.18106]],[[1085.23593,700.62198],[0.87263,-5.99234],[0.56264,4.20632]],[[1086.79716,713.29588],[-0.39405,-4.26276],[0.2154,1.93864]],[[1087.24948,719.13008],[-0.40813,-1.90739],[0.63079,2.94797]],[[1091.18463,717.20284],[-0.24832,0.66559],[0.1736,-0.46531]],[[1091.32275,712.06563],[0.01788,0.32408],[-0.55598,-10.07886]],[[1087.52169,680.62017],[3.8025,9.42836],[0,0]],[[1087.42007,680.28843],[0.05167,0.20687],[-1.08495,0.44018]],[[1083.97297,681.07658],[1.18752,-0.0824],[0,0]]],&quot;closed&quot;:true}]}" fill="url(#color-8)" stroke="none" stroke-width="0.5" stroke-linecap="butt"/><path d="M542.5167,348.67568c0,0.67506 -0.38223,1.26085 -0.94207,1.55274c-0.00345,0.08387 -0.00635,0.16755 -0.00867,0.25101l0,0.00001c-0.08787,3.15269 1.53211,6.92264 2.60261,9.83346c0.42158,0.68753 2.46341,4.4946 3.64157,3.86137c1.07556,-0.57808 -0.19228,-3.00423 -0.43529,-3.63687c-0.9054,-2.35704 -1.19176,-4.83569 -1.5958,-7.3006c-0.75525,-1.85766 -1.48634,-3.72436 -2.08488,-5.65677c0.09897,-0.0109 0.19782,-0.02075 0.29656,-0.0295c-0.00536,-0.25938 -0.00826,-0.51927 -0.00849,-0.77973v-1.5024c0,-0.12786 0.01643,-0.25189 0.04729,-0.37009c-0.10748,-0.06249 -0.21218,-0.12956 -0.3137,-0.20124c-0.51983,0.97646 -1.02761,1.99158 -1.48371,3.0217c0.17994,0.275 0.28457,0.60375 0.28457,0.95692zM548.49065,352.77456c0.74446,1.81594 1.50749,3.6263 2.18313,5.48724c0.32346,0.84209 0.47976,1.75163 0.8858,2.55716c0.62754,1.24499 1.50165,-0.99634 1.53477,-1.3232c0.02316,-0.22851 -0.49403,-2.17161 -0.53999,-2.31449c-0.84715,-2.63379 -1.59585,-5.60559 -2.64928,-8.37499c-0.04427,-0.0032 -0.08854,-0.00646 -0.13281,-0.00978c-0.04826,-0.24253 -0.09989,-0.48344 -0.15518,-0.72249c-0.16539,-0.40639 -0.33833,-0.80723 -0.52015,-1.20073c0.0649,-0.01208 0.12978,-0.0243 0.19463,-0.03666c-0.15492,-0.52103 -0.33077,-1.03072 -0.53073,-1.52653c0,0 -0.02498,-0.06244 -0.05081,-0.16587c-0.54247,0.22009 -1.12979,0.35288 -1.72355,0.39408l0.22259,1.11297l-0.00571,0.00115c0.00339,0.00732 0.00677,0.01464 0.01014,0.02198c0.28512,0.62179 0.48181,1.27005 0.61005,1.93768c-0.01181,-0.00134 -0.02363,-0.00269 -0.03544,-0.00404c0.36135,1.3257 0.54392,2.74963 0.70253,4.16652zM554.59049,354.91294c0.47137,1.47829 1.38496,3.28763 1.18792,4.89421c-0.31141,2.53902 -2.65133,4.67735 -4.85484,3.80787c-0.03406,0.35035 -0.11911,0.69662 -0.26992,1.03564c-2.5721,5.78222 -7.30087,-0.49787 -8.91614,-3.15844c-1.25049,-3.33894 -2.93692,-7.46071 -2.87277,-11.07786c0.01021,-0.57563 0.04769,-1.16174 0.1068,-1.75288c0.01512,-0.00458 0.03025,-0.00916 0.04537,-0.01373c0.00426,-0.27218 0.07066,-0.52928 0.18563,-0.75773c-0.0737,0.0024 -0.1474,0.00491 -0.2211,0.00752c0.3282,-0.83435 0.69864,-1.66518 1.09159,-2.48141c0.02181,0.00621 0.04485,0.00955 0.06866,0.00955c0.13807,0 0.25,-0.11193 0.25,-0.25c0,-0.08303 -0.04048,-0.15661 -0.10279,-0.20208c0.49676,-1.00546 1.02269,-1.98536 1.54012,-2.91852l-0.00167,-0.23988c-0.46046,0.53512 -0.99404,1.04926 -1.6084,1.55579l-0.00001,-0.00002c-2.35843,1.94448 -4.8212,2.31912 -5.88695,-1.13799c-0.45837,-1.48686 0.12132,-2.57905 0.5371,-3.9158c0.67437,-2.16817 1.209,-4.40148 2.27071,-6.4171c1.03922,-1.97294 2.59625,-3.5755 3.46276,-5.58747c0,0 0.03897,-0.08767 0.1194,-0.2081c-0.3644,-0.01846 -0.73139,-0.04554 -1.10153,-0.08246c-0.94577,-0.09434 -3.7619,-0.26256 -4.44045,-0.69933c-2.14695,-1.38195 -1.83915,-2.3924 -1.8814,-4.42645c-0.04754,-2.2883 -0.00887,-4.92219 0.23993,-7.45243c-1.40813,-0.47508 -2.52504,-1.48061 -4.17714,-1.82359c-2.14785,-0.74721 -3.25036,-1.51501 -4.38966,-3.53102c-1.66442,-2.94522 -2.67754,-9.57163 2.16469,-10.18369c2.0267,-0.25617 4.38046,1.29286 6.54048,1.16655c1.38036,-0.08072 3.09142,-0.49249 4.66409,-0.43061c-0.84173,-2.22677 -1.28933,-4.52778 -0.45103,-6.61243c1.27245,-3.16426 4.00774,-2.76538 6.8651,-2.46695c4.75843,0.49698 8.49665,2.41535 11.64104,6.00581c4.66647,5.51451 5.60228,13.17163 4.85562,20.13986c-0.3067,2.86233 -1.16638,6.19165 -3.50484,8.13211c-1.91656,1.59037 -4.15972,1.33735 -6.4581,1.47535c1.01955,2.01567 2.52995,3.438 3.73651,5.31901c1.75716,2.7394 2.39345,6.34962 2.72181,9.48228c0.16301,1.55515 1.06807,3.87086 0.65071,5.41626c-0.58601,2.16989 -1.80077,3.37523 -4.25988,2.37756c-1.79602,-0.72866 -2.41474,-3.6636 -2.59987,-5.29158c-0.08246,-0.20198 -0.16191,-0.40435 -0.23923,-0.60694c-0.07198,0.44696 -0.18062,0.85018 -0.34277,1.16744c-0.04722,0.09238 -0.09805,0.18219 -0.15228,0.26943c0.46692,0.27015 0.66945,0.77647 0.66945,0.77647c0.58568,1.47486 0.96865,3.03132 1.22701,4.62706c0.69144,2.02587 1.2648,4.09924 1.89025,6.06073zM558.46393,308.92928c-0.32332,-4.17695 -1.52537,-8.29163 -4.27614,-11.44892c-2.63837,-3.01807 -5.70046,-4.63039 -9.7263,-5.01173c-0.74151,-0.07024 -2.9285,-0.57982 -3.64072,-0.12555c-0.60122,0.38347 -0.39209,2.57884 -0.28846,3.06256c0.58015,2.70803 1.95815,5.19344 3.07367,7.70336l0.65484,1.47339c0.08902,0.18877 0.13878,0.3997 0.13878,0.62223c0,0.8067 -0.65396,1.46066 -1.46066,1.46066c-0.55962,0 -1.04574,-0.31471 -1.29102,-0.7768l-0.80901,-1.45623c-0.74416,-0.7367 -0.80675,-2.07037 -1.67267,-2.65923c-1.52269,-1.0355 -5.49597,0.38818 -7.2373,0.20943c-0.70097,-0.07196 -4.69217,-1.58409 -5.10261,-0.97089c-1.70999,2.55477 0.86338,7.03199 3.31484,7.79339c1.53157,0.35834 2.47811,1.2931 3.77441,1.84861c0.12286,-0.69106 0.26722,-1.3593 0.43607,-1.9938c0,0 0.38432,-1.40919 1.79351,-1.02486c1.40919,0.38432 1.02486,1.79351 1.02486,1.79351c-0.09423,0.33549 -0.17721,0.67963 -0.25048,1.03071c0.5917,-0.17584 1.15851,-0.34423 1.59837,-0.36947c3.54733,-0.20353 7.36105,0.06658 10.86434,-0.48417c3.01494,-0.47399 5.26545,-1.16384 8.39666,-0.48487l0.6451,-0.18704c0,0 0.01417,-0.00202 0.03991,-0.00426zM537.09631,319.01828l-0.54821,0.13856c0,0 -0.1282,0.02564 -0.31555,0.02323c-0.00462,0.096 -0.00943,0.19154 -0.01445,0.28657c-0.03727,0.70508 -0.48553,2.93555 0.45747,3.34662c0.99385,0.43324 2.15967,0.1941 3.23844,0.30226c3.0498,0.30579 5.87589,-0.11305 8.82641,-0.47177c0.08821,-0.01834 0.18358,-0.03026 0.2867,-0.0346c0.47991,-0.05741 0.96339,-0.11258 1.45192,-0.16215c1.55312,-0.13997 4.10861,0.31662 5.36276,-0.82182c0.78426,-0.7119 1.32884,-1.62182 1.71029,-2.60889c-0.41446,-0.0215 -0.78322,-0.21576 -1.03563,-0.51216c-6.22137,1.39357 -13.14243,0.51414 -19.42016,0.51414zM545.06509,327.15355c0.00212,4.27992 -0.16572,8.57172 -0.16693,12.85918c0.02444,0.22958 0.14034,1.84963 0.35694,2.18198c0.39855,0.61152 2.82793,0.57849 3.02133,-0.17897c1.37075,-5.36868 -0.20492,-10.97779 -0.5566,-16.31691c-0.84427,0.10037 -1.68231,0.19724 -2.5217,0.27417zM545.32666,316.06086c0.10631,-0.94332 0.15949,-1.89419 0.158,-2.84348l-0.04754,-0.24615c-2.98355,0.21683 -6.01728,0.2871 -8.94173,0.59276c-0.07253,0.88365 -0.11595,1.77895 -0.15038,2.66386l0.75129,-0.13088c2.60791,0 5.41154,0.19973 8.23681,0.30159c-0.02199,-0.19778 -0.00645,-0.33769 -0.00645,-0.33769zM541.81558,330.00694c-0.71309,1.05899 -1.47072,2.08958 -2.09186,3.25606c-0.98555,1.8508 -1.4304,3.94615 -2.06953,5.9359c-0.05975,0.18601 -0.9088,2.71122 -0.56807,2.92896c0.43977,0.28103 0.84114,-0.62103 1.22778,-0.97158c1.9786,-1.79392 2.72337,-2.99784 3.01721,-5.64245c0.35009,-1.54245 0.33235,-3.00408 0.48829,-4.58002l-0.00725,-0.85625c0,0 0,-0.02583 0.00343,-0.07062zM552.74398,313.46509c-0.10278,0.925 -0.15532,1.85672 -0.16357,2.78767c1.76506,-0.18622 3.47652,-0.52031 5.08748,-1.08243c0,0 0.32234,-0.10744 0.70791,-0.06323c0.10223,-1.06433 0.16621,-2.15559 0.17946,-3.25713l-1.41007,0.12237c-1.66779,-0.3817 -3.01223,-0.26791 -4.39908,-0.02521zM552.5654,337.08677c0.6794,1.58722 1.17311,3.21013 1.80632,4.82174c0.09723,0.89693 0.28901,1.80613 0.67746,2.62041c0.13766,0.28857 0.39198,1.1408 0.47645,0.83245c0.37302,-1.36181 -0.54246,-3.6024 -0.68564,-4.95699c-0.28324,-2.67984 -0.75418,-5.87129 -2.28616,-8.21257c-0.33331,-0.50939 -0.68478,-0.99012 -1.04126,-1.46005c0.02781,0.25558 0.04939,0.51139 0.0629,0.76742c0.07652,1.45022 -0.01844,2.88914 -0.09269,4.33002c0.84092,0.16869 1.03694,0.91761 1.08263,1.25758zM548.40598,313.21738c-0.00149,1.05699 -0.06062,2.11541 -0.17587,3.16609c0,0 -0.00301,0.02704 -0.01189,0.07335c0.48141,0.00014 0.96173,-0.00553 1.44009,-0.01848c0.00461,-1.04654 0.05327,-2.09479 0.16883,-3.13479l-0.00127,-0.81063c-0.49572,0.07821 -0.99523,0.14655 -1.49774,0.20695z" fill="#000000" stroke="none" stroke-width="0.5" stroke-linecap="butt"/><path d="M552.57476,357.21404c0.04596,0.14289 0.55993,2.08778 0.53677,2.31628c-0.03313,0.32686 -0.91543,2.57117 -1.54297,1.32618c-0.40603,-0.80553 -0.56399,-1.71471 -0.88745,-2.5568c-0.67565,-1.86094 -1.48126,-3.69354 -2.22572,-5.50948c-0.21669,-1.93573 -0.46907,-3.90903 -1.16449,-5.61749c0.606,-0.08867 1.21026,-0.18851 1.81234,-0.30063c1.5134,3.28541 2.42556,7.09006 3.47152,10.34194z" data-paper-data="{&quot;noHover&quot;:false,&quot;origItem&quot;:[&quot;Path&quot;,{&quot;applyMatrix&quot;:true,&quot;segments&quot;:[[1084.41817,683.30254],[[1084.40675,683.30483],[0,0],[0.00679,0.01464]],[[1084.42703,683.3488],[-0.00673,-0.01468],[2.37574,5.18106]],[[1085.23593,700.62198],[0.87263,-5.99234],[0.56264,4.20632]],[[1086.79716,713.29588],[-0.39405,-4.26276],[0.2154,1.93864]],[[1087.24948,719.13008],[-0.40813,-1.90739],[0.63079,2.94797]],[[1091.18463,717.20284],[-0.24832,0.66559],[0.1736,-0.46531]],[[1091.32275,712.06563],[0.01788,0.32408],[-0.55598,-10.07886]],[[1087.52169,680.62017],[3.8025,9.42836],[0,0]],[[1087.42007,680.28843],[0.05167,0.20687],[-1.08495,0.44018]],[[1083.97297,681.07658],[1.18752,-0.0824],[0,0]]],&quot;closed&quot;:true}]}" fill="url(#color-9)" stroke="none" stroke-width="0.5" stroke-linecap="butt"/><path d="M545.81012,353.21386c0.40404,2.46491 0.6776,5.00053 1.58301,7.35756c0.24302,0.63264 1.50632,3.06085 0.43076,3.63893c-1.17816,0.63322 -3.23338,-3.17132 -3.65496,-3.85885c-1.07051,-2.91082 -2.71163,-6.75189 -2.62376,-9.90456c0.02315,-0.83066 0.10525,-1.6837 0.22704,-2.5408c0.64702,-0.14315 1.2924,-0.25727 1.93324,-0.32735c0.60586,1.92399 1.35401,3.78871 2.10467,5.63507z" data-paper-data="{&quot;noHover&quot;:false,&quot;origItem&quot;:[&quot;Path&quot;,{&quot;applyMatrix&quot;:true,&quot;segments&quot;:[[[1072.00798,692.02832],[1.24434,-4.26381],[-1.91055,6.54663]],[[1072.06621,714.02337],[-0.64499,-6.67517],[0.50528,1.66908]],[[1077.56871,724.09509],[-2.8113,0.67928],[2.56645,-0.62012]],[[1078.65013,716.2491],[0.16183,1.45645],[-0.60293,-5.42633]],[[1079.31067,700.10372],[-0.5049,5.37738],[-0.71558,-5.47088]],[[1077.96453,683.5416],[0.00485,5.61117],[0,0]],[[1077.96453,680.53681],[0,0],[0,-0.25573]],[[1078.05912,679.79663],[-0.06173,0.23639],[-0.21497,-0.12498]],[[1077.43171,679.39415],[0.20304,0.14337],[-2.14075,4.02126]]],&quot;closed&quot;:true}]}" fill="url(#color-10)" stroke="none" stroke-width="0.5" stroke-linecap="butt"/><path d="M543.72007,344.65556c0.10152,0.07169 0.20747,0.13889 0.31495,0.20139c-0.03086,0.1182 -0.04729,0.24223 -0.04729,0.37009l0.00088,1.50252c0.00038,0.44379 0.00935,0.88659 0.02558,1.32843c-0.61534,-0.08722 -1.24347,-0.14004 -1.87948,-0.1687c0.48391,-1.10295 1.03006,-2.19065 1.58536,-3.23374z" data-paper-data="{&quot;noHover&quot;:false,&quot;origItem&quot;:[&quot;Path&quot;,{&quot;applyMatrix&quot;:true,&quot;segments&quot;:[[[1072.00798,692.02832],[1.24434,-4.26381],[-1.91055,6.54663]],[[1072.06621,714.02337],[-0.64499,-6.67517],[0.50528,1.66908]],[[1077.56871,724.09509],[-2.8113,0.67928],[2.56645,-0.62012]],[[1078.65013,716.2491],[0.16183,1.45645],[-0.60293,-5.42633]],[[1079.31067,700.10372],[-0.5049,5.37738],[-0.71558,-5.47088]],[[1077.96453,683.5416],[0.00485,5.61117],[0,0]],[[1077.96453,680.53681],[0,0],[0,-0.25573]],[[1078.05912,679.79663],[-0.06173,0.23639],[-0.21497,-0.12498]],[[1077.43171,679.39415],[0.20304,0.14337],[-2.14075,4.02126]]],&quot;closed&quot;:true}]}" fill="url(#color-11)" stroke="none" stroke-width="0.5" stroke-linecap="butt"/><path d="M551.45455,335.79845c0.07425,-1.44088 0.18544,-2.88903 0.10892,-4.33925c-0.01351,-0.25603 -0.03424,-0.51208 -0.06205,-0.76766c0.35648,0.46992 0.71213,0.94972 1.04545,1.45911c1.53198,2.34128 2.03014,5.61037 2.31338,8.2902c0.14317,1.3546 1.04933,3.59897 0.67631,4.96078c-0.08447,0.30836 -0.34026,-0.54351 -0.47792,-0.83208c-0.38845,-0.81428 -0.58091,-1.72332 -0.67814,-2.62025c-0.63321,-1.61161 -1.16506,-3.30497 -1.84446,-4.89219c-0.04569,-0.33997 -0.24056,-1.08997 -1.08148,-1.25867z" data-paper-data="{&quot;noHover&quot;:false,&quot;origItem&quot;:[&quot;Path&quot;,{&quot;applyMatrix&quot;:true,&quot;segments&quot;:[[[1095.1308,664.17353],[-0.09138,-0.67994],[1.3588,3.17445]],[[1098.74344,673.81701],[-1.26643,-3.22323],[0.19447,1.79386]],[[1100.09835,679.05782],[-0.77689,-1.62856],[0.27532,0.57713]],[[1101.05124,680.72271],[-0.16893,0.61671],[0.74605,-2.72363]],[[1099.67997,670.80873],[0.28634,2.70919],[-0.56648,-5.35967]],[[1095.10764,654.38359],[3.06397,4.68256],[-0.66663,-1.01879]],[[1093.02512,651.4635],[0.71296,0.93985],[0.05562,0.51116]],[[1093.15091,652.99834],[-0.02702,-0.51205],[0.15304,2.90043]],[[1092.96554,661.65838],[0.1485,-2.88175],[1.68185,0.33738]]],&quot;closed&quot;:true}]}" fill="url(#color-12)" stroke="none" stroke-width="0.5" stroke-linecap="butt"/><path d="M541.8276,330.03879l0.00943,0.85719c-0.15594,1.57594 -0.1159,3.06331 -0.46599,4.60576c-0.29385,2.64461 -1.08741,3.9014 -3.06601,5.69532c-0.38664,0.35055 -0.79417,1.25077 -1.23394,0.96974c-0.34073,-0.21774 0.50276,-2.74558 0.56251,-2.93159c0.63913,-1.98976 1.10912,-4.1629 2.09466,-6.0137c0.62114,-1.16648 1.38954,-2.19441 2.10263,-3.25339c-0.00343,0.04479 -0.0033,0.07067 -0.0033,0.07067z" data-paper-data="{&quot;noHover&quot;:false,&quot;origItem&quot;:[&quot;Path&quot;,{&quot;applyMatrix&quot;:true,&quot;segments&quot;:[[[1073.63116,650.01387],[-0.00687,0.08958],[-1.42618,2.11797]],[[1069.44743,656.52599],[1.24229,-2.33296],[-1.97109,3.7016]],[[1065.30836,668.3978],[1.27826,-3.97951],[-0.1195,0.37202]],[[1064.17222,674.25572],[-0.68146,-0.43548],[0.87954,0.56207]],[[1066.62778,672.31256],[-0.77328,0.70111],[3.9572,-3.58784]],[[1072.66221,661.02765],[-0.58769,5.28922],[0.70018,-3.0849]],[[1073.63879,651.86762],[-0.31189,3.15187],[0,0]],[1073.62429,650.15511]],&quot;closed&quot;:true}]}" fill="url(#color-13)" stroke="none" stroke-width="0.5" stroke-linecap="butt"/><path d="M545.18981,325.9321c0.83939,-0.07693 1.68995,-0.17443 2.53422,-0.27479c0.35168,5.33911 1.93054,11.03082 0.55979,16.3995c-0.1934,0.75745 -2.63836,0.79034 -3.03691,0.17882c-0.2166,-0.33235 -0.3376,-1.95375 -0.36203,-2.18333c0.00121,-4.28746 0.17196,-8.65925 0.16984,-12.93917z" data-paper-data="{&quot;noHover&quot;:false,&quot;origItem&quot;:[&quot;Path&quot;,{&quot;applyMatrix&quot;:true,&quot;segments&quot;:[[[1080.13018,644.30709],[0,0],[0.00423,8.55984]],[[1079.79632,670.02545],[0.00242,-8.57492],[0.04887,0.45917]],[[1080.5102,674.38941],[-0.43321,-0.6647],[0.79709,1.22304]],[[1086.55285,674.03147],[-0.38679,1.51491],[2.7415,-10.73736]],[[1085.43966,641.39766],[0.70336,10.67823],[-1.68854,0.20073]],[[1080.39626,641.946],[1.67878,-0.15386],[0,0]]],&quot;closed&quot;:true}]}" fill="url(#color-14)" stroke="none" stroke-width="0.5" stroke-linecap="butt"/><path d="M558.46181,308.95126l-0.64557,0.188c-3.13121,-0.67897 -5.39191,0.02392 -8.40685,0.49791c-3.50329,0.55075 -7.36105,0.28707 -10.90839,0.4906c-0.43986,0.02524 -1.01127,0.19124 -1.60297,0.36708c0.07327,-0.35108 0.15507,-0.69596 0.2493,-1.03145c0,0 0.37752,-1.41469 -1.03166,-1.79901c-1.40919,-0.38432 -1.73307,0.96734 -1.73307,0.96734c-0.16885,0.6345 -0.37231,1.36154 -0.49517,2.05261c-1.29631,-0.5555 -2.2504,-1.49946 -3.78197,-1.8578c-2.45146,-0.76139 -5.03084,-5.26128 -3.32085,-7.81605c0.41044,-0.6132 4.48502,0.89769 5.18599,0.96965c1.74133,0.17876 5.7144,-1.24738 7.23709,-0.21188c0.86592,0.58886 0.90586,1.89004 1.65003,2.62674l0.79682,1.45227c0.24528,0.46209 0.72027,0.77652 1.27989,0.77652c0.8067,0 1.44548,-0.64927 1.44548,-1.45597c0,-0.22254 -0.05145,-0.43252 -0.14046,-0.62129l-0.65801,-1.47129c-1.11552,-2.50992 -2.48121,-5.00148 -3.06136,-7.70951c-0.10362,-0.48372 -0.30757,-2.68031 0.29365,-3.06378c0.71222,-0.45427 2.91575,0.05581 3.65726,0.12605c4.02584,0.38134 7.11803,2.02114 9.75639,5.03922c2.75077,3.15729 3.95102,7.30279 4.27434,11.47974c-0.02574,0.00225 -0.03993,0.00431 -0.03993,0.00431z" data-paper-data="{&quot;noHover&quot;:false,&quot;origItem&quot;:[&quot;Path&quot;,{&quot;applyMatrix&quot;:true,&quot;segments&quot;:[[[1106.92786,607.85856],[-0.05147,0.00449],[-0.64665,-8.3539]],[[1098.37558,584.96072],[5.50155,6.31458],[-5.27673,-6.03614]],[[1078.92297,574.93726],[8.05168,0.76268],[-1.48302,-0.14047]],[[1071.64153,574.68617],[1.42444,-0.90854],[-1.20243,0.76694]],[[1071.06461,580.81128],[-0.20725,-0.96743],[1.1603,5.41606]],[[1077.21195,596.218],[-2.23104,-5.01984],[0,0]],[[1078.52163,599.16477],[0,0],[0.17803,0.37754]],[[1078.7992,600.40924],[0,-0.44508],[0,1.6134]],[[1075.87788,603.33056],[1.6134,0],[-1.11924,0]],[[1073.29585,601.77695],[0.49056,0.92419],[0,0]],[[1071.67782,598.8645],[0,0],[-1.48833,-1.4734]],[[1068.33248,593.54604],[1.73184,1.17773],[-3.04537,-2.07099]],[[1053.85789,593.96489],[3.48266,0.35751],[-1.40194,-0.14391]],[[1043.65268,592.0231],[0.82087,-1.22639],[-3.41998,5.10954]],[[1050.28235,607.60987],[-4.90292,-1.52279],[3.06313,0.71668]],[[1057.83118,611.30708],[-2.59262,-1.11101],[0.24572,-1.38213]],[[1058.70331,607.31948],[-0.3377,1.26901],[0,0]],[[1062.29034,605.26975],[-2.81838,-0.76865],[2.81838,0.76865]],[[1064.34007,608.85678],[0,0],[-0.18846,0.67098]],[[1063.83911,610.9182],[0.14655,-0.70216],[1.1834,-0.35168]],[[1067.03584,610.17926],[-0.87972,0.05047],[7.09467,-0.40706]],[[1088.76453,609.21092],[-7.00658,1.10151],[6.02988,-0.94797]],[[1105.55785,608.24117],[-6.26241,-1.35794],[0,0]],[1106.84804,607.86709]],&quot;closed&quot;:true}]}" fill="url(#color-15)" stroke="none" stroke-width="0.5" stroke-linecap="butt"/><path d="M556.55702,318.49428c0.25241,0.2964 0.62175,0.49344 1.03621,0.51494c-0.38145,0.98707 -0.92558,1.90758 -1.70984,2.61948c-1.25414,1.13844 -3.81292,0.6949 -5.36604,0.83488c-0.48853,0.04957 -0.97756,0.11404 -1.45747,0.17145c-0.10312,0.00434 -0.20062,0.01873 -0.28882,0.03708c-2.95053,0.35872 -5.84691,0.76216 -8.89672,0.45637c-1.07876,-0.10816 -2.2459,0.12591 -3.23975,-0.30733c-0.943,-0.41107 -0.49513,-2.65487 -0.45786,-3.35995c0.00503,-0.09503 0.01,-0.19167 0.01462,-0.28767c0.18736,0.00241 0.3156,-0.02351 0.3156,-0.02351l0.54837,-0.13951c6.27773,0 13.28034,0.87735 19.50171,-0.51622z" data-paper-data="{&quot;noHover&quot;:false,&quot;origItem&quot;:[&quot;Path&quot;,{&quot;applyMatrix&quot;:true,&quot;segments&quot;:[[[1064.19261,628.03656],[12.55545,0],[0,0]],[1063.09619,628.31369],[[1062.46509,628.36014],[0.37471,0.00483],[-0.00924,0.19201]],[[1062.43618,628.93328],[0.01005,-0.19005],[-0.07454,1.41016]],[[1063.35112,635.62651],[-1.886,-0.82214],[1.9877,0.86648]],[[1069.828,636.23104],[-2.15753,-0.21633],[6.09961,0.61158]],[[1087.48083,635.2875],[-5.90106,0.71743],[0.17641,-0.03668]],[[1088.05424,635.21831],[-0.20624,0.00867],[0.95982,-0.11483]],[[1090.95808,634.89401],[-0.97707,0.09914],[3.10624,-0.27995]],[[1101.6836,633.25037],[-2.50829,2.27687],[1.56851,-1.42379]],[[1105.10419,628.03258],[-0.76291,1.97414],[-0.82893,-0.04299]],[[1103.03293,627.00827],[0.50482,0.59279],[-12.44275,2.78715]]],&quot;closed&quot;:true}]}" fill="url(#color-16)" stroke="none" stroke-width="0.5" stroke-linecap="butt"/><path d="M554.45727,318.39229l-0.33386,4.00637" fill="none" stroke="#000000" stroke-width="1.5" stroke-linecap="round"/><path d="M546.61145,324.40184v-2.00319l0.33387,-3.33865" fill="none" stroke="#000000" stroke-width="1.5" stroke-linecap="round"/><path d="M541.43655,324.06799l0.83466,-6.51037" fill="none" stroke="#000000" stroke-width="1.5" stroke-linecap="round"/><path d="M538.5987,322.89946l0.83466,-4.67411" fill="none" stroke="#000000" stroke-width="1.5" stroke-linecap="round"/><path d="M550.4509,322.89946l0.33386,-4.84104" fill="none" stroke="#000000" stroke-width="1.5" stroke-linecap="round"/><path d="M535.59392,321.39707l21.36735,-1.50239" fill="none" stroke="#000000" stroke-width="1.5" stroke-linecap="round"/></g></g></svg>