<svg version="1.1" xmlns="http://www.w3.org/2000/svg" xmlns:xlink="http://www.w3.org/1999/xlink" width="2443.03855" height="867.86037" viewBox="0,0,2443.03855,867.86037"><g transform="translate(528.20372,-202.89039)"><g data-paper-data="{&quot;isPaintingLayer&quot;:true}" fill-rule="nonzero" stroke-width="0" stroke-linecap="butt" stroke-linejoin="miter" stroke-miterlimit="10" stroke-dasharray="" stroke-dashoffset="0" style="mix-blend-mode: normal"><path d="M-528.20372,1070.75076v-466.95605h1310.40492c0,95.25111 0,190.50223 0,285.75334c0,32.87588 0,80.76677 0,113.64264c0,0 0,14.5 14.5,14.5c14.5,0 14.5,-14.5 14.5,-14.5c0,-32.87588 0,-80.76677 0,-113.64264c0,-1.73791 0,-3.47581 0,-5.21372c2.17061,0.15798 4.56594,-0.23624 7.03604,-1.63251c0,13.98644 0,27.97288 0,41.95932c-0.89388,1.21198 -2.01616,2.32469 -2.38084,3.7571c-0.71351,2.80259 -0.62217,10.72079 -0.62217,14.71238v3.003c0,0 0,5.07567 3.003,9.221c0,15.94535 0,31.89071 0,47.83606l16.0015,14.5c0,0 5.03432,0 9.17019,-2.96638c4.02917,3.32458 7.98565,3.68724 11.24331,2.96638h5.11202c0.00981,0 0.01961,0 0.02942,0c1.59449,0.38065 3.36895,0.46796 5.29912,0.06774c9.21914,0.21059 18.65278,0.78992 27.70449,-0.06774c5.15364,-0.48832 11.58938,1.24073 15.3576,-2.30877c16.49407,-15.53669 13.07673,-26.33957 15.55123,-44.96184c2.45632,-18.48546 6.07717,-36.79787 8.96405,-55.221c0.13835,-0.88291 0.27322,-1.76633 0.405,-2.65018c1.6997,-0.10272 3.18154,-0.41671 4.47346,-0.88612c-0.02695,0.07815 -0.05059,0.15775 -0.0706,0.23896c-1.74383,7.07714 -0.62217,16.33921 -0.62217,23.72139v3.003c0,0 0,14.5 14.5,14.5c14.5,0 14.5,-14.5 14.5,-14.5v-3.003c0,-4.40971 0.43255,-9.12751 0,-13.51351c-0.06243,-0.63306 -0.84678,-1.20897 -0.62217,-1.80414c0.63717,-1.68835 2.64122,-2.73656 3.003,-4.5045c1.91778,-9.37176 -0.09876,-19.3649 0.59415,-28.8264c0.29472,-4.02439 1.13543,-7.99349 1.5015,-12.01201c0.45248,-4.96703 1.28684,-9.90478 1.49304,-14.88812c0.01471,-0.35549 -1.26079,0.31508 -1.06727,0.01651c0.76997,-1.18792 2.71548,-1.61688 3.003,-3.003c0.4999,-2.40994 0.69789,-4.86075 0.79427,-7.3253c0.30948,-1.61243 0.30948,-2.72812 0.30948,-2.72812c0,-1.27496 0,-5.55293 0,-6.82789c1.06077,-8.43552 1.34719,-16.97525 2.81025,-25.35026c0.58182,-3.33047 1.43484,-6.60574 2.28443,-9.8818c1.64215,0.62939 3.599,1.00439 5.93085,1.00439c7.04206,0 10.66408,-3.42004 12.52703,-6.93817c0,29.32524 0,58.65047 0,87.97571c0,29 0,58 0,87c0,12.27587 -0.28492,31.24517 4.24695,39.42722c2.88667,5.21174 20.4702,4.24695 26.76956,4.24695c2.5025,0 6.50651,0 9.00901,0c0,0 14.5,0 14.5,-14.5c0,-14.5 -14.5,-14.5 -14.5,-14.5c-3.64862,0 -8.79874,0 -12.44736,0c1.82054,-4.54357 1.42184,-10.20598 1.42184,-14.67417c0,-29 0,-58 0,-87c0,-57.05706 0,-114.11411 0,-171.17117c0,-35.02617 0.59222,-70.12681 -0.01253,-105.14915c-0.03977,-2.30325 -0.11575,-4.60363 -0.22325,-6.90149h887.6532v466.95606z" fill="#cecece" stroke="#000000"/><path d="" fill="#8a8a8a" stroke="#000000"/><path d="" fill="#8a8a8a" stroke="#000000"/><path d="" fill="#8a8a8a" stroke="#000000"/><path d="" fill="#8a8a8a" stroke="#000000"/><path d="" fill="#8a8a8a" stroke="#000000"/><path d="M894.9215,966.89223c-0.92763,7.24123 -1.0663,14.5836 -2.10306,21.80498c-0.00687,-0.00242 -0.01392,-0.00459 -0.02115,-0.00652c-1.62736,-0.43354 -3.31839,-0.38081 -5.01952,-0.25087c0,-20.42384 0,-41.86859 0,-63.19288c0.68859,1.82839 1.88257,3.7213 3.77548,5.61421c2.84593,2.84593 5.69187,4.11198 8.31853,4.45593c-1.8184,10.5007 -3.59646,21.00695 -4.95029,31.57515z" fill="#8a8a8a" stroke="#000000"/><path d="M888.16536,915.55984c-0.13725,0.32195 -0.2674,0.65558 -0.38758,0.99992c0,-0.52098 0,-1.0418 0,-1.56244c0.13096,0.18868 0.26141,0.37639 0.38758,0.56252z" fill="#8a8a8a" stroke="#000000"/><path d="M888.80781,919.10661l0.43191,-1.37677c0.08359,0.50395 -0.02294,0.96888 -0.43191,1.37677z" fill="#8a8a8a" stroke="#000000"/><path d="M126.52703,582.77027v-18.01802h150.15015v18.01802z" fill="#cecece" stroke="none"/><path d="M327.72823,241.92943v-18.01802h148.64865v18.01802z" fill="#cecece" stroke="none"/><path d="M579.64715,252.43994v-21.02102h60.06006v21.02102z" fill="#cecece" stroke="none"/><path d="M675.74324,240.42793v-21.02102h57.05706v21.02102z" fill="#cecece" stroke="none"/><path d="M761.32883,222.40991v-19.51952h60.06006v19.51952z" fill="#cecece" stroke="none"/></g></g></svg>