<svg version="1.1" xmlns="http://www.w3.org/2000/svg" xmlns:xlink="http://www.w3.org/1999/xlink" width="37.88696" height="77.65675" viewBox="0,0,37.88696,77.65675"><defs><linearGradient x1="551.78333" y1="399.5514" x2="551.78333" y2="418.41261" gradientUnits="userSpaceOnUse" id="color-1"><stop offset="0" stop-color="#7d7d7d"/><stop offset="1" stop-color="#adadad"/></linearGradient><linearGradient x1="3260.20062" y1="2279.14582" x2="3259.10469" y2="2294.00494" gradientUnits="userSpaceOnUse" id="color-2"><stop offset="0" stop-color="#7d7d7d"/><stop offset="1" stop-color="#adadad"/></linearGradient><linearGradient x1="532.52876" y1="313.98661" x2="526.48671" y2="313.98661" gradientUnits="userSpaceOnUse" id="color-3"><stop offset="0" stop-color="#006cff"/><stop offset="1" stop-color="#00a3ff"/></linearGradient><linearGradient x1="548.77044" y1="314.68505" x2="539.5515" y2="314.68505" gradientUnits="userSpaceOnUse" id="color-4"><stop offset="0" stop-color="#006cff"/><stop offset="1" stop-color="#00a3ff"/></linearGradient><linearGradient x1="536.87339" y1="314.47487" x2="535.22515" y2="314.47487" gradientUnits="userSpaceOnUse" id="color-5"><stop offset="0" stop-color="#006cff"/><stop offset="1" stop-color="#00a3ff"/></linearGradient><linearGradient x1="536.24742" y1="345.1025" x2="536.24742" y2="365.12483" gradientUnits="userSpaceOnUse" id="color-6"><stop offset="0" stop-color="#393939"/><stop offset="1" stop-color="#717171"/></linearGradient><linearGradient x1="536.24742" y1="345.1025" x2="536.24742" y2="365.12483" gradientUnits="userSpaceOnUse" id="color-7"><stop offset="0" stop-color="#393939"/><stop offset="1" stop-color="#717171"/></linearGradient><linearGradient x1="536.24742" y1="345.1025" x2="536.24742" y2="365.12483" gradientUnits="userSpaceOnUse" id="color-8"><stop offset="0" stop-color="#393939"/><stop offset="1" stop-color="#717171"/></linearGradient><linearGradient x1="537.89381" y1="343.35667" x2="533.20287" y2="361.2721" gradientUnits="userSpaceOnUse" id="color-9"><stop offset="0" stop-color="#393939"/><stop offset="1" stop-color="#717171"/></linearGradient><linearGradient x1="543.576" y1="344.41717" x2="538.31591" y2="364.50623" gradientUnits="userSpaceOnUse" id="color-10"><stop offset="0" stop-color="#393939"/><stop offset="1" stop-color="#717171"/></linearGradient><linearGradient x1="542.48082" y1="344.65557" x2="542.48082" y2="367.10715" gradientUnits="userSpaceOnUse" id="color-11"><stop offset="0" stop-color="#393939"/><stop offset="1" stop-color="#717171"/></linearGradient><linearGradient x1="531.53568" y1="330.69155" x2="531.53568" y2="345.46791" gradientUnits="userSpaceOnUse" id="color-12"><stop offset="0" stop-color="#9e9e9e"/><stop offset="1" stop-color="#717171"/></linearGradient><linearGradient x1="545.66225" y1="329.96813" x2="545.66225" y2="342.22034" gradientUnits="userSpaceOnUse" id="color-13"><stop offset="0" stop-color="#9e9e9e"/><stop offset="1" stop-color="#717171"/></linearGradient><linearGradient x1="538.21642" y1="325.65732" x2="538.21642" y2="342.66267" gradientUnits="userSpaceOnUse" id="color-14"><stop offset="0" stop-color="#9e9e9e"/><stop offset="1" stop-color="#717171"/></linearGradient><linearGradient x1="542.7093" y1="292.11555" x2="542.7093" y2="310.68436" gradientUnits="userSpaceOnUse" id="color-15"><stop offset="0" stop-color="#9e9e9e"/><stop offset="1" stop-color="#717171"/></linearGradient><linearGradient x1="538.26029" y1="318.49429" x2="538.26029" y2="323.23661" gradientUnits="userSpaceOnUse" id="color-16"><stop offset="0" stop-color="#9e9e9e"/><stop offset="1" stop-color="#717171"/></linearGradient></defs><g transform="translate(-523.59448,-289.36469)"><g data-paper-data="{&quot;isPaintingLayer&quot;:true}" fill-rule="nonzero" stroke-linejoin="miter" stroke-miterlimit="10" stroke-dasharray="" stroke-dashoffset="0" style="mix-blend-mode: normal"><path d="" data-paper-data="{&quot;index&quot;:null}" fill="#000000" stroke="none" stroke-width="0.5" stroke-linecap="butt"/><path d="" data-paper-data="{&quot;noHover&quot;:false,&quot;origItem&quot;:[&quot;Path&quot;,{&quot;applyMatrix&quot;:true,&quot;segments&quot;:[[[214.21936,363.46624],[-0.30208,-0.37388],[3.00673,0.15442]],[[223.17564,365.12684],[-2.72214,-1.01229],[0.78421,0.29162]],[[225.23038,366.56847],[-0.80035,-0.24385],[0.7421,0.2261]],[[227.55523,366.4612],[-0.77495,0.03576],[3.50491,0]],[[238.06996,366.4612],[-3.50491,0],[-1.08058,-2.14878]],[[237.21302,359.55162],[0.01277,2.28708],[0,0]],[[239.71302,357.05162],[-2.5,0],[2.5,0]],[[242.21302,359.55162],[0,0],[-0.01909,2.79627]],[[244.14909,365.09479],[-2.53148,-1.37374],[0,0]],[[244.57107,366.4612],[0,0],[7.03354,0]],[[265.67169,366.4612],[-7.03354,0],[3.04925,0]],[[274.81964,366.4612],[-3.04923,-0.00986],[0.84642,0.00274]],[[277.35997,366.4598],[-0.84249,-0.07098],[-2.84376,-3.86932]],[[269.2555,354.64224],[2.9011,3.87495],[-1.52693,-2.0395]],[[264.37183,348.76265],[1.03081,2.32992],[-0.4631,-1.04675]],[[264.2484,345.33101],[0.26442,1.11366],[-0.24124,-1.01601]],[[261.55208,340.80707],[0.56849,0.84929],[0,0]],[[261.11463,339.02281],[-0.11332,0.95811],[-0.5179,0.09202]],[[259.60671,339.31511],[0.48224,-0.10965],[-4.9579,1.12734]],[[244.77858,341.16631],[4.93186,-0.53102],[-0.36495,0.13559]],[[243.66918,341.57508],[0.37522,-0.13655],[-2.05219,0.74685]],[[237.17595,342.44759],[2.13113,-0.47702],[-1.33538,0.29891]],[[233.36431,343.97224],[1.3434,-0.26048],[-3.96057,0.76793]],[[221.09473,343.98507],[3.96691,-0.63065],[-1.45541,0.23138]],[[216.91087,345.41372],[1.39462,-0.47622],[0,0]],[[216.89509,345.41869],[0.01038,-0.00317],[-0.03209,0.04913]],[[216.84315,345.4943],[0,0],[-0.66286,0.84427]],[[214.85458,348.02711],[0.40217,-0.9952],[-0.90439,2.23798]],[[214.22695,355.24129],[0.57394,-2.34458],[-0.27021,1.10382]],[[212.7023,358.2906],[0.23015,-1.11286],[-0.27004,1.30575]],[[212.76917,362.29019],[-0.0223,-1.33319],[0,0]],[[212.76917,362.68043],[0,0],[0.69117,0.09707]]],&quot;closed&quot;:true}],&quot;index&quot;:null}" fill="url(#color-1)" stroke="none" stroke-width="0.5" stroke-linecap="butt"/><path d="" data-paper-data="{&quot;index&quot;:null}" fill="#000000" stroke="none" stroke-width="0.5" stroke-linecap="butt"/><path d="" data-paper-data="{&quot;noHover&quot;:false,&quot;origItem&quot;:[&quot;Path&quot;,{&quot;applyMatrix&quot;:true,&quot;segments&quot;:[[[214.21936,363.46624],[-0.30208,-0.37388],[3.00673,0.15442]],[[223.17564,365.12684],[-2.72214,-1.01229],[0.78421,0.29162]],[[225.23038,366.56847],[-0.80035,-0.24385],[0.7421,0.2261]],[[227.55523,366.4612],[-0.77495,0.03576],[3.50491,0]],[[238.06996,366.4612],[-3.50491,0],[-1.08058,-2.14878]],[[237.21302,359.55162],[0.01277,2.28708],[0,0]],[[239.71302,357.05162],[-2.5,0],[2.5,0]],[[242.21302,359.55162],[0,0],[-0.01909,2.79627]],[[244.14909,365.09479],[-2.53148,-1.37374],[0,0]],[[244.57107,366.4612],[0,0],[7.03354,0]],[[265.67169,366.4612],[-7.03354,0],[3.04925,0]],[[274.81964,366.4612],[-3.04923,-0.00986],[0.84642,0.00274]],[[277.35997,366.4598],[-0.84249,-0.07098],[-2.84376,-3.86932]],[[269.2555,354.64224],[2.9011,3.87495],[-1.52693,-2.0395]],[[264.37183,348.76265],[1.03081,2.32992],[-0.4631,-1.04675]],[[264.2484,345.33101],[0.26442,1.11366],[-0.24124,-1.01601]],[[261.55208,340.80707],[0.56849,0.84929],[0,0]],[[261.11463,339.02281],[-0.11332,0.95811],[-0.5179,0.09202]],[[259.60671,339.31511],[0.48224,-0.10965],[-4.9579,1.12734]],[[244.77858,341.16631],[4.93186,-0.53102],[-0.36495,0.13559]],[[243.66918,341.57508],[0.37522,-0.13655],[-2.05219,0.74685]],[[237.17595,342.44759],[2.13113,-0.47702],[-1.33538,0.29891]],[[233.36431,343.97224],[1.3434,-0.26048],[-3.96057,0.76793]],[[221.09473,343.98507],[3.96691,-0.63065],[-1.45541,0.23138]],[[216.91087,345.41372],[1.39462,-0.47622],[0,0]],[[216.89509,345.41869],[0.01038,-0.00317],[-0.03209,0.04913]],[[216.84315,345.4943],[0,0],[-0.66286,0.84427]],[[214.85458,348.02711],[0.40217,-0.9952],[-0.90439,2.23798]],[[214.22695,355.24129],[0.57394,-2.34458],[-0.27021,1.10382]],[[212.7023,358.2906],[0.23015,-1.11286],[-0.27004,1.30575]],[[212.76917,362.29019],[-0.0223,-1.33319],[0,0]],[[212.76917,362.68043],[0,0],[0.69117,0.09707]]],&quot;closed&quot;:true}],&quot;index&quot;:null}" fill="url(#color-2)" stroke="none" stroke-width="0.5" stroke-linecap="butt"/><path d="" data-paper-data="{&quot;index&quot;:null}" fill="#000000" stroke="none" stroke-width="0.5" stroke-linecap="butt"/><path d="M532.37297,313.45748c0.10279,0.92501 0.14756,1.88954 0.1558,2.82049c-1.76506,-0.18622 -3.54615,-0.52505 -5.15711,-1.08717c0,0 -0.32475,-0.11247 -0.71032,-0.06825c-0.10223,-1.06433 -0.16138,-2.19532 -0.17463,-3.29686l1.41829,0.11379c1.66779,-0.3817 3.07175,-0.2595 4.4586,-0.0168z" data-paper-data="{&quot;noHover&quot;:false,&quot;origItem&quot;:[&quot;Path&quot;,{&quot;applyMatrix&quot;:true,&quot;segments&quot;:[[[1095.48797,616.93017],[0,0],[-0.20556,1.85001]],[[1095.16083,622.5055],[0.01649,-1.8619],[3.53012,-0.37244]],[[1105.33578,620.34065],[-3.22192,1.12423],[0,0]],[[1106.75161,620.21419],[-0.77114,-0.08843],[0.20447,-2.12866]],[[1107.11054,613.69993],[-0.02651,2.20308],[0,0]],[[1104.2904,613.94467],[0,0],[-3.33558,-0.7634]],[[1095.49225,613.89425],[2.7737,-0.4854],[0,0]]],&quot;closed&quot;:true}],&quot;index&quot;:null}" fill="url(#color-3)" stroke="none" stroke-width="0.5" stroke-linecap="butt"/><path d="M539.70389,316.41364c0.02199,-0.19778 0.00552,-0.34035 0.00552,-0.34035c-0.1063,-0.94332 -0.15938,-1.91938 -0.15789,-2.86867l0.04825,-0.24818c2.98355,0.21683 6.09676,0.29162 9.02121,0.59728c0.07253,0.88365 0.11503,1.80255 0.14946,2.68746l-0.75168,-0.12975c-2.60791,0 -5.4896,0.20035 -8.31486,0.30221z" data-paper-data="{&quot;noHover&quot;:false,&quot;origItem&quot;:[&quot;Path&quot;,{&quot;applyMatrix&quot;:true,&quot;segments&quot;:[[[1080.65332,622.12172],[0,0],[0.21261,-1.88664]],[[1080.96932,616.43475],[0.00299,1.89858],[0,0]],[[1080.87424,615.94245],[0,0],[-5.96709,0.43366]],[[1062.99078,617.12796],[5.8489,-0.61131],[-0.14506,1.76731]],[[1062.69003,622.45567],[0.06885,-1.76981],[0,0]],[[1064.19261,622.19392],[0,0],[5.21582,0]],[[1080.66622,622.7971],[-5.65053,-0.20373],[-0.04399,-0.39556]]],&quot;closed&quot;:true}],&quot;index&quot;:null}" fill="url(#color-4)" stroke="none" stroke-width="0.5" stroke-linecap="butt"/><path d="M536.68831,313.17991c0.00149,1.05699 0.05825,2.19142 0.1735,3.2421c0,0 0.0027,0.02717 0.01158,0.07348c-0.48141,0.00013 -0.99028,-0.0045 -1.46863,-0.01745c-0.00461,-1.04654 -0.06406,-2.1689 -0.17961,-3.2089l0.00923,-0.81491c0.49572,0.07821 1.02612,0.14637 1.52863,0.20677z" data-paper-data="{&quot;noHover&quot;:false,&quot;origItem&quot;:[&quot;Path&quot;,{&quot;applyMatrix&quot;:true,&quot;segments&quot;:[[[1086.81195,616.43475],[0,0],[-0.00298,2.11398]],[[1086.46022,622.76693],[0.2305,-2.10137],[0,0]],[[1086.43644,622.91363],[0.01777,-0.09261],[0.96282,0.00027]],[[1089.31661,622.87666],[-0.95671,0.02591],[0.00922,-2.09308]],[[1089.65427,616.60707],[-0.23111,2.08],[0,0]],[[1089.65172,614.98581],[0,0],[-0.99144,0.15641]],[[1086.65624,615.3997],[1.00502,-0.1208],[0,0]]],&quot;closed&quot;:true}],&quot;index&quot;:null}" fill="url(#color-5)" stroke="none" stroke-width="0.5" stroke-linecap="butt"/><path d="M537.87077,346.63325c-0.00007,-0.00049 -0.00025,-0.00046 -0.00054,0.00017c-0.28984,0.63207 -0.4863,1.29432 -0.61137,1.97793c-0.65308,0.07435 -1.3074,0.13669 -1.96283,0.18573c0.24289,-1.23007 0.57079,-2.41659 1.01932,-3.52872c0,0 0.02518,-0.06243 0.05102,-0.16586c0.54247,0.22009 1.13718,0.35362 1.73094,0.39482z" data-paper-data="{&quot;noHover&quot;:false,&quot;origItem&quot;:[&quot;Path&quot;,{&quot;applyMatrix&quot;:true,&quot;segments&quot;:[[1084.41817,683.30254],[[1084.40675,683.30483],[0,0],[0.00679,0.01464]],[[1084.42703,683.3488],[-0.00673,-0.01468],[2.37574,5.18106]],[[1085.23593,700.62198],[0.87263,-5.99234],[0.56264,4.20632]],[[1086.79716,713.29588],[-0.39405,-4.26276],[0.2154,1.93864]],[[1087.24948,719.13008],[-0.40813,-1.90739],[0.63079,2.94797]],[[1091.18463,717.20284],[-0.24832,0.66559],[0.1736,-0.46531]],[[1091.32275,712.06563],[0.01788,0.32408],[-0.55598,-10.07886]],[[1087.52169,680.62017],[3.8025,9.42836],[0,0]],[[1087.42007,680.28843],[0.05167,0.20687],[-1.08495,0.44018]],[[1083.97297,681.07658],[1.18752,-0.0824],[0,0]]],&quot;closed&quot;:true}],&quot;index&quot;:null}" fill="url(#color-6)" stroke="none" stroke-width="0.5" stroke-linecap="butt"/><path d="M537.859,346.69227l0.01177,-0.05903c0.00073,0.00457 -0.00712,0.05393 -0.00667,0.06005z" data-paper-data="{&quot;noHover&quot;:false,&quot;origItem&quot;:[&quot;Path&quot;,{&quot;applyMatrix&quot;:true,&quot;segments&quot;:[[1084.41817,683.30254],[[1084.40675,683.30483],[0,0],[0.00679,0.01464]],[[1084.42703,683.3488],[-0.00673,-0.01468],[2.37574,5.18106]],[[1085.23593,700.62198],[0.87263,-5.99234],[0.56264,4.20632]],[[1086.79716,713.29588],[-0.39405,-4.26276],[0.2154,1.93864]],[[1087.24948,719.13008],[-0.40813,-1.90739],[0.63079,2.94797]],[[1091.18463,717.20284],[-0.24832,0.66559],[0.1736,-0.46531]],[[1091.32275,712.06563],[0.01788,0.32408],[-0.55598,-10.07886]],[[1087.52169,680.62017],[3.8025,9.42836],[0,0]],[[1087.42007,680.28843],[0.05167,0.20687],[-1.08495,0.44018]],[[1083.97297,681.07658],[1.18752,-0.0824],[0,0]]],&quot;closed&quot;:true}],&quot;index&quot;:null}" fill="url(#color-7)" stroke="none" stroke-width="0.5" stroke-linecap="butt"/><path d="M537.8641,346.69329l0.00058,0.00012c-0.00034,0.00073 -0.00052,0.00064 -0.00058,-0.00012z" data-paper-data="{&quot;noHover&quot;:false,&quot;origItem&quot;:[&quot;Path&quot;,{&quot;applyMatrix&quot;:true,&quot;segments&quot;:[[1084.41817,683.30254],[[1084.40675,683.30483],[0,0],[0.00679,0.01464]],[[1084.42703,683.3488],[-0.00673,-0.01468],[2.37574,5.18106]],[[1085.23593,700.62198],[0.87263,-5.99234],[0.56264,4.20632]],[[1086.79716,713.29588],[-0.39405,-4.26276],[0.2154,1.93864]],[[1087.24948,719.13008],[-0.40813,-1.90739],[0.63079,2.94797]],[[1091.18463,717.20284],[-0.24832,0.66559],[0.1736,-0.46531]],[[1091.32275,712.06563],[0.01788,0.32408],[-0.55598,-10.07886]],[[1087.52169,680.62017],[3.8025,9.42836],[0,0]],[[1087.42007,680.28843],[0.05167,0.20687],[-1.08495,0.44018]],[[1083.97297,681.07658],[1.18752,-0.0824],[0,0]]],&quot;closed&quot;:true}],&quot;index&quot;:null}" fill="url(#color-8)" stroke="none" stroke-width="0.5" stroke-linecap="butt"/><path d="M542.55923,348.6757c0,-0.35317 0.10463,-0.68192 0.28457,-0.95692c-0.4561,-1.03012 -0.96388,-2.04524 -1.48371,-3.0217c-0.10152,0.07168 -0.20622,0.13875 -0.3137,0.20124c0.03086,0.1182 0.04729,0.24223 0.04729,0.37009v1.5024c-0.00023,0.26046 -0.00313,0.52035 -0.00849,0.77973c0.09874,0.00875 0.19759,0.0186 0.29656,0.0295c-0.59854,1.93241 -1.32963,3.79911 -2.08488,5.65677c-0.40404,2.46491 -0.6904,4.94356 -1.5958,7.3006c-0.24301,0.63264 -1.51085,3.05879 -0.43529,3.63687c1.17816,0.63323 3.21999,-3.17384 3.64157,-3.86137c1.0705,-2.91082 2.69048,-6.68077 2.60261,-9.83346v-0.00001c-0.00232,-0.08346 -0.00522,-0.16714 -0.00867,-0.25101c-0.55984,-0.29189 -0.94207,-0.87768 -0.94207,-1.55274zM536.58528,352.77457c0.15861,-1.41689 0.34118,-2.84082 0.70253,-4.16652c-0.01181,0.00135 -0.02363,0.0027 -0.03544,0.00404c0.12824,-0.66763 0.32493,-1.31589 0.61005,-1.93768c0.00337,-0.00734 0.00675,-0.01466 0.01014,-0.02198l-0.00571,-0.00115l0.22259,-1.11297c-0.59376,-0.0412 -1.18108,-0.17399 -1.72355,-0.39408c-0.02583,0.10343 -0.05081,0.16587 -0.05081,0.16587c-0.19996,0.49581 -0.37581,1.0055 -0.53073,1.52653c0.06485,0.01236 0.12973,0.02458 0.19463,0.03666c-0.18182,0.3935 -0.35476,0.79434 -0.52015,1.20073c-0.05529,0.23905 -0.10692,0.47996 -0.15518,0.72249c-0.04427,0.00332 -0.08854,0.00658 -0.13281,0.00978c-1.05343,2.7694 -1.80213,5.7412 -2.64928,8.37499c-0.04596,0.14288 -0.56315,2.08598 -0.53999,2.31449c0.03312,0.32686 0.90723,2.56819 1.53477,1.3232c0.40604,-0.80553 0.56234,-1.71507 0.8858,-2.55716c0.67564,-1.86094 1.43867,-3.6713 2.18313,-5.48724zM530.48545,354.91296c0.62545,-1.96149 1.19881,-4.03486 1.89025,-6.06073c0.25836,-1.59574 0.64133,-3.1522 1.22701,-4.62706c0,0 0.20253,-0.50632 0.66945,-0.77647c-0.05423,-0.08724 -0.10506,-0.17705 -0.15228,-0.26943c-0.16215,-0.31726 -0.27079,-0.72048 -0.34277,-1.16744c-0.07732,0.20259 -0.15677,0.40496 -0.23923,0.60694c-0.18513,1.62798 -0.80385,4.56292 -2.59987,5.29158c-2.45911,0.99767 -3.67387,-0.20767 -4.25988,-2.37756c-0.41736,-1.5454 0.4877,-3.86111 0.65071,-5.41626c0.32836,-3.13266 0.96465,-6.74288 2.72181,-9.48228c1.20656,-1.88101 2.71696,-3.30334 3.73651,-5.31901c-2.29838,-0.138 -4.54154,0.11502 -6.4581,-1.47535c-2.33846,-1.94046 -3.19814,-5.26978 -3.50484,-8.13211c-0.74666,-6.96823 0.18915,-14.62535 4.85562,-20.13986c3.14439,-3.59046 6.88261,-5.50883 11.64104,-6.00581c2.85736,-0.29843 5.59265,-0.69731 6.8651,2.46695c0.8383,2.08465 0.3907,4.38566 -0.45103,6.61243c1.57267,-0.06188 3.28373,0.34989 4.66409,0.43061c2.16002,0.12631 4.51378,-1.42272 6.54048,-1.16655c4.84223,0.61206 3.82911,7.23847 2.16469,10.18369c-1.1393,2.01601 -2.24181,2.78381 -4.38966,3.53102c-1.6521,0.34298 -2.76901,1.34851 -4.17714,1.82359c0.2488,2.53024 0.28747,5.16413 0.23993,7.45243c-0.04225,2.03405 0.26555,3.0445 -1.8814,4.42645c-0.67855,0.43677 -3.49468,0.60499 -4.44045,0.69933c-0.37014,0.03692 -0.73713,0.064 -1.10153,0.08246c0.08043,0.12043 0.1194,0.2081 0.1194,0.2081c0.86651,2.01197 2.42354,3.61453 3.46276,5.58747c1.06171,2.01562 1.59634,4.24893 2.27071,6.4171c0.41578,1.33675 0.99547,2.42894 0.5371,3.9158c-1.06575,3.45711 -3.52852,3.08247 -5.88695,1.13799l-0.00001,0.00002c-0.61436,-0.50653 -1.14794,-1.02067 -1.6084,-1.55579l-0.00167,0.23988c0.51743,0.93316 1.04336,1.91306 1.54012,2.91852c-0.06231,0.04547 -0.10279,0.11905 -0.10279,0.20208c0,0.13807 0.11193,0.25 0.25,0.25c0.02381,0 0.04685,-0.00334 0.06866,-0.00955c0.39295,0.81623 0.76339,1.64706 1.09159,2.48141c-0.0737,-0.00261 -0.1474,-0.00512 -0.2211,-0.00752c0.11497,0.22845 0.18137,0.48555 0.18563,0.75773c0.01512,0.00457 0.03025,0.00915 0.04537,0.01373c0.05911,0.59114 0.09659,1.17725 0.1068,1.75288c0.06415,3.61715 -1.62228,7.73892 -2.87277,11.07786c-1.61527,2.66057 -6.34404,8.94066 -8.91614,3.15844c-0.15081,-0.33902 -0.23586,-0.68529 -0.26992,-1.03564c-2.20351,0.86948 -4.54343,-1.26885 -4.85484,-3.80787c-0.19704,-1.60658 0.71655,-3.41592 1.18792,-4.89421zM526.612,308.92931c0.02574,0.00224 0.03991,0.00426 0.03991,0.00426l0.6451,0.18704c3.13121,-0.67897 5.38172,0.01088 8.39666,0.48487c3.50329,0.55075 7.31701,0.28064 10.86434,0.48417c0.43986,0.02524 1.00667,0.19363 1.59837,0.36947c-0.07327,-0.35108 -0.15625,-0.69522 -0.25048,-1.03071c0,0 -0.38433,-1.40919 1.02486,-1.79351c1.40919,-0.38433 1.79351,1.02486 1.79351,1.02486c0.16885,0.6345 0.31321,1.30274 0.43607,1.9938c1.2963,-0.55551 2.24284,-1.49027 3.77441,-1.84861c2.45146,-0.7614 5.02483,-5.23862 3.31484,-7.79339c-0.41044,-0.6132 -4.40164,0.89893 -5.10261,0.97089c-1.74133,0.17875 -5.71461,-1.24493 -7.2373,-0.20943c-0.86592,0.58886 -0.92851,1.92253 -1.67267,2.65923l-0.80901,1.45623c-0.24528,0.46209 -0.7314,0.7768 -1.29102,0.7768c-0.8067,0 -1.46066,-0.65396 -1.46066,-1.46066c0,-0.22253 0.04976,-0.43346 0.13878,-0.62223l0.65484,-1.47339c1.11552,-2.50992 2.49352,-4.99533 3.07367,-7.70336c0.10363,-0.48372 0.31276,-2.67909 -0.28846,-3.06256c-0.71222,-0.45427 -2.89921,0.05531 -3.64072,0.12555c-4.02584,0.38134 -7.08793,1.99366 -9.7263,5.01173c-2.75077,3.15729 -3.95282,7.27197 -4.27614,11.44892zM547.97962,319.01828c-6.27773,0 -13.19879,0.87943 -19.42016,-0.51414c-0.25241,0.2964 -0.62117,0.49066 -1.03563,0.51216c0.38145,0.98707 0.92603,1.89699 1.71029,2.60889c1.25415,1.13844 3.80964,0.68185 5.36276,0.82182c0.48853,0.04957 0.97201,0.10474 1.45192,0.16215c0.10312,0.00434 0.19849,0.01626 0.2867,0.0346c2.95052,0.35872 5.77661,0.77756 8.82641,0.47177c1.07877,-0.10816 2.24459,0.13098 3.23844,-0.30226c0.943,-0.41107 0.49474,-2.64154 0.45747,-3.34662c-0.00502,-0.09503 -0.00983,-0.19057 -0.01445,-0.28657c-0.18735,0.00241 -0.31555,-0.02323 -0.31555,-0.02323l-0.54821,-0.13856zM539.87779,325.97301c-0.83939,-0.07693 -1.67743,-0.1738 -2.5217,-0.27417c-0.35168,5.33912 -1.92735,10.94823 -0.5566,16.31691c0.1934,0.75746 2.62278,0.79049 3.02133,0.17897c0.2166,-0.33235 0.3325,-1.9524 0.35694,-2.18198c-0.00121,-4.28746 -0.16905,-8.57926 -0.16693,-12.85918zM539.74926,316.06088c0,0 0.01554,0.13991 -0.00645,0.33769c2.82527,-0.10186 5.6289,-0.30159 8.23681,-0.30159l0.75129,0.13088c-0.03443,-0.88491 -0.07785,-1.78021 -0.15038,-2.66386c-2.92445,-0.30566 -5.95818,-0.37593 -8.94173,-0.59276l-0.04754,0.24615c-0.00149,0.94929 0.05169,1.90016 0.158,2.84348zM543.26377,330.07757l-0.00725,0.85625c0.15594,1.57594 0.1382,3.03757 0.48829,4.58002c0.29384,2.64461 1.03861,3.84853 3.01721,5.64245c0.38664,0.35055 0.78801,1.25261 1.22778,0.97158c0.34073,-0.21774 -0.50832,-2.74295 -0.56807,-2.92896c-0.63913,-1.98975 -1.08398,-4.0851 -2.06953,-5.9359c-0.62114,-1.16648 -1.37877,-2.19707 -2.09186,-3.25606c0.00343,0.04479 0.00343,0.07062 0.00343,0.07062zM532.32981,311.94714c-1.38685,-0.2427 -2.73129,-0.35649 -4.39908,0.02521l-1.41007,-0.12237c0.01325,1.10154 0.07723,2.1928 0.17946,3.25713c0.38557,-0.04421 0.70791,0.06323 0.70791,0.06323c1.61096,0.56212 3.32242,0.89621 5.08748,1.08243c-0.00825,-0.93095 -0.06079,-1.86267 -0.16357,-2.78767zM532.51051,337.08679c0.04569,-0.33997 0.24171,-1.08889 1.08263,-1.25758c-0.07425,-1.44088 -0.16921,-2.8798 -0.09269,-4.33002c0.01351,-0.25603 0.03509,-0.51184 0.0629,-0.76742c-0.35648,0.46993 -0.70795,0.95066 -1.04126,1.46005c-1.53198,2.34128 -2.00292,5.53273 -2.28616,8.21257c-0.14318,1.35459 -1.05866,3.59518 -0.68564,4.95699c0.08447,0.30835 0.33879,-0.54388 0.47645,-0.83245c0.38845,-0.81428 0.58023,-1.72348 0.67746,-2.62041c0.63321,-1.61161 1.12692,-3.23452 1.80632,-4.82174zM536.74779,312.69988c-0.50251,-0.0604 -1.00202,-0.12874 -1.49774,-0.20695l-0.00127,0.81063c0.11556,1.04 0.16422,2.08825 0.16883,3.13479c0.47836,0.01295 0.95868,0.01862 1.44009,0.01848c-0.00888,-0.04631 -0.01189,-0.07335 -0.01189,-0.07335c-0.11525,-1.05068 -0.17438,-2.1091 -0.17587,-3.16609z" data-paper-data="{&quot;index&quot;:null}" fill="#000000" stroke="none" stroke-width="0.5" stroke-linecap="butt"/><path d="M535.97268,346.87211c0.60208,0.11212 1.20634,0.21196 1.81234,0.30063c-0.69542,1.70846 -0.9478,3.68176 -1.16449,5.61749c-0.74446,1.81594 -1.55007,3.64854 -2.22572,5.50948c-0.32346,0.84209 -0.48142,1.75127 -0.88745,2.5568c-0.62754,1.24499 -1.50984,-0.99932 -1.54297,-1.32618c-0.02316,-0.2285 0.49081,-2.17339 0.53677,-2.31628c1.04596,-3.25188 1.95812,-7.05653 3.47152,-10.34194z" data-paper-data="{&quot;noHover&quot;:false,&quot;origItem&quot;:[&quot;Path&quot;,{&quot;applyMatrix&quot;:true,&quot;segments&quot;:[[1084.41817,683.30254],[[1084.40675,683.30483],[0,0],[0.00679,0.01464]],[[1084.42703,683.3488],[-0.00673,-0.01468],[2.37574,5.18106]],[[1085.23593,700.62198],[0.87263,-5.99234],[0.56264,4.20632]],[[1086.79716,713.29588],[-0.39405,-4.26276],[0.2154,1.93864]],[[1087.24948,719.13008],[-0.40813,-1.90739],[0.63079,2.94797]],[[1091.18463,717.20284],[-0.24832,0.66559],[0.1736,-0.46531]],[[1091.32275,712.06563],[0.01788,0.32408],[-0.55598,-10.07886]],[[1087.52169,680.62017],[3.8025,9.42836],[0,0]],[[1087.42007,680.28843],[0.05167,0.20687],[-1.08495,0.44018]],[[1083.97297,681.07658],[1.18752,-0.0824],[0,0]]],&quot;closed&quot;:true}],&quot;index&quot;:null}" fill="url(#color-9)" stroke="none" stroke-width="0.5" stroke-linecap="butt"/><path d="M541.37047,347.5788c0.64084,0.07008 1.28622,0.1842 1.93324,0.32735c0.12179,0.8571 0.20389,1.71014 0.22704,2.5408c0.08787,3.15267 -1.55325,6.99374 -2.62376,9.90456c-0.42158,0.68753 -2.4768,4.49207 -3.65496,3.85885c-1.07556,-0.57808 0.18774,-3.00629 0.43076,-3.63893c0.90541,-2.35703 1.17897,-4.89265 1.58301,-7.35756c0.75066,-1.84636 1.49881,-3.71108 2.10467,-5.63507z" data-paper-data="{&quot;noHover&quot;:false,&quot;origItem&quot;:[&quot;Path&quot;,{&quot;applyMatrix&quot;:true,&quot;segments&quot;:[[[1072.00798,692.02832],[1.24434,-4.26381],[-1.91055,6.54663]],[[1072.06621,714.02337],[-0.64499,-6.67517],[0.50528,1.66908]],[[1077.56871,724.09509],[-2.8113,0.67928],[2.56645,-0.62012]],[[1078.65013,716.2491],[0.16183,1.45645],[-0.60293,-5.42633]],[[1079.31067,700.10372],[-0.5049,5.37738],[-0.71558,-5.47088]],[[1077.96453,683.5416],[0.00485,5.61117],[0,0]],[[1077.96453,680.53681],[0,0],[0,-0.25573]],[[1078.05912,679.79663],[-0.06173,0.23639],[-0.21497,-0.12498]],[[1077.43171,679.39415],[0.20304,0.14337],[-2.14075,4.02126]]],&quot;closed&quot;:true}],&quot;index&quot;:null}" fill="url(#color-10)" stroke="none" stroke-width="0.5" stroke-linecap="butt"/><path d="M541.35585,344.65556c0.5553,1.04309 1.10145,2.13079 1.58536,3.23374c-0.63601,0.02866 -1.26414,0.08148 -1.87948,0.1687c0.01623,-0.44184 0.0252,-0.88464 0.02558,-1.32843l0.00088,-1.50252c0,-0.12786 -0.01643,-0.25189 -0.04729,-0.37009c0.10748,-0.0625 0.21343,-0.1297 0.31495,-0.20139z" data-paper-data="{&quot;noHover&quot;:false,&quot;origItem&quot;:[&quot;Path&quot;,{&quot;applyMatrix&quot;:true,&quot;segments&quot;:[[[1072.00798,692.02832],[1.24434,-4.26381],[-1.91055,6.54663]],[[1072.06621,714.02337],[-0.64499,-6.67517],[0.50528,1.66908]],[[1077.56871,724.09509],[-2.8113,0.67928],[2.56645,-0.62012]],[[1078.65013,716.2491],[0.16183,1.45645],[-0.60293,-5.42633]],[[1079.31067,700.10372],[-0.5049,5.37738],[-0.71558,-5.47088]],[[1077.96453,683.5416],[0.00485,5.61117],[0,0]],[[1077.96453,680.53681],[0,0],[0,-0.25573]],[[1078.05912,679.79663],[-0.06173,0.23639],[-0.21497,-0.12498]],[[1077.43171,679.39415],[0.20304,0.14337],[-2.14075,4.02126]]],&quot;closed&quot;:true}],&quot;index&quot;:null}" fill="url(#color-11)" stroke="none" stroke-width="0.5" stroke-linecap="butt"/><path d="M533.62136,335.79845c-0.84092,0.1687 -1.03579,0.9187 -1.08148,1.25867c-0.6794,1.58722 -1.21125,3.28058 -1.84446,4.89219c-0.09723,0.89693 -0.28969,1.80597 -0.67814,2.62025c-0.13766,0.28857 -0.39345,1.14044 -0.47792,0.83208c-0.37302,-1.36181 0.53314,-3.60618 0.67631,-4.96078c0.28324,-2.67983 0.7814,-5.94892 2.31338,-8.2902c0.33332,-0.50939 0.68897,-0.98919 1.04545,-1.45911c-0.02781,0.25558 -0.04854,0.51163 -0.06205,0.76766c-0.07652,1.45022 0.03467,2.89837 0.10892,4.33925z" data-paper-data="{&quot;noHover&quot;:false,&quot;origItem&quot;:[&quot;Path&quot;,{&quot;applyMatrix&quot;:true,&quot;segments&quot;:[[[1095.1308,664.17353],[-0.09138,-0.67994],[1.3588,3.17445]],[[1098.74344,673.81701],[-1.26643,-3.22323],[0.19447,1.79386]],[[1100.09835,679.05782],[-0.77689,-1.62856],[0.27532,0.57713]],[[1101.05124,680.72271],[-0.16893,0.61671],[0.74605,-2.72363]],[[1099.67997,670.80873],[0.28634,2.70919],[-0.56648,-5.35967]],[[1095.10764,654.38359],[3.06397,4.68256],[-0.66663,-1.01879]],[[1093.02512,651.4635],[0.71296,0.93985],[0.05562,0.51116]],[[1093.15091,652.99834],[-0.02702,-0.51205],[0.15304,2.90043]],[[1092.96554,661.65838],[0.1485,-2.88175],[1.68185,0.33738]]],&quot;closed&quot;:true}],&quot;index&quot;:null}" fill="url(#color-12)" stroke="none" stroke-width="0.5" stroke-linecap="butt"/><path d="M543.24833,330.0388c0,0 0.00013,-0.02588 -0.0033,-0.07067c0.71309,1.05898 1.48149,2.08691 2.10263,3.25339c0.98554,1.8508 1.45553,4.02394 2.09466,6.0137c0.05975,0.18601 0.90324,2.71385 0.56251,2.93159c-0.43977,0.28103 -0.8473,-0.61919 -1.23394,-0.96974c-1.9786,-1.79392 -2.77216,-3.05071 -3.06601,-5.69532c-0.35009,-1.54245 -0.31005,-3.02982 -0.46599,-4.60576l0.00943,-0.85719z" data-paper-data="{&quot;noHover&quot;:false,&quot;origItem&quot;:[&quot;Path&quot;,{&quot;applyMatrix&quot;:true,&quot;segments&quot;:[[[1073.63116,650.01387],[-0.00687,0.08958],[-1.42618,2.11797]],[[1069.44743,656.52599],[1.24229,-2.33296],[-1.97109,3.7016]],[[1065.30836,668.3978],[1.27826,-3.97951],[-0.1195,0.37202]],[[1064.17222,674.25572],[-0.68146,-0.43548],[0.87954,0.56207]],[[1066.62778,672.31256],[-0.77328,0.70111],[3.9572,-3.58784]],[[1072.66221,661.02765],[-0.58769,5.28922],[0.70018,-3.0849]],[[1073.63879,651.86762],[-0.31189,3.15187],[0,0]],[1073.62429,650.15511]],&quot;closed&quot;:true}],&quot;index&quot;:null}" fill="url(#color-13)" stroke="none" stroke-width="0.5" stroke-linecap="butt"/><path d="M540.0212,327.11314c-0.00212,4.27992 0.16863,8.65171 0.16984,12.93917c-0.02443,0.22958 -0.14543,1.85098 -0.36203,2.18333c-0.39855,0.61152 -2.84351,0.57863 -3.03691,-0.17882c-1.37075,-5.36868 0.20811,-11.06039 0.55979,-16.3995c0.84427,0.10036 1.69483,0.19786 2.53422,0.27479z" data-paper-data="{&quot;noHover&quot;:false,&quot;origItem&quot;:[&quot;Path&quot;,{&quot;applyMatrix&quot;:true,&quot;segments&quot;:[[[1080.13018,644.30709],[0,0],[0.00423,8.55984]],[[1079.79632,670.02545],[0.00242,-8.57492],[0.04887,0.45917]],[[1080.5102,674.38941],[-0.43321,-0.6647],[0.79709,1.22304]],[[1086.55285,674.03147],[-0.38679,1.51491],[2.7415,-10.73736]],[[1085.43966,641.39766],[0.70336,10.67823],[-1.68854,0.20073]],[[1080.39626,641.946],[1.67878,-0.15386],[0,0]]],&quot;closed&quot;:true}],&quot;index&quot;:null}" fill="url(#color-14)" stroke="none" stroke-width="0.5" stroke-linecap="butt"/><path d="M526.61413,308.95128c0,0 -0.01419,-0.00206 -0.03993,-0.00431c0.32332,-4.17695 1.52357,-8.32245 4.27434,-11.47974c2.63836,-3.01808 5.73055,-4.65788 9.75639,-5.03922c0.74151,-0.07024 2.94504,-0.58032 3.65726,-0.12605c0.60122,0.38347 0.39727,2.58006 0.29365,3.06378c-0.58015,2.70803 -1.94584,5.19959 -3.06136,7.70951l-0.65801,1.47129c-0.08901,0.18877 -0.14046,0.39875 -0.14046,0.62129c0,0.8067 0.63878,1.45597 1.44548,1.45597c0.55962,0 1.03461,-0.31443 1.27989,-0.77652l0.79682,-1.45227c0.74417,-0.7367 0.78411,-2.03788 1.65003,-2.62674c1.52269,-1.0355 5.49576,0.39064 7.23709,0.21188c0.70097,-0.07196 4.77555,-1.58285 5.18599,-0.96965c1.70999,2.55477 -0.86939,7.05466 -3.32085,7.81605c-1.53157,0.35834 -2.48566,1.3023 -3.78197,1.8578c-0.12286,-0.69107 -0.32632,-1.41811 -0.49517,-2.05261c0,0 -0.32388,-1.35166 -1.73307,-0.96734c-1.40918,0.38432 -1.03166,1.79901 -1.03166,1.79901c0.09423,0.33549 0.17603,0.68037 0.2493,1.03145c-0.5917,-0.17584 -1.16311,-0.34184 -1.60297,-0.36708c-3.54734,-0.20353 -7.4051,0.06015 -10.90839,-0.4906c-3.01494,-0.47399 -5.27564,-1.17688 -8.40685,-0.49791l-0.64557,-0.188z" data-paper-data="{&quot;noHover&quot;:false,&quot;origItem&quot;:[&quot;Path&quot;,{&quot;applyMatrix&quot;:true,&quot;segments&quot;:[[[1106.92786,607.85856],[-0.05147,0.00449],[-0.64665,-8.3539]],[[1098.37558,584.96072],[5.50155,6.31458],[-5.27673,-6.03614]],[[1078.92297,574.93726],[8.05168,0.76268],[-1.48302,-0.14047]],[[1071.64153,574.68617],[1.42444,-0.90854],[-1.20243,0.76694]],[[1071.06461,580.81128],[-0.20725,-0.96743],[1.1603,5.41606]],[[1077.21195,596.218],[-2.23104,-5.01984],[0,0]],[[1078.52163,599.16477],[0,0],[0.17803,0.37754]],[[1078.7992,600.40924],[0,-0.44508],[0,1.6134]],[[1075.87788,603.33056],[1.6134,0],[-1.11924,0]],[[1073.29585,601.77695],[0.49056,0.92419],[0,0]],[[1071.67782,598.8645],[0,0],[-1.48833,-1.4734]],[[1068.33248,593.54604],[1.73184,1.17773],[-3.04537,-2.07099]],[[1053.85789,593.96489],[3.48266,0.35751],[-1.40194,-0.14391]],[[1043.65268,592.0231],[0.82087,-1.22639],[-3.41998,5.10954]],[[1050.28235,607.60987],[-4.90292,-1.52279],[3.06313,0.71668]],[[1057.83118,611.30708],[-2.59262,-1.11101],[0.24572,-1.38213]],[[1058.70331,607.31948],[-0.3377,1.26901],[0,0]],[[1062.29034,605.26975],[-2.81838,-0.76865],[2.81838,0.76865]],[[1064.34007,608.85678],[0,0],[-0.18846,0.67098]],[[1063.83911,610.9182],[0.14655,-0.70216],[1.1834,-0.35168]],[[1067.03584,610.17926],[-0.87972,0.05047],[7.09467,-0.40706]],[[1088.76453,609.21092],[-7.00658,1.10151],[6.02988,-0.94797]],[[1105.55785,608.24117],[-6.26241,-1.35794],[0,0]],[1106.84804,607.86709]],&quot;closed&quot;:true}],&quot;index&quot;:null}" fill="url(#color-15)" stroke="none" stroke-width="0.5" stroke-linecap="butt"/><path d="M528.51889,318.4943c6.22137,1.39357 13.22398,0.51622 19.50171,0.51622l0.54837,0.13951c0,0 0.12824,0.02592 0.3156,0.02351c0.00462,0.096 0.00959,0.19264 0.01462,0.28767c0.03727,0.70508 0.48514,2.94888 -0.45786,3.35995c-0.99385,0.43324 -2.16099,0.19917 -3.23975,0.30733c-3.04981,0.30579 -5.94619,-0.09765 -8.89672,-0.45637c-0.0882,-0.01835 -0.1857,-0.03274 -0.28882,-0.03708c-0.47991,-0.05741 -0.96894,-0.12188 -1.45747,-0.17145c-1.55312,-0.13998 -4.1119,0.30356 -5.36604,-0.83488c-0.78426,-0.7119 -1.32839,-1.63241 -1.70984,-2.61948c0.41446,-0.0215 0.7838,-0.21854 1.03621,-0.51494z" data-paper-data="{&quot;noHover&quot;:false,&quot;origItem&quot;:[&quot;Path&quot;,{&quot;applyMatrix&quot;:true,&quot;segments&quot;:[[[1064.19261,628.03656],[12.55545,0],[0,0]],[1063.09619,628.31369],[[1062.46509,628.36014],[0.37471,0.00483],[-0.00924,0.19201]],[[1062.43618,628.93328],[0.01005,-0.19005],[-0.07454,1.41016]],[[1063.35112,635.62651],[-1.886,-0.82214],[1.9877,0.86648]],[[1069.828,636.23104],[-2.15753,-0.21633],[6.09961,0.61158]],[[1087.48083,635.2875],[-5.90106,0.71743],[0.17641,-0.03668]],[[1088.05424,635.21831],[-0.20624,0.00867],[0.95982,-0.11483]],[[1090.95808,634.89401],[-0.97707,0.09914],[3.10624,-0.27995]],[[1101.6836,633.25037],[-2.50829,2.27687],[1.56851,-1.42379]],[[1105.10419,628.03258],[-0.76291,1.97414],[-0.82893,-0.04299]],[[1103.03293,627.00827],[0.50482,0.59279],[-12.44275,2.78715]]],&quot;closed&quot;:true}],&quot;index&quot;:null}" fill="url(#color-16)" stroke="none" stroke-width="0.5" stroke-linecap="butt"/><path d="M530.95251,322.39867l-0.33386,-4.00637" data-paper-data="{&quot;index&quot;:null}" fill="none" stroke="#000000" stroke-width="1.5" stroke-linecap="round"/><path d="M538.1306,319.06001l0.33387,3.33865v2.00319" data-paper-data="{&quot;index&quot;:null}" fill="none" stroke="#000000" stroke-width="1.5" stroke-linecap="round"/><path d="M542.80471,317.55762l0.83466,6.51037" data-paper-data="{&quot;index&quot;:null}" fill="none" stroke="#000000" stroke-width="1.5" stroke-linecap="round"/><path d="M545.64256,318.22535l0.83466,4.67411" data-paper-data="{&quot;index&quot;:null}" fill="none" stroke="#000000" stroke-width="1.5" stroke-linecap="round"/><path d="M534.62502,322.89947l-0.33386,-4.84104" data-paper-data="{&quot;index&quot;:null}" fill="none" stroke="#000000" stroke-width="1.5" stroke-linecap="round"/><path d="M528.11465,319.89468l21.36735,1.50239" data-paper-data="{&quot;index&quot;:null}" fill="none" stroke="#000000" stroke-width="1.5" stroke-linecap="round"/></g></g></svg>