<svg version="1.1" xmlns="http://www.w3.org/2000/svg" xmlns:xlink="http://www.w3.org/1999/xlink" width="1522.02706" height="790.06288" viewBox="0,0,1522.02706,790.06288"><g transform="translate(185.85499,-168.57075)"><g data-paper-data="{&quot;isPaintingLayer&quot;:true}" fill-rule="nonzero" stroke="none" stroke-linecap="butt" stroke-linejoin="miter" stroke-miterlimit="10" stroke-dasharray="" stroke-dashoffset="0" style="mix-blend-mode: normal"><path d="" fill="#0d7d00" stroke-width="0"/><path d="M877.79627,643.88314l16.81627,30.49876l-113.77786,7.44933c-0.02768,-10.53098 -0.06243,-21.06194 -0.10524,-31.59287z" fill="#0c7d00" stroke-width="0"/><path d="M612.86619,692.82857l-16.81627,-30.49876l71.27695,-4.66669c0.08335,1.79025 0.13549,3.16158 0.09806,3.96561c-0.43258,9.29216 -1.60627,18.53284 -2.51676,27.79251z" fill="#0c7d00" stroke-width="0"/><path d="M876.71261,716.4039v-78.07808h459.45946v78.07808z" fill="#0c7d00" stroke-width="0"/><path d="M1185.64566,657.81387v285.55855l-405.02108,0.00001c0.20059,-95.18653 0.48679,-190.37364 0.13428,-285.55854z" fill="#0c7d00" stroke-width="0"/><path d="" fill="#0c7d00" stroke-width="0"/><path d="M555.33577,943.37243c0.00547,-18.96198 -0.03211,-37.92404 -0.073,-56.88595c-0.02081,-9.64788 -4.31317,-20.52348 -4.5045,-29.09609c-1.20228,-53.86741 1.11629,-108.26853 -0.0542,-162.13664c-0.26771,-12.32054 0.10419,-25.11717 -1.68562,-37.43986h118.31542c0.07923,1.71654 0.12744,3.03354 0.09107,3.81485c-0.49658,10.66686 -1.96976,21.26588 -2.90033,31.90366c-0.30502,3.48682 0.01086,7.46781 -0.10267,10.72918c-0.94667,27.19623 -1.56322,54.41167 -1.5015,81.6243c0.02785,12.27687 1.97326,24.47491 3.09699,36.70027c2.32387,25.28195 12.95722,49.5748 16.6014,74.80377c1.79485,12.42589 -1.32968,32.38297 3.69596,45.9825z" fill="#0c7d00" stroke-width="0"/><path d="M481.97044,943.37243c1.35524,-7.29079 0.84664,-15.37788 0.0912,-22.15481c-0.10372,-0.93044 -0.22984,-1.84011 -0.37441,-2.73537c3.43435,-4.62081 5.5953,-10.42417 6.79337,-16.04582c6.35927,1.17808 12.23433,-0.07345 17.07542,-3.24118c0.29113,14.72036 0.14036,29.44835 -0.03621,44.17718z" fill="#0c7d00" stroke-width="0"/><path d="" fill="#0c7d00" stroke-width="0"/><path d="M-99.63964,942.90285v-285.55855h564.39638c-0.02343,0.48575 -0.03493,0.96086 -0.03452,1.42332c0.05174,58.88925 -0.12739,117.77868 0,176.66781c0.00943,4.35992 2.85301,8.27792 3.003,12.32207c0.43723,11.78893 -5.23581,41.79505 10.54687,50.81372c10.19557,5.82604 19.93207,5.43466 27.28392,0.62403c0.28804,14.56393 0.14351,29.13532 -0.03059,43.7076z" fill="#0c7d00" stroke-width="0"/><path d="M555.33589,942.90286c0.00472,-18.80546 -0.03257,-37.61099 -0.07313,-56.41637c-0.02081,-9.64788 -4.31317,-20.52348 -4.5045,-29.09609c-1.20228,-53.86741 1.11629,-108.26853 -0.0542,-162.13664c-0.2696,-12.40759 0.10947,-25.29803 -1.72389,-37.701c-0.01027,-0.06948 -0.02054,-0.13897 -0.03082,-0.20845h118.36257c0.09188,1.9465 0.15264,3.43331 0.11301,4.28443c-0.49658,10.66686 -1.96976,21.26588 -2.90033,31.90366c-0.30502,3.48682 0.01086,7.46781 -0.10267,10.72918c-0.94667,27.19623 -1.56322,54.41167 -1.5015,81.6243c0.02785,12.27687 1.97326,24.47491 3.09699,36.70027c2.32387,25.28195 12.95722,49.5748 16.6014,74.80377c1.7743,12.28363 -1.25878,31.92699 3.52653,45.51293z" fill="#0c7d00" stroke-width="0"/><path d="M787.51056,892.98914c1.97134,7.37042 -0.05647,14.81555 0,22.22329c0.05875,7.70979 3.17123,18.17999 3.57445,23.55761c0.10184,1.35811 0.41458,2.73946 0.82542,4.13282h-11.28486c0.04588,-21.74217 0.09617,-43.48438 0.14223,-65.22658c2.78003,5.076 5.36515,10.16223 6.74277,15.31286z" fill="#0c7d00" stroke-width="0"/><path d="" fill="#0c7d00" stroke-width="0"/><path d="M877.11795,637.85988l24.42037,17.95665l-120.75422,9.13403c-0.02226,-6.59938 -0.0475,-13.19874 -0.07597,-19.7981z" fill="#0c7d00" stroke-width="0"/><path d="M550.54027,682.36654c-0.08396,-6.58286 -0.25814,-13.20659 -0.92816,-19.73364l117.53137,-8.89025c0.16306,3.71932 0.34287,6.5666 0.28144,7.88608c-0.18601,3.99556 -0.50904,7.98161 -0.88925,11.96374z" fill="#0c7d00" stroke-width="0"/><path d="M308.73969,700.65669l-24.42037,-17.95665l180.4097,-13.64645c0.00299,6.60122 0.00347,13.20245 0.00221,19.80368z" fill="#0c7d00" stroke-width="0"/><path d="M505.34477,958.63363l-691.19976,-0.00001v-285.55855l650.58552,0.00002c0.01642,54.12012 -0.12539,108.24036 -0.00831,162.36034c0.00943,4.35992 2.85301,8.27792 3.003,12.32207c0.43723,11.78893 -5.23581,41.79505 10.54687,50.81372c10.19557,5.82604 19.93207,5.43466 27.28392,0.62403c0.39169,19.8045 -0.01651,39.6228 -0.21124,59.43838z" data-paper-data="{&quot;index&quot;:null}" fill="#0c7d00" stroke-width="0"/><path d="M1099.43032,672.6055v285.55855h-318.83612c0.18978,-95.18639 0.50268,-190.3735 0.2144,-285.55855z" data-paper-data="{&quot;index&quot;:null}" fill="#0c7d00" stroke-width="0"/><path d="M555.32207,958.16406c0.03848,-23.89246 -0.00778,-47.78514 -0.05931,-71.67757c-0.02081,-9.64788 -4.31317,-20.52348 -4.5045,-29.09609c-1.20228,-53.86741 1.11629,-108.26853 -0.0542,-162.13664c-0.16178,-7.44544 -0.08998,-15.06474 -0.40282,-22.64825h116.32745c-0.64873,6.97903 -1.4933,13.94461 -2.10409,20.9269c-0.30502,3.48682 0.01086,7.46781 -0.10267,10.72918c-0.94667,27.19623 -1.56322,54.41167 -1.5015,81.6243c0.02785,12.27687 1.97326,24.47491 3.09699,36.70027c2.32387,25.28195 12.95722,49.5748 16.6014,74.80377c2.93015,20.28564 -7.25063,60.6431 26.32263,60.6431c4.18577,0 8.46931,-1.00614 12.29864,-2.79158c0.10039,0.99374 0.21438,1.9738 0.34738,2.92261z" data-paper-data="{&quot;index&quot;:null}" fill="#0c7d00" stroke-width="0"/><path d="" data-paper-data="{&quot;index&quot;:null}" fill="#0c7d00" stroke-width="0"/><path d="M207.88025,958.16406c0.41084,-1.39335 0.72358,-2.7747 0.82542,-4.13282c0.40322,-5.37762 3.5157,-15.84782 3.57445,-23.55761c0.05647,-7.40773 -1.97134,-14.85286 0,-22.22329c2.49237,-9.31846 8.93709,-18.42612 13.33782,-27.6438c9.01723,-18.88731 15.74486,-37.74026 22.04941,-56.73948c6.54396,-19.72069 12.85418,-39.4588 20.91101,-59.09979c2.23473,-5.44784 11.58988,-14.54575 11.61635,-21.52307c0.08931,-23.54621 -0.01791,-47.09246 -0.03369,-70.6387h184.56937c0.01739,54.27665 -0.12558,108.55342 -0.00817,162.82993c0.00943,4.35992 2.85301,8.27792 3.003,12.32207c0.43723,11.78893 -5.23581,41.79505 10.54687,50.81372c10.19557,5.82604 19.93207,5.43466 27.28392,0.62403c0.38859,19.64806 -0.01011,39.30971 -0.20659,58.9688z" data-paper-data="{&quot;index&quot;:null}" fill="#0c7d00" stroke-width="0"/><path d="M972.67416,586.76127v-19.51952h133.63363v19.51952z" fill="#bb750b" stroke-width="0"/><path d="M766.98048,434.61111v-19.51952h133.63363v19.51952z" fill="#0c7d00" stroke-width="0"/><path d="M614.82733,384.06156v-19.51952h133.63363v19.51952z" fill="#0c7d00" stroke-width="0"/><path d="M466.67418,329.0015v-19.51952h133.63363v19.51952z" fill="#0c7d00" stroke-width="0"/><path d="M307.50601,289.96246v-19.51952h133.63363v19.51952z" fill="#0c7d00" stroke-width="0"/><path d="M458.65616,197.86036v-19.51952h133.63363v19.51952z" fill="#0c7d00" stroke-width="0"/><path d="M851.01952,490.15766v-19.51952c0,0 36.475,-1.5015 57.62162,-1.5015c23.20623,0 76.01201,1.5015 76.01201,1.5015v19.51952z" fill="#0c7d00" stroke-width="0"/><path d="M288.89869,661.17316l0.47868,-16.50958l168.09753,4.87379l-0.47868,16.50958z" data-paper-data="{&quot;index&quot;:null}" fill="#0d8200" stroke-width="0"/><path d="M380.12806,660.77292c-3.72921,-0.39442 -3.33479,-4.12361 -3.33479,-4.12361l0.03506,-0.33148c0.37031,-3.50129 0.24095,-10.58318 3.50911,-12.69231c1.98565,-1.28145 4.70112,-0.53406 7.06973,0.77943c0.77227,-1.94182 2.24801,-3.44388 5.20884,-3.86311c1.84214,-0.26083 3.68914,0.65925 5.19796,2.13825c0.58043,-0.13004 1.24405,-0.17119 2.00383,-0.10383c0.64425,0.05712 1.20413,0.32635 1.69994,0.72996c0.63431,-0.23059 1.29075,-0.35744 1.9464,-0.34432c0.61649,0.01235 1.21689,0.19057 1.78955,0.49769c0.09563,-0.07346 0.19462,-0.14345 0.29719,-0.20974c1.74506,-1.12765 4.29078,-0.5809 6.231,0.16235c0.88382,0.33856 1.5615,1.01244 2.18168,1.76517c1.75491,-0.346 3.68226,1.03886 5.13632,2.54759c1.39705,0.40316 2.85523,1.17132 4.01204,2.12358c1.46018,-1.44605 3.09718,-2.12018 4.75158,-1.97533c3.96249,-4.62989 6.8232,-1.60417 10.0972,0.58826c1.18382,0.79274 2.50849,1.4356 3.61552,2.32229c0.67605,-0.41237 1.48755,-0.61475 2.33561,-0.52715c0.25858,-1.00184 0.69601,-1.89663 1.47461,-2.58722c4.73908,-4.20344 6.93349,-0.50006 8.13633,2.6283c0.06015,-0.02832 0.12117,-0.05509 0.18309,-0.08024c0.07644,-2.51405 1.59658,-4.42402 6.46574,-4.59432c1.73281,-0.06061 2.54079,2.36311 3.73634,3.61888c2.39661,2.51732 4.54634,5.61564 6.71392,8.29596c0,0 2.35804,2.91583 -0.55779,5.27388c-2.2793,1.84328 -4.21775,0.46396 -4.95548,-0.22611c-0.47873,1.73795 -2.15772,2.92461 -4.00912,2.7288c-0.83472,-0.08829 -1.57638,-0.44404 -2.14881,-0.97307l-3.33502,-3.00969l0.00461,-0.00511c-0.00835,-0.00448 -0.01668,-0.00897 -0.02501,-0.01345c-0.04667,-0.02512 -0.09266,-0.05015 -0.138,-0.07512c-0.58955,1.55449 -2.16977,2.57983 -3.9007,2.39676c-0.39087,-0.04134 -0.76132,-0.14132 -1.10354,-0.29028c-0.66378,1.39752 -2.15674,2.29181 -3.78265,2.11984c-0.71476,-0.0756 -1.36128,-0.34732 -1.89174,-0.75599c-0.77652,0.86394 -1.94221,1.35608 -3.18571,1.22456c-1.83343,-0.19392 -3.2179,-1.67822 -3.34617,-3.45476c-0.48955,0.32945 -1.65684,0.47966 -3.04221,0.51945c-0.61534,0.30458 -1.3216,0.4439 -2.05492,0.36634c-0.1195,-0.01264 -0.23709,-0.03076 -0.35255,-0.05409c-0.41366,1.3943 -0.80363,2.57724 -0.99045,3.34854l-4.28406,-4.1152c-0.172,0.49316 -0.44272,0.93583 -0.7864,1.30712c0.02427,0.24888 0.02387,0.50391 -0.00346,0.7623c-0.21783,2.05958 -2.06403,3.55262 -4.12362,3.33479c-0.36956,-0.03909 -0.72088,-0.13059 -1.04735,-0.26637l-3.46112,-1.34892l0.00006,-0.00017c-1.20173,-0.48971 -2.42277,-1.00525 -3.57543,-1.58611c-1.10308,-0.12904 -2.04015,-0.72595 -2.63339,-1.57084c-1.41061,-1.02367 -2.53364,-2.24801 -3.11029,-3.78967c-0.74309,1.15047 -2.09168,1.85051 -3.54675,1.69662c-0.61041,-0.06456 -1.17106,-0.27216 -1.65216,-0.58595c-0.74294,0.59037 -1.70901,0.90085 -2.72725,0.79316c-1.40331,-0.14842 -2.54362,-1.05282 -3.05892,-2.26559c-0.44446,0.12469 -0.91954,0.16885 -1.40657,0.11735c-1.47694,-0.1562 -2.66255,-1.14981 -3.13481,-2.45897c-0.59284,1.54828 -2.16966,2.56834 -3.89648,2.3857c-1.91983,-0.20304 -3.3474,-1.82099 -3.35586,-3.70776l-0.05006,-2.6372l0.2401,-0.00457c-0.09469,-0.10879 -0.19299,-0.2149 -0.29528,-0.31809c-0.24978,-0.25197 -0.56935,-0.42574 -0.89658,-0.5891c0.09079,1.8146 -0.62218,4.42565 -0.7142,5.29573l-0.03506,0.33148c0,0 -0.39442,3.72919 -4.12362,3.33478z" fill="#14c700" stroke-width="0.5"/><path d="M294.18742,657.21079c-3.72919,-0.39442 -3.33479,-4.12362 -3.33479,-4.12362l0.03507,-0.33148c0.37031,-3.50128 0.24096,-10.58317 3.50912,-12.69231c1.98565,-1.28145 4.70111,-0.53406 7.06973,0.77943c0.77226,-1.94183 2.24802,-3.44387 5.20885,-3.8631c1.84214,-0.26083 3.68915,0.65924 5.19796,2.13825c0.58043,-0.13005 1.24406,-0.1712 2.00383,-0.10384c0.64424,0.05712 1.20413,0.32636 1.69994,0.72997c0.63431,-0.23058 1.29075,-0.35744 1.9464,-0.34432c0.61649,0.01235 1.21689,0.19057 1.78956,0.49769c0.09562,-0.07346 0.19462,-0.14345 0.29718,-0.20974c1.74506,-1.12765 4.29078,-0.5809 6.231,0.16234c0.88383,0.33858 1.56149,1.01244 2.18169,1.76517c1.75491,-0.346 3.68226,1.03886 5.13632,2.54758c1.39705,0.40316 2.85522,1.17132 4.01203,2.12358c1.46017,-1.44605 3.09718,-2.12018 4.75158,-1.97533c3.96249,-4.62989 6.8232,-1.60418 10.09721,0.58825c1.18383,0.79274 2.50848,1.43561 3.61551,2.32229c0.67604,-0.41238 1.48755,-0.61475 2.3356,-0.52716c0.25856,-1.00185 0.69602,-1.89663 1.47461,-2.58722c4.73908,-4.20344 6.93348,-0.50006 8.13633,2.6283c0.06015,-0.02832 0.12115,-0.05509 0.1831,-0.08023c0.07644,-2.51406 1.59659,-4.42402 6.46575,-4.59432c1.73281,-0.06061 2.54079,2.36311 3.73634,3.61889c2.39661,2.51732 4.54634,5.61564 6.71393,8.29596c0,0 2.35803,2.91583 -0.5578,5.27388c-2.2793,1.84328 -4.21776,0.46395 -4.95549,-0.22611c-0.47872,1.73794 -2.15772,2.92461 -4.00912,2.7288c-0.83472,-0.08828 -1.57637,-0.44405 -2.14881,-0.97308l-3.33502,-3.0097l0.00461,-0.00511c-0.00835,-0.00448 -0.01667,-0.00897 -0.025,-0.01345c-0.04667,-0.02512 -0.09267,-0.05016 -0.13801,-0.07512c-0.58955,1.55449 -2.16977,2.57983 -3.9007,2.39676c-0.39086,-0.04134 -0.76132,-0.14132 -1.10354,-0.29028c-0.66378,1.39753 -2.15674,2.29182 -3.78267,2.11985c-0.71475,-0.0756 -1.36126,-0.34731 -1.89173,-0.75599c-0.77651,0.86394 -1.94222,1.35607 -3.18571,1.22455c-1.83343,-0.19391 -3.2179,-1.67823 -3.34617,-3.45476c-0.48955,0.32945 -1.65684,0.47966 -3.0422,0.51945c-0.61536,0.30456 -1.3216,0.44391 -2.05492,0.36635c-0.11951,-0.01264 -0.2371,-0.03076 -0.35255,-0.05408c-0.41366,1.39429 -0.80363,2.57724 -0.99045,3.34854l-4.28406,-4.11519c-0.17201,0.49316 -0.44272,0.93582 -0.78641,1.30712c0.02427,0.24888 0.02387,0.50391 -0.00346,0.7623c-0.21783,2.05959 -2.06403,3.55261 -4.12362,3.33479c-0.36956,-0.0391 -0.72088,-0.1306 -1.04734,-0.26637l-3.46112,-1.34892l0.00007,-0.00018c-1.20173,-0.48971 -2.42277,-1.00524 -3.57545,-1.5861c-1.10308,-0.12903 -2.04016,-0.72595 -2.63339,-1.57084c-1.41062,-1.02366 -2.53363,-2.24801 -3.11028,-3.78968c-0.74309,1.15047 -2.09167,1.85051 -3.54674,1.69662c-0.61041,-0.06456 -1.17106,-0.27216 -1.65216,-0.58597c-0.74293,0.59037 -1.70902,0.90084 -2.72725,0.79316c-1.40331,-0.14842 -2.54361,-1.05282 -3.05892,-2.26559c-0.44446,0.12469 -0.91955,0.16886 -1.40658,0.11735c-1.47695,-0.15621 -2.66255,-1.14981 -3.13481,-2.45898c-0.59284,1.54829 -2.16965,2.56834 -3.89648,2.3857c-1.91983,-0.20305 -3.3474,-1.82098 -3.35586,-3.70774l-0.05006,-2.6372l0.2401,-0.00457c-0.09469,-0.10879 -0.19298,-0.21491 -0.29527,-0.31809c-0.24978,-0.25197 -0.56935,-0.42574 -0.89657,-0.5891c0.09079,1.81461 -0.62218,4.42564 -0.71421,5.29573l-0.03506,0.33148c0,0 -0.39442,3.7292 -4.12363,3.33478z" fill="#14c700" stroke-width="0.5"/><path d="M119.29697,664.9062l-0.92859,-16.49039l167.90218,-9.45468l0.92859,16.49039z" data-paper-data="{&quot;index&quot;:null}" fill="#0d8200" stroke-width="0"/><path d="M210.16107,656.74073c-3.74925,-0.0755 -3.67374,-3.82474 -3.67374,-3.82474l0.00671,-0.33327c0.07089,-3.5201 -0.66092,-10.56527 2.41582,-12.94497c1.86935,-1.44584 4.63859,-0.93235 7.11042,0.17473c0.60416,-2.00051 1.94666,-3.62275 4.86105,-4.29253c1.81325,-0.41671 3.73188,0.34279 5.36113,1.68796c0.56726,-0.17899 1.22496,-0.27647 1.98772,-0.27405c0.64677,0.00206 1.22754,0.22266 1.75591,0.58259c0.61238,-0.28375 1.25563,-0.46603 1.91002,-0.50877c0.6153,-0.04018 1.22869,0.08628 1.82543,0.34353c0.08903,-0.08133 0.1817,-0.1595 0.27826,-0.23427c1.64272,-1.27212 4.22574,-0.94408 6.2222,-0.36871c0.90943,0.26209 1.64202,0.87582 2.32404,1.57302c1.71909,-0.49415 3.75733,0.72161 5.33456,2.10107c1.4263,0.28276 2.94458,0.924 4.17826,1.77431c1.33178,-1.56511 2.90544,-2.37616 4.56617,-2.37268c3.55394,-4.95042 6.66186,-2.17923 10.11063,-0.27349c1.24702,0.68908 2.6216,1.21684 3.80009,2.00606c0.63849,-0.46843 1.42981,-0.73916 2.28225,-0.72408c0.17235,-1.02022 0.53202,-1.94899 1.249,-2.70337c4.36403,-4.59164 6.86574,-1.08851 8.33054,1.92608c0.05752,-0.03334 0.11604,-0.06521 0.1756,-0.09553c-0.13786,-2.51143 1.21416,-4.54388 6.05114,-5.12809c1.72135,-0.20791 2.73275,2.13822 4.03086,3.28765c2.60222,2.30415 5.00791,5.20821 7.39581,7.69426c0,0 2.59772,2.7045 -0.10678,5.30222c-2.1141,2.03063 -4.16294,0.82134 -4.95673,0.19658c-0.32903,1.77239 -1.9009,3.09769 -3.76225,3.06021c-0.83921,-0.01691 -1.60846,-0.30822 -2.22385,-0.7866l-3.57914,-2.71484l0.00416,-0.00548c-0.0087,-0.00375 -0.01738,-0.00752 -0.02607,-0.01127c-0.04864,-0.02106 -0.09659,-0.04208 -0.14389,-0.0631c-0.45507,1.59904 -1.94226,2.75518 -3.68249,2.72014c-0.39296,-0.00791 -0.77058,-0.076 -1.12425,-0.19528c-0.54239,1.44896 -1.9538,2.4671 -3.58845,2.43418c-0.7186,-0.01447 -1.3859,-0.23017 -1.94923,-0.5922c-0.70015,0.92691 -1.81972,1.5165 -3.06989,1.49133c-1.84328,-0.03712 -3.34909,-1.39818 -3.62813,-3.15734c-0.45973,0.36993 -1.60999,0.61897 -2.98695,0.77655c-0.58718,0.35586 -1.27901,0.55481 -2.01627,0.53995c-0.12014,-0.00242 -0.23884,-0.01046 -0.35587,-0.02388c-0.29346,1.42445 -0.5813,2.6363 -0.70178,3.4207l-4.61885,-3.73554c-0.12939,0.50601 -0.36144,0.97012 -0.67227,1.36932c0.04537,0.24591 0.06668,0.50005 0.06145,0.75982c-0.0417,2.07065 -1.75409,3.71544 -3.82475,3.67374c-0.37155,-0.00748 -0.72938,-0.06875 -1.06623,-0.17624l-3.56339,-1.04936l0.00005,-0.00017c-1.23906,-0.38562 -2.49955,-0.79534 -3.69749,-1.27596c-1.11006,-0.03467 -2.09455,-0.54963 -2.75756,-1.34095c-1.49264,-0.89986 -2.71583,-2.02415 -3.42163,-3.51112c-0.64245,1.20955 -1.92655,2.02186 -3.38943,1.9924c-0.6137,-0.01236 -1.18998,-0.17147 -1.69605,-0.44317c-0.68999,0.65147 -1.62611,1.04307 -2.64982,1.02246c-1.41085,-0.02842 -2.62401,-0.83245 -3.24069,-1.99695c-0.43224,0.16208 -0.90183,0.24653 -1.39148,0.23667c-1.48488,-0.0299 -2.75077,-0.91896 -3.33277,-2.18317c-0.45888,1.59313 -1.94313,2.74372 -3.67923,2.70876c-1.93015,-0.03887 -3.49028,-1.5294 -3.65934,-3.4086l-0.27439,-2.62336l0.23884,-0.02499c-0.10361,-0.10033 -0.21059,-0.19769 -0.32128,-0.2918c-0.27032,-0.22979 -0.60353,-0.37572 -0.94348,-0.51063c0.24494,1.80028 -0.24314,4.46255 -0.26076,5.3373l-0.00672,0.33327c0,0 -0.07551,3.74923 -3.82475,3.67373z" fill="#14c700" stroke-width="0.5"/><path d="M124.22918,660.50797c-3.74924,-0.07551 -3.67374,-3.82475 -3.67374,-3.82475l0.00672,-0.33327c0.07089,-3.52009 -0.66091,-10.56526 2.41583,-12.94497c1.86935,-1.44584 4.63858,-0.93235 7.11042,0.17472c0.60414,-2.00052 1.94667,-3.62275 4.86106,-4.29252c1.81325,-0.41671 3.73187,0.34277 5.36113,1.68796c0.56725,-0.179 1.22497,-0.27649 1.98771,-0.27406c0.64676,0.00206 1.22754,0.22267 1.75591,0.5826c0.61238,-0.28374 1.25564,-0.46603 1.91002,-0.50877c0.6153,-0.04018 1.22869,0.08628 1.82543,0.34353c0.08902,-0.08133 0.1817,-0.1595 0.27825,-0.23428c1.64272,-1.27212 4.22575,-0.94408 6.2222,-0.36871c0.90944,0.26211 1.64201,0.87583 2.32404,1.57303c1.71909,-0.49415 3.75733,0.72161 5.33456,2.10106c1.4263,0.28276 2.94457,0.92399 4.17825,1.77431c1.33177,-1.56511 2.90544,-2.37615 4.56617,-2.37268c3.55394,-4.95042 6.66186,-2.17924 10.11064,-0.2735c1.24703,0.68908 2.62159,1.21684 3.80009,2.00606c0.63848,-0.46844 1.42982,-0.73916 2.28224,-0.72409c0.17234,-1.02023 0.53203,-1.94899 1.249,-2.70337c4.36403,-4.59164 6.86574,-1.08852 8.33054,1.92608c0.05752,-0.03334 0.11603,-0.0652 0.1756,-0.09553c-0.13787,-2.51144 1.21416,-4.54388 6.05114,-5.12809c1.72135,-0.20791 2.73275,2.13823 4.03086,3.28766c2.60222,2.30415 5.00791,5.20821 7.39582,7.69425c0,0 2.59771,2.7045 -0.10679,5.30222c-2.1141,2.03063 -4.16295,0.82133 -4.95675,0.19659c-0.32903,1.77238 -1.9009,3.09769 -3.76225,3.06021c-0.83921,-0.0169 -1.60845,-0.30823 -2.22385,-0.78661l-3.57914,-2.71485l0.00416,-0.00549c-0.0087,-0.00375 -0.01737,-0.00752 -0.02605,-0.01127c-0.04864,-0.02106 -0.09661,-0.04209 -0.1439,-0.06309c-0.45507,1.59904 -1.94226,2.75518 -3.68249,2.72014c-0.39296,-0.00791 -0.77058,-0.076 -1.12425,-0.19528c-0.5424,1.44897 -1.9538,2.46711 -3.58847,2.43419c-0.71859,-0.01448 -1.38589,-0.23016 -1.94922,-0.59219c-0.70014,0.92691 -1.81972,1.51649 -3.06989,1.49132c-1.84328,-0.03711 -3.34909,-1.39819 -3.62814,-3.15734c-0.45973,0.36993 -1.60999,0.61898 -2.98694,0.77656c-0.58719,0.35584 -1.27901,0.55481 -2.01627,0.53996c-0.12015,-0.00242 -0.23885,-0.01046 -0.35587,-0.02387c-0.29346,1.42444 -0.5813,2.6363 -0.70178,3.4207l-4.61885,-3.73553c-0.1294,0.50602 -0.36144,0.97011 -0.67227,1.36932c0.04537,0.24591 0.06668,0.50005 0.06145,0.75983c-0.0417,2.07066 -1.75408,3.71543 -3.82475,3.67374c-0.37155,-0.00749 -0.72938,-0.06875 -1.06622,-0.17624l-3.56339,-1.04936l0.00005,-0.00018c-1.23906,-0.38562 -2.49955,-0.79534 -3.6975,-1.27596c-1.11007,-0.03466 -2.09456,-0.54963 -2.75756,-1.34095c-1.49264,-0.89985 -2.71581,-2.02415 -3.42162,-3.51113c-0.64245,1.20955 -1.92653,2.02187 -3.38942,1.99241c-0.6137,-0.01236 -1.18998,-0.17148 -1.69605,-0.44318c-0.68998,0.65147 -1.62612,1.04307 -2.64983,1.02246c-1.41085,-0.02842 -2.624,-0.83245 -3.24069,-1.99695c-0.43224,0.16208 -0.90184,0.24654 -1.39148,0.23667c-1.48489,-0.0299 -2.75077,-0.91896 -3.33277,-2.18318c-0.45888,1.59314 -1.94313,2.74373 -3.67923,2.70876c-1.93015,-0.03888 -3.49027,-1.52939 -3.65933,-3.40858l-0.2744,-2.62336l0.23884,-0.02499c-0.10361,-0.10033 -0.21058,-0.1977 -0.32127,-0.2918c-0.27032,-0.22979 -0.60352,-0.37572 -0.94347,-0.51064c0.24494,1.80029 -0.24315,4.46255 -0.26077,5.33731l-0.00672,0.33326c0,0 -0.07551,3.74924 -3.82476,3.67374z" fill="#14c700" stroke-width="0.5"/><path d="M-49.8772,668.4047l-0.92858,-16.4904l167.90218,-9.45468l0.92859,16.49039z" data-paper-data="{&quot;index&quot;:null}" fill="#0d8200" stroke-width="0"/><path d="M40.9869,660.23922c-3.74925,-0.0755 -3.67374,-3.82474 -3.67374,-3.82474l0.00672,-0.33326c0.07089,-3.5201 -0.66092,-10.56526 2.41582,-12.94497c1.86935,-1.44584 4.63859,-0.93235 7.11042,0.17472c0.60415,-2.00051 1.94666,-3.62275 4.86105,-4.29253c1.81324,-0.41671 3.73188,0.34278 5.36114,1.68796c0.56725,-0.17899 1.22496,-0.27648 1.98771,-0.27405c0.64677,0.00206 1.22754,0.22266 1.75591,0.58259c0.61237,-0.28376 1.25564,-0.46603 1.91002,-0.50877c0.61531,-0.04018 1.22869,0.08628 1.82542,0.34352c0.08903,-0.08133 0.1817,-0.1595 0.27826,-0.23428c1.64273,-1.27212 4.22574,-0.94408 6.2222,-0.36872c0.90944,0.2621 1.64202,0.87583 2.32404,1.57303c1.71909,-0.49415 3.75734,0.72161 5.33456,2.10107c1.4263,0.28275 2.94458,0.92399 4.17825,1.77431c1.33177,-1.56511 2.90544,-2.37616 4.56617,-2.37269c3.55394,-4.95042 6.66185,-2.17923 10.11062,-0.27349c1.24701,0.68908 2.62159,1.21684 3.80009,2.00606c0.6385,-0.46843 1.42982,-0.73916 2.28225,-0.72408c0.17234,-1.02022 0.53201,-1.94899 1.249,-2.70337c4.36403,-4.59163 6.86575,-1.08851 8.33055,1.92608c0.05752,-0.03334 0.11604,-0.0652 0.1756,-0.09553c-0.13787,-2.51143 1.21415,-4.54388 6.05114,-5.1281c1.72136,-0.2079 2.73275,2.13822 4.03086,3.28765c2.60222,2.30416 5.00791,5.20821 7.39581,7.69425c0,0 2.59772,2.7045 -0.10678,5.30222c-2.1141,2.03063 -4.16295,0.82134 -4.95674,0.19658c-0.32903,1.77239 -1.9009,3.09769 -3.76225,3.06021c-0.8392,-0.0169 -1.60846,-0.30822 -2.22385,-0.7866l-3.57913,-2.71484l0.00416,-0.00549c-0.00869,-0.00375 -0.01738,-0.00752 -0.02607,-0.01127c-0.04864,-0.02106 -0.09659,-0.04208 -0.1439,-0.0631c-0.45506,1.59903 -1.94226,2.75518 -3.68249,2.72014c-0.39297,-0.00791 -0.77058,-0.07599 -1.12425,-0.19528c-0.54239,1.44895 -1.9538,2.4671 -3.58845,2.43417c-0.7186,-0.01447 -1.3859,-0.23017 -1.94923,-0.5922c-0.70015,0.92691 -1.81973,1.5165 -3.0699,1.49133c-1.84328,-0.03712 -3.34909,-1.39818 -3.62813,-3.15734c-0.45973,0.36993 -1.60999,0.61897 -2.98694,0.77656c-0.58718,0.35586 -1.27901,0.55481 -2.01628,0.53995c-0.12014,-0.00242 -0.23884,-0.01046 -0.35587,-0.02388c-0.29345,1.42445 -0.5813,2.6363 -0.70177,3.4207l-4.61885,-3.73554c-0.12939,0.50601 -0.36144,0.97012 -0.67227,1.36933c0.04537,0.2459 0.06669,0.50005 0.06145,0.75982c-0.0417,2.07065 -1.75409,3.71545 -3.82475,3.67375c-0.37154,-0.00748 -0.72938,-0.06875 -1.06622,-0.17624l-3.56339,-1.04936l0.00005,-0.00017c-1.23906,-0.38562 -2.49955,-0.79534 -3.69749,-1.27596c-1.11006,-0.03467 -2.09455,-0.54962 -2.75756,-1.34094c-1.49265,-0.89986 -2.71582,-2.02416 -3.42163,-3.51113c-0.64246,1.20955 -1.92655,2.02187 -3.38943,1.99241c-0.6137,-0.01236 -1.18998,-0.17147 -1.69605,-0.44317c-0.68999,0.65147 -1.62611,1.04307 -2.64982,1.02246c-1.41085,-0.02841 -2.62402,-0.83245 -3.24069,-1.99695c-0.43223,0.16207 -0.90183,0.24653 -1.39148,0.23667c-1.48488,-0.0299 -2.75077,-0.91896 -3.33276,-2.18317c-0.45888,1.59313 -1.94314,2.74372 -3.67924,2.70875c-1.93015,-0.03886 -3.49028,-1.5294 -3.65933,-3.4086l-0.27439,-2.62336l0.23884,-0.02499c-0.10361,-0.10033 -0.21058,-0.1977 -0.32128,-0.2918c-0.27033,-0.22978 -0.60353,-0.37572 -0.94348,-0.51063c0.24494,1.80029 -0.24314,4.46255 -0.26076,5.3373l-0.00672,0.33327c0,0 -0.0755,3.74923 -3.82474,3.67373z" fill="#14c700" stroke-width="0.5"/><path d="M-44.94499,664.00647c-3.74923,-0.07551 -3.67374,-3.82475 -3.67374,-3.82475l0.00672,-0.33327c0.07089,-3.52009 -0.6609,-10.56526 2.41583,-12.94497c1.86934,-1.44584 4.63858,-0.93235 7.11042,0.17472c0.60414,-2.00052 1.94667,-3.62275 4.86106,-4.29252c1.81324,-0.41671 3.73188,0.34277 5.36113,1.68796c0.56725,-0.17899 1.22497,-0.27648 1.98772,-0.27405c0.64676,0.00206 1.22754,0.22267 1.75591,0.5826c0.61237,-0.28374 1.25564,-0.46604 1.91002,-0.50877c0.61531,-0.04018 1.22869,0.08629 1.82542,0.34353c0.08902,-0.08133 0.1817,-0.1595 0.27825,-0.23428c1.64273,-1.27212 4.22575,-0.94408 6.22221,-0.36872c0.90944,0.26211 1.64202,0.87583 2.32404,1.57303c1.71909,-0.49415 3.75734,0.72161 5.33456,2.10106c1.4263,0.28275 2.94457,0.92399 4.17825,1.77431c1.33176,-1.56511 2.90544,-2.37615 4.56617,-2.37268c3.55395,-4.95042 6.66186,-2.17924 10.11064,-0.2735c1.24703,0.68908 2.62159,1.21684 3.80009,2.00606c0.63849,-0.46843 1.42982,-0.73915 2.28224,-0.72408c0.17234,-1.02022 0.53203,-1.949 1.24901,-2.70337c4.36403,-4.59163 6.86574,-1.08851 8.33054,1.92608c0.05751,-0.03334 0.11602,-0.06521 0.1756,-0.09554c-0.13787,-2.51144 1.21416,-4.54389 6.05115,-5.12809c1.72135,-0.2079 2.73275,2.13823 4.03086,3.28767c2.60222,2.30416 5.00791,5.20821 7.39582,7.69425c0,0 2.59771,2.7045 -0.10679,5.30222c-2.1141,2.03063 -4.16295,0.82133 -4.95675,0.19658c-0.32903,1.77238 -1.90091,3.09769 -3.76225,3.06021c-0.83921,-0.01689 -1.60845,-0.30823 -2.22384,-0.78661l-3.57914,-2.71485l0.00415,-0.00549c-0.00869,-0.00375 -0.01737,-0.00752 -0.02605,-0.01127c-0.04864,-0.02106 -0.09661,-0.04209 -0.1439,-0.06309c-0.45506,1.59903 -1.94227,2.75518 -3.6825,2.72014c-0.39296,-0.00791 -0.77058,-0.076 -1.12425,-0.19529c-0.5424,1.44897 -1.9538,2.46711 -3.58846,2.43419c-0.71859,-0.01447 -1.38589,-0.23016 -1.94922,-0.59219c-0.70013,0.92691 -1.81973,1.51649 -3.06989,1.49131c-1.84328,-0.03711 -3.34909,-1.39819 -3.62814,-3.15734c-0.45972,0.36993 -1.60999,0.61897 -2.98694,0.77656c-0.5872,0.35584 -1.27901,0.55481 -2.01627,0.53996c-0.12014,-0.00242 -0.23886,-0.01046 -0.35587,-0.02387c-0.29345,1.42444 -0.5813,2.6363 -0.70177,3.4207l-4.61885,-3.73553c-0.12939,0.50602 -0.36144,0.97011 -0.67227,1.36932c0.04537,0.2459 0.06668,0.50005 0.06144,0.75983c-0.0417,2.07065 -1.75409,3.71543 -3.82475,3.67374c-0.37154,-0.00749 -0.72938,-0.06875 -1.06621,-0.17624l-3.56339,-1.04936l0.00005,-0.00018c-1.23906,-0.38562 -2.49956,-0.79534 -3.6975,-1.27596c-1.11006,-0.03466 -2.09455,-0.54963 -2.75756,-1.34095c-1.49264,-0.89986 -2.71581,-2.02415 -3.42163,-3.51113c-0.64246,1.20955 -1.92654,2.02187 -3.38942,1.99241c-0.6137,-0.01236 -1.18998,-0.17148 -1.69604,-0.44319c-0.68998,0.65147 -1.62612,1.04307 -2.64983,1.02246c-1.41085,-0.02841 -2.62401,-0.83245 -3.24069,-1.99695c-0.43223,0.16207 -0.90183,0.24654 -1.39148,0.23667c-1.48489,-0.0299 -2.75077,-0.91896 -3.33278,-2.18318c-0.45888,1.59314 -1.94313,2.74373 -3.67923,2.70876c-1.93015,-0.03887 -3.49028,-1.52939 -3.65933,-3.40858l-0.27439,-2.62336l0.23884,-0.02499c-0.10361,-0.10033 -0.21058,-0.1977 -0.32128,-0.2918c-0.27033,-0.22978 -0.60352,-0.37572 -0.94347,-0.51064c0.24494,1.8003 -0.24316,4.46255 -0.26077,5.33731l-0.00671,0.33326c0,0 -0.07551,3.74924 -3.82476,3.67374z" fill="#14c700" stroke-width="0.5"/><path d="M782.45012,655.38669l-0.92858,-16.4904l167.90218,-9.45468l0.92859,16.49039z" data-paper-data="{&quot;index&quot;:null}" fill="#0d8200" stroke-width="0"/><path d="M873.31422,647.22121c-3.74925,-0.0755 -3.67374,-3.82474 -3.67374,-3.82474l0.00671,-0.33326c0.07089,-3.5201 -0.66092,-10.56526 2.41582,-12.94497c1.86934,-1.44584 4.63858,-0.93235 7.11042,0.17472c0.60415,-2.00051 1.94666,-3.62275 4.86105,-4.29253c1.81325,-0.41671 3.73188,0.34278 5.36113,1.68796c0.56726,-0.17899 1.22496,-0.27648 1.98771,-0.27405c0.64677,0.00206 1.22754,0.22266 1.75591,0.58259c0.61237,-0.28376 1.25563,-0.46603 1.91002,-0.50877c0.6153,-0.04018 1.22869,0.08628 1.82542,0.34352c0.08903,-0.08133 0.1817,-0.1595 0.27826,-0.23428c1.64273,-1.27212 4.22575,-0.94408 6.2222,-0.36872c0.90944,0.2621 1.64202,0.87583 2.32404,1.57303c1.71908,-0.49415 3.75734,0.72161 5.33456,2.10107c1.4263,0.28275 2.94458,0.92399 4.17825,1.77431c1.33178,-1.56511 2.90544,-2.37616 4.56617,-2.37269c3.55395,-4.95042 6.66186,-2.17923 10.11063,-0.27349c1.24701,0.68908 2.6216,1.21684 3.8001,2.00606c0.63849,-0.46843 1.42981,-0.73916 2.28225,-0.72408c0.17234,-1.02022 0.53202,-1.94899 1.249,-2.70337c4.36402,-4.59163 6.86574,-1.08851 8.33055,1.92608c0.05751,-0.03334 0.11604,-0.0652 0.17559,-0.09553c-0.13786,-2.51143 1.21415,-4.54388 6.05114,-5.1281c1.72135,-0.2079 2.73275,2.13822 4.03086,3.28765c2.60222,2.30416 5.00792,5.20821 7.39581,7.69425c0,0 2.59772,2.7045 -0.10678,5.30222c-2.1141,2.03063 -4.16295,0.82134 -4.95674,0.19658c-0.32903,1.77239 -1.9009,3.09769 -3.76225,3.06021c-0.8392,-0.0169 -1.60846,-0.30822 -2.22385,-0.7866l-3.57913,-2.71484l0.00416,-0.00549c-0.00869,-0.00375 -0.01738,-0.00752 -0.02607,-0.01127c-0.04864,-0.02106 -0.09659,-0.04208 -0.14389,-0.0631c-0.45507,1.59903 -1.94226,2.75518 -3.68249,2.72014c-0.39297,-0.00791 -0.77058,-0.07599 -1.12425,-0.19528c-0.5424,1.44895 -1.9538,2.4671 -3.58846,2.43417c-0.7186,-0.01447 -1.3859,-0.23017 -1.94922,-0.5922c-0.70015,0.92691 -1.81972,1.5165 -3.06989,1.49133c-1.84329,-0.03712 -3.34909,-1.39818 -3.62814,-3.15734c-0.45973,0.36993 -1.60998,0.61897 -2.98694,0.77656c-0.58718,0.35586 -1.27901,0.55481 -2.01627,0.53995c-0.12014,-0.00242 -0.23885,-0.01046 -0.35588,-0.02388c-0.29345,1.42445 -0.5813,2.6363 -0.70177,3.4207l-4.61885,-3.73554c-0.12938,0.50601 -0.36144,0.97012 -0.67227,1.36933c0.04537,0.2459 0.06669,0.50005 0.06145,0.75982c-0.0417,2.07065 -1.7541,3.71545 -3.82475,3.67375c-0.37154,-0.00748 -0.72938,-0.06875 -1.06622,-0.17624l-3.56339,-1.04936l0.00005,-0.00017c-1.23906,-0.38562 -2.49955,-0.79534 -3.69748,-1.27596c-1.11006,-0.03467 -2.09455,-0.54962 -2.75757,-1.34094c-1.49264,-0.89986 -2.71582,-2.02416 -3.42163,-3.51113c-0.64246,1.20955 -1.92655,2.02187 -3.38943,1.99241c-0.6137,-0.01236 -1.18998,-0.17147 -1.69605,-0.44317c-0.68999,0.65147 -1.62612,1.04307 -2.64983,1.02246c-1.41085,-0.02841 -2.62401,-0.83245 -3.24069,-1.99695c-0.43223,0.16207 -0.90183,0.24653 -1.39148,0.23667c-1.48488,-0.0299 -2.75077,-0.91896 -3.33276,-2.18317c-0.45888,1.59313 -1.94313,2.74372 -3.67924,2.70875c-1.93014,-0.03886 -3.49028,-1.5294 -3.65933,-3.4086l-0.2744,-2.62336l0.23885,-0.02499c-0.10361,-0.10033 -0.21058,-0.1977 -0.32128,-0.2918c-0.27032,-0.22978 -0.60353,-0.37572 -0.94348,-0.51063c0.24494,1.80029 -0.24314,4.46255 -0.26076,5.3373l-0.00672,0.33327c0,0 -0.07551,3.74923 -3.82475,3.67373z" fill="#14c700" stroke-width="0.5"/><path d="M787.38233,650.98845c-3.74923,-0.07551 -3.67374,-3.82475 -3.67374,-3.82475l0.00672,-0.33327c0.07089,-3.52009 -0.66091,-10.56526 2.41583,-12.94497c1.86935,-1.44584 4.63858,-0.93235 7.11042,0.17472c0.60414,-2.00052 1.94667,-3.62275 4.86106,-4.29252c1.81324,-0.41671 3.73187,0.34277 5.36113,1.68796c0.56725,-0.17899 1.22497,-0.27648 1.98771,-0.27405c0.64676,0.00206 1.22754,0.22267 1.75591,0.5826c0.61238,-0.28374 1.25563,-0.46604 1.91002,-0.50877c0.61531,-0.04018 1.22869,0.08629 1.82542,0.34353c0.08902,-0.08133 0.1817,-0.1595 0.27825,-0.23428c1.64273,-1.27212 4.22575,-0.94408 6.22221,-0.36872c0.90944,0.26211 1.64202,0.87583 2.32404,1.57303c1.71908,-0.49415 3.75734,0.72161 5.33456,2.10106c1.4263,0.28275 2.94457,0.92399 4.17825,1.77431c1.33177,-1.56511 2.90544,-2.37615 4.56617,-2.37268c3.55395,-4.95042 6.66186,-2.17924 10.11064,-0.2735c1.24703,0.68908 2.62159,1.21684 3.80009,2.00606c0.63849,-0.46843 1.42982,-0.73915 2.28224,-0.72408c0.17234,-1.02022 0.53203,-1.949 1.24901,-2.70337c4.36402,-4.59163 6.86574,-1.08851 8.33054,1.92608c0.05751,-0.03334 0.11603,-0.06521 0.17561,-0.09554c-0.13787,-2.51144 1.21416,-4.54389 6.05114,-5.12809c1.72135,-0.2079 2.73275,2.13823 4.03086,3.28767c2.60222,2.30416 5.00791,5.20821 7.39582,7.69425c0,0 2.59771,2.7045 -0.10679,5.30222c-2.1141,2.03063 -4.16295,0.82133 -4.95675,0.19658c-0.32903,1.77238 -1.9009,3.09769 -3.76226,3.06021c-0.83921,-0.01689 -1.60844,-0.30823 -2.22384,-0.78661l-3.57913,-2.71485l0.00416,-0.00549c-0.00869,-0.00375 -0.01737,-0.00752 -0.02606,-0.01127c-0.04864,-0.02106 -0.0966,-0.04209 -0.1439,-0.06309c-0.45506,1.59903 -1.94227,2.75518 -3.6825,2.72014c-0.39296,-0.00791 -0.77058,-0.076 -1.12425,-0.19529c-0.5424,1.44897 -1.9538,2.46711 -3.58846,2.43419c-0.71859,-0.01447 -1.38589,-0.23016 -1.94922,-0.59219c-0.70013,0.92691 -1.81972,1.51649 -3.06989,1.49131c-1.84328,-0.03711 -3.34909,-1.39819 -3.62814,-3.15734c-0.45972,0.36993 -1.60999,0.61897 -2.98694,0.77656c-0.58719,0.35584 -1.27901,0.55481 -2.01627,0.53996c-0.12015,-0.00242 -0.23886,-0.01046 -0.35587,-0.02387c-0.29345,1.42444 -0.5813,2.6363 -0.70177,3.4207l-4.61885,-3.73553c-0.12939,0.50602 -0.36144,0.97011 -0.67227,1.36932c0.04537,0.2459 0.06668,0.50005 0.06145,0.75983c-0.0417,2.07065 -1.75409,3.71543 -3.82475,3.67374c-0.37155,-0.00749 -0.72938,-0.06875 -1.06622,-0.17624l-3.56339,-1.04936l0.00005,-0.00018c-1.23906,-0.38562 -2.49955,-0.79534 -3.6975,-1.27596c-1.11006,-0.03466 -2.09455,-0.54963 -2.75756,-1.34095c-1.49264,-0.89986 -2.71582,-2.02415 -3.42163,-3.51113c-0.64245,1.20955 -1.92653,2.02187 -3.38942,1.99241c-0.6137,-0.01236 -1.18998,-0.17148 -1.69605,-0.44319c-0.68998,0.65147 -1.62612,1.04307 -2.64983,1.02246c-1.41085,-0.02841 -2.62401,-0.83245 -3.24069,-1.99695c-0.43223,0.16207 -0.90183,0.24654 -1.39148,0.23667c-1.48489,-0.0299 -2.75077,-0.91896 -3.33278,-2.18318c-0.45888,1.59314 -1.94313,2.74373 -3.67923,2.70876c-1.93015,-0.03887 -3.49027,-1.52939 -3.65933,-3.40858l-0.2744,-2.62336l0.23884,-0.02499c-0.10361,-0.10033 -0.21058,-0.1977 -0.32128,-0.2918c-0.27032,-0.22978 -0.60352,-0.37572 -0.94347,-0.51064c0.24494,1.8003 -0.24316,4.46255 -0.26077,5.33731l-0.00671,0.33326c0,0 -0.07551,3.74924 -3.82476,3.67374z" fill="#14c700" stroke-width="0.5"/><path d="M943.60628,648.37467l-0.92858,-16.4904l167.90218,-9.45468l0.92859,16.49039z" data-paper-data="{&quot;index&quot;:null}" fill="#0d8200" stroke-width="0"/><path d="M1034.47038,640.20919c-3.74925,-0.0755 -3.67374,-3.82474 -3.67374,-3.82474l0.00671,-0.33326c0.07089,-3.5201 -0.66091,-10.56526 2.41582,-12.94497c1.86935,-1.44584 4.63858,-0.93235 7.11042,0.17472c0.60415,-2.00051 1.94666,-3.62275 4.86105,-4.29253c1.81325,-0.41671 3.73188,0.34278 5.36114,1.68796c0.56725,-0.17899 1.22496,-0.27648 1.98771,-0.27405c0.64677,0.00206 1.22754,0.22266 1.75591,0.58259c0.61237,-0.28376 1.25563,-0.46603 1.91002,-0.50877c0.61531,-0.04018 1.22869,0.08628 1.82542,0.34352c0.08903,-0.08133 0.1817,-0.1595 0.27826,-0.23428c1.64273,-1.27212 4.22575,-0.94408 6.2222,-0.36872c0.90944,0.2621 1.64202,0.87583 2.32404,1.57303c1.71908,-0.49415 3.75733,0.72161 5.33457,2.10107c1.4263,0.28275 2.94457,0.92399 4.17825,1.77431c1.33178,-1.56511 2.90544,-2.37616 4.56617,-2.37269c3.55395,-4.95042 6.66185,-2.17923 10.11062,-0.27349c1.24702,0.68908 2.6216,1.21684 3.8001,2.00606c0.6385,-0.46843 1.42981,-0.73916 2.28225,-0.72408c0.17234,-1.02022 0.53201,-1.94899 1.249,-2.70337c4.36403,-4.59163 6.86575,-1.08851 8.33055,1.92608c0.05751,-0.03334 0.11604,-0.0652 0.17559,-0.09553c-0.13786,-2.51143 1.21416,-4.54388 6.05114,-5.1281c1.72136,-0.2079 2.73275,2.13822 4.03086,3.28765c2.60222,2.30416 5.00791,5.20821 7.39581,7.69425c0,0 2.59772,2.7045 -0.10678,5.30222c-2.1141,2.03063 -4.16295,0.82134 -4.95673,0.19658c-0.32903,1.77239 -1.9009,3.09769 -3.76225,3.06021c-0.83921,-0.0169 -1.60846,-0.30822 -2.22385,-0.7866l-3.57914,-2.71484l0.00416,-0.00549c-0.00869,-0.00375 -0.01738,-0.00752 -0.02606,-0.01127c-0.04864,-0.02106 -0.0966,-0.04208 -0.14389,-0.0631c-0.45507,1.59903 -1.94226,2.75518 -3.68249,2.72014c-0.39297,-0.00791 -0.77058,-0.07599 -1.12425,-0.19528c-0.54239,1.44895 -1.9538,2.4671 -3.58846,2.43417c-0.7186,-0.01447 -1.3859,-0.23017 -1.94922,-0.5922c-0.70015,0.92691 -1.81973,1.5165 -3.0699,1.49133c-1.84328,-0.03712 -3.34909,-1.39818 -3.62813,-3.15734c-0.45973,0.36993 -1.60999,0.61897 -2.98695,0.77656c-0.58718,0.35586 -1.27901,0.55481 -2.01627,0.53995c-0.12014,-0.00242 -0.23885,-0.01046 -0.35588,-0.02388c-0.29345,1.42445 -0.5813,2.6363 -0.70177,3.4207l-4.61885,-3.73554c-0.12939,0.50601 -0.36144,0.97012 -0.67227,1.36933c0.04537,0.2459 0.06668,0.50005 0.06145,0.75982c-0.0417,2.07065 -1.7541,3.71545 -3.82475,3.67375c-0.37154,-0.00748 -0.72938,-0.06875 -1.06623,-0.17624l-3.56339,-1.04936l0.00005,-0.00017c-1.23906,-0.38562 -2.49955,-0.79534 -3.69748,-1.27596c-1.11006,-0.03467 -2.09455,-0.54962 -2.75757,-1.34094c-1.49265,-0.89986 -2.71582,-2.02416 -3.42163,-3.51113c-0.64246,1.20955 -1.92654,2.02187 -3.38944,1.99241c-0.6137,-0.01236 -1.18998,-0.17147 -1.69605,-0.44317c-0.68999,0.65147 -1.62612,1.04307 -2.64982,1.02246c-1.41085,-0.02841 -2.62401,-0.83245 -3.24069,-1.99695c-0.43223,0.16207 -0.90183,0.24653 -1.39147,0.23667c-1.48488,-0.0299 -2.75076,-0.91896 -3.33277,-2.18317c-0.45887,1.59313 -1.94313,2.74372 -3.67923,2.70875c-1.93015,-0.03886 -3.49028,-1.5294 -3.65934,-3.4086l-0.27439,-2.62336l0.23884,-0.02499c-0.10361,-0.10033 -0.21058,-0.1977 -0.32128,-0.2918c-0.27033,-0.22978 -0.60353,-0.37572 -0.94348,-0.51063c0.24494,1.80029 -0.24314,4.46255 -0.26076,5.3373l-0.00672,0.33327c0,0 -0.0755,3.74923 -3.82474,3.67373z" fill="#14c700" stroke-width="0.5"/><path d="M948.53849,643.97644c-3.74923,-0.07551 -3.67374,-3.82475 -3.67374,-3.82475l0.00672,-0.33327c0.07089,-3.52009 -0.66091,-10.56526 2.41583,-12.94497c1.86934,-1.44584 4.63858,-0.93235 7.11042,0.17472c0.60414,-2.00052 1.94667,-3.62275 4.86106,-4.29252c1.81325,-0.41671 3.73188,0.34277 5.36113,1.68796c0.56725,-0.17899 1.22497,-0.27648 1.98771,-0.27405c0.64676,0.00206 1.22754,0.22267 1.75591,0.5826c0.61237,-0.28374 1.25563,-0.46604 1.91002,-0.50877c0.6153,-0.04018 1.22869,0.08629 1.82542,0.34353c0.08902,-0.08133 0.1817,-0.1595 0.27825,-0.23428c1.64273,-1.27212 4.22575,-0.94408 6.2222,-0.36872c0.90944,0.26211 1.64202,0.87583 2.32404,1.57303c1.71909,-0.49415 3.75734,0.72161 5.33456,2.10106c1.4263,0.28275 2.94457,0.92399 4.17825,1.77431c1.33177,-1.56511 2.90544,-2.37615 4.56617,-2.37268c3.55394,-4.95042 6.66186,-2.17924 10.11064,-0.2735c1.24703,0.68908 2.62159,1.21684 3.80009,2.00606c0.63849,-0.46843 1.42981,-0.73915 2.28224,-0.72408c0.17233,-1.02022 0.53203,-1.949 1.24901,-2.70337c4.36402,-4.59163 6.86574,-1.08851 8.33054,1.92608c0.05751,-0.03334 0.11603,-0.06521 0.17561,-0.09554c-0.13787,-2.51144 1.21416,-4.54389 6.05114,-5.12809c1.72136,-0.2079 2.73275,2.13823 4.03086,3.28767c2.60222,2.30416 5.00791,5.20821 7.39582,7.69425c0,0 2.59771,2.7045 -0.10679,5.30222c-2.1141,2.03063 -4.16295,0.82133 -4.95675,0.19658c-0.32903,1.77238 -1.9009,3.09769 -3.76226,3.06021c-0.83921,-0.01689 -1.60844,-0.30823 -2.22384,-0.78661l-3.57914,-2.71485l0.00415,-0.00549c-0.00869,-0.00375 -0.01737,-0.00752 -0.02606,-0.01127c-0.04864,-0.02106 -0.0966,-0.04209 -0.1439,-0.06309c-0.45507,1.59903 -1.94227,2.75518 -3.6825,2.72014c-0.39296,-0.00791 -0.77058,-0.076 -1.12425,-0.19529c-0.5424,1.44897 -1.9538,2.46711 -3.58847,2.43419c-0.71859,-0.01447 -1.38588,-0.23016 -1.94922,-0.59219c-0.70013,0.92691 -1.81972,1.51649 -3.06989,1.49131c-1.84328,-0.03711 -3.34909,-1.39819 -3.62814,-3.15734c-0.45973,0.36993 -1.60999,0.61897 -2.98694,0.77656c-0.58719,0.35584 -1.27901,0.55481 -2.01627,0.53996c-0.12014,-0.00242 -0.23885,-0.01046 -0.35587,-0.02387c-0.29345,1.42444 -0.5813,2.6363 -0.70177,3.4207l-4.61885,-3.73553c-0.1294,0.50602 -0.36144,0.97011 -0.67227,1.36932c0.04537,0.2459 0.06668,0.50005 0.06144,0.75983c-0.0417,2.07065 -1.75408,3.71543 -3.82475,3.67374c-0.37154,-0.00749 -0.72938,-0.06875 -1.06621,-0.17624l-3.56339,-1.04936l0.00005,-0.00018c-1.23906,-0.38562 -2.49955,-0.79534 -3.6975,-1.27596c-1.11006,-0.03466 -2.09456,-0.54963 -2.75756,-1.34095c-1.49264,-0.89986 -2.71582,-2.02415 -3.42162,-3.51113c-0.64246,1.20955 -1.92654,2.02187 -3.38943,1.99241c-0.6137,-0.01236 -1.18998,-0.17148 -1.69604,-0.44319c-0.68998,0.65147 -1.62612,1.04307 -2.64983,1.02246c-1.41085,-0.02841 -2.62401,-0.83245 -3.24069,-1.99695c-0.43223,0.16207 -0.90183,0.24654 -1.39148,0.23667c-1.48489,-0.0299 -2.75077,-0.91896 -3.33277,-2.18318c-0.45888,1.59314 -1.94313,2.74373 -3.67923,2.70876c-1.93015,-0.03887 -3.49028,-1.52939 -3.65933,-3.40858l-0.2744,-2.62336l0.23885,-0.02499c-0.10361,-0.10033 -0.21058,-0.1977 -0.32128,-0.2918c-0.27033,-0.22978 -0.60352,-0.37572 -0.94347,-0.51064c0.24494,1.8003 -0.24316,4.46255 -0.26077,5.33731l-0.00671,0.33326c0,0 -0.07551,3.74924 -3.82476,3.67374z" fill="#14c700" stroke-width="0.5"/><path d="M771.85681,423.75121c-3.74923,-0.07551 -3.67374,-3.82474 -3.67374,-3.82474l0.00672,-0.33327c0.07089,-3.52009 -0.6609,-10.56526 2.41583,-12.94497c1.86934,-1.44584 4.63858,-0.93235 7.11042,0.17472c0.60414,-2.00052 1.94667,-3.62275 4.86106,-4.29252c1.81325,-0.41671 3.73187,0.34277 5.36113,1.68796c0.56725,-0.17899 1.22497,-0.27648 1.98771,-0.27405c0.64676,0.00206 1.22754,0.22267 1.75591,0.5826c0.61237,-0.28374 1.25563,-0.46604 1.91002,-0.50877c0.6153,-0.04018 1.22869,0.08629 1.82542,0.34353c0.08902,-0.08133 0.1817,-0.1595 0.27825,-0.23428c1.64273,-1.27212 4.22575,-0.94408 6.22221,-0.36872c0.90944,0.26211 1.64202,0.87583 2.32404,1.57303c1.71909,-0.49415 3.75734,0.72161 5.33457,2.10106c1.4263,0.28275 2.94457,0.92399 4.17825,1.77431c1.33177,-1.56511 2.90544,-2.37615 4.56617,-2.37268c3.55394,-4.95042 6.66186,-2.17924 10.11064,-0.2735c1.24702,0.68908 2.62159,1.21684 3.80009,2.00606c0.63848,-0.46843 1.42981,-0.73915 2.28224,-0.72408c0.17233,-1.02022 0.53203,-1.949 1.249,-2.70337c4.36403,-4.59163 6.86574,-1.08851 8.33054,1.92608c0.05751,-0.03334 0.11603,-0.06521 0.1756,-0.09554c-0.13787,-2.51144 1.21416,-4.54389 6.05115,-5.12809c1.72135,-0.2079 2.73275,2.13823 4.03086,3.28767c2.60222,2.30416 5.00792,5.20821 7.39583,7.69425c0,0 2.59771,2.7045 -0.10679,5.30222c-2.1141,2.03063 -4.16295,0.82133 -4.95675,0.19658c-0.32903,1.77238 -1.9009,3.09769 -3.76225,3.06021c-0.83921,-0.01689 -1.60845,-0.30823 -2.22384,-0.78661l-3.57913,-2.71485l0.00415,-0.00549c-0.00869,-0.00375 -0.01737,-0.00752 -0.02606,-0.01127c-0.04864,-0.02106 -0.0966,-0.04209 -0.1439,-0.06309c-0.45507,1.59903 -1.94227,2.75518 -3.6825,2.72014c-0.39296,-0.00791 -0.77058,-0.076 -1.12425,-0.19529c-0.5424,1.44897 -1.9538,2.46711 -3.58847,2.43419c-0.71859,-0.01447 -1.38588,-0.23016 -1.94922,-0.59219c-0.70014,0.92691 -1.81973,1.51649 -3.0699,1.49131c-1.84328,-0.03712 -3.34909,-1.39819 -3.62814,-3.15734c-0.45973,0.36993 -1.60999,0.61897 -2.98694,0.77655c-0.5872,0.35584 -1.27901,0.55481 -2.01627,0.53996c-0.12014,-0.00242 -0.23885,-0.01046 -0.35588,-0.02387c-0.29345,1.42444 -0.5813,2.6363 -0.70177,3.4207l-4.61885,-3.73553c-0.1294,0.50602 -0.36144,0.97011 -0.67227,1.36932c0.04537,0.2459 0.06668,0.50005 0.06144,0.75983c-0.0417,2.07065 -1.75408,3.71543 -3.82475,3.67374c-0.37154,-0.00749 -0.72938,-0.06875 -1.06622,-0.17624l-3.56339,-1.04936l0.00005,-0.00018c-1.23906,-0.38562 -2.49956,-0.79534 -3.6975,-1.27596c-1.11007,-0.03465 -2.09456,-0.54963 -2.75756,-1.34095c-1.49264,-0.89985 -2.71582,-2.02415 -3.42162,-3.51113c-0.64246,1.20955 -1.92654,2.02187 -3.38943,1.99241c-0.6137,-0.01236 -1.18998,-0.17148 -1.69604,-0.44319c-0.68998,0.65147 -1.62612,1.04307 -2.64983,1.02246c-1.41085,-0.02841 -2.62401,-0.83245 -3.24069,-1.99695c-0.43223,0.16207 -0.90183,0.24654 -1.39148,0.23667c-1.48489,-0.0299 -2.75077,-0.91896 -3.33277,-2.18318c-0.45888,1.59314 -1.94313,2.74373 -3.67923,2.70876c-1.93015,-0.03887 -3.49028,-1.52939 -3.65933,-3.40858l-0.27439,-2.62336l0.23885,-0.02499c-0.10361,-0.10033 -0.21058,-0.1977 -0.32128,-0.2918c-0.27033,-0.22978 -0.60352,-0.37572 -0.94347,-0.51064c0.24494,1.8003 -0.24315,4.46255 -0.26077,5.33731l-0.00671,0.33326c0,0 -0.07551,3.74924 -3.82476,3.67374z" fill="#14c700" stroke-width="0.5"/><path d="M806.88684,424.24671c-3.74923,-0.07551 -3.67374,-3.82475 -3.67374,-3.82475l0.00672,-0.33327c0.07089,-3.5201 -0.6609,-10.56526 2.41583,-12.94497c1.86934,-1.44585 4.63858,-0.93235 7.11042,0.17472c0.60414,-2.00052 1.94667,-3.62275 4.86106,-4.29252c1.81325,-0.41671 3.73188,0.34277 5.36113,1.68796c0.56725,-0.17899 1.22497,-0.27648 1.98771,-0.27405c0.64676,0.00206 1.22754,0.22266 1.75591,0.5826c0.61238,-0.28375 1.25563,-0.46603 1.91002,-0.50877c0.61531,-0.04018 1.22869,0.08628 1.82542,0.34353c0.08902,-0.08134 0.1817,-0.15951 0.27825,-0.23428c1.64273,-1.27212 4.22575,-0.94408 6.22221,-0.36872c0.90944,0.26211 1.64202,0.87583 2.32404,1.57303c1.71908,-0.49415 3.75734,0.72161 5.33456,2.10106c1.4263,0.28276 2.94457,0.92399 4.17825,1.7743c1.33177,-1.56511 2.90544,-2.37615 4.56617,-2.37268c3.55394,-4.95042 6.66185,-2.17924 10.11064,-0.2735c1.24703,0.68908 2.62159,1.21684 3.80009,2.00606c0.63848,-0.46843 1.42981,-0.73915 2.28224,-0.72409c0.17233,-1.02022 0.53203,-1.949 1.24901,-2.70337c4.36402,-4.59163 6.86574,-1.08852 8.33054,1.92608c0.05751,-0.03334 0.11603,-0.06521 0.17561,-0.09553c-0.13787,-2.51144 1.21416,-4.54388 6.05114,-5.12809c1.72136,-0.2079 2.73275,2.13823 4.03086,3.28767c2.60222,2.30415 5.00791,5.20821 7.39582,7.69425c0,0 2.59771,2.7045 -0.10679,5.30222c-2.1141,2.03064 -4.16295,0.82134 -4.95675,0.19659c-0.32903,1.77238 -1.9009,3.09769 -3.76225,3.06021c-0.83921,-0.01689 -1.60844,-0.30823 -2.22384,-0.78661l-3.57914,-2.71484l0.00416,-0.00549c-0.00869,-0.00375 -0.01737,-0.00752 -0.02606,-0.01128c-0.04864,-0.02106 -0.09661,-0.04208 -0.1439,-0.06309c-0.45506,1.59904 -1.94227,2.75518 -3.6825,2.72013c-0.39296,-0.00791 -0.77058,-0.076 -1.12425,-0.19528c-0.5424,1.44896 -1.9538,2.46711 -3.58846,2.43419c-0.71859,-0.01448 -1.38589,-0.23016 -1.94922,-0.59219c-0.70014,0.92691 -1.81972,1.51649 -3.06989,1.49131c-1.84328,-0.03711 -3.34909,-1.39818 -3.62814,-3.15734c-0.45973,0.36993 -1.60999,0.61897 -2.98694,0.77655c-0.58719,0.35584 -1.27901,0.55482 -2.01627,0.53996c-0.12014,-0.00242 -0.23885,-0.01046 -0.35587,-0.02387c-0.29345,1.42444 -0.5813,2.6363 -0.70177,3.4207l-4.61885,-3.73553c-0.1294,0.50602 -0.36144,0.97011 -0.67227,1.36931c0.04537,0.2459 0.06668,0.50006 0.06144,0.75983c-0.0417,2.07065 -1.75409,3.71543 -3.82475,3.67374c-0.37154,-0.00749 -0.72938,-0.06875 -1.06621,-0.17624l-3.56339,-1.04936l0.00005,-0.00018c-1.23906,-0.38562 -2.49955,-0.79534 -3.6975,-1.27596c-1.11006,-0.03465 -2.09456,-0.54963 -2.75756,-1.34095c-1.49264,-0.89986 -2.71581,-2.02415 -3.42162,-3.51113c-0.64246,1.20955 -1.92654,2.02187 -3.38943,1.99241c-0.6137,-0.01236 -1.18997,-0.17147 -1.69604,-0.44318c-0.68998,0.65147 -1.62612,1.04306 -2.64983,1.02246c-1.41085,-0.02841 -2.62401,-0.83245 -3.24069,-1.99695c-0.43223,0.16208 -0.90183,0.24654 -1.39148,0.23667c-1.48489,-0.0299 -2.75077,-0.91896 -3.33277,-2.18318c-0.45888,1.59314 -1.94313,2.74372 -3.67923,2.70876c-1.93015,-0.03888 -3.49027,-1.52939 -3.65933,-3.40858l-0.2744,-2.62336l0.23884,-0.02499c-0.10361,-0.10033 -0.21057,-0.19769 -0.32127,-0.29179c-0.27032,-0.22978 -0.60353,-0.37573 -0.94347,-0.51064c0.24494,1.8003 -0.24316,4.46255 -0.26077,5.33731l-0.00671,0.33326c0,0 -0.07551,3.74924 -3.82476,3.67374z" fill="#14c700" stroke-width="0.5"/><path d="M850.05856,487.65916v-19.51952h133.63363v19.51952z" fill="#0c7d00" stroke-width="0"/><path d="M854.93489,476.79926c-3.74923,-0.07551 -3.67374,-3.82475 -3.67374,-3.82475l0.00672,-0.33327c0.07089,-3.5201 -0.6609,-10.56526 2.41583,-12.94497c1.86934,-1.44585 4.63858,-0.93235 7.11042,0.17472c0.60414,-2.00052 1.94667,-3.62275 4.86106,-4.29252c1.81325,-0.41671 3.73188,0.34277 5.36113,1.68796c0.56725,-0.17899 1.22497,-0.27648 1.98771,-0.27405c0.64676,0.00206 1.22754,0.22266 1.75591,0.5826c0.61238,-0.28375 1.25563,-0.46603 1.91002,-0.50877c0.61531,-0.04018 1.22869,0.08628 1.82542,0.34353c0.08902,-0.08134 0.1817,-0.15951 0.27825,-0.23428c1.64273,-1.27212 4.22575,-0.94408 6.22221,-0.36872c0.90944,0.26211 1.64202,0.87583 2.32404,1.57303c1.71908,-0.49415 3.75734,0.72161 5.33456,2.10106c1.4263,0.28276 2.94457,0.92399 4.17825,1.7743c1.33177,-1.56511 2.90544,-2.37615 4.56617,-2.37268c3.55394,-4.95042 6.66185,-2.17924 10.11064,-0.2735c1.24703,0.68908 2.62159,1.21684 3.80009,2.00606c0.63848,-0.46843 1.42981,-0.73915 2.28224,-0.72409c0.17233,-1.02022 0.53203,-1.949 1.24901,-2.70337c4.36402,-4.59163 6.86574,-1.08852 8.33054,1.92608c0.05751,-0.03334 0.11603,-0.06521 0.17561,-0.09553c-0.13787,-2.51144 1.21416,-4.54388 6.05114,-5.12809c1.72136,-0.2079 2.73275,2.13823 4.03086,3.28767c2.60222,2.30415 5.00791,5.20821 7.39582,7.69425c0,0 2.59771,2.7045 -0.10679,5.30222c-2.1141,2.03064 -4.16295,0.82134 -4.95675,0.19659c-0.32903,1.77238 -1.9009,3.09769 -3.76225,3.06021c-0.83921,-0.01689 -1.60844,-0.30823 -2.22384,-0.78661l-3.57914,-2.71484l0.00416,-0.00549c-0.00869,-0.00375 -0.01737,-0.00752 -0.02606,-0.01128c-0.04864,-0.02106 -0.09661,-0.04208 -0.1439,-0.06309c-0.45506,1.59904 -1.94227,2.75518 -3.6825,2.72013c-0.39296,-0.00791 -0.77058,-0.076 -1.12425,-0.19528c-0.5424,1.44896 -1.9538,2.46711 -3.58846,2.43419c-0.71859,-0.01448 -1.38589,-0.23016 -1.94922,-0.59219c-0.70014,0.92691 -1.81972,1.51649 -3.06989,1.49131c-1.84328,-0.03711 -3.34909,-1.39818 -3.62814,-3.15734c-0.45973,0.36993 -1.60999,0.61897 -2.98694,0.77655c-0.58719,0.35584 -1.27901,0.55482 -2.01627,0.53996c-0.12014,-0.00242 -0.23885,-0.01046 -0.35587,-0.02387c-0.29345,1.42444 -0.5813,2.6363 -0.70177,3.4207l-4.61885,-3.73553c-0.1294,0.50602 -0.36144,0.97011 -0.67227,1.36931c0.04537,0.2459 0.06668,0.50006 0.06144,0.75983c-0.0417,2.07065 -1.75409,3.71543 -3.82475,3.67374c-0.37154,-0.00749 -0.72938,-0.06875 -1.06621,-0.17624l-3.56339,-1.04936l0.00005,-0.00018c-1.23906,-0.38562 -2.49955,-0.79534 -3.6975,-1.27596c-1.11006,-0.03465 -2.09456,-0.54963 -2.75756,-1.34095c-1.49264,-0.89986 -2.71581,-2.02415 -3.42162,-3.51113c-0.64246,1.20955 -1.92654,2.02187 -3.38943,1.99241c-0.6137,-0.01236 -1.18997,-0.17147 -1.69604,-0.44318c-0.68998,0.65147 -1.62612,1.04306 -2.64983,1.02246c-1.41085,-0.02841 -2.62401,-0.83245 -3.24069,-1.99695c-0.43223,0.16208 -0.90183,0.24654 -1.39148,0.23667c-1.48489,-0.0299 -2.75077,-0.91896 -3.33277,-2.18318c-0.45888,1.59314 -1.94313,2.74372 -3.67923,2.70876c-1.93015,-0.03888 -3.49027,-1.52939 -3.65933,-3.40858l-0.2744,-2.62336l0.23884,-0.02499c-0.10361,-0.10033 -0.21057,-0.19769 -0.32127,-0.29179c-0.27032,-0.22978 -0.60353,-0.37573 -0.94347,-0.51064c0.24494,1.8003 -0.24316,4.46255 -0.26077,5.33731l-0.00671,0.33326c0,0 -0.07551,3.74924 -3.82476,3.67374z" fill="#14c700" stroke-width="0.5"/><path d="M889.96492,477.29476c-3.74923,-0.07551 -3.67374,-3.82475 -3.67374,-3.82475l0.00672,-0.33327c0.07089,-3.5201 -0.6609,-10.56526 2.41583,-12.94497c1.86934,-1.44585 4.63858,-0.93235 7.11042,0.17472c0.60414,-2.00052 1.94667,-3.62275 4.86106,-4.29253c1.81325,-0.41671 3.73188,0.34277 5.36113,1.68796c0.56725,-0.17899 1.22497,-0.27649 1.98771,-0.27406c0.64676,0.00206 1.22754,0.22267 1.75591,0.5826c0.61238,-0.28375 1.25563,-0.46603 1.91002,-0.50877c0.61531,-0.04018 1.22869,0.08628 1.82542,0.34353c0.08902,-0.08134 0.1817,-0.15951 0.27825,-0.23428c1.64273,-1.27212 4.22575,-0.94408 6.2222,-0.36872c0.90944,0.26211 1.64202,0.87583 2.32404,1.57303c1.71908,-0.49415 3.75734,0.72161 5.33456,2.10106c1.4263,0.28276 2.94457,0.92399 4.17825,1.77431c1.33177,-1.56511 2.90544,-2.37615 4.56617,-2.37268c3.55394,-4.95042 6.66185,-2.17924 10.11064,-0.2735c1.24703,0.68908 2.62159,1.21684 3.80009,2.00606c0.63848,-0.46843 1.42981,-0.73915 2.28224,-0.72409c0.17233,-1.02022 0.53203,-1.94899 1.24901,-2.70337c4.36402,-4.59163 6.86574,-1.08852 8.33054,1.92608c0.05751,-0.03334 0.11603,-0.06521 0.17561,-0.09553c-0.13787,-2.51144 1.21416,-4.54388 6.05114,-5.12809c1.72136,-0.2079 2.73275,2.13823 4.03086,3.28767c2.60222,2.30415 5.00791,5.20821 7.39582,7.69425c0,0 2.59771,2.7045 -0.10679,5.30222c-2.1141,2.03064 -4.16295,0.82134 -4.95675,0.19659c-0.32903,1.77238 -1.9009,3.09769 -3.76225,3.06021c-0.83921,-0.01689 -1.60844,-0.30823 -2.22384,-0.78661l-3.57914,-2.71484l0.00416,-0.00549c-0.00869,-0.00375 -0.01737,-0.00752 -0.02606,-0.01128c-0.04864,-0.02106 -0.09661,-0.04208 -0.1439,-0.06309c-0.45506,1.59904 -1.94227,2.75518 -3.6825,2.72013c-0.39296,-0.00791 -0.77058,-0.076 -1.12425,-0.19528c-0.5424,1.44896 -1.9538,2.46711 -3.58847,2.43419c-0.71859,-0.01448 -1.38588,-0.23016 -1.94922,-0.59219c-0.70014,0.92691 -1.81972,1.51649 -3.06989,1.49131c-1.84328,-0.03711 -3.34909,-1.39818 -3.62814,-3.15734c-0.45973,0.36993 -1.60999,0.61897 -2.98694,0.77655c-0.58719,0.35584 -1.27901,0.55482 -2.01627,0.53996c-0.12014,-0.00242 -0.23885,-0.01046 -0.35587,-0.02387c-0.29345,1.42444 -0.5813,2.6363 -0.70177,3.4207l-4.61885,-3.73553c-0.1294,0.50602 -0.36144,0.97011 -0.67227,1.36932c0.04537,0.2459 0.06668,0.50006 0.06144,0.75983c-0.0417,2.07065 -1.75409,3.71543 -3.82475,3.67374c-0.37154,-0.00749 -0.72938,-0.06875 -1.06621,-0.17624l-3.56339,-1.04936l0.00005,-0.00018c-1.23906,-0.38562 -2.49955,-0.79534 -3.6975,-1.27596c-1.11006,-0.03465 -2.09456,-0.54963 -2.75756,-1.34095c-1.49264,-0.89986 -2.71581,-2.02415 -3.42162,-3.51113c-0.64246,1.20955 -1.92654,2.02187 -3.38943,1.99241c-0.6137,-0.01236 -1.18998,-0.17147 -1.69605,-0.44318c-0.68998,0.65147 -1.62612,1.04306 -2.64983,1.02246c-1.41085,-0.02841 -2.62401,-0.83245 -3.24069,-1.99695c-0.43223,0.16208 -0.90183,0.24654 -1.39148,0.23667c-1.48489,-0.0299 -2.75077,-0.91896 -3.33277,-2.18318c-0.45888,1.59314 -1.94313,2.74372 -3.67923,2.70876c-1.93015,-0.03888 -3.49027,-1.52939 -3.65933,-3.40858l-0.2744,-2.62336l0.23884,-0.02499c-0.10361,-0.10033 -0.21058,-0.19769 -0.32128,-0.29179c-0.27032,-0.22978 -0.60352,-0.37573 -0.94347,-0.51064c0.24494,1.8003 -0.24316,4.46255 -0.26077,5.33731l-0.00671,0.33326c0,0 -0.07551,3.74924 -3.82476,3.67374z" fill="#14c700" stroke-width="0.5"/><path d="M614.81832,383.04955v-19.51952h133.63363v19.51952z" fill="#0c7d00" stroke-width="0"/><path d="M619.69465,372.18965c-3.74923,-0.07551 -3.67374,-3.82475 -3.67374,-3.82475l0.00672,-0.33327c0.07089,-3.5201 -0.6609,-10.56526 2.41583,-12.94497c1.86934,-1.44585 4.63858,-0.93235 7.11042,0.17472c0.60414,-2.00052 1.94667,-3.62275 4.86106,-4.29252c1.81325,-0.41671 3.73188,0.34277 5.36113,1.68796c0.56725,-0.17899 1.22497,-0.27648 1.98771,-0.27405c0.64676,0.00206 1.22754,0.22266 1.75591,0.5826c0.61238,-0.28375 1.25563,-0.46603 1.91002,-0.50877c0.61531,-0.04018 1.22869,0.08628 1.82542,0.34353c0.08902,-0.08134 0.1817,-0.15951 0.27825,-0.23428c1.64273,-1.27212 4.22575,-0.94408 6.22221,-0.36872c0.90944,0.26211 1.64202,0.87583 2.32404,1.57303c1.71908,-0.49415 3.75734,0.72161 5.33456,2.10106c1.4263,0.28276 2.94457,0.92399 4.17825,1.7743c1.33177,-1.56511 2.90544,-2.37615 4.56617,-2.37268c3.55394,-4.95042 6.66185,-2.17924 10.11064,-0.2735c1.24703,0.68908 2.62159,1.21684 3.80009,2.00606c0.63848,-0.46843 1.42981,-0.73915 2.28224,-0.72409c0.17233,-1.02022 0.53203,-1.949 1.24901,-2.70337c4.36402,-4.59163 6.86574,-1.08852 8.33054,1.92608c0.05751,-0.03334 0.11603,-0.06521 0.17561,-0.09553c-0.13787,-2.51144 1.21416,-4.54388 6.05114,-5.12809c1.72136,-0.2079 2.73275,2.13823 4.03086,3.28767c2.60222,2.30415 5.00791,5.20821 7.39582,7.69425c0,0 2.59771,2.7045 -0.10679,5.30222c-2.1141,2.03064 -4.16295,0.82134 -4.95675,0.19659c-0.32903,1.77238 -1.9009,3.09769 -3.76225,3.06021c-0.83921,-0.01689 -1.60844,-0.30823 -2.22384,-0.78661l-3.57914,-2.71484l0.00416,-0.00549c-0.00869,-0.00375 -0.01737,-0.00752 -0.02606,-0.01128c-0.04864,-0.02106 -0.09661,-0.04208 -0.1439,-0.06309c-0.45506,1.59904 -1.94227,2.75518 -3.6825,2.72013c-0.39296,-0.00791 -0.77058,-0.076 -1.12425,-0.19528c-0.5424,1.44896 -1.9538,2.46711 -3.58846,2.43419c-0.71859,-0.01448 -1.38589,-0.23016 -1.94922,-0.59219c-0.70014,0.92691 -1.81972,1.51649 -3.06989,1.49131c-1.84328,-0.03711 -3.34909,-1.39818 -3.62814,-3.15734c-0.45973,0.36993 -1.60999,0.61897 -2.98694,0.77655c-0.58719,0.35584 -1.27901,0.55482 -2.01627,0.53996c-0.12014,-0.00242 -0.23885,-0.01046 -0.35587,-0.02387c-0.29345,1.42444 -0.5813,2.6363 -0.70177,3.4207l-4.61885,-3.73553c-0.1294,0.50602 -0.36144,0.97011 -0.67227,1.36931c0.04537,0.2459 0.06668,0.50006 0.06144,0.75983c-0.0417,2.07065 -1.75409,3.71543 -3.82475,3.67374c-0.37154,-0.00749 -0.72938,-0.06875 -1.06621,-0.17624l-3.56339,-1.04936l0.00005,-0.00018c-1.23906,-0.38562 -2.49955,-0.79534 -3.6975,-1.27596c-1.11006,-0.03465 -2.09456,-0.54963 -2.75756,-1.34095c-1.49264,-0.89986 -2.71581,-2.02415 -3.42162,-3.51113c-0.64246,1.20955 -1.92654,2.02187 -3.38943,1.99241c-0.6137,-0.01236 -1.18997,-0.17147 -1.69604,-0.44318c-0.68998,0.65147 -1.62612,1.04306 -2.64983,1.02246c-1.41085,-0.02841 -2.62401,-0.83245 -3.24069,-1.99695c-0.43223,0.16208 -0.90183,0.24654 -1.39148,0.23667c-1.48489,-0.0299 -2.75077,-0.91896 -3.33277,-2.18318c-0.45888,1.59314 -1.94313,2.74372 -3.67923,2.70876c-1.93015,-0.03888 -3.49027,-1.52939 -3.65933,-3.40858l-0.2744,-2.62336l0.23884,-0.02499c-0.10361,-0.10033 -0.21057,-0.19769 -0.32127,-0.29179c-0.27032,-0.22978 -0.60353,-0.37573 -0.94347,-0.51064c0.24494,1.8003 -0.24316,4.46255 -0.26077,5.33731l-0.00671,0.33326c0,0 -0.07551,3.74924 -3.82476,3.67374z" fill="#14c700" stroke-width="0.5"/><path d="M654.72468,372.68515c-3.74923,-0.07551 -3.67374,-3.82475 -3.67374,-3.82475l0.00672,-0.33327c0.07089,-3.5201 -0.6609,-10.56526 2.41583,-12.94497c1.86934,-1.44585 4.63858,-0.93235 7.11042,0.17472c0.60414,-2.00052 1.94667,-3.62275 4.86106,-4.29253c1.81325,-0.41671 3.73188,0.34277 5.36113,1.68796c0.56725,-0.17899 1.22497,-0.27649 1.98771,-0.27406c0.64676,0.00206 1.22754,0.22267 1.75591,0.5826c0.61238,-0.28375 1.25563,-0.46603 1.91002,-0.50877c0.61531,-0.04018 1.22869,0.08628 1.82542,0.34353c0.08902,-0.08134 0.1817,-0.15951 0.27825,-0.23428c1.64273,-1.27212 4.22575,-0.94408 6.2222,-0.36872c0.90944,0.26211 1.64202,0.87583 2.32404,1.57303c1.71908,-0.49415 3.75734,0.72161 5.33456,2.10106c1.4263,0.28276 2.94457,0.92399 4.17825,1.77431c1.33177,-1.56511 2.90544,-2.37615 4.56617,-2.37268c3.55394,-4.95042 6.66185,-2.17924 10.11064,-0.2735c1.24703,0.68908 2.62159,1.21684 3.80009,2.00606c0.63848,-0.46843 1.42981,-0.73915 2.28224,-0.72409c0.17233,-1.02022 0.53203,-1.94899 1.24901,-2.70337c4.36402,-4.59163 6.86574,-1.08852 8.33054,1.92608c0.05751,-0.03334 0.11603,-0.06521 0.17561,-0.09553c-0.13787,-2.51144 1.21416,-4.54388 6.05114,-5.12809c1.72136,-0.2079 2.73275,2.13823 4.03086,3.28767c2.60222,2.30415 5.00791,5.20821 7.39582,7.69425c0,0 2.59771,2.7045 -0.10679,5.30222c-2.1141,2.03064 -4.16295,0.82134 -4.95675,0.19659c-0.32903,1.77238 -1.9009,3.09769 -3.76225,3.06021c-0.83921,-0.01689 -1.60844,-0.30823 -2.22384,-0.78661l-3.57914,-2.71484l0.00416,-0.00549c-0.00869,-0.00375 -0.01737,-0.00752 -0.02606,-0.01128c-0.04864,-0.02106 -0.09661,-0.04208 -0.1439,-0.06309c-0.45506,1.59904 -1.94227,2.75518 -3.6825,2.72013c-0.39296,-0.00791 -0.77058,-0.076 -1.12425,-0.19528c-0.5424,1.44896 -1.9538,2.46711 -3.58847,2.43419c-0.71859,-0.01448 -1.38588,-0.23016 -1.94922,-0.59219c-0.70014,0.92691 -1.81972,1.51649 -3.06989,1.49131c-1.84328,-0.03711 -3.34909,-1.39818 -3.62814,-3.15734c-0.45973,0.36993 -1.60999,0.61897 -2.98694,0.77655c-0.58719,0.35584 -1.27901,0.55482 -2.01627,0.53996c-0.12014,-0.00242 -0.23885,-0.01046 -0.35587,-0.02387c-0.29345,1.42444 -0.5813,2.6363 -0.70177,3.4207l-4.61885,-3.73553c-0.1294,0.50602 -0.36144,0.97011 -0.67227,1.36932c0.04537,0.2459 0.06668,0.50006 0.06144,0.75983c-0.0417,2.07065 -1.75409,3.71543 -3.82475,3.67374c-0.37154,-0.00749 -0.72938,-0.06875 -1.06621,-0.17624l-3.56339,-1.04936l0.00005,-0.00018c-1.23906,-0.38562 -2.49955,-0.79534 -3.6975,-1.27596c-1.11006,-0.03465 -2.09456,-0.54963 -2.75756,-1.34095c-1.49264,-0.89986 -2.71581,-2.02415 -3.42162,-3.51113c-0.64246,1.20955 -1.92654,2.02187 -3.38943,1.99241c-0.6137,-0.01236 -1.18998,-0.17147 -1.69605,-0.44318c-0.68998,0.65147 -1.62612,1.04306 -2.64983,1.02246c-1.41085,-0.02841 -2.62401,-0.83245 -3.24069,-1.99695c-0.43223,0.16208 -0.90183,0.24654 -1.39148,0.23667c-1.48489,-0.0299 -2.75077,-0.91896 -3.33277,-2.18318c-0.45888,1.59314 -1.94313,2.74372 -3.67923,2.70876c-1.93015,-0.03888 -3.49027,-1.52939 -3.65933,-3.40858l-0.2744,-2.62336l0.23884,-0.02499c-0.10361,-0.10033 -0.21058,-0.19769 -0.32128,-0.29179c-0.27032,-0.22978 -0.60352,-0.37573 -0.94347,-0.51064c0.24494,1.8003 -0.24316,4.46255 -0.26077,5.33731l-0.00671,0.33326c0,0 -0.07551,3.74924 -3.82476,3.67374z" fill="#14c700" stroke-width="0.5"/><path d="M468.16667,326.48799v-19.51952h133.63363v19.51952z" fill="#0c7d00" stroke-width="0"/><path d="M473.043,315.62809c-3.74923,-0.07551 -3.67374,-3.82475 -3.67374,-3.82475l0.00672,-0.33327c0.07089,-3.5201 -0.6609,-10.56526 2.41583,-12.94497c1.86934,-1.44585 4.63858,-0.93235 7.11042,0.17472c0.60414,-2.00052 1.94667,-3.62275 4.86106,-4.29252c1.81325,-0.41671 3.73188,0.34277 5.36113,1.68796c0.56725,-0.17899 1.22497,-0.27648 1.98771,-0.27405c0.64676,0.00206 1.22754,0.22266 1.75591,0.5826c0.61238,-0.28375 1.25563,-0.46603 1.91002,-0.50877c0.61531,-0.04018 1.22869,0.08628 1.82542,0.34353c0.08902,-0.08134 0.1817,-0.15951 0.27825,-0.23428c1.64273,-1.27212 4.22575,-0.94408 6.22221,-0.36872c0.90944,0.26211 1.64202,0.87583 2.32404,1.57303c1.71908,-0.49415 3.75734,0.72161 5.33456,2.10106c1.4263,0.28276 2.94457,0.92399 4.17825,1.7743c1.33177,-1.56511 2.90544,-2.37615 4.56617,-2.37268c3.55394,-4.95042 6.66185,-2.17924 10.11064,-0.2735c1.24703,0.68908 2.62159,1.21684 3.80009,2.00606c0.63848,-0.46843 1.42981,-0.73915 2.28224,-0.72409c0.17233,-1.02022 0.53203,-1.949 1.249,-2.70337c4.36403,-4.59163 6.86574,-1.08852 8.33054,1.92608c0.05751,-0.03334 0.11603,-0.06521 0.1756,-0.09553c-0.13787,-2.51144 1.21416,-4.54388 6.05114,-5.12809c1.72136,-0.2079 2.73275,2.13823 4.03086,3.28767c2.60222,2.30415 5.00791,5.20821 7.39583,7.69425c0,0 2.59771,2.7045 -0.10679,5.30222c-2.1141,2.03064 -4.16295,0.82134 -4.95675,0.19659c-0.32903,1.77238 -1.9009,3.09769 -3.76225,3.06021c-0.83921,-0.01689 -1.60845,-0.30823 -2.22384,-0.78661l-3.57914,-2.71484l0.00416,-0.00549c-0.00869,-0.00375 -0.01737,-0.00752 -0.02606,-0.01128c-0.04864,-0.02106 -0.0966,-0.04208 -0.1439,-0.06309c-0.45506,1.59904 -1.94226,2.75518 -3.6825,2.72013c-0.39296,-0.00791 -0.77058,-0.076 -1.12425,-0.19528c-0.5424,1.44896 -1.9538,2.46711 -3.58847,2.43419c-0.71859,-0.01448 -1.38588,-0.23016 -1.94922,-0.59219c-0.70014,0.92691 -1.81973,1.51649 -3.0699,1.49131c-1.84328,-0.03711 -3.34909,-1.39818 -3.62814,-3.15734c-0.45973,0.36993 -1.60999,0.61897 -2.98694,0.77655c-0.58719,0.35584 -1.27901,0.55482 -2.01627,0.53996c-0.12014,-0.00242 -0.23885,-0.01046 -0.35587,-0.02387c-0.29345,1.42444 -0.5813,2.6363 -0.70177,3.4207l-4.61885,-3.73553c-0.1294,0.50602 -0.36144,0.97011 -0.67227,1.36931c0.04537,0.2459 0.06668,0.50006 0.06144,0.75983c-0.0417,2.07065 -1.75409,3.71543 -3.82475,3.67374c-0.37154,-0.00749 -0.72938,-0.06875 -1.06621,-0.17624l-3.56339,-1.04936l0.00005,-0.00018c-1.23906,-0.38562 -2.49955,-0.79534 -3.6975,-1.27596c-1.11006,-0.03465 -2.09456,-0.54963 -2.75756,-1.34095c-1.49264,-0.89986 -2.71581,-2.02415 -3.42162,-3.51113c-0.64246,1.20955 -1.92654,2.02187 -3.38943,1.99241c-0.6137,-0.01236 -1.18997,-0.17147 -1.69604,-0.44318c-0.68998,0.65147 -1.62612,1.04306 -2.64983,1.02246c-1.41085,-0.02841 -2.62401,-0.83245 -3.24069,-1.99695c-0.43223,0.16208 -0.90183,0.24654 -1.39148,0.23667c-1.48489,-0.0299 -2.75077,-0.91896 -3.33277,-2.18318c-0.45888,1.59314 -1.94313,2.74372 -3.67923,2.70876c-1.93015,-0.03888 -3.49027,-1.52939 -3.65933,-3.40858l-0.2744,-2.62336l0.23884,-0.02499c-0.10361,-0.10033 -0.21057,-0.19769 -0.32127,-0.29179c-0.27032,-0.22978 -0.60353,-0.37573 -0.94347,-0.51064c0.24494,1.8003 -0.24316,4.46255 -0.26077,5.33731l-0.00671,0.33326c0,0 -0.07551,3.74924 -3.82476,3.67374z" fill="#14c700" stroke-width="0.5"/><path d="M508.07303,316.12359c-3.74923,-0.07551 -3.67374,-3.82475 -3.67374,-3.82475l0.00672,-0.33327c0.07089,-3.52009 -0.6609,-10.56526 2.41583,-12.94497c1.86934,-1.44584 4.63858,-0.93235 7.11042,0.17472c0.60414,-2.00052 1.94667,-3.62275 4.86106,-4.29252c1.81325,-0.41671 3.73187,0.34277 5.36113,1.68796c0.56725,-0.17899 1.22497,-0.27648 1.98771,-0.27405c0.64676,0.00206 1.22754,0.22267 1.75591,0.5826c0.61238,-0.28374 1.25563,-0.46603 1.91002,-0.50877c0.61531,-0.04018 1.22869,0.08628 1.82542,0.34353c0.08902,-0.08134 0.1817,-0.15951 0.27825,-0.23428c1.64273,-1.27212 4.22575,-0.94408 6.2222,-0.36872c0.90944,0.26211 1.64202,0.87583 2.32404,1.57303c1.71908,-0.49415 3.75734,0.72161 5.33456,2.10106c1.4263,0.28276 2.94457,0.92399 4.17825,1.77431c1.33177,-1.56511 2.90544,-2.37615 4.56617,-2.37268c3.55395,-4.95042 6.66186,-2.17924 10.11064,-0.2735c1.24703,0.68908 2.62159,1.21684 3.80009,2.00606c0.63848,-0.46843 1.42981,-0.73915 2.28224,-0.72408c0.17233,-1.02022 0.53203,-1.94899 1.24901,-2.70337c4.36402,-4.59163 6.86574,-1.08852 8.33054,1.92608c0.05751,-0.03334 0.11603,-0.06521 0.17561,-0.09554c-0.13787,-2.51144 1.21416,-4.54388 6.05114,-5.12809c1.72136,-0.2079 2.73274,2.13823 4.03086,3.28766c2.60222,2.30416 5.00791,5.20821 7.39583,7.69425c0,0 2.59771,2.7045 -0.10679,5.30222c-2.1141,2.03064 -4.16295,0.82134 -4.95675,0.19659c-0.32903,1.77238 -1.9009,3.09769 -3.76225,3.06021c-0.83921,-0.01689 -1.60844,-0.30823 -2.22384,-0.78661l-3.57914,-2.71484l0.00416,-0.00549c-0.00869,-0.00375 -0.01737,-0.00752 -0.02606,-0.01127c-0.04864,-0.02106 -0.0966,-0.04209 -0.1439,-0.06309c-0.45506,1.59903 -1.94226,2.75518 -3.68249,2.72013c-0.39296,-0.00791 -0.77058,-0.076 -1.12425,-0.19528c-0.5424,1.44896 -1.9538,2.46711 -3.58847,2.43419c-0.71859,-0.01448 -1.38588,-0.23016 -1.94922,-0.59219c-0.70014,0.92691 -1.81972,1.51649 -3.06989,1.49131c-1.84328,-0.03711 -3.34909,-1.39819 -3.62814,-3.15734c-0.45973,0.36993 -1.60999,0.61897 -2.98694,0.77655c-0.58719,0.35584 -1.27901,0.55482 -2.01627,0.53997c-0.12015,-0.00242 -0.23886,-0.01046 -0.35587,-0.02387c-0.29345,1.42444 -0.5813,2.6363 -0.70177,3.4207l-4.61885,-3.73553c-0.1294,0.50602 -0.36144,0.97011 -0.67227,1.36932c0.04537,0.2459 0.06668,0.50005 0.06145,0.75983c-0.0417,2.07065 -1.75409,3.71543 -3.82475,3.67374c-0.37154,-0.00749 -0.72938,-0.06875 -1.06621,-0.17624l-3.56339,-1.04936l0.00005,-0.00018c-1.23906,-0.38562 -2.49955,-0.79534 -3.6975,-1.27595c-1.11006,-0.03466 -2.09455,-0.54963 -2.75756,-1.34095c-1.49264,-0.89986 -2.71581,-2.02415 -3.42162,-3.51113c-0.64246,1.20955 -1.92654,2.02187 -3.38943,1.99241c-0.6137,-0.01236 -1.18998,-0.17147 -1.69605,-0.44318c-0.68998,0.65147 -1.62612,1.04306 -2.64983,1.02246c-1.41085,-0.02841 -2.624,-0.83245 -3.24069,-1.99695c-0.43224,0.16207 -0.90183,0.24654 -1.39148,0.23667c-1.48489,-0.0299 -2.75077,-0.91896 -3.33277,-2.18318c-0.45888,1.59314 -1.94313,2.74372 -3.67923,2.70876c-1.93015,-0.03888 -3.49027,-1.52939 -3.65933,-3.40858l-0.2744,-2.62337l0.23885,-0.02499c-0.10361,-0.10033 -0.21058,-0.19769 -0.32128,-0.29179c-0.27032,-0.22978 -0.60352,-0.37572 -0.94347,-0.51064c0.24494,1.8003 -0.24316,4.46255 -0.26077,5.33731l-0.00671,0.33326c0,0 -0.07551,3.74924 -3.82476,3.67374z" fill="#14c700" stroke-width="0.5"/><path d="M304.9985,287.94445v-19.51952h133.63363v19.51952z" fill="#0c7d00" stroke-width="0"/><path d="M309.87483,277.08455c-3.74923,-0.07551 -3.67374,-3.82475 -3.67374,-3.82475l0.00672,-0.33327c0.07089,-3.52009 -0.6609,-10.56526 2.41583,-12.94497c1.86934,-1.44584 4.63858,-0.93235 7.11042,0.17472c0.60414,-2.00052 1.94667,-3.62275 4.86106,-4.29252c1.81325,-0.41671 3.73188,0.34277 5.36113,1.68796c0.56725,-0.17899 1.22497,-0.27648 1.98771,-0.27405c0.64676,0.00206 1.22754,0.22266 1.75591,0.5826c0.61238,-0.28374 1.25563,-0.46603 1.91002,-0.50877c0.61531,-0.04018 1.22869,0.08628 1.82542,0.34353c0.08902,-0.08134 0.1817,-0.15951 0.27825,-0.23428c1.64273,-1.27212 4.22575,-0.94408 6.22221,-0.36871c0.90944,0.26211 1.64202,0.87583 2.32404,1.57302c1.71908,-0.49415 3.75734,0.72161 5.33457,2.10106c1.4263,0.28275 2.94457,0.92399 4.17825,1.7743c1.33177,-1.56511 2.90544,-2.37615 4.56617,-2.37268c3.55394,-4.95042 6.66185,-2.17924 10.11064,-0.2735c1.24703,0.68908 2.62159,1.21684 3.80009,2.00606c0.63848,-0.46843 1.42981,-0.73915 2.28224,-0.72409c0.17233,-1.02022 0.53203,-1.94899 1.24901,-2.70337c4.36402,-4.59164 6.86574,-1.08852 8.33054,1.92608c0.05751,-0.03334 0.11603,-0.06521 0.17561,-0.09554c-0.13787,-2.51144 1.21416,-4.54388 6.05114,-5.12809c1.72136,-0.2079 2.73275,2.13823 4.03086,3.28766c2.60222,2.30416 5.00791,5.20821 7.39582,7.69425c0,0 2.59771,2.7045 -0.10679,5.30222c-2.1141,2.03063 -4.16295,0.82133 -4.95675,0.19659c-0.32903,1.77238 -1.9009,3.09769 -3.76225,3.06021c-0.83921,-0.01689 -1.60844,-0.30823 -2.22384,-0.78661l-3.57914,-2.71484l0.00416,-0.00549c-0.00869,-0.00375 -0.01737,-0.00752 -0.02606,-0.01128c-0.04864,-0.02106 -0.09661,-0.04208 -0.1439,-0.06309c-0.45506,1.59904 -1.94227,2.75518 -3.6825,2.72014c-0.39296,-0.00791 -0.77058,-0.076 -1.12425,-0.19529c-0.5424,1.44897 -1.9538,2.46711 -3.58846,2.43419c-0.71859,-0.01448 -1.38589,-0.23016 -1.94922,-0.59219c-0.70014,0.92691 -1.81972,1.51649 -3.06989,1.49131c-1.84328,-0.03711 -3.34909,-1.39818 -3.62814,-3.15734c-0.45973,0.36993 -1.60999,0.61897 -2.98694,0.77656c-0.58719,0.35584 -1.27901,0.55481 -2.01627,0.53996c-0.12014,-0.00242 -0.23885,-0.01046 -0.35587,-0.02387c-0.29345,1.42444 -0.5813,2.6363 -0.70177,3.4207l-4.61885,-3.73553c-0.1294,0.50602 -0.36144,0.97011 -0.67227,1.36931c0.04537,0.2459 0.06668,0.50006 0.06144,0.75983c-0.0417,2.07065 -1.75409,3.71543 -3.82475,3.67374c-0.37154,-0.00749 -0.72938,-0.06875 -1.06621,-0.17624l-3.56339,-1.04936l0.00005,-0.00018c-1.23906,-0.38562 -2.49956,-0.79534 -3.6975,-1.27596c-1.11006,-0.03465 -2.09456,-0.54963 -2.75756,-1.34095c-1.49264,-0.89986 -2.71581,-2.02415 -3.42162,-3.51113c-0.64246,1.20955 -1.92654,2.02187 -3.38943,1.99241c-0.6137,-0.01236 -1.18997,-0.17147 -1.69604,-0.44318c-0.68998,0.65147 -1.62612,1.04306 -2.64983,1.02246c-1.41085,-0.02841 -2.62401,-0.83245 -3.24069,-1.99695c-0.43223,0.16208 -0.90183,0.24654 -1.39148,0.23667c-1.48489,-0.0299 -2.75077,-0.91896 -3.33277,-2.18318c-0.45888,1.59314 -1.94313,2.74373 -3.67923,2.70876c-1.93015,-0.03887 -3.49027,-1.52939 -3.65933,-3.40858l-0.2744,-2.62336l0.23884,-0.02499c-0.10361,-0.10033 -0.21057,-0.19769 -0.32127,-0.29179c-0.27032,-0.22978 -0.60353,-0.37573 -0.94347,-0.51064c0.24494,1.8003 -0.24316,4.46255 -0.26077,5.33731l-0.00671,0.33326c0,0 -0.07551,3.74924 -3.82476,3.67374z" fill="#14c700" stroke-width="0.5"/><path d="M344.90486,277.58004c-3.74924,-0.07551 -3.67374,-3.82475 -3.67374,-3.82475l0.00672,-0.33327c0.07089,-3.52009 -0.6609,-10.56526 2.41583,-12.94497c1.86934,-1.44585 4.63858,-0.93235 7.11042,0.17472c0.60414,-2.00052 1.94667,-3.62275 4.86106,-4.29253c1.81325,-0.41671 3.73188,0.34277 5.36113,1.68796c0.56725,-0.17899 1.22497,-0.27649 1.98771,-0.27406c0.64676,0.00206 1.22754,0.22267 1.75591,0.5826c0.61238,-0.28375 1.25563,-0.46604 1.91002,-0.50877c0.61531,-0.04018 1.22869,0.08628 1.82542,0.34353c0.08902,-0.08133 0.1817,-0.1595 0.27825,-0.23428c1.64273,-1.27212 4.22575,-0.94408 6.2222,-0.36871c0.90944,0.26211 1.64202,0.87582 2.32404,1.57303c1.71908,-0.49415 3.75734,0.72161 5.33456,2.10106c1.4263,0.28275 2.94457,0.92399 4.17825,1.7743c1.33177,-1.56511 2.90544,-2.37615 4.56617,-2.37268c3.55394,-4.95042 6.66185,-2.17924 10.11064,-0.2735c1.24703,0.68908 2.62159,1.21684 3.80009,2.00606c0.63848,-0.46843 1.42981,-0.73915 2.28224,-0.72409c0.17233,-1.02022 0.53203,-1.94899 1.24901,-2.70337c4.36402,-4.59163 6.86574,-1.08852 8.33054,1.92608c0.05751,-0.03334 0.11603,-0.06521 0.17561,-0.09553c-0.13787,-2.51144 1.21416,-4.54389 6.05114,-5.12809c1.72136,-0.2079 2.73275,2.13823 4.03086,3.28767c2.60222,2.30415 5.00791,5.2082 7.39582,7.69425c0,0 2.59771,2.7045 -0.10679,5.30222c-2.1141,2.03064 -4.16295,0.82134 -4.95675,0.19659c-0.32903,1.77238 -1.9009,3.09769 -3.76225,3.06021c-0.83921,-0.01689 -1.60844,-0.30823 -2.22384,-0.78661l-3.57914,-2.71484l0.00416,-0.00549c-0.00869,-0.00375 -0.01737,-0.00752 -0.02606,-0.01127c-0.04864,-0.02106 -0.09661,-0.04209 -0.1439,-0.06309c-0.45506,1.59903 -1.94227,2.75518 -3.6825,2.72013c-0.39296,-0.00791 -0.77058,-0.076 -1.12425,-0.19528c-0.5424,1.44896 -1.9538,2.46711 -3.58847,2.43419c-0.71859,-0.01448 -1.38588,-0.23016 -1.94922,-0.59219c-0.70014,0.92691 -1.81972,1.51649 -3.06989,1.49131c-1.84328,-0.03711 -3.34909,-1.39819 -3.62814,-3.15734c-0.45973,0.36993 -1.60999,0.61897 -2.98694,0.77655c-0.58719,0.35584 -1.27901,0.55482 -2.01627,0.53997c-0.12014,-0.00242 -0.23885,-0.01046 -0.35587,-0.02387c-0.29345,1.42444 -0.5813,2.6363 -0.70177,3.4207l-4.61885,-3.73553c-0.1294,0.50602 -0.36144,0.97011 -0.67227,1.36932c0.04537,0.2459 0.06668,0.50005 0.06144,0.75983c-0.0417,2.07065 -1.75409,3.71543 -3.82475,3.67374c-0.37154,-0.00749 -0.72938,-0.06875 -1.06621,-0.17624l-3.56339,-1.04936l0.00005,-0.00018c-1.23906,-0.38562 -2.49955,-0.79534 -3.6975,-1.27595c-1.11006,-0.03466 -2.09456,-0.54963 -2.75756,-1.34095c-1.49264,-0.89986 -2.71581,-2.02415 -3.42162,-3.51113c-0.64246,1.20955 -1.92654,2.02187 -3.38943,1.99241c-0.6137,-0.01236 -1.18998,-0.17147 -1.69605,-0.44318c-0.68998,0.65147 -1.62612,1.04306 -2.64983,1.02246c-1.41085,-0.02841 -2.62401,-0.83245 -3.24069,-1.99695c-0.43223,0.16207 -0.90183,0.24654 -1.39148,0.23667c-1.48489,-0.0299 -2.75077,-0.91896 -3.33277,-2.18318c-0.45888,1.59314 -1.94313,2.74372 -3.67923,2.70876c-1.93015,-0.03888 -3.49027,-1.52939 -3.65933,-3.40858l-0.2744,-2.62337l0.23884,-0.02499c-0.10361,-0.10033 -0.21058,-0.19769 -0.32128,-0.29179c-0.27032,-0.22978 -0.60352,-0.37572 -0.94347,-0.51064c0.24494,1.8003 -0.24316,4.46255 -0.26077,5.33731l-0.00671,0.33326c0,0 -0.07551,3.74924 -3.82476,3.67374z" fill="#14c700" stroke-width="0.5"/><path d="M458.64715,201.35286v-19.51952h133.63363v19.51952z" fill="#0c7d00" stroke-width="0"/><path d="M463.52348,190.49296c-3.74923,-0.07551 -3.67374,-3.82475 -3.67374,-3.82475l0.00672,-0.33327c0.07089,-3.5201 -0.6609,-10.56526 2.41583,-12.94497c1.86934,-1.44585 4.63858,-0.93235 7.11042,0.17472c0.60414,-2.00052 1.94667,-3.62275 4.86106,-4.29252c1.81325,-0.41671 3.73188,0.34277 5.36113,1.68796c0.56725,-0.17899 1.22497,-0.27648 1.98771,-0.27405c0.64676,0.00206 1.22754,0.22266 1.75591,0.5826c0.61238,-0.28375 1.25563,-0.46603 1.91002,-0.50877c0.61531,-0.04018 1.22869,0.08628 1.82542,0.34353c0.08902,-0.08134 0.1817,-0.15951 0.27825,-0.23428c1.64273,-1.27212 4.22575,-0.94408 6.22221,-0.36872c0.90944,0.26211 1.64202,0.87583 2.32404,1.57303c1.71908,-0.49415 3.75734,0.72161 5.33456,2.10106c1.4263,0.28276 2.94457,0.92399 4.17825,1.7743c1.33176,-1.56511 2.90544,-2.37615 4.56617,-2.37268c3.55394,-4.95042 6.66185,-2.17924 10.11064,-0.2735c1.24702,0.68908 2.62159,1.21684 3.80009,2.00606c0.63848,-0.46843 1.42981,-0.73915 2.28224,-0.72409c0.17233,-1.02022 0.53203,-1.949 1.249,-2.70337c4.36403,-4.59163 6.86574,-1.08852 8.33054,1.92608c0.05751,-0.03334 0.11603,-0.06521 0.1756,-0.09553c-0.13787,-2.51144 1.21416,-4.54388 6.05114,-5.12809c1.72136,-0.2079 2.73275,2.13823 4.03086,3.28767c2.60222,2.30415 5.00791,5.20821 7.39583,7.69425c0,0 2.59771,2.7045 -0.10679,5.30222c-2.1141,2.03064 -4.16295,0.82134 -4.95675,0.19659c-0.32903,1.77238 -1.9009,3.09769 -3.76225,3.06021c-0.83921,-0.01689 -1.60845,-0.30823 -2.22384,-0.78661l-3.57914,-2.71484l0.00416,-0.00549c-0.00869,-0.00375 -0.01737,-0.00752 -0.02606,-0.01128c-0.04864,-0.02106 -0.0966,-0.04208 -0.1439,-0.06309c-0.45506,1.59904 -1.94226,2.75518 -3.6825,2.72013c-0.39296,-0.00791 -0.77058,-0.076 -1.12425,-0.19528c-0.5424,1.44896 -1.9538,2.46711 -3.58847,2.43419c-0.71859,-0.01447 -1.38588,-0.23016 -1.94922,-0.59219c-0.70014,0.92691 -1.81973,1.51649 -3.0699,1.49131c-1.84328,-0.03711 -3.34909,-1.39819 -3.62814,-3.15734c-0.45972,0.36993 -1.60999,0.61897 -2.98693,0.77655c-0.5872,0.35584 -1.27901,0.55482 -2.01627,0.53997c-0.12014,-0.00242 -0.23885,-0.01046 -0.35587,-0.02387c-0.29345,1.42444 -0.5813,2.6363 -0.70177,3.4207l-4.61885,-3.73553c-0.12939,0.50602 -0.36144,0.97011 -0.67227,1.36932c0.04537,0.2459 0.06668,0.50005 0.06144,0.75983c-0.0417,2.07065 -1.75409,3.71543 -3.82474,3.67374c-0.37154,-0.00749 -0.72938,-0.06875 -1.06622,-0.17624l-3.56339,-1.04936l0.00005,-0.00018c-1.23906,-0.38562 -2.49955,-0.79534 -3.6975,-1.27595c-1.11006,-0.03466 -2.09456,-0.54963 -2.75756,-1.34095c-1.49264,-0.89986 -2.71581,-2.02415 -3.42162,-3.51113c-0.64246,1.20955 -1.92654,2.02187 -3.38943,1.99241c-0.6137,-0.01236 -1.18997,-0.17147 -1.69604,-0.44318c-0.68998,0.65147 -1.62612,1.04306 -2.64983,1.02246c-1.41085,-0.02841 -2.62401,-0.83245 -3.24069,-1.99695c-0.43223,0.16208 -0.90183,0.24654 -1.39148,0.23667c-1.48489,-0.0299 -2.75077,-0.91896 -3.33277,-2.18318c-0.45888,1.59314 -1.94313,2.74372 -3.67923,2.70876c-1.93015,-0.03888 -3.49027,-1.52939 -3.65933,-3.40858l-0.2744,-2.62336l0.23884,-0.02499c-0.10361,-0.10033 -0.21057,-0.19769 -0.32127,-0.29179c-0.27032,-0.22978 -0.60353,-0.37573 -0.94347,-0.51064c0.24494,1.8003 -0.24316,4.46255 -0.26077,5.33731l-0.00671,0.33326c0,0 -0.07551,3.74924 -3.82476,3.67374z" fill="#14c700" stroke-width="0.5"/><path d="M498.55351,190.98845c-3.74923,-0.07551 -3.67374,-3.82475 -3.67374,-3.82475l0.00672,-0.33327c0.07089,-3.5201 -0.6609,-10.56526 2.41583,-12.94497c1.86934,-1.44585 4.63858,-0.93235 7.11042,0.17472c0.60414,-2.00052 1.94667,-3.62275 4.86106,-4.29253c1.81325,-0.41671 3.73188,0.34277 5.36113,1.68796c0.56725,-0.17899 1.22497,-0.27649 1.98771,-0.27406c0.64676,0.00206 1.22754,0.22267 1.75591,0.5826c0.61238,-0.28375 1.25563,-0.46603 1.91002,-0.50877c0.61531,-0.04018 1.22869,0.08628 1.82542,0.34353c0.08902,-0.08134 0.1817,-0.15951 0.27825,-0.23428c1.64273,-1.27212 4.22575,-0.94408 6.2222,-0.36872c0.90944,0.26211 1.64202,0.87583 2.32404,1.57303c1.71908,-0.49415 3.75734,0.72161 5.33456,2.10106c1.4263,0.28276 2.94457,0.92399 4.17825,1.77431c1.33177,-1.56511 2.90544,-2.37615 4.56617,-2.37268c3.55394,-4.95042 6.66185,-2.17924 10.11064,-0.2735c1.24703,0.68908 2.62159,1.21684 3.80009,2.00606c0.63848,-0.46843 1.42981,-0.73915 2.28224,-0.72409c0.17233,-1.02022 0.53203,-1.94899 1.24901,-2.70337c4.36402,-4.59163 6.86574,-1.08852 8.33054,1.92608c0.05751,-0.03334 0.11603,-0.06521 0.17561,-0.09553c-0.13787,-2.51144 1.21416,-4.54388 6.05114,-5.12809c1.72136,-0.2079 2.73275,2.13823 4.03086,3.28767c2.60222,2.30415 5.00791,5.20821 7.39582,7.69425c0,0 2.59771,2.7045 -0.10679,5.30222c-2.1141,2.03064 -4.16295,0.82134 -4.95675,0.19659c-0.32903,1.77238 -1.9009,3.09769 -3.76225,3.06021c-0.83921,-0.01689 -1.60844,-0.30823 -2.22384,-0.7866l-3.57914,-2.71484l0.00416,-0.00549c-0.00869,-0.00375 -0.01737,-0.00752 -0.02606,-0.01128c-0.04864,-0.02106 -0.09661,-0.04208 -0.1439,-0.06309c-0.45506,1.59904 -1.94227,2.75518 -3.6825,2.72013c-0.39296,-0.00791 -0.77058,-0.076 -1.12425,-0.19528c-0.5424,1.44896 -1.9538,2.46711 -3.58847,2.43419c-0.71859,-0.01448 -1.38588,-0.23016 -1.94922,-0.59219c-0.70014,0.92691 -1.81972,1.51649 -3.06989,1.49131c-1.84328,-0.03711 -3.34909,-1.39819 -3.62814,-3.15734c-0.45973,0.36993 -1.60999,0.61897 -2.98694,0.77655c-0.58719,0.35584 -1.27901,0.55482 -2.01627,0.53997c-0.12014,-0.00242 -0.23885,-0.01046 -0.35587,-0.02387c-0.29345,1.42444 -0.5813,2.6363 -0.70177,3.4207l-4.61885,-3.73553c-0.1294,0.50602 -0.36144,0.97011 -0.67227,1.36932c0.04537,0.2459 0.06668,0.50005 0.06144,0.75983c-0.0417,2.07065 -1.75409,3.71543 -3.82475,3.67374c-0.37154,-0.00749 -0.72938,-0.06875 -1.06621,-0.17624l-3.56339,-1.04936l0.00005,-0.00018c-1.23906,-0.38562 -2.49955,-0.79534 -3.6975,-1.27595c-1.11006,-0.03466 -2.09456,-0.54963 -2.75756,-1.34095c-1.49264,-0.89986 -2.71581,-2.02415 -3.42162,-3.51113c-0.64246,1.20955 -1.92654,2.02187 -3.38943,1.99241c-0.6137,-0.01236 -1.18998,-0.17147 -1.69605,-0.44318c-0.68998,0.65147 -1.62612,1.04306 -2.64983,1.02246c-1.41085,-0.02841 -2.62401,-0.83245 -3.24069,-1.99695c-0.43223,0.16208 -0.90183,0.24654 -1.39148,0.23667c-1.48489,-0.0299 -2.75077,-0.91896 -3.33277,-2.18318c-0.45888,1.59314 -1.94313,2.74372 -3.67923,2.70876c-1.93015,-0.03888 -3.49027,-1.52939 -3.65933,-3.40858l-0.2744,-2.62336l0.23884,-0.02499c-0.10361,-0.10033 -0.21058,-0.19769 -0.32128,-0.29179c-0.27032,-0.22978 -0.60352,-0.37573 -0.94347,-0.51064c0.24494,1.8003 -0.24316,4.46255 -0.26077,5.33731l-0.00671,0.33326c0,0 -0.07551,3.74924 -3.82476,3.67374z" fill="#14c700" stroke-width="0.5"/><path d="M975.67343,576.78477c0,-0.18259 0.25,-0.18259 0.25,-0.18259l0.28254,0c2.3104,0 4.6208,0 6.93119,0c-0.42214,-1.14208 -0.06558,-3.10522 1.05942,-3.54201c3.11275,-1.20854 6.90223,-0.84399 10.37854,-0.84422c0.91014,-0.00006 2.57637,0.24377 3.41109,0.01172c1.30014,-0.36144 2.04339,-1.81779 3.36111,-2.18509c0.65808,-0.18343 1.87959,-0.01442 2.58867,-0.01537c2.24809,-0.00303 4.18656,-0.41082 6.20556,-0.72732c-0.00624,-0.12238 0.02498,-0.23637 0.1406,-0.31986c0.27987,-0.2021 1.77904,-0.05419 2.17577,-0.05419c1.96942,0 3.93883,0 5.90825,0c2.0106,-0.00146 4.02121,-0.00009 6.03181,0c0.41361,0 0.82722,0 1.24083,0c1.27682,0 2.55363,-0.00001 3.83045,0c2.09196,-0.00177 6.31722,-0.49216 8.85798,0c2.43067,0 4.86133,0 7.292,0c3.65296,0 6.43626,1.93835 10.00885,2.24498c0.06754,0.36155 -0.30996,0.84015 0.0488,1.09411c0.15328,0.10851 2.01302,-0.04924 2.326,-0.04924c2.16667,0 4.33333,0 6.5,0c0.82675,0 2.33657,-0.21444 3.09521,0.01376c0.58522,0.17604 0.86622,0.84814 1.42657,1.0308c1.30226,0.42451 3.96808,0.05191 5.39557,0.05195c2.33333,0.00007 4.66666,0.00011 6.99999,0.00011c0.49684,0 2.31002,-0.19543 2.67012,0.04879c0.08975,0.06087 0.14052,0.7245 0.15312,0.84865c-0.07938,0.46248 0.82189,0.11315 1.34549,0.20413c0.75868,0.13182 1.59058,0.5751 2.29024,0.83044l0.44242,0.16146c0.08459,0.02927 0.1431,0.09219 0.1431,0.1651c0,0.09338 -0.09598,0.17038 -0.21981,0.18127l-0.49193,0.04888l-0.00571,-0.03066c-2.83616,0.55934 -6.69598,0.0997 -9.52333,0.09991c-3.50001,0.00025 -7.00002,0.00044 -10.50002,0.00045c-2.58176,0 -5.16353,0 -7.74529,0c-0.07345,0.00464 -0.14293,0.01052 -0.20889,0.01756c2.18817,0.76444 4.62042,0.7064 7.30523,0.71283c1.01114,0.00055 2.02228,0.0008 3.03342,0.00092c0.58574,-0.00456 1.56825,-0.12228 2.22959,0.00012c0.07883,0 0.15766,0 0.23649,0l0.5,0.00001c0,0 0,0 0,0c0.13807,0 0.24999,0.08175 0.24999,0.18259c0,0.10084 -0.11193,0.18259 -0.25,0.18259l0,0l-0.5,0l0,-0.00001l-0.00001,0c-0.06396,0 -0.12791,0 -0.19187,0c-2.84602,0.42814 -6.5246,0.00002 -9.30812,0.00002c-2.16867,0 -4.33734,0 -6.50601,0c-1.89323,0.30303 -4.50897,-0.00069 -6.2567,-0.00022c-0.30994,0.00008 -0.84792,-0.04811 -1.41278,-0.08554c-0.26798,0.01463 -0.52591,0.04025 -0.76833,0.08109c-0.60718,0.10228 -1.1479,0.22676 -1.66494,0.35382c-0.45398,0.57287 -0.64117,1.52345 -1.34456,1.81358c-0.73382,0.30269 -2.76887,0.02765 -3.62241,0.02896c-0.88518,0.00135 -1.77037,0.00212 -2.65556,0.00251c-1.62359,0.89784 -3.21234,2.01563 -5.43299,2.16025c-3.21101,1.09136 -6.21364,2.20186 -9.73136,2.21937c-3.50035,0.01705 -7.00122,0.00589 -10.50165,0.00589c-2.16667,0 -4.33333,0 -6.5,0c-0.41815,0 -1.85043,0.15245 -2.16314,-0.04423c-0.51157,-0.32175 0.23356,-1.13885 -0.56236,-1.04357c-3.49827,-0.03074 -6.99839,-0.00881 -10.49692,-0.00881c-1.51042,0 -1.36769,-0.68142 -2.51976,-1.04258c-0.70667,-0.22153 -2.50397,0.31192 -3.07654,-0.10513c-1.43113,-1.0424 1.39518,-2.13408 -1.42342,-2.13934c-0.30216,-0.00056 -1.46854,0.0954 -1.67617,-0.0563c-0.33594,-0.24545 0.10324,-0.87212 -0.05734,-1.15459c-0.22143,-0.38951 -1.09211,-0.59981 -1.38108,-0.98515c-2.3715,0 -4.743,0 -7.1145,0l-0.28254,0c0,0 -0.25,0 -0.25,-0.18259zM983.92653,576.96736c0.36509,0.29125 1.03562,0.49125 1.2368,0.84512c0.07068,0.12433 -0.1266,0.98108 -0.05082,1.03645c0.03484,0.02546 1.2067,-0.05092 1.32382,-0.0507c0.30474,0.00057 1.4611,-0.09607 1.67341,0.05432c0.5621,0.39817 -0.34245,1.86804 0.10181,2.19163c0.35203,0.25641 2.35966,-0.14775 2.92068,0.02813c1.12729,0.35339 0.95137,1.01298 2.32254,1.01298c3.50054,0 7.00266,-0.02192 10.50294,0.00884c1.47778,0.11025 0.2302,0.72167 0.88262,1.13201c0.20476,0.12879 1.98631,-0.04423 2.33686,-0.04423c2,0 4,0 6,0c3.49932,0 6.99907,0.01117 10.49831,-0.00588c3.51313,-0.01673 6.37377,-1.14804 9.60507,-2.20689c1.93085,-0.14541 3.37963,-1.00064 4.79958,-1.80731c-2.36064,0.00051 -4.72129,-0.00122 -7.08192,-0.00122c-3.5,0 -7,0 -10.5,0c-0.48579,0 -2.33095,0.19366 -2.67484,-0.05208c-0.27047,-0.19327 0.13184,-0.97753 -0.03283,-1.09534c-0.03989,-0.02854 -1.20437,0.05086 -1.32521,0.0508c-1.66661,-0.00075 -3.33323,0 -4.99985,0c-2.1863,0 -6.89197,-0.69632 -8.27337,-2.25204c-1.9702,-0.11824 -4.42239,-0.34181 -5.88243,0.04771c-1.05552,0.2816 -1.29548,0.92569 -2.57756,1.0391c-3.43136,0.3019 -7.07088,0.0686 -10.52618,0.06861c-0.09315,0 -0.18629,0 -0.27944,0zM1004.08104,575.85715c1.6563,1.28645 5.02234,1.84165 7.38447,1.84165c1.66672,0 3.33344,-0.00075 5.00015,0c0.30348,0.00014 1.46431,-0.09708 1.67479,0.05351c0.26959,0.19289 -0.13148,0.97793 0.03261,1.09518c0.147,0.10504 2.0165,-0.05208 2.32516,-0.05208c3.5,0 7,0 10.5,0c2.5785,0 5.15703,0.00207 7.73555,0.00101c1.11434,-0.60655 2.25372,-1.11176 3.63636,-1.1505c1.56938,-0.04397 2.64095,-0.34494 3.83225,-0.64488c0.13317,-0.16165 0.28964,-0.29434 0.48656,-0.37537c0.43238,-0.17792 1.31744,-0.15425 2.14593,-0.10487c1.21135,-0.06568 2.60688,0.08137 3.73959,0.08137c1.31732,0 2.63464,0 3.95195,0c0.23939,-0.04177 0.46484,-0.09442 0.67244,-0.16009c0.60279,-0.19068 0.96582,-0.39876 1.33135,-0.57136c-0.43543,0 -0.87086,0 -1.30629,0c-3.5,0 -7,0 -10.5,0c-3.5,0 -7,0 -10.5,0c-3.5,0 -7,0 -10.5,0c-3.5,0 -7,0 -10.5,0c-3.5,0 -7,0 -10.5,0c-0.20069,0 -0.416,-0.00502 -0.64289,-0.01359zM1039.53846,578.796c0.65308,-0.00045 1.30617,-0.00113 1.95925,-0.00212c0.73915,-0.00113 2.76893,0.2693 3.37757,0.01825c0.51429,-0.21213 0.73888,-0.8217 1.03087,-1.3562c-1.07234,0.26804 -2.10845,0.51545 -3.51685,0.55491c-1.0549,0.02956 -1.97133,0.35185 -2.85084,0.78516zM1058.84235,575.50557c0.37658,0 0.75317,0 1.12975,0c0.11546,-0.00716 0.23934,-0.01134 0.37306,-0.01223c2.33912,-0.01555 3.50122,-0.7149 5.62466,-1.07954c1.35332,-0.23239 3.16251,-0.00485 4.55722,-0.00485c3,0 6,0 9,0c0,0 0.25,0 0.25,0.18259c0,0.18259 -0.25,0.18259 -0.25,0.18259c-3,0 -6,0 -9,0c-1.35193,0 -3.13377,-0.22963 -4.44278,-0.00485c-1.16537,0.20012 -2.06283,0.50128 -3.02114,0.73629c1.55361,0 3.10721,0 4.66082,0c3.49999,-0.00001 6.99998,-0.0002 10.49998,-0.00045c2.33293,-0.00017 4.66572,-0.00099 6.99862,-0.01034c0.5267,-0.00211 1.30351,-0.09239 1.95607,-0.07231c-1.20699,-0.33635 -3.3278,-0.74277 -3.43374,-1.1857c-0.02051,-0.20213 0.20864,-0.47013 0.00528,-0.60805c-0.17001,-0.1153 -2.00465,0.04879 -2.32988,0.04879c-2.33334,0 -4.66667,-0.00004 -7.00001,-0.00011c-1.51648,-0.00004 -4.20615,0.37049 -5.59934,-0.08366c-0.56626,-0.18459 -0.85944,-0.86004 -1.4132,-1.02661c-0.67429,-0.20283 -2.15752,0.01376 -2.90479,0.01376c-2.33333,0 -4.66667,0 -7,0c-0.3999,0 -1.88926,0.14784 -2.17399,-0.05372c-0.22797,-0.16137 -0.10514,-0.87164 -0.05106,-1.09572c-3.13088,0.44701 -6.35962,-2.14042 -9.6586,-2.14042c-2.03851,0 -4.07701,0 -6.11552,0c0.12514,0.06117 0.23909,0.12824 0.34059,0.20168c2.08051,1.50518 4.02905,1.91109 6.52852,2.72069c0.76664,0.24832 1.03735,0.93854 1.92167,0.99582c0.50903,0.04313 2.27554,-0.07832 2.62812,0.14499c0.3015,0.19096 0.01822,0.94516 0.2351,1.08142c1.27415,0.80056 4.90717,-0.71085 6.36777,0.28375c0.42805,0.31057 0.86697,0.56981 1.31684,0.7862zM1010.22093,569.65374c-2.04391,0.31799 -4.00295,0.73557 -6.28401,0.73865c-0.63827,0.00086 -1.82693,-0.17152 -2.41132,-0.00863c-1.30011,0.36239 -2.04308,1.81868 -3.36152,2.1852c-0.91298,0.25381 -2.60513,0.01211 -3.58891,0.01217c-3.38315,0.00022 -7.11873,-0.37305 -10.14389,0.80149c-0.92571,0.35941 -1.18581,2.26729 -0.77288,3.21957c0.18252,0 0.36504,0 0.54756,0c3.43318,-0.00001 7.0573,0.23727 10.46606,-0.06596c1.21724,-0.10767 1.4168,-0.73963 2.46612,-1.01958c1.4668,-0.39133 3.8237,-0.20141 5.79525,-0.08236c-0.0861,-0.17522 -0.1316,-0.35982 -0.12997,-0.55397c-3.40562,0.00253 -7.08823,0.10015 -10.48111,-0.1573c-0.04116,-0.21225 -0.30797,-1.16641 -0.06246,-1.35283c0.26862,-0.20396 1.79063,-0.05786 2.18018,-0.05786c2.31364,0 4.62935,-0.02054 6.94271,0.00486c0.82274,-0.31092 1.78441,-0.80568 2.67893,-0.97647c0.76775,-0.14658 2.27946,0.19611 2.93179,-0.0874c1.50645,-0.65473 0.69357,-2.19297 2.94084,-2.22372c0.39988,0.05742 0.35873,-0.13227 0.28662,-0.37586zM1003.66149,575.47479c0.38094,0.01863 0.73877,0.03077 1.06243,0.03077c3.5,0 7,0 10.5,0c3.5,0 7,0 10.5,0c3.5,0 7,0 10.5,0c3.5,0 7,0 10.5,0c3.5,0 7,0 10.5,0c0.25464,0 0.50928,0 0.76391,0c-0.27564,-0.15794 -0.54721,-0.33303 -0.81473,-0.52713c-1.24527,-0.99187 -4.99712,0.57869 -6.34147,-0.26599c-0.3067,-0.1927 -0.01645,-0.94294 -0.2366,-1.08237c-0.18768,-0.11887 -1.9966,-0.02749 -2.35817,-0.05813c-1.01999,-0.10157 -1.21866,-0.75004 -2.06675,-1.02474c-2.54527,-0.82443 -4.55599,-1.26009 -6.67768,-2.79507c-0.28482,-0.20606 -0.69369,-0.3553 -1.18802,-0.46112c-1.06173,0 -2.12345,0 -3.18518,0c-1.88356,0 -3.76712,0 -5.65069,0c-0.00355,0 -0.00709,0 -0.01062,0c-1.27304,0 -2.54608,0 -3.81912,0c-0.33986,0 -0.67971,0 -1.01957,0c-0.07371,0 -0.14743,0 -0.22114,0c-1.81339,0 -3.62678,0 -5.44017,0c-0.19752,0 -0.39504,0 -0.59256,0c-1.41495,0.00103 -2.8299,0.00346 -4.24483,0.00872c-1.28501,0.00478 -2.46622,0.13831 -3.61495,0.31049c0.11076,0.34194 0.58312,0.68117 -0.56191,0.78447c-1.86342,0.02549 -1.30578,1.56886 -2.69451,2.17242c-0.75855,0.32968 -2.21068,-0.03546 -3.06103,0.12689c-0.89778,0.17141 -1.85142,0.68209 -2.6908,0.97862c-2.1853,0.01906 -4.37183,0.00486 -6.55729,0.00486c-0.29166,0 -2.1965,-0.1478 -2.31982,-0.05416c-0.02093,0.01589 0.07905,0.71188 0.04902,0.8367c2.93504,-0.45932 7.57123,-0.31226 10.48864,0.16271c0.09217,0.3094 0.26547,0.59306 0.50361,0.85203zM1060.97444,576.60218c-0.65109,-0.13319 -1.28309,-0.31562 -1.89624,-0.56563c-0.40739,0.14209 -0.68767,0.35202 -1.20006,0.56563c1.0321,0 2.0642,0 3.0963,0z" fill="#000000" stroke-width="0.5"/><path d="M544.72823,661.30781v-19.51952h133.63363v19.51952z" fill="#0c7d00" stroke-width="0"/><path d="M549.60456,650.44791c-3.74923,-0.07551 -3.67374,-3.82475 -3.67374,-3.82475l0.00672,-0.33327c0.07089,-3.5201 -0.6609,-10.56526 2.41583,-12.94497c1.86934,-1.44584 4.63858,-0.93235 7.11042,0.17472c0.60414,-2.00052 1.94667,-3.62275 4.86106,-4.29252c1.81325,-0.41671 3.73188,0.34277 5.36113,1.68796c0.56725,-0.17899 1.22497,-0.27648 1.98771,-0.27405c0.64676,0.00206 1.22754,0.22266 1.75591,0.5826c0.61238,-0.28375 1.25563,-0.46604 1.91002,-0.50877c0.61531,-0.04018 1.22869,0.08629 1.82542,0.34353c0.08902,-0.08134 0.1817,-0.15951 0.27825,-0.23428c1.64273,-1.27212 4.22575,-0.94408 6.22221,-0.36871c0.90944,0.26211 1.64202,0.87582 2.32404,1.57303c1.71908,-0.49415 3.75734,0.72161 5.33456,2.10106c1.4263,0.28276 2.94457,0.92399 4.17825,1.77431c1.33177,-1.56511 2.90544,-2.37616 4.56617,-2.37268c3.55394,-4.95042 6.66185,-2.17924 10.11064,-0.2735c1.24703,0.68908 2.62159,1.21684 3.80009,2.00606c0.63848,-0.46843 1.42981,-0.73915 2.28224,-0.72409c0.17233,-1.02022 0.53203,-1.94899 1.24901,-2.70337c4.36402,-4.59163 6.86574,-1.08852 8.33054,1.92608c0.05751,-0.03334 0.11603,-0.06521 0.17561,-0.09554c-0.13787,-2.51144 1.21416,-4.54388 6.05114,-5.12809c1.72136,-0.2079 2.73275,2.13823 4.03086,3.28767c2.60222,2.30416 5.00791,5.20821 7.39582,7.69425c0,0 2.59771,2.7045 -0.10679,5.30222c-2.1141,2.03064 -4.16295,0.82134 -4.95675,0.19659c-0.32903,1.77238 -1.9009,3.09769 -3.76225,3.06021c-0.83921,-0.01689 -1.60844,-0.30823 -2.22384,-0.78661l-3.57914,-2.71484l0.00416,-0.00549c-0.00869,-0.00375 -0.01737,-0.00752 -0.02606,-0.01127c-0.04864,-0.02106 -0.09661,-0.04208 -0.1439,-0.06309c-0.45506,1.59903 -1.94227,2.75518 -3.6825,2.72014c-0.39296,-0.00791 -0.77058,-0.076 -1.12425,-0.19529c-0.5424,1.44897 -1.9538,2.46711 -3.58846,2.43419c-0.71859,-0.01447 -1.38589,-0.23016 -1.94922,-0.59219c-0.70014,0.92691 -1.81972,1.51649 -3.06989,1.49131c-1.84328,-0.03711 -3.34909,-1.39818 -3.62814,-3.15734c-0.45973,0.36993 -1.60999,0.61897 -2.98694,0.77656c-0.58719,0.35584 -1.27901,0.55481 -2.01627,0.53996c-0.12014,-0.00242 -0.23885,-0.01046 -0.35587,-0.02387c-0.29345,1.42444 -0.5813,2.6363 -0.70177,3.4207l-4.61885,-3.73553c-0.1294,0.50602 -0.36144,0.97011 -0.67227,1.36932c0.04537,0.2459 0.06668,0.50006 0.06144,0.75983c-0.0417,2.07065 -1.75409,3.71543 -3.82475,3.67374c-0.37154,-0.00749 -0.72938,-0.06875 -1.06621,-0.17624l-3.56339,-1.04936l0.00005,-0.00018c-1.23906,-0.38562 -2.49955,-0.79534 -3.6975,-1.27596c-1.11006,-0.03465 -2.09456,-0.54963 -2.75756,-1.34095c-1.49264,-0.89985 -2.71581,-2.02415 -3.42162,-3.51113c-0.64246,1.20955 -1.92654,2.02187 -3.38943,1.99241c-0.6137,-0.01236 -1.18997,-0.17147 -1.69604,-0.44318c-0.68998,0.65147 -1.62612,1.04306 -2.64983,1.02246c-1.41085,-0.02841 -2.62401,-0.83245 -3.24069,-1.99695c-0.43223,0.16207 -0.90183,0.24654 -1.39148,0.23667c-1.48489,-0.0299 -2.75077,-0.91896 -3.33277,-2.18318c-0.45888,1.59314 -1.94313,2.74373 -3.67923,2.70876c-1.93015,-0.03887 -3.49027,-1.52939 -3.65933,-3.40858l-0.2744,-2.62336l0.23884,-0.02499c-0.10361,-0.10033 -0.21057,-0.19769 -0.32127,-0.29179c-0.27032,-0.22978 -0.60353,-0.37573 -0.94347,-0.51064c0.24494,1.8003 -0.24316,4.46255 -0.26077,5.33731l-0.00671,0.33326c0,0 -0.07551,3.74924 -3.82476,3.67374z" fill="#14c700" stroke-width="0.5"/><path d="M584.63459,650.94341c-3.74923,-0.07551 -3.67374,-3.82475 -3.67374,-3.82475l0.00672,-0.33327c0.07089,-3.52009 -0.6609,-10.56526 2.41583,-12.94497c1.86934,-1.44585 4.63858,-0.93235 7.11042,0.17472c0.60414,-2.00052 1.94667,-3.62275 4.86106,-4.29253c1.81325,-0.41671 3.73188,0.34277 5.36113,1.68796c0.56725,-0.17899 1.22497,-0.27648 1.98771,-0.27405c0.64676,0.00206 1.22754,0.22267 1.75591,0.5826c0.61238,-0.28374 1.25563,-0.46603 1.91002,-0.50877c0.61531,-0.04018 1.22869,0.08628 1.82542,0.34353c0.08902,-0.08133 0.1817,-0.1595 0.27825,-0.23428c1.64273,-1.27212 4.22575,-0.94408 6.2222,-0.36872c0.90944,0.26211 1.64202,0.87583 2.32404,1.57303c1.71908,-0.49415 3.75734,0.72161 5.33456,2.10106c1.4263,0.28276 2.94457,0.92399 4.17825,1.77431c1.33177,-1.56511 2.90544,-2.37615 4.56617,-2.37268c3.55394,-4.95042 6.66185,-2.17924 10.11064,-0.2735c1.24703,0.68908 2.62159,1.21684 3.80009,2.00606c0.63848,-0.46843 1.42981,-0.73915 2.28224,-0.72409c0.17233,-1.02022 0.53203,-1.94899 1.24901,-2.70337c4.36402,-4.59163 6.86574,-1.08851 8.33054,1.92608c0.05751,-0.03334 0.11603,-0.06521 0.17561,-0.09553c-0.13787,-2.51144 1.21416,-4.54389 6.05114,-5.12809c1.72136,-0.2079 2.73275,2.13823 4.03086,3.28766c2.60222,2.30415 5.00791,5.20821 7.39582,7.69425c0,0 2.59771,2.7045 -0.10679,5.30222c-2.1141,2.03063 -4.16295,0.82133 -4.95675,0.19658c-0.32903,1.77238 -1.9009,3.09769 -3.76225,3.06021c-0.83921,-0.01689 -1.60844,-0.30823 -2.22384,-0.78661l-3.57914,-2.71484l0.00416,-0.00549c-0.00869,-0.00375 -0.01737,-0.00752 -0.02606,-0.01128c-0.04864,-0.02106 -0.09661,-0.04209 -0.1439,-0.06309c-0.45506,1.59904 -1.94227,2.75518 -3.6825,2.72013c-0.39296,-0.00791 -0.77058,-0.076 -1.12425,-0.19528c-0.5424,1.44896 -1.9538,2.46711 -3.58847,2.43419c-0.71859,-0.01448 -1.38588,-0.23016 -1.94922,-0.59219c-0.70014,0.92691 -1.81972,1.51649 -3.06989,1.49131c-1.84328,-0.03711 -3.34909,-1.39819 -3.62814,-3.15734c-0.45973,0.36993 -1.60999,0.61897 -2.98694,0.77655c-0.58719,0.35584 -1.27901,0.55482 -2.01627,0.53997c-0.12014,-0.00242 -0.23885,-0.01046 -0.35587,-0.02387c-0.29345,1.42444 -0.5813,2.6363 -0.70177,3.4207l-4.61885,-3.73553c-0.1294,0.50602 -0.36144,0.97011 -0.67227,1.36932c0.04537,0.2459 0.06668,0.50005 0.06144,0.75983c-0.0417,2.07065 -1.75409,3.71543 -3.82475,3.67374c-0.37154,-0.00749 -0.72938,-0.06875 -1.06621,-0.17624l-3.56339,-1.04936l0.00005,-0.00018c-1.23906,-0.38562 -2.49955,-0.79534 -3.6975,-1.27595c-1.11006,-0.03466 -2.09456,-0.54963 -2.75756,-1.34095c-1.49264,-0.89986 -2.71581,-2.02415 -3.42162,-3.51113c-0.64246,1.20955 -1.92654,2.02187 -3.38943,1.99241c-0.6137,-0.01236 -1.18998,-0.17148 -1.69605,-0.44319c-0.68998,0.65147 -1.62612,1.04307 -2.64983,1.02246c-1.41085,-0.02841 -2.62401,-0.83245 -3.24069,-1.99695c-0.43223,0.16208 -0.90183,0.24654 -1.39148,0.23667c-1.48489,-0.0299 -2.75077,-0.91896 -3.33277,-2.18318c-0.45888,1.59314 -1.94313,2.74372 -3.67923,2.70876c-1.93015,-0.03888 -3.49027,-1.52939 -3.65933,-3.40858l-0.2744,-2.62337l0.23884,-0.02499c-0.10361,-0.10034 -0.21058,-0.1977 -0.32128,-0.2918c-0.27032,-0.22978 -0.60352,-0.37572 -0.94347,-0.51064c0.24494,1.8003 -0.24316,4.46255 -0.26077,5.33731l-0.00671,0.33326c0,0 -0.07551,3.74924 -3.82476,3.67374z" fill="#14c700" stroke-width="0.5"/></g></g></svg>