<svg version="1.1" xmlns="http://www.w3.org/2000/svg" xmlns:xlink="http://www.w3.org/1999/xlink" width="1504.5045" height="878.6554" viewBox="0,0,1504.5045,878.6554"><defs><radialGradient cx="134.91743" cy="621.80931" r="130.23751" gradientTransform="translate(-11.97953,-998.6921) scale(1.58695,1.58695)" gradientUnits="userSpaceOnUse" id="color-1"><stop offset="0" stop-color="#ffffff" stop-opacity="0"/><stop offset="1" stop-color="#ffffff"/></radialGradient><radialGradient cx="137.78631" cy="622.04657" r="130.23751" gradientTransform="translate(-11.97953,-998.6921) scale(1.58695,1.58695)" gradientUnits="userSpaceOnUse" id="color-2"><stop offset="0" stop-color="#919191"/><stop offset="1" stop-color="#919191" stop-opacity="0"/></radialGradient></defs><g transform="translate(327.54503,74.9024)"><g data-paper-data="{&quot;isPaintingLayer&quot;:true}" fill-rule="nonzero" stroke-linecap="butt" stroke-linejoin="miter" stroke-miterlimit="10" stroke-dasharray="" stroke-dashoffset="0" style="mix-blend-mode: normal"><path d="M-327.54503,606.77928v-681.68168h1504.5045v681.68168z" fill="#1e1e1e" stroke="none" stroke-width="none"/><path d="M-261.47896,803.003v-241.25375h1364.86486v241.25375z" fill="#000000" stroke="#ffffff" stroke-width="1.5"/><text transform="translate(3.32889,597.78528) scale(0.63014,0.63014)" font-size="40" xml:space="preserve" fill="#ffffff" fill-rule="nonzero" stroke="none" stroke-width="1" stroke-linecap="butt" stroke-linejoin="miter" stroke-miterlimit="10" stroke-dasharray="" stroke-dashoffset="0" font-family="Marker" font-weight="normal" text-anchor="start" style="mix-blend-mode: normal"><tspan x="0" dy="0">It was theorized they would be stolen again.</tspan></text><text transform="translate(769.56458,627.81531) scale(0.5,0.5)" font-size="40" xml:space="preserve" fill="#ffffff" fill-rule="nonzero" stroke="none" stroke-width="1" stroke-linecap="butt" stroke-linejoin="miter" stroke-miterlimit="10" stroke-dasharray="" stroke-dashoffset="0" font-family="Marker" font-weight="normal" text-anchor="start" style="mix-blend-mode: normal"><tspan x="0" dy="0">Press Z to continue.</tspan></text><text transform="translate(7.54879,629.31682) scale(0.63014,0.63014)" font-size="40" xml:space="preserve" fill="url(#color-1)" fill-rule="nonzero" stroke="url(#color-2)" stroke-width="2" stroke-linecap="butt" stroke-linejoin="miter" stroke-miterlimit="10" stroke-dasharray="" stroke-dashoffset="0" font-family="Marker" font-weight="normal" text-anchor="start" style="mix-blend-mode: normal"><tspan x="0" dy="0">That theory was true.</tspan></text><path d="M314.98572,249.51296c15.24214,5.21545 27.33896,16.63903 32.87162,31.03925" fill="none" stroke="#ffffff" stroke-width="1"/><path d="M345.66589,320.8179c-6.23705,12.15168 -17.35108,21.65196 -30.93749,26.22797" fill="none" stroke="#ffffff" stroke-width="1"/><path d="M275.38757,346.12142c-12.06974,-4.72094 -21.96692,-13.40008 -27.88005,-24.3252" fill="none" stroke="#ffffff" stroke-width="1"/><path d="M243.08427,285.91246c3.61726,-14.01138 13.26363,-25.78937 26.19362,-32.73891" fill="none" stroke="#ffffff" stroke-width="1"/><path d="M544.92428,208.6431c25.80824,4.19838 45.44359,25.45634 45.44359,51.04909c0,0.17213 -0.00089,0.34407 -0.00266,0.5158" fill="none" stroke="#ffffff" stroke-width="1"/><path d="M585.95589,280.08917c-6.41695,14.14541 -19.30543,25.04575 -35.14506,29.37354" fill="none" stroke="#ffffff" stroke-width="1"/><path d="M530.81082,311.30195c-20.40001,-1.65619 -37.60737,-13.87539 -45.47148,-30.84399" fill="none" stroke="#ffffff" stroke-width="1"/><path d="M480.76413,260.45796c-0.00391,-0.25481 -0.00587,-0.51007 -0.00587,-0.76577c0,-25.12879 18.92988,-46.07854 44.04616,-50.80402" fill="none" stroke="#ffffff" stroke-width="1"/><path d="M789.48766,252.82245c23.59125,4.1911 41.8495,22.6705 44.33109,45.56681" fill="none" stroke="#ffffff" stroke-width="1"/><path d="M832.28739,317.01717c-5.38617,19.24158 -22.19264,34.09376 -43.14811,37.68363" fill="none" stroke="#ffffff" stroke-width="1"/><path d="M769.93683,354.77972c-20.30184,-3.304 -36.78328,-17.16467 -42.89063,-35.38741" fill="none" stroke="#ffffff" stroke-width="1"/><path d="M724.61682,300.2783c1.66603,-23.92846 20.52164,-43.41908 45.00478,-47.54335" fill="none" stroke="#ffffff" stroke-width="1"/><path d="M154.39201,346.75138c9.65769,3.9493 17.87551,10.44948 23.70262,18.60181" fill="none" stroke="#ffffff" stroke-width="1"/><path d="M182.87561,415.07884c-4.81997,10.40243 -13.15119,19.02026 -23.57678,24.51425" fill="none" stroke="#ffffff" stroke-width="1"/><path d="M114.95232,443.35821c-16.55703,-5.33669 -29.54795,-17.95384 -34.70074,-33.81355" fill="none" stroke="#ffffff" stroke-width="1"/><path d="M82.62493,373.12794c6.46753,-13.62086 18.97883,-24.12107 34.30751,-28.45106" fill="none" stroke="#ffffff" stroke-width="1"/><path d="M939.49246,388.54283c24.95257,3.24889 44.54494,22.37525 46.99771,46.24512" fill="none" stroke="#ffffff" stroke-width="1"/><path d="M984.68891,453.97631c-5.99063,20.0336 -24.41248,35.13544 -46.89219,37.39098" fill="none" stroke="#ffffff" stroke-width="1"/><path d="M919.018,490.20994c-18.72861,-4.2803 -33.70243,-17.65313 -39.39766,-34.89738" fill="none" stroke="#ffffff" stroke-width="1"/><path d="M877.26938,436.26479c1.67033,-23.04801 19.29074,-41.95304 42.50659,-46.92783" fill="none" stroke="#ffffff" stroke-width="1"/></g></g></svg>