<svg version="1.1" xmlns="http://www.w3.org/2000/svg" xmlns:xlink="http://www.w3.org/1999/xlink" width="1728.7186" height="1863.74707" viewBox="0,0,1728.7186,1863.74707"><g transform="translate(340.63063,677.00451)"><g data-paper-data="{&quot;isPaintingLayer&quot;:true}" fill-rule="nonzero" stroke-linecap="butt" stroke-linejoin="miter" stroke-miterlimit="10" stroke-dasharray="" stroke-dashoffset="0" style="mix-blend-mode: normal"><path d="M302.50751,250.2786c82.2082,0 244.60515,-176.63802 392.33619,-198.69893c329.40662,-49.19082 693.24427,32.03227 693.24427,32.03227v1103.13063h-1594.58947v-1103.13063c0,0 242.9939,166.66667 509.00901,166.66667z" data-paper-data="{&quot;index&quot;:null}" fill="#474747" stroke="none" stroke-width="0"/><path d="M-340.63063,426.12613v-1103.13063h1594.58947v1103.13063c0,0 -54.73066,-143.10268 -307.3937,-144.36236c-72.33972,-0.36066 -312.53063,187.34361 -385.85057,176.39462c-147.73104,-22.06091 -310.128,-198.69893 -392.33619,-198.69893c-47.74509,0 -94.74858,5.36901 -139.73861,14.17973c-205.67506,40.27882 -369.27039,152.48695 -369.27039,152.48695z" fill="#000000" stroke="none" stroke-width="0"/><text transform="translate(312.26831,615.40579) scale(0.69792,0.69792)" font-size="40" xml:space="preserve" fill="#ffffff" fill-rule="nonzero" stroke="none" stroke-width="1" stroke-linecap="butt" stroke-linejoin="miter" stroke-miterlimit="10" stroke-dasharray="" stroke-dashoffset="0" font-family="Marker" font-weight="normal" text-anchor="start" style="mix-blend-mode: normal"><tspan x="0" dy="0">Tweak your preferences!</tspan></text><text transform="translate(315.53454,61.74175) scale(0.5,0.5)" font-size="40" xml:space="preserve" fill="#ffffff" fill-rule="nonzero" stroke="none" stroke-width="1" stroke-linecap="butt" stroke-linejoin="miter" stroke-miterlimit="10" stroke-dasharray="" stroke-dashoffset="0" font-family="Marker" font-weight="normal" text-anchor="start" style="mix-blend-mode: normal"><tspan x="0" dy="0">Press Space to make an option.</tspan></text><path d="M151.81591,339.51953l-15.01502,-45.04505h184.77661l15.01502,45.04505z" fill="#a4a4a4" stroke="#ffffff" stroke-width="0"/><text transform="translate(199.39671,322.76575) scale(0.5,0.5)" font-size="40" xml:space="preserve" fill="#ffffff" fill-rule="nonzero" stroke="none" stroke-width="1" stroke-linecap="butt" stroke-linejoin="miter" stroke-miterlimit="10" stroke-dasharray="" stroke-dashoffset="0" font-family="Marker" font-weight="normal" text-anchor="start" style="mix-blend-mode: normal"><tspan x="0" dy="0">1P Mode</tspan></text><path d="M578.73783,337.01201l-15.01502,-45.04505h184.77661l15.01502,45.04505z" fill="#a4a4a4" stroke="#ffffff" stroke-width="2"/><text transform="translate(608.30062,321.75974) scale(0.5,0.5)" font-size="40" xml:space="preserve" fill="#ffffff" fill-rule="nonzero" stroke="none" stroke-width="1" stroke-linecap="butt" stroke-linejoin="miter" stroke-miterlimit="10" stroke-dasharray="" stroke-dashoffset="0" font-family="Marker" font-weight="normal" text-anchor="start" style="mix-blend-mode: normal"><tspan x="0" dy="0">Settings</tspan></text></g></g></svg>