<svg version="1.1" xmlns="http://www.w3.org/2000/svg" xmlns:xlink="http://www.w3.org/1999/xlink" width="4990.29644" height="634.09901" viewBox="0,0,4990.29644,634.09901"><g transform="translate(3764.37555,-329.29217)"><g data-paper-data="{&quot;isPaintingLayer&quot;:true}" fill-rule="nonzero" stroke="#000000" stroke-linejoin="miter" stroke-miterlimit="10" stroke-dasharray="" stroke-dashoffset="0" style="mix-blend-mode: normal"><path d="" fill="#ffab67" stroke-width="2.5" stroke-linecap="butt"/><path d="" fill="#ffab67" stroke-width="2.5" stroke-linecap="butt"/><path d="" fill="#ffab67" stroke-width="2.5" stroke-linecap="butt"/><path d="" fill="#ffab67" stroke-width="2.5" stroke-linecap="butt"/><path d="" fill="#ffab67" stroke-width="1.5" stroke-linecap="butt"/><path d="" fill="#ffab67" stroke-width="1.5" stroke-linecap="butt"/><path d="" fill="#ffab67" stroke-width="1.5" stroke-linecap="butt"/><path d="" data-paper-data="{&quot;index&quot;:null}" fill="#ffab67" stroke-width="2" stroke-linecap="butt"/><path d="M-3763.62555,962.64115v-355.85586h4028.0559c-1.9457,2.45569 -2.34027,5.37554 -2.34027,5.37554c-14.00413,103.63053 -27.82889,207.19797 -36.76157,311.4121l-1.29198,15.07307c0,0 -0.85401,9.96347 9.10946,10.81748c9.96347,0.85401 10.81748,-9.10946 10.81748,-9.10946l1.29198,-15.07307c3.2321,-37.70793 7.10766,-75.33081 11.40133,-112.90255c0.81441,0.12161 1.34322,0.12161 1.34322,0.12161c3,0 8,0 11,0c7.82122,0 16.17013,0.67966 23.89806,-0.04041c3.71071,-0.34575 7.31422,-1.44874 11,-2c1.68199,-0.25157 3.40124,0.04041 5.10194,0.04041c10.07877,0 20.48096,0.73923 30.553,-0.0153c26.02272,-1.94945 52.32173,-0.9847 78.447,-0.9847c20.66667,0 41.33333,0 62,0c5.80551,0 11.72536,0.25338 17.60861,0.27057c0.4807,26.00535 -0.47666,52.41217 -0.37379,76.303c0.02948,6.84543 2.55438,12.93096 6.85326,17.3837c-0.52131,0.44558 -1.03506,0.89815 -1.53749,1.36117c-4.90244,4.5178 -9.84169,8.99815 -14.63216,13.63451c-3.92062,3.79449 -6.42221,9.64441 -11.49537,11.65252c-5.07315,2.00811 -10.9022,-0.4808 -16.35635,-0.62795c-3.35436,-0.0905 -6.71113,0.0225 -10.0667,0.02249h-2c0,0 -10,0 -10,10c0,10 10,10 10,10h2c9.50572,-0.00004 27.62475,1.63962 33.78399,-0.79839c7.33187,-2.90218 11.9159,-10.3325 17.76895,-15.61651c1.25315,-1.13131 14.99096,-13.93264 23.63688,-22.0964c4.29454,-0.32471 8.18485,-1.56979 11.50651,-3.53638c0.30681,3.24095 0.58448,6.48704 0.82749,9.73956c0.49177,6.52793 0.98354,13.05586 1.47531,19.58379l0.00092,2.75132c0,0 0.027,9.99996 10.02696,9.97296c9.99996,-0.027 9.97296,-10.02696 9.97296,-10.02696l-0.01588,-3.47273c-0.50543,-6.76806 -1.01086,-13.53612 -1.51629,-20.30418c-1.37893,-18.31794 -3.81066,-36.43324 -6.37967,-54.57458c1.62481,-3.85264 3.23835,-7.71042 4.88104,-11.5549l0.29549,2.87567l0.57878,1.77027l0.29582,1.83527l1.43603,3.66855l0.1859,0.36183l0.31315,0.95783l0.425,0.47891l0.22312,0.43429l5.66793,13.23845l0.13138,1.27862l2.80969,8.59375l0.37895,0.42702l0.42382,1.52611l3.66139,3.07736l3.16211,3.56326l1.56814,0.41246l0.43878,0.36879l8.83043,2.73438l4.01383,0.39063h1.01946l0.63021,0.15576l1.02035,-0.15576h0.41568l4.01383,-0.39062l1.81902,-0.56327l1.88581,-0.28789l1.35446,-0.50216c0.02119,2.89425 0.03243,5.78886 0.03227,8.68388c0,9.66667 0,25.33333 0,35c0,0 0,10 10,10c10,0 10,-10 10,-10c0,-9.66667 0,-25.33333 0,-35c-0.00049,-9.1954 -0.11402,-18.3865 -0.29553,-27.57567l1.42886,-2.31761l31.14978,-22.73617l6.59657,-3.20989l19.38036,-8.25165l3.04819,-0.29665l0.41772,-0.12935l0.43799,-0.01737l3.90934,-0.96783l13.94884,-4.93636l12.22832,-1.19006l0.41541,-0.08167l0.42357,-0.01356l23.14281,-3.003l1.87562,-0.43167l0.23971,-0.01549l0.90015,-0.24685l0.91009,-0.20946l0.21729,-0.09971l1.85511,-0.50873l43.19991,-16.51652l0.63501,-0.31704l0.67517,-0.22513l21.17827,-9.44654l13.84407,0.69688l33.11962,9.91752l3.3596,0.65879l0.1812,0.05611l0.20833,0.02027l0.20524,0.04025l0.19015,-0.00177l3.41011,0.33187h53.99988l0.34661,-0.03373l0.34742,0.02461l0.73588,-0.01936l10.37926,3.21398l38.11807,13.35471l1.25398,0.30627l1.21684,0.42511l30.19002,7.34521l19.39992,5.80921l1.42527,0.27948l1.39526,0.39785l24.68566,4.5045l2.36858,0.19798l2.36551,0.23021h3.0857l1.27986,-0.12456l2.31022,0.45501l6.15436,-2.49559l3.09981,-0.95987l0.68301,-0.57406l0.83305,-0.3378l2.26846,-2.26898l5.04591,-4.24103l0.61497,-2.21443l0.68685,-1.05836l0.6188,-1.20443l0.425,-0.47891l0.31315,-0.95783l0.1859,-0.36183l1.43603,-3.66855l0.29582,-1.83527l0.57878,-1.77027l0.40139,-3.90625v-0.40454l0.06662,-0.41328l5.04582,-1.96423c0.68526,0.64968 1.35366,1.31733 2.00124,2.00717c22.64239,24.12029 44.54559,48.98802 66.81224,73.45686c4.23167,4.65018 8.45004,9.3125 12.69273,13.95262c0.0445,5.8918 0.11544,11.53489 0.86116,19.71741c0.46875,5.14347 0.19245,9.2846 3.21106,14.25611c7.76439,12.78755 24.27436,15.72102 36.05123,8.80041c1.69239,4.31143 4.38433,7.9575 8.60354,10.30385c0.93634,0.52071 1.90888,0.99517 2.90868,1.4198z" fill="#a6a6a6" stroke-width="1.5" stroke-linecap="butt"/><path d="M1110.29781,810.47294h1.47229l0.63021,0.15576l1.02035,-0.15576h0.41568l4.01383,-0.39062l1.81902,-0.56327l1.88581,-0.28789l3.76958,-1.39754l0.3718,-0.18092l0.98421,-0.30476l0.4921,-0.41361l4.32331,-2.10372l1.05211,-0.64668c0.08129,10.76915 0.21738,21.53888 0.29719,32.30734c-7.79257,-8.60739 -15.63303,-17.16774 -23.58177,-25.61571z" fill="#a6a6a6" stroke-width="1.5" stroke-linecap="butt"/><path d="M1168.38622,867.30715c0.27067,3.17393 0.52848,6.34884 0.77379,9.52455c-2.4093,-2.6584 -4.81419,-5.32204 -7.21644,-7.989c2.27791,-0.25958 4.43404,-0.78182 6.44266,-1.53556z" fill="#a6a6a6" stroke-width="1.5" stroke-linecap="butt"/><path d="M510.57,809.35628l-1.92133,1.16173l-21.48214,16.1116l-0.67475,-3.03637l-0.54792,-1.66265l-0.44853,-1.69217l-4.02499,-10.73331c8.77979,0.05915 17.79055,0.60041 26.51503,-0.05377c1.22836,-0.09211 2.41594,-0.47072 3.61915,-0.74844z" fill="#a6a6a6" stroke-width="1.5" stroke-linecap="butt"/><path d="M1218.35589,962.64118h-1484.39862c13.56064,-0.42463 26.75153,-0.89909 39.45157,-1.4198c209.29476,-8.58129 147.4981,-36.29877 146.99121,-48.12078c-0.70145,-16.35696 -13.26838,-32.88722 -51.6089,-49.05637c-8.37512,-3.53198 -29.14994,-4.55844 -39.45073,-8.12844c-19.17291,-6.64487 -7.84761,-13.05532 -14.50111,-19.71465c-25.59031,-25.61285 -66.89716,-45.26173 -61.85004,-68.53433c6.39148,-29.47129 20.83001,-59.32558 20.92631,-88.80044c0.07846,-24.027 0.74103,-48.05407 0.43497,-72.08105h490.07977c-1.94568,2.45569 -2.34025,5.37551 -2.34025,5.37551c-14.00413,103.63053 -27.82889,207.19797 -36.76157,311.4121l-1.29198,15.07307c0,0 -0.85401,9.96347 9.10946,10.81748c9.96347,0.85401 10.81748,-9.10946 10.81748,-9.10946l1.29198,-15.07307c3.2321,-37.70793 7.10766,-75.33081 11.40133,-112.90255c0.81441,0.12161 1.34322,0.12161 1.34322,0.12161c3,0 8,0 11,0c7.82122,0 16.17013,0.67966 23.89806,-0.04041c3.71071,-0.34575 7.31422,-1.44874 11,-2c1.68199,-0.25157 3.40124,0.04041 5.10194,0.04041c10.07877,0 20.48096,0.73923 30.553,-0.0153c26.02272,-1.94945 52.32173,-0.9847 78.447,-0.9847c20.66667,0 41.33333,0 62,0c9.24168,0 18.77312,0.6421 27.98538,-0.04867c1.69492,-0.12709 3.31218,-0.79966 5,-1c3.32463,-0.39463 6.94397,-0.12966 10.40343,-0.00554c1.7875,12.35031 3.5417,24.70414 5.27882,37.05701c0.60765,4.32107 1.2263,8.63631 1.84274,12.94887c-0.96036,2.20863 -1.56797,3.6061 -1.60315,3.68699c-2.65853,6.11365 -5.35569,12.21064 -7.97559,18.34094c-1.73772,4.06608 -2.43201,8.71866 -5.09688,12.24728c-3.60856,4.77818 -8.88101,8.03385 -13.28417,12.09154c-4.90244,4.5178 -9.84169,8.99815 -14.63216,13.63451c-3.92062,3.79449 -6.42221,9.64441 -11.49537,11.65252c-5.07315,2.00811 -10.9022,-0.4808 -16.35635,-0.62795c-3.35436,-0.0905 -6.71113,0.0225 -10.0667,0.02249h-2c0,0 -10,0 -10,10c0,10 10,10 10,10h2c9.50572,-0.00004 27.62475,1.63962 33.78399,-0.79839c7.33187,-2.90218 11.9159,-10.3325 17.76895,-15.61651c1.81579,-1.63926 29.84395,-27.78046 30.61231,-28.81199c1.48784,-1.99746 2.57956,-4.22857 3.52708,-6.54416c0.71988,6.46884 1.3451,12.95298 1.83148,19.46294c0.49177,6.52793 0.98354,13.05586 1.47531,19.58379l0.00092,2.75132c0,0 0.027,9.99996 10.02696,9.97296c9.99996,-0.027 9.97296,-10.02696 9.97296,-10.02696l-0.01588,-3.47273c-0.50543,-6.76806 -1.01086,-13.53612 -1.51629,-20.30418c-1.37893,-18.31794 -3.81066,-36.43324 -6.37967,-54.57458c3.87035,-9.1771 7.67671,-18.38333 11.96558,-27.36967c4.21753,-8.83685 8.69914,-17.55911 13.28107,-26.23614c6.64816,0.08234 13.69972,0.43232 20.0542,-0.32725c1.44551,-0.17278 2.88273,-0.39819 4.31491,-0.65586c0.13836,4.73364 0.27708,9.46727 0.4163,14.20088c0.82139,27.92709 1.88133,55.82717 1.87981,83.76652c0,9.66667 0,25.33333 0,35c0,0 0,10 10,10c10,0 10,-10 10,-10c0,-9.66667 0,-25.33333 0,-35c-0.00151,-28.13573 -1.0613,-56.23112 -1.88846,-84.3545c-0.17019,-5.78633 -0.33961,-11.57269 -0.50855,-17.35906c11.33192,-1.59898 25.95083,-3.2301 36.26487,-4.32416c9.16134,-0.97179 18.40797,-0.80295 27.61175,-1.209c13.19804,-0.58227 26.38422,-1.5692 39.59381,-1.75354c11.26368,-0.15719 22.51963,0.66862 33.77956,0.99919c12.29654,-0.0002 24.6186,0.69386 36.90629,0.99818c37.21535,0.92169 74.42411,1.26201 111.61935,2.98357c14.97938,0.69332 29.9592,2.90745 44.91577,3.9944c18.69668,1.35876 37.48731,1.98647 56.20766,2.95993c6.89589,0.35859 13.78319,1.0963 20.68832,1.06319c11.28377,-0.0541 22.47743,-2.01766 33.71498,-3.03926c0,0 4.08118,-0.37102 6.78084,-3.25063c1.7157,1.42081 3.4314,2.84162 5.14709,4.26244c5.7489,4.76081 12.15384,8.82122 17.26251,14.26334c22.64239,24.12029 44.54559,48.98802 66.81224,73.45686c4.48694,4.9307 8.95893,9.87505 13.46082,14.79211c3.75816,4.10475 6.93707,8.84245 11.31918,12.27318c5.64002,4.41554 12.28631,7.36712 18.44321,11.02763c5.73038,3.40692 11.44376,6.84344 17.21853,10.17459c0.00204,0.00118 0.00408,0.00236 0.00613,0.00354z" fill="#a6a6a6" stroke-width="1.5" stroke-linecap="butt"/><path d="M528.85995,712.83224c-5.90908,-35.38164 -14.1294,-70.42644 -18.41381,-106.04692h83.86007c0.60223,24.68507 1.94733,49.36643 2.6991,74.04014c0.38775,12.72633 0.76816,25.4529 1.14424,38.17961c-5.15262,11.8234 -10.28671,23.65188 -16.15004,35.13707c-11.85041,23.21277 -24.93108,45.92913 -36.23729,69.41358c-5.2632,-36.95967 -10.75362,-73.90733 -16.90227,-110.72347z" fill="#a6a6a6" stroke-width="1.5" stroke-linecap="butt"/><path d="" fill="#a6a6a6" stroke-width="1.5" stroke-linecap="butt"/><path d="" fill="#a6a6a6" stroke-width="1.5" stroke-linecap="butt"/><path d="" fill="#a6a6a6" stroke-width="1.5" stroke-linecap="butt"/><path d="" fill="#a6a6a6" stroke-width="1.5" stroke-linecap="butt"/><path d="M182.52441,581.36529v-22.87189h83.25368v22.87189z" fill="#a6a6a6" stroke-width="1.5" stroke-linecap="butt"/><path d="M185.08475,583.92562v-22.87189h83.25369v22.87189z" fill="#a6a6a6" stroke-width="1.5" stroke-linecap="butt"/><path d="M185.26905,560.62811l-2.43967,-1.52479" fill="none" stroke-width="1.5" stroke-linecap="round"/><path d="M183.13434,581.06033l1.52479,2.13471" fill="none" stroke-width="1.5" stroke-linecap="round"/><path d="M267.60785,560.62811l-1.52479,-2.13471" fill="none" stroke-width="1.5" stroke-linecap="round"/><path d="M504.52442,576.36529v-22.87189h83.25368v22.87189z" fill="#a6a6a6" stroke-width="1.5" stroke-linecap="butt"/><path d="M507.08476,578.92562v-22.87189h83.25369v22.87189z" fill="#a6a6a6" stroke-width="1.5" stroke-linecap="butt"/><path d="M507.26906,555.62811l-2.43967,-1.52479" fill="none" stroke-width="1.5" stroke-linecap="round"/><path d="M505.13434,576.06033l1.52479,2.13471" fill="none" stroke-width="1.5" stroke-linecap="round"/><path d="M588.08307,553.4934l1.52479,2.13471" fill="none" stroke-width="1.5" stroke-linecap="round"/><path d="M729.52442,552.36529v-22.87189h83.25368v22.87189z" fill="#a6a6a6" stroke-width="1.5" stroke-linecap="butt"/><path d="M732.08476,554.92562v-22.87189h83.25369v22.87189z" fill="#a6a6a6" stroke-width="1.5" stroke-linecap="butt"/><path d="M732.26906,531.62811l-2.43967,-1.52479" fill="none" stroke-width="1.5" stroke-linecap="round"/><path d="M730.13434,552.06033l1.52479,2.13471" fill="none" stroke-width="1.5" stroke-linecap="round"/><path d="M813.08307,529.4934l1.52479,2.13471" fill="none" stroke-width="1.5" stroke-linecap="round"/><path d="M1104.7781,531.4934v22.87189z" fill="#a6a6a6" stroke-width="1.5" stroke-linecap="butt"/><path d="M1107.33844,534.05373v22.87189z" fill="#a6a6a6" stroke-width="1.5" stroke-linecap="butt"/><path d="" fill="none" stroke-width="1.5" stroke-linecap="round"/><path d="" fill="none" stroke-width="1.5" stroke-linecap="round"/><path d="M1105.08307,531.4934l1.52479,2.13471" fill="none" stroke-width="1.5" stroke-linecap="round"/><path d="M923.52442,458.36528v-22.87189h83.25368v22.87189z" fill="#a6a6a6" stroke-width="1.5" stroke-linecap="butt"/><path d="M926.08476,460.92561v-22.87189h83.25369v22.87189z" fill="#a6a6a6" stroke-width="1.5" stroke-linecap="butt"/><path d="M926.26906,437.62811l-2.43967,-1.52479" fill="none" stroke-width="1.5" stroke-linecap="round"/><path d="M924.13434,458.06033l1.52479,2.13471" fill="none" stroke-width="1.5" stroke-linecap="round"/><path d="M767.11254,402.83217v-22.87189h83.25368v22.87189z" fill="#a6a6a6" stroke-width="1.5" stroke-linecap="butt"/><path d="M769.67288,405.3925v-22.87189h83.25369v22.87189z" fill="#a6a6a6" stroke-width="1.5" stroke-linecap="butt"/><path d="M767.41751,380.5702l2.43967,1.52479" fill="none" stroke-width="1.5" stroke-linecap="round"/><path d="M767.72246,402.52721l1.52479,2.13471" fill="none" stroke-width="1.5" stroke-linecap="round"/><path d="M517.28756,396.67279l-19.58812,-34.87751l102.8418,12.00562v22.87189z" fill="#a6a6a6" stroke-width="1.5" stroke-linecap="butt"/><path d="M519.8479,399.23312l-24,-34.87189c0,0 87.99005,9.8447 101.22679,11.32569c3.22983,0.36137 6.0269,0.67431 6.0269,0.67431v22.87189c0,0 -39.18404,0 -54.46972,0c-11.11175,0 -28.78397,0 -28.78397,0z" fill="#a6a6a6" stroke-width="1.5" stroke-linecap="butt"/><path d="M519.42227,398.50254l-1.52479,-2.13471" fill="none" stroke-width="1.5" stroke-linecap="round"/><path d="M267.29961,381.34842v-22.87189h83.25368v22.87189z" fill="#a6a6a6" stroke-width="1.5" stroke-linecap="butt"/><path d="M269.85995,383.90875v-22.87189h83.25369v22.87189z" fill="#a6a6a6" stroke-width="1.5" stroke-linecap="butt"/><path d="M268.7805,369.45749l-2.43967,-1.52479" fill="none" stroke-width="1.5" stroke-linecap="round"/><path d="M71.41844,352.91406v-22.87189h83.25368v22.87189z" fill="#a6a6a6" stroke-width="1.5" stroke-linecap="butt"/><path d="M73.97878,355.47439v-22.87189h83.25369v22.87189z" fill="#a6a6a6" stroke-width="1.5" stroke-linecap="butt"/><path d="M74.16308,332.17688l-2.43967,-1.52479" fill="none" stroke-width="1.5" stroke-linecap="round"/><path d="M72.02836,352.6091l1.52479,2.13471" fill="none" stroke-width="1.5" stroke-linecap="round"/></g></g></svg>