<svg version="1.1" xmlns="http://www.w3.org/2000/svg" xmlns:xlink="http://www.w3.org/1999/xlink" width="50.95652" height="53.27274" viewBox="0,0,50.95652,53.27274"><g transform="translate(-514.52174,-293.36364)"><g data-paper-data="{&quot;isPaintingLayer&quot;:true}" fill-rule="nonzero" stroke-linejoin="miter" stroke-miterlimit="10" stroke-dasharray="" stroke-dashoffset="0" style="mix-blend-mode: normal"><path d="M565.47826,320.00001c0,14.71085 -11.40701,26.63637 -25.47826,26.63637c-14.07125,0 -25.47826,-11.92551 -25.47826,-26.63637c0,-14.71085 11.40701,-26.63637 25.47826,-26.63637c14.07125,0 25.47826,11.92551 25.47826,26.63637z" fill="#00ff68" stroke="none" stroke-width="0" stroke-linecap="butt"/><path d="M525.7,306.4l-0.4,19.6" fill="none" stroke="#000000" stroke-width="0.5" stroke-linecap="round"/><path d="M520.5,307.2l-0.4,17" fill="none" stroke="#000000" stroke-width="0.5" stroke-linecap="round"/><path d="M525.7,343.25001c-0.25,0 -0.25,-0.25 -0.25,-0.25c0,-0.81651 0,-1.92102 0,-2.74915c-0.11573,-0.02331 -0.17361,-0.13905 -0.17361,-0.13905l-0.2197,-0.45436c-0.00423,-0.35246 -0.00669,-0.70495 -0.00669,-1.05744c0.00487,-1.12491 -0.44379,-3.56011 -1.7705,-3.93864c-0.84266,-0.24043 -2.713,0.8735 -2.94232,1.6177c0,0 -0.07906,0.23717 -0.31623,0.15811c-0.23717,-0.07905 -0.15811,-0.31622 -0.15811,-0.31622c0.34637,-0.98224 2.40425,-2.23942 3.54687,-1.94233c1.59081,0.41363 2.13521,3.06713 2.1403,4.42139c0,0.31419 -0.00194,0.6284 -0.00669,0.94256l0.1803,0.34564c0,0 0.013,0.02601 0.02127,0.06473c0.20512,0.02797 0.20512,0.24707 0.20512,0.24707c0,0.83333 0,1.66667 0,2.5v0.3c0,0 0,0.25 -0.25,0.25z" fill="#000000" stroke="none" stroke-width="0.5" stroke-linecap="butt"/><path d="M531.9,344.45003c-0.25,0 -0.25,-0.25 -0.25,-0.25v-0.3c0.018,-1.19076 0.25326,-5.15412 -1.09727,-5.65451c-0.35492,-0.00151 -2.65671,-0.7794 -2.85568,-0.39164c-0.36889,0.71894 0.45295,4.09904 0.45295,5.14614c0,0 0,0.25 -0.25,0.25c-0.25,0 -0.25,-0.25 -0.25,-0.25c0,-1.00525 -0.82969,-4.79304 -0.34705,-5.45385c0.58074,-0.79512 2.62379,0.21156 3.34433,0.20836c1.81796,0.75921 1.48267,4.47402 1.50272,6.14549v0.3c0,0 0,0.25 -0.25,0.25z" fill="#000000" stroke="none" stroke-width="0.5" stroke-linecap="butt"/><path d="M517.25,332.00001c0,-0.25 0.25,-0.25 0.25,-0.25h0.1c0.95854,0.00066 1.56411,-0.56052 2.54357,-0.74501c0.19624,-0.41701 0.94759,-0.65163 0.90706,-1.18727c-0.23821,-3.14857 -3.17668,-1.56772 -5.15063,-1.56772c0,0 -0.25,0 -0.25,-0.25c0,-0.25 0.25,-0.25 0.25,-0.25c2.12411,0 5.53846,-1.5374 5.64937,2.03228c0.02559,0.82388 -0.78083,1.02031 -1.09294,1.61273c-1.01329,0.29318 -1.82303,0.85431 -2.85643,0.85499h-0.1c0,0 -0.25,0 -0.25,-0.25z" fill="#000000" stroke="none" stroke-width="0.5" stroke-linecap="butt"/><path d="M531.70802,330.46133c0.13868,0.20801 -0.06934,0.34669 -0.06934,0.34669l-0.43867,0.24198c-0.93481,0 -1.97209,0.14708 -2.84728,-0.20451c-1.99752,0.00622 -2.38295,-2.15379 -1.16972,-3.36788c0.53977,-0.54015 3.38983,-0.70262 4.25636,-0.92015c0,0 0.24253,-0.06063 0.30317,0.1819c0.06064,0.24253 -0.1819,0.30317 -0.1819,0.30317c-0.61531,0.15315 -3.72193,0.4341 -4.01189,0.776c-0.86057,1.0147 -0.78604,2.53091 0.89852,2.53598c0.8502,0.33863 1.84466,0.19549 2.75273,0.19549l0.16132,-0.15802c0,0 0.20802,-0.13867 0.34669,0.06934z" fill="#000000" stroke="none" stroke-width="0.5" stroke-linecap="butt"/></g></g></svg>