<svg version="1.1" xmlns="http://www.w3.org/2000/svg" xmlns:xlink="http://www.w3.org/1999/xlink" width="1938.43844" height="1360.05201" viewBox="0,0,1938.43844,1360.05201"><defs><linearGradient x1="604.66216" y1="-348.34835" x2="604.66216" y2="824.60961" gradientUnits="userSpaceOnUse" id="color-1"><stop offset="0" stop-color="#4d004f"/><stop offset="1" stop-color="#000000"/></linearGradient></defs><g transform="translate(364.55706,348.34835)"><g data-paper-data="{&quot;isPaintingLayer&quot;:true}" fill-rule="nonzero" stroke="none" stroke-linecap="butt" stroke-linejoin="miter" stroke-miterlimit="10" stroke-dasharray="" stroke-dashoffset="0" style="mix-blend-mode: normal"><path d="M-364.55706,824.60961v-1172.95796h1938.43844v1172.95796z" fill="url(#color-1)" stroke-width="0"/><path d="M1055.93191,1011.58941c-2.42839,0.72524 -3.02246,-2.23934 -3.02246,-2.23934l-0.31923,-1.59303c-1.90292,-9.59709 -2.06098,-19.81546 -5.52935,-29.01764c-1.34336,-3.56416 -3.49627,-6.58433 -5.23414,-9.88458c-2.49617,-4.74029 -4.79806,-10.70863 -7.82339,-14.95519c-1.72246,-2.41775 -4.28101,-3.70889 -6.4088,-5.58495c-2.70226,-2.38256 -5.40453,-4.76512 -8.10679,-7.14767c-3.86957,-3.41176 -7.76125,-7.64022 -11.90553,-10.52437c-5.25551,-3.65749 -11.79406,-5.79542 -17.40832,-8.56559c-10.81659,-5.33707 -21.63318,-10.67415 -32.44977,-16.01122c-23.06419,-11.38023 -45.97568,-24.15443 -69.43054,-34.2614c-9.36026,-4.03345 -19.10147,-7.07111 -28.60167,-10.58955c-33.4927,-12.40416 -66.98539,-24.80833 -100.47809,-37.21249c-33.49263,-12.40414 -66.98676,-24.80225 -100.4802,-37.20315c-33.49981,-12.40325 -67.26155,-24.06122 -100.40741,-37.81023c-33.13927,-13.74628 -66.27854,-27.49256 -99.41781,-41.23884c-33.17538,-13.76126 -66.18105,-27.9038 -99.08408,-42.6078c-14.0859,-6.29483 -28.17179,-12.58966 -42.25769,-18.88449c-6.20988,-2.77513 -13.11495,-4.93807 -19.03357,-8.52551c-4.43981,-2.69109 -8.68655,-6.78688 -12.86119,-10.05909c-7.01236,-5.49649 -14.02471,-10.99299 -21.03707,-16.48948c-1.57219,-1.27555 -3.50103,-2.06348 -4.71658,-3.82665c-7.54454,-10.94344 2.96048,-20.78131 8.41773,-28.70116c6.47708,-9.39986 15.08808,-16.66023 22.85236,-24.45379c11.58638,-11.63006 23.17276,-23.26012 34.75915,-34.89018c26.5222,-26.62218 54.70861,-50.87782 82.23638,-75.92951c4.02826,-3.66592 7.98477,-7.73026 12.19108,-11.08235c9.14674,-7.28921 19.84729,-12.64516 29.53824,-18.81412c16.25608,-10.34811 32.51216,-20.69623 48.76824,-31.04434c31.05715,-19.77001 62.49626,-38.56406 93.90364,-57.4896c16.43102,-9.90105 32.75093,-19.83534 48.79722,-30.63916c5.65088,-3.80468 11.99704,-7.14113 17.29583,-11.6269c7.99195,-6.7657 15.18481,-15.91041 22.57533,-23.64386c2.3151,-2.42252 5.2929,-4.07833 7.04216,-7.12727c0.46229,-0.80577 0.13208,-1.9622 0.24841,-2.93564c0.24062,-2.01335 0.548,-4.01397 0.82199,-6.02095c0.69847,-5.11614 1.48564,-10.03388 1.60997,-15.20623c0.06809,-2.83244 0.85756,-3.45723 -1.90077,-5.44209c-1.25779,-0.90509 -2.79054,-1.05324 -4.16691,-1.64792c-0.01528,-0.0066 -9.3432,-4.33971 -9.38167,-4.35758c-13.96068,-6.48499 -28.42757,-11.07181 -42.77273,-16.1396c-33.39176,-11.79648 -67.1944,-22.39974 -100.31797,-35.26332c-14.29389,-5.55227 -28.58777,-11.10454 -42.88166,-16.65681c-8.12464,-3.15591 -16.64471,-5.40967 -23.84985,-11.03824c-4.11016,-3.21081 -8.80966,-6.18327 -12.61768,-9.90236c-1.8957,-1.85143 -5.01813,-3.09649 -5.35038,-6.03232c-0.24869,-2.19756 2.77379,-2.86741 4.18505,-4.26497c1.90881,-1.89028 3.92702,-3.60971 5.89379,-5.40927c7.94319,-6.23653 15.9757,-12.87364 24.66005,-17.51888c7.61081,-4.071 15.92819,-6.81523 23.77388,-10.16752c15.67343,-6.6969 31.42434,-13.13073 47.14179,-19.67206c32.43349,-13.49824 64.94247,-26.39373 96.88324,-41.55742c6.0511,-2.87272 12.62273,-5.21632 18.43464,-8.73851c8.75884,-5.30812 17.03003,-12.78042 25.36859,-19.03113c15.62314,-11.71133 31.24628,-23.42267 46.86942,-35.134c0,0 8.52171,-6.388 8.52171,-6.388c1.21913,-0.88919 2.7441,-1.30852 3.68814,-2.60372c2.00482,-2.75056 2.03596,-6.97965 3.57166,-10.14839c0.5413,-1.1169 1.65178,-1.7557 2.0951,-2.93521c0.20622,-0.54867 -0.81672,0.87572 -1.31069,0.84819c-1.66309,-0.0927 -3.26442,-0.80058 -4.89772,-1.19423c-4.90345,-1.18182 -9.81133,-2.3371 -14.71692,-3.50564c-16.35818,-3.8966 -32.71635,-7.7932 -49.07453,-11.6898c-19.63867,-4.67803 -39.37397,-8.95924 -58.94469,-14.04172c-14.00858,-3.638 -27.89626,-8.2553 -41.81587,-12.37491c-34.01472,-10.0669 -68.02944,-20.13381 -102.04416,-30.20071c-33.96864,-10.05768 -67.48991,-23.26815 -101.10213,-34.98548c-33.77007,-11.35844 -67.62017,-22.32149 -101.06169,-35.05237c-14.30396,-5.44539 -28.51628,-10.86005 -43.05403,-15.29698c-6.35776,-1.94039 -12.76428,-4.40558 -19.20482,-5.87161c-6.54043,-1.48877 -13.9664,-1.7981 -20.61271,-1.79205c0,0 -2.5,0 -2.5,-3.052c0,-3.052 2.5,-3.052 2.5,-3.052c6.92487,0.00588 14.60849,0.33811 21.42933,1.87402c6.57414,1.48036 13.11397,3.99209 19.60088,5.9719c14.63052,4.46524 28.93483,9.91143 43.32984,15.39148c33.39565,12.71342 67.20002,23.65917 100.9237,35.00249c33.55414,11.6966 67.01821,24.8986 100.92965,34.93044c34.01472,10.0669 68.02944,20.13381 102.04416,30.20071c13.88277,4.10871 27.73397,8.71838 41.7059,12.34397c19.53473,5.06907 39.23229,9.34454 58.83418,14.01381c17.99399,4.28626 35.98799,8.57252 53.98198,12.85878c4.81684,1.1474 10.02719,1.8225 14.72894,3.53613c1.64158,0.5983 4.24273,0.34196 4.77161,2.33125c0.72187,2.71521 -1.1867,5.5293 -1.96628,8.22061c-0.20243,0.69882 -4.17325,11.40692 -4.37896,11.69041c-1.26924,1.74905 -3.21304,2.54082 -4.83358,3.78428c0,0 -8.52171,6.388 -8.52171,6.388c-15.62314,11.71133 -31.24628,23.42267 -46.86942,35.134c-8.46807,6.34779 -16.86554,13.90555 -25.76168,19.29687c-5.9477,3.60448 -12.65384,6.02056 -18.84567,8.96009c-32.0067,15.19499 -64.58177,28.1199 -97.08207,41.64594c-15.70464,6.53599 -31.44279,12.96435 -47.10341,19.65587c-7.72468,3.30063 -15.92625,5.98922 -23.41903,9.99709c-8.38623,4.48578 -16.1381,10.92854 -23.81356,16.9407c-1.85261,1.69743 -3.36922,4.22649 -5.47145,5.31027c1.62287,0.56236 2.60437,1.82702 4.79957,3.54981c3.95375,3.1029 8.07162,7.26162 12.3215,9.70132c5.73592,3.29278 12.70387,4.90694 18.75237,7.2564c14.29389,5.55227 28.58777,11.10454 42.88166,16.65681c33.07984,12.85229 66.84275,23.43515 100.19182,35.21655c14.47716,5.11442 29.07147,9.75323 43.161,16.29807c3.10366,1.44171 6.19822,2.91297 9.31088,4.32544c1.75641,0.79703 3.76285,1.00862 5.28252,2.34697c7.05413,6.21245 3.57087,18.11208 2.39981,26.68988c-0.49986,3.66136 0.00858,7.83956 -1.64762,10.95242c-0.37262,0.70034 -7.31443,7.89549 -8.14297,8.76247c-7.52239,7.87143 -14.84381,17.13749 -22.98007,24.02534c-5.44108,4.60622 -11.92865,8.04968 -17.73037,11.95592c-16.11266,10.8485 -32.49997,20.82576 -48.99884,30.76769c-31.37429,18.9056 -62.78051,37.67928 -93.80493,57.42846c-16.25608,10.34811 -32.51216,20.69623 -48.76824,31.04434c-9.56443,6.08842 -20.17666,11.35842 -29.19146,18.57138c-4.09125,3.27351 -7.93863,7.23673 -11.8613,10.80656c-27.46403,24.99369 -55.58843,49.19004 -82.04918,75.75054c-11.58638,11.63006 -23.17276,23.26012 -34.75915,34.89018c-6.28133,6.30501 -13.36422,12.21583 -19.13966,19.19504c-3.43932,4.15618 -6.35006,9.31758 -9.48804,13.81869c-1.24,1.77865 -4.04895,4.52901 -3.70914,7.59319c0.43652,3.93622 2.93086,4.74252 5.30922,6.52337c7.01236,5.49649 14.02471,10.99299 21.03707,16.48948c4.01978,3.15082 8.10717,7.13641 12.38329,9.72828c5.75158,3.48618 12.49303,5.56338 18.52882,8.26071c14.0859,6.29483 28.17179,12.58966 42.25769,18.88449c32.8665,14.68767 65.83534,28.81435 98.97389,42.56033c33.13927,13.74628 66.27854,27.49256 99.41781,41.23884c33.09357,13.72732 66.80299,25.36475 100.24998,37.74845c33.49357,12.40094 66.98782,24.7991 100.48058,37.20329c33.4927,12.40416 66.98539,24.80833 100.47809,37.21249c9.57187,3.54498 19.38334,6.61078 28.81438,10.67473c23.52581,10.13755 46.50617,22.94357 69.63992,34.35812c10.81659,5.33707 21.63318,10.67415 32.44977,16.01122c5.80919,2.86635 12.50673,5.10672 17.95283,8.88215c4.32072,2.99528 8.38356,7.36431 12.41485,10.91866c4.69675,4.14107 11.3796,8.18852 15.21809,13.48325c3.25058,4.48379 5.74272,10.80718 8.39934,15.85216c0.23347,0.44336 5.47414,10.3783 5.57016,10.63304c3.6144,9.58911 3.82276,20.14816 5.84421,30.11948l0.31923,1.59303c0,0 0.59407,2.96458 -1.83432,3.68983z" fill="#4d004f" stroke-width="0.5"/></g></g></svg>