<svg version="1.1" xmlns="http://www.w3.org/2000/svg" xmlns:xlink="http://www.w3.org/1999/xlink" width="53.5" height="53.7801" viewBox="0,0,53.5,53.7801"><defs><radialGradient cx="540" cy="320" r="26.89005" gradientUnits="userSpaceOnUse" id="color-1"><stop offset="0" stop-color="#ffffff" stop-opacity="0"/><stop offset="1" stop-color="#ffffff"/></radialGradient></defs><g transform="translate(-513.25,-293.10995)"><g data-paper-data="{&quot;isPaintingLayer&quot;:true}" fill-rule="nonzero" stroke-linejoin="miter" stroke-miterlimit="10" stroke-dasharray="" stroke-dashoffset="0" style="mix-blend-mode: normal"><path d="M517.875,320c0,-11.59798 9.40202,-21 21,-21c11.59798,0 21,9.40202 21,21c0,11.59798 -9.40202,21 -21,21c-11.59798,0 -21,-9.40202 -21,-21z" fill="#000000" stroke="none" stroke-width="0.5" stroke-linecap="butt"/><path d="M530.375,307l-0.75,26" fill="none" stroke="#ffffff" stroke-width="2.5" stroke-linecap="round"/><path d="M543.625,308.5l1,25.5" fill="none" stroke="#ffffff" stroke-width="2.5" stroke-linecap="round"/><path d="M566.75,320c0,14.85097 -11.97638,26.89005 -26.75,26.89005c-14.77362,0 -26.75,-12.03909 -26.75,-26.89005c0,-14.85097 11.97638,-26.89005 26.75,-26.89005c14.77362,0 26.75,12.03909 26.75,26.89005z" fill="url(#color-1)" stroke="#ffffff" stroke-width="0" stroke-linecap="butt"/></g></g></svg>