<svg version="1.1" xmlns="http://www.w3.org/2000/svg" xmlns:xlink="http://www.w3.org/1999/xlink" width="1272.27027" height="596.67119" viewBox="0,0,1272.27027,596.67119"><g transform="translate(62.35134,-339.94444)"><g data-paper-data="{&quot;isPaintingLayer&quot;:true}" fill="#ffffff" fill-rule="nonzero" stroke-linecap="butt" stroke-linejoin="miter" stroke-miterlimit="10" stroke-dasharray="" stroke-dashoffset="0" style="mix-blend-mode: normal"><path d="M-61.35134,935.61563v-316.81682h487.871c-0.51752,2.64583 -0.85548,5.21609 -0.85899,7.51502c-0.0635,41.54149 -0.0688,83.08314 0,124.62462c0.07149,43.16537 9.26793,85.56302 18.80618,127.92776c0.27466,11.64319 0.49901,25.41845 0.71334,43.51512c0.05221,4.40789 0.17531,8.82037 0.31173,13.2343z" stroke="#000000" stroke-width="2"/><path d="M512.5912,935.61563h-0.88919c-0.06006,-16.34471 -0.25032,-32.68999 -0.00528,-49.03233c0.08253,-5.50393 0.18775,-10.96598 0.30889,-16.39414c1.0456,21.8044 1.31517,43.61995 0.58558,65.42648z" stroke="#000000" stroke-width="2"/><path d="M1208.91893,618.79881v316.81682h-423.31053c-0.58004,-2.87788 -1.22579,-5.75083 -1.59882,-8.5711c-1.38343,-10.45945 -7.53983,-27.87973 -9.06701,-38.43609c-0.57918,-4.0035 0.55634,-8.0831 -0.00918,-12.08781c-0.74051,-5.24391 -2.59392,-10.35355 -3.89088,-15.53033c-3.02399,-11.87727 -6.23315,-23.75298 -9.42718,-35.63748c0,-41.17416 0,-82.34833 0,-123.52249c0,-8.47518 -1.62994,-17.02858 -0.16438,-25.4252c0.82107,-4.70415 4.12629,-8.93645 5.73429,-13.51351c0.26093,-0.74272 -0.35304,-1.54945 -0.17617,-2.3073c0.51384,-2.20161 3.14729,-3.83152 3.82286,-6.00601c0.53396,-1.71865 0.2668,-3.53239 0.34054,-5.30053c0.28026,-6.71932 0.5416,-13.43928 0.88366,-20.15684c0.17521,-3.44093 0.36668,-6.8814 0.54913,-10.32213z" stroke="#000000" stroke-width="2"/><path d="" stroke="#000000" stroke-width="2"/><path d="M157.61788,702.8904c0,-0.13807 0.11193,-0.25 0.25,-0.25c0.13807,0 0.25,0.11193 0.25,0.25c0,0.13807 -0.11193,0.25 -0.25,0.25c-0.13807,0 -0.25,-0.11193 -0.25,-0.25z" stroke="none" stroke-width="0.5"/><path d="" stroke="none" stroke-width="0.5"/><path d="M465.00601,548.67718v-22.52252h147.14715v22.52252z" stroke="#000000" stroke-width="2"/><path d="M780.81685,534.15766v-22.52252h147.14714v22.52252z" stroke="#000000" stroke-width="2"/><path d="M605.13515,425.52703v-22.52252h147.14714v22.52252z" stroke="#000000" stroke-width="2"/><path d="M376.40241,378.99249v-22.52252h147.14714v22.52252z" stroke="#000000" stroke-width="2"/><path d="M94.61562,380.98949v-22.52252h147.14714v22.52252z" stroke="#000000" stroke-width="2"/><path d="M-53.53753,363.46696v-22.52252h147.14714v22.52252z" stroke="#000000" stroke-width="2"/></g></g></svg>