<svg version="1.1" xmlns="http://www.w3.org/2000/svg" xmlns:xlink="http://www.w3.org/1999/xlink" width="1857.61862" height="1106.11787" viewBox="0,0,1857.61862,1106.11787"><defs><linearGradient x1="595.87838" y1="-189.0015" x2="595.87838" y2="830.51802" gradientUnits="userSpaceOnUse" id="color-1"><stop offset="0" stop-color="#00d4e8"/><stop offset="1" stop-color="#c8fff3"/></linearGradient></defs><g transform="translate(247.70195,189.0015)"><g data-paper-data="{&quot;isPaintingLayer&quot;:true}" fill-rule="nonzero" stroke-linecap="butt" stroke-linejoin="miter" stroke-miterlimit="10" stroke-dasharray="" stroke-dashoffset="0" style="mix-blend-mode: normal"><path d="M-204.42192,830.51802v-1019.51952h1600.6006v1019.51952z" fill="url(#color-1)" stroke="none" stroke-width="0"/><path d="M1609.16667,520.72072c0,218.50906 -221.50477,395.64565 -494.74474,395.64565c-273.23998,0 -843.09309,-345.30476 -843.09309,-563.81381c0,-129.04796 475.15643,44.62266 594.70275,-27.59875c82.87419,-50.06671 136.52153,-199.87873 248.39035,-199.87873c273.23998,0 494.74474,177.13659 494.74474,395.64565z" fill="#e8e8e8" stroke="#000000" stroke-width="1.5"/><path d="M1201.997,705.40541c0,191.97285 -791.6666,210.96096 -1025.51997,210.96096c-233.85337,0 -423.42898,-155.62475 -423.42898,-347.5976c0,-191.97285 189.57561,-347.5976 423.42898,-347.5976c78.55433,0 196.27999,217.48571 342.29926,281.95155c127.9224,56.47628 559.5113,-228.72829 594.9257,-184.94583c44.50314,55.0188 88.29501,316.23583 88.29501,387.22851z" fill="#ffffff" stroke="#000000" stroke-width="1.5"/><path d="M-41.50601,802.49553v-171.17117h1155.87463v171.17117z" fill="#ff0000" stroke="none" stroke-width="0"/><path d="M865.92342,15.93844c0,26.12158 99.49228,47.2973 222.22222,47.2973c122.72994,0 222.22222,-21.17572 222.22222,-47.2973c0,-26.12158 -99.49228,-47.2973 -222.22222,-47.2973c-122.72994,0 -222.22222,21.17572 -222.22222,47.2973z" fill="#ffffff" stroke="#000000" stroke-width="1.5"/><path d="M-41.98949,76.494c0,26.12158 99.49228,47.2973 222.22222,47.2973c122.72994,0 222.22222,-21.17572 222.22222,-47.2973c0,-26.12157 -99.49228,-47.2973 -222.22222,-47.2973c-122.72995,0 -222.22222,21.17572 -222.22222,47.2973z" fill="#ffffff" stroke="#000000" stroke-width="1.5"/><path d="M482.53003,150.56306c0,26.12158 99.49228,47.2973 222.22222,47.2973c122.72995,0 222.22222,-21.17572 222.22222,-47.2973c0,-26.12158 -99.49228,-47.2973 -222.22222,-47.2973c-122.72995,0 -222.22222,21.17573 -222.22222,47.2973z" fill="#ffffff" stroke="#000000" stroke-width="1.5"/></g></g></svg>