<svg version="1.1" xmlns="http://www.w3.org/2000/svg" xmlns:xlink="http://www.w3.org/1999/xlink" width="1812.15014" height="654.05028" viewBox="0,0,1812.15014,654.05028"><g transform="translate(292.86933,-354.7568)"><g data-paper-data="{&quot;isPaintingLayer&quot;:true}" fill-rule="nonzero" stroke-linejoin="miter" stroke-miterlimit="10" stroke-dasharray="" stroke-dashoffset="0" style="mix-blend-mode: normal"><path d="" fill="#00a043" stroke="#00a043" stroke-width="5" stroke-linecap="round"/><path d="" fill="#00a043" stroke="#00a043" stroke-width="5" stroke-linecap="round"/><path d="" fill="#00a043" stroke="#00a043" stroke-width="5" stroke-linecap="round"/><path d="" fill="#00a043" stroke="#00a043" stroke-width="5" stroke-linecap="round"/><path d="" fill="#00a043" stroke="#00a043" stroke-width="5" stroke-linecap="round"/><path d="" fill="#00a043" stroke="#00a043" stroke-width="5" stroke-linecap="round"/><path d="M232.85819,636.92604l-244.17197,0.86077" fill="#00a043" stroke="#00a043" stroke-width="5" stroke-linecap="round"/><path d="" fill="#00a043" stroke="#00a043" stroke-width="5" stroke-linecap="round"/><path d="" fill="#00a043" stroke="#00a043" stroke-width="5" stroke-linecap="round"/><path d="" fill="#00a043" stroke="#00a043" stroke-width="5" stroke-linecap="round"/><path d="" fill="#00a043" stroke="#00a043" stroke-width="5" stroke-linecap="round"/><path d="" fill="#00a043" stroke="#00a043" stroke-width="5" stroke-linecap="round"/><path d="" fill="#00a043" stroke="#00a043" stroke-width="5" stroke-linecap="round"/><path d="" fill="#00a043" stroke="#00a043" stroke-width="5" stroke-linecap="round"/><path d="" fill="#00a043" stroke="#00a043" stroke-width="5" stroke-linecap="round"/><path d="M1266.464,633.2823l-186.16379,0.65628" fill="#00a043" stroke="#00a043" stroke-width="5" stroke-linecap="round"/><path d="M405.59764,591.24024h-133.63363" data-paper-data="{&quot;index&quot;:null}" fill="#00a043" stroke="#00a043" stroke-width="5" stroke-linecap="round"/><path d="M606.27631,538.6877h-138.13814" data-paper-data="{&quot;index&quot;:null}" fill="#00a043" stroke="#19ff00" stroke-width="5" stroke-linecap="round"/><path d="M269.71324,594.9287v-7.50751h150.15015v7.50751z" data-paper-data="{&quot;index&quot;:null}" fill="#0d8200" stroke="#0d8200" stroke-width="5" stroke-linecap="butt"/><path d="M388.83489,590.4242c0,-2.5 2.5,-2.5 2.5,-2.5h4.00901c5.50479,0 11.01191,-0.04555 16.51652,0c1.8582,0.01538 3.8479,-0.62043 5.57438,0.06688c0.17924,0.07135 0.35286,0.15215 0.52161,0.24112l0.02204,-0.04407l2.95457,1.47728c0.84562,0.40086 1.43041,1.26228 1.43041,2.26029c0,1.1246 -0.74256,2.07577 -1.76412,2.38994l-4.30428,1.43475c-1.12157,0.53714 -2.24315,1.07428 -3.36473,1.61143l-0.57438,-0.17763v0.24451h-3.00301c-1.38071,0 -2.5,-1.11929 -2.5,-2.5c0,-0.04334 0.0011,-0.08642 0.00328,-0.12921c-3.73663,0.28176 -7.77081,-0.34204 -11.35685,-0.36597l-2.67029,-0.00784c0,0 -1.90072,-0.00558 -2.38264,-1.66433c-0.71857,-0.24188 -1.61152,-0.84304 -1.61152,-2.33716z" data-paper-data="{&quot;index&quot;:null}" fill="#0d8200" stroke="none" stroke-width="0.5" stroke-linecap="butt"/><path d="M594.29133,539.1832h-133.63363" data-paper-data="{&quot;index&quot;:null}" fill="#00a043" stroke="#19ff00" stroke-width="5" stroke-linecap="round"/><path d="M458.40695,542.87164v-7.50751h150.15015v7.50751z" data-paper-data="{&quot;index&quot;:null}" fill="#0d8200" stroke="#0d8200" stroke-width="5" stroke-linecap="butt"/><path d="M577.52859,538.36713c0,-2.5 2.5,-2.5 2.5,-2.5h4.009c5.50479,0 11.01192,-0.04555 16.51652,0c1.8582,0.01537 3.8479,-0.62044 5.57438,0.06687c0.17924,0.07136 0.35286,0.15217 0.52161,0.24113l0.02204,-0.04407l2.95457,1.47728c0.84561,0.40086 1.4304,1.26229 1.4304,2.26029c0,1.1246 -0.74256,2.07577 -1.76412,2.38994l-4.30428,1.43475c-1.12157,0.53715 -2.24315,1.07428 -3.36473,1.61143l-0.57438,-0.17762v0.24451h-3.00301c-1.38071,0 -2.5,-1.11929 -2.5,-2.5c0,-0.04334 0.0011,-0.08641 0.00328,-0.12921c-3.73663,0.28175 -7.77081,-0.34204 -11.35685,-0.36597l-2.67029,-0.00784c0,0 -1.90071,-0.00558 -2.38264,-1.66433c-0.71856,-0.24188 -1.61152,-0.84304 -1.61152,-2.33716z" data-paper-data="{&quot;index&quot;:null}" fill="#0d8200" stroke="none" stroke-width="0.5" stroke-linecap="butt"/><path d="M1079.20452,637.45573h420.07629v351.35135h-544.71324" fill="none" stroke="#0d7d00" stroke-width="40" stroke-linecap="butt"/><path d="M901.20535,988.80708h-892.91552v-351.35135h224.51227" fill="none" stroke="#0c7d00" stroke-width="40" stroke-linecap="butt"/><path d="M1079.44694,636.81684h67.0846v36.03604h-109.06675" fill="none" stroke="#0d7d00" stroke-width="40" stroke-linecap="butt"/><path d="M234.23579,672.85288h-504.91522v-36.03604h503.55061" fill="none" stroke="#0d8200" stroke-width="40" stroke-linecap="butt"/><path d="M787.47451,509.15316h-133.63363" data-paper-data="{&quot;index&quot;:null}" fill="#00a043" stroke="#00a043" stroke-width="5" stroke-linecap="round"/><path d="M988.1532,456.60062h-138.13814" data-paper-data="{&quot;index&quot;:null}" fill="#00a043" stroke="#19ff00" stroke-width="5" stroke-linecap="round"/><path d="M651.59012,512.84161v-7.50751h150.15015v7.50751z" data-paper-data="{&quot;index&quot;:null}" fill="#0d8200" stroke="#0d8200" stroke-width="5" stroke-linecap="butt"/><path d="M770.71177,508.33711c0,-2.5 2.5,-2.5 2.5,-2.5h4.00901c5.50479,0 11.01191,-0.04555 16.51652,0c1.8582,0.01538 3.8479,-0.62043 5.57438,0.06688c0.17924,0.07135 0.35286,0.15215 0.52161,0.24112l0.02204,-0.04407l2.95457,1.47728c0.84562,0.40086 1.43041,1.26228 1.43041,2.26029c0,1.1246 -0.74256,2.07577 -1.76412,2.38994l-4.30428,1.43475c-1.12157,0.53714 -2.24315,1.07428 -3.36473,1.61143l-0.57438,-0.17763v0.24451h-3.00301c-1.38071,0 -2.5,-1.11929 -2.5,-2.5c0,-0.04334 0.0011,-0.08642 0.00328,-0.12921c-3.73663,0.28176 -7.77081,-0.34204 -11.35685,-0.36597l-2.67029,-0.00784c0,0 -1.90072,-0.00558 -2.38264,-1.66433c-0.71857,-0.24188 -1.61152,-0.84304 -1.61152,-2.33716z" data-paper-data="{&quot;index&quot;:null}" fill="#0d8200" stroke="none" stroke-width="0.5" stroke-linecap="butt"/><path d="M976.1682,457.09611h-133.63363" data-paper-data="{&quot;index&quot;:null}" fill="#00a043" stroke="#19ff00" stroke-width="5" stroke-linecap="round"/><path d="M840.28382,460.78456v-7.50751h150.15015v7.50751z" data-paper-data="{&quot;index&quot;:null}" fill="#0d8200" stroke="#0d8200" stroke-width="5" stroke-linecap="butt"/><path d="M959.40546,456.28005c0,-2.5 2.5,-2.5 2.5,-2.5h4.009c5.50479,0 11.01192,-0.04555 16.51652,0c1.8582,0.01537 3.8479,-0.62044 5.57438,0.06687c0.17924,0.07136 0.35286,0.15217 0.52161,0.24113l0.02204,-0.04407l2.95457,1.47728c0.84561,0.40086 1.4304,1.26229 1.4304,2.26029c0,1.1246 -0.74256,2.07577 -1.76412,2.38994l-4.30428,1.43475c-1.12157,0.53715 -2.24315,1.07428 -3.36473,1.61143l-0.57438,-0.17762v0.24451h-3.00301c-1.38071,0 -2.5,-1.11929 -2.5,-2.5c0,-0.04334 0.0011,-0.08641 0.00328,-0.12921c-3.73663,0.28175 -7.77081,-0.34204 -11.35685,-0.36597l-2.67029,-0.00784c0,0 -1.90071,-0.00558 -2.38264,-1.66433c-0.71856,-0.24188 -1.61152,-0.84304 -1.61152,-2.33716z" data-paper-data="{&quot;index&quot;:null}" fill="#0d8200" stroke="none" stroke-width="0.5" stroke-linecap="butt"/><path d="M-290.36933,381.18996v-7.50751h1066.7545v7.50751z" data-paper-data="{&quot;index&quot;:null}" fill="#0d8200" stroke="#0d8200" stroke-width="5" stroke-linecap="butt"/><path d="M4.56882,625.86083c-3.74626,-0.16758 -3.57867,-3.91383 -3.57867,-3.91383l0.0149,-0.333c0.15734,-3.5173 -0.40118,-10.57831 2.73308,-12.88172c1.9043,-1.39949 4.66008,-0.81812 7.10398,0.34933c0.65311,-1.98507 2.03507,-3.57384 4.96503,-4.17183c1.82294,-0.37205 3.72233,0.43435 5.31805,1.81915c0.57148,-0.165 1.23139,-0.2463 1.99385,-0.22514c0.64652,0.01795 1.2217,0.25275 1.74107,0.62555c0.61916,-0.26863 1.26671,-0.43504 1.92194,-0.46169c0.61611,-0.02506 1.22621,0.11643 1.81644,0.38826c0.09099,-0.07912 0.18556,-0.15499 0.28392,-0.22737c1.67348,-1.23139 4.24766,-0.83999 6.22939,-0.21576c0.90272,0.28436 1.62001,0.9159 2.2847,1.62964c1.73071,-0.45177 3.73847,0.81369 5.28134,2.23147c1.41893,0.31771 2.921,0.99605 4.13341,1.87641c1.36981,-1.53193 2.96293,-2.30406 4.62307,-2.2598c3.67447,-4.86162 6.71338,-2.01493 10.1143,-0.02505c1.22972,0.71951 2.59091,1.28087 3.74967,2.0988c0.6498,-0.4526 1.44754,-0.70381 2.29934,-0.6678c0.19735,-1.01568 0.57974,-1.93534 1.31503,-2.67187c4.4755,-4.48305 6.89041,-0.91953 8.28072,2.13014c0.05831,-0.03192 0.1176,-0.06234 0.17789,-0.0912c-0.07613,-2.51407 1.32541,-4.51268 6.17528,-4.9779c1.72594,-0.16556 2.6794,2.20471 3.94889,3.38568c2.54483,2.36738 4.87847,5.32965 7.20458,7.87361c0,0 2.5305,2.7675 -0.23699,5.298c-2.16334,1.97809 -4.18187,0.71884 -4.96008,0.07477c-0.37247,1.76377 -1.97641,3.05006 -3.83629,2.96686c-0.83854,-0.03751 -1.60041,-0.34765 -2.20386,-0.841l-3.51136,-2.80195l0.00429,-0.00538c-0.0086,-0.00395 -0.01719,-0.00794 -0.02578,-0.0119c-0.04811,-0.02225 -0.09554,-0.04445 -0.14231,-0.06661c-0.49421,1.58737 -2.00935,2.70664 -3.7482,2.62886c-0.39265,-0.01757 -0.76848,-0.09491 -1.11911,-0.22284c-0.57783,1.4352 -2.01381,2.41837 -3.64717,2.3453c-0.71803,-0.03212 -1.37983,-0.26414 -1.93409,-0.63991c-0.7227,0.90943 -1.85642,1.47134 -3.10559,1.41546c-1.84182,-0.08239 -3.31374,-1.48003 -3.54949,-3.24551c-0.46868,0.35852 -1.62471,0.57924 -3.00512,0.70295c-0.59575,0.34132 -1.29225,0.52322 -2.02892,0.49026c-0.12005,-0.00537 -0.23852,-0.01633 -0.35518,-0.03261c-0.32836,1.41681 -0.64589,2.62123 -0.78559,3.40244l-4.52569,-3.84787c-0.14178,0.50269 -0.38516,0.96094 -0.70571,1.35239c0.03931,0.24695 0.05438,0.50153 0.04277,0.76111c-0.09255,2.06901 -1.84483,3.67123 -3.91383,3.57868c-0.37125,-0.01661 -0.72747,-0.08665 -1.06157,-0.20238l-3.53654,-1.13657l0.00005,-0.00017c-1.22922,-0.41594 -2.47926,-0.8565 -3.66503,-1.3664c-1.10888,-0.06192 -2.08042,-0.60091 -2.72379,-1.40828c-1.47009,-0.93625 -2.66528,-2.09025 -3.33435,-3.59412c-0.67198,1.19341 -1.97562,1.97394 -3.43735,1.90855c-0.61321,-0.02743 -1.18541,-0.20066 -1.68465,-0.48471c-0.70578,0.63433 -1.65125,1.00281 -2.67415,0.95706c-1.40973,-0.06306 -2.60277,-0.89665 -3.19065,-2.07595c-0.43608,0.15141 -0.90762,0.2243 -1.39687,0.20241c-1.4837,-0.06637 -2.72737,-0.98625 -3.27814,-2.26438c-0.49787,1.58138 -2.00994,2.69517 -3.74466,2.61757c-1.92861,-0.08627 -3.45165,-1.61467 -3.57449,-3.49746l-0.20987,-2.62931l0.23938,-0.01911c-0.1011,-0.10284 -0.20566,-0.20281 -0.31402,-0.29961c-0.2646,-0.23635 -0.59412,-0.39043 -0.93065,-0.53366c0.20065,1.80577 -0.3527,4.45522 -0.3918,5.32928l-0.0149,0.333c0,0 -0.16758,3.74625 -3.91384,3.57867z" fill="#14c700" stroke="none" stroke-width="0.5" stroke-linecap="butt"/><path d="M81.64089,621.85183c-3.74626,-0.16758 -3.57867,-3.91383 -3.57867,-3.91383l0.0149,-0.333c0.15734,-3.51729 -0.40118,-10.57831 2.73309,-12.88172c1.9043,-1.39949 4.66008,-0.81812 7.10398,0.34933c0.65311,-1.98507 2.03507,-3.57384 4.96504,-4.17183c1.82294,-0.37204 3.72233,0.43435 5.31805,1.81915c0.57148,-0.165 1.23139,-0.24631 1.99385,-0.22514c0.64652,0.01795 1.2217,0.25275 1.74107,0.62555c0.61916,-0.26863 1.26671,-0.43504 1.92194,-0.46169c0.61611,-0.02505 1.2262,0.11643 1.81644,0.38826c0.09099,-0.07912 0.18556,-0.15499 0.28392,-0.22737c1.67348,-1.23139 4.24766,-0.83999 6.22938,-0.21576c0.90273,0.28436 1.62001,0.91589 2.28469,1.62964c1.73071,-0.45177 3.73847,0.81369 5.28134,2.23147c1.41893,0.31771 2.921,0.99604 4.13341,1.8764c1.36982,-1.53193 2.96293,-2.30407 4.62307,-2.2598c3.67448,-4.86163 6.71338,-2.01493 10.1143,-0.02505c1.22971,0.71951 2.59091,1.28086 3.74967,2.09879c0.64981,-0.4526 1.44754,-0.70381 2.29934,-0.6678c0.19735,-1.01567 0.57974,-1.93533 1.31504,-2.67187c4.4755,-4.48305 6.89041,-0.91953 8.28071,2.13013c0.05831,-0.03192 0.1176,-0.06234 0.1779,-0.0912c-0.07613,-2.51406 1.32541,-4.51269 6.17528,-4.9779c1.72595,-0.16556 2.6794,2.20471 3.94889,3.38568c2.54484,2.36738 4.87847,5.32965 7.20458,7.87361c0,0 2.5305,2.7675 -0.237,5.298c-2.16334,1.97808 -4.18187,0.71884 -4.96008,0.07477c-0.37247,1.76377 -1.97642,3.05007 -3.83628,2.96686c-0.83854,-0.03751 -1.60041,-0.34765 -2.20386,-0.841l-3.51137,-2.80194l0.00429,-0.00538c-0.0086,-0.00396 -0.01718,-0.00793 -0.02578,-0.0119c-0.04811,-0.02224 -0.09555,-0.04445 -0.14231,-0.06662c-0.49421,1.58737 -2.00935,2.70664 -3.7482,2.62886c-0.39265,-0.01756 -0.76848,-0.09491 -1.11911,-0.22284c-0.57783,1.4352 -2.01381,2.41837 -3.64717,2.3453c-0.71803,-0.03212 -1.37983,-0.26414 -1.9341,-0.6399c-0.7227,0.90944 -1.85642,1.47134 -3.10559,1.41546c-1.84181,-0.08239 -3.31374,-1.48003 -3.54949,-3.24551c-0.46868,0.35852 -1.62471,0.57924 -3.00511,0.70295c-0.59575,0.34132 -1.29226,0.52322 -2.02892,0.49027c-0.12005,-0.00537 -0.23852,-0.01633 -0.35519,-0.03261c-0.32837,1.41681 -0.64589,2.62123 -0.78559,3.40243l-4.5257,-3.84788c-0.14178,0.50269 -0.38516,0.96094 -0.7057,1.3524c0.03931,0.24695 0.05438,0.50153 0.04276,0.76111c-0.09255,2.069 -1.84483,3.67123 -3.91383,3.57868c-0.37126,-0.01661 -0.72747,-0.08665 -1.06157,-0.20238l-3.53654,-1.13657l0.00005,-0.00018c-1.22921,-0.41594 -2.47926,-0.85649 -3.66503,-1.3664c-1.10888,-0.06192 -2.08041,-0.60091 -2.72379,-1.40828c-1.47009,-0.93625 -2.66528,-2.09025 -3.33435,-3.59412c-0.67198,1.19341 -1.97563,1.97393 -3.43735,1.90855c-0.6132,-0.02743 -1.18541,-0.20066 -1.68465,-0.48471c-0.70577,0.63433 -1.65125,1.00282 -2.67414,0.95707c-1.40973,-0.06306 -2.60277,-0.89666 -3.19066,-2.07596c-0.43608,0.15141 -0.90761,0.22429 -1.39687,0.20241c-1.4837,-0.06637 -2.72737,-0.98625 -3.27814,-2.26438c-0.49788,1.58138 -2.00994,2.69517 -3.74466,2.61757c-1.92861,-0.08627 -3.45164,-1.61468 -3.57449,-3.49746l-0.20987,-2.62932l0.23938,-0.01911c-0.10111,-0.10285 -0.20566,-0.20281 -0.31401,-0.29961c-0.2646,-0.23636 -0.59412,-0.39043 -0.93065,-0.53366c0.20064,1.80576 -0.3527,4.45523 -0.3918,5.32929l-0.01489,0.333c0,0 -0.16759,3.74625 -3.91384,3.57867z" fill="#14c700" stroke="none" stroke-width="0.5" stroke-linecap="butt"/><path d="M-145.08583,629.35933c-3.74625,-0.16758 -3.57867,-3.91383 -3.57867,-3.91383l0.01489,-0.333c0.15733,-3.51729 -0.40118,-10.57831 2.73308,-12.88173c1.9043,-1.39949 4.66008,-0.81812 7.10398,0.34934c0.65311,-1.98507 2.03507,-3.57384 4.96504,-4.17183c1.82294,-0.37204 3.72233,0.43434 5.31805,1.81914c0.57148,-0.165 1.23139,-0.24631 1.99385,-0.22514c0.64652,0.01795 1.2217,0.25275 1.74107,0.62555c0.61916,-0.26863 1.26671,-0.43504 1.92194,-0.46169c0.61611,-0.02505 1.2262,0.11644 1.81644,0.38827c0.091,-0.07912 0.18557,-0.15499 0.28392,-0.22737c1.67348,-1.23139 4.24767,-0.83999 6.22939,-0.21576c0.90273,0.28436 1.62,0.91589 2.28469,1.62964c1.73071,-0.45177 3.73847,0.81369 5.28134,2.23147c1.41893,0.31771 2.921,0.99604 4.13341,1.8764c1.36982,-1.53193 2.96292,-2.30406 4.62307,-2.2598c3.67448,-4.86163 6.71337,-2.01493 10.11429,-0.02506c1.22971,0.71951 2.59092,1.28086 3.74967,2.09879c0.64981,-0.4526 1.44754,-0.7038 2.29934,-0.6678c0.19735,-1.01567 0.57974,-1.93534 1.31503,-2.67187c4.4755,-4.48305 6.89041,-0.91953 8.28072,2.13013c0.05831,-0.03192 0.1176,-0.06234 0.17789,-0.09119c-0.07613,-2.51406 1.32541,-4.51269 6.17528,-4.9779c1.72594,-0.16556 2.6794,2.20471 3.94889,3.38568c2.54484,2.36738 4.87847,5.32965 7.20458,7.87361c0,0 2.5305,2.7675 -0.237,5.298c-2.16334,1.97808 -4.18187,0.71883 -4.96008,0.07477c-0.37247,1.76377 -1.97642,3.05007 -3.83629,2.96687c-0.83854,-0.03751 -1.6004,-0.34765 -2.20385,-0.841l-3.51136,-2.80195l0.00429,-0.00537c-0.0086,-0.00396 -0.01718,-0.00794 -0.02578,-0.01191c-0.04811,-0.02224 -0.09554,-0.04445 -0.1423,-0.06661c-0.49421,1.58737 -2.00935,2.70664 -3.7482,2.62886c-0.39265,-0.01756 -0.76848,-0.09491 -1.11911,-0.22284c-0.57783,1.4352 -2.01381,2.41836 -3.64717,2.3453c-0.71802,-0.03212 -1.37983,-0.26414 -1.93409,-0.6399c-0.7227,0.90944 -1.85642,1.47134 -3.1056,1.41547c-1.84181,-0.08239 -3.31374,-1.48003 -3.54949,-3.24552c-0.46868,0.35852 -1.6247,0.57924 -3.00511,0.70296c-0.59575,0.34132 -1.29226,0.52322 -2.02893,0.49026c-0.12004,-0.00537 -0.23852,-0.01633 -0.35518,-0.03261c-0.32837,1.41681 -0.64589,2.62123 -0.78559,3.40244l-4.52569,-3.84788c-0.14178,0.50269 -0.38516,0.96094 -0.7057,1.3524c0.03931,0.24695 0.05438,0.50153 0.04276,0.76111c-0.09255,2.069 -1.84483,3.67123 -3.91383,3.57868c-0.37126,-0.01661 -0.72747,-0.08665 -1.06157,-0.20238l-3.53654,-1.13658l0.00006,-0.00017c-1.22921,-0.41594 -2.47926,-0.85649 -3.66503,-1.3664c-1.10888,-0.06192 -2.08041,-0.60092 -2.72379,-1.40829c-1.47008,-0.93625 -2.66528,-2.09025 -3.33435,-3.59412c-0.67198,1.19341 -1.97562,1.97393 -3.43735,1.90855c-0.61321,-0.02743 -1.18541,-0.20066 -1.68465,-0.48471c-0.70578,0.63433 -1.65125,1.00282 -2.67415,0.95706c-1.40973,-0.06306 -2.60277,-0.89666 -3.19065,-2.07596c-0.43608,0.15141 -0.90761,0.2243 -1.39687,0.20241c-1.4837,-0.06637 -2.72737,-0.98625 -3.27814,-2.26438c-0.49788,1.58138 -2.00994,2.69517 -3.74466,2.61757c-1.92861,-0.08627 -3.45165,-1.61467 -3.57449,-3.49745l-0.20987,-2.62932l0.23938,-0.01911c-0.10111,-0.10285 -0.20567,-0.20281 -0.31402,-0.2996c-0.2646,-0.23636 -0.59412,-0.39044 -0.93064,-0.53366c0.20064,1.80576 -0.35271,4.45523 -0.39181,5.32929l-0.01489,0.333c0,0 -0.16759,3.74625 -3.91384,3.57867z" fill="#14c700" stroke="none" stroke-width="0.5" stroke-linecap="butt"/><path d="M-68.01376,625.35032c-3.74625,-0.16758 -3.57867,-3.91383 -3.57867,-3.91383l0.01489,-0.333c0.15733,-3.51729 -0.40118,-10.57831 2.73308,-12.88173c1.9043,-1.39949 4.66008,-0.81812 7.10398,0.34933c0.65311,-1.98507 2.03507,-3.57384 4.96504,-4.17182c1.82294,-0.37204 3.72233,0.43434 5.31805,1.81914c0.57148,-0.165 1.23139,-0.24631 1.99384,-0.22514c0.64652,0.01795 1.2217,0.25275 1.74107,0.62555c0.61916,-0.26863 1.2667,-0.43504 1.92193,-0.46169c0.61611,-0.02505 1.2262,0.11644 1.81644,0.38827c0.091,-0.07912 0.18557,-0.15499 0.28393,-0.22737c1.67348,-1.23139 4.24766,-0.83999 6.22938,-0.21576c0.90273,0.28436 1.62001,0.91589 2.28469,1.62964c1.73071,-0.45177 3.73847,0.81369 5.28134,2.23147c1.41893,0.31771 2.92099,0.99604 4.13341,1.8764c1.36982,-1.53193 2.96293,-2.30406 4.62307,-2.2598c3.67448,-4.86163 6.71338,-2.01493 10.1143,-0.02506c1.22971,0.71951 2.59091,1.28086 3.74967,2.09879c0.64981,-0.4526 1.44754,-0.7038 2.29934,-0.6678c0.19735,-1.01567 0.57974,-1.93534 1.31504,-2.67187c4.4755,-4.48305 6.89041,-0.91953 8.28071,2.13013c0.05831,-0.03192 0.1176,-0.06234 0.17789,-0.09119c-0.07613,-2.51406 1.32541,-4.51269 6.17528,-4.9779c1.72595,-0.16556 2.6794,2.20471 3.94889,3.38568c2.54484,2.36738 4.87846,5.32965 7.20458,7.87361c0,0 2.5305,2.7675 -0.237,5.298c-2.16334,1.97808 -4.18187,0.71883 -4.96008,0.07477c-0.37247,1.76377 -1.97641,3.05007 -3.83628,2.96686c-0.83854,-0.03751 -1.6004,-0.34764 -2.20385,-0.841l-3.51137,-2.80195l0.00429,-0.00537c-0.0086,-0.00396 -0.01718,-0.00794 -0.02578,-0.01191c-0.04811,-0.02224 -0.09554,-0.04445 -0.14231,-0.06661c-0.49421,1.58737 -2.00935,2.70664 -3.7482,2.62886c-0.39265,-0.01756 -0.76848,-0.09491 -1.11912,-0.22284c-0.57782,1.4352 -2.01381,2.41836 -3.64717,2.3453c-0.71803,-0.03212 -1.37983,-0.26414 -1.93409,-0.6399c-0.7227,0.90944 -1.85642,1.47134 -3.10559,1.41547c-1.84182,-0.08239 -3.31374,-1.48003 -3.54949,-3.24552c-0.46868,0.35852 -1.6247,0.57924 -3.00511,0.70296c-0.59575,0.34132 -1.29226,0.52322 -2.02893,0.49026c-0.12005,-0.00537 -0.23852,-0.01633 -0.35519,-0.03261c-0.32836,1.41681 -0.64589,2.62123 -0.78559,3.40243l-4.5257,-3.84787c-0.14178,0.50269 -0.38516,0.96094 -0.7057,1.3524c0.03931,0.24695 0.05438,0.50153 0.04277,0.76111c-0.09255,2.069 -1.84483,3.67123 -3.91384,3.57868c-0.37126,-0.01661 -0.72747,-0.08665 -1.06157,-0.20238l-3.53654,-1.13657l0.00005,-0.00018c-1.22921,-0.41594 -2.47926,-0.85649 -3.66503,-1.3664c-1.10888,-0.06192 -2.08041,-0.60091 -2.72379,-1.40828c-1.47008,-0.93625 -2.66528,-2.09025 -3.33435,-3.59412c-0.67198,1.19341 -1.97562,1.97393 -3.43735,1.90855c-0.6132,-0.02743 -1.18541,-0.20066 -1.68465,-0.48471c-0.70578,0.63433 -1.65125,1.00282 -2.67414,0.95706c-1.40973,-0.06306 -2.60277,-0.89666 -3.19066,-2.07596c-0.43608,0.15141 -0.90761,0.2243 -1.39687,0.20241c-1.4837,-0.06637 -2.72737,-0.98626 -3.27814,-2.26439c-0.49787,1.58138 -2.00994,2.69517 -3.74466,2.61757c-1.92861,-0.08627 -3.45164,-1.61467 -3.57449,-3.49745l-0.20987,-2.62932l0.23938,-0.01911c-0.10111,-0.10285 -0.20566,-0.20281 -0.31401,-0.2996c-0.2646,-0.23636 -0.59412,-0.39044 -0.93065,-0.53366c0.20064,1.80576 -0.3527,4.45523 -0.3918,5.32929l-0.0149,0.333c0,0 -0.16758,3.74625 -3.91384,3.57867z" fill="#14c700" stroke="none" stroke-width="0.5" stroke-linecap="butt"/><path d="M65.61987,626.85183c-3.74625,-0.16758 -3.57867,-3.91383 -3.57867,-3.91383l0.01489,-0.333c0.15733,-3.51729 -0.40118,-10.57831 2.73308,-12.88173c1.9043,-1.39949 4.66008,-0.81812 7.10398,0.34934c0.65311,-1.98507 2.03507,-3.57384 4.96504,-4.17183c1.82294,-0.37204 3.72233,0.43434 5.31805,1.81914c0.57148,-0.165 1.23139,-0.24631 1.99384,-0.22514c0.64652,0.01795 1.2217,0.25275 1.74107,0.62555c0.61916,-0.26863 1.26671,-0.43504 1.92193,-0.46169c0.61611,-0.02505 1.22621,0.11644 1.81644,0.38827c0.09099,-0.07912 0.18556,-0.15499 0.28392,-0.22737c1.67348,-1.23139 4.24766,-0.83999 6.22938,-0.21576c0.90273,0.28436 1.62001,0.91589 2.28469,1.62964c1.73071,-0.45177 3.73847,0.81369 5.28134,2.23147c1.41893,0.31771 2.921,0.99604 4.13342,1.8764c1.36981,-1.53193 2.96292,-2.30406 4.62307,-2.2598c3.67448,-4.86163 6.71338,-2.01493 10.1143,-0.02506c1.22971,0.71951 2.59091,1.28086 3.74967,2.09879c0.64981,-0.4526 1.44754,-0.7038 2.29935,-0.6678c0.19735,-1.01567 0.57974,-1.93534 1.31503,-2.67187c4.4755,-4.48305 6.89041,-0.91953 8.28072,2.13013c0.05831,-0.03192 0.1176,-0.06234 0.17789,-0.09119c-0.07613,-2.51406 1.32541,-4.51269 6.17528,-4.9779c1.72594,-0.16556 2.6794,2.20471 3.94889,3.38568c2.54483,2.36738 4.87847,5.32965 7.20457,7.87361c0,0 2.5305,2.7675 -0.23699,5.298c-2.16334,1.97808 -4.18187,0.71883 -4.96008,0.07477c-0.37247,1.76377 -1.97642,3.05007 -3.83629,2.96687c-0.83854,-0.03751 -1.6004,-0.34765 -2.20385,-0.841l-3.51137,-2.80195l0.0043,-0.00537c-0.0086,-0.00396 -0.01718,-0.00794 -0.02578,-0.01191c-0.04811,-0.02224 -0.09554,-0.04445 -0.14231,-0.06661c-0.49421,1.58737 -2.00935,2.70664 -3.7482,2.62886c-0.39265,-0.01756 -0.76848,-0.09491 -1.11911,-0.22284c-0.57783,1.4352 -2.01381,2.41836 -3.64717,2.3453c-0.71803,-0.03212 -1.37983,-0.26414 -1.9341,-0.6399c-0.7227,0.90944 -1.85642,1.47134 -3.10559,1.41547c-1.84181,-0.08239 -3.31374,-1.48003 -3.54949,-3.24552c-0.46868,0.35852 -1.6247,0.57924 -3.00511,0.70296c-0.59575,0.34132 -1.29226,0.52322 -2.02892,0.49026c-0.12005,-0.00537 -0.23852,-0.01633 -0.35519,-0.03261c-0.32836,1.41681 -0.64589,2.62123 -0.78559,3.40244l-4.52569,-3.84788c-0.14178,0.50269 -0.38516,0.96094 -0.7057,1.3524c0.03931,0.24695 0.05438,0.50153 0.04276,0.76111c-0.09255,2.069 -1.84483,3.67123 -3.91383,3.57868c-0.37126,-0.01661 -0.72747,-0.08665 -1.06157,-0.20238l-3.53654,-1.13658l0.00005,-0.00017c-1.22921,-0.41594 -2.47926,-0.85649 -3.66503,-1.3664c-1.10888,-0.06192 -2.08042,-0.60092 -2.72379,-1.40829c-1.47009,-0.93625 -2.66528,-2.09025 -3.33435,-3.59412c-0.67198,1.19341 -1.97563,1.97393 -3.43735,1.90855c-0.6132,-0.02743 -1.18541,-0.20066 -1.68465,-0.48471c-0.70578,0.63433 -1.65125,1.00282 -2.67415,0.95706c-1.40973,-0.06306 -2.60277,-0.89666 -3.19065,-2.07596c-0.43608,0.15141 -0.90762,0.2243 -1.39687,0.20241c-1.4837,-0.06637 -2.72737,-0.98625 -3.27814,-2.26438c-0.49788,1.58138 -2.00993,2.69517 -3.74466,2.61757c-1.92861,-0.08627 -3.45165,-1.61467 -3.57449,-3.49745l-0.20987,-2.62932l0.23938,-0.01911c-0.10111,-0.10285 -0.20566,-0.20281 -0.31402,-0.2996c-0.2646,-0.23636 -0.59412,-0.39044 -0.93064,-0.53366c0.20064,1.80576 -0.35271,4.45523 -0.39181,5.32929l-0.01489,0.333c0,0 -0.16759,3.74625 -3.91384,3.57867z" fill="#14c700" stroke="none" stroke-width="0.5" stroke-linecap="butt"/><path d="M142.69195,622.84282c-3.74626,-0.16758 -3.57867,-3.91383 -3.57867,-3.91383l0.01489,-0.333c0.15734,-3.51729 -0.40118,-10.57831 2.73309,-12.88173c1.9043,-1.39949 4.66008,-0.81812 7.10398,0.34933c0.65311,-1.98507 2.03507,-3.57384 4.96504,-4.17182c1.82294,-0.37204 3.72233,0.43434 5.31805,1.81914c0.57148,-0.165 1.23139,-0.24631 1.99384,-0.22514c0.64652,0.01795 1.2217,0.25275 1.74107,0.62555c0.61916,-0.26863 1.2667,-0.43504 1.92193,-0.46169c0.61611,-0.02505 1.2262,0.11644 1.81644,0.38827c0.091,-0.07912 0.18556,-0.15499 0.28393,-0.22737c1.67348,-1.23139 4.24766,-0.83999 6.22938,-0.21576c0.90273,0.28436 1.62001,0.91589 2.28469,1.62964c1.73071,-0.45177 3.73847,0.81369 5.28134,2.23147c1.41893,0.31771 2.92099,0.99604 4.13341,1.8764c1.36982,-1.53193 2.96293,-2.30406 4.62307,-2.2598c3.67448,-4.86163 6.71338,-2.01493 10.1143,-0.02506c1.22971,0.71951 2.59091,1.28086 3.74967,2.09879c0.6498,-0.4526 1.44753,-0.7038 2.29934,-0.6678c0.19735,-1.01567 0.57974,-1.93534 1.31504,-2.67187c4.4755,-4.48305 6.89041,-0.91953 8.28071,2.13013c0.05831,-0.03192 0.1176,-0.06234 0.1779,-0.09119c-0.07613,-2.51406 1.32541,-4.51269 6.17528,-4.9779c1.72594,-0.16556 2.6794,2.20471 3.94889,3.38568c2.54484,2.36738 4.87847,5.32965 7.20458,7.87361c0,0 2.5305,2.7675 -0.237,5.298c-2.16334,1.97808 -4.18187,0.71883 -4.96008,0.07477c-0.37247,1.76377 -1.97642,3.05007 -3.83629,2.96686c-0.83854,-0.03751 -1.6004,-0.34764 -2.20385,-0.841l-3.51137,-2.80195l0.00429,-0.00537c-0.0086,-0.00396 -0.01718,-0.00794 -0.02578,-0.01191c-0.04811,-0.02224 -0.09554,-0.04445 -0.14231,-0.06661c-0.49421,1.58737 -2.00935,2.70664 -3.7482,2.62886c-0.39265,-0.01756 -0.76848,-0.09491 -1.11911,-0.22284c-0.57782,1.4352 -2.01381,2.41836 -3.64717,2.3453c-0.71803,-0.03212 -1.37983,-0.26414 -1.93409,-0.6399c-0.7227,0.90944 -1.85642,1.47134 -3.10559,1.41547c-1.84181,-0.08239 -3.31374,-1.48003 -3.54949,-3.24552c-0.46868,0.35852 -1.6247,0.57924 -3.00511,0.70296c-0.59575,0.34132 -1.29226,0.52322 -2.02893,0.49026c-0.12005,-0.00537 -0.23852,-0.01633 -0.35519,-0.03261c-0.32836,1.41681 -0.64589,2.62123 -0.78559,3.40243l-4.5257,-3.84787c-0.14178,0.50269 -0.38516,0.96094 -0.7057,1.3524c0.03931,0.24695 0.05438,0.50153 0.04277,0.76111c-0.09255,2.069 -1.84483,3.67123 -3.91384,3.57868c-0.37126,-0.01661 -0.72747,-0.08665 -1.06157,-0.20238l-3.53654,-1.13657l0.00006,-0.00018c-1.22922,-0.41594 -2.47926,-0.85649 -3.66503,-1.3664c-1.10888,-0.06192 -2.08041,-0.60091 -2.72379,-1.40828c-1.47009,-0.93625 -2.66528,-2.09025 -3.33435,-3.59412c-0.67198,1.19341 -1.97562,1.97393 -3.43735,1.90855c-0.6132,-0.02743 -1.18541,-0.20066 -1.68465,-0.48471c-0.70577,0.63433 -1.65125,1.00282 -2.67414,0.95706c-1.40973,-0.06306 -2.60277,-0.89666 -3.19066,-2.07596c-0.43608,0.15141 -0.90761,0.2243 -1.39687,0.20241c-1.4837,-0.06637 -2.72737,-0.98626 -3.27814,-2.26439c-0.49787,1.58138 -2.00994,2.69517 -3.74466,2.61757c-1.92861,-0.08627 -3.45165,-1.61467 -3.57449,-3.49745l-0.20987,-2.62932l0.23938,-0.01911c-0.10111,-0.10285 -0.20566,-0.20281 -0.31401,-0.2996c-0.2646,-0.23636 -0.59412,-0.39044 -0.93065,-0.53366c0.20064,1.80576 -0.3527,4.45523 -0.3918,5.32929l-0.0149,0.333c0,0 -0.16758,3.74625 -3.91384,3.57867z" fill="#14c700" stroke="none" stroke-width="0.5" stroke-linecap="butt"/><path d="M607.87464,379.98898c-3.73907,-0.28617 -3.45289,-4.02523 -3.45289,-4.02523l0.02544,-0.33236c0.26868,-3.51055 -0.06587,-10.58571 3.13979,-12.78868c1.94768,-1.33846 4.68366,-0.67008 7.08935,0.57421c0.71567,-1.96338 2.14726,-3.50758 5.0947,-4.01244c1.83381,-0.31411 3.7067,0.55205 5.25775,1.9867c0.57642,-0.14681 1.23857,-0.20717 1.99998,-0.16186c0.64563,0.03842 1.21308,0.29132 1.72038,0.68039c0.62736,-0.24888 1.27985,-0.3947 1.9356,-0.40058c0.61659,-0.00552 1.2219,0.15522 1.80323,0.44561c0.09346,-0.0762 0.19038,-0.14903 0.29099,-0.21826c1.71165,-1.17775 4.27214,-0.70501 6.23309,-0.01831c0.89326,0.31281 1.59018,0.96676 2.23192,1.7012c1.74415,-0.39672 3.71082,0.93171 5.208,2.39766c1.40815,0.3625 2.88798,1.08808 4.0719,2.00641c1.41766,-1.48776 3.03443,-2.20905 4.69234,-2.11221c3.82664,-4.74278 6.77384,-1.80125 10.11001,0.29537c1.2063,0.7581 2.54904,1.3623 3.6813,2.21653c0.66382,-0.43179 1.46911,-0.6576 2.31935,-0.59462c0.22943,-1.00891 0.64075,-1.916 1.39901,-2.62887c4.61527,-4.33902 6.91608,-0.70079 8.20908,2.39139c0.0593,-0.03005 0.11952,-0.05858 0.18069,-0.08551c0.00355,-2.51521 1.4677,-4.46843 6.32988,-4.77978c1.73032,-0.1108 2.60821,2.28848 3.83965,3.50908c2.46856,2.44681 4.70718,5.48152 6.95153,8.09789c0,0 2.44156,2.84627 -0.40471,5.28783c-2.22492,1.90856 -4.20254,0.586 -4.95995,-0.0824c-0.42816,1.75109 -2.07205,2.98592 -3.92835,2.84385c-0.83693,-0.06406 -1.58859,-0.39817 -2.17611,-0.91039l-3.42084,-2.91177l0.00446,-0.00524c-0.00847,-0.00423 -0.01693,-0.00848 -0.02539,-0.01272c-0.04738,-0.02376 -0.09408,-0.04745 -0.14012,-0.07109c-0.54425,1.57092 -2.09409,2.64163 -3.8296,2.5088c-0.3919,-0.02999 -0.76509,-0.1192 -1.11149,-0.25818c-0.623,1.41617 -2.08941,2.35336 -3.71963,2.22858c-0.71665,-0.05485 -1.37077,-0.30772 -1.91285,-0.70085c-0.75115,0.88608 -1.9021,1.41179 -3.14888,1.31637c-1.83828,-0.1407 -3.26519,-1.58426 -3.44489,-3.35633c-0.4798,0.3435 -1.64224,0.52748 -3.02588,0.6074c-0.60626,0.32228 -1.30818,0.48202 -2.04344,0.42574c-0.11981,-0.00917 -0.23788,-0.02388 -0.35397,-0.04385c-0.37308,1.4057 -0.7286,2.59945 -0.89298,3.37584l-4.40153,-3.98931c-0.15763,0.49794 -0.41541,0.94826 -0.74819,1.32936c0.03147,0.24807 0.03846,0.50301 0.01863,0.76208c-0.15805,2.06503 -1.9602,3.61095 -4.02524,3.4529c-0.37054,-0.02836 -0.72436,-0.10965 -1.05463,-0.23591l-3.49876,-1.24804l0.00006,-0.00017c-1.21542,-0.45467 -2.45088,-0.93461 -3.6199,-1.48182c-1.10636,-0.09702 -2.06033,-0.66652 -2.67781,-1.49386c-1.43969,-0.98236 -2.59773,-2.17364 -3.21882,-3.69794c-0.70944,1.17152 -2.03717,1.91036 -3.49609,1.7987c-0.61203,-0.04684 -1.17846,-0.23811 -1.66845,-0.53783c-0.72552,0.61165 -1.68219,0.95001 -2.70312,0.87187c-1.40702,-0.10769 -2.57306,-0.97866 -3.12329,-2.17599c-0.44066,0.13752 -0.91426,0.19543 -1.40258,0.15806c-1.48085,-0.11333 -2.69476,-1.07216 -3.20476,-2.36709c-0.54772,1.56481 -2.09431,2.63014 -3.8257,2.49762c-1.92491,-0.14732 -3.39877,-1.72321 -3.46191,-3.60894l-0.12647,-2.63464l0.23987,-0.01152c-0.0978,-0.106 -0.19914,-0.20922 -0.30437,-0.3094c-0.25698,-0.24462 -0.58145,-0.40906 -0.91327,-0.56287c0.14334,1.81121 -0.49366,4.44182 -0.56043,5.3142l-0.02544,0.33236c0,0 -0.28618,3.73906 -4.02524,3.45289z" fill="#14c700" stroke="none" stroke-width="0.5" stroke-linecap="butt"/><path d="M685.03503,378.42354c-3.73907,-0.28617 -3.45289,-4.02523 -3.45289,-4.02523l0.02544,-0.33236c0.26868,-3.51055 -0.06587,-10.58571 3.13979,-12.78868c1.94768,-1.33846 4.68366,-0.67008 7.08935,0.57421c0.71567,-1.96338 2.14726,-3.50758 5.0947,-4.01244c1.83381,-0.31411 3.7067,0.55205 5.25775,1.9867c0.57642,-0.14681 1.23857,-0.20717 1.99998,-0.16186c0.64563,0.03842 1.21308,0.29132 1.72038,0.68039c0.62736,-0.24888 1.27985,-0.3947 1.9356,-0.40058c0.61659,-0.00552 1.2219,0.15522 1.80323,0.44561c0.09346,-0.0762 0.19038,-0.14903 0.29099,-0.21826c1.71165,-1.17775 4.27214,-0.70501 6.23309,-0.01831c0.89326,0.31281 1.59018,0.96676 2.23192,1.7012c1.74415,-0.39672 3.71082,0.93171 5.208,2.39766c1.40815,0.3625 2.88798,1.08808 4.07189,2.00641c1.41766,-1.48776 3.03443,-2.20905 4.69234,-2.11221c3.82664,-4.74278 6.77384,-1.80125 10.11002,0.29537c1.2063,0.7581 2.54904,1.3623 3.6813,2.21653c0.66382,-0.43179 1.4691,-0.6576 2.31934,-0.59462c0.22943,-1.00891 0.64076,-1.916 1.39902,-2.62887c4.61527,-4.33902 6.91608,-0.70079 8.20908,2.39139c0.0593,-0.03005 0.11952,-0.05858 0.18069,-0.08551c0.00355,-2.51521 1.4677,-4.46843 6.32988,-4.77978c1.73032,-0.1108 2.60821,2.28848 3.83965,3.50908c2.46856,2.44681 4.70718,5.48152 6.95153,8.09789c0,0 2.44156,2.84627 -0.40471,5.28783c-2.22492,1.90856 -4.20254,0.586 -4.95996,-0.0824c-0.42816,1.75109 -2.07205,2.98592 -3.92835,2.84385c-0.83693,-0.06406 -1.58859,-0.39817 -2.17611,-0.91039l-3.42084,-2.91177l0.00446,-0.00524c-0.00847,-0.00423 -0.01692,-0.00848 -0.02538,-0.01272c-0.04738,-0.02376 -0.09409,-0.04745 -0.14013,-0.07109c-0.54425,1.57092 -2.09408,2.64163 -3.82959,2.5088c-0.3919,-0.02999 -0.76509,-0.1192 -1.11149,-0.25818c-0.623,1.41617 -2.08941,2.35336 -3.71964,2.22858c-0.71665,-0.05485 -1.37077,-0.30772 -1.91285,-0.70085c-0.75115,0.88608 -1.9021,1.41179 -3.14888,1.31637c-1.83828,-0.1407 -3.26519,-1.58426 -3.44489,-3.35633c-0.4798,0.3435 -1.64224,0.52748 -3.02588,0.6074c-0.60626,0.32228 -1.30818,0.48202 -2.04344,0.42574c-0.11981,-0.00917 -0.23788,-0.02388 -0.35397,-0.04385c-0.37308,1.4057 -0.7286,2.59945 -0.89298,3.37584l-4.40153,-3.98931c-0.15763,0.49794 -0.41541,0.94826 -0.74819,1.32936c0.03147,0.24807 0.03846,0.50301 0.01863,0.76208c-0.15805,2.06503 -1.9602,3.61095 -4.02524,3.4529c-0.37054,-0.02836 -0.72436,-0.10965 -1.05463,-0.23591l-3.49876,-1.24804l0.00006,-0.00017c-1.21542,-0.45467 -2.45088,-0.93461 -3.6199,-1.48182c-1.10636,-0.09702 -2.06033,-0.66652 -2.67781,-1.49386c-1.43969,-0.98236 -2.59773,-2.17364 -3.21882,-3.69794c-0.70944,1.17152 -2.03717,1.91036 -3.49609,1.7987c-0.61203,-0.04684 -1.17846,-0.23811 -1.66845,-0.53783c-0.72552,0.61165 -1.68219,0.95001 -2.70312,0.87187c-1.40702,-0.10769 -2.57306,-0.97866 -3.12329,-2.17599c-0.44066,0.13752 -0.91426,0.19543 -1.40258,0.15806c-1.48085,-0.11333 -2.69476,-1.07216 -3.20476,-2.3671c-0.54772,1.56481 -2.09431,2.63015 -3.8257,2.49763c-1.92491,-0.14732 -3.39876,-1.72321 -3.4619,-3.60894l-0.12647,-2.63464l0.23987,-0.01152c-0.0978,-0.106 -0.19913,-0.20922 -0.30437,-0.3094c-0.25698,-0.24462 -0.58145,-0.40906 -0.91328,-0.56287c0.14334,1.81121 -0.49366,4.44182 -0.56043,5.3142l-0.02544,0.33236c0,0 -0.28618,3.73906 -4.02524,3.45289z" fill="#14c700" stroke="none" stroke-width="0.5" stroke-linecap="butt"/><path d="M444.70647,380.48448c-3.73906,-0.28618 -3.45289,-4.02523 -3.45289,-4.02523l0.02544,-0.33236c0.26868,-3.51054 -0.06587,-10.58571 3.13979,-12.78868c1.94768,-1.33846 4.68366,-0.67008 7.08935,0.57421c0.71566,-1.96339 2.14726,-3.50758 5.0947,-4.01245c1.83381,-0.31411 3.7067,0.55204 5.25775,1.9867c0.57642,-0.14682 1.23858,-0.20717 1.99998,-0.16186c0.64562,0.03842 1.21308,0.29132 1.72038,0.68039c0.62736,-0.24887 1.27985,-0.3947 1.9356,-0.40058c0.61659,-0.00552 1.2219,0.15523 1.80323,0.44562c0.09345,-0.0762 0.19038,-0.14903 0.29098,-0.21826c1.71165,-1.17775 4.27214,-0.70501 6.23309,-0.01831c0.89327,0.31282 1.59018,0.96675 2.23192,1.7012c1.74415,-0.39672 3.71082,0.93171 5.208,2.39766c1.40815,0.3625 2.88798,1.08808 4.0719,2.00641c1.41765,-1.48776 3.03442,-2.20905 4.69233,-2.11221c3.82664,-4.74278 6.77384,-1.80124 10.11002,0.29537c1.20631,0.7581 2.54904,1.3623 3.6813,2.21652c0.66381,-0.4318 1.46911,-0.65759 2.31934,-0.59462c0.22942,-1.00892 0.64075,-1.916 1.39901,-2.62887c4.61527,-4.33902 6.91608,-0.70079 8.20908,2.39139c0.0593,-0.03005 0.11952,-0.05858 0.1807,-0.08551c0.00355,-2.51522 1.4677,-4.46843 6.32988,-4.77978c1.73032,-0.1108 2.60821,2.28848 3.83965,3.50908c2.46856,2.44681 4.70718,5.48152 6.95153,8.09789c0,0 2.44156,2.84628 -0.40471,5.28784c-2.22492,1.90856 -4.20254,0.58599 -4.95996,-0.0824c-0.42815,1.75108 -2.07205,2.98592 -3.92835,2.84385c-0.83693,-0.06405 -1.58859,-0.39817 -2.17611,-0.91039l-3.42084,-2.91177l0.00447,-0.00524c-0.00847,-0.00423 -0.01693,-0.00848 -0.02539,-0.01272c-0.04738,-0.02376 -0.09409,-0.04745 -0.14013,-0.07109c-0.54425,1.57092 -2.09409,2.64163 -3.8296,2.5088c-0.39189,-0.02999 -0.76508,-0.1192 -1.11149,-0.25818c-0.623,1.41618 -2.08941,2.35336 -3.71964,2.22859c-0.71664,-0.05485 -1.37076,-0.30772 -1.91285,-0.70085c-0.75114,0.88608 -1.9021,1.41179 -3.14887,1.31637c-1.83828,-0.14069 -3.26519,-1.58427 -3.4449,-3.35633c-0.4798,0.3435 -1.64224,0.52748 -3.02587,0.60741c-0.60627,0.32227 -1.30818,0.48202 -2.04344,0.42575c-0.11982,-0.00917 -0.23789,-0.02388 -0.35397,-0.04385c-0.37308,1.40569 -0.7286,2.59945 -0.89298,3.37584l-4.40152,-3.98931c-0.15764,0.49794 -0.41541,0.94826 -0.7482,1.32936c0.03147,0.24807 0.03846,0.50301 0.01864,0.76208c-0.15805,2.06504 -1.96021,3.61095 -4.02524,3.4529c-0.37054,-0.02837 -0.72436,-0.10966 -1.05463,-0.23591l-3.49876,-1.24804l0.00006,-0.00017c-1.21542,-0.45467 -2.45088,-0.93461 -3.61991,-1.48182c-1.10636,-0.09701 -2.06034,-0.66652 -2.67781,-1.49386c-1.43969,-0.98235 -2.59772,-2.17364 -3.21882,-3.69795c-0.70944,1.17152 -2.03716,1.91036 -3.49608,1.7987c-0.61203,-0.04684 -1.17846,-0.23811 -1.66845,-0.53783c-0.72551,0.61165 -1.68219,0.95 -2.70312,0.87187c-1.40702,-0.10769 -2.57306,-0.97866 -3.12329,-2.17599c-0.44066,0.13752 -0.91427,0.19543 -1.40258,0.15805c-1.48086,-0.11334 -2.69476,-1.07215 -3.20476,-2.36709c-0.54772,1.56482 -2.0943,2.63014 -3.82569,2.49762c-1.92491,-0.14733 -3.39877,-1.72322 -3.46191,-3.60894l-0.12647,-2.63464l0.23987,-0.01152c-0.0978,-0.106 -0.19914,-0.20922 -0.30437,-0.3094c-0.25698,-0.24462 -0.58145,-0.40906 -0.91327,-0.56287c0.14334,1.81122 -0.49366,4.44181 -0.56043,5.3142l-0.02544,0.33236c0,0 -0.28618,3.73906 -4.02525,3.45289z" fill="#14c700" stroke="none" stroke-width="0.5" stroke-linecap="butt"/><path d="M521.86687,378.91904c-3.73906,-0.28618 -3.45289,-4.02524 -3.45289,-4.02524l0.02544,-0.33236c0.26868,-3.51054 -0.06586,-10.58571 3.1398,-12.78868c1.94768,-1.33846 4.68366,-0.67008 7.08935,0.57421c0.71566,-1.96339 2.14726,-3.50758 5.0947,-4.01244c1.83381,-0.31411 3.7067,0.55204 5.25775,1.9867c0.57642,-0.14682 1.23858,-0.20718 1.99998,-0.16187c0.64562,0.03842 1.21308,0.29133 1.72038,0.6804c0.62736,-0.24887 1.27985,-0.3947 1.9356,-0.40058c0.61659,-0.00552 1.2219,0.15522 1.80323,0.44561c0.09345,-0.0762 0.19038,-0.14903 0.29098,-0.21826c1.71165,-1.17775 4.27214,-0.70501 6.23309,-0.01831c0.89327,0.31282 1.59018,0.96676 2.23193,1.7012c1.74415,-0.39672 3.71082,0.93171 5.208,2.39765c1.40815,0.3625 2.88797,1.08808 4.07189,2.00641c1.41765,-1.48776 3.03443,-2.20905 4.69234,-2.11221c3.82664,-4.74278 6.77384,-1.80125 10.11002,0.29537c1.20631,0.7581 2.54904,1.3623 3.6813,2.21653c0.66381,-0.4318 1.46911,-0.6576 2.31934,-0.59463c0.22942,-1.00892 0.64076,-1.916 1.39901,-2.62887c4.61527,-4.33902 6.91608,-0.70079 8.20908,2.39139c0.0593,-0.03005 0.11951,-0.05858 0.1807,-0.08551c0.00355,-2.51522 1.4677,-4.46843 6.32988,-4.77977c1.73032,-0.1108 2.60821,2.28848 3.83965,3.50908c2.46856,2.44681 4.70718,5.48152 6.95154,8.09789c0,0 2.44155,2.84627 -0.40472,5.28783c-2.22492,1.90856 -4.20254,0.58599 -4.95996,-0.0824c-0.42815,1.75108 -2.07205,2.98592 -3.92835,2.84385c-0.83693,-0.06405 -1.58858,-0.39817 -2.17611,-0.91039l-3.42084,-2.91178l0.00446,-0.00524c-0.00847,-0.00423 -0.01692,-0.00848 -0.02538,-0.01272c-0.04738,-0.02376 -0.09409,-0.04746 -0.14013,-0.07109c-0.54425,1.57092 -2.09409,2.64163 -3.8296,2.5088c-0.39189,-0.02999 -0.76509,-0.1192 -1.11149,-0.25818c-0.623,1.41618 -2.08941,2.35336 -3.71964,2.22859c-0.71664,-0.05485 -1.37076,-0.30772 -1.91285,-0.70085c-0.75114,0.88608 -1.9021,1.41179 -3.14888,1.31637c-1.83828,-0.14069 -3.26518,-1.58427 -3.44489,-3.35633c-0.4798,0.3435 -1.64224,0.52748 -3.02587,0.6074c-0.60627,0.32227 -1.30818,0.48202 -2.04344,0.42575c-0.11982,-0.00917 -0.23789,-0.02387 -0.35397,-0.04384c-0.37308,1.40569 -0.7286,2.59945 -0.89298,3.37584l-4.40153,-3.98931c-0.15764,0.49794 -0.41541,0.94826 -0.74819,1.32936c0.03147,0.24807 0.03846,0.50301 0.01863,0.76208c-0.15805,2.06504 -1.9602,3.61094 -4.02524,3.4529c-0.37054,-0.02837 -0.72436,-0.10965 -1.05462,-0.23591l-3.49876,-1.24804l0.00006,-0.00018c-1.21542,-0.45467 -2.45088,-0.9346 -3.61991,-1.48181c-1.10636,-0.09701 -2.06034,-0.66652 -2.67781,-1.49386c-1.43969,-0.98235 -2.59772,-2.17364 -3.21881,-3.69795c-0.70944,1.17152 -2.03716,1.91036 -3.49608,1.7987c-0.61203,-0.04684 -1.17846,-0.23811 -1.66845,-0.53784c-0.72551,0.61165 -1.68219,0.95 -2.70312,0.87187c-1.40702,-0.10769 -2.57305,-0.97866 -3.12329,-2.17599c-0.44066,0.13752 -0.91427,0.19544 -1.40259,0.15806c-1.48086,-0.11334 -2.69475,-1.07216 -3.20476,-2.3671c-0.54772,1.56482 -2.09431,2.63015 -3.8257,2.49763c-1.92491,-0.14733 -3.39877,-1.72321 -3.46191,-3.60893l-0.12647,-2.63464l0.23987,-0.01152c-0.0978,-0.106 -0.19913,-0.20922 -0.30436,-0.3094c-0.25698,-0.24462 -0.58145,-0.40906 -0.91327,-0.56287c0.14334,1.81122 -0.49366,4.44181 -0.56043,5.3142l-0.02544,0.33236c0,0 -0.28618,3.73906 -4.02525,3.45289z" fill="#14c700" stroke="none" stroke-width="0.5" stroke-linecap="butt"/><path d="M275.5323,380.97997c-3.73906,-0.28618 -3.45289,-4.02523 -3.45289,-4.02523l0.02544,-0.33236c0.26868,-3.51054 -0.06587,-10.58571 3.13979,-12.78868c1.94768,-1.33846 4.68366,-0.67008 7.08935,0.57421c0.71566,-1.96339 2.14726,-3.50758 5.0947,-4.01245c1.83381,-0.31411 3.7067,0.55204 5.25775,1.9867c0.57642,-0.14682 1.23858,-0.20717 1.99998,-0.16186c0.64562,0.03842 1.21308,0.29132 1.72038,0.68039c0.62736,-0.24887 1.27985,-0.3947 1.9356,-0.40058c0.61659,-0.00552 1.2219,0.15523 1.80323,0.44562c0.09345,-0.0762 0.19038,-0.14903 0.29098,-0.21826c1.71165,-1.17775 4.27214,-0.70501 6.23309,-0.01831c0.89327,0.31282 1.59018,0.96675 2.23192,1.7012c1.74415,-0.39672 3.71082,0.93171 5.208,2.39766c1.40815,0.3625 2.88798,1.08808 4.0719,2.00641c1.41765,-1.48776 3.03442,-2.20905 4.69233,-2.11221c3.82664,-4.74278 6.77384,-1.80124 10.11002,0.29537c1.20631,0.7581 2.54904,1.3623 3.6813,2.21652c0.66381,-0.4318 1.46911,-0.65759 2.31934,-0.59462c0.22942,-1.00892 0.64075,-1.916 1.39901,-2.62887c4.61527,-4.33902 6.91608,-0.70079 8.20908,2.39139c0.0593,-0.03005 0.11951,-0.05858 0.1807,-0.08551c0.00355,-2.51522 1.4677,-4.46843 6.32988,-4.77978c1.73032,-0.1108 2.60822,2.28848 3.83966,3.50908c2.46856,2.44681 4.70718,5.48152 6.95153,8.09789c0,0 2.44156,2.84628 -0.40471,5.28784c-2.22492,1.90856 -4.20254,0.58599 -4.95996,-0.0824c-0.42816,1.75108 -2.07205,2.98592 -3.92835,2.84385c-0.83693,-0.06405 -1.58859,-0.39817 -2.17611,-0.91039l-3.42084,-2.91177l0.00447,-0.00524c-0.00847,-0.00423 -0.01693,-0.00848 -0.02539,-0.01272c-0.04738,-0.02376 -0.09409,-0.04745 -0.14013,-0.07109c-0.54425,1.57092 -2.09409,2.64163 -3.8296,2.5088c-0.39189,-0.02999 -0.76508,-0.1192 -1.11149,-0.25818c-0.623,1.41618 -2.08941,2.35336 -3.71964,2.22859c-0.71664,-0.05485 -1.37076,-0.30772 -1.91285,-0.70085c-0.75114,0.88608 -1.9021,1.41179 -3.14887,1.31637c-1.83828,-0.14069 -3.26519,-1.58427 -3.4449,-3.35633c-0.4798,0.3435 -1.64224,0.52748 -3.02587,0.60741c-0.60627,0.32227 -1.30818,0.48202 -2.04344,0.42575c-0.11982,-0.00917 -0.23789,-0.02388 -0.35397,-0.04385c-0.37308,1.40569 -0.7286,2.59945 -0.89298,3.37584l-4.40152,-3.98931c-0.15764,0.49794 -0.41541,0.94826 -0.7482,1.32936c0.03147,0.24807 0.03846,0.50301 0.01864,0.76208c-0.15805,2.06504 -1.96021,3.61095 -4.02524,3.4529c-0.37054,-0.02837 -0.72436,-0.10966 -1.05463,-0.23591l-3.49876,-1.24804l0.00006,-0.00017c-1.21542,-0.45467 -2.45088,-0.93461 -3.61991,-1.48182c-1.10636,-0.09701 -2.06034,-0.66652 -2.67781,-1.49386c-1.43969,-0.98235 -2.59772,-2.17364 -3.21882,-3.69795c-0.70944,1.17152 -2.03716,1.91036 -3.49608,1.7987c-0.61203,-0.04684 -1.17846,-0.23811 -1.66845,-0.53783c-0.72551,0.61165 -1.68219,0.95 -2.70312,0.87187c-1.40702,-0.10769 -2.57306,-0.97866 -3.12329,-2.17599c-0.44066,0.13752 -0.91427,0.19543 -1.40258,0.15805c-1.48086,-0.11334 -2.69476,-1.07215 -3.20476,-2.36709c-0.54772,1.56482 -2.0943,2.63014 -3.82569,2.49762c-1.92491,-0.14733 -3.39877,-1.72322 -3.46191,-3.60894l-0.12647,-2.63464l0.23987,-0.01152c-0.0978,-0.106 -0.19914,-0.20922 -0.30437,-0.3094c-0.25698,-0.24462 -0.58145,-0.40906 -0.91327,-0.56287c0.14334,1.81122 -0.49366,4.44181 -0.56043,5.3142l-0.02544,0.33236c0,0 -0.28618,3.73906 -4.02525,3.45289z" fill="#14c700" stroke="none" stroke-width="0.5" stroke-linecap="butt"/><path d="M352.69269,379.41454c-3.73906,-0.28618 -3.45289,-4.02524 -3.45289,-4.02524l0.02544,-0.33236c0.26868,-3.51054 -0.06586,-10.58571 3.1398,-12.78868c1.94768,-1.33846 4.68366,-0.67008 7.08935,0.57421c0.71566,-1.96339 2.14726,-3.50758 5.0947,-4.01244c1.83381,-0.31411 3.7067,0.55204 5.25775,1.9867c0.57642,-0.14682 1.23858,-0.20718 1.99998,-0.16187c0.64562,0.03842 1.21308,0.29133 1.72038,0.6804c0.62736,-0.24887 1.27985,-0.3947 1.9356,-0.40058c0.61659,-0.00552 1.2219,0.15522 1.80323,0.44561c0.09345,-0.0762 0.19038,-0.14903 0.29098,-0.21826c1.71165,-1.17775 4.27214,-0.70501 6.23309,-0.01831c0.89327,0.31282 1.59018,0.96676 2.23193,1.7012c1.74415,-0.39672 3.71082,0.93171 5.208,2.39765c1.40815,0.3625 2.88797,1.08808 4.07189,2.00641c1.41765,-1.48776 3.03443,-2.20905 4.69234,-2.11221c3.82664,-4.74278 6.77384,-1.80125 10.11002,0.29537c1.20631,0.7581 2.54904,1.3623 3.6813,2.21653c0.66381,-0.4318 1.46911,-0.6576 2.31934,-0.59463c0.22942,-1.00892 0.64076,-1.916 1.39901,-2.62887c4.61527,-4.33902 6.91609,-0.70079 8.20908,2.39139c0.0593,-0.03005 0.11951,-0.05858 0.1807,-0.08551c0.00355,-2.51522 1.4677,-4.46843 6.32987,-4.77977c1.73032,-0.1108 2.60821,2.28848 3.83965,3.50908c2.46856,2.44681 4.70718,5.48152 6.95153,8.09789c0,0 2.44156,2.84627 -0.40471,5.28783c-2.22492,1.90856 -4.20254,0.58599 -4.95996,-0.0824c-0.42816,1.75108 -2.07205,2.98592 -3.92835,2.84385c-0.83693,-0.06405 -1.58858,-0.39817 -2.17611,-0.91039l-3.42084,-2.91178l0.00446,-0.00524c-0.00847,-0.00423 -0.01692,-0.00848 -0.02538,-0.01272c-0.04738,-0.02376 -0.09408,-0.04746 -0.14012,-0.07109c-0.54425,1.57092 -2.09409,2.64163 -3.8296,2.5088c-0.39189,-0.02999 -0.76509,-0.1192 -1.11149,-0.25818c-0.623,1.41618 -2.08941,2.35336 -3.71964,2.22859c-0.71664,-0.05485 -1.37076,-0.30772 -1.91285,-0.70085c-0.75114,0.88608 -1.9021,1.41179 -3.14888,1.31637c-1.83828,-0.14069 -3.26518,-1.58427 -3.44489,-3.35633c-0.4798,0.3435 -1.64224,0.52748 -3.02587,0.6074c-0.60627,0.32227 -1.30818,0.48202 -2.04344,0.42575c-0.11982,-0.00917 -0.23789,-0.02387 -0.35397,-0.04384c-0.37308,1.40569 -0.7286,2.59945 -0.89298,3.37584l-4.40153,-3.98931c-0.15764,0.49794 -0.41541,0.94826 -0.74819,1.32936c0.03147,0.24807 0.03846,0.50301 0.01863,0.76208c-0.15805,2.06504 -1.9602,3.61094 -4.02524,3.4529c-0.37054,-0.02837 -0.72436,-0.10965 -1.05462,-0.23591l-3.49876,-1.24804l0.00006,-0.00018c-1.21542,-0.45467 -2.45088,-0.9346 -3.61991,-1.48181c-1.10636,-0.09701 -2.06034,-0.66652 -2.67781,-1.49386c-1.43969,-0.98235 -2.59772,-2.17364 -3.21881,-3.69795c-0.70944,1.17152 -2.03716,1.91036 -3.49608,1.7987c-0.61203,-0.04684 -1.17846,-0.23811 -1.66845,-0.53784c-0.72551,0.61165 -1.68219,0.95 -2.70312,0.87187c-1.40702,-0.10769 -2.57305,-0.97866 -3.12329,-2.17599c-0.44066,0.13752 -0.91427,0.19544 -1.40259,0.15806c-1.48086,-0.11334 -2.69475,-1.07216 -3.20476,-2.3671c-0.54772,1.56482 -2.09431,2.63015 -3.8257,2.49763c-1.92491,-0.14733 -3.39877,-1.72321 -3.46191,-3.60893l-0.12647,-2.63464l0.23987,-0.01152c-0.0978,-0.106 -0.19913,-0.20922 -0.30436,-0.3094c-0.25698,-0.24462 -0.58145,-0.40906 -0.91327,-0.56287c0.14334,1.81122 -0.49366,4.44181 -0.56043,5.3142l-0.02544,0.33236c0,0 -0.28618,3.73906 -4.02525,3.45289z" fill="#14c700" stroke="none" stroke-width="0.5" stroke-linecap="butt"/><path d="M112.36413,376.97096c-3.73906,-0.28618 -3.45289,-4.02523 -3.45289,-4.02523l0.02544,-0.33236c0.26868,-3.51054 -0.06587,-10.58571 3.13979,-12.78868c1.94768,-1.33846 4.68366,-0.67008 7.08935,0.57421c0.71566,-1.96339 2.14726,-3.50758 5.0947,-4.01245c1.83381,-0.31411 3.7067,0.55204 5.25775,1.9867c0.57642,-0.14682 1.23858,-0.20717 1.99998,-0.16186c0.64562,0.03842 1.21308,0.29132 1.72038,0.68039c0.62736,-0.24887 1.27985,-0.3947 1.9356,-0.40058c0.61659,-0.00552 1.2219,0.15523 1.80323,0.44562c0.09345,-0.0762 0.19038,-0.14903 0.29098,-0.21826c1.71165,-1.17775 4.27214,-0.70501 6.23309,-0.01831c0.89327,0.31282 1.59018,0.96675 2.23192,1.7012c1.74415,-0.39672 3.71082,0.93171 5.208,2.39766c1.40815,0.3625 2.88798,1.08808 4.0719,2.00641c1.41765,-1.48776 3.03442,-2.20905 4.69233,-2.11221c3.82664,-4.74278 6.77384,-1.80124 10.11002,0.29537c1.20631,0.7581 2.54904,1.3623 3.6813,2.21652c0.66381,-0.4318 1.46911,-0.65759 2.31934,-0.59462c0.22942,-1.00892 0.64075,-1.916 1.39901,-2.62887c4.61527,-4.33902 6.91608,-0.70079 8.20908,2.39139c0.0593,-0.03005 0.11951,-0.05858 0.1807,-0.08551c0.00355,-2.51522 1.4677,-4.46843 6.32988,-4.77978c1.73032,-0.1108 2.60821,2.28848 3.83965,3.50908c2.46856,2.44681 4.70718,5.48152 6.95153,8.09789c0,0 2.44156,2.84628 -0.40471,5.28784c-2.22492,1.90856 -4.20254,0.58599 -4.95996,-0.0824c-0.42815,1.75108 -2.07205,2.98592 -3.92835,2.84385c-0.83693,-0.06405 -1.58859,-0.39817 -2.17611,-0.91039l-3.42084,-2.91177l0.00447,-0.00524c-0.00847,-0.00423 -0.01693,-0.00848 -0.02539,-0.01272c-0.04738,-0.02376 -0.09409,-0.04745 -0.14013,-0.07109c-0.54425,1.57092 -2.09409,2.64163 -3.8296,2.5088c-0.39189,-0.02999 -0.76508,-0.1192 -1.11149,-0.25818c-0.623,1.41618 -2.08941,2.35336 -3.71964,2.22859c-0.71664,-0.05485 -1.37076,-0.30772 -1.91285,-0.70085c-0.75114,0.88608 -1.9021,1.41179 -3.14887,1.31637c-1.83828,-0.14069 -3.26519,-1.58427 -3.4449,-3.35633c-0.4798,0.3435 -1.64224,0.52748 -3.02587,0.60741c-0.60627,0.32227 -1.30818,0.48202 -2.04344,0.42575c-0.11982,-0.00917 -0.23789,-0.02388 -0.35397,-0.04385c-0.37308,1.40569 -0.7286,2.59945 -0.89298,3.37584l-4.40152,-3.98931c-0.15764,0.49794 -0.41541,0.94826 -0.7482,1.32936c0.03147,0.24807 0.03846,0.50301 0.01864,0.76208c-0.15805,2.06504 -1.96021,3.61095 -4.02524,3.4529c-0.37054,-0.02837 -0.72436,-0.10966 -1.05463,-0.23591l-3.49876,-1.24804l0.00006,-0.00017c-1.21542,-0.45467 -2.45088,-0.93461 -3.61991,-1.48182c-1.10636,-0.09701 -2.06034,-0.66652 -2.67781,-1.49386c-1.43969,-0.98235 -2.59772,-2.17364 -3.21882,-3.69795c-0.70944,1.17152 -2.03716,1.91036 -3.49608,1.7987c-0.61203,-0.04684 -1.17846,-0.23811 -1.66845,-0.53783c-0.72551,0.61165 -1.68219,0.95 -2.70312,0.87187c-1.40702,-0.10769 -2.57306,-0.97866 -3.12329,-2.17599c-0.44066,0.13752 -0.91427,0.19543 -1.40258,0.15805c-1.48086,-0.11334 -2.69476,-1.07215 -3.20476,-2.36709c-0.54772,1.56482 -2.0943,2.63014 -3.82569,2.49762c-1.92491,-0.14733 -3.39877,-1.72322 -3.46191,-3.60894l-0.12647,-2.63464l0.23987,-0.01152c-0.0978,-0.106 -0.19914,-0.20922 -0.30437,-0.3094c-0.25698,-0.24462 -0.58145,-0.40906 -0.91327,-0.56287c0.14334,1.81122 -0.49366,4.44181 -0.56043,5.3142l-0.02544,0.33236c0,0 -0.28618,3.73906 -4.02525,3.45289z" fill="#14c700" stroke="none" stroke-width="0.5" stroke-linecap="butt"/><path d="M189.52452,375.40553c-3.73906,-0.28618 -3.45289,-4.02524 -3.45289,-4.02524l0.02544,-0.33236c0.26868,-3.51054 -0.06586,-10.58571 3.1398,-12.78868c1.94768,-1.33846 4.68366,-0.67008 7.08935,0.57421c0.71566,-1.96339 2.14726,-3.50758 5.0947,-4.01244c1.83381,-0.31411 3.7067,0.55204 5.25775,1.9867c0.57642,-0.14682 1.23858,-0.20718 1.99998,-0.16187c0.64562,0.03842 1.21308,0.29133 1.72038,0.6804c0.62736,-0.24887 1.27985,-0.3947 1.9356,-0.40058c0.61659,-0.00552 1.2219,0.15522 1.80323,0.44561c0.09345,-0.0762 0.19038,-0.14903 0.29098,-0.21826c1.71165,-1.17775 4.27214,-0.70501 6.23309,-0.01831c0.89327,0.31282 1.59018,0.96676 2.23193,1.7012c1.74415,-0.39672 3.71082,0.93171 5.208,2.39765c1.40815,0.3625 2.88797,1.08808 4.07189,2.00641c1.41765,-1.48776 3.03443,-2.20905 4.69234,-2.11221c3.82664,-4.74278 6.77384,-1.80125 10.11002,0.29537c1.20631,0.7581 2.54904,1.3623 3.6813,2.21653c0.66381,-0.4318 1.46911,-0.6576 2.31934,-0.59463c0.22942,-1.00892 0.64076,-1.916 1.39901,-2.62887c4.61527,-4.33902 6.91608,-0.70079 8.20908,2.39139c0.0593,-0.03005 0.11951,-0.05858 0.1807,-0.08551c0.00355,-2.51522 1.4677,-4.46843 6.32988,-4.77977c1.73032,-0.1108 2.60821,2.28848 3.83965,3.50908c2.46856,2.44681 4.70718,5.48152 6.95154,8.09789c0,0 2.44155,2.84627 -0.40472,5.28783c-2.22492,1.90856 -4.20254,0.58599 -4.95996,-0.0824c-0.42815,1.75108 -2.07205,2.98592 -3.92835,2.84385c-0.83693,-0.06405 -1.58858,-0.39817 -2.17611,-0.91039l-3.42084,-2.91178l0.00446,-0.00524c-0.00847,-0.00423 -0.01692,-0.00848 -0.02538,-0.01272c-0.04738,-0.02376 -0.09409,-0.04746 -0.14013,-0.07109c-0.54425,1.57092 -2.09409,2.64163 -3.8296,2.5088c-0.39189,-0.02999 -0.76509,-0.1192 -1.11149,-0.25818c-0.623,1.41618 -2.08941,2.35336 -3.71964,2.22859c-0.71664,-0.05485 -1.37076,-0.30772 -1.91285,-0.70085c-0.75114,0.88608 -1.9021,1.41179 -3.14888,1.31637c-1.83828,-0.14069 -3.26518,-1.58427 -3.44489,-3.35633c-0.4798,0.3435 -1.64224,0.52748 -3.02587,0.6074c-0.60627,0.32227 -1.30818,0.48202 -2.04344,0.42575c-0.11981,-0.00917 -0.23788,-0.02387 -0.35397,-0.04384c-0.37308,1.40569 -0.7286,2.59945 -0.89298,3.37584l-4.40153,-3.98931c-0.15764,0.49794 -0.41541,0.94826 -0.74819,1.32936c0.03147,0.24807 0.03846,0.50301 0.01863,0.76208c-0.15805,2.06504 -1.9602,3.61094 -4.02524,3.4529c-0.37054,-0.02837 -0.72436,-0.10965 -1.05462,-0.23591l-3.49876,-1.24804l0.00006,-0.00018c-1.21542,-0.45467 -2.45088,-0.9346 -3.61991,-1.48181c-1.10636,-0.09701 -2.06034,-0.66652 -2.67781,-1.49386c-1.43969,-0.98235 -2.59772,-2.17364 -3.21881,-3.69795c-0.70944,1.17152 -2.03716,1.91036 -3.49608,1.7987c-0.61203,-0.04684 -1.17846,-0.23811 -1.66845,-0.53784c-0.72551,0.61165 -1.68219,0.95 -2.70312,0.87187c-1.40702,-0.10769 -2.57305,-0.97866 -3.12329,-2.17599c-0.44066,0.13752 -0.91427,0.19544 -1.40259,0.15806c-1.48086,-0.11334 -2.69475,-1.07216 -3.20476,-2.3671c-0.54772,1.56482 -2.09431,2.63015 -3.8257,2.49763c-1.92491,-0.14733 -3.39877,-1.72321 -3.46191,-3.60893l-0.12647,-2.63464l0.23987,-0.01152c-0.0978,-0.106 -0.19913,-0.20922 -0.30436,-0.3094c-0.25698,-0.24462 -0.58145,-0.40906 -0.91327,-0.56287c0.14334,1.81122 -0.49366,4.44181 -0.56043,5.3142l-0.02544,0.33236c0,0 -0.28618,3.73906 -4.02525,3.45289z" fill="#14c700" stroke="none" stroke-width="0.5" stroke-linecap="butt"/><path d="M-44.79803,377.46646c-3.73906,-0.28618 -3.45289,-4.02523 -3.45289,-4.02523l0.02544,-0.33236c0.26868,-3.51054 -0.06587,-10.58571 3.13979,-12.78868c1.94768,-1.33846 4.68366,-0.67008 7.08935,0.57421c0.71566,-1.96339 2.14726,-3.50758 5.0947,-4.01245c1.83381,-0.31411 3.7067,0.55204 5.25775,1.9867c0.57642,-0.14682 1.23858,-0.20717 1.99998,-0.16186c0.64562,0.03842 1.21308,0.29132 1.72038,0.68039c0.62736,-0.24887 1.27985,-0.3947 1.9356,-0.40058c0.61659,-0.00552 1.2219,0.15523 1.80323,0.44562c0.09345,-0.0762 0.19038,-0.14903 0.29098,-0.21826c1.71165,-1.17775 4.27214,-0.70501 6.23309,-0.01831c0.89327,0.31282 1.59018,0.96675 2.23192,1.7012c1.74415,-0.39672 3.71082,0.93171 5.208,2.39766c1.40815,0.3625 2.88798,1.08808 4.0719,2.00641c1.41765,-1.48776 3.03442,-2.20905 4.69233,-2.11221c3.82664,-4.74278 6.77384,-1.80124 10.11002,0.29537c1.20631,0.7581 2.54904,1.3623 3.6813,2.21652c0.66381,-0.4318 1.46911,-0.65759 2.31934,-0.59462c0.22942,-1.00892 0.64075,-1.916 1.39901,-2.62887c4.61527,-4.33902 6.91608,-0.70079 8.20908,2.39139c0.0593,-0.03005 0.11951,-0.05858 0.1807,-0.08551c0.00355,-2.51522 1.4677,-4.46843 6.32988,-4.77978c1.73032,-0.1108 2.60821,2.28848 3.83965,3.50908c2.46856,2.44681 4.70718,5.48152 6.95153,8.09789c0,0 2.44156,2.84628 -0.40471,5.28784c-2.22492,1.90856 -4.20254,0.58599 -4.95996,-0.0824c-0.42815,1.75108 -2.07205,2.98592 -3.92835,2.84385c-0.83693,-0.06405 -1.58859,-0.39817 -2.17611,-0.91039l-3.42084,-2.91177l0.00447,-0.00524c-0.00847,-0.00423 -0.01693,-0.00848 -0.02539,-0.01272c-0.04738,-0.02376 -0.09409,-0.04745 -0.14013,-0.07109c-0.54425,1.57092 -2.09409,2.64163 -3.8296,2.5088c-0.39189,-0.02999 -0.76508,-0.1192 -1.11149,-0.25818c-0.623,1.41618 -2.08941,2.35336 -3.71964,2.22859c-0.71664,-0.05485 -1.37076,-0.30772 -1.91285,-0.70085c-0.75114,0.88608 -1.9021,1.41179 -3.14887,1.31637c-1.83828,-0.14069 -3.26519,-1.58427 -3.4449,-3.35633c-0.4798,0.3435 -1.64224,0.52748 -3.02587,0.60741c-0.60627,0.32227 -1.30818,0.48202 -2.04344,0.42575c-0.11982,-0.00917 -0.23789,-0.02388 -0.35397,-0.04385c-0.37308,1.40569 -0.7286,2.59945 -0.89298,3.37584l-4.40152,-3.98931c-0.15764,0.49794 -0.41541,0.94826 -0.7482,1.32936c0.03147,0.24807 0.03846,0.50301 0.01864,0.76208c-0.15805,2.06504 -1.96021,3.61095 -4.02524,3.4529c-0.37054,-0.02837 -0.72436,-0.10966 -1.05463,-0.23591l-3.49876,-1.24804l0.00006,-0.00017c-1.21542,-0.45467 -2.45088,-0.93461 -3.61991,-1.48182c-1.10636,-0.09701 -2.06034,-0.66652 -2.67781,-1.49386c-1.43969,-0.98235 -2.59772,-2.17364 -3.21882,-3.69795c-0.70944,1.17152 -2.03716,1.91036 -3.49608,1.7987c-0.61203,-0.04684 -1.17846,-0.23811 -1.66845,-0.53783c-0.72551,0.61165 -1.68219,0.95 -2.70312,0.87187c-1.40702,-0.10769 -2.57306,-0.97866 -3.12329,-2.17599c-0.44066,0.13752 -0.91427,0.19543 -1.40258,0.15805c-1.48086,-0.11334 -2.69476,-1.07215 -3.20476,-2.36709c-0.54772,1.56482 -2.0943,2.63014 -3.82569,2.49762c-1.92491,-0.14733 -3.39877,-1.72322 -3.46191,-3.60894l-0.12647,-2.63464l0.23987,-0.01152c-0.0978,-0.106 -0.19914,-0.20922 -0.30437,-0.3094c-0.25698,-0.24462 -0.58145,-0.40906 -0.91327,-0.56287c0.14334,1.81122 -0.49366,4.44181 -0.56043,5.3142l-0.02544,0.33236c0,0 -0.28618,3.73906 -4.02525,3.45289z" fill="#14c700" stroke="none" stroke-width="0.5" stroke-linecap="butt"/><path d="M32.36236,375.90102c-3.73906,-0.28618 -3.45289,-4.02524 -3.45289,-4.02524l0.02544,-0.33236c0.26868,-3.51054 -0.06586,-10.58571 3.1398,-12.78868c1.94768,-1.33846 4.68366,-0.67008 7.08935,0.57421c0.71566,-1.96339 2.14726,-3.50758 5.0947,-4.01244c1.83381,-0.31411 3.7067,0.55204 5.25775,1.9867c0.57642,-0.14682 1.23858,-0.20718 1.99998,-0.16187c0.64562,0.03842 1.21308,0.29133 1.72038,0.6804c0.62736,-0.24887 1.27985,-0.3947 1.9356,-0.40058c0.61659,-0.00552 1.2219,0.15522 1.80323,0.44561c0.09345,-0.0762 0.19038,-0.14903 0.29098,-0.21826c1.71165,-1.17775 4.27214,-0.70501 6.23309,-0.01831c0.89327,0.31282 1.59018,0.96676 2.23193,1.7012c1.74415,-0.39672 3.71082,0.93171 5.208,2.39765c1.40815,0.3625 2.88797,1.08808 4.07189,2.00641c1.41765,-1.48776 3.03443,-2.20905 4.69234,-2.11221c3.82664,-4.74278 6.77384,-1.80125 10.11002,0.29537c1.20631,0.7581 2.54904,1.3623 3.6813,2.21653c0.66381,-0.4318 1.46911,-0.6576 2.31934,-0.59463c0.22942,-1.00892 0.64076,-1.916 1.39901,-2.62887c4.61527,-4.33902 6.91608,-0.70079 8.20908,2.39139c0.0593,-0.03005 0.11951,-0.05858 0.1807,-0.08551c0.00355,-2.51522 1.4677,-4.46843 6.32987,-4.77977c1.73032,-0.1108 2.60821,2.28848 3.83965,3.50908c2.46856,2.44681 4.70718,5.48152 6.95154,8.09789c0,0 2.44156,2.84627 -0.40472,5.28783c-2.22492,1.90856 -4.20254,0.58599 -4.95996,-0.0824c-0.42815,1.75108 -2.07205,2.98592 -3.92835,2.84385c-0.83693,-0.06405 -1.58858,-0.39817 -2.17611,-0.91039l-3.42084,-2.91178l0.00446,-0.00524c-0.00847,-0.00423 -0.01692,-0.00848 -0.02538,-0.01272c-0.04738,-0.02376 -0.09409,-0.04746 -0.14013,-0.07109c-0.54425,1.57092 -2.09409,2.64163 -3.8296,2.5088c-0.39189,-0.02999 -0.76509,-0.1192 -1.11149,-0.25818c-0.623,1.41618 -2.08941,2.35336 -3.71964,2.22859c-0.71664,-0.05485 -1.37076,-0.30772 -1.91285,-0.70085c-0.75114,0.88608 -1.9021,1.41179 -3.14888,1.31637c-1.83828,-0.14069 -3.26518,-1.58427 -3.44489,-3.35633c-0.4798,0.3435 -1.64224,0.52748 -3.02587,0.6074c-0.60627,0.32227 -1.30818,0.48202 -2.04344,0.42575c-0.11982,-0.00917 -0.23789,-0.02387 -0.35397,-0.04384c-0.37308,1.40569 -0.7286,2.59945 -0.89298,3.37584l-4.40153,-3.98931c-0.15764,0.49794 -0.41541,0.94826 -0.74819,1.32936c0.03147,0.24807 0.03846,0.50301 0.01863,0.76208c-0.15805,2.06504 -1.9602,3.61094 -4.02524,3.4529c-0.37054,-0.02837 -0.72436,-0.10965 -1.05462,-0.23591l-3.49876,-1.24804l0.00006,-0.00018c-1.21542,-0.45467 -2.45088,-0.9346 -3.61991,-1.48181c-1.10636,-0.09701 -2.06034,-0.66652 -2.67781,-1.49386c-1.43969,-0.98235 -2.59772,-2.17364 -3.21881,-3.69795c-0.70944,1.17152 -2.03716,1.91036 -3.49608,1.7987c-0.61203,-0.04684 -1.17846,-0.23811 -1.66845,-0.53784c-0.72551,0.61165 -1.68219,0.95 -2.70312,0.87187c-1.40702,-0.10769 -2.57305,-0.97866 -3.12329,-2.17599c-0.44066,0.13752 -0.91427,0.19544 -1.40259,0.15806c-1.48086,-0.11334 -2.69475,-1.07216 -3.20476,-2.3671c-0.54772,1.56482 -2.09431,2.63015 -3.8257,2.49763c-1.92491,-0.14733 -3.39877,-1.72321 -3.46191,-3.60893l-0.12647,-2.63464l0.23987,-0.01152c-0.0978,-0.106 -0.19913,-0.20922 -0.30436,-0.3094c-0.25698,-0.24462 -0.58145,-0.40906 -0.91327,-0.56287c0.14334,1.81122 -0.49366,4.44181 -0.56043,5.3142l-0.02544,0.33236c0,0 -0.28618,3.73906 -4.02525,3.45289z" fill="#14c700" stroke="none" stroke-width="0.5" stroke-linecap="butt"/><path d="M452.69446,541.62562c-3.73906,-0.28617 -3.45289,-4.02523 -3.45289,-4.02523l0.02544,-0.33236c0.26868,-3.51054 -0.06587,-10.5857 3.13979,-12.78868c1.94768,-1.33846 4.68366,-0.67008 7.08935,0.57421c0.71566,-1.96339 2.14726,-3.50758 5.0947,-4.01245c1.83381,-0.31411 3.7067,0.55204 5.25775,1.9867c0.57642,-0.14681 1.23858,-0.20717 1.99998,-0.16186c0.64562,0.03842 1.21308,0.29132 1.72038,0.68039c0.62736,-0.24887 1.27985,-0.3947 1.9356,-0.40058c0.61659,-0.00553 1.2219,0.15522 1.80323,0.44562c0.09345,-0.0762 0.19038,-0.14903 0.29098,-0.21826c1.71165,-1.17775 4.27214,-0.70501 6.23309,-0.01832c0.89327,0.31282 1.59018,0.96676 2.23192,1.7012c1.74415,-0.39672 3.71082,0.93171 5.208,2.39766c1.40815,0.36249 2.88798,1.08808 4.0719,2.00641c1.41765,-1.48776 3.03442,-2.20905 4.69233,-2.11221c3.82664,-4.74278 6.77384,-1.80124 10.11002,0.29537c1.2063,0.7581 2.54904,1.36229 3.6813,2.21652c0.66381,-0.4318 1.46911,-0.6576 2.31934,-0.59462c0.22942,-1.00892 0.64075,-1.916 1.39901,-2.62887c4.61527,-4.33902 6.91609,-0.70079 8.20908,2.39139c0.0593,-0.03005 0.11952,-0.05858 0.1807,-0.08551c0.00355,-2.51522 1.4677,-4.46843 6.32988,-4.77978c1.73032,-0.1108 2.60821,2.28849 3.83965,3.50908c2.46856,2.44681 4.70718,5.48152 6.95153,8.09789c0,0 2.44156,2.84628 -0.40471,5.28784c-2.22492,1.90856 -4.20254,0.58599 -4.95996,-0.0824c-0.42816,1.75108 -2.07205,2.98592 -3.92835,2.84385c-0.83693,-0.06406 -1.58859,-0.39817 -2.17611,-0.9104l-3.42084,-2.91178l0.00446,-0.00523c-0.00847,-0.00423 -0.01692,-0.00848 -0.02539,-0.01272c-0.04738,-0.02376 -0.09408,-0.04745 -0.14012,-0.07109c-0.54425,1.57092 -2.09409,2.64162 -3.8296,2.5088c-0.39189,-0.02999 -0.76508,-0.1192 -1.11149,-0.25818c-0.623,1.41618 -2.08941,2.35336 -3.71964,2.22859c-0.71664,-0.05485 -1.37076,-0.30772 -1.91285,-0.70086c-0.75114,0.88609 -1.90209,1.41179 -3.14887,1.31637c-1.83828,-0.14069 -3.26519,-1.58426 -3.4449,-3.35633c-0.4798,0.3435 -1.64224,0.52748 -3.02588,0.6074c-0.60626,0.32227 -1.30818,0.48202 -2.04344,0.42575c-0.11982,-0.00917 -0.23789,-0.02388 -0.35397,-0.04385c-0.37308,1.4057 -0.7286,2.59946 -0.89298,3.37584l-4.40152,-3.98931c-0.15763,0.49794 -0.41541,0.94826 -0.74819,1.32936c0.03147,0.24807 0.03846,0.50301 0.01864,0.76208c-0.15805,2.06504 -1.96021,3.61094 -4.02524,3.4529c-0.37054,-0.02837 -0.72436,-0.10965 -1.05463,-0.23591l-3.49876,-1.24804l0.00006,-0.00017c-1.21542,-0.45467 -2.45088,-0.9346 -3.61991,-1.48182c-1.10636,-0.09702 -2.06034,-0.66652 -2.67781,-1.49386c-1.43969,-0.98236 -2.59772,-2.17364 -3.21882,-3.69795c-0.70944,1.17152 -2.03716,1.91036 -3.49608,1.7987c-0.61203,-0.04684 -1.17846,-0.23811 -1.66845,-0.53784c-0.72551,0.61166 -1.68219,0.95001 -2.70312,0.87187c-1.40702,-0.10769 -2.57306,-0.97866 -3.12329,-2.17599c-0.44066,0.13752 -0.91427,0.19543 -1.40258,0.15805c-1.48086,-0.11334 -2.69476,-1.07215 -3.20476,-2.36709c-0.54772,1.56482 -2.0943,2.63014 -3.82569,2.49762c-1.92491,-0.14732 -3.39877,-1.72321 -3.46191,-3.60894l-0.12647,-2.63464l0.23987,-0.01152c-0.0978,-0.106 -0.19914,-0.20922 -0.30437,-0.3094c-0.25698,-0.24462 -0.58145,-0.40906 -0.91327,-0.56287c0.14334,1.81121 -0.49366,4.44181 -0.56043,5.3142l-0.02544,0.33236c0,0 -0.28618,3.73906 -4.02525,3.45288z" fill="#14c700" stroke="none" stroke-width="0.5" stroke-linecap="butt"/><path d="M529.85485,540.06018c-3.73906,-0.28617 -3.45289,-4.02524 -3.45289,-4.02524l0.02544,-0.33236c0.26868,-3.51055 -0.06586,-10.58571 3.1398,-12.78868c1.94768,-1.33846 4.68366,-0.67008 7.08935,0.57421c0.71566,-1.96339 2.14726,-3.50758 5.0947,-4.01245c1.83381,-0.31411 3.7067,0.55205 5.25775,1.9867c0.57642,-0.14681 1.23858,-0.20718 1.99998,-0.16187c0.64562,0.03842 1.21308,0.29133 1.72038,0.68039c0.62736,-0.24887 1.27985,-0.3947 1.9356,-0.40058c0.61659,-0.00552 1.2219,0.15522 1.80323,0.44561c0.09345,-0.0762 0.19038,-0.14903 0.29098,-0.21826c1.71165,-1.17776 4.27214,-0.70501 6.23309,-0.01831c0.89327,0.31282 1.59018,0.96676 2.23193,1.7012c1.74415,-0.39672 3.71082,0.93171 5.208,2.39765c1.40815,0.3625 2.88797,1.08808 4.07189,2.00641c1.41765,-1.48776 3.03443,-2.20905 4.69234,-2.11221c3.82664,-4.74278 6.77384,-1.80125 10.11002,0.29536c1.20631,0.7581 2.54904,1.3623 3.6813,2.21653c0.66381,-0.43179 1.46911,-0.65759 2.31934,-0.59462c0.22942,-1.00892 0.64076,-1.916 1.39901,-2.62887c4.61527,-4.33902 6.91608,-0.70079 8.20908,2.39139c0.0593,-0.03005 0.11951,-0.05858 0.1807,-0.08551c0.00355,-2.51522 1.4677,-4.46843 6.32988,-4.77977c1.73032,-0.1108 2.60821,2.28849 3.83965,3.50908c2.46856,2.44681 4.70718,5.48152 6.95154,8.09789c0,0 2.44155,2.84627 -0.40472,5.28783c-2.22492,1.90856 -4.20254,0.586 -4.95996,-0.0824c-0.42815,1.75109 -2.07205,2.98592 -3.92835,2.84385c-0.83693,-0.06406 -1.58858,-0.39817 -2.17611,-0.91039l-3.42084,-2.91178l0.00446,-0.00524c-0.00847,-0.00423 -0.01692,-0.00848 -0.02538,-0.01272c-0.04738,-0.02376 -0.09409,-0.04745 -0.14013,-0.07109c-0.54425,1.57092 -2.09409,2.64163 -3.8296,2.5088c-0.39189,-0.02999 -0.76509,-0.1192 -1.11149,-0.25818c-0.623,1.41618 -2.08941,2.35335 -3.71964,2.22859c-0.71664,-0.05485 -1.37076,-0.30772 -1.91285,-0.70085c-0.75114,0.88609 -1.9021,1.41179 -3.14888,1.31637c-1.83828,-0.14069 -3.26518,-1.58426 -3.44489,-3.35633c-0.4798,0.3435 -1.64224,0.52748 -3.02587,0.6074c-0.60627,0.32227 -1.30818,0.48202 -2.04344,0.42575c-0.11982,-0.00917 -0.23789,-0.02388 -0.35397,-0.04385c-0.37308,1.4057 -0.7286,2.59946 -0.89298,3.37584l-4.40153,-3.98931c-0.15764,0.49794 -0.41541,0.94826 -0.74819,1.32936c0.03147,0.24807 0.03846,0.50301 0.01863,0.76209c-0.15805,2.06503 -1.9602,3.61094 -4.02524,3.45289c-0.37054,-0.02837 -0.72436,-0.10965 -1.05462,-0.23591l-3.49876,-1.24804l0.00006,-0.00018c-1.21542,-0.45467 -2.45088,-0.9346 -3.61991,-1.48181c-1.10636,-0.09702 -2.06034,-0.66652 -2.67781,-1.49386c-1.43969,-0.98236 -2.59772,-2.17364 -3.21881,-3.69795c-0.70944,1.17152 -2.03716,1.91036 -3.49608,1.7987c-0.61203,-0.04684 -1.17846,-0.23811 -1.66845,-0.53784c-0.72551,0.61165 -1.68219,0.95 -2.70312,0.87187c-1.40702,-0.10768 -2.57305,-0.97866 -3.12329,-2.17599c-0.44066,0.13752 -0.91427,0.19544 -1.40259,0.15806c-1.48086,-0.11334 -2.69475,-1.07217 -3.20476,-2.3671c-0.54772,1.56481 -2.09431,2.63015 -3.8257,2.49763c-1.92491,-0.14732 -3.39877,-1.72321 -3.46191,-3.60893l-0.12647,-2.63465l0.23987,-0.01152c-0.0978,-0.106 -0.19913,-0.20922 -0.30436,-0.3094c-0.25698,-0.24462 -0.58145,-0.40905 -0.91327,-0.56287c0.14334,1.81122 -0.49366,4.44181 -0.56043,5.3142l-0.02544,0.33236c0,0 -0.28618,3.73906 -4.02525,3.45289z" fill="#14c700" stroke="none" stroke-width="0.5" stroke-linecap="butt"/><path d="M267.00377,588.66766c-3.73906,-0.28617 -3.45289,-4.02523 -3.45289,-4.02523l0.02544,-0.33236c0.26868,-3.51054 -0.06587,-10.5857 3.13979,-12.78868c1.94768,-1.33846 4.68366,-0.67008 7.08935,0.57421c0.71567,-1.96339 2.14726,-3.50758 5.0947,-4.01244c1.83381,-0.31411 3.70671,0.55204 5.25776,1.9867c0.57642,-0.14681 1.23858,-0.20717 1.99998,-0.16186c0.64562,0.03842 1.21308,0.29132 1.72038,0.68039c0.62736,-0.24887 1.27985,-0.3947 1.93559,-0.40058c0.6166,-0.00553 1.22191,0.15522 1.80323,0.44561c0.09346,-0.0762 0.19038,-0.14903 0.29098,-0.21826c1.71166,-1.17776 4.27214,-0.70501 6.23309,-0.01832c0.89326,0.31282 1.59017,0.96676 2.23192,1.7012c1.74415,-0.39672 3.71082,0.93171 5.208,2.39765c1.40815,0.36249 2.88798,1.08808 4.0719,2.00641c1.41766,-1.48776 3.03442,-2.20905 4.69234,-2.11221c3.82664,-4.74278 6.77384,-1.80124 10.11001,0.29537c1.2063,0.7581 2.54904,1.36229 3.6813,2.21652c0.66381,-0.43179 1.46911,-0.65759 2.31934,-0.59462c0.22942,-1.00892 0.64075,-1.916 1.39901,-2.62887c4.61527,-4.33902 6.91608,-0.70079 8.20908,2.39139c0.0593,-0.03005 0.11951,-0.05858 0.1807,-0.08551c0.00355,-2.51522 1.4677,-4.46844 6.32988,-4.77978c1.73032,-0.1108 2.60821,2.28849 3.83966,3.50908c2.46856,2.44681 4.70717,5.48152 6.95153,8.09789c0,0 2.44156,2.84627 -0.40471,5.28783c-2.22492,1.90856 -4.20254,0.586 -4.95996,-0.0824c-0.42816,1.75108 -2.07205,2.98592 -3.92835,2.84385c-0.83693,-0.06406 -1.58859,-0.39817 -2.17611,-0.91039l-3.42084,-2.91177l0.00446,-0.00524c-0.00847,-0.00423 -0.01693,-0.00847 -0.02539,-0.01271c-0.04738,-0.02376 -0.09409,-0.04746 -0.14013,-0.07109c-0.54425,1.57092 -2.09409,2.64163 -3.8296,2.5088c-0.39189,-0.02999 -0.76508,-0.1192 -1.11149,-0.25818c-0.623,1.41617 -2.08941,2.35336 -3.71964,2.22859c-0.71664,-0.05485 -1.37077,-0.30772 -1.91285,-0.70086c-0.75114,0.88608 -1.9021,1.41179 -3.14887,1.31637c-1.83828,-0.1407 -3.26519,-1.58427 -3.44489,-3.35633c-0.4798,0.3435 -1.64224,0.52748 -3.02587,0.60741c-0.60627,0.32227 -1.30819,0.48202 -2.04344,0.42575c-0.11982,-0.00917 -0.23789,-0.02388 -0.35397,-0.04385c-0.37309,1.4057 -0.7286,2.59946 -0.89298,3.37584l-4.40152,-3.98931c-0.15764,0.49794 -0.41541,0.94825 -0.74819,1.32936c0.03147,0.24807 0.03846,0.50301 0.01863,0.76208c-0.15805,2.06503 -1.9602,3.61095 -4.02524,3.4529c-0.37054,-0.02837 -0.72436,-0.10965 -1.05463,-0.23591l-3.49876,-1.24804l0.00006,-0.00017c-1.21542,-0.45467 -2.45089,-0.9346 -3.61991,-1.48182c-1.10636,-0.09702 -2.06034,-0.66652 -2.67781,-1.49387c-1.43969,-0.98235 -2.59772,-2.17364 -3.21882,-3.69795c-0.70945,1.17152 -2.03717,1.91036 -3.49608,1.7987c-0.61203,-0.04684 -1.17846,-0.23811 -1.66845,-0.53783c-0.72551,0.61166 -1.68219,0.95 -2.70312,0.87187c-1.40702,-0.10768 -2.57306,-0.97866 -3.12329,-2.17598c-0.44066,0.13752 -0.91427,0.19543 -1.40258,0.15805c-1.48086,-0.11334 -2.69476,-1.07215 -3.20476,-2.36709c-0.54772,1.56481 -2.09431,2.63014 -3.82569,2.49762c-1.92491,-0.14733 -3.39877,-1.72321 -3.46191,-3.60894l-0.12647,-2.63464l0.23987,-0.01152c-0.0978,-0.106 -0.19914,-0.20922 -0.30437,-0.3094c-0.25698,-0.24462 -0.58145,-0.40906 -0.91327,-0.56288c0.14334,1.81121 -0.49366,4.44182 -0.56043,5.3142l-0.02544,0.33236c0,0 -0.28618,3.73906 -4.02524,3.45289z" fill="#14c700" stroke="none" stroke-width="0.5" stroke-linecap="butt"/><path d="M344.16416,587.10222c-3.73906,-0.28617 -3.45289,-4.02523 -3.45289,-4.02523l0.02544,-0.33236c0.26868,-3.51054 -0.06587,-10.58571 3.13979,-12.78868c1.94768,-1.33846 4.68366,-0.67008 7.08935,0.57421c0.71566,-1.96339 2.14726,-3.50758 5.0947,-4.01244c1.83381,-0.31411 3.7067,0.55204 5.25775,1.9867c0.57642,-0.14681 1.23858,-0.20717 1.99998,-0.16186c0.64562,0.03842 1.21308,0.29133 1.72038,0.68039c0.62736,-0.24887 1.27985,-0.3947 1.93559,-0.40058c0.61659,-0.00553 1.2219,0.15522 1.80323,0.44561c0.09345,-0.0762 0.19038,-0.14903 0.29099,-0.21826c1.71165,-1.17776 4.27214,-0.70501 6.23309,-0.01831c0.89327,0.31282 1.59018,0.96675 2.23193,1.7012c1.74415,-0.39672 3.71082,0.93171 5.208,2.39765c1.40815,0.36249 2.88797,1.08808 4.07189,2.00641c1.41765,-1.48776 3.03443,-2.20905 4.69234,-2.11221c3.82664,-4.74278 6.77384,-1.80125 10.11001,0.29536c1.20631,0.7581 2.54904,1.3623 3.6813,2.21653c0.66382,-0.43179 1.46911,-0.6576 2.31935,-0.59463c0.22942,-1.00892 0.64076,-1.916 1.39901,-2.62887c4.61527,-4.33902 6.91609,-0.70079 8.20908,2.39139c0.0593,-0.03005 0.11951,-0.05859 0.1807,-0.08552c0.00355,-2.51522 1.4677,-4.46843 6.32987,-4.77977c1.73032,-0.1108 2.60821,2.28849 3.83965,3.50908c2.46856,2.44681 4.70718,5.48152 6.95153,8.09789c0,0 2.44155,2.84627 -0.40472,5.28783c-2.22492,1.90856 -4.20254,0.586 -4.95995,-0.0824c-0.42816,1.75108 -2.07205,2.98592 -3.92835,2.84384c-0.83693,-0.06406 -1.58858,-0.39817 -2.17611,-0.91039l-3.42084,-2.91177l0.00446,-0.00524c-0.00847,-0.00423 -0.01692,-0.00847 -0.02538,-0.01271c-0.04738,-0.02376 -0.09409,-0.04746 -0.14013,-0.07109c-0.54425,1.57092 -2.09408,2.64163 -3.82959,2.50881c-0.39189,-0.02999 -0.76509,-0.11921 -1.11149,-0.25819c-0.623,1.41617 -2.08941,2.35335 -3.71964,2.22858c-0.71664,-0.05485 -1.37076,-0.30771 -1.91285,-0.70085c-0.75114,0.88608 -1.9021,1.41179 -3.14888,1.31637c-1.83828,-0.1407 -3.26518,-1.58427 -3.44489,-3.35633c-0.4798,0.3435 -1.64224,0.52748 -3.02588,0.60741c-0.60627,0.32227 -1.30818,0.48202 -2.04344,0.42574c-0.11982,-0.00917 -0.23789,-0.02387 -0.35397,-0.04384c-0.37308,1.4057 -0.7286,2.59945 -0.89298,3.37584l-4.40153,-3.98931c-0.15764,0.49794 -0.41541,0.94825 -0.74819,1.32936c0.03147,0.24807 0.03846,0.50301 0.01863,0.76209c-0.15805,2.06503 -1.9602,3.61094 -4.02524,3.45289c-0.37054,-0.02837 -0.72436,-0.10965 -1.05463,-0.23591l-3.49876,-1.24804l0.00006,-0.00018c-1.21542,-0.45467 -2.45088,-0.9346 -3.61991,-1.48181c-1.10636,-0.09702 -2.06033,-0.66652 -2.67781,-1.49387c-1.43969,-0.98235 -2.59772,-2.17364 -3.21882,-3.69795c-0.70944,1.17152 -2.03716,1.91036 -3.49608,1.7987c-0.61203,-0.04684 -1.17846,-0.23811 -1.66845,-0.53783c-0.72551,0.61166 -1.68219,0.95 -2.70312,0.87187c-1.40702,-0.10768 -2.57305,-0.97866 -3.12329,-2.17599c-0.44066,0.13752 -0.91427,0.19543 -1.40258,0.15806c-1.48086,-0.11334 -2.69476,-1.07217 -3.20476,-2.3671c-0.54772,1.56481 -2.09431,2.63015 -3.8257,2.49763c-1.92491,-0.14733 -3.39877,-1.72321 -3.46191,-3.60894l-0.12647,-2.63464l0.23986,-0.01152c-0.0978,-0.106 -0.19913,-0.20922 -0.30436,-0.3094c-0.25698,-0.24462 -0.58145,-0.40905 -0.91327,-0.56287c0.14334,1.81121 -0.49366,4.44181 -0.56043,5.3142l-0.02544,0.33236c0,0 -0.28618,3.73906 -4.02524,3.45289z" fill="#14c700" stroke="none" stroke-width="0.5" stroke-linecap="butt"/><path d="M650.38215,509.58357c-3.73906,-0.28617 -3.45289,-4.02523 -3.45289,-4.02523l0.02544,-0.33236c0.26868,-3.51054 -0.06587,-10.5857 3.13979,-12.78868c1.94768,-1.33846 4.68366,-0.67008 7.08935,0.57421c0.71566,-1.96339 2.14726,-3.50758 5.0947,-4.01245c1.83381,-0.31411 3.7067,0.55205 5.25775,1.9867c0.57642,-0.14681 1.23858,-0.20717 1.99997,-0.16186c0.64563,0.03842 1.21308,0.29132 1.72038,0.68039c0.62736,-0.24887 1.27985,-0.3947 1.9356,-0.40058c0.61659,-0.00553 1.2219,0.15522 1.80323,0.44561c0.09345,-0.0762 0.19038,-0.14903 0.29098,-0.21826c1.71166,-1.17776 4.27215,-0.70501 6.2331,-0.01832c0.89326,0.31282 1.59018,0.96675 2.23192,1.7012c1.74416,-0.39672 3.71082,0.93171 5.208,2.39765c1.40815,0.36249 2.88798,1.08809 4.0719,2.00641c1.41766,-1.48776 3.03443,-2.20905 4.69234,-2.11221c3.82664,-4.74278 6.77384,-1.80125 10.11002,0.29537c1.2063,0.7581 2.54904,1.3623 3.6813,2.21653c0.66381,-0.43179 1.46911,-0.6576 2.31934,-0.59463c0.22942,-1.00892 0.64075,-1.916 1.39901,-2.62887c4.61527,-4.33902 6.91608,-0.70079 8.20908,2.39139c0.0593,-0.03005 0.11951,-0.05858 0.1807,-0.08551c0.00355,-2.51522 1.4677,-4.46843 6.32988,-4.77978c1.73032,-0.1108 2.60821,2.28849 3.83965,3.50908c2.46856,2.44681 4.70718,5.48152 6.95153,8.09789c0,0 2.44156,2.84628 -0.40471,5.28784c-2.22492,1.90856 -4.20254,0.58599 -4.95996,-0.0824c-0.42816,1.75108 -2.07205,2.98592 -3.92835,2.84385c-0.83693,-0.06406 -1.58859,-0.39817 -2.17611,-0.9104l-3.42084,-2.91178l0.00446,-0.00523c-0.00847,-0.00423 -0.01692,-0.00848 -0.02539,-0.01272c-0.04738,-0.02376 -0.09408,-0.04745 -0.14012,-0.07109c-0.54425,1.57092 -2.09409,2.64162 -3.8296,2.5088c-0.39189,-0.02999 -0.76508,-0.1192 -1.11149,-0.25818c-0.623,1.41617 -2.08941,2.35335 -3.71964,2.22858c-0.71665,-0.05485 -1.37077,-0.30772 -1.91285,-0.70085c-0.75114,0.88608 -1.90209,1.41179 -3.14887,1.31637c-1.83828,-0.1407 -3.26519,-1.58426 -3.4449,-3.35633c-0.4798,0.3435 -1.64224,0.52748 -3.02588,0.6074c-0.60626,0.32227 -1.30818,0.48202 -2.04344,0.42575c-0.11982,-0.00917 -0.23789,-0.02388 -0.35397,-0.04384c-0.37309,1.40569 -0.7286,2.59945 -0.89298,3.37584l-4.40152,-3.98931c-0.15764,0.49794 -0.41541,0.94825 -0.74819,1.32936c0.03147,0.24807 0.03846,0.503 0.01863,0.76208c-0.15804,2.06503 -1.9602,3.61094 -4.02524,3.4529c-0.37054,-0.02837 -0.72437,-0.10965 -1.05463,-0.23591l-3.49875,-1.24804l0.00006,-0.00017c-1.21542,-0.45467 -2.45088,-0.9346 -3.61991,-1.48182c-1.10636,-0.09702 -2.06033,-0.66652 -2.67781,-1.49386c-1.43969,-0.98236 -2.59772,-2.17364 -3.21882,-3.69795c-0.70944,1.17153 -2.03716,1.91036 -3.49608,1.7987c-0.61203,-0.04684 -1.17846,-0.23811 -1.66845,-0.53784c-0.72552,0.61166 -1.68219,0.95001 -2.70312,0.87187c-1.40702,-0.10768 -2.57306,-0.97866 -3.12329,-2.17599c-0.44066,0.13752 -0.91426,0.19543 -1.40258,0.15806c-1.48086,-0.11334 -2.69476,-1.07216 -3.20476,-2.36709c-0.54772,1.56481 -2.09431,2.63015 -3.82569,2.49763c-1.92491,-0.14733 -3.39877,-1.72322 -3.46191,-3.60894l-0.12647,-2.63464l0.23987,-0.01152c-0.0978,-0.106 -0.19914,-0.20922 -0.30438,-0.3094c-0.25698,-0.24462 -0.58145,-0.40906 -0.91327,-0.56287c0.14334,1.81121 -0.49366,4.44182 -0.56043,5.3142l-0.02543,0.33236c0,0 -0.28618,3.73906 -4.02525,3.45288z" fill="#14c700" stroke="none" stroke-width="0.5" stroke-linecap="butt"/><path d="M727.54254,508.01814c-3.73906,-0.28617 -3.45289,-4.02523 -3.45289,-4.02523l0.02544,-0.33236c0.26868,-3.51054 -0.06587,-10.58571 3.13979,-12.78868c1.94768,-1.33846 4.68366,-0.67008 7.08935,0.57421c0.71567,-1.96339 2.14726,-3.50758 5.0947,-4.01245c1.83381,-0.31411 3.7067,0.55205 5.25775,1.9867c0.57642,-0.14681 1.23858,-0.20718 1.99998,-0.16187c0.64562,0.03842 1.21308,0.29133 1.72038,0.68039c0.62736,-0.24887 1.27985,-0.3947 1.9356,-0.40058c0.6166,-0.00553 1.2219,0.15522 1.80323,0.44561c0.09346,-0.0762 0.19038,-0.14903 0.29098,-0.21826c1.71166,-1.17776 4.27214,-0.705 6.23309,-0.01831c0.89327,0.31282 1.59018,0.96675 2.23193,1.7012c1.74415,-0.39672 3.71082,0.93171 5.208,2.39765c1.40815,0.36249 2.88797,1.08808 4.07189,2.0064c1.41765,-1.48776 3.03443,-2.20905 4.69234,-2.11221c3.82664,-4.74278 6.77384,-1.80125 10.11001,0.29537c1.2063,0.7581 2.54904,1.3623 3.6813,2.21653c0.66381,-0.43179 1.46911,-0.6576 2.31934,-0.59463c0.22942,-1.00892 0.64076,-1.916 1.39902,-2.62887c4.61527,-4.33902 6.91608,-0.70079 8.20908,2.39139c0.0593,-0.03005 0.11952,-0.05858 0.1807,-0.08551c0.00355,-2.51522 1.4677,-4.46843 6.32988,-4.77977c1.73032,-0.1108 2.60821,2.28848 3.83965,3.50908c2.46856,2.44681 4.70718,5.48152 6.95154,8.09789c0,0 2.44155,2.84628 -0.40472,5.28784c-2.22492,1.90856 -4.20254,0.586 -4.95996,-0.0824c-0.42815,1.75108 -2.07205,2.98592 -3.92835,2.84384c-0.83693,-0.06406 -1.58859,-0.39817 -2.17611,-0.91039l-3.42084,-2.91178l0.00446,-0.00524c-0.00847,-0.00423 -0.01692,-0.00848 -0.02539,-0.01272c-0.04738,-0.02376 -0.09409,-0.04745 -0.14013,-0.07109c-0.54425,1.57092 -2.09408,2.64163 -3.82959,2.5088c-0.39189,-0.02999 -0.76509,-0.11921 -1.1115,-0.25819c-0.623,1.41617 -2.08941,2.35336 -3.71963,2.22859c-0.71665,-0.05485 -1.37077,-0.30772 -1.91285,-0.70085c-0.75115,0.88609 -1.9021,1.41179 -3.14888,1.31637c-1.83828,-0.1407 -3.26518,-1.58426 -3.44489,-3.35633c-0.4798,0.3435 -1.64224,0.52748 -3.02587,0.6074c-0.60627,0.32227 -1.30818,0.48202 -2.04343,0.42575c-0.11982,-0.00917 -0.23789,-0.02388 -0.35397,-0.04385c-0.37309,1.4057 -0.7286,2.59945 -0.89298,3.37584l-4.40153,-3.98932c-0.15764,0.49794 -0.41541,0.94826 -0.74819,1.32936c0.03147,0.24807 0.03846,0.50301 0.01863,0.76209c-0.15804,2.06503 -1.9602,3.61094 -4.02524,3.45289c-0.37054,-0.02836 -0.72436,-0.10965 -1.05462,-0.23591l-3.49876,-1.24804l0.00006,-0.00017c-1.21542,-0.45467 -2.45089,-0.9346 -3.61991,-1.48182c-1.10636,-0.09702 -2.06034,-0.66652 -2.67781,-1.49386c-1.43969,-0.98235 -2.59772,-2.17364 -3.21881,-3.69795c-0.70944,1.17152 -2.03716,1.91036 -3.49608,1.7987c-0.61203,-0.04684 -1.17846,-0.23811 -1.66845,-0.53783c-0.72551,0.61166 -1.68219,0.95001 -2.70312,0.87187c-1.40702,-0.10768 -2.57305,-0.97866 -3.12329,-2.17599c-0.44066,0.13752 -0.91427,0.19543 -1.40259,0.15806c-1.48086,-0.11334 -2.69475,-1.07216 -3.20476,-2.3671c-0.54772,1.56481 -2.09431,2.63015 -3.8257,2.49763c-1.92491,-0.14733 -3.39877,-1.72321 -3.46191,-3.60893l-0.12647,-2.63464l0.23987,-0.01152c-0.0978,-0.106 -0.19913,-0.20922 -0.30436,-0.3094c-0.25698,-0.24462 -0.58145,-0.40905 -0.91327,-0.56287c0.14334,1.81121 -0.49366,4.44181 -0.56043,5.31419l-0.02544,0.33236c0,0 -0.28618,3.73906 -4.02524,3.45289z" fill="#14c700" stroke="none" stroke-width="0.5" stroke-linecap="butt"/><path d="M838.56533,459.02802c-3.73906,-0.28617 -3.45289,-4.02523 -3.45289,-4.02523l0.02544,-0.33236c0.26868,-3.51054 -0.06587,-10.5857 3.13979,-12.78868c1.94768,-1.33846 4.68366,-0.67008 7.08935,0.57421c0.71566,-1.96339 2.14726,-3.50758 5.0947,-4.01245c1.83381,-0.31411 3.7067,0.55205 5.25775,1.9867c0.57642,-0.14681 1.23858,-0.20717 1.99997,-0.16186c0.64563,0.03842 1.21308,0.29132 1.72038,0.68039c0.62736,-0.24887 1.27985,-0.3947 1.9356,-0.40058c0.61659,-0.00553 1.2219,0.15522 1.80323,0.44561c0.09345,-0.0762 0.19038,-0.14903 0.29098,-0.21826c1.71166,-1.17776 4.27215,-0.70501 6.2331,-0.01832c0.89326,0.31282 1.59018,0.96675 2.23192,1.7012c1.74416,-0.39672 3.71082,0.93171 5.208,2.39765c1.40815,0.36249 2.88798,1.08809 4.0719,2.00641c1.41766,-1.48776 3.03443,-2.20905 4.69234,-2.11221c3.82664,-4.74278 6.77384,-1.80125 10.11002,0.29537c1.2063,0.7581 2.54904,1.3623 3.6813,2.21653c0.66381,-0.43179 1.46911,-0.6576 2.31934,-0.59463c0.22942,-1.00892 0.64075,-1.916 1.39901,-2.62887c4.61527,-4.33902 6.91608,-0.70079 8.20908,2.39139c0.0593,-0.03005 0.11951,-0.05858 0.1807,-0.08551c0.00355,-2.51522 1.4677,-4.46843 6.32988,-4.77978c1.73032,-0.1108 2.60821,2.28849 3.83965,3.50908c2.46856,2.44681 4.70718,5.48152 6.95153,8.09789c0,0 2.44156,2.84627 -0.40471,5.28783c-2.22492,1.90856 -4.20254,0.586 -4.95996,-0.0824c-0.42816,1.75109 -2.07205,2.98592 -3.92835,2.84385c-0.83693,-0.06406 -1.58859,-0.39817 -2.17611,-0.91039l-3.42084,-2.91178l0.00446,-0.00524c-0.00847,-0.00422 -0.01692,-0.00847 -0.02539,-0.01271c-0.04738,-0.02376 -0.09408,-0.04746 -0.14012,-0.07109c-0.54425,1.57092 -2.09409,2.64162 -3.8296,2.5088c-0.39189,-0.03 -0.76508,-0.1192 -1.11149,-0.25818c-0.623,1.41618 -2.08941,2.35335 -3.71964,2.22859c-0.71665,-0.05485 -1.37077,-0.30772 -1.91285,-0.70086c-0.75114,0.88609 -1.90209,1.41179 -3.14887,1.31637c-1.83828,-0.1407 -3.26519,-1.58426 -3.4449,-3.35633c-0.4798,0.3435 -1.64224,0.52748 -3.02588,0.6074c-0.60626,0.32227 -1.30818,0.48202 -2.04344,0.42575c-0.11982,-0.00917 -0.23789,-0.02387 -0.35397,-0.04384c-0.37309,1.4057 -0.7286,2.59946 -0.89298,3.37584l-4.40152,-3.98931c-0.15764,0.49794 -0.41541,0.94826 -0.74819,1.32936c0.03147,0.24807 0.03846,0.50301 0.01863,0.76208c-0.15804,2.06504 -1.9602,3.61095 -4.02524,3.4529c-0.37054,-0.02836 -0.72437,-0.10965 -1.05463,-0.23591l-3.49875,-1.24804l0.00006,-0.00017c-1.21542,-0.45467 -2.45088,-0.9346 -3.61991,-1.48182c-1.10636,-0.09702 -2.06033,-0.66652 -2.67781,-1.49387c-1.43969,-0.98235 -2.59772,-2.17364 -3.21882,-3.69794c-0.70944,1.17152 -2.03716,1.91036 -3.49608,1.7987c-0.61203,-0.04684 -1.17846,-0.23811 -1.66845,-0.53784c-0.72552,0.61165 -1.68219,0.95 -2.70312,0.87187c-1.40702,-0.10768 -2.57306,-0.97865 -3.12329,-2.17598c-0.44066,0.13752 -0.91426,0.19543 -1.40258,0.15805c-1.48086,-0.11334 -2.69476,-1.07216 -3.20476,-2.36709c-0.54772,1.56481 -2.09431,2.63015 -3.82569,2.49763c-1.92491,-0.14732 -3.39877,-1.72322 -3.46191,-3.60894l-0.12647,-2.63464l0.23987,-0.01152c-0.0978,-0.106 -0.19914,-0.20922 -0.30438,-0.3094c-0.25698,-0.24462 -0.58145,-0.40906 -0.91327,-0.56287c0.14334,1.81121 -0.49366,4.44182 -0.56043,5.3142l-0.02543,0.33236c0,0 -0.28618,3.73906 -4.02525,3.45288z" fill="#14c700" stroke="none" stroke-width="0.5" stroke-linecap="butt"/><path d="M915.72573,457.46258c-3.73906,-0.28617 -3.45289,-4.02523 -3.45289,-4.02523l0.02544,-0.33236c0.26868,-3.51054 -0.06587,-10.58571 3.13979,-12.78868c1.94768,-1.33846 4.68366,-0.67008 7.08935,0.57421c0.71567,-1.96339 2.14726,-3.50758 5.0947,-4.01245c1.83381,-0.31411 3.7067,0.55205 5.25775,1.9867c0.57642,-0.14681 1.23858,-0.20718 1.99998,-0.16187c0.64562,0.03842 1.21308,0.29133 1.72038,0.68039c0.62736,-0.24887 1.27985,-0.3947 1.93559,-0.40058c0.6166,-0.00553 1.22191,0.15522 1.80323,0.44561c0.09346,-0.0762 0.19038,-0.14903 0.29099,-0.21826c1.71165,-1.17776 4.27214,-0.705 6.23309,-0.01831c0.89326,0.31282 1.59018,0.96675 2.23193,1.7012c1.74415,-0.39672 3.71082,0.93171 5.208,2.39765c1.40815,0.36249 2.88797,1.08808 4.07189,2.0064c1.41765,-1.48776 3.03443,-2.20905 4.69234,-2.11221c3.82664,-4.74278 6.77384,-1.80125 10.11001,0.29537c1.20631,0.7581 2.54904,1.3623 3.6813,2.21653c0.66381,-0.43179 1.46911,-0.6576 2.31934,-0.59463c0.22942,-1.00892 0.64076,-1.916 1.39902,-2.62887c4.61527,-4.33902 6.91608,-0.70079 8.20908,2.39139c0.0593,-0.03005 0.11952,-0.05858 0.1807,-0.08551c0.00355,-2.51522 1.4677,-4.46843 6.32988,-4.77977c1.73032,-0.1108 2.60821,2.28848 3.83965,3.50908c2.46856,2.44681 4.70718,5.48152 6.95154,8.09789c0,0 2.44155,2.84628 -0.40472,5.28784c-2.22492,1.90856 -4.20254,0.58599 -4.95996,-0.0824c-0.42816,1.75108 -2.07205,2.98592 -3.92835,2.84384c-0.83693,-0.06406 -1.58859,-0.39817 -2.17611,-0.91039l-3.42084,-2.91177l0.00446,-0.00524c-0.00847,-0.00423 -0.01692,-0.00848 -0.02539,-0.01272c-0.04738,-0.02376 -0.09408,-0.04745 -0.14012,-0.07109c-0.54425,1.57091 -2.09409,2.64163 -3.8296,2.5088c-0.39189,-0.02999 -0.76509,-0.1192 -1.11149,-0.25818c-0.623,1.41617 -2.08941,2.35335 -3.71964,2.22859c-0.71665,-0.05485 -1.37077,-0.30772 -1.91285,-0.70085c-0.75114,0.88609 -1.9021,1.41179 -3.14888,1.31637c-1.83828,-0.1407 -3.26518,-1.58426 -3.44489,-3.35633c-0.4798,0.3435 -1.64224,0.52748 -3.02588,0.6074c-0.60626,0.32227 -1.30818,0.48202 -2.04343,0.42575c-0.11982,-0.00917 -0.23789,-0.02388 -0.35397,-0.04385c-0.37309,1.4057 -0.7286,2.59946 -0.89298,3.37584l-4.40153,-3.98932c-0.15764,0.49794 -0.4154,0.94826 -0.74819,1.32936c0.03147,0.24807 0.03846,0.50301 0.01863,0.76209c-0.15805,2.06503 -1.9602,3.61094 -4.02524,3.45289c-0.37054,-0.02836 -0.72436,-0.10965 -1.05462,-0.23591l-3.49876,-1.24804l0.00006,-0.00017c-1.21542,-0.45467 -2.45088,-0.9346 -3.61991,-1.48182c-1.10636,-0.09702 -2.06033,-0.66652 -2.67781,-1.49386c-1.43969,-0.98236 -2.59772,-2.17364 -3.21881,-3.69795c-0.70945,1.17152 -2.03717,1.91036 -3.49608,1.7987c-0.61203,-0.04684 -1.17846,-0.23811 -1.66845,-0.53784c-0.72551,0.61166 -1.68219,0.95001 -2.70312,0.87187c-1.40702,-0.10768 -2.57305,-0.97866 -3.12328,-2.17599c-0.44066,0.13752 -0.91427,0.19543 -1.40259,0.15806c-1.48086,-0.11334 -2.69475,-1.07216 -3.20476,-2.3671c-0.54772,1.56481 -2.09431,2.63015 -3.8257,2.49763c-1.92491,-0.14733 -3.39877,-1.72321 -3.46191,-3.60893l-0.12647,-2.63464l0.23987,-0.01152c-0.0978,-0.106 -0.19913,-0.20922 -0.30436,-0.3094c-0.25698,-0.24462 -0.58145,-0.40905 -0.91328,-0.56287c0.14334,1.81121 -0.49366,4.44181 -0.56043,5.31419l-0.02544,0.33236c0,0 -0.28618,3.73906 -4.02524,3.45289z" fill="#14c700" stroke="none" stroke-width="0.5" stroke-linecap="butt"/></g></g></svg>