<svg version="1.1" xmlns="http://www.w3.org/2000/svg" xmlns:xlink="http://www.w3.org/1999/xlink" width="21.33333" height="16.29486" viewBox="0,0,21.33333,16.29486"><g transform="translate(-527.66667,-320.91666)"><g data-paper-data="{&quot;isPaintingLayer&quot;:true}" fill-rule="nonzero" stroke-linecap="butt" stroke-linejoin="miter" stroke-miterlimit="10" stroke-dasharray="" stroke-dashoffset="0" style="mix-blend-mode: normal"><path d="M542.68664,330.45764c0.44043,0.07947 0.88803,0.12983 1.33483,0.12825c0.22497,-0.0008 0.88371,0.0289 0.67305,-0.05005c-0.48473,-0.18166 -1.25482,-0.14549 -2.00788,-0.07819zM531.47047,331.12423c-0.10696,-0.07742 -0.20268,-0.19916 -0.26531,-0.38706c-0.23717,-0.71151 0.47434,-0.94868 0.47434,-0.94868l0.61387,-0.19495c3.12804,-0.51371 6.44658,-0.5102 9.6233,-0.5102c0.79058,0 2.37226,-0.2677 3.0705,0.03849c1.22054,0.53521 1.73338,1.48771 0.56643,2.6291c-0.06234,0.06097 -0.13431,0.11332 -0.21421,0.15799c0.40037,0.36053 0.48832,0.90742 -0.00938,1.73324c-0.02729,0.04528 -0.08134,0.08328 -0.15544,0.11516c1.15924,0.77904 1.62072,2.16769 -0.35406,2.9542c-1.00201,0.39908 -2.24035,-0.14092 -3.19064,-0.30453c-3.12556,-0.53812 -6.86109,-0.32365 -10.04653,-0.32365c0,0 -0.75,0 -0.75,-0.75c0,-0.1416 0.02673,-0.25646 0.0701,-0.34964c-0.04498,-0.0963 -0.0701,-0.20373 -0.0701,-0.31703c0,-0.17157 0.05761,-0.32969 0.15455,-0.45606l0.49545,-0.66061l0.26579,0.19934c0.36795,-0.381 0.79599,-0.67621 1.26724,-0.90264c-0.05461,-0.01195 -0.10901,-0.02423 -0.1632,-0.03684c-0.60053,-0.13979 -1.47965,0.044 -1.78288,-0.49286c-0.20884,-0.36975 0.09951,-0.80818 0.40018,-1.19276zM540.21786,334.91113c0.17712,0.00277 0.35449,0.00466 0.53214,0.00554c0.14807,0.00073 4.25634,0.43845 3.96606,0.01768c-0.16909,-0.2451 -0.57997,-0.13676 -0.8733,-0.18799c-1.22633,0.00483 -2.42996,0.0733 -3.6249,0.16478zM534.66617,333.85099c1.13964,-0.06207 2.26782,-0.16019 3.39636,-0.25912c-1.03794,-0.04713 -2.06034,-0.02988 -3.02572,0.14844c-0.11345,0.02096 -0.23822,0.06034 -0.37064,0.11068zM538.76277,331.56912c-1.10108,-0.15632 -2.21078,-0.30904 -3.3461,-0.31912c-0.49084,-0.00436 -1.08021,0.05649 -1.61553,0.15307c0.31693,0.07486 0.58705,0.17194 0.68289,0.18329c1.34401,0.15923 2.84103,0.13474 4.27875,-0.01724z" fill="#ffffff" stroke="#000000" stroke-width="1"/><path d="M528.41667,328.83333v-7.16667h19.83333v7.16667z" fill="#ffffff" stroke="#000000" stroke-width="1.5"/><path d="M542.01077,325.59272c0.00001,0 0.00002,0.00001 0.00004,0.00001c0.20677,0.01438 0.41151,0.02901 0.61344,0.04335c0.00004,0 0.00008,0 0.00012,0c0.00005,0 0.00009,0.00001 0.00014,0.00001c0.2597,0 0.51939,0 0.77909,0c1.50845,0 3.42907,-0.21728 5.30847,-0.26954c-0.04362,0.29184 -0.06623,0.59055 -0.06623,0.89454c0,0 0,0.00001 0,0.00001c-1.16666,0 -2.33332,0 -3.49997,0c-0.21712,0 -0.43424,-0.00006 -0.65136,-0.00015c0.72444,0.16427 1.44619,0.34359 2.18169,0.44837l0.59404,0.3195c-0.2161,0.06698 -0.43709,0.12412 -0.66229,0.17235l-0.00246,0.00313c-0.00243,-0.00035 -0.00486,-0.0007 -0.00729,-0.00105c-2.96768,0.63175 -6.66522,-0.28107 -9.56967,-0.62313c-0.49454,-0.05825 -0.98907,-0.11649 -1.4836,-0.17481l-0.52354,-0.25306c0.17825,-0.09056 0.36817,-0.17021 0.56823,-0.24003l0.00159,-0.00476c0.00301,0.00035 0.00603,0.00071 0.00904,0.00106c0.44601,-0.15462 0.94205,-0.26069 1.47104,-0.3303c-0.4322,-0.02081 -0.85743,-0.06712 -1.17542,-0.06712c-1.8603,0 -3.72061,0 -5.58091,0c-0.38326,0.03748 -0.77803,0.05648 -1.10569,0c-0.10447,0 -0.20893,0 -0.3134,0l-0.25,-0.25c0,0 0.00001,-0.00001 0.00001,-0.00001c0,0 -0.00001,-0.00001 -0.00001,-0.00001l0.00099,-0.00099c0.00351,-0.00357 0.00704,-0.00711 0.01061,-0.01061l0.2384,-0.2384c0.06355,0 0.12738,-0.00024 0.1915,-0.0007c0.54036,-0.16382 1.28726,-0.06677 1.79509,-0.08985c0.53921,-0.02451 1.07923,-0.03979 1.61975,-0.04874c0.08069,-0.00408 0.16147,-0.0081 0.24232,-0.01205c-0.07454,-0.07454 -0.14908,-0.14908 -0.22362,-0.22362l-0.00003,-0.00002l0.00001,0c0,0 0,0 -0.00001,-0.00001c0.08333,-0.08333 0.16667,-0.16667 0.25,-0.25h0.125c0.09053,0 0.18014,-0.00116 0.26889,-0.00342c-1.26382,-0.01873 -2.51805,0.0065 -3.71987,0.24856c0,0 -0.24515,0.04903 -0.29417,-0.19612c-0.04903,-0.24515 0.19612,-0.29417 0.19612,-0.29417c2.16356,-0.42988 4.47993,-0.17257 6.7265,-0.21001c0.10475,-0.02328 0.21068,-0.04733 0.31753,-0.07165c0.20975,-0.05528 0.42043,-0.11281 0.63343,-0.17149l-0.503,-0.16207c1.38661,-0.62149 3.13259,-0.75788 4.91394,-0.73515c2.15671,-0.21987 4.54286,-0.178 6.32954,0.29065l-0.45277,0.42378c-0.18496,0.00203 -0.36992,0.00406 -0.55487,0.0061c-2.28604,0 -4.57197,0.0008 -6.85798,0.01103c-0.06494,0.00906 -0.12982,0.01862 -0.19465,0.02873c0.0886,0.01989 0.17563,0.04374 0.26089,0.07192l-0.0827,0.04813c1.52147,0.25071 3.02237,0.58589 4.38784,1.35307l-0.59434,0.2889c-0.70012,0.09915 -1.42013,0.13206 -2.14559,0.13533c0.16007,0.0482 0.3201,0.0965 0.48013,0.14452c0.00001,0 0.00001,0 0.00002,0zM539.669,324.91619c0.75984,0.02291 1.52786,0.04766 2.28559,0.02953c-1.00099,-0.18776 -2.19629,-0.52625 -3.17991,-0.79894c-0.32104,0.07827 -0.63998,0.14441 -0.97929,0.18256c-0.13305,0.01468 -0.26661,0.02737 -0.40062,0.03827c-0.08975,0.01129 -0.17969,0.0218 -0.26929,0.03169c0.24859,0.05231 0.48047,0.10355 0.67067,0.13072c0.62865,0.08981 1.25216,0.22598 1.87286,0.38618zM538.6513,326.26819c1.78914,0.20859 3.56542,0.39605 5.37875,0.45858c0.07833,0.0027 0.16439,0.00222 0.25632,-0.00023c-0.0119,-0.00267 -0.02379,-0.00533 -0.03569,-0.00799c-0.71173,-0.15919 -1.478,-0.30776 -2.269,-0.4587c-1.11014,0.00011 -2.22026,0.00181 -3.33038,0.00834zM535.80544,324.79687c-0.10842,-0.03809 -0.21563,-0.07701 -0.32152,-0.11681l-0.00346,0.02422l-0.32607,-0.04658c-0.29406,0.05709 -0.59162,0.10581 -0.89605,0.14341c0.51916,-0.01296 1.03652,-0.01649 1.5471,-0.00424z" fill="#ececec" stroke="none" stroke-width="0.5"/></g></g></svg>