<svg version="1.1" xmlns="http://www.w3.org/2000/svg" xmlns:xlink="http://www.w3.org/1999/xlink" width="2445.53864" height="801.46711" viewBox="0,0,2445.53864,801.46711"><g transform="translate(469.39362,-257.02027)"><g data-paper-data="{&quot;isPaintingLayer&quot;:true}" fill-rule="nonzero" stroke="#000000" stroke-linecap="butt" stroke-linejoin="miter" stroke-miterlimit="10" stroke-dasharray="" stroke-dashoffset="0" style="mix-blend-mode: normal"><path d="M-468.14362,1057.23728v-466.95605h873.00794c0.06439,3.49324 0.12636,6.98074 0.15946,10.45662c0.15732,16.52006 0.73482,33.07948 1.237,49.64048c-0.9596,14.36164 -2.69025,28.68294 -3.80635,43.03699c-4.0816,52.49302 -5.54856,81.16457 -3.54634,113.56702c-1.3682,11.938 -1.83985,25.15239 2.2169,32.01766c0.26231,0.4439 0.53487,0.87593 0.81714,1.29608c0.62545,5.4499 1.32937,11.16357 2.11433,17.22459c1.04987,8.10646 5.91985,15.53866 12.98497,19.68689c0.97517,0.57256 2.2588,0.21942 3.35712,0.48863c4.307,1.05567 9.20323,1.77779 13.97425,1.54486c0.45909,8.25198 1.78172,16.55708 10.17407,21.35271c4.33302,2.47601 9.46256,3.90625 14.45313,3.90625c5.17052,0 9.33057,-0.94429 12.66111,-2.62501c4.44492,4.73415 10.84022,7.62501 18.33889,7.62501c3.97332,0 7.63682,-0.81162 10.86451,-2.27903c3.52284,1.46425 7.36875,2.27903 11.13549,2.27903c14.67112,0 24.81564,-10.88531 25,-25c0.00904,-0.69183 0.07458,-2.29962 0.14906,-4.4647c2.72866,-0.66447 5.37194,-1.71479 7.77103,-3.0857c7.25413,-4.14522 9.45676,-10.90555 10.08016,-18.17349c0.98184,14.13818 1.99084,28.27447 3.0828,42.40446c0.24536,3.17497 2.0522,10.40051 3.84272,12.67195c2.30648,2.92598 5.09734,5.52461 8.18022,7.61676c0.74522,0.50574 1.78506,0.27293 2.65189,0.51732c11.62512,3.27756 28.46709,4.80332 35.85989,-8.13408c2.47601,-4.33302 3.90625,-9.46256 3.90625,-14.45312c0,-2.12735 -0.40962,-4.21161 -1.0076,-6.26771c3.11871,-0.21936 6.42081,-0.97743 9.85488,-2.3381c5.30898,-2.10356 9.29093,-7.32403 11.55817,-12.84513c4.55072,-1.62674 8.01728,-4.39722 10.65996,-7.92096c6.82174,6.97079 17.95343,10.10827 28.60071,9.52688c2.67065,0.8229 5.45957,1.27784 8.21042,1.30057c-1.0929,12.6274 -2.17738,25.25554 -3.23544,37.8859c-1.04433,12.46641 -0.28039,26.47164 -0.31759,37.82138c-0.02277,6.94896 -0.57843,14.13171 0.12107,21.12672c1.05055,10.50548 4.02477,20.52128 6.47207,30.925c3.20151,13.60996 17.24552,22.70322 31.31393,19.18611c6.54521,-1.6363 13.43943,-3.59713 17.1875,-10.15625c10.12344,-17.71602 -3.46919,-27.78529 -5.10276,-44.22446c-0.55023,-5.53716 -0.02463,-11.12891 0,-16.69328c0.10743,-24.27531 -0.13348,-34.05677 0.91035,-48.67664c0.36824,0.01404 0.74047,0.02113 1.11668,0.02113c0.37269,0 0.73966,-0.0046 1.10106,-0.01385c0.22806,0.48689 0.48437,0.99702 0.77132,1.53309c2.35519,4.39987 5.94081,8.33701 10.16863,10.98866c9.43083,5.91494 18.92132,4.94197 26.31851,0.16544c-0.38162,3.59574 -0.70242,7.16875 -0.96347,10.75596c-0.66626,2.13119 -1.25737,4.26202 -1.6908,6.36545c-1.99287,9.67129 -1.40996,21.52224 -2.06044,30.04587c-0.32447,4.2517 -1.16812,8.45584 -1.43307,12.71167c-0.95759,15.38106 7.34154,29.54982 24.84532,29.54982c8.42952,0 14.13479,-2.75032 18.01636,-7.18453c1.57514,3.76834 4.09134,7.01016 8.07105,9.28428c4.33302,2.47601 9.46256,3.90625 14.45313,3.90625c4.99056,0 10.1201,-1.43024 14.45313,-3.90625c14.39751,-8.22715 10.65139,-33.16618 10.54688,-45.11777c-0.07636,-8.73252 -4.14585,-24.2377 -4.88617,-28.38306c-0.91288,-5.11163 -1.7986,-15.55302 -4.1265,-22.20256c-4.43995,-12.68246 -9.03727,-25.61277 -12.48768,-38.7828c0.89264,-3.04664 1.77593,-6.09563 2.60143,-9.15875c2.11459,-7.84649 3.75336,-20.24792 4.74294,-24.85193c4.87334,-22.67328 10.29595,-26.06027 11.14386,-54.62415c0.55094,-18.55972 1.22605,-37.32746 1.4769,-55.89366c0.09714,-7.18992 0.73505,-15.31977 -0.14039,-22.80228c-3.44661,-29.45894 -7.1213,-58.89119 -10.48338,-88.35989c-1.08452,-9.50587 -2.55382,-18.99741 -2.85602,-28.56017c-0.01832,-0.57969 -0.01846,-1.69528 -0.00682,-3.25413h106.53267c2.41714,15.37683 4.85812,30.74991 7.33114,46.11781c3.75175,23.31422 15.92353,44.46495 23.54207,66.81638c1.37552,4.03552 1.38515,8.53488 2.94009,12.56932c2.77507,7.20018 5.53058,14.40862 8.25498,21.62887c-0.76262,24.0894 -1.58545,48.17663 -2.54551,72.25893c-0.02792,0.70032 -1.36134,0.71224 -1.59131,1.37431c-1.63747,4.71428 -3.90625,9.46256 -3.90625,14.45313c0,25.12103 29.95463,31.44459 45.65328,19.45086c3.42978,3.41115 7.64992,5.59055 12.85287,5.8796c2.18827,0.12157 4.42375,-0.00595 6.62099,-0.37626c0.60916,0.03039 1.23334,0.04581 1.87286,0.04581c13.26361,0 19.5168,-6.16916 22.517,-14.97159c0.58644,1.72366 1.36384,3.23741 2.38925,4.42472c2.04611,2.36917 4.27145,4.59452 6.64063,6.64063c3.33664,2.88164 9.95899,3.72904 14.45313,3.90625c4.77822,0.18842 9.50532,-0.31973 13.77409,-1.63772c8.68188,3.35512 18.84674,1.61509 26.82539,-4.85006c4.76317,4.64743 11.73694,7.26856 20.48869,6.78951c7.82287,0.59555 15.89467,-0.68391 21.41183,-3.42673c12.11522,-6.02299 12.89753,-19.22348 11.1506,-31.09747c-0.74623,-5.07216 -1.48846,-10.14494 -2.22498,-15.21855c0.39833,-4.33178 0.46939,-8.68154 0.34551,-13.28666c7.60149,-10.53427 6.21822,-28.56864 4.90168,-42.50581l1.69535,-2.06018l2.80674,-2.73088l0.77708,-1.865l1.4717,-2.82566l0.70876,-1.7719l5.07932,33.37842v2.10871l0.39063,3.90625l2.73438,8.59375l0.36879,0.42702l0.41246,1.52611l3.56326,3.07736l3.07736,3.56326l1.52611,0.41246l0.42702,0.36879l8.59375,2.73438l3.90625,0.39063h1.16941l1.57458,0.569l3.55376,-0.89877l0.6085,-0.06085l1.42541,-0.45354l5.42076,-1.37095l0.79477,-0.60672l0.95281,-0.30317l4.23173,-3.65467l1.18897,-0.90765l0.3988,-0.4636l2.77425,-2.39595l0.43682,-1.61624l5.95023,-8.50032l1.92007,-3.42413l0.09763,-0.31266l0.17893,-0.27436l1.41784,-3.66075l0.91167,-3.29603c7.27283,2.33183 15.73266,0.93325 23.95093,-5.23045c0.75385,-0.56539 1.44001,-1.16726 2.0638,-1.80127c1.35888,15.3187 2.59831,30.64945 4.0837,45.95602c0.36554,3.76674 2.42913,9.62839 4.25829,12.1607c8.73749,12.0963 24.77083,13.76511 36.9632,5.22562c6.18772,-4.33386 7.50796,-11.37886 8.53706,-18.04656c4.036,-26.14995 -4.55561,-57.36962 -7.04691,-80.32592c-6.76305,-62.31874 -9.46129,-77.32111 -18.04651,-130.52554h660.91271v466.95606z" fill="#ffab67" stroke-width="2.5"/><path d="" fill="#ffab67" stroke-width="2.5"/><path d="" fill="#ffab67" stroke-width="2.5"/><path d="" fill="#ffab67" stroke-width="2.5"/><path d="" fill="#ffab67" stroke-width="2.5"/><path d="M-263.32132,857.54504v-268.76877c0,0 378.63514,-20.93065 804.59495,-41.5852c64.31457,-3.11857 -8.43013,-73.79843 56.90177,-76.83142c36.61369,-1.69977 65.69988,-8.56411 115.65359,-4.43597c0.74664,0.0617 1.45286,0.29655 2.1226,0.688c0.00846,3.07089 -0.01019,6.14137 -0.07322,9.21114c-1.11936,54.52323 -0.42101,109.15842 -4.46027,163.54334c-3.40756,45.87961 -11.88793,91.24077 -17.85113,136.85864c-3.54528,27.12109 -8.1363,54.12824 -11.02895,81.32023z" fill="#ffab67" stroke-width="1.5"/><path d="M947.43469,458.39806c19.11255,3.82337 12.65872,86.96576 31.22974,92.50079c63.60348,18.95679 146.85989,-34.64298 180.24696,-35.5848c-0.20511,0.94303 -0.31015,1.90751 -0.31015,2.89165c0,3.51777 1.02378,6.57473 2.90502,9.22862c-1.04183,36.62976 2.27241,73.28317 0.28776,109.90619c-1.01573,18.74367 -6.32274,37.38147 -9.41346,56.0748c-12.72499,76.96353 -13.49851,102.71935 3.40655,164.10535c0.00223,0.00812 0.00448,0.01625 0.00674,0.02437h-320.88234c1.0014,-5.61313 1.81212,-11.05078 2.39647,-13.76947c4.87334,-22.67328 10.29595,-26.06027 11.14386,-54.62415c0.55094,-18.55972 1.22605,-37.32746 1.4769,-55.89366c0.09714,-7.18992 0.73505,-15.31977 -0.14039,-22.80228c-3.44661,-29.45894 -7.1213,-58.89119 -10.48338,-88.35989c-1.08452,-9.50587 -2.55382,-18.99741 -2.85602,-28.56017c-0.02621,-0.82938 -0.0152,-2.75577 0.01426,-5.50783c2.07813,-17.75768 3.78742,-36.76586 4.47975,-60.08852c0.69165,-23.29955 1.36679,-46.59959 2.0366,-69.89978c32.48563,-2.95757 68.90845,-6.75215 104.45514,0.35879z" fill="#ffab67" stroke-width="1.5"/><path d="" fill="#ffab67" stroke-width="1.5"/><path d="" fill="#ffab67" stroke-width="1.5"/><path d="" fill="#ffab67" stroke-width="1.5"/><path d="" data-paper-data="{&quot;index&quot;:null}" fill="#ffab67" stroke-width="2"/><path d="M964.6021,443.13063v-18.01802h252.25225v18.01802z" fill="#ffab67" stroke-width="1.5"/><path d="M654.28678,353.53604l-24.02402,-58.55856c0,0 29.45488,16.31384 42.70283,26.53422c13.02505,10.04843 30.75367,14.00632 43.88876,14.00632c46.13227,0 189.68468,0 189.68468,0v18.01802z" fill="#ffab67" stroke-width="1.5"/><path d="M431.56907,356.04354l6.00601,24.02402c0,0 -39.18009,2.2397 -83.03772,3.5603c0.29892,-4.28591 1.42419,-8.87222 1.43111,-13.24498c0.02764,-17.4552 0.33176,-34.91493 0.37383,-52.3709c32.81959,8.84306 75.22677,38.03156 75.22677,38.03156z" fill="#ffab67" stroke-width="1.5"/><path d="M218.35586,333.52102l6.00601,-46.54655c0,0 24.54501,28.52853 57.05706,28.52853c1.19966,0 2.40198,0 3.60554,0c-2.26889,22.94657 -4.51121,45.89598 -6.89074,68.83045c-15.40648,-0.37902 -28.0556,-1.24295 -35.47451,-2.8182c-37.06708,-7.87041 -24.30336,-47.99423 -24.30336,-47.99423z" fill="#ffab67" stroke-width="1.5"/><path d="M-120.98348,295.30781v-22.52252c0,0 91.01953,-15.01502 151.65165,-15.01502c18.17153,0 32.24699,15.01502 42.04204,15.01502c20.8232,0 73.57357,-12.01201 73.57357,-12.01201l-27.02703,34.53453c0,0 -58.52573,15.01502 -93.09309,15.01502c-43.45937,0 -147.14715,-15.01502 -147.14715,-15.01502z" fill="#ffab67" stroke-width="1.5"/></g></g></svg>