<svg version="1.1" xmlns="http://www.w3.org/2000/svg" xmlns:xlink="http://www.w3.org/1999/xlink" width="21.33333" height="51.93884" viewBox="0,0,21.33333,51.93884"><defs><radialGradient cx="542.25" cy="289.5" r="10.39716" gradientUnits="userSpaceOnUse" id="color-1"><stop offset="0" stop-color="#ffffff"/><stop offset="1" stop-color="#66ebff"/></radialGradient></defs><g transform="translate(-527.33333,-285.41665)"><g data-paper-data="{&quot;isPaintingLayer&quot;:true}" fill-rule="nonzero" stroke="#000000" stroke-linecap="butt" stroke-linejoin="miter" stroke-miterlimit="10" stroke-dasharray="" stroke-dashoffset="0" style="mix-blend-mode: normal"><path d="M542.68664,312.27224c0.44043,0.30535 0.88803,0.49886 1.33483,0.49278c0.22497,-0.00308 0.88371,0.11105 0.67305,-0.19232c-0.48473,-0.69803 -1.25482,-0.55903 -2.00788,-0.30045zM531.47047,314.83356c-0.10696,-0.29749 -0.20268,-0.76526 -0.26531,-1.48725c-0.23717,-2.73392 0.47434,-3.64524 0.47434,-3.64524l0.61387,-0.74907c3.12804,-1.9739 6.44658,-1.96041 9.6233,-1.96041c0.79058,0 2.37226,-1.02861 3.0705,0.14789c1.22054,2.05651 1.73338,5.71642 0.56643,10.10214c-0.06234,0.23427 -0.13431,0.43543 -0.21421,0.60707c0.40037,1.38531 0.48832,3.4867 -0.00938,6.65984c-0.02729,0.17399 -0.08134,0.32001 -0.15544,0.4425c1.15924,2.99339 1.62072,8.32919 -0.35406,11.35131c-1.00201,1.53344 -2.24035,-0.54148 -3.19064,-1.17014c-3.12556,-2.0677 -6.86109,-1.24359 -10.04653,-1.24359c0,0 -0.75,0 -0.75,-2.88181c0,-0.54408 0.02673,-0.98543 0.0701,-1.34346c-0.04498,-0.37003 -0.0701,-0.78283 -0.0701,-1.21816c0,-0.65925 0.05761,-1.26682 0.15455,-1.75238l0.49545,-2.53835l0.26579,0.76595c0.36795,-1.46397 0.79599,-2.59829 1.26724,-3.46833c-0.05461,-0.04592 -0.10901,-0.09312 -0.1632,-0.14155c-0.60053,-0.53713 -1.47965,0.16906 -1.78288,-1.89379c-0.20884,-1.42074 0.09951,-3.10537 0.40018,-4.5831zM540.21786,329.38446c0.17712,0.01065 0.35449,0.01791 0.53214,0.02129c0.14807,0.0028 4.25634,1.68472 3.96606,0.06793c-0.16909,-0.94178 -0.57997,-0.52549 -0.8733,-0.72233c-1.22633,0.01856 -2.42996,0.28165 -3.6249,0.63315zM534.66617,325.31094c1.13964,-0.2385 2.26782,-0.61551 3.39636,-0.99565c-1.03794,-0.18109 -2.06034,-0.11481 -3.02572,0.57036c-0.11345,0.08053 -0.23822,0.23184 -0.37064,0.42527zM538.76277,316.54302c-1.10108,-0.60065 -2.21078,-1.18747 -3.3461,-1.22618c-0.49084,-0.01677 -1.08021,0.21706 -1.61553,0.58816c0.31693,0.28765 0.58705,0.66067 0.68289,0.70428c1.34401,0.61183 2.84103,0.51774 4.27875,-0.06625z" fill="#8a8a8a" stroke-width="1"/><path d="M528.08333,306.96098v-20.79433h19.83333v20.79433z" fill="url(#color-1)" stroke-width="1.5"/></g></g></svg>