<svg version="1.1" xmlns="http://www.w3.org/2000/svg" xmlns:xlink="http://www.w3.org/1999/xlink" width="60.39519" height="135.55117" viewBox="0,0,60.39519,135.55117"><g transform="translate(-523.90397,-255.90844)"><g data-paper-data="{&quot;isPaintingLayer&quot;:true}" fill="#383838" fill-rule="nonzero" stroke="none" stroke-linecap="butt" stroke-linejoin="miter" stroke-miterlimit="10" stroke-dasharray="" stroke-dashoffset="0" style="mix-blend-mode: normal"><path d="M553.76977,323.9968c-3.61245,14.18272 -9.36102,24.96178 -12.8398,24.0757c-3.47878,-0.88608 -3.37041,-13.10174 0.24203,-27.28445c3.61245,-14.18272 9.36102,-24.96178 12.8398,-24.0757c3.47878,0.88608 3.37041,13.10174 -0.24203,27.28445z" stroke-width="0"/><path d="M541.57008,367.84217c-3.40797,13.37992 -7.25534,23.95022 -8.59333,23.60942c-1.33798,-0.3408 0.34006,-11.46364 3.74803,-24.84356c3.40797,-13.37992 7.25534,-23.95022 8.59333,-23.60942c1.33798,0.3408 -0.34006,11.46364 -3.74803,24.84356z" stroke-width="0"/><path d="M536.00256,365.39216c-3.40797,13.37992 -7.25534,23.95022 -8.59333,23.60942c-1.33798,-0.3408 0.34006,-11.46364 3.74803,-24.84356c3.40797,-13.37992 7.25534,-23.95022 8.59333,-23.60942c1.33798,0.3408 -0.34006,11.46364 -3.74803,24.84356z" stroke-width="0"/><path d="M539.1207,304.72952c6.41373,3.2268 11.21063,6.64254 10.7142,7.62926c-0.49642,0.98673 -6.09822,-0.82921 -12.51194,-4.05601c-6.41373,-3.2268 -11.21063,-6.64254 -10.7142,-7.62926c0.49642,-0.98673 6.09822,0.82921 12.51194,4.05601z" data-paper-data="{&quot;index&quot;:null}" stroke-width="0"/><path d="M523.90736,304.72353c0.16133,-1.09272 6.04996,-1.12853 13.1527,-0.07997c7.10273,1.04856 12.72984,2.78443 12.56852,3.87716c-0.16131,1.09271 -6.04996,1.12853 -13.1527,0.07997c-7.10273,-1.04856 -12.72984,-2.78443 -12.56852,-3.87716z" data-paper-data="{&quot;index&quot;:null}" stroke-width="0"/><path d="M530.81232,295.96291l10.20218,-40.05447l43.28465,11.02493l-10.20218,40.05448z" stroke-width="NaN"/></g></g></svg>