<svg version="1.1" xmlns="http://www.w3.org/2000/svg" xmlns:xlink="http://www.w3.org/1999/xlink" width="46.42171" height="63.38093" viewBox="0,0,46.42171,63.38093"><defs><linearGradient x1="547.26722" y1="323.52322" x2="561.81283" y2="320.92207" gradientUnits="userSpaceOnUse" id="color-1"><stop offset="0" stop-color="#9e9e9e"/><stop offset="1" stop-color="#717171"/></linearGradient><linearGradient x1="528.29259" y1="394.5514" x2="528.29259" y2="413.41261" gradientUnits="userSpaceOnUse" id="color-2"><stop offset="0" stop-color="#7d7d7d"/><stop offset="1" stop-color="#adadad"/></linearGradient><linearGradient x1="-2180.1247" y1="2274.14582" x2="-2179.02877" y2="2289.00494" gradientUnits="userSpaceOnUse" id="color-3"><stop offset="0" stop-color="#7d7d7d"/><stop offset="1" stop-color="#adadad"/></linearGradient><linearGradient x1="547.54716" y1="308.98661" x2="553.58921" y2="308.98661" gradientUnits="userSpaceOnUse" id="color-4"><stop offset="0" stop-color="#006cff"/><stop offset="1" stop-color="#00a3ff"/></linearGradient><linearGradient x1="531.30548" y1="309.68505" x2="540.52442" y2="309.68505" gradientUnits="userSpaceOnUse" id="color-5"><stop offset="0" stop-color="#006cff"/><stop offset="1" stop-color="#00a3ff"/></linearGradient><linearGradient x1="543.20253" y1="309.47487" x2="544.85077" y2="309.47487" gradientUnits="userSpaceOnUse" id="color-6"><stop offset="0" stop-color="#006cff"/><stop offset="1" stop-color="#00a3ff"/></linearGradient><linearGradient x1="542.0785" y1="339.97312" x2="542.0785" y2="437.76248" gradientUnits="userSpaceOnUse" id="color-7"><stop offset="0" stop-color="#393939"/><stop offset="1" stop-color="#717171"/></linearGradient><linearGradient x1="542.0785" y1="339.97312" x2="542.0785" y2="437.76248" gradientUnits="userSpaceOnUse" id="color-8"><stop offset="0" stop-color="#393939"/><stop offset="1" stop-color="#717171"/></linearGradient><linearGradient x1="544.76953" y1="339.35679" x2="537.34633" y2="344.4241" gradientUnits="userSpaceOnUse" id="color-9"><stop offset="0" stop-color="#393939"/><stop offset="1" stop-color="#717171"/></linearGradient><linearGradient x1="539.61466" y1="338.1101" x2="531.29083" y2="343.7922" gradientUnits="userSpaceOnUse" id="color-10"><stop offset="0" stop-color="#393939"/><stop offset="1" stop-color="#717171"/></linearGradient><linearGradient x1="541.8595" y1="320.65732" x2="541.8595" y2="337.66267" gradientUnits="userSpaceOnUse" id="color-11"><stop offset="0" stop-color="#9e9e9e"/><stop offset="1" stop-color="#717171"/></linearGradient><linearGradient x1="537.36662" y1="287.11555" x2="537.36662" y2="305.68436" gradientUnits="userSpaceOnUse" id="color-12"><stop offset="0" stop-color="#9e9e9e"/><stop offset="1" stop-color="#717171"/></linearGradient><linearGradient x1="541.81563" y1="313.49429" x2="541.81563" y2="318.23661" gradientUnits="userSpaceOnUse" id="color-13"><stop offset="0" stop-color="#9e9e9e"/><stop offset="1" stop-color="#717171"/></linearGradient><linearGradient x1="536.29292" y1="324.77322" x2="521.7473" y2="322.17207" gradientUnits="userSpaceOnUse" id="color-14"><stop offset="0" stop-color="#9e9e9e"/><stop offset="1" stop-color="#717171"/></linearGradient></defs><g transform="translate(-518.56921,-284.36469)"><g data-paper-data="{&quot;isPaintingLayer&quot;:true}" fill-rule="nonzero" stroke-linejoin="miter" stroke-miterlimit="10" stroke-dasharray="" stroke-dashoffset="0" style="mix-blend-mode: normal"><path d="M542.56923,322.60061c0.66073,-1.60028 3.26656,-2.20287 4.78636,-2.43734c2.49242,-0.44572 4.8389,-0.88812 7.33669,-0.83758c1.22074,-0.0443 2.37479,-0.0818 3.54992,-0.08534c-0.07357,0.02886 -0.149,0.05674 -0.22605,0.08371c0.21304,0.04045 0.42623,0.08304 0.63958,0.12865c1.63515,-0.10434 4.63317,-0.01194 5.66661,1.62777c1.41498,2.24508 0.4423,3.65306 -1.59055,4.61189c-1.4478,0.68289 -3.88666,0.1996 -5.44623,0.3129c-3.14154,0.22823 -6.8074,0.2374 -9.81334,-1.01009c-1.73829,-0.72142 -3.19429,-1.71223 -4.903,-2.39455zM553.39098,321.43784c-0.34271,0.01487 -1.11443,-0.04626 -1.42852,-0.84435c-1.40531,0.32673 -2.80504,0.67351 -4.24608,0.85348c-0.25441,0.03176 -0.51002,0.05556 -0.76651,0.07317c0.52534,0.26819 1.06043,0.52955 1.62054,0.76798c2.5744,1.09592 5.79891,0.99769 8.48676,0.80477c1.35864,-0.09751 3.7254,0.40926 5.00028,-0.19766c0.28866,-0.13743 -0.59502,-0.23776 -0.90332,-0.32248c-0.86994,-0.23904 -1.79871,-0.26777 -2.69874,-0.2056c-1.69791,-0.33962 -3.38239,-0.53993 -5.06441,-0.92933z" data-paper-data="{&quot;index&quot;:null}" fill="#000000" stroke="none" stroke-width="0.5" stroke-linecap="butt"/><path d="M551.92721,320.57111c0.3141,0.79809 1.08669,0.8579 1.42939,0.84302c1.68203,0.38939 3.44258,0.61485 5.14048,0.95446c0.90003,-0.06218 1.82877,-0.03274 2.69871,0.2063c0.30829,0.08472 1.1919,0.18655 0.90322,0.32398c-1.27488,0.60692 -3.64371,0.11 -5.00236,0.20751c-2.68784,0.19293 -5.99357,0.27802 -8.56797,-0.8179c-0.56012,-0.23844 -1.09503,-0.50407 -1.62036,-0.77226c0.25648,-0.01761 0.51219,-0.04229 0.76659,-0.07406c1.44105,-0.17997 2.84701,-0.54435 4.25231,-0.87108z" data-paper-data="{&quot;noHover&quot;:false,&quot;origItem&quot;:[&quot;Path&quot;,{&quot;applyMatrix&quot;:true,&quot;segments&quot;:[[[1095.1308,664.17353],[-0.09138,-0.67994],[1.3588,3.17445]],[[1098.74344,673.81701],[-1.26643,-3.22323],[0.19447,1.79386]],[[1100.09835,679.05782],[-0.77689,-1.62856],[0.27532,0.57713]],[[1101.05124,680.72271],[-0.16893,0.61671],[0.74605,-2.72363]],[[1099.67997,670.80873],[0.28634,2.70919],[-0.56648,-5.35967]],[[1095.10764,654.38359],[3.06397,4.68256],[-0.66663,-1.01879]],[[1093.02512,651.4635],[0.71296,0.93985],[0.05562,0.51116]],[[1093.15091,652.99834],[-0.02702,-0.51205],[0.15304,2.90043]],[[1092.96554,661.65838],[0.1485,-2.88175],[1.68185,0.33738]]],&quot;closed&quot;:true}],&quot;index&quot;:null}" fill="url(#color-1)" stroke="none" stroke-width="0.5" stroke-linecap="butt"/><path d="" data-paper-data="{&quot;index&quot;:null}" fill="#000000" stroke="none" stroke-width="0.5" stroke-linecap="butt"/><path d="" data-paper-data="{&quot;noHover&quot;:false,&quot;origItem&quot;:[&quot;Path&quot;,{&quot;applyMatrix&quot;:true,&quot;segments&quot;:[[[214.21936,363.46624],[-0.30208,-0.37388],[3.00673,0.15442]],[[223.17564,365.12684],[-2.72214,-1.01229],[0.78421,0.29162]],[[225.23038,366.56847],[-0.80035,-0.24385],[0.7421,0.2261]],[[227.55523,366.4612],[-0.77495,0.03576],[3.50491,0]],[[238.06996,366.4612],[-3.50491,0],[-1.08058,-2.14878]],[[237.21302,359.55162],[0.01277,2.28708],[0,0]],[[239.71302,357.05162],[-2.5,0],[2.5,0]],[[242.21302,359.55162],[0,0],[-0.01909,2.79627]],[[244.14909,365.09479],[-2.53148,-1.37374],[0,0]],[[244.57107,366.4612],[0,0],[7.03354,0]],[[265.67169,366.4612],[-7.03354,0],[3.04925,0]],[[274.81964,366.4612],[-3.04923,-0.00986],[0.84642,0.00274]],[[277.35997,366.4598],[-0.84249,-0.07098],[-2.84376,-3.86932]],[[269.2555,354.64224],[2.9011,3.87495],[-1.52693,-2.0395]],[[264.37183,348.76265],[1.03081,2.32992],[-0.4631,-1.04675]],[[264.2484,345.33101],[0.26442,1.11366],[-0.24124,-1.01601]],[[261.55208,340.80707],[0.56849,0.84929],[0,0]],[[261.11463,339.02281],[-0.11332,0.95811],[-0.5179,0.09202]],[[259.60671,339.31511],[0.48224,-0.10965],[-4.9579,1.12734]],[[244.77858,341.16631],[4.93186,-0.53102],[-0.36495,0.13559]],[[243.66918,341.57508],[0.37522,-0.13655],[-2.05219,0.74685]],[[237.17595,342.44759],[2.13113,-0.47702],[-1.33538,0.29891]],[[233.36431,343.97224],[1.3434,-0.26048],[-3.96057,0.76793]],[[221.09473,343.98507],[3.96691,-0.63065],[-1.45541,0.23138]],[[216.91087,345.41372],[1.39462,-0.47622],[0,0]],[[216.89509,345.41869],[0.01038,-0.00317],[-0.03209,0.04913]],[[216.84315,345.4943],[0,0],[-0.66286,0.84427]],[[214.85458,348.02711],[0.40217,-0.9952],[-0.90439,2.23798]],[[214.22695,355.24129],[0.57394,-2.34458],[-0.27021,1.10382]],[[212.7023,358.2906],[0.23015,-1.11286],[-0.27004,1.30575]],[[212.76917,362.29019],[-0.0223,-1.33319],[0,0]],[[212.76917,362.68043],[0,0],[0.69117,0.09707]]],&quot;closed&quot;:true}],&quot;index&quot;:null}" fill="url(#color-2)" stroke="none" stroke-width="0.5" stroke-linecap="butt"/><path d="" data-paper-data="{&quot;index&quot;:null}" fill="#000000" stroke="none" stroke-width="0.5" stroke-linecap="butt"/><path d="" data-paper-data="{&quot;noHover&quot;:false,&quot;origItem&quot;:[&quot;Path&quot;,{&quot;applyMatrix&quot;:true,&quot;segments&quot;:[[[214.21936,363.46624],[-0.30208,-0.37388],[3.00673,0.15442]],[[223.17564,365.12684],[-2.72214,-1.01229],[0.78421,0.29162]],[[225.23038,366.56847],[-0.80035,-0.24385],[0.7421,0.2261]],[[227.55523,366.4612],[-0.77495,0.03576],[3.50491,0]],[[238.06996,366.4612],[-3.50491,0],[-1.08058,-2.14878]],[[237.21302,359.55162],[0.01277,2.28708],[0,0]],[[239.71302,357.05162],[-2.5,0],[2.5,0]],[[242.21302,359.55162],[0,0],[-0.01909,2.79627]],[[244.14909,365.09479],[-2.53148,-1.37374],[0,0]],[[244.57107,366.4612],[0,0],[7.03354,0]],[[265.67169,366.4612],[-7.03354,0],[3.04925,0]],[[274.81964,366.4612],[-3.04923,-0.00986],[0.84642,0.00274]],[[277.35997,366.4598],[-0.84249,-0.07098],[-2.84376,-3.86932]],[[269.2555,354.64224],[2.9011,3.87495],[-1.52693,-2.0395]],[[264.37183,348.76265],[1.03081,2.32992],[-0.4631,-1.04675]],[[264.2484,345.33101],[0.26442,1.11366],[-0.24124,-1.01601]],[[261.55208,340.80707],[0.56849,0.84929],[0,0]],[[261.11463,339.02281],[-0.11332,0.95811],[-0.5179,0.09202]],[[259.60671,339.31511],[0.48224,-0.10965],[-4.9579,1.12734]],[[244.77858,341.16631],[4.93186,-0.53102],[-0.36495,0.13559]],[[243.66918,341.57508],[0.37522,-0.13655],[-2.05219,0.74685]],[[237.17595,342.44759],[2.13113,-0.47702],[-1.33538,0.29891]],[[233.36431,343.97224],[1.3434,-0.26048],[-3.96057,0.76793]],[[221.09473,343.98507],[3.96691,-0.63065],[-1.45541,0.23138]],[[216.91087,345.41372],[1.39462,-0.47622],[0,0]],[[216.89509,345.41869],[0.01038,-0.00317],[-0.03209,0.04913]],[[216.84315,345.4943],[0,0],[-0.66286,0.84427]],[[214.85458,348.02711],[0.40217,-0.9952],[-0.90439,2.23798]],[[214.22695,355.24129],[0.57394,-2.34458],[-0.27021,1.10382]],[[212.7023,358.2906],[0.23015,-1.11286],[-0.27004,1.30575]],[[212.76917,362.29019],[-0.0223,-1.33319],[0,0]],[[212.76917,362.68043],[0,0],[0.69117,0.09707]]],&quot;closed&quot;:true}],&quot;index&quot;:null}" fill="url(#color-3)" stroke="none" stroke-width="0.5" stroke-linecap="butt"/><path d="" fill="#000000" stroke="none" stroke-width="0.5" stroke-linecap="butt"/><path d="M546.92479,323.89941c0.35177,4.57306 0.15313,9.25171 0.50608,13.84012c0.09073,0.21153 0.14098,0.44455 0.14098,0.6893c0,0.02423 -0.00049,0.04835 -0.00147,0.07234c-0.02236,0.80394 -0.24124,1.29564 -0.56125,1.55589c-0.56713,-0.0279 -1.11333,-0.05708 -1.60961,-0.0571c-1.43557,-0.00024 -4.07464,0.49559 -5.37875,-0.16026c-0.80651,-0.4056 -1.5801,-1.44879 -2.45782,-1.75479c-0.00356,-0.0039 -0.00729,-0.00779 -0.01118,-0.01169c-0.09835,-0.09835 -0.19671,-0.08726 -0.26462,-0.05807c-0.05362,-0.00826 -0.10767,-0.01341 -0.16216,-0.01515c0,0 -0.25,0 -0.25,0.25c0,0.04777 0.00913,0.08641 0.0239,0.11767c-0.46205,0.44691 -0.94411,0.87764 -1.44738,1.27975c0.30764,-0.61183 0.62467,-1.21323 0.94246,-1.79934c0.02516,0.0687 0.08373,0.14544 0.21959,0.15166c0.24974,0.01143 0.26117,-0.23831 0.26117,-0.23831l-0.06486,-0.09234c1.409,-1.34971 1.04961,-5.80644 1.06512,-7.81871c0,-2.01446 0.7052,-7.4982 -1.5998,-8.05466c-0.06965,-0.04572 -0.1502,-0.04572 -0.1502,-0.04572c-0.03488,0.00111 -0.06881,0.00309 -0.10189,0.00585c-0.04821,-0.00388 -0.09758,-0.00585 -0.14811,-0.00585c0,0 -0.0963,0 -0.16936,0.05977c-0.146,0.03762 -0.27755,0.08896 -0.4074,0.14321c0.10852,-0.20931 0.21048,-0.42244 0.30434,-0.64036c0,0 0.03897,-0.08767 0.1194,-0.2081c-0.3644,-0.01846 -0.73139,-0.04554 -1.10153,-0.08246c-0.94577,-0.09434 -3.7619,-0.26256 -4.44045,-0.69933c-2.14695,-1.38195 -1.83915,-2.3924 -1.8814,-4.42645c-0.04754,-2.2883 -0.00887,-4.92219 0.23993,-7.45243c-1.40813,-0.47508 -2.52504,-1.48061 -4.17714,-1.82359c-2.14785,-0.74721 -3.25036,-1.51501 -4.38966,-3.53102c-1.66442,-2.94522 -2.67754,-9.57163 2.16469,-10.18369c2.0267,-0.25617 4.38046,1.29286 6.54048,1.16655c1.38036,-0.08072 3.09142,-0.49249 4.66409,-0.43061c-0.84173,-2.22677 -1.28933,-4.52778 -0.45103,-6.61243c1.27245,-3.16426 4.00774,-2.76538 6.8651,-2.46695c4.75843,0.49698 8.49665,2.41535 11.64104,6.00581c4.66647,5.51451 5.60228,13.17163 4.85562,20.13986c-0.3067,2.86233 -1.16638,6.19165 -3.50484,8.13211c-1.91656,1.59037 -4.15972,1.33735 -6.4581,1.47535c0.08356,0.16519 0.1704,0.32638 0.26011,0.48418c-0.07597,0.0476 -0.14869,0.09859 -0.2183,0.15271c0.38868,0.9411 0.52657,2.06813 0.5942,2.9473zM553.46393,303.92929c-0.32332,-4.17695 -1.52537,-8.29163 -4.27614,-11.44892c-2.63837,-3.01807 -5.70046,-4.63039 -9.7263,-5.01173c-0.74151,-0.07024 -2.9285,-0.57982 -3.64072,-0.12555c-0.60122,0.38347 -0.39209,2.57884 -0.28846,3.06256c0.58015,2.70803 1.95815,5.19344 3.07367,7.70336l0.65484,1.47339c0.08902,0.18877 0.13878,0.3997 0.13878,0.62223c0,0.8067 -0.65396,1.46066 -1.46066,1.46066c-0.55962,0 -1.04574,-0.31471 -1.29102,-0.7768l-0.80901,-1.45623c-0.74416,-0.7367 -0.80675,-2.07037 -1.67267,-2.65923c-1.52269,-1.0355 -5.49597,0.38818 -7.2373,0.20943c-0.70097,-0.07196 -4.69217,-1.58409 -5.10261,-0.97089c-1.70999,2.55477 0.86338,7.03199 3.31484,7.79339c1.53157,0.35834 2.47811,1.2931 3.77441,1.84861c0.12286,-0.69106 0.26722,-1.3593 0.43607,-1.9938c0,0 0.38432,-1.40919 1.79351,-1.02486c1.40919,0.38432 1.02486,1.79351 1.02486,1.79351c-0.09423,0.33549 -0.17721,0.67963 -0.25048,1.03071c0.5917,-0.17584 1.15851,-0.34423 1.59837,-0.36947c3.54733,-0.20353 7.36105,0.06658 10.86434,-0.48417c3.01494,-0.47399 5.26545,-1.16384 8.39666,-0.48487l0.6451,-0.18704c0,0 0.01417,-0.00202 0.03991,-0.00426zM532.09631,314.01829l-0.54821,0.13856c0,0 -0.1282,0.02564 -0.31555,0.02323c-0.00462,0.096 -0.00943,0.19154 -0.01445,0.28657c-0.03727,0.70508 -0.48553,2.93555 0.45747,3.34662c0.99385,0.43324 2.15967,0.1941 3.23844,0.30226c3.0498,0.30579 5.87589,-0.11305 8.82641,-0.47177c0.08821,-0.01834 0.18358,-0.03026 0.2867,-0.0346c0.47991,-0.05741 0.96339,-0.11258 1.45192,-0.16215c1.55312,-0.13997 4.10861,0.31662 5.36276,-0.82182c0.78426,-0.7119 1.32884,-1.62182 1.71029,-2.60889c-0.41446,-0.0215 -0.78322,-0.21576 -1.03563,-0.51216c-6.22137,1.39357 -13.14243,0.51414 -19.42016,0.51414zM540.06509,322.15356c0.00212,4.27992 -0.16572,8.57172 -0.16693,12.85918c0.02444,0.22958 0.14034,1.84963 0.35694,2.18198c0.39855,0.61152 2.82793,0.57849 3.02133,-0.17897c0.12258,-0.4801 0.22159,-0.96211 0.30003,-1.44569c-0.23451,-2.81372 -0.04666,-5.68933 -0.12829,-8.48456c-0.20681,-1.68985 -0.45312,-3.37307 -0.61617,-5.03465c-0.05293,-0.24451 -0.08125,-0.54102 -0.07572,-0.85037c-0.01327,-0.16747 -0.02546,-0.33469 -0.03646,-0.50165c-0.84427,0.10037 -1.68231,0.19724 -2.5217,0.27417zM540.32666,311.06086c0.10631,-0.94332 0.15949,-1.89419 0.158,-2.84348l-0.04754,-0.24615c-2.98355,0.21683 -6.01728,0.2871 -8.94173,0.59276c-0.07253,0.88365 -0.11595,1.77895 -0.15038,2.66386l0.75129,-0.13088c2.60791,0 5.41154,0.19973 8.23681,0.30159c-0.02199,-0.19778 -0.00645,-0.33769 -0.00645,-0.33769zM547.74398,308.4651c-0.10278,0.925 -0.15532,1.85672 -0.16357,2.78767c1.76506,-0.18622 3.47652,-0.52031 5.08748,-1.08243c0,0 0.32234,-0.10744 0.70791,-0.06323c0.10223,-1.06433 0.16621,-2.15559 0.17946,-3.25713l-1.41007,0.12237c-1.66779,-0.3817 -3.01223,-0.26791 -4.39908,-0.02521zM543.40598,308.21738c-0.00149,1.05699 -0.06062,2.11541 -0.17587,3.16609c0,0 -0.00301,0.02704 -0.01189,0.07335c0.48141,0.00014 0.96173,-0.00553 1.44009,-0.01848c0.00461,-1.04654 0.05327,-2.09479 0.16883,-3.13479l-0.00127,-0.81063c-0.49572,0.07821 -0.99523,0.14655 -1.49774,0.20695z" fill="#000000" stroke="none" stroke-width="0.5" stroke-linecap="butt"/><path d="M547.71232,306.92268c1.38685,-0.2427 2.79081,-0.3649 4.4586,0.0168l1.41829,-0.11379c-0.01325,1.10154 -0.0724,2.23253 -0.17463,3.29686c-0.38557,-0.04422 -0.71032,0.06825 -0.71032,0.06825c-1.61096,0.56212 -3.39205,0.90095 -5.15711,1.08717c0.00824,-0.93095 0.05301,-1.89548 0.1558,-2.82049z" data-paper-data="{&quot;noHover&quot;:false,&quot;origItem&quot;:[&quot;Path&quot;,{&quot;applyMatrix&quot;:true,&quot;segments&quot;:[[[1095.48797,616.93017],[0,0],[-0.20556,1.85001]],[[1095.16083,622.5055],[0.01649,-1.8619],[3.53012,-0.37244]],[[1105.33578,620.34065],[-3.22192,1.12423],[0,0]],[[1106.75161,620.21419],[-0.77114,-0.08843],[0.20447,-2.12866]],[[1107.11054,613.69993],[-0.02651,2.20308],[0,0]],[[1104.2904,613.94467],[0,0],[-3.33558,-0.7634]],[[1095.49225,613.89425],[2.7737,-0.4854],[0,0]]],&quot;closed&quot;:true}]}" fill="url(#color-4)" stroke="none" stroke-width="0.5" stroke-linecap="butt"/><path d="M540.37202,311.41364c-2.82526,-0.10186 -5.70695,-0.30221 -8.31486,-0.30221l-0.75168,0.12975c0.03443,-0.88491 0.07693,-1.80381 0.14946,-2.68746c2.92445,-0.30566 6.03766,-0.38045 9.02121,-0.59728l0.04825,0.24818c0.00149,0.94929 -0.05159,1.92535 -0.15789,2.86867c0,0 -0.01647,0.14257 0.00552,0.34035z" data-paper-data="{&quot;noHover&quot;:false,&quot;origItem&quot;:[&quot;Path&quot;,{&quot;applyMatrix&quot;:true,&quot;segments&quot;:[[[1080.65332,622.12172],[0,0],[0.21261,-1.88664]],[[1080.96932,616.43475],[0.00299,1.89858],[0,0]],[[1080.87424,615.94245],[0,0],[-5.96709,0.43366]],[[1062.99078,617.12796],[5.8489,-0.61131],[-0.14506,1.76731]],[[1062.69003,622.45567],[0.06885,-1.76981],[0,0]],[[1064.19261,622.19392],[0,0],[5.21582,0]],[[1080.66622,622.7971],[-5.65053,-0.20373],[-0.04399,-0.39556]]],&quot;closed&quot;:true}]}" fill="url(#color-5)" stroke="none" stroke-width="0.5" stroke-linecap="butt"/><path d="M543.31291,307.661c0.50251,-0.0604 1.03291,-0.12856 1.52863,-0.20677l0.00923,0.81491c-0.11555,1.04 -0.175,2.16236 -0.17961,3.2089c-0.47835,0.01295 -0.98722,0.01758 -1.46863,0.01745c0.00888,-0.04631 0.01158,-0.07348 0.01158,-0.07348c0.11525,-1.05068 0.17201,-2.18511 0.1735,-3.2421z" data-paper-data="{&quot;noHover&quot;:false,&quot;origItem&quot;:[&quot;Path&quot;,{&quot;applyMatrix&quot;:true,&quot;segments&quot;:[[[1086.81195,616.43475],[0,0],[-0.00298,2.11398]],[[1086.46022,622.76693],[0.2305,-2.10137],[0,0]],[[1086.43644,622.91363],[0.01777,-0.09261],[0.96282,0.00027]],[[1089.31661,622.87666],[-0.95671,0.02591],[0.00922,-2.09308]],[[1089.65427,616.60707],[-0.23111,2.08],[0,0]],[[1089.65172,614.98581],[0,0],[-0.99144,0.15641]],[[1086.65624,615.3997],[1.00502,-0.1208],[0,0]]],&quot;closed&quot;:true}]}" fill="url(#color-6)" stroke="none" stroke-width="0.5" stroke-linecap="butt"/><path d="M540.46182,347.74259c0.00045,-0.02989 -0.0074,-0.27099 -0.00667,-0.29326l0.01177,0.28831z" data-paper-data="{&quot;noHover&quot;:false,&quot;origItem&quot;:[&quot;Path&quot;,{&quot;applyMatrix&quot;:true,&quot;segments&quot;:[[1084.41817,683.30254],[[1084.40675,683.30483],[0,0],[0.00679,0.01464]],[[1084.42703,683.3488],[-0.00673,-0.01468],[2.37574,5.18106]],[[1085.23593,700.62198],[0.87263,-5.99234],[0.56264,4.20632]],[[1086.79716,713.29588],[-0.39405,-4.26276],[0.2154,1.93864]],[[1087.24948,719.13008],[-0.40813,-1.90739],[0.63079,2.94797]],[[1091.18463,717.20284],[-0.24832,0.66559],[0.1736,-0.46531]],[[1091.32275,712.06563],[0.01788,0.32408],[-0.55598,-10.07886]],[[1087.52169,680.62017],[3.8025,9.42836],[0,0]],[[1087.42007,680.28843],[0.05167,0.20687],[-1.08495,0.44018]],[[1083.97297,681.07658],[1.18752,-0.0824],[0,0]]],&quot;closed&quot;:true}]}" fill="url(#color-7)" stroke="none" stroke-width="0.5" stroke-linecap="butt"/><path d="M540.46124,347.74315l0.00058,-0.00056c-0.00006,0.0037 -0.00024,0.00417 -0.00058,0.00056z" data-paper-data="{&quot;noHover&quot;:false,&quot;origItem&quot;:[&quot;Path&quot;,{&quot;applyMatrix&quot;:true,&quot;segments&quot;:[[1084.41817,683.30254],[[1084.40675,683.30483],[0,0],[0.00679,0.01464]],[[1084.42703,683.3488],[-0.00673,-0.01468],[2.37574,5.18106]],[[1085.23593,700.62198],[0.87263,-5.99234],[0.56264,4.20632]],[[1086.79716,713.29588],[-0.39405,-4.26276],[0.2154,1.93864]],[[1087.24948,719.13008],[-0.40813,-1.90739],[0.63079,2.94797]],[[1091.18463,717.20284],[-0.24832,0.66559],[0.1736,-0.46531]],[[1091.32275,712.06563],[0.01788,0.32408],[-0.55598,-10.07886]],[[1087.52169,680.62017],[3.8025,9.42836],[0,0]],[[1087.42007,680.28843],[0.05167,0.20687],[-1.08495,0.44018]],[[1083.97297,681.07658],[1.18752,-0.0824],[0,0]]],&quot;closed&quot;:true}]}" fill="url(#color-8)" stroke="none" stroke-width="0.5" stroke-linecap="butt"/><path d="M541.26349,338.67185c0.40272,0.17887 1.04194,0.34344 1.74815,0.49505l-0.19859,0.28735l-0.0053,-0.00075c0.00018,0.00247 0.00035,0.00494 0.00051,0.00741c0.05349,0.87164 -1.37352,1.58039 -2.85676,2.25932c-0.53962,0.58343 -1.06107,1.17049 -1.68309,1.74573c-0.26744,0.2649 -0.70907,0.50092 -0.88846,0.7794c-0.27727,0.4304 1.80734,0.17559 2.0367,0.11394c0.16035,-0.0431 0.9588,-0.59488 1.01124,-0.63751c1.60046,-1.30106 3.99029,-2.73119 4.19746,-4.23823c0.49273,0.09208 0.95735,0.17843 1.33774,0.2595c0.41403,0.08822 0.84891,0.18851 1.29721,0.29157c-0.45316,1.33883 -2.35606,2.55473 -3.81162,3.7281c-0.54583,0.44001 -0.94752,1.06591 -2.10194,1.36002c-1.82442,0.46481 -5.00477,0.31709 -6.2078,-0.44159c-0.2447,0.06645 -0.5272,0.11879 -0.85722,0.15251c-5.62877,0.57509 -5.46703,-2.00165 -5.09145,-2.99258c1.0858,-1.04204 2.31323,-2.36544 4.6121,-3.1261c0.80224,-0.26545 1.73952,-0.50769 2.72918,-0.7298c0.02361,0.00794 0.05077,0.0131 0.08202,0.01453c0.09814,0.00449 0.15947,-0.03134 0.19778,-0.07651c0.05982,-0.01308 0.1198,-0.02609 0.17992,-0.03902c0.99867,0.00107 1.97566,-0.03326 2.89395,-0.08454c0.55984,0.20274 0.91305,0.66555 1.37827,0.87218zM535.89913,339.42999c-2.02896,0.6547 -3.09031,1.88524 -4.05244,2.78858c-0.09376,0.25715 -0.8444,1.60515 0.48133,1.77482c1.21026,0.15489 1.71504,-0.69549 1.91596,-0.89451c0.74857,-0.74148 2.06252,-1.34844 3.27482,-1.983c0.70876,-0.75736 1.45757,-1.50771 2.49567,-2.2182l0.55701,-0.38023c0.0474,-0.03236 0.10741,-0.06076 0.17757,-0.08506c-0.06857,-0.03536 -0.13307,-0.07138 -0.19315,-0.10798c-1.65906,0.3142 -3.33532,0.67917 -4.65676,1.10558z" fill="#000000" stroke="none" stroke-width="0.5" stroke-linecap="butt"/><path d="M540.42366,343.73414c-0.05244,0.04264 -0.85456,0.59396 -1.01491,0.63706c-0.22936,0.06164 -2.3223,0.31497 -2.04504,-0.11543c0.17939,-0.27847 0.61949,-0.51485 0.88693,-0.77975c0.62202,-0.57525 1.12361,-1.17813 1.66322,-1.76156c1.48324,-0.67893 2.9564,-1.39369 2.90291,-2.26533c-0.00001,-0.00021 -0.00015,-0.00025 -0.0004,-0.00014l0.19545,-0.28203c0.52845,0.11344 1.09441,0.21963 1.62687,0.31913c-0.21994,1.50318 -2.61921,2.95077 -4.21504,4.24807z" data-paper-data="{&quot;noHover&quot;:false,&quot;origItem&quot;:[&quot;Path&quot;,{&quot;applyMatrix&quot;:true,&quot;segments&quot;:[[1084.41817,683.30254],[[1084.40675,683.30483],[0,0],[0.00679,0.01464]],[[1084.42703,683.3488],[-0.00673,-0.01468],[2.37574,5.18106]],[[1085.23593,700.62198],[0.87263,-5.99234],[0.56264,4.20632]],[[1086.79716,713.29588],[-0.39405,-4.26276],[0.2154,1.93864]],[[1087.24948,719.13008],[-0.40813,-1.90739],[0.63079,2.94797]],[[1091.18463,717.20284],[-0.24832,0.66559],[0.1736,-0.46531]],[[1091.32275,712.06563],[0.01788,0.32408],[-0.55598,-10.07886]],[[1087.52169,680.62017],[3.8025,9.42836],[0,0]],[[1087.42007,680.28843],[0.05167,0.20687],[-1.08495,0.44018]],[[1083.97297,681.07658],[1.18752,-0.0824],[0,0]]],&quot;closed&quot;:true}]}" fill="url(#color-9)" stroke="none" stroke-width="0.5" stroke-linecap="butt"/><path d="M540.57489,338.31468c0.06007,0.03661 0.12559,0.07288 0.19416,0.10824c-0.07016,0.0243 -0.13017,0.0527 -0.17757,0.08506l-0.5563,0.38042c-1.03809,0.71049 -1.76879,1.47325 -2.47755,2.23061c-1.2123,0.63455 -2.57177,1.25044 -3.32035,1.99192c-0.20092,0.19902 -0.71056,1.04867 -1.92082,0.89378c-1.32572,-0.16967 -0.58724,-1.5206 -0.49348,-1.77775c0.96212,-0.90333 2.05094,-2.15465 4.0799,-2.80934c1.32145,-0.4264 3.01296,-0.78873 4.67202,-1.10293z" data-paper-data="{&quot;noHover&quot;:false,&quot;origItem&quot;:[&quot;Path&quot;,{&quot;applyMatrix&quot;:true,&quot;segments&quot;:[[[1072.00798,692.02832],[1.24434,-4.26381],[-1.91055,6.54663]],[[1072.06621,714.02337],[-0.64499,-6.67517],[0.50528,1.66908]],[[1077.56871,724.09509],[-2.8113,0.67928],[2.56645,-0.62012]],[[1078.65013,716.2491],[0.16183,1.45645],[-0.60293,-5.42633]],[[1079.31067,700.10372],[-0.5049,5.37738],[-0.71558,-5.47088]],[[1077.96453,683.5416],[0.00485,5.61117],[0,0]],[[1077.96453,680.53681],[0,0],[0,-0.25573]],[[1078.05912,679.79663],[-0.06173,0.23639],[-0.21497,-0.12498]],[[1077.43171,679.39415],[0.20304,0.14337],[-2.14075,4.02126]]],&quot;closed&quot;:true}]}" fill="url(#color-10)" stroke="none" stroke-width="0.5" stroke-linecap="butt"/><path d="M540.18981,320.9321c0.83939,-0.07693 1.68995,-0.17443 2.53422,-0.27479c0.35168,5.33911 1.93054,11.03082 0.55979,16.3995c-0.1934,0.75745 -2.63836,0.79034 -3.03691,0.17882c-0.2166,-0.33235 -0.3376,-1.95375 -0.36203,-2.18333c0.00121,-4.28746 0.17196,-8.65925 0.16984,-12.93917z" data-paper-data="{&quot;noHover&quot;:false,&quot;origItem&quot;:[&quot;Path&quot;,{&quot;applyMatrix&quot;:true,&quot;segments&quot;:[[[1080.13018,644.30709],[0,0],[0.00423,8.55984]],[[1079.79632,670.02545],[0.00242,-8.57492],[0.04887,0.45917]],[[1080.5102,674.38941],[-0.43321,-0.6647],[0.79709,1.22304]],[[1086.55285,674.03147],[-0.38679,1.51491],[2.7415,-10.73736]],[[1085.43966,641.39766],[0.70336,10.67823],[-1.68854,0.20073]],[[1080.39626,641.946],[1.67878,-0.15386],[0,0]]],&quot;closed&quot;:true}]}" fill="url(#color-11)" stroke="none" stroke-width="0.5" stroke-linecap="butt"/><path d="M553.46181,303.95126l-0.64557,0.188c-3.13121,-0.67897 -5.39191,0.02392 -8.40685,0.49791c-3.50329,0.55075 -7.36105,0.28707 -10.90839,0.4906c-0.43986,0.02524 -1.01127,0.19124 -1.60297,0.36708c0.07327,-0.35108 0.15507,-0.69596 0.2493,-1.03145c0,0 0.37752,-1.41469 -1.03166,-1.79901c-1.40919,-0.38432 -1.73307,0.96734 -1.73307,0.96734c-0.16885,0.6345 -0.37231,1.36154 -0.49517,2.05261c-1.29631,-0.5555 -2.2504,-1.49946 -3.78197,-1.8578c-2.45146,-0.76139 -5.03084,-5.26128 -3.32085,-7.81605c0.41044,-0.6132 4.48502,0.89769 5.18599,0.96965c1.74133,0.17876 5.7144,-1.24738 7.23709,-0.21188c0.86592,0.58886 0.90586,1.89004 1.65003,2.62674l0.79682,1.45227c0.24528,0.46209 0.72027,0.77652 1.27989,0.77652c0.8067,0 1.44548,-0.64927 1.44548,-1.45597c0,-0.22254 -0.05145,-0.43252 -0.14046,-0.62129l-0.65801,-1.47129c-1.11552,-2.50992 -2.48121,-5.00148 -3.06136,-7.70951c-0.10362,-0.48372 -0.30757,-2.68031 0.29365,-3.06378c0.71222,-0.45427 2.91575,0.05581 3.65726,0.12605c4.02584,0.38134 7.11803,2.02114 9.75639,5.03922c2.75077,3.15729 3.95102,7.30279 4.27434,11.47974c-0.02574,0.00225 -0.03993,0.00431 -0.03993,0.00431z" data-paper-data="{&quot;noHover&quot;:false,&quot;origItem&quot;:[&quot;Path&quot;,{&quot;applyMatrix&quot;:true,&quot;segments&quot;:[[[1106.92786,607.85856],[-0.05147,0.00449],[-0.64665,-8.3539]],[[1098.37558,584.96072],[5.50155,6.31458],[-5.27673,-6.03614]],[[1078.92297,574.93726],[8.05168,0.76268],[-1.48302,-0.14047]],[[1071.64153,574.68617],[1.42444,-0.90854],[-1.20243,0.76694]],[[1071.06461,580.81128],[-0.20725,-0.96743],[1.1603,5.41606]],[[1077.21195,596.218],[-2.23104,-5.01984],[0,0]],[[1078.52163,599.16477],[0,0],[0.17803,0.37754]],[[1078.7992,600.40924],[0,-0.44508],[0,1.6134]],[[1075.87788,603.33056],[1.6134,0],[-1.11924,0]],[[1073.29585,601.77695],[0.49056,0.92419],[0,0]],[[1071.67782,598.8645],[0,0],[-1.48833,-1.4734]],[[1068.33248,593.54604],[1.73184,1.17773],[-3.04537,-2.07099]],[[1053.85789,593.96489],[3.48266,0.35751],[-1.40194,-0.14391]],[[1043.65268,592.0231],[0.82087,-1.22639],[-3.41998,5.10954]],[[1050.28235,607.60987],[-4.90292,-1.52279],[3.06313,0.71668]],[[1057.83118,611.30708],[-2.59262,-1.11101],[0.24572,-1.38213]],[[1058.70331,607.31948],[-0.3377,1.26901],[0,0]],[[1062.29034,605.26975],[-2.81838,-0.76865],[2.81838,0.76865]],[[1064.34007,608.85678],[0,0],[-0.18846,0.67098]],[[1063.83911,610.9182],[0.14655,-0.70216],[1.1834,-0.35168]],[[1067.03584,610.17926],[-0.87972,0.05047],[7.09467,-0.40706]],[[1088.76453,609.21092],[-7.00658,1.10151],[6.02988,-0.94797]],[[1105.55785,608.24117],[-6.26241,-1.35794],[0,0]],[1106.84804,607.86709]],&quot;closed&quot;:true}]}" fill="url(#color-12)" stroke="none" stroke-width="0.5" stroke-linecap="butt"/><path d="M551.55702,313.49429c0.25241,0.2964 0.62175,0.49344 1.03621,0.51494c-0.38145,0.98707 -0.92558,1.90758 -1.70984,2.61948c-1.25414,1.13844 -3.81292,0.6949 -5.36604,0.83488c-0.48853,0.04957 -0.97756,0.11404 -1.45747,0.17145c-0.10312,0.00434 -0.20062,0.01873 -0.28882,0.03708c-2.95053,0.35872 -5.84691,0.76216 -8.89672,0.45637c-1.07876,-0.10816 -2.2459,0.12591 -3.23975,-0.30733c-0.943,-0.41107 -0.49513,-2.65487 -0.45786,-3.35995c0.00503,-0.09503 0.01,-0.19167 0.01462,-0.28767c0.18736,0.00241 0.3156,-0.02351 0.3156,-0.02351l0.54837,-0.13951c6.27773,0 13.28034,0.87735 19.50171,-0.51622z" data-paper-data="{&quot;noHover&quot;:false,&quot;origItem&quot;:[&quot;Path&quot;,{&quot;applyMatrix&quot;:true,&quot;segments&quot;:[[[1064.19261,628.03656],[12.55545,0],[0,0]],[1063.09619,628.31369],[[1062.46509,628.36014],[0.37471,0.00483],[-0.00924,0.19201]],[[1062.43618,628.93328],[0.01005,-0.19005],[-0.07454,1.41016]],[[1063.35112,635.62651],[-1.886,-0.82214],[1.9877,0.86648]],[[1069.828,636.23104],[-2.15753,-0.21633],[6.09961,0.61158]],[[1087.48083,635.2875],[-5.90106,0.71743],[0.17641,-0.03668]],[[1088.05424,635.21831],[-0.20624,0.00867],[0.95982,-0.11483]],[[1090.95808,634.89401],[-0.97707,0.09914],[3.10624,-0.27995]],[[1101.6836,633.25037],[-2.50829,2.27687],[1.56851,-1.42379]],[[1105.10419,628.03258],[-0.76291,1.97414],[-0.82893,-0.04299]],[[1103.03293,627.00827],[0.50482,0.59279],[-12.44275,2.78715]]],&quot;closed&quot;:true}]}" fill="url(#color-13)" stroke="none" stroke-width="0.5" stroke-linecap="butt"/><path d="M549.45727,313.3923l-0.33386,4.00637" fill="none" stroke="#000000" stroke-width="1.5" stroke-linecap="round"/><path d="M541.61145,319.40184v-2.00319l0.33387,-3.33865" fill="none" stroke="#000000" stroke-width="1.5" stroke-linecap="round"/><path d="M536.43655,319.068l0.83466,-6.51037" fill="none" stroke="#000000" stroke-width="1.5" stroke-linecap="round"/><path d="M534.43336,313.22535l-0.83466,4.67411" fill="none" stroke="#000000" stroke-width="1.5" stroke-linecap="round"/><path d="M545.4509,317.89947l0.33386,-4.84104" fill="none" stroke="#000000" stroke-width="1.5" stroke-linecap="round"/><path d="M551.96127,314.89468l-21.36735,1.50239" fill="none" stroke="#000000" stroke-width="1.5" stroke-linecap="round"/><path d="M540.99092,323.85062c-1.70871,0.68232 -3.16471,1.67314 -4.903,2.39455c-3.00594,1.2475 -6.67179,1.23832 -9.81334,1.01009c-1.55957,-0.11329 -3.99844,0.36999 -5.44624,-0.3129c-2.03285,-0.95883 -3.00553,-2.3668 -1.59055,-4.61189c1.03344,-1.6397 4.03146,-1.73211 5.66661,-1.62777c0.21335,-0.04561 0.42654,-0.08821 0.63957,-0.12865c-0.07705,-0.02697 -0.15247,-0.05485 -0.22605,-0.08371c1.17513,0.00354 2.32918,0.04104 3.54992,0.08535c2.49778,-0.05054 4.84426,0.39186 7.33669,0.83758c1.51981,0.23446 4.12563,0.83705 4.78637,2.43733zM530.16915,322.68782c-1.68202,0.38939 -3.36649,0.58971 -5.06441,0.92933c-0.90004,-0.06218 -1.8288,-0.03344 -2.69875,0.2056c-0.3083,0.08472 -1.19198,0.18505 -0.90332,0.32248c1.27488,0.60692 3.64164,0.10015 5.00028,0.19766c2.68786,0.19293 5.91237,0.29115 8.48676,-0.80477c0.56011,-0.23843 1.0952,-0.49979 1.62054,-0.76798c-0.25648,-0.01761 -0.5121,-0.0414 -0.76651,-0.07317c-1.44105,-0.17997 -2.84078,-0.52676 -4.24608,-0.85348c-0.31408,0.79809 -1.08582,0.85922 -1.42852,0.84435z" data-paper-data="{&quot;index&quot;:null}" fill="#000000" stroke="none" stroke-width="0.5" stroke-linecap="butt"/><path d="M531.63291,321.8211c1.40531,0.32673 2.81127,0.6911 4.25232,0.87107c0.25441,0.03177 0.5101,0.05645 0.76659,0.07406c-0.52534,0.26819 -1.06025,0.53382 -1.62036,0.77227c-2.5744,1.09591 -5.88013,1.01082 -8.56797,0.81789c-1.35865,-0.09751 -3.72749,0.39941 -5.00237,-0.20752c-0.28868,-0.13743 0.59492,-0.23926 0.90322,-0.32398c0.86994,-0.23904 1.79867,-0.26848 2.69871,-0.2063c1.69791,-0.33961 3.45845,-0.56507 5.14049,-0.95446c0.34271,0.01487 1.11529,-0.04493 1.42939,-0.84302z" data-paper-data="{&quot;noHover&quot;:false,&quot;origItem&quot;:[&quot;Path&quot;,{&quot;applyMatrix&quot;:true,&quot;segments&quot;:[[[1095.1308,664.17353],[-0.09138,-0.67994],[1.3588,3.17445]],[[1098.74344,673.81701],[-1.26643,-3.22323],[0.19447,1.79386]],[[1100.09835,679.05782],[-0.77689,-1.62856],[0.27532,0.57713]],[[1101.05124,680.72271],[-0.16893,0.61671],[0.74605,-2.72363]],[[1099.67997,670.80873],[0.28634,2.70919],[-0.56648,-5.35967]],[[1095.10764,654.38359],[3.06397,4.68256],[-0.66663,-1.01879]],[[1093.02512,651.4635],[0.71296,0.93985],[0.05562,0.51116]],[[1093.15091,652.99834],[-0.02702,-0.51205],[0.15304,2.90043]],[[1092.96554,661.65838],[0.1485,-2.88175],[1.68185,0.33738]]],&quot;closed&quot;:true}],&quot;index&quot;:null}" fill="url(#color-14)" stroke="none" stroke-width="0.5" stroke-linecap="butt"/></g></g></svg>