<svg version="1.1" xmlns="http://www.w3.org/2000/svg" xmlns:xlink="http://www.w3.org/1999/xlink" width="57" height="67.11218" viewBox="0,0,57,67.11218"><defs><linearGradient x1="528.2926" y1="394.5514" x2="528.2926" y2="413.41261" gradientUnits="userSpaceOnUse" id="color-1"><stop offset="0" stop-color="#7d7d7d"/><stop offset="1" stop-color="#adadad"/></linearGradient><linearGradient x1="-2180.12471" y1="2274.14582" x2="-2179.02878" y2="2289.00494" gradientUnits="userSpaceOnUse" id="color-2"><stop offset="0" stop-color="#7d7d7d"/><stop offset="1" stop-color="#adadad"/></linearGradient><linearGradient x1="539.00549" y1="317.64364" x2="544.95168" y2="316.57163" gradientUnits="userSpaceOnUse" id="color-3"><stop offset="0" stop-color="#006cff"/><stop offset="1" stop-color="#00a3ff"/></linearGradient><linearGradient x1="523.14541" y1="321.21266" x2="532.21809" y2="319.57699" gradientUnits="userSpaceOnUse" id="color-4"><stop offset="0" stop-color="#006cff"/><stop offset="1" stop-color="#00a3ff"/></linearGradient><linearGradient x1="534.81641" y1="318.89499" x2="536.4385" y2="318.60255" gradientUnits="userSpaceOnUse" id="color-5"><stop offset="0" stop-color="#006cff"/><stop offset="1" stop-color="#00a3ff"/></linearGradient><linearGradient x1="536.60187" y1="342.99118" x2="551.71086" y2="353.27885" gradientUnits="userSpaceOnUse" id="color-6"><stop offset="0" stop-color="#393939"/><stop offset="1" stop-color="#717171"/></linearGradient><linearGradient x1="532.75634" y1="347.91395" x2="549.69847" y2="359.4498" gradientUnits="userSpaceOnUse" id="color-7"><stop offset="0" stop-color="#393939"/><stop offset="1" stop-color="#717171"/></linearGradient><linearGradient x1="542.09971" y1="333.30363" x2="544.7214" y2="347.84555" gradientUnits="userSpaceOnUse" id="color-8"><stop offset="0" stop-color="#9e9e9e"/><stop offset="1" stop-color="#717171"/></linearGradient><linearGradient x1="527.94391" y1="335.59808" x2="530.11776" y2="347.65591" gradientUnits="userSpaceOnUse" id="color-9"><stop offset="0" stop-color="#9e9e9e"/><stop offset="1" stop-color="#717171"/></linearGradient><linearGradient x1="534.63177" y1="329.6596" x2="537.64894" y2="346.39515" gradientUnits="userSpaceOnUse" id="color-10"><stop offset="0" stop-color="#9e9e9e"/><stop offset="1" stop-color="#717171"/></linearGradient><linearGradient x1="525.10601" y1="297.92586" x2="528.40057" y2="316.20005" gradientUnits="userSpaceOnUse" id="color-11"><stop offset="0" stop-color="#9e9e9e"/><stop offset="1" stop-color="#717171"/></linearGradient><linearGradient x1="534.16466" y1="323.0967" x2="535.00607" y2="327.76379" gradientUnits="userSpaceOnUse" id="color-12"><stop offset="0" stop-color="#9e9e9e"/><stop offset="1" stop-color="#717171"/></linearGradient></defs><g transform="translate(-506.02083,-294.92949)"><g data-paper-data="{&quot;isPaintingLayer&quot;:true}" fill-rule="nonzero" stroke-linejoin="miter" stroke-miterlimit="10" stroke-dasharray="" stroke-dashoffset="0" style="mix-blend-mode: normal"><path d="" data-paper-data="{&quot;index&quot;:null}" fill="#000000" stroke="none" stroke-width="0.5" stroke-linecap="butt"/><path d="" data-paper-data="{&quot;noHover&quot;:false,&quot;origItem&quot;:[&quot;Path&quot;,{&quot;applyMatrix&quot;:true,&quot;segments&quot;:[[[214.21936,363.46624],[-0.30208,-0.37388],[3.00673,0.15442]],[[223.17564,365.12684],[-2.72214,-1.01229],[0.78421,0.29162]],[[225.23038,366.56847],[-0.80035,-0.24385],[0.7421,0.2261]],[[227.55523,366.4612],[-0.77495,0.03576],[3.50491,0]],[[238.06996,366.4612],[-3.50491,0],[-1.08058,-2.14878]],[[237.21302,359.55162],[0.01277,2.28708],[0,0]],[[239.71302,357.05162],[-2.5,0],[2.5,0]],[[242.21302,359.55162],[0,0],[-0.01909,2.79627]],[[244.14909,365.09479],[-2.53148,-1.37374],[0,0]],[[244.57107,366.4612],[0,0],[7.03354,0]],[[265.67169,366.4612],[-7.03354,0],[3.04925,0]],[[274.81964,366.4612],[-3.04923,-0.00986],[0.84642,0.00274]],[[277.35997,366.4598],[-0.84249,-0.07098],[-2.84376,-3.86932]],[[269.2555,354.64224],[2.9011,3.87495],[-1.52693,-2.0395]],[[264.37183,348.76265],[1.03081,2.32992],[-0.4631,-1.04675]],[[264.2484,345.33101],[0.26442,1.11366],[-0.24124,-1.01601]],[[261.55208,340.80707],[0.56849,0.84929],[0,0]],[[261.11463,339.02281],[-0.11332,0.95811],[-0.5179,0.09202]],[[259.60671,339.31511],[0.48224,-0.10965],[-4.9579,1.12734]],[[244.77858,341.16631],[4.93186,-0.53102],[-0.36495,0.13559]],[[243.66918,341.57508],[0.37522,-0.13655],[-2.05219,0.74685]],[[237.17595,342.44759],[2.13113,-0.47702],[-1.33538,0.29891]],[[233.36431,343.97224],[1.3434,-0.26048],[-3.96057,0.76793]],[[221.09473,343.98507],[3.96691,-0.63065],[-1.45541,0.23138]],[[216.91087,345.41372],[1.39462,-0.47622],[0,0]],[[216.89509,345.41869],[0.01038,-0.00317],[-0.03209,0.04913]],[[216.84315,345.4943],[0,0],[-0.66286,0.84427]],[[214.85458,348.02711],[0.40217,-0.9952],[-0.90439,2.23798]],[[214.22695,355.24129],[0.57394,-2.34458],[-0.27021,1.10382]],[[212.7023,358.2906],[0.23015,-1.11286],[-0.27004,1.30575]],[[212.76917,362.29019],[-0.0223,-1.33319],[0,0]],[[212.76917,362.68043],[0,0],[0.69117,0.09707]]],&quot;closed&quot;:true}],&quot;index&quot;:null}" fill="url(#color-1)" stroke="none" stroke-width="0.5" stroke-linecap="butt"/><path d="" data-paper-data="{&quot;index&quot;:null}" fill="#000000" stroke="none" stroke-width="0.5" stroke-linecap="butt"/><path d="" data-paper-data="{&quot;noHover&quot;:false,&quot;origItem&quot;:[&quot;Path&quot;,{&quot;applyMatrix&quot;:true,&quot;segments&quot;:[[[214.21936,363.46624],[-0.30208,-0.37388],[3.00673,0.15442]],[[223.17564,365.12684],[-2.72214,-1.01229],[0.78421,0.29162]],[[225.23038,366.56847],[-0.80035,-0.24385],[0.7421,0.2261]],[[227.55523,366.4612],[-0.77495,0.03576],[3.50491,0]],[[238.06996,366.4612],[-3.50491,0],[-1.08058,-2.14878]],[[237.21302,359.55162],[0.01277,2.28708],[0,0]],[[239.71302,357.05162],[-2.5,0],[2.5,0]],[[242.21302,359.55162],[0,0],[-0.01909,2.79627]],[[244.14909,365.09479],[-2.53148,-1.37374],[0,0]],[[244.57107,366.4612],[0,0],[7.03354,0]],[[265.67169,366.4612],[-7.03354,0],[3.04925,0]],[[274.81964,366.4612],[-3.04923,-0.00986],[0.84642,0.00274]],[[277.35997,366.4598],[-0.84249,-0.07098],[-2.84376,-3.86932]],[[269.2555,354.64224],[2.9011,3.87495],[-1.52693,-2.0395]],[[264.37183,348.76265],[1.03081,2.32992],[-0.4631,-1.04675]],[[264.2484,345.33101],[0.26442,1.11366],[-0.24124,-1.01601]],[[261.55208,340.80707],[0.56849,0.84929],[0,0]],[[261.11463,339.02281],[-0.11332,0.95811],[-0.5179,0.09202]],[[259.60671,339.31511],[0.48224,-0.10965],[-4.9579,1.12734]],[[244.77858,341.16631],[4.93186,-0.53102],[-0.36495,0.13559]],[[243.66918,341.57508],[0.37522,-0.13655],[-2.05219,0.74685]],[[237.17595,342.44759],[2.13113,-0.47702],[-1.33538,0.29891]],[[233.36431,343.97224],[1.3434,-0.26048],[-3.96057,0.76793]],[[221.09473,343.98507],[3.96691,-0.63065],[-1.45541,0.23138]],[[216.91087,345.41372],[1.39462,-0.47622],[0,0]],[[216.89509,345.41869],[0.01038,-0.00317],[-0.03209,0.04913]],[[216.84315,345.4943],[0,0],[-0.66286,0.84427]],[[214.85458,348.02711],[0.40217,-0.9952],[-0.90439,2.23798]],[[214.22695,355.24129],[0.57394,-2.34458],[-0.27021,1.10382]],[[212.7023,358.2906],[0.23015,-1.11286],[-0.27004,1.30575]],[[212.76917,362.29019],[-0.0223,-1.33319],[0,0]],[[212.76917,362.68043],[0,0],[0.69117,0.09707]]],&quot;closed&quot;:true}],&quot;index&quot;:null}" fill="url(#color-2)" stroke="none" stroke-width="0.5" stroke-linecap="butt"/><path d="" fill="#000000" stroke="none" stroke-width="0.5" stroke-linecap="butt"/><path d="M528.41925,331.78164c-0.9475,0.07496 -3.7488,0.40906 -4.49408,0.09961c-2.35808,-0.9791 -2.23444,-2.02813 -2.63691,-4.02242c-0.45279,-2.24356 -0.88205,-4.84252 -1.08612,-7.37676c-1.47008,-0.21771 -2.74768,-1.00912 -4.43442,-1.05353c-2.24635,-0.35427 -3.46759,-0.91428 -4.9465,-2.69617c-2.16057,-2.60318 -4.3333,-8.94471 0.32351,-10.40619c1.94909,-0.61169 4.54035,0.49515 6.64369,-0.0124c1.34414,-0.32435 2.95499,-1.03317 4.51369,-1.2513c-1.22346,-2.0421 -2.07221,-4.22719 -1.61708,-6.4275c0.69084,-3.33982 3.45351,-3.43258 6.31848,-3.64585c4.77111,-0.35517 8.79039,0.86952 12.52193,3.84512c5.57084,4.59907 7.85037,11.96867 8.35189,18.95882c0.20601,2.87133 -0.04932,6.30036 -2.0064,8.62493c-1.52943,1.81663 -3.64846,2.03652 -5.78186,2.52431c0.00072,-0.0204 -0.00083,-0.04259 -0.00518,-0.06672c-0.04436,-0.24603 -0.29039,-0.20168 -0.29039,-0.20168c-2.20259,0.39709 -4.40517,0.79419 -6.60776,1.19128c-1.90153,0.34282 -3.28494,1.02159 -4.65926,1.90767c-0.03569,0.003 -0.07142,0.00593 -0.10721,0.00875zM543.93109,311.61677c-1.05928,-4.05332 -2.97231,-7.88944 -6.23961,-10.50858c-3.13199,-2.50208 -6.43156,-3.54553 -10.46119,-3.20653c-0.74221,0.06244 -2.98491,-0.05103 -3.60523,0.52239c-0.52364,0.48406 0.07168,2.60749 0.25949,3.06515c1.05142,2.56213 2.84853,4.76362 4.39167,7.0358l0.90587,1.33383c0.1211,0.16998 0.20749,0.36874 0.24698,0.58774c0.14313,0.7939 -0.38443,1.55351 -1.17833,1.69664c-0.55074,0.09929 -1.08499,-0.12418 -1.40836,-0.53542l-1.05455,-1.28959c-0.86306,-0.59298 -1.16128,-1.89439 -2.11794,-2.32027c-1.68225,-0.74891 -5.3399,1.35714 -7.08532,1.49018c-0.70262,0.05355 -4.89878,-0.72645 -5.19391,-0.05016c-1.22958,2.81763 2.09733,6.76724 4.64499,7.08161c1.57085,0.08092 2.66822,0.83291 4.04252,1.14961c-0.0017,-0.70189 0.02181,-1.38515 0.0754,-2.03954c0,0 0.1282,-1.45502 1.58322,-1.32681c1.45502,0.1282 1.32681,1.58322 1.32681,1.58322c-0.03321,0.34689 -0.05382,0.70029 -0.06363,1.0588c0.55111,-0.27803 1.07905,-0.54432 1.50746,-0.6472c3.45494,-0.82968 7.25608,-1.24051 10.60607,-2.40409c2.88301,-1.00139 4.97542,-2.07959 8.17741,-1.96695l0.60168,-0.29853c0,0 0.01359,-0.0045 0.03852,-0.01127zM524.69251,325.33684l-0.51493,0.23363c0,0 -0.12162,0.04798 -0.30642,0.07885c0.01249,0.0953 0.0247,0.19017 0.03662,0.28459c0.08842,0.70051 0.04301,2.97512 1.04398,3.21236c1.05495,0.25003 2.15984,-0.19216 3.24069,-0.27711c3.05567,-0.24017 5.76261,-1.15378 8.60267,-2.03031c0.08356,-0.0337 0.1753,-0.06235 0.27601,-0.08492c0.46211,-0.14165 0.92813,-0.28172 1.40012,-0.41718c1.50364,-0.41331 4.0996,-0.41737 5.13187,-1.76027c0.64551,-0.83975 1.02001,-1.83186 1.22027,-2.87095c-0.4117,0.05238 -0.80907,-0.07337 -1.11007,-0.32029c-5.87541,2.47528 -12.8427,2.83777 -19.02083,3.95159zM532.26757,320.96607c-0.06274,-0.94722 -0.17912,-1.89244 -0.34901,-2.8264l-0.09046,-0.23381c-2.89774,0.74274 -5.87087,1.35016 -8.69469,2.16984c0.0854,0.8825 0.20152,1.7713 0.32464,2.64828l0.71615,-0.2621c2.56653,-0.46271 5.36112,-0.76358 8.15964,-1.16461c-0.05673,-0.19074 -0.06626,-0.33119 -0.06626,-0.33119zM539.10664,317.09547c0.06297,0.92856 0.17657,1.85482 0.33363,2.77246c1.70402,-0.49643 3.32905,-1.12887 4.81471,-1.9679c0,0 0.29816,-0.16293 0.68546,-0.18783c-0.08823,-1.06558 -0.21888,-2.15088 -0.40128,-3.23729l-1.36599,0.37061c-1.70905,-0.07974 -3.01197,0.27078 -4.33376,0.75569zM534.79353,317.62136c0.18607,1.04048 0.31567,2.0926 0.38866,3.14706c0,0 0.00184,0.02715 0.00131,0.0743c0.4738,-0.08528 0.94549,-0.17608 1.41396,-0.27369c-0.18114,-1.03075 -0.31924,-2.07101 -0.39004,-3.11501l-0.14508,-0.79754c-0.47398,0.16492 -0.95344,0.3208 -1.43726,0.4694z" fill="#000000" stroke="none" stroke-width="0.5" stroke-linecap="butt"/><path d="M538.80183,315.58314c1.32179,-0.48491 2.68179,-0.85427 4.39084,-0.77453l1.3756,-0.36362c0.1824,1.08641 0.32485,2.20996 0.41308,3.27554c-0.3873,0.02489 -0.68694,0.1932 -0.68694,0.1932c-1.48567,0.83903 -3.17838,1.48849 -4.8824,1.98492c-0.15706,-0.91764 -0.28414,-1.87481 -0.3471,-2.80338z" data-paper-data="{&quot;noHover&quot;:false,&quot;origItem&quot;:[&quot;Path&quot;,{&quot;applyMatrix&quot;:true,&quot;segments&quot;:[[[1095.48797,616.93017],[0,0],[-0.20556,1.85001]],[[1095.16083,622.5055],[0.01649,-1.8619],[3.53012,-0.37244]],[[1105.33578,620.34065],[-3.22192,1.12423],[0,0]],[[1106.75161,620.21419],[-0.77114,-0.08843],[0.20447,-2.12866]],[[1107.11054,613.69993],[-0.02651,2.20308],[0,0]],[[1104.2904,613.94467],[0,0],[-3.33558,-0.7634]],[[1095.49225,613.89425],[2.7737,-0.4854],[0,0]]],&quot;closed&quot;:true}]}" fill="url(#color-3)" stroke="none" stroke-width="0.5" stroke-linecap="butt"/><path d="M532.37479,321.30521c-2.79851,0.40103 -5.67003,0.71514 -8.23656,1.17784l-0.71673,0.26106c-0.12312,-0.87698 -0.24433,-1.78884 -0.32973,-2.67134c2.82382,-0.81968 5.87437,-1.44564 8.77211,-2.18839l0.09152,0.23568c0.16989,0.93396 0.29083,1.90396 0.35359,2.85117c0,0 0.00909,0.14323 0.06582,0.33397z" data-paper-data="{&quot;noHover&quot;:false,&quot;origItem&quot;:[&quot;Path&quot;,{&quot;applyMatrix&quot;:true,&quot;segments&quot;:[[[1080.65332,622.12172],[0,0],[0.21261,-1.88664]],[[1080.96932,616.43475],[0.00299,1.89858],[0,0]],[[1080.87424,615.94245],[0,0],[-5.96709,0.43366]],[[1062.99078,617.12796],[5.8489,-0.61131],[-0.14506,1.76731]],[[1062.69003,622.45567],[0.06885,-1.76981],[0,0]],[[1064.19261,622.19392],[0,0],[5.21582,0]],[[1080.66622,622.7971],[-5.65053,-0.20373],[-0.04399,-0.39556]]],&quot;closed&quot;:true}]}" fill="url(#color-4)" stroke="none" stroke-width="0.5" stroke-linecap="butt"/><path d="M534.60322,317.09031c0.48382,-0.1486 0.99371,-0.30978 1.46769,-0.47471l0.15367,0.80034c0.0708,1.044 0.21143,2.1591 0.39258,3.18986c-0.46846,0.09762 -0.96844,0.19246 -1.44223,0.27774c0.00052,-0.04715 -0.00164,-0.07437 -0.00164,-0.07437c-0.07299,-1.05446 -0.21841,-2.18096 -0.40448,-3.22145z" data-paper-data="{&quot;noHover&quot;:false,&quot;origItem&quot;:[&quot;Path&quot;,{&quot;applyMatrix&quot;:true,&quot;segments&quot;:[[[1086.81195,616.43475],[0,0],[-0.00298,2.11398]],[[1086.46022,622.76693],[0.2305,-2.10137],[0,0]],[[1086.43644,622.91363],[0.01777,-0.09261],[0.96282,0.00027]],[[1089.31661,622.87666],[-0.95671,0.02591],[0.00922,-2.09308]],[[1089.65427,616.60707],[-0.23111,2.08],[0,0]],[[1089.65172,614.98581],[0,0],[-0.99144,0.15641]],[[1086.65624,615.3997],[1.00502,-0.1208],[0,0]]],&quot;closed&quot;:true}]}" fill="url(#color-5)" stroke="none" stroke-width="0.5" stroke-linecap="butt"/><path d="M531.10292,349.98544c-0.73544,-0.14709 -0.58835,-0.88252 -0.58835,-0.88252l0.05668,-0.2431c-1.82076,1.74673 -3.84891,2.06795 -5.32728,-0.78984c-0.7149,-1.38194 -0.33819,-2.55966 -0.16618,-3.94897c0.27898,-2.25342 0.40889,-4.54615 1.09613,-6.71817c0.67268,-2.12602 1.92068,-3.97941 2.41647,-6.1132c0,0 0.0115,-0.04699 0.03884,-0.12175c1.10628,-0.6451 2.27792,-1.1402 3.79825,-1.41429c2.20259,-0.39709 4.40517,-0.79419 6.60775,-1.19128c0,0 0.00319,-0.00057 0.00878,-0.00196c1.34322,1.71761 3.028,2.83166 4.50702,4.42341c2.21532,2.38417 3.48205,5.82422 4.36101,8.84892c0.36599,1.25945 1.34068,2.95285 1.56491,4.40734c0.11892,0.07221 0.23769,0.14392 0.35633,0.21507c1.31376,0.78787 3.18947,1.5085 4.05312,2.87816c1.36489,2.1646 0.86203,5.4914 -1.44265,6.42226c0.19542,0.29223 0.3477,0.61826 0.44308,0.98634c1.62675,6.27791 -6.12259,4.90419 -9.09699,4.04129c-3.11512,-1.64502 -7.07411,-3.57239 -9.32039,-6.38145c-0.88971,-1.11263 -1.68629,-2.39708 -2.40548,-3.72638c0.00164,-0.01408 0.00169,-0.02268 0.00169,-0.02268l-0.00092,-0.26309c0.08263,-0.40102 -0.02564,-0.59941 -0.18725,-0.72743c-0.11601,0.1939 -0.34486,0.40925 -0.77457,0.3233zM536.22366,341.84452c0.14078,0.02497 0.23767,-0.11733 0.23767,-0.11733c0.21441,-0.31489 0.58962,-0.86595 0.80403,-1.18082c0,0 0.06858,-0.10072 0.04579,-0.20524c0.07356,0.00503 0.11718,0.01319 0.11718,0.01319l-0.00001,-0.00002c0.40533,0.0769 0.80651,0.17034 1.20381,0.2784c-0.68038,-3.81765 -2.22862,-7.52598 -3.14632,-11.20988c-0.81307,0.24857 -1.62062,0.49259 -2.43305,0.71723l0.07853,1.18542c0.72649,4.01826 1.30264,8.07462 2.01363,12.10333c0.35958,-0.52809 0.71916,-1.05619 1.07873,-1.58428zM536.65908,352.49624c1.93243,2.47148 5.61513,4.17826 8.31519,5.62658c0.77194,0.21996 4.81371,1.64974 5.34855,0.31335c0.48826,-1.22 -2.06094,-2.15533 -2.65601,-2.46262c-2.21705,-1.14486 -4.019,-2.83067 -5.90583,-4.42082c-2.26555,-1.10975 -4.50928,-2.25901 -6.62776,-3.69854l-0.262,-0.1784c-0.02698,0.00486 -0.05396,0.00973 -0.08094,0.01459c-0.21677,0.03908 -0.58085,0.06647 -0.99014,0.10217c0.82686,1.66068 1.77147,3.31291 2.85892,4.7037zM536.85915,345.12553l-0.00234,0.00531c0.00743,0.00096 0.01486,0.00193 0.0223,0.00291c0.67015,0.0892 1.30655,0.27659 1.91631,0.53787c0.07825,-0.09002 0.12584,-0.18704 0.13319,-0.28953c0.03919,-0.54632 0.04963,-1.08984 0.03537,-1.63079c-0.74007,-0.25457 -1.48807,-0.45866 -2.24353,-0.59754c0,0 -0.06117,-0.01143 -0.15376,-0.04323c-0.13923,0.56148 -0.36958,1.11517 -0.67267,1.62714zM543.62397,349.23701c1.7454,0.84809 3.50201,1.67848 5.22125,2.61074c0.79207,0.40902 1.49404,0.99056 2.32856,1.3119c1.28979,0.49665 0.56148,-1.84786 0.38024,-2.12149c-0.12671,-0.19129 -1.77212,-1.30099 -1.89941,-1.37685c-0.25237,-0.1504 -0.50631,-0.30461 -0.76181,-0.46175c-0.56736,0.87853 -1.55338,1.27898 -3.14983,0.94364c-1.89681,-0.39844 -3.02644,-3.17704 -3.49748,-4.74635c-0.06422,-0.10108 -0.12757,-0.20244 -0.19018,-0.30403c-0.05059,-0.02597 -0.10123,-0.0518 -0.15191,-0.07747c-0.00283,0.38544 -0.04128,0.73939 -0.13123,1.03637c-0.03008,0.09929 -0.06417,0.1967 -0.10206,0.29217c0.13281,0.0479 0.25066,0.11493 0.35228,0.1878c-0.02919,0.00526 -0.05951,0.01073 -0.09076,0.01636c-0.08301,-0.1302 -0.25243,-0.09965 -0.25243,-0.09965c-0.0196,0.00353 -0.03922,0.00707 -0.05882,0.0106c-0.05447,-0.076 -0.14955,-0.1182 -0.2477,-0.10051c-0.09815,0.01769 -0.17251,0.09043 -0.19701,0.18068c-0.20838,0.03757 -0.41676,0.07514 -0.62514,0.1127c1.07951,0.73675 2.08734,1.65541 3.07344,2.58512zM530.43961,334.71012c-0.51389,1.16871 -1.07664,2.31737 -1.48097,3.57555c-0.64154,1.9963 -0.70756,4.13733 -0.98352,6.20891c-0.0258,0.19366 -0.41334,2.82945 -0.03939,2.98328c0.48265,0.19855 0.71761,-0.76042 1.03592,-1.174c1.62892,-2.11651 2.14827,-3.43347 1.96823,-6.08826c0.07087,-1.58009 -0.20592,-3.01539 -0.33206,-4.59399l-0.15905,-0.84138c0,0 -0.00458,-0.02542 -0.00915,-0.07011zM542.27501,339.77036c0.70546,1.07017 1.31368,2.17786 1.95222,3.28054c0.45071,0.25321 0.89752,0.51438 1.34092,0.77992c-0.19167,-0.43552 -0.36259,-0.84432 -0.466,-1.19905c-0.75422,-2.58707 -1.78392,-5.64433 -3.707,-7.67665c-0.4184,-0.44217 -0.84959,-0.85291 -1.28379,-1.25214c0.07271,0.24659 0.13934,0.49451 0.19806,0.74408c0.33261,1.41363 0.49446,2.84657 0.67703,4.27777c0.85751,0.01681 1.18329,0.71907 1.28858,1.04554z" fill="#000000" stroke="none" stroke-width="0.5" stroke-linecap="butt"/><path d="M535.85865,344.72311c0.30309,-0.51196 0.53703,-1.07215 0.67627,-1.63362c0.09259,0.03178 0.15388,0.04305 0.15388,0.04305c4.62742,0.85066 9.04357,4.1795 13.00283,6.53904c0.12731,0.07587 1.77128,1.18927 1.89799,1.38055c0.18124,0.27362 0.90494,2.62634 -0.38486,2.12969c-0.83452,-0.32134 -1.53757,-0.9014 -2.32964,-1.31043c-1.71924,-0.93226 -3.52386,-1.74881 -5.26924,-2.5969c-2.01536,-1.90012 -4.13871,-3.80617 -6.7621,-4.15534c-0.00743,-0.00099 0.05583,0.02719 0.04839,0.02624l0.00235,-0.00527z" data-paper-data="{&quot;noHover&quot;:false,&quot;origItem&quot;:[&quot;Path&quot;,{&quot;applyMatrix&quot;:true,&quot;segments&quot;:[[1084.41817,683.30254],[[1084.40675,683.30483],[0,0],[0.00679,0.01464]],[[1084.42703,683.3488],[-0.00673,-0.01468],[2.37574,5.18106]],[[1085.23593,700.62198],[0.87263,-5.99234],[0.56264,4.20632]],[[1086.79716,713.29588],[-0.39405,-4.26276],[0.2154,1.93864]],[[1087.24948,719.13008],[-0.40813,-1.90739],[0.63079,2.94797]],[[1091.18463,717.20284],[-0.24832,0.66559],[0.1736,-0.46531]],[[1091.32275,712.06563],[0.01788,0.32408],[-0.55598,-10.07886]],[[1087.52169,680.62017],[3.8025,9.42836],[0,0]],[[1087.42007,680.28843],[0.05167,0.20687],[-1.08495,0.44018]],[[1083.97297,681.07658],[1.18752,-0.0824],[0,0]]],&quot;closed&quot;:true}]}" fill="url(#color-6)" stroke="none" stroke-width="0.5" stroke-linecap="butt"/><path d="M533.38949,346.98406c0.11124,-0.04708 0.22158,-0.10013 0.32922,-0.15686c0.07182,0.08625 0.15618,0.16355 0.25266,0.22924l1.13431,0.77128c2.11849,1.43953 4.39988,2.57524 6.66543,3.68499c1.88682,1.59014 3.71479,3.32873 5.93183,4.47359c0.59507,0.30728 3.14197,1.24746 2.65371,2.46747c-0.53483,1.3364 -4.58565,-0.08176 -5.35759,-0.30174c-2.70007,-1.44831 -6.44475,-3.1941 -8.37717,-5.66558c-1.25859,-1.60968 -2.31759,-3.58458 -3.2324,-5.50241z" data-paper-data="{&quot;noHover&quot;:false,&quot;origItem&quot;:[&quot;Path&quot;,{&quot;applyMatrix&quot;:true,&quot;segments&quot;:[[[1072.00798,692.02832],[1.24434,-4.26381],[-1.91055,6.54663]],[[1072.06621,714.02337],[-0.64499,-6.67517],[0.50528,1.66908]],[[1077.56871,724.09509],[-2.8113,0.67928],[2.56645,-0.62012]],[[1078.65013,716.2491],[0.16183,1.45645],[-0.60293,-5.42633]],[[1079.31067,700.10372],[-0.5049,5.37738],[-0.71558,-5.47088]],[[1077.96453,683.5416],[0.00485,5.61117],[0,0]],[[1077.96453,680.53681],[0,0],[0,-0.25573]],[[1078.05912,679.79663],[-0.06173,0.23639],[-0.21497,-0.12498]],[[1077.43171,679.39415],[0.20304,0.14337],[-2.14075,4.02126]]],&quot;closed&quot;:true}]}" fill="url(#color-7)" stroke="none" stroke-width="0.5" stroke-linecap="butt"/><path d="M540.95321,338.69957c-0.18258,-1.43119 -0.33009,-2.8761 -0.6627,-4.28973c-0.05872,-0.24957 -0.12455,-0.49788 -0.19727,-0.74447c0.4342,0.39922 0.86934,0.8083 1.28775,1.25047c1.92307,2.03232 2.99335,5.16116 3.74756,7.74822c0.38124,1.30771 1.67123,3.35569 1.54574,4.76208c-0.02842,0.31845 -0.43129,-0.47452 -0.61797,-0.73408c-0.52676,-0.73244 -0.87745,-1.59291 -1.13228,-2.45836c-0.9091,-1.47369 -1.73296,-3.04582 -2.68319,-4.48732c-0.10528,-0.32647 -0.43013,-1.03 -1.28764,-1.04682z" data-paper-data="{&quot;noHover&quot;:false,&quot;origItem&quot;:[&quot;Path&quot;,{&quot;applyMatrix&quot;:true,&quot;segments&quot;:[[[1095.1308,664.17353],[-0.09138,-0.67994],[1.3588,3.17445]],[[1098.74344,673.81701],[-1.26643,-3.22323],[0.19447,1.79386]],[[1100.09835,679.05782],[-0.77689,-1.62856],[0.27532,0.57713]],[[1101.05124,680.72271],[-0.16893,0.61671],[0.74605,-2.72363]],[[1099.67997,670.80873],[0.28634,2.70919],[-0.56648,-5.35967]],[[1095.10764,654.38359],[3.06397,4.68256],[-0.66663,-1.01879]],[[1093.02512,651.4635],[0.71296,0.93985],[0.05562,0.51116]],[[1093.15091,652.99834],[-0.02702,-0.51205],[0.15304,2.90043]],[[1092.96554,661.65838],[0.1485,-2.88175],[1.68185,0.33738]]],&quot;closed&quot;:true}]}" fill="url(#color-8)" stroke="none" stroke-width="0.5" stroke-linecap="butt"/><path d="M530.33209,335.23934l0.16137,0.84192c0.12614,1.5786 0.42944,3.03527 0.35858,4.61537c0.18003,2.65479 -0.37795,4.03244 -2.00688,6.14895c-0.31831,0.41359 -0.55965,1.37183 -1.04231,1.17329c-0.37396,-0.15383 0.00765,-2.79122 0.03345,-2.98488c0.27596,-2.07159 0.35292,-4.29364 0.99445,-6.28993c0.40432,-1.25818 0.97815,-2.40613 1.49204,-3.57483c0.00457,0.04469 0.00929,0.07013 0.00929,0.07013z" data-paper-data="{&quot;noHover&quot;:false,&quot;origItem&quot;:[&quot;Path&quot;,{&quot;applyMatrix&quot;:true,&quot;segments&quot;:[[[1073.63116,650.01387],[-0.00687,0.08958],[-1.42618,2.11797]],[[1069.44743,656.52599],[1.24229,-2.33296],[-1.97109,3.7016]],[[1065.30836,668.3978],[1.27826,-3.97951],[-0.1195,0.37202]],[[1064.17222,674.25572],[-0.68146,-0.43548],[0.87954,0.56207]],[[1066.62778,672.31256],[-0.77328,0.70111],[3.9572,-3.58784]],[[1072.66221,661.02765],[-0.58769,5.28922],[0.70018,-3.0849]],[[1073.63879,651.86762],[-0.31189,3.15187],[0,0]],[1073.62429,650.15511]],&quot;closed&quot;:true}]}" fill="url(#color-9)" stroke="none" stroke-width="0.5" stroke-linecap="butt"/><path d="M533.03733,330.22626c0.81242,-0.22464 1.63219,-0.4715 2.44526,-0.72006c1.29339,5.19201 3.85705,10.51328 3.46058,16.03999c-0.05594,0.77975 -2.45628,1.24591 -2.957,0.7148c-0.27213,-0.28865 -0.67889,-1.86285 -0.74366,-2.08446c-0.75951,-4.21965 -1.36713,-8.55238 -2.12858,-12.76402z" data-paper-data="{&quot;noHover&quot;:false,&quot;origItem&quot;:[&quot;Path&quot;,{&quot;applyMatrix&quot;:true,&quot;segments&quot;:[[[1080.13018,644.30709],[0,0],[0.00423,8.55984]],[[1079.79632,670.02545],[0.00242,-8.57492],[0.04887,0.45917]],[[1080.5102,674.38941],[-0.43321,-0.6647],[0.79709,1.22304]],[[1086.55285,674.03147],[-0.38679,1.51491],[2.7415,-10.73736]],[[1085.43966,641.39766],[0.70336,10.67823],[-1.68854,0.20073]],[[1080.39626,641.946],[1.67878,-0.15386],[0,0]]],&quot;closed&quot;:true}]}" fill="url(#color-10)" stroke="none" stroke-width="0.5" stroke-linecap="butt"/><path d="M543.9329,311.63877l-0.60197,0.29956c-3.202,-0.11264 -5.30212,0.9802 -8.18513,1.98159c-3.34999,1.16358 -7.19333,1.58855 -10.64828,2.41823c-0.4284,0.10288 -0.96129,0.36763 -1.51241,0.64566c0.00982,-0.35851 0.02913,-0.71243 0.06234,-1.05932c0,0 0.12053,-1.45923 -1.33448,-1.58743c-1.45502,-0.1282 -1.53394,1.25948 -1.53394,1.25948c-0.0536,0.65439 -0.12483,1.406 -0.12313,2.1079c-1.3743,-0.31669 -2.48074,-1.07639 -4.05159,-1.15731c-2.54766,-0.31436 -5.8845,-4.28521 -4.65492,-7.10284c0.29513,-0.67629 4.57313,0.0877 5.27575,0.03414c1.74542,-0.13303 5.40242,-2.24146 7.08468,-1.49255c0.95666,0.42588 1.22683,1.69933 2.0899,2.29231l1.04185,1.28785c0.32337,0.41124 0.84662,0.63641 1.39736,0.53712c0.7939,-0.14313 1.30735,-0.89543 1.16422,-1.68933c-0.03948,-0.21901 -0.12737,-0.41653 -0.24846,-0.58651l-0.90861,-1.3312c-1.54314,-2.27218 -3.32923,-4.4819 -4.38065,-7.04403c-0.1878,-0.45766 -0.77824,-2.58321 -0.2546,-3.06727c0.62032,-0.57343 2.87939,-0.4624 3.6216,-0.52484c4.02963,-0.33899 7.3637,0.72616 10.49568,3.22825c3.26731,2.61914 5.18403,6.48592 6.24331,10.53924c-0.02493,0.00678 -0.03853,0.01133 -0.03853,0.01133z" data-paper-data="{&quot;noHover&quot;:false,&quot;origItem&quot;:[&quot;Path&quot;,{&quot;applyMatrix&quot;:true,&quot;segments&quot;:[[[1106.92786,607.85856],[-0.05147,0.00449],[-0.64665,-8.3539]],[[1098.37558,584.96072],[5.50155,6.31458],[-5.27673,-6.03614]],[[1078.92297,574.93726],[8.05168,0.76268],[-1.48302,-0.14047]],[[1071.64153,574.68617],[1.42444,-0.90854],[-1.20243,0.76694]],[[1071.06461,580.81128],[-0.20725,-0.96743],[1.1603,5.41606]],[[1077.21195,596.218],[-2.23104,-5.01984],[0,0]],[[1078.52163,599.16477],[0,0],[0.17803,0.37754]],[[1078.7992,600.40924],[0,-0.44508],[0,1.6134]],[[1075.87788,603.33056],[1.6134,0],[-1.11924,0]],[[1073.29585,601.77695],[0.49056,0.92419],[0,0]],[[1071.67782,598.8645],[0,0],[-1.48833,-1.4734]],[[1068.33248,593.54604],[1.73184,1.17773],[-3.04537,-2.07099]],[[1053.85789,593.96489],[3.48266,0.35751],[-1.40194,-0.14391]],[[1043.65268,592.0231],[0.82087,-1.22639],[-3.41998,5.10954]],[[1050.28235,607.60987],[-4.90292,-1.52279],[3.06313,0.71668]],[[1057.83118,611.30708],[-2.59262,-1.11101],[0.24572,-1.38213]],[[1058.70331,607.31948],[-0.3377,1.26901],[0,0]],[[1062.29034,605.26975],[-2.81838,-0.76865],[2.81838,0.76865]],[[1064.34007,608.85678],[0,0],[-0.18846,0.67098]],[[1063.83911,610.9182],[0.14655,-0.70216],[1.1834,-0.35168]],[[1067.03584,610.17926],[-0.87972,0.05047],[7.09467,-0.40706]],[[1088.76453,609.21092],[-7.00658,1.10151],[6.02988,-0.94797]],[[1105.55785,608.24117],[-6.26241,-1.35794],[0,0]],[1106.84804,607.86709]],&quot;closed&quot;:true}]}" fill="url(#color-11)" stroke="none" stroke-width="0.5" stroke-linecap="butt"/><path d="M543.7515,321.36834c0.30099,0.24691 0.69943,0.3753 1.11113,0.32292c-0.20027,1.03909 -0.57244,2.04154 -1.21795,2.88129c-1.03226,1.34289 -3.62913,1.36038 -5.13278,1.7737c-0.47198,0.13546 -0.94182,0.28567 -1.40393,0.42732c-0.10071,0.02257 -0.19411,0.05403 -0.27766,0.08774c-2.84007,0.87652 -5.61892,1.78745 -8.6746,2.02762c-1.08084,0.08495 -2.18793,0.52239 -3.24288,0.27236c-1.00097,-0.23724 -0.95831,-2.5249 -1.04673,-3.22541c-0.01191,-0.09441 -0.02417,-0.1904 -0.03665,-0.2857c0.18482,-0.03087 0.30642,-0.07913 0.30642,-0.07913l0.51492,-0.23459c6.17813,-1.11382 13.2253,-1.49283 19.10071,-3.96811z" data-paper-data="{&quot;noHover&quot;:false,&quot;origItem&quot;:[&quot;Path&quot;,{&quot;applyMatrix&quot;:true,&quot;segments&quot;:[[[1064.19261,628.03656],[12.55545,0],[0,0]],[1063.09619,628.31369],[[1062.46509,628.36014],[0.37471,0.00483],[-0.00924,0.19201]],[[1062.43618,628.93328],[0.01005,-0.19005],[-0.07454,1.41016]],[[1063.35112,635.62651],[-1.886,-0.82214],[1.9877,0.86648]],[[1069.828,636.23104],[-2.15753,-0.21633],[6.09961,0.61158]],[[1087.48083,635.2875],[-5.90106,0.71743],[0.17641,-0.03668]],[[1088.05424,635.21831],[-0.20624,0.00867],[0.95982,-0.11483]],[[1090.95808,634.89401],[-0.97707,0.09914],[3.10624,-0.27995]],[[1101.6836,633.25037],[-2.50829,2.27687],[1.56851,-1.42379]],[[1105.10419,628.03258],[-0.76291,1.97414],[-0.82893,-0.04299]],[[1103.03293,627.00827],[0.50482,0.59279],[-12.44275,2.78715]]],&quot;closed&quot;:true}]}" fill="url(#color-12)" stroke="none" stroke-width="0.5" stroke-linecap="butt"/><path d="M542.04923,325.64256l-0.38226,-4.00204" fill="none" stroke="#000000" stroke-width="1.5" stroke-linecap="round"/><path d="M535.01186,328.94677l-0.35541,-1.97141l-0.26379,-3.34492" fill="none" stroke="#000000" stroke-width="1.5" stroke-linecap="round"/><path d="M529.52616,322.98119l0.33368,6.55517" fill="none" stroke="#000000" stroke-width="1.5" stroke-linecap="round"/><path d="M526.85968,328.88988l-0.00788,-4.74804" fill="none" stroke="#000000" stroke-width="1.5" stroke-linecap="round"/><path d="M538.52384,326.78701l-0.53036,-4.82347" fill="none" stroke="#000000" stroke-width="1.5" stroke-linecap="round"/><path d="M544.3978,322.6748l-20.76178,5.26964" fill="none" stroke="#000000" stroke-width="1.5" stroke-linecap="round"/><path d="M506.02083,362.04167v-67h57v67z" fill="#000000" stroke="none" stroke-width="none" stroke-linecap="butt"/></g></g></svg>