<svg version="1.1" xmlns="http://www.w3.org/2000/svg" xmlns:xlink="http://www.w3.org/1999/xlink" width="53.84412" height="135.16309" viewBox="0,0,53.84412,135.16309"><g transform="translate(-521.06557,-258.04703)"><g data-paper-data="{&quot;isPaintingLayer&quot;:true}" fill="#383838" fill-rule="nonzero" stroke="none" stroke-linecap="butt" stroke-linejoin="miter" stroke-miterlimit="10" stroke-dasharray="" stroke-dashoffset="0" style="mix-blend-mode: normal"><path d="M553.54221,323.35508c-1.38284,14.57007 -5.40099,26.10648 -8.97478,25.76729c-3.57379,-0.33919 -5.3499,-12.42553 -3.96706,-26.9956c1.38284,-14.57007 5.40099,-26.10648 8.97478,-25.76729c3.57379,0.33919 5.3499,12.42553 3.96706,26.9956z" stroke-width="0"/><path d="M548.2476,368.55703c-1.30457,13.74535 -3.47642,24.7824 -4.85095,24.65194c-1.37453,-0.13046 -1.43125,-11.37902 -0.12668,-25.12437c1.30457,-13.74535 3.47642,-24.7824 4.85095,-24.65194c1.37453,0.13046 1.43125,11.37902 0.12668,25.12437z" stroke-width="0"/><path d="M542.36893,366.99459c-1.30457,13.74535 -3.47642,24.7824 -4.85095,24.65194c-1.37453,-0.13046 -1.43125,-11.37902 -0.12668,-25.12437c1.30457,-13.74535 3.47642,-24.7824 4.85095,-24.65194c1.37453,0.13046 1.43125,11.37902 0.12668,25.12437z" stroke-width="0"/><path d="M536.09799,306.57644c6.8345,2.19948 12.10064,4.83489 11.76226,5.88634c-0.33837,1.05146 -6.15315,0.12081 -12.98765,-2.07867c-6.8345,-2.19948 -12.10064,-4.83489 -11.76226,-5.88634c0.33837,-1.05146 6.15315,-0.12081 12.98765,2.07867z" data-paper-data="{&quot;index&quot;:null}" stroke-width="0"/><path d="M521.06559,308.91583c-0.00906,-1.10453 5.80367,-2.04771 12.98314,-2.10665c7.17947,-0.05894 13.00692,0.7887 13.01598,1.89324c0.00907,1.10452 -5.80367,2.04771 -12.98314,2.10665c-7.17947,0.05894 -13.00692,-0.7887 -13.01598,-1.89324z" data-paper-data="{&quot;index&quot;:null}" stroke-width="0"/><path d="M526.53747,299.19545l3.90539,-41.14842l44.46683,4.22034l-3.90539,41.14843z" stroke-width="NaN"/></g></g></svg>