<svg version="1.1" xmlns="http://www.w3.org/2000/svg" xmlns:xlink="http://www.w3.org/1999/xlink" width="1288.96847" height="726.22372" viewBox="0,0,1288.96847,726.22372"><g transform="translate(79.04955,-210.3919)"><g data-paper-data="{&quot;isPaintingLayer&quot;:true}" fill-rule="nonzero" stroke-linecap="butt" stroke-linejoin="miter" stroke-miterlimit="10" stroke-dasharray="" stroke-dashoffset="0" style="mix-blend-mode: normal"><path d="M-61.35135,935.61562v-316.81682h487.871c-0.51752,2.64583 -0.85548,5.21609 -0.85899,7.51502c-0.0635,41.54149 -0.0688,83.08314 0,124.62462c0.07149,43.16537 9.26793,85.56302 18.80618,127.92776c0.27466,11.64319 0.49901,25.41845 0.71334,43.51512c0.05221,4.40789 0.17531,8.82037 0.31173,13.2343z" fill="#ffffff" stroke="#000000" stroke-width="2"/><path d="M512.59116,935.61562h-0.88919c-0.06006,-16.34471 -0.25032,-32.68999 -0.00528,-49.03233c0.08253,-5.50393 0.18775,-10.96598 0.30889,-16.39414c1.0456,21.8044 1.31517,43.61995 0.58558,65.42648z" fill="#ffffff" stroke="#000000" stroke-width="2"/><path d="M1208.91892,618.7988v316.81682h-545.70918c-1.65836,-10.97117 -3.24953,-21.95193 -4.53337,-32.97158c-6.08422,-52.22282 -6.43671,-62.53793 -7.34499,-111.69568c-0.66358,-35.91436 -1.23645,-71.83154 -1.49654,-107.75109c-0.15542,-21.46407 0.24847,-42.93343 0.31701,-64.39847z" fill="#ffffff" stroke="#000000" stroke-width="2"/><path d="" fill="#ffffff" stroke="#000000" stroke-width="2"/><path d="M801.76201,681.86937c0,-0.13807 0.11193,-0.25 0.25,-0.25c0.13807,0 0.25,0.11193 0.25,0.25c0,0.13807 -0.11193,0.25 -0.25,0.25c-0.13807,0 -0.25,-0.11193 -0.25,-0.25z" fill="#ffffff" stroke="none" stroke-width="0.5"/><path d="M157.61787,702.89039c0,-0.13807 0.11193,-0.25 0.25,-0.25c0.13807,0 0.25,0.11193 0.25,0.25c0,0.13807 -0.11193,0.25 -0.25,0.25c-0.13807,0 -0.25,-0.11193 -0.25,-0.25z" fill="#ffffff" stroke="none" stroke-width="0.5"/><path d="M839.7147,780.78078c0.18769,0.16515 0.02254,0.35283 0.02254,0.35283l-0.02114,0.02402c-1.41103,1.60361 -2.14785,3.06707 -2.98769,5.02735c-0.72198,1.68519 -1.44396,3.37037 -2.16595,5.05556c-0.2356,0.54993 -1.13809,1.10285 -0.80871,1.6023c0.23787,0.36069 0.85924,-0.11236 1.2913,-0.11236c0,0 0.25,0 0.25,0.25c0,0.25 -0.25,0.25 -0.25,0.25c-0.27596,0 -1.55396,0.12228 -1.7087,-0.11236c-0.15474,-0.23464 0.46094,-1.36121 0.56962,-1.61488c0.78762,-1.83839 1.57523,-3.67677 2.36285,-5.51516c0.8576,-2.00175 1.62924,-3.52116 3.07191,-5.16074l0.02114,-0.02402c0,0 0.16515,-0.18769 0.35283,-0.02254z" fill="#ffffff" stroke="none" stroke-width="0.5"/><path d="M744.30781,591.3018v-37.53754h150.15015v37.53754z" fill="#ffffff" stroke="#000000" stroke-width="2"/><path d="M933.99249,524.22973v-26.53753h150.15015v26.53753z" fill="#ffffff" stroke="#000000" stroke-width="2"/><path d="M743.7973,422.13063v-15.53753h150.15015v15.53753z" fill="#ffffff" stroke="#000000" stroke-width="2"/><path d="M932.47598,345.02552v-15.53753h150.15015v15.53753z" fill="#ffffff" stroke="#000000" stroke-width="2"/><path d="M413.94745,248.92943v-37.53753h150.15015v37.53753z" fill="#ffffff" stroke="#000000" stroke-width="2"/><path d="M-78.04955,250.92643v-37.53753h313.81381v37.53753z" fill="#ffffff" stroke="#000000" stroke-width="2"/><path d="M239.96246,242.95345v-16.51652h172.67267v16.51652z" fill="#ff0000" stroke="none" stroke-width="0"/><path d="M564.78228,243.44895v-16.51652h180.18018v16.51652z" fill="#ff0000" stroke="none" stroke-width="0"/><path d="M726.78529,246.43994v-25.53754h150.15015v25.53754z" fill="#ffffff" stroke="#000000" stroke-width="2"/></g></g></svg>