<svg version="1.1" xmlns="http://www.w3.org/2000/svg" xmlns:xlink="http://www.w3.org/1999/xlink" width="36.26527" height="45.0655" viewBox="0,0,36.26527,45.0655"><g transform="translate(-521.86737,-297.46725)"><g data-paper-data="{&quot;isPaintingLayer&quot;:true}" fill-rule="nonzero" stroke-linejoin="miter" stroke-miterlimit="10" stroke-dasharray="" stroke-dashoffset="0" style="mix-blend-mode: normal"><path d="M558.13264,319.77124c0,12.31815 -8.11826,22.30399 -18.13264,22.30399c-10.01438,0 -18.13263,-9.98584 -18.13263,-22.30399c0,-12.31815 8.11825,-22.30399 18.13263,-22.30399c10.01438,0 18.13264,9.98584 18.13264,22.30399z" fill="#00ff68" stroke="none" stroke-width="0" stroke-linecap="butt"/><path d="M545.20426,324.23204l-0.11438,-17.2713" fill="none" stroke="#000000" stroke-width="1.5" stroke-linecap="round"/><path d="M533.8807,324.23204v-17.61443" fill="none" stroke="#000000" stroke-width="1.5" stroke-linecap="round"/><path d="M532.85128,329.60787c0,0.34314 -0.34314,0.34314 -0.34314,0.34314h-0.11438c-0.97812,0 -0.92069,0.35599 -1.83594,0.66867c0,0 -0.32553,0.10851 -0.43404,-0.21702c-0.10851,-0.32553 0.21702,-0.43404 0.21702,-0.43404c0.48409,-0.15621 0.45737,-0.4431 0.86163,-0.66328c0.24524,-0.13357 0.9023,-0.0406 1.19133,-0.0406h0.11438c0,0 0.34314,0 0.34314,0.34314z" fill="#00ff68" stroke="none" stroke-width="0.5" stroke-linecap="butt"/><path d="M533.54037,330.13995c-0.00122,-0.66417 0.02084,-1.32413 -0.2833,-1.93572c-0.1073,-0.21578 -0.9066,-0.08329 -1.09207,-0.08329c-1.06782,0 -1.98155,0.63959 -1.94445,1.83007c0,0 0,0.34314 -0.34314,0.34314c-0.34314,0 -0.34314,-0.34314 -0.34314,-0.34314c0.03367,-1.53548 1.16403,-2.51635 2.63073,-2.51635c0.56188,0 1.25485,-0.15456 1.65304,0.37423c0.52399,0.69586 0.41051,1.83217 0.40136,2.6546l-0.03697,0.04561l0.02379,0.00793l-0.11188,0.33563c-0.04312,0.14022 -0.17367,0.24214 -0.32803,0.24214c-0.18951,0 -0.34314,-0.15363 -0.34314,-0.34314v-0.34314h0.09582l0.03617,-0.10851l0.32553,0.10851h0.22876v0.07625l0.07298,0.02433l-0.47108,0.58127l-0.28817,-0.68185c0,0 0,-0.16765 0.11719,-0.26858z" fill="#000000" stroke="none" stroke-width="0.5" stroke-linecap="butt"/><path d="M546.47631,328.70671c-0.24264,0.24264 -0.48527,0 -0.48527,0l-0.34314,-0.34314c-0.63628,-0.66569 -1.32825,-0.57728 -1.86744,0.16652c-0.3585,0.49454 0.0121,1.60972 0.24378,2.06811c0,0 0.15346,0.30691 -0.15346,0.46037c-0.30691,0.15346 -0.46037,-0.15346 -0.46037,-0.15346c-0.34831,-0.70316 -0.68705,-1.98862 -0.21374,-2.73582c0.74688,-1.1791 2.00181,-1.19575 2.9365,-0.291l0.34314,0.34314c0,0 0.24264,0.24264 0,0.48527z" fill="#000000" stroke="none" stroke-width="0.5" stroke-linecap="butt"/><path d="M540.05719,342.53275c-0.34314,0 -0.34314,-0.34314 -0.34314,-0.34314l0.03623,-0.38221c0.24497,-0.48843 0.46273,-0.82829 0.84834,-1.21516c1.48018,-1.94623 5.41819,-3.16009 7.36463,-1.27599c0,0 0.24264,0.24264 0,0.48527c-0.24264,0.24264 -0.48527,0 -0.48527,0c-1.58942,-1.66287 -5.19385,-0.34043 -6.36091,1.24036c-0.3567,0.3555 -0.52828,0.62152 -0.75297,1.07243l0.03623,0.0753c0,0 0,0.34314 -0.34314,0.34314z" fill="#000000" stroke="none" stroke-width="0.5" stroke-linecap="butt"/><path d="M537.78348,341.97473c-0.24264,0.24264 -0.48527,0 -0.48527,0l-0.19727,-0.24851c-0.07764,-0.23292 -0.1552,-0.46587 -0.23268,-0.69885c-0.17035,-0.67989 -0.37101,-1.25094 -0.83392,-1.80359c-0.86755,-1.03575 -4.22942,-0.58688 -5.16592,0.04871c0,0 -0.28551,0.19034 -0.47585,-0.09517c-0.19034,-0.28551 0.09517,-0.47585 0.09517,-0.47585c1.23754,-0.81323 4.90881,-1.25142 6.04327,0.04871c0.54052,0.61945 0.80255,1.30909 0.99615,2.08531c0.07503,0.22454 0.14997,0.44911 0.22483,0.6737l0.03149,-0.01975c0,0 0.24264,0.24264 0,0.48527z" fill="#000000" stroke="none" stroke-width="0.5" stroke-linecap="butt"/></g></g></svg>