<svg version="1.1" xmlns="http://www.w3.org/2000/svg" xmlns:xlink="http://www.w3.org/1999/xlink" width="1215.65479" height="788.32926" viewBox="0,0,1215.65479,788.32926"><g transform="translate(46.6381,-140.27738)"><g data-paper-data="{&quot;isPaintingLayer&quot;:true}" fill-rule="nonzero" stroke-linejoin="miter" stroke-miterlimit="10" stroke-dasharray="" stroke-dashoffset="0" style="mix-blend-mode: normal"><path d="M217.8619,447.5v-23c0,0 205.09766,-2.25122 243.84751,0.36767c12.23717,0.82704 22.48583,17.63233 22.48583,17.63233l0.66667,5z" fill="#bd8000" stroke="none" stroke-width="0" stroke-linecap="butt"/><path d="M-43.1381,928.60664v-318.31832h157.67322c-1.044,45.53479 -4.41975,91.15486 -7.64841,136.50782c-0.57111,8.02238 -1.21714,16.03913 -1.87013,24.05536c-1.62479,3.07353 -3.40705,6.08045 -4.9483,9.19054c-2.96021,5.97341 -5.87872,11.96739 -8.81808,17.95109c-2.6649,5.42497 -5.74488,10.66696 -8.11097,16.22366c-1.0401,-0.32717 -2.24049,-0.38413 -3.27733,-0.71679c-4.33333,0 -11.66667,0 -16,0c0,0 -10,0 -10,10c0,10 10,10 10,10c4.33333,0 11.66667,0 16,0c5.09574,-0.50402 10.57591,0.49396 15.28723,-1.51206c2.73635,-1.1651 3.78462,-4.6287 5.23408,-7.22565c0.46037,-0.82483 0.90831,-1.65618 1.34645,-2.49267c0.18403,2.774 0.68547,5.47336 1.78819,8.01748c1.43585,3.31272 6.80134,2.51647 10.34405,3.21289c1.96244,0.38577 4,0 6,0c5.66667,0 18.33333,0 24,0c0,0 0.38338,0 1,-0.07507c0.61662,0.07507 1,0.07507 1,0.07507h1c2.67414,-0.28704 5.76515,0.45607 8.33019,-0.1006c0.52307,0.06569 1.07899,0.1006 1.66981,0.1006c10,0 10,-10 10,-10l-0.00024,-0.88934c5.19707,-7.69224 6.42075,-15.95396 9.45208,-26.63652c0.13439,-0.47358 0.26853,-0.94723 0.40245,-1.42094c-1.08706,6.62745 -2.35483,13.77012 -2.60023,20.07397c-2.58175,1.20625 -5.25406,3.70338 -5.25406,8.87282c0,10 10,10 10,10h2c0.3356,-0.09042 0.67948,-0.16585 1.02907,-0.23093c1.16,0.23093 1.97093,0.23093 1.97093,0.23093h1c5.26169,0 10.52327,-0.07418 15.78425,-0.16046c3.41587,-1.19733 8.89494,-3.08966 14.2099,-5.05264c2.5285,5.2131 9.00585,5.2131 9.00585,5.2131h2c3.57543,0 11.20002,0.36271 16.04494,-0.44941l-0.04494,0.44941c0.63749,-0.09234 1.30278,-0.1346 1.98544,-0.1456l0.01456,0.1456c0,0 0.55424,0 1.40176,-0.13048c1.83472,0.05984 3.73952,0.24589 5.52749,0.22152c4.65049,0.13611 9.7091,-0.09104 12.07074,-0.09104c2,0 5,0 7,0c0,0 10,0 10,-10c0,-10 -10,-10 -10,-10c-1.8839,0 -4.65507,0 -6.64198,0c0.44018,-2.47295 0.91948,-4.92454 1.63563,-7.24671c1.0828,-4.96814 2.19569,-9.9349 3.31597,-14.90251c4.33006,4.99308 10.71837,8.14924 18.69039,8.14924c10.40759,0 16.44237,-4.27826 20.23485,-10.71562c0.11964,6.30051 0.29304,12.59604 0.56826,18.87952c0.22178,5.06343 -1.11184,10.6383 1.17955,15.15903c1.06829,2.10765 2.12583,3.78206 3.19836,5.11466c-2.16107,13.80946 -5.9977,36.32835 6.33867,45.11334c4.06515,2.89488 9.02691,4.82842 13.99271,5.325c29.20663,2.92066 28.86229,-28.90397 30.11446,-48.90242c0.45011,0.01761 0.90778,0.02649 1.37313,0.02649c4.99056,0 10.1201,-1.43024 14.45313,-3.90625c10.56864,-6.03922 9.56584,-17.31098 10.54688,-27.18192c0.67562,-6.798 1.28789,-14.02557 2,-20.84277c1.21657,-11.64646 4.94254,-23.35094 5,-35.06906c0.21632,-44.11489 1.3405,-88.13242 1.47552,-132.21172h387.09928c-0.25045,20.28206 -0.64565,40.56227 -0.91731,60.84411c-0.2406,17.96281 1.93455,35.87707 3.0388,53.80752c0.63956,10.38498 6.01471,29.81422 8.2605,37.94587l-69.75812,71.67807l-0.46487,0.26944l-0.66692,0.8935l-0.32808,0.33711l-2.44445,3.07181l-0.46322,0.92615l-2.88944,3.87111l-0.09832,2.10256l-0.58312,1.16588l-0.67485,11.33496l3.97657,6.70965l3.60997,6.9138l9.99143,5.3952l1.2982,0.11822l1.8392,1.02361l4.81246,-0.41787l1.03126,0.09391l3.89863,-0.46048l0.45935,-0.10139l1.11077,-0.09645l0.47386,-0.25331l62.28184,-13.74689c3.82608,1.78172 8.10474,2.78563 12.28586,2.78563c10.88234,0 16.98751,-3.99177 20.43931,-10.00875l4.19249,-0.92537c1.99113,2.74885 4.57364,5.0405 8.00609,6.59301c3.84377,1.73856 7.8205,3.77674 12.03708,3.90932c2.57334,0.08091 4.85772,-1.71317 7.32185,-2.45925c2.46414,-0.74608 5.36003,-0.52046 7.45629,-2.01521c3.43487,-2.44925 5.61313,-6.35102 7.84696,-9.92972c0.38232,-0.61249 1.20743,-0.94209 1.42635,-1.63012c0.42956,-1.35005 0.80557,-2.8443 1.13348,-4.45081l75.52841,-16.67069l3.27692,-1.0747l0.15285,-0.03275l0.14726,-0.06567l0.15321,-0.05025l0.13525,-0.07839l3.14966,-1.40458l14,-8l0.79578,-0.56669l0.8585,-0.46623l25,-17l3.01053,-2.51954l0.54808,-0.69814l0.69308,-0.55446l2.49182,-3.03352l0.21893,-0.32839l0.99718,-0.62861l1.43883,-3.27582l1.18684,-2.23405l0.38955,-1.35497l1.55115,-3.53155l0.01842,-1.92782l0.5327,-1.85285l-0.47843,-3.8274l0.01347,-1.40979l-0.49968,-2.4799l-0.44378,-3.55025l-0.06349,-0.07256l1.20604,-0.75715l2.06676,-0.98026l2.36042,-1.7991l1.27338,-0.79943l0.50718,-0.73207l10.3283,-9.63974l0.28982,-0.09203l0.5378,-0.68042l2.82531,-2.63696l2.58915,-2.95087l2.45158,-4.36424l0.87993,-1.11328l0.08601,-0.60626l0.11569,-0.20595l2.03895,-0.03577h14.78072l3.90625,-0.39062l0.0468,-0.01489l3.48961,-0.13133l2.36393,-1.73116l0.54199,-0.17245l8.40443,0.84044l0.295,0.2071l2.15588,0.03799l2.30853,0.23085h1.24163c1.74556,13.45906 4.08703,26.92058 9.56074,40.11335c4.4858,10.81168 10.40625,21.57087 15.62112,32.35584c10.21838,21.13282 20.46813,42.2644 30.70216,63.3966c5.11703,10.5661 10.15703,21.13527 15.3511,31.6983c0.18139,0.36892 0.35084,0.73861 0.51084,1.10891c-2.27605,1.97411 -4.61442,3.95888 -6.98908,5.98748l-5.25791,4.5045c0,0 -6.48531,5.55603 0.16241,11.06568z" fill="#8a8a8a" stroke="none" stroke-width="0" stroke-linecap="butt"/><path d="" fill="#8a8a8a" stroke="none" stroke-width="0" stroke-linecap="butt"/><path d="M891.15318,770.25233c-0.80169,-4.71274 -1.7729,-9.40158 -2.66116,-14.10186l0.3656,0.5642l0.70521,0.29929l0.50073,0.57979l2.38302,0.64406l6.8637,2.91293l3.87194,-0.0114l1.33446,0.36067l1.36387,-0.36861l2.44796,-0.00721l0.11641,-0.02497l0.25398,0.55923l2.34298,1.43654l3.02167,3.49878l4.80118,1.29762l2.59779,1.59277l3.58881,0.07928l3.46535,0.93658l2.14709,-0.58029l5.8715,6.85008l1.02064,0.97494l1.14769,2.02077l5.65557,2.80066l0.66775,0.41319l-50.93264,11.24189c-0.54937,-5.28783 -1.74797,-16.95516 -2.94109,-23.96891z" fill="#8a8a8a" stroke="none" stroke-width="0" stroke-linecap="butt"/><path d="M125.05255,799.12664c-0.08141,3.58527 -0.12539,9.17321 -0.15197,14.37336c-1.40233,0 -2.80466,0 -4.20699,0c0.72134,-1.6915 1.08067,-3.65558 1.41513,-5.39909c0.71736,-3.73948 0.95759,-7.54335 1.12947,-11.35646c0.44523,0.83422 1.03448,1.65934 1.81435,2.38218z" fill="#8a8a8a" stroke="none" stroke-width="0" stroke-linecap="butt"/><path d="M301.76871,610.28832c0.00944,0.2005 0.01887,0.40101 0.0283,0.60151c-0.09015,-0.2001 -0.18794,-0.40103 -0.294,-0.60151z" fill="#8a8a8a" stroke="none" stroke-width="0" stroke-linecap="butt"/><path d="" fill="#8a8a8a" stroke="none" stroke-width="0" stroke-linecap="butt"/><path d="M195.79035,801.69408c0.9451,-8.32895 2.29246,-16.61681 2.95478,-24.973c0.71554,-9.0276 1.2094,-18.07654 1.93259,-27.10332c0.96318,1.22386 2.39068,2.33517 4.47027,3.16701c0.2707,0.10828 0.53665,0.20551 0.79793,0.29224c0.24125,4.86896 0.24111,9.18474 3.04098,13.92299c3.20013,5.41561 6.7424,8.94655 11.58107,10.83192c0.09763,0.7636 0.1956,1.52716 0.29393,2.29066c0.44095,3.42369 0.56538,6.91961 0.91981,10.36432c-0.43177,1.09207 -0.85654,2.18648 -1.27261,3.28383c-1.69284,4.46465 -1.11257,10.31774 -4.61821,13.55954c-4.85784,4.49224 -12.72015,3.75085 -18.81324,6.3302c-0.70512,-0.0182 -1.41028,-0.03491 -2.11549,-0.0501c0.27132,-3.97113 0.37973,-7.96408 0.82819,-11.91628z" fill="#8a8a8a" stroke="none" stroke-width="0" stroke-linecap="butt"/><path d="M202.52999,732.46646c0.17073,-1.14475 0.366,-2.43533 0.57857,-3.82893c0.053,0.61298 0.11195,1.22503 0.1758,1.83637c-0.24409,0.66707 -0.4949,1.33151 -0.75437,1.99256z" fill="#8a8a8a" stroke="none" stroke-width="0" stroke-linecap="butt"/><path d="" fill="#8a8a8a" stroke="none" stroke-width="0" stroke-linecap="butt"/><path d="" fill="#8a8a8a" stroke="none" stroke-width="0" stroke-linecap="butt"/><path d="" fill="#8a8a8a" stroke="none" stroke-width="0" stroke-linecap="butt"/><path d="M165.78956,744.70063c0.11602,-1.99803 1.01897,-3.87106 1.50149,-5.81343c1.60727,-6.47002 3.17905,-12.9488 4.76779,-19.42339c2.36132,-9.62308 4.88742,-19.11393 7.60934,-28.57283c-1.44504,9.90452 -3.17603,19.76959 -4.66438,29.66845c-0.64354,4.28016 -0.95948,8.62166 -1.91926,12.84217c-2.02223,8.89256 -4.65997,17.62883 -7.26881,26.37253c-0.1026,-5.02719 -0.31745,-10.05708 -0.02617,-15.0735z" fill="#8a8a8a" stroke="none" stroke-width="0" stroke-linecap="butt"/><path d="M146.69569,813.5h-0.83379c0,0 -0.09051,0 -0.25431,0.00861c0.51625,-1.03013 0.82002,-2.06075 0.99877,-2.91695c0.02914,0.96922 0.05893,1.93865 0.08934,2.90834z" fill="#8a8a8a" stroke="none" stroke-width="0" stroke-linecap="butt"/><path d="M648.8619,613.5v-68h134v68z" fill="#8a8a8a" stroke="none" stroke-width="0" stroke-linecap="butt"/><path d="M-46.6381,729.5v-119h231v119z" fill="#8a8a8a" stroke="none" stroke-width="0" stroke-linecap="butt"/><path d="M462.3619,484.26923v-61.76923l128.33333,49.66667c0,0 13,3.03526 13,4.66667c0,7.22065 -13.33333,7.4359 -13.33333,7.4359z" fill="#8a8a8a" stroke="none" stroke-width="0" stroke-linecap="butt"/><path d="M87.3619,462.5v-39.38462h133v39.38462z" fill="#8a8a8a" stroke="none" stroke-width="0" stroke-linecap="butt"/><path d="M214.3619,347.5l0.66667,-22.33333l82.45833,-17.66667v40z" fill="#8a8a8a" stroke="none" stroke-width="0" stroke-linecap="butt"/><path d="M386.3619,288.5v-40h93.125v40z" fill="#8a8a8a" stroke="none" stroke-width="0" stroke-linecap="butt"/><path d="M564.3619,231.5v-40h92.125v40z" fill="#8a8a8a" stroke="none" stroke-width="0" stroke-linecap="butt"/><path d="M753.36189,278.5v-40h92.125v40z" fill="#8a8a8a" stroke="none" stroke-width="0" stroke-linecap="butt"/><path d="M963.3619,276.5v-40h83.125v40z" fill="#8a8a8a" stroke="none" stroke-width="0" stroke-linecap="butt"/><path d="M587.88085,191.02696v-49.74958h41.83488v49.74959z" fill="#66fff5" stroke="#000000" stroke-width="2" stroke-linecap="butt"/><path d="M627.55908,165.67214c0,12.31815 -8.11826,22.30399 -18.13264,22.30399c-10.01438,0 -18.13263,-9.98584 -18.13263,-22.30399c0,-12.31815 8.11825,-22.30399 18.13263,-22.30399c10.01438,0 18.13264,9.98584 18.13264,22.30399z" fill="#66fff5" stroke="none" stroke-width="0" stroke-linecap="butt"/><path d="M614.6307,170.13294l-0.11438,-17.2713" fill="none" stroke="#000000" stroke-width="1.5" stroke-linecap="round"/><path d="M603.30712,170.13294v-17.61443" fill="none" stroke="#000000" stroke-width="1.5" stroke-linecap="round"/><path d="M602.2777,175.50877c0,0.34314 -0.34314,0.34314 -0.34314,0.34314h-0.11438c-0.97812,0 -0.92069,0.35599 -1.83594,0.66867c0,0 -0.32553,0.10851 -0.43404,-0.21702c-0.10851,-0.32553 0.21702,-0.43404 0.21702,-0.43404c0.48409,-0.15621 0.45737,-0.4431 0.86163,-0.66328c0.24524,-0.13357 0.9023,-0.0406 1.19133,-0.0406h0.11438c0,0 0.34314,0 0.34314,0.34314z" fill="#66fff5" stroke="none" stroke-width="0.5" stroke-linecap="butt"/><path d="M602.96679,176.04085c-0.00122,-0.66417 0.02084,-1.32413 -0.2833,-1.93572c-0.1073,-0.21578 -0.9066,-0.08329 -1.09207,-0.08329c-1.06782,0 -1.98155,0.63959 -1.94445,1.83007c0,0 0,0.34314 -0.34314,0.34314c-0.34314,0 -0.34314,-0.34314 -0.34314,-0.34314c0.03367,-1.53548 1.16403,-2.51635 2.63073,-2.51635c0.56188,0 1.25485,-0.15456 1.65304,0.37423c0.52399,0.69586 0.41051,1.83217 0.40136,2.6546l-0.03697,0.04561l0.02379,0.00793l-0.11188,0.33563c-0.04312,0.14022 -0.17367,0.24214 -0.32803,0.24214c-0.18951,0 -0.34314,-0.15363 -0.34314,-0.34314v-0.34314h0.09582l0.03617,-0.10851l0.32553,0.10851h0.22876v0.07625l0.07298,0.02433l-0.47108,0.58127l-0.28817,-0.68185c0,0 0,-0.16765 0.11719,-0.26858z" fill="#000000" stroke="none" stroke-width="0.5" stroke-linecap="butt"/><path d="M615.90275,174.60761c-0.24264,0.24264 -0.48527,0 -0.48527,0l-0.34314,-0.34314c-0.63628,-0.66569 -1.32825,-0.57728 -1.86744,0.16652c-0.3585,0.49454 0.0121,1.60972 0.24378,2.06811c0,0 0.15346,0.30691 -0.15346,0.46037c-0.30691,0.15346 -0.46037,-0.15346 -0.46037,-0.15346c-0.34831,-0.70316 -0.68705,-1.98862 -0.21374,-2.73582c0.74688,-1.1791 2.00181,-1.19575 2.9365,-0.291l0.34314,0.34314c0,0 0.24264,0.24264 0,0.48527z" fill="#000000" stroke="none" stroke-width="0.5" stroke-linecap="butt"/><path d="M609.48362,188.43365c-0.34314,0 -0.34314,-0.34314 -0.34314,-0.34314l0.03623,-0.38221c0.24497,-0.48843 0.46273,-0.82829 0.84834,-1.21516c1.48018,-1.94623 5.41819,-3.16009 7.36463,-1.27599c0,0 0.24264,0.24264 0,0.48527c-0.24264,0.24264 -0.48527,0 -0.48527,0c-1.58942,-1.66287 -5.19385,-0.34043 -6.36091,1.24036c-0.3567,0.3555 -0.52828,0.62152 -0.75297,1.07243l0.03623,0.0753c0,0 0,0.34314 -0.34314,0.34314z" fill="#000000" stroke="none" stroke-width="0.5" stroke-linecap="butt"/><path d="M607.2099,187.87563c-0.24264,0.24264 -0.48527,0 -0.48527,0l-0.19727,-0.24851c-0.07764,-0.23292 -0.1552,-0.46587 -0.23268,-0.69885c-0.17035,-0.67989 -0.37101,-1.25094 -0.83392,-1.80359c-0.86755,-1.03575 -4.22942,-0.58688 -5.16592,0.04871c0,0 -0.28551,0.19034 -0.47585,-0.09517c-0.19034,-0.28551 0.09517,-0.47585 0.09517,-0.47585c1.23754,-0.81323 4.90881,-1.25142 6.04327,0.04871c0.54052,0.61945 0.80255,1.30909 0.99615,2.08531c0.07503,0.22454 0.14997,0.44911 0.22483,0.6737l0.03149,-0.01975c0,0 0.24264,0.24264 0,0.48527z" fill="#000000" stroke="none" stroke-width="0.5" stroke-linecap="butt"/><path d="M846.6346,289.12005v-49.74958h41.83488v49.74959z" fill="#66fff5" stroke="#000000" stroke-width="2" stroke-linecap="butt"/><path d="M886.31283,263.76523c0,12.31815 -8.11826,22.30399 -18.13264,22.30399c-10.01438,0 -18.13263,-9.98584 -18.13263,-22.30399c0,-12.31815 8.11825,-22.30399 18.13263,-22.30399c10.01438,0 18.13264,9.98584 18.13264,22.30399z" fill="#66fff5" stroke="none" stroke-width="0" stroke-linecap="butt"/><path d="M873.38445,268.22603l-0.11438,-17.2713" fill="none" stroke="#000000" stroke-width="1.5" stroke-linecap="round"/><path d="M862.06087,268.22603v-17.61443" fill="none" stroke="#000000" stroke-width="1.5" stroke-linecap="round"/><path d="M861.03145,273.60186c0,0.34314 -0.34314,0.34314 -0.34314,0.34314h-0.11438c-0.97812,0 -0.92069,0.35599 -1.83594,0.66867c0,0 -0.32553,0.10851 -0.43404,-0.21702c-0.10851,-0.32553 0.21702,-0.43404 0.21702,-0.43404c0.48409,-0.15621 0.45737,-0.4431 0.86163,-0.66328c0.24524,-0.13357 0.9023,-0.0406 1.19133,-0.0406h0.11438c0,0 0.34314,0 0.34314,0.34314z" fill="#66fff5" stroke="none" stroke-width="0.5" stroke-linecap="butt"/><path d="M861.72054,274.13394c-0.00122,-0.66417 0.02084,-1.32413 -0.2833,-1.93572c-0.1073,-0.21578 -0.9066,-0.08329 -1.09207,-0.08329c-1.06782,0 -1.98155,0.63959 -1.94445,1.83007c0,0 0,0.34314 -0.34314,0.34314c-0.34314,0 -0.34314,-0.34314 -0.34314,-0.34314c0.03367,-1.53548 1.16403,-2.51635 2.63073,-2.51635c0.56188,0 1.25485,-0.15456 1.65304,0.37423c0.52399,0.69586 0.41051,1.83217 0.40136,2.6546l-0.03697,0.04561l0.02379,0.00793l-0.11188,0.33563c-0.04312,0.14022 -0.17367,0.24214 -0.32803,0.24214c-0.18951,0 -0.34314,-0.15363 -0.34314,-0.34314v-0.34314h0.09582l0.03617,-0.10851l0.32553,0.10851h0.22876v0.07625l0.07298,0.02433l-0.47108,0.58127l-0.28817,-0.68185c0,0 0,-0.16765 0.11719,-0.26858z" fill="#000000" stroke="none" stroke-width="0.5" stroke-linecap="butt"/><path d="M874.6565,272.7007c-0.24264,0.24264 -0.48527,0 -0.48527,0l-0.34314,-0.34314c-0.63628,-0.66569 -1.32825,-0.57728 -1.86744,0.16652c-0.3585,0.49454 0.0121,1.60972 0.24378,2.06811c0,0 0.15346,0.30691 -0.15346,0.46037c-0.30691,0.15346 -0.46037,-0.15346 -0.46037,-0.15346c-0.34831,-0.70316 -0.68705,-1.98862 -0.21374,-2.73582c0.74688,-1.1791 2.00181,-1.19575 2.9365,-0.291l0.34314,0.34314c0,0 0.24264,0.24264 0,0.48527z" fill="#000000" stroke="none" stroke-width="0.5" stroke-linecap="butt"/><path d="M868.23737,286.52674c-0.34314,0 -0.34314,-0.34314 -0.34314,-0.34314l0.03623,-0.38221c0.24497,-0.48843 0.46273,-0.82829 0.84834,-1.21516c1.48018,-1.94623 5.41819,-3.16009 7.36463,-1.27599c0,0 0.24264,0.24264 0,0.48527c-0.24264,0.24264 -0.48527,0 -0.48527,0c-1.58942,-1.66287 -5.19385,-0.34043 -6.36091,1.24036c-0.3567,0.3555 -0.52828,0.62152 -0.75297,1.07243l0.03623,0.0753c0,0 0,0.34314 -0.34314,0.34314z" fill="#000000" stroke="none" stroke-width="0.5" stroke-linecap="butt"/><path d="M865.96365,285.96872c-0.24264,0.24264 -0.48527,0 -0.48527,0l-0.19727,-0.24851c-0.07764,-0.23292 -0.1552,-0.46587 -0.23268,-0.69885c-0.17035,-0.67989 -0.37101,-1.25094 -0.83392,-1.80359c-0.86755,-1.03575 -4.22942,-0.58688 -5.16592,0.04871c0,0 -0.28551,0.19034 -0.47585,-0.09517c-0.19034,-0.28551 0.09517,-0.47585 0.09517,-0.47585c1.23754,-0.81323 4.90881,-1.25142 6.04327,0.04871c0.54052,0.61945 0.80255,1.30909 0.99615,2.08531c0.07503,0.22454 0.14997,0.44911 0.22483,0.6737l0.03149,-0.01975c0,0 0.24264,0.24264 0,0.48527z" fill="#000000" stroke="none" stroke-width="0.5" stroke-linecap="butt"/><path d="M922.20517,288.11405v-49.74958h41.83488v49.74959z" fill="#66fff5" stroke="#000000" stroke-width="2" stroke-linecap="butt"/><path d="M961.8834,262.75923c0,12.31815 -8.11826,22.30399 -18.13264,22.30399c-10.01438,0 -18.13263,-9.98584 -18.13263,-22.30399c0,-12.31815 8.11825,-22.30399 18.13263,-22.30399c10.01438,0 18.13264,9.98584 18.13264,22.30399z" fill="#66fff5" stroke="none" stroke-width="0" stroke-linecap="butt"/><path d="M948.95502,267.22003l-0.11438,-17.2713" fill="none" stroke="#000000" stroke-width="1.5" stroke-linecap="round"/><path d="M937.63144,267.22003v-17.61443" fill="none" stroke="#000000" stroke-width="1.5" stroke-linecap="round"/><path d="M936.60202,272.59586c0,0.34314 -0.34314,0.34314 -0.34314,0.34314h-0.11438c-0.97812,0 -0.92069,0.35599 -1.83594,0.66867c0,0 -0.32553,0.10851 -0.43404,-0.21702c-0.10851,-0.32553 0.21702,-0.43404 0.21702,-0.43404c0.48409,-0.15621 0.45737,-0.4431 0.86163,-0.66328c0.24524,-0.13357 0.9023,-0.0406 1.19133,-0.0406h0.11438c0,0 0.34314,0 0.34314,0.34314z" fill="#66fff5" stroke="none" stroke-width="0.5" stroke-linecap="butt"/><path d="M937.29111,273.12794c-0.00122,-0.66417 0.02084,-1.32413 -0.2833,-1.93572c-0.1073,-0.21578 -0.9066,-0.08329 -1.09207,-0.08329c-1.06782,0 -1.98155,0.63959 -1.94445,1.83007c0,0 0,0.34314 -0.34314,0.34314c-0.34314,0 -0.34314,-0.34314 -0.34314,-0.34314c0.03367,-1.53548 1.16403,-2.51635 2.63073,-2.51635c0.56188,0 1.25485,-0.15456 1.65304,0.37423c0.52399,0.69586 0.41051,1.83217 0.40136,2.6546l-0.03697,0.04561l0.02379,0.00793l-0.11188,0.33563c-0.04312,0.14022 -0.17367,0.24214 -0.32803,0.24214c-0.18951,0 -0.34314,-0.15363 -0.34314,-0.34314v-0.34314h0.09582l0.03617,-0.10851l0.32553,0.10851h0.22876v0.07625l0.07298,0.02433l-0.47108,0.58127l-0.28817,-0.68185c0,0 0,-0.16765 0.11719,-0.26858z" fill="#000000" stroke="none" stroke-width="0.5" stroke-linecap="butt"/><path d="M950.22707,271.6947c-0.24264,0.24264 -0.48527,0 -0.48527,0l-0.34314,-0.34314c-0.63628,-0.66569 -1.32825,-0.57728 -1.86744,0.16652c-0.3585,0.49454 0.0121,1.60972 0.24378,2.06811c0,0 0.15346,0.30691 -0.15346,0.46037c-0.30691,0.15346 -0.46037,-0.15346 -0.46037,-0.15346c-0.34831,-0.70316 -0.68705,-1.98862 -0.21374,-2.73582c0.74688,-1.1791 2.00181,-1.19575 2.9365,-0.291l0.34314,0.34314c0,0 0.24264,0.24264 0,0.48527z" fill="#000000" stroke="none" stroke-width="0.5" stroke-linecap="butt"/><path d="M943.80794,285.52074c-0.34314,0 -0.34314,-0.34314 -0.34314,-0.34314l0.03623,-0.38221c0.24497,-0.48843 0.46273,-0.82829 0.84834,-1.21516c1.48018,-1.94623 5.41819,-3.16009 7.36463,-1.27599c0,0 0.24264,0.24264 0,0.48527c-0.24264,0.24264 -0.48527,0 -0.48527,0c-1.58942,-1.66287 -5.19385,-0.34043 -6.36091,1.24036c-0.3567,0.3555 -0.52828,0.62152 -0.75297,1.07243l0.03623,0.0753c0,0 0,0.34314 -0.34314,0.34314z" fill="#000000" stroke="none" stroke-width="0.5" stroke-linecap="butt"/><path d="M941.53422,284.96272c-0.24264,0.24264 -0.48527,0 -0.48527,0l-0.19727,-0.24851c-0.07764,-0.23292 -0.1552,-0.46587 -0.23268,-0.69885c-0.17035,-0.67989 -0.37101,-1.25094 -0.83392,-1.80359c-0.86755,-1.03575 -4.22942,-0.58688 -5.16592,0.04871c0,0 -0.28551,0.19034 -0.47585,-0.09517c-0.19034,-0.28551 0.09517,-0.47585 0.09517,-0.47585c1.23754,-0.81323 4.90881,-1.25142 6.04327,0.04871c0.54052,0.61945 0.80255,1.30909 0.99615,2.08531c0.07503,0.22454 0.14997,0.44911 0.22483,0.6737l0.03149,-0.01975c0,0 0.24264,0.24264 0,0.48527z" fill="#000000" stroke="none" stroke-width="0.5" stroke-linecap="butt"/><path d="M883.66163,288.60954v-49.74958h41.83488v49.74959z" fill="#66fff5" stroke="#000000" stroke-width="2" stroke-linecap="butt"/><path d="M923.33986,263.25472c0,12.31815 -8.11826,22.30399 -18.13264,22.30399c-10.01438,0 -18.13263,-9.98584 -18.13263,-22.30399c0,-12.31815 8.11825,-22.30399 18.13263,-22.30399c10.01438,0 18.13264,9.98584 18.13264,22.30399z" fill="#66fff5" stroke="none" stroke-width="0" stroke-linecap="butt"/><path d="M910.41148,267.71552l-0.11438,-17.2713" fill="none" stroke="#000000" stroke-width="1.5" stroke-linecap="round"/><path d="M899.0879,267.71552v-17.61443" fill="none" stroke="#000000" stroke-width="1.5" stroke-linecap="round"/><path d="M898.05848,273.09135c0,0.34314 -0.34314,0.34314 -0.34314,0.34314h-0.11438c-0.97812,0 -0.92069,0.35599 -1.83594,0.66867c0,0 -0.32553,0.10851 -0.43404,-0.21702c-0.10851,-0.32553 0.21702,-0.43404 0.21702,-0.43404c0.48409,-0.15621 0.45737,-0.4431 0.86163,-0.66328c0.24524,-0.13357 0.9023,-0.0406 1.19133,-0.0406h0.11438c0,0 0.34314,0 0.34314,0.34314z" fill="#66fff5" stroke="none" stroke-width="0.5" stroke-linecap="butt"/><path d="M898.74757,273.62343c-0.00122,-0.66417 0.02084,-1.32413 -0.2833,-1.93572c-0.1073,-0.21578 -0.9066,-0.08329 -1.09207,-0.08329c-1.06782,0 -1.98155,0.63959 -1.94445,1.83007c0,0 0,0.34314 -0.34314,0.34314c-0.34314,0 -0.34314,-0.34314 -0.34314,-0.34314c0.03367,-1.53548 1.16403,-2.51635 2.63073,-2.51635c0.56188,0 1.25485,-0.15456 1.65304,0.37423c0.52399,0.69586 0.41051,1.83217 0.40136,2.6546l-0.03697,0.04561l0.02379,0.00793l-0.11188,0.33563c-0.04312,0.14022 -0.17367,0.24214 -0.32803,0.24214c-0.18951,0 -0.34314,-0.15363 -0.34314,-0.34314v-0.34314h0.09582l0.03617,-0.10851l0.32553,0.10851h0.22876v0.07625l0.07298,0.02433l-0.47108,0.58127l-0.28817,-0.68185c0,0 0,-0.16765 0.11719,-0.26858z" fill="#000000" stroke="none" stroke-width="0.5" stroke-linecap="butt"/><path d="M911.68353,272.19019c-0.24264,0.24264 -0.48527,0 -0.48527,0l-0.34314,-0.34314c-0.63628,-0.66569 -1.32825,-0.57728 -1.86744,0.16652c-0.3585,0.49454 0.0121,1.60972 0.24378,2.06811c0,0 0.15346,0.30691 -0.15346,0.46037c-0.30691,0.15346 -0.46037,-0.15346 -0.46037,-0.15346c-0.34831,-0.70316 -0.68705,-1.98862 -0.21374,-2.73582c0.74688,-1.1791 2.00181,-1.19575 2.9365,-0.291l0.34314,0.34314c0,0 0.24264,0.24264 0,0.48527z" fill="#000000" stroke="none" stroke-width="0.5" stroke-linecap="butt"/><path d="M905.2644,286.01623c-0.34314,0 -0.34314,-0.34314 -0.34314,-0.34314l0.03623,-0.38221c0.24497,-0.48843 0.46273,-0.82829 0.84834,-1.21516c1.48018,-1.94623 5.41819,-3.16009 7.36463,-1.27599c0,0 0.24264,0.24264 0,0.48527c-0.24264,0.24264 -0.48527,0 -0.48527,0c-1.58942,-1.66287 -5.19385,-0.34043 -6.36091,1.24036c-0.3567,0.3555 -0.52828,0.62152 -0.75297,1.07243l0.03623,0.0753c0,0 0,0.34314 -0.34314,0.34314z" fill="#000000" stroke="none" stroke-width="0.5" stroke-linecap="butt"/><path d="M902.99068,285.45821c-0.24264,0.24264 -0.48527,0 -0.48527,0l-0.19727,-0.24851c-0.07764,-0.23292 -0.1552,-0.46587 -0.23268,-0.69885c-0.17035,-0.67989 -0.37101,-1.25094 -0.83392,-1.80359c-0.86755,-1.03575 -4.22942,-0.58688 -5.16592,0.04871c0,0 -0.28551,0.19034 -0.47585,-0.09517c-0.19034,-0.28551 0.09517,-0.47585 0.09517,-0.47585c1.23754,-0.81323 4.90881,-1.25142 6.04327,0.04871c0.54052,0.61945 0.80255,1.30909 0.99615,2.08531c0.07503,0.22454 0.14997,0.44911 0.22483,0.6737l0.03149,-0.01975c0,0 0.24264,0.24264 0,0.48527z" fill="#000000" stroke="none" stroke-width="0.5" stroke-linecap="butt"/><path d="M785.05802,595.41135v-49.74958h41.83488v49.74959z" fill="#66fff5" stroke="#000000" stroke-width="2" stroke-linecap="butt"/><path d="M824.73625,570.05653c0,12.31815 -8.11826,22.30399 -18.13264,22.30399c-10.01438,0 -18.13263,-9.98584 -18.13263,-22.30399c0,-12.31815 8.11825,-22.30399 18.13263,-22.30399c10.01438,0 18.13264,9.98584 18.13264,22.30399z" fill="#66fff5" stroke="none" stroke-width="0" stroke-linecap="butt"/><path d="M811.80787,574.51733l-0.11438,-17.2713" fill="none" stroke="#000000" stroke-width="1.5" stroke-linecap="round"/><path d="M800.48429,574.51733v-17.61443" fill="none" stroke="#000000" stroke-width="1.5" stroke-linecap="round"/><path d="M799.45487,579.89316c0,0.34314 -0.34314,0.34314 -0.34314,0.34314h-0.11438c-0.97812,0 -0.92069,0.35599 -1.83594,0.66867c0,0 -0.32553,0.10851 -0.43404,-0.21702c-0.10851,-0.32553 0.21702,-0.43404 0.21702,-0.43404c0.48409,-0.15621 0.45737,-0.4431 0.86163,-0.66328c0.24524,-0.13357 0.9023,-0.0406 1.19133,-0.0406h0.11438c0,0 0.34314,0 0.34314,0.34314z" fill="#66fff5" stroke="none" stroke-width="0.5" stroke-linecap="butt"/><path d="M800.14396,580.42524c-0.00122,-0.66417 0.02084,-1.32413 -0.2833,-1.93572c-0.1073,-0.21578 -0.9066,-0.08329 -1.09207,-0.08329c-1.06782,0 -1.98155,0.63959 -1.94445,1.83007c0,0 0,0.34314 -0.34314,0.34314c-0.34314,0 -0.34314,-0.34314 -0.34314,-0.34314c0.03367,-1.53548 1.16403,-2.51635 2.63073,-2.51635c0.56188,0 1.25485,-0.15456 1.65304,0.37423c0.52399,0.69586 0.41051,1.83217 0.40136,2.6546l-0.03697,0.04561l0.02379,0.00793l-0.11188,0.33563c-0.04312,0.14022 -0.17367,0.24214 -0.32803,0.24214c-0.18951,0 -0.34314,-0.15363 -0.34314,-0.34314v-0.34314h0.09582l0.03617,-0.10851l0.32553,0.10851h0.22876v0.07625l0.07298,0.02433l-0.47108,0.58127l-0.28817,-0.68185c0,0 0,-0.16765 0.11719,-0.26858z" fill="#000000" stroke="none" stroke-width="0.5" stroke-linecap="butt"/><path d="M813.07992,578.992c-0.24264,0.24264 -0.48527,0 -0.48527,0l-0.34314,-0.34314c-0.63628,-0.66569 -1.32825,-0.57728 -1.86744,0.16652c-0.3585,0.49454 0.0121,1.60972 0.24378,2.06811c0,0 0.15346,0.30691 -0.15346,0.46037c-0.30691,0.15346 -0.46037,-0.15346 -0.46037,-0.15346c-0.34831,-0.70316 -0.68705,-1.98862 -0.21374,-2.73582c0.74688,-1.1791 2.00181,-1.19575 2.9365,-0.291l0.34314,0.34314c0,0 0.24264,0.24264 0,0.48527z" fill="#000000" stroke="none" stroke-width="0.5" stroke-linecap="butt"/><path d="M806.66079,592.81804c-0.34314,0 -0.34314,-0.34314 -0.34314,-0.34314l0.03623,-0.38221c0.24497,-0.48843 0.46273,-0.82829 0.84834,-1.21516c1.48018,-1.94623 5.41819,-3.16009 7.36463,-1.27599c0,0 0.24264,0.24264 0,0.48527c-0.24264,0.24264 -0.48527,0 -0.48527,0c-1.58942,-1.66287 -5.19385,-0.34043 -6.36091,1.24036c-0.3567,0.3555 -0.52828,0.62152 -0.75297,1.07243l0.03623,0.0753c0,0 0,0.34314 -0.34314,0.34314z" fill="#000000" stroke="none" stroke-width="0.5" stroke-linecap="butt"/><path d="M804.38707,592.26002c-0.24264,0.24264 -0.48527,0 -0.48527,0l-0.19727,-0.24851c-0.07764,-0.23292 -0.1552,-0.46587 -0.23268,-0.69885c-0.17035,-0.67989 -0.37101,-1.25094 -0.83392,-1.80359c-0.86755,-1.03575 -4.22942,-0.58688 -5.16592,0.04871c0,0 -0.28551,0.19034 -0.47585,-0.09517c-0.19034,-0.28551 0.09517,-0.47585 0.09517,-0.47585c1.23754,-0.81323 4.90881,-1.25142 6.04327,0.04871c0.54052,0.61945 0.80255,1.30909 0.99615,2.08531c0.07503,0.22454 0.14997,0.44911 0.22483,0.6737l0.03149,-0.01975c0,0 0.24264,0.24264 0,0.48527z" fill="#000000" stroke="none" stroke-width="0.5" stroke-linecap="butt"/></g></g></svg>