<svg version="1.1" xmlns="http://www.w3.org/2000/svg" xmlns:xlink="http://www.w3.org/1999/xlink" width="21.33333" height="16.29486" viewBox="0,0,21.33333,16.29486"><defs><radialGradient cx="544.08333" cy="324.16667" r="9.91666" gradientUnits="userSpaceOnUse" id="color-1"><stop offset="0" stop-color="#ffffff"/><stop offset="1" stop-color="#66ebff"/></radialGradient></defs><g transform="translate(-527.66667,-320.91666)"><g data-paper-data="{&quot;isPaintingLayer&quot;:true}" fill-rule="nonzero" stroke="#000000" stroke-linecap="butt" stroke-linejoin="miter" stroke-miterlimit="10" stroke-dasharray="" stroke-dashoffset="0" style="mix-blend-mode: normal"><path d="M542.68665,330.45765c0.44043,0.07947 0.88803,0.12983 1.33483,0.12825c0.22497,-0.0008 0.88371,0.0289 0.67305,-0.05005c-0.48473,-0.18166 -1.25482,-0.14549 -2.00788,-0.07819zM531.47048,331.12424c-0.10696,-0.07742 -0.20268,-0.19916 -0.26531,-0.38706c-0.23717,-0.71151 0.47434,-0.94868 0.47434,-0.94868l0.61387,-0.19495c3.12804,-0.51371 6.44658,-0.5102 9.6233,-0.5102c0.79058,0 2.37226,-0.2677 3.0705,0.03849c1.22054,0.53521 1.73338,1.48771 0.56643,2.6291c-0.06234,0.06097 -0.13431,0.11332 -0.21421,0.15799c0.40037,0.36053 0.48832,0.90742 -0.00938,1.73324c-0.02729,0.04528 -0.08134,0.08328 -0.15544,0.11516c1.15924,0.77904 1.62072,2.16769 -0.35406,2.9542c-1.00201,0.39908 -2.24035,-0.14092 -3.19064,-0.30453c-3.12556,-0.53812 -6.86109,-0.32365 -10.04653,-0.32365c0,0 -0.75,0 -0.75,-0.75c0,-0.1416 0.02673,-0.25646 0.0701,-0.34964c-0.04498,-0.0963 -0.0701,-0.20373 -0.0701,-0.31703c0,-0.17157 0.05761,-0.32969 0.15455,-0.45606l0.49545,-0.66061l0.26579,0.19934c0.36795,-0.381 0.79599,-0.67621 1.26724,-0.90264c-0.05461,-0.01195 -0.10901,-0.02423 -0.1632,-0.03684c-0.60053,-0.13979 -1.47965,0.044 -1.78288,-0.49286c-0.20884,-0.36975 0.09951,-0.80818 0.40018,-1.19276zM540.21786,334.91114c0.17712,0.00277 0.35449,0.00466 0.53214,0.00554c0.14807,0.00073 4.25634,0.43845 3.96606,0.01768c-0.16909,-0.2451 -0.57997,-0.13676 -0.8733,-0.18799c-1.22633,0.00483 -2.42996,0.0733 -3.6249,0.16478zM534.66617,333.85098c1.13964,-0.06207 2.26782,-0.16019 3.39636,-0.25912c-1.03794,-0.04713 -2.06034,-0.02988 -3.02572,0.14844c-0.11345,0.02096 -0.23822,0.06034 -0.37064,0.11068zM538.76276,331.56913c-1.10108,-0.15632 -2.21078,-0.30904 -3.3461,-0.31912c-0.49084,-0.00436 -1.08021,0.05649 -1.61553,0.15307c0.31693,0.07486 0.58705,0.17194 0.68289,0.18329c1.34401,0.15923 2.84103,0.13474 4.27875,-0.01724z" fill="#8a8a8a" stroke-width="1"/><path d="M528.41667,328.83333v-7.16667h19.83333v7.16667z" fill="url(#color-1)" stroke-width="1.5"/></g></g></svg>