<svg version="1.1" xmlns="http://www.w3.org/2000/svg" xmlns:xlink="http://www.w3.org/1999/xlink" width="30" height="63.5" viewBox="0,0,30,63.5"><defs><linearGradient x1="528.29259" y1="394.5514" x2="528.29259" y2="413.41261" gradientUnits="userSpaceOnUse" id="color-1"><stop offset="0" stop-color="#7d7d7d"/><stop offset="1" stop-color="#adadad"/></linearGradient><linearGradient x1="-2180.12471" y1="2274.14582" x2="-2179.02878" y2="2289.00494" gradientUnits="userSpaceOnUse" id="color-2"><stop offset="0" stop-color="#7d7d7d"/><stop offset="1" stop-color="#adadad"/></linearGradient><linearGradient x1="547.54716" y1="308.98661" x2="553.58921" y2="308.98661" gradientUnits="userSpaceOnUse" id="color-3"><stop offset="0" stop-color="#006cff"/><stop offset="1" stop-color="#00a3ff"/></linearGradient><linearGradient x1="531.30548" y1="309.68505" x2="540.52442" y2="309.68505" gradientUnits="userSpaceOnUse" id="color-4"><stop offset="0" stop-color="#006cff"/><stop offset="1" stop-color="#00a3ff"/></linearGradient><linearGradient x1="543.20253" y1="309.47487" x2="544.85077" y2="309.47487" gradientUnits="userSpaceOnUse" id="color-5"><stop offset="0" stop-color="#006cff"/><stop offset="1" stop-color="#00a3ff"/></linearGradient><linearGradient x1="543.8285" y1="340.1025" x2="543.8285" y2="360.12483" gradientUnits="userSpaceOnUse" id="color-6"><stop offset="0" stop-color="#393939"/><stop offset="1" stop-color="#717171"/></linearGradient><linearGradient x1="537.5951" y1="339.65557" x2="537.5951" y2="362.10715" gradientUnits="userSpaceOnUse" id="color-7"><stop offset="0" stop-color="#393939"/><stop offset="1" stop-color="#717171"/></linearGradient><linearGradient x1="548.54024" y1="325.69155" x2="548.54024" y2="340.46791" gradientUnits="userSpaceOnUse" id="color-8"><stop offset="0" stop-color="#9e9e9e"/><stop offset="1" stop-color="#717171"/></linearGradient><linearGradient x1="534.41367" y1="324.96813" x2="534.41367" y2="337.22034" gradientUnits="userSpaceOnUse" id="color-9"><stop offset="0" stop-color="#9e9e9e"/><stop offset="1" stop-color="#717171"/></linearGradient><linearGradient x1="541.8595" y1="320.65732" x2="541.8595" y2="337.66267" gradientUnits="userSpaceOnUse" id="color-10"><stop offset="0" stop-color="#9e9e9e"/><stop offset="1" stop-color="#717171"/></linearGradient><linearGradient x1="537.36662" y1="287.11557" x2="537.36662" y2="305.68436" gradientUnits="userSpaceOnUse" id="color-11"><stop offset="0" stop-color="#9e9e9e"/><stop offset="1" stop-color="#717171"/></linearGradient><linearGradient x1="541.81562" y1="313.49429" x2="541.81562" y2="318.23661" gradientUnits="userSpaceOnUse" id="color-12"><stop offset="0" stop-color="#9e9e9e"/><stop offset="1" stop-color="#717171"/></linearGradient></defs><g transform="translate(-526,-303.5)"><g data-paper-data="{&quot;isPaintingLayer&quot;:true}" fill-rule="nonzero" stroke-linejoin="miter" stroke-miterlimit="10" stroke-dasharray="" stroke-dashoffset="0" style="mix-blend-mode: normal"><path d="" data-paper-data="{&quot;index&quot;:null}" fill="#000000" stroke="none" stroke-width="0.5" stroke-linecap="butt"/><path d="" data-paper-data="{&quot;noHover&quot;:false,&quot;origItem&quot;:[&quot;Path&quot;,{&quot;applyMatrix&quot;:true,&quot;segments&quot;:[[[214.21936,363.46624],[-0.30208,-0.37388],[3.00673,0.15442]],[[223.17564,365.12684],[-2.72214,-1.01229],[0.78421,0.29162]],[[225.23038,366.56847],[-0.80035,-0.24385],[0.7421,0.2261]],[[227.55523,366.4612],[-0.77495,0.03576],[3.50491,0]],[[238.06996,366.4612],[-3.50491,0],[-1.08058,-2.14878]],[[237.21302,359.55162],[0.01277,2.28708],[0,0]],[[239.71302,357.05162],[-2.5,0],[2.5,0]],[[242.21302,359.55162],[0,0],[-0.01909,2.79627]],[[244.14909,365.09479],[-2.53148,-1.37374],[0,0]],[[244.57107,366.4612],[0,0],[7.03354,0]],[[265.67169,366.4612],[-7.03354,0],[3.04925,0]],[[274.81964,366.4612],[-3.04923,-0.00986],[0.84642,0.00274]],[[277.35997,366.4598],[-0.84249,-0.07098],[-2.84376,-3.86932]],[[269.2555,354.64224],[2.9011,3.87495],[-1.52693,-2.0395]],[[264.37183,348.76265],[1.03081,2.32992],[-0.4631,-1.04675]],[[264.2484,345.33101],[0.26442,1.11366],[-0.24124,-1.01601]],[[261.55208,340.80707],[0.56849,0.84929],[0,0]],[[261.11463,339.02281],[-0.11332,0.95811],[-0.5179,0.09202]],[[259.60671,339.31511],[0.48224,-0.10965],[-4.9579,1.12734]],[[244.77858,341.16631],[4.93186,-0.53102],[-0.36495,0.13559]],[[243.66918,341.57508],[0.37522,-0.13655],[-2.05219,0.74685]],[[237.17595,342.44759],[2.13113,-0.47702],[-1.33538,0.29891]],[[233.36431,343.97224],[1.3434,-0.26048],[-3.96057,0.76793]],[[221.09473,343.98507],[3.96691,-0.63065],[-1.45541,0.23138]],[[216.91087,345.41372],[1.39462,-0.47622],[0,0]],[[216.89509,345.41869],[0.01038,-0.00317],[-0.03209,0.04913]],[[216.84315,345.4943],[0,0],[-0.66286,0.84427]],[[214.85458,348.02711],[0.40217,-0.9952],[-0.90439,2.23798]],[[214.22695,355.24129],[0.57394,-2.34458],[-0.27021,1.10382]],[[212.7023,358.2906],[0.23015,-1.11286],[-0.27004,1.30575]],[[212.76917,362.29019],[-0.0223,-1.33319],[0,0]],[[212.76917,362.68043],[0,0],[0.69117,0.09707]]],&quot;closed&quot;:true}],&quot;index&quot;:null}" fill="url(#color-1)" stroke="none" stroke-width="0.5" stroke-linecap="butt"/><path d="" data-paper-data="{&quot;index&quot;:null}" fill="#000000" stroke="none" stroke-width="0.5" stroke-linecap="butt"/><path d="" data-paper-data="{&quot;noHover&quot;:false,&quot;origItem&quot;:[&quot;Path&quot;,{&quot;applyMatrix&quot;:true,&quot;segments&quot;:[[[214.21936,363.46624],[-0.30208,-0.37388],[3.00673,0.15442]],[[223.17564,365.12684],[-2.72214,-1.01229],[0.78421,0.29162]],[[225.23038,366.56847],[-0.80035,-0.24385],[0.7421,0.2261]],[[227.55523,366.4612],[-0.77495,0.03576],[3.50491,0]],[[238.06996,366.4612],[-3.50491,0],[-1.08058,-2.14878]],[[237.21302,359.55162],[0.01277,2.28708],[0,0]],[[239.71302,357.05162],[-2.5,0],[2.5,0]],[[242.21302,359.55162],[0,0],[-0.01909,2.79627]],[[244.14909,365.09479],[-2.53148,-1.37374],[0,0]],[[244.57107,366.4612],[0,0],[7.03354,0]],[[265.67169,366.4612],[-7.03354,0],[3.04925,0]],[[274.81964,366.4612],[-3.04923,-0.00986],[0.84642,0.00274]],[[277.35997,366.4598],[-0.84249,-0.07098],[-2.84376,-3.86932]],[[269.2555,354.64224],[2.9011,3.87495],[-1.52693,-2.0395]],[[264.37183,348.76265],[1.03081,2.32992],[-0.4631,-1.04675]],[[264.2484,345.33101],[0.26442,1.11366],[-0.24124,-1.01601]],[[261.55208,340.80707],[0.56849,0.84929],[0,0]],[[261.11463,339.02281],[-0.11332,0.95811],[-0.5179,0.09202]],[[259.60671,339.31511],[0.48224,-0.10965],[-4.9579,1.12734]],[[244.77858,341.16631],[4.93186,-0.53102],[-0.36495,0.13559]],[[243.66918,341.57508],[0.37522,-0.13655],[-2.05219,0.74685]],[[237.17595,342.44759],[2.13113,-0.47702],[-1.33538,0.29891]],[[233.36431,343.97224],[1.3434,-0.26048],[-3.96057,0.76793]],[[221.09473,343.98507],[3.96691,-0.63065],[-1.45541,0.23138]],[[216.91087,345.41372],[1.39462,-0.47622],[0,0]],[[216.89509,345.41869],[0.01038,-0.00317],[-0.03209,0.04913]],[[216.84315,345.4943],[0,0],[-0.66286,0.84427]],[[214.85458,348.02711],[0.40217,-0.9952],[-0.90439,2.23798]],[[214.22695,355.24129],[0.57394,-2.34458],[-0.27021,1.10382]],[[212.7023,358.2906],[0.23015,-1.11286],[-0.27004,1.30575]],[[212.76917,362.29019],[-0.0223,-1.33319],[0,0]],[[212.76917,362.68043],[0,0],[0.69117,0.09707]]],&quot;closed&quot;:true}],&quot;index&quot;:null}" fill="url(#color-2)" stroke="none" stroke-width="0.5" stroke-linecap="butt"/><path d="" fill="#000000" stroke="none" stroke-width="0.5" stroke-linecap="butt"/><path d="M528.2986,315.89628c-0.04754,-2.2883 -0.00887,-4.92219 0.23993,-7.45243c-0.36251,-0.1223 -0.70572,-0.27976 -1.04372,-0.45202c4.40021,-0.74093 8.81912,-1.71217 13.43709,-2.73892c0.44493,2.1294 1.16982,4.1731 2.30385,6.07877c-0.00186,0.01727 -0.00374,0.03454 -0.00564,0.05181c0,0 -0.00301,0.02704 -0.01189,0.07335c0.0309,0.00001 0.0618,-0.00001 0.09269,-0.00005c0.58707,0.96802 1.28112,1.8999 2.09925,2.78871c-4.4532,0.1817 -9.0331,-0.22722 -13.31386,-0.22722l0.00001,0.00001l-0.54821,0.13856c0,0 -0.1282,0.02564 -0.31555,0.02323c-0.00462,0.096 -0.00943,0.19154 -0.01445,0.28657c-0.03727,0.70508 -0.48553,2.93555 0.45747,3.34662c0.99385,0.43324 2.15967,0.1941 3.23844,0.30226c3.0498,0.30579 5.87589,-0.11305 8.82641,-0.47177c0.08821,-0.01834 0.18358,-0.03026 0.2867,-0.0346c0.47991,-0.05741 0.96339,-0.11258 1.45192,-0.16215c0.98609,-0.08887 2.37625,0.06274 3.58086,-0.10608c0.471,0.31529 0.96627,0.62194 1.48698,0.91949c0.56853,0.32488 1.15078,0.63175 1.74462,0.91975c-0.17153,0.1148 -0.34539,0.21691 -0.5214,0.30779c-0.89845,-0.0593 -1.7972,-0.15213 -2.6992,-0.29645c-3.4374,-0.54998 -7.04331,-0.27483 -10.52038,-0.27483c-3.2872,0 -6.5744,0 -9.86159,0c-0.48029,-0.83104 -0.36321,-1.71488 -0.39033,-3.02039zM540.32665,311.06086c0.10631,-0.94332 0.15949,-1.89419 0.158,-2.84348l-0.04754,-0.24615c-2.98355,0.21683 -6.01728,0.2871 -8.94173,0.59276c-0.07253,0.88365 -0.11595,1.77895 -0.15038,2.66386l0.75129,-0.13088c2.60791,0 5.41154,0.19973 8.23681,0.30159c-0.02199,-0.19778 -0.00645,-0.33769 -0.00645,-0.33769z" fill="#000000" stroke="none" stroke-width="0.5" stroke-linecap="butt"/><path d="M535.21896,338.37098c-2.35843,1.94448 -4.8212,2.31912 -5.88695,-1.13799c-0.45837,-1.48686 0.12132,-2.57905 0.5371,-3.9158c0.67437,-2.16817 1.209,-4.40148 2.27071,-6.4171c1.03922,-1.97294 2.59625,-3.5755 3.46276,-5.58747c0,0 0.03897,-0.08767 0.1194,-0.2081c-0.3644,-0.01846 -0.73139,-0.04554 -1.10153,-0.08246c-0.94577,-0.09434 -3.7619,-0.26256 -4.44045,-0.69933c-0.49073,-0.31588 -0.85322,-0.61234 -1.12095,-0.90606c3.16382,0 6.32764,0 9.49147,0c3.44984,0 7.03104,-0.27711 10.44139,0.26855c0.57487,0.09198 1.1484,0.16333 1.72136,0.21859c-1.39759,0.40051 -2.89887,0.31983 -4.42448,0.41143c1.01955,2.01567 2.52995,3.438 3.73651,5.31901c1.75716,2.7394 2.39345,6.34962 2.72181,9.48228c0.16301,1.55515 1.06807,3.87086 0.65071,5.41626c-0.58601,2.16989 -1.80077,3.37523 -4.25988,2.37756c-1.79602,-0.72866 -2.41474,-3.6636 -2.59987,-5.29158c-0.08246,-0.20198 -0.16191,-0.40435 -0.23923,-0.60694c-0.07198,0.44696 -0.18062,0.85018 -0.34277,1.16744c-0.04722,0.09238 -0.09805,0.18219 -0.15228,0.26943c0.46692,0.27015 0.66945,0.77647 0.66945,0.77647c1.83857,4.62989 1.6795,10.06399 1.93892,14.99283c0.08817,1.67523 0.54819,3.8178 -0.09787,5.44416c-1.02103,2.57027 -4.05393,4.16594 -6.12047,2.65311c-0.13157,0.3571 -0.31535,0.69597 -0.56592,1.00925c-4.27364,5.34322 -7.49961,-2.5201 -8.4604,-5.74514c-0.3935,-3.83464 -1.02856,-8.60742 0.02912,-12.37302c0.78092,-2.78026 2.23749,-5.63558 3.63243,-8.15127l-0.00167,-0.23988c-0.46046,0.53512 -0.99404,1.04926 -1.6084,1.55579zM536.00398,346.01417c-0.95528,3.27332 -0.29338,7.65994 0.02911,10.99752c0.25264,0.83454 1.3456,5.3755 2.75125,5.03586c1.28323,-0.31006 0.62162,-3.19477 0.54071,-3.923c-0.30147,-2.71317 0.07782,-5.384 0.33027,-8.07269c-0.35779,-2.73544 -0.67065,-5.47547 -0.67307,-8.28106v-1.5024c0,-0.12786 0.01643,-0.25189 0.04729,-0.37009c-0.10748,-0.06249 -0.21218,-0.12956 -0.3137,-0.20124c-1.07038,2.01063 -2.0897,4.18518 -2.71186,6.31709zM540.06508,322.15356c0.00212,4.27992 -0.16572,8.57172 -0.16693,12.85918c0.02444,0.22958 0.14034,1.84963 0.35694,2.18198c0.39855,0.61152 2.82793,0.57849 3.02133,-0.17897c1.37075,-5.36868 -0.20492,-10.97779 -0.5566,-16.31691c-0.84427,0.10037 -1.68231,0.19724 -2.5217,0.27417zM542.20908,341.65128l-0.00571,0.00115c0.00339,0.00732 0.00677,0.01464 0.01014,0.02198c1.18787,2.59053 0.84077,5.64042 0.40445,8.63659c0.28132,2.10316 0.58359,4.20557 0.78062,6.33695c0.1077,0.96932 0.02209,1.96341 0.22616,2.9171c0.31539,1.47399 1.84342,-0.63083 1.96758,-0.96362c0.0868,-0.23266 0.078,-2.40657 0.06906,-2.5686c-0.27799,-5.03943 0.00072,-11.00855 -1.90053,-15.72273c0,0 -0.02498,-0.06244 -0.05081,-0.16587c-0.54247,0.22009 -1.12979,0.35288 -1.72355,0.39408zM536.81558,325.00694c-0.71309,1.05899 -1.47072,2.08958 -2.09186,3.25606c-0.98555,1.8508 -1.4304,3.94615 -2.06953,5.9359c-0.05975,0.18601 -0.9088,2.71122 -0.56807,2.92896c0.43977,0.28103 0.84114,-0.62103 1.22778,-0.97158c1.9786,-1.79392 2.72337,-2.99784 3.01721,-5.64245c0.35009,-1.54245 0.33235,-3.00408 0.48829,-4.58002l-0.00725,-0.85625c0,0 0,-0.02583 0.00343,-0.07062zM547.5654,332.08678c0.6794,1.58722 1.17311,3.21013 1.80632,4.82174c0.09723,0.89693 0.28901,1.80613 0.67746,2.62041c0.13766,0.28857 0.39198,1.1408 0.47645,0.83245c0.37302,-1.36181 -0.54246,-3.6024 -0.68564,-4.95699c-0.28324,-2.67984 -0.75418,-5.87129 -2.28616,-8.21257c-0.33331,-0.50939 -0.68478,-0.99012 -1.04126,-1.46005c0.02781,0.25558 0.04939,0.51139 0.0629,0.76742c0.07652,1.45022 -0.01844,2.88914 -0.09269,4.33002c0.84092,0.16869 1.03694,0.91761 1.08263,1.25758z" fill="#000000" stroke="none" stroke-width="0.5" stroke-linecap="butt"/><path d="" data-paper-data="{&quot;noHover&quot;:false,&quot;origItem&quot;:[&quot;Path&quot;,{&quot;applyMatrix&quot;:true,&quot;segments&quot;:[[[1095.48797,616.93017],[0,0],[-0.20556,1.85001]],[[1095.16083,622.5055],[0.01649,-1.8619],[3.53012,-0.37244]],[[1105.33578,620.34065],[-3.22192,1.12423],[0,0]],[[1106.75161,620.21419],[-0.77114,-0.08843],[0.20447,-2.12866]],[[1107.11054,613.69993],[-0.02651,2.20308],[0,0]],[[1104.2904,613.94467],[0,0],[-3.33558,-0.7634]],[[1095.49225,613.89425],[2.7737,-0.4854],[0,0]]],&quot;closed&quot;:true}]}" fill="url(#color-3)" stroke="none" stroke-width="0.5" stroke-linecap="butt"/><path d="M540.37202,311.41364c-2.82526,-0.10186 -5.70695,-0.30221 -8.31486,-0.30221l-0.75168,0.12975c0.03443,-0.88491 0.07693,-1.80381 0.14946,-2.68746c2.92445,-0.30566 6.03766,-0.38045 9.02121,-0.59728l0.04825,0.24818c0.00149,0.94929 -0.05159,1.92535 -0.15789,2.86867c0,0 -0.01647,0.14257 0.00552,0.34035z" data-paper-data="{&quot;noHover&quot;:false,&quot;origItem&quot;:[&quot;Path&quot;,{&quot;applyMatrix&quot;:true,&quot;segments&quot;:[[[1080.65332,622.12172],[0,0],[0.21261,-1.88664]],[[1080.96932,616.43475],[0.00299,1.89858],[0,0]],[[1080.87424,615.94245],[0,0],[-5.96709,0.43366]],[[1062.99078,617.12796],[5.8489,-0.61131],[-0.14506,1.76731]],[[1062.69003,622.45567],[0.06885,-1.76981],[0,0]],[[1064.19261,622.19392],[0,0],[5.21582,0]],[[1080.66622,622.7971],[-5.65053,-0.20373],[-0.04399,-0.39556]]],&quot;closed&quot;:true}]}" fill="url(#color-4)" stroke="none" stroke-width="0.5" stroke-linecap="butt"/><path d="M543.20253,311.49548c0.00888,-0.04631 0.01158,-0.07348 0.01158,-0.07348c0.00391,-0.03568 0.00776,-0.07146 0.01154,-0.10733c0.03584,0.06038 0.07209,0.12062 0.10875,0.18072c-0.04415,0.00007 -0.08813,0.0001 -0.13187,0.00009z" data-paper-data="{&quot;noHover&quot;:false,&quot;origItem&quot;:[&quot;Path&quot;,{&quot;applyMatrix&quot;:true,&quot;segments&quot;:[[[1086.81195,616.43475],[0,0],[-0.00298,2.11398]],[[1086.46022,622.76693],[0.2305,-2.10137],[0,0]],[[1086.43644,622.91363],[0.01777,-0.09261],[0.96282,0.00027]],[[1089.31661,622.87666],[-0.95671,0.02591],[0.00922,-2.09308]],[[1089.65427,616.60707],[-0.23111,2.08],[0,0]],[[1089.65172,614.98581],[0,0],[-0.99144,0.15641]],[[1086.65624,615.3997],[1.00502,-0.1208],[0,0]]],&quot;closed&quot;:true}]}" fill="url(#color-5)" stroke="none" stroke-width="0.5" stroke-linecap="butt"/><path d="M541.97861,340.49732c0.59376,-0.0412 1.18847,-0.17473 1.73094,-0.39482c0.02584,0.10343 0.05102,0.16586 0.05102,0.16586c1.90125,4.71418 1.63518,10.7649 1.91317,15.80433c0.00894,0.16204 0.01388,2.33694 -0.07292,2.56959c-0.12416,0.33279 -1.66157,2.43848 -1.97697,0.96449c-0.20407,-0.95369 -0.12029,-1.94786 -0.22799,-2.91718c-0.19703,-2.13138 -0.53775,-4.26871 -0.81907,-6.37187c0.43632,-2.99617 0.81677,-6.09377 -0.3711,-8.6843c-0.00337,-0.00734 0.00895,0.06731 0.00555,0.05999l0.00568,-0.00113z" data-paper-data="{&quot;noHover&quot;:false,&quot;origItem&quot;:[&quot;Path&quot;,{&quot;applyMatrix&quot;:true,&quot;segments&quot;:[[1084.41817,683.30254],[[1084.40675,683.30483],[0,0],[0.00679,0.01464]],[[1084.42703,683.3488],[-0.00673,-0.01468],[2.37574,5.18106]],[[1085.23593,700.62198],[0.87263,-5.99234],[0.56264,4.20632]],[[1086.79716,713.29588],[-0.39405,-4.26276],[0.2154,1.93864]],[[1087.24948,719.13008],[-0.40813,-1.90739],[0.63079,2.94797]],[[1091.18463,717.20284],[-0.24832,0.66559],[0.1736,-0.46531]],[[1091.32275,712.06563],[0.01788,0.32408],[-0.55598,-10.07886]],[[1087.52169,680.62017],[3.8025,9.42836],[0,0]],[[1087.42007,680.28843],[0.05167,0.20687],[-1.08495,0.44018]],[[1083.97297,681.07658],[1.18752,-0.0824],[0,0]]],&quot;closed&quot;:true}]}" fill="url(#color-6)" stroke="none" stroke-width="0.5" stroke-linecap="butt"/><path d="M538.72007,339.65557c0.10152,0.07169 0.20747,0.13889 0.31495,0.20139c-0.03086,0.1182 -0.04729,0.24223 -0.04729,0.37009l0.00088,1.50252c0.00243,2.80559 0.34769,5.57137 0.70548,8.30681c-0.25245,2.68869 -0.66072,5.4156 -0.35925,8.12876c0.08092,0.72823 0.73722,3.61385 -0.54601,3.92391c-1.40565,0.33964 -2.5133,-4.20235 -2.76594,-5.03689c-0.3225,-3.33758 -0.98704,-7.80437 -0.03176,-11.07768c0.62217,-2.13191 1.65857,-4.30828 2.72894,-6.31891z" data-paper-data="{&quot;noHover&quot;:false,&quot;origItem&quot;:[&quot;Path&quot;,{&quot;applyMatrix&quot;:true,&quot;segments&quot;:[[[1072.00798,692.02832],[1.24434,-4.26381],[-1.91055,6.54663]],[[1072.06621,714.02337],[-0.64499,-6.67517],[0.50528,1.66908]],[[1077.56871,724.09509],[-2.8113,0.67928],[2.56645,-0.62012]],[[1078.65013,716.2491],[0.16183,1.45645],[-0.60293,-5.42633]],[[1079.31067,700.10372],[-0.5049,5.37738],[-0.71558,-5.47088]],[[1077.96453,683.5416],[0.00485,5.61117],[0,0]],[[1077.96453,680.53681],[0,0],[0,-0.25573]],[[1078.05912,679.79663],[-0.06173,0.23639],[-0.21497,-0.12498]],[[1077.43171,679.39415],[0.20304,0.14337],[-2.14075,4.02126]]],&quot;closed&quot;:true}]}" fill="url(#color-7)" stroke="none" stroke-width="0.5" stroke-linecap="butt"/><path d="M546.45455,330.79846c0.07425,-1.44088 0.18544,-2.88903 0.10892,-4.33925c-0.01351,-0.25603 -0.03424,-0.51208 -0.06205,-0.76766c0.35648,0.46992 0.71213,0.94972 1.04545,1.45911c1.53198,2.34128 2.03014,5.61037 2.31338,8.2902c0.14317,1.3546 1.04933,3.59897 0.67631,4.96078c-0.08447,0.30836 -0.34026,-0.54351 -0.47792,-0.83208c-0.38845,-0.81428 -0.58091,-1.72332 -0.67814,-2.62025c-0.63321,-1.61161 -1.16506,-3.30497 -1.84446,-4.89219c-0.04569,-0.33997 -0.24056,-1.08997 -1.08148,-1.25867z" data-paper-data="{&quot;noHover&quot;:false,&quot;origItem&quot;:[&quot;Path&quot;,{&quot;applyMatrix&quot;:true,&quot;segments&quot;:[[[1095.1308,664.17353],[-0.09138,-0.67994],[1.3588,3.17445]],[[1098.74344,673.81701],[-1.26643,-3.22323],[0.19447,1.79386]],[[1100.09835,679.05782],[-0.77689,-1.62856],[0.27532,0.57713]],[[1101.05124,680.72271],[-0.16893,0.61671],[0.74605,-2.72363]],[[1099.67997,670.80873],[0.28634,2.70919],[-0.56648,-5.35967]],[[1095.10764,654.38359],[3.06397,4.68256],[-0.66663,-1.01879]],[[1093.02512,651.4635],[0.71296,0.93985],[0.05562,0.51116]],[[1093.15091,652.99834],[-0.02702,-0.51205],[0.15304,2.90043]],[[1092.96554,661.65838],[0.1485,-2.88175],[1.68185,0.33738]]],&quot;closed&quot;:true}]}" fill="url(#color-8)" stroke="none" stroke-width="0.5" stroke-linecap="butt"/><path d="M536.8276,325.0388l0.00943,0.85719c-0.15594,1.57594 -0.1159,3.06331 -0.46599,4.60576c-0.29385,2.64461 -1.08741,3.9014 -3.06601,5.69532c-0.38664,0.35055 -0.79417,1.25077 -1.23394,0.96974c-0.34073,-0.21774 0.50276,-2.74558 0.56251,-2.93159c0.63913,-1.98976 1.10912,-4.1629 2.09466,-6.0137c0.62114,-1.16648 1.38954,-2.19441 2.10263,-3.25339c-0.00343,0.04479 -0.0033,0.07067 -0.0033,0.07067z" data-paper-data="{&quot;noHover&quot;:false,&quot;origItem&quot;:[&quot;Path&quot;,{&quot;applyMatrix&quot;:true,&quot;segments&quot;:[[[1073.63116,650.01387],[-0.00687,0.08958],[-1.42618,2.11797]],[[1069.44743,656.52599],[1.24229,-2.33296],[-1.97109,3.7016]],[[1065.30836,668.3978],[1.27826,-3.97951],[-0.1195,0.37202]],[[1064.17222,674.25572],[-0.68146,-0.43548],[0.87954,0.56207]],[[1066.62778,672.31256],[-0.77328,0.70111],[3.9572,-3.58784]],[[1072.66221,661.02765],[-0.58769,5.28922],[0.70018,-3.0849]],[[1073.63879,651.86762],[-0.31189,3.15187],[0,0]],[1073.62429,650.15511]],&quot;closed&quot;:true}]}" fill="url(#color-9)" stroke="none" stroke-width="0.5" stroke-linecap="butt"/><path d="M540.18981,320.9321c0.83939,-0.07693 1.68995,-0.17443 2.53422,-0.27479c0.35168,5.33911 1.93054,11.03082 0.55979,16.3995c-0.1934,0.75745 -2.63836,0.79034 -3.03691,0.17882c-0.2166,-0.33235 -0.3376,-1.95375 -0.36203,-2.18333c0.00121,-4.28746 0.17196,-8.65925 0.16984,-12.93917z" data-paper-data="{&quot;noHover&quot;:false,&quot;origItem&quot;:[&quot;Path&quot;,{&quot;applyMatrix&quot;:true,&quot;segments&quot;:[[[1080.13018,644.30709],[0,0],[0.00423,8.55984]],[[1079.79632,670.02545],[0.00242,-8.57492],[0.04887,0.45917]],[[1080.5102,674.38941],[-0.43321,-0.6647],[0.79709,1.22304]],[[1086.55285,674.03147],[-0.38679,1.51491],[2.7415,-10.73736]],[[1085.43966,641.39766],[0.70336,10.67823],[-1.68854,0.20073]],[[1080.39626,641.946],[1.67878,-0.15386],[0,0]]],&quot;closed&quot;:true}]}" fill="url(#color-10)" stroke="none" stroke-width="0.5" stroke-linecap="butt"/><path d="" data-paper-data="{&quot;noHover&quot;:false,&quot;origItem&quot;:[&quot;Path&quot;,{&quot;applyMatrix&quot;:true,&quot;segments&quot;:[[[1106.92786,607.85856],[-0.05147,0.00449],[-0.64665,-8.3539]],[[1098.37558,584.96072],[5.50155,6.31458],[-5.27673,-6.03614]],[[1078.92297,574.93726],[8.05168,0.76268],[-1.48302,-0.14047]],[[1071.64153,574.68617],[1.42444,-0.90854],[-1.20243,0.76694]],[[1071.06461,580.81128],[-0.20725,-0.96743],[1.1603,5.41606]],[[1077.21195,596.218],[-2.23104,-5.01984],[0,0]],[[1078.52163,599.16477],[0,0],[0.17803,0.37754]],[[1078.7992,600.40924],[0,-0.44508],[0,1.6134]],[[1075.87788,603.33056],[1.6134,0],[-1.11924,0]],[[1073.29585,601.77695],[0.49056,0.92419],[0,0]],[[1071.67782,598.8645],[0,0],[-1.48833,-1.4734]],[[1068.33248,593.54604],[1.73184,1.17773],[-3.04537,-2.07099]],[[1053.85789,593.96489],[3.48266,0.35751],[-1.40194,-0.14391]],[[1043.65268,592.0231],[0.82087,-1.22639],[-3.41998,5.10954]],[[1050.28235,607.60987],[-4.90292,-1.52279],[3.06313,0.71668]],[[1057.83118,611.30708],[-2.59262,-1.11101],[0.24572,-1.38213]],[[1058.70331,607.31948],[-0.3377,1.26901],[0,0]],[[1062.29034,605.26975],[-2.81838,-0.76865],[2.81838,0.76865]],[[1064.34007,608.85678],[0,0],[-0.18846,0.67098]],[[1063.83911,610.9182],[0.14655,-0.70216],[1.1834,-0.35168]],[[1067.03584,610.17926],[-0.87972,0.05047],[7.09467,-0.40706]],[[1088.76453,609.21092],[-7.00658,1.10151],[6.02988,-0.94797]],[[1105.55785,608.24117],[-6.26241,-1.35794],[0,0]],[1106.84804,607.86709]],&quot;closed&quot;:true}]}" fill="url(#color-11)" stroke="none" stroke-width="0.5" stroke-linecap="butt"/><path d="M545.51735,317.46359c-0.48853,0.04957 -0.97756,0.11404 -1.45747,0.17145c-0.10312,0.00434 -0.20062,0.01873 -0.28882,0.03708c-2.95053,0.35872 -5.84691,0.76216 -8.89672,0.45637c-1.07876,-0.10816 -2.2459,0.12591 -3.23975,-0.30733c-0.943,-0.41107 -0.49513,-2.65487 -0.45786,-3.35995c0.00503,-0.09503 0.01,-0.19167 0.01462,-0.28767c0.18736,0.00241 0.3156,-0.02351 0.3156,-0.02351l0.54837,-0.13951c4.27165,0 8.87892,0.40622 13.34731,0.22679c1.02022,1.10973 2.23367,2.15239 3.67358,3.11452c-1.19994,0.16728 -2.57938,0.02348 -3.55885,0.11176z" data-paper-data="{&quot;noHover&quot;:false,&quot;origItem&quot;:[&quot;Path&quot;,{&quot;applyMatrix&quot;:true,&quot;segments&quot;:[[[1064.19261,628.03656],[12.55545,0],[0,0]],[1063.09619,628.31369],[[1062.46509,628.36014],[0.37471,0.00483],[-0.00924,0.19201]],[[1062.43618,628.93328],[0.01005,-0.19005],[-0.07454,1.41016]],[[1063.35112,635.62651],[-1.886,-0.82214],[1.9877,0.86648]],[[1069.828,636.23104],[-2.15753,-0.21633],[6.09961,0.61158]],[[1087.48083,635.2875],[-5.90106,0.71743],[0.17641,-0.03668]],[[1088.05424,635.21831],[-0.20624,0.00867],[0.95982,-0.11483]],[[1090.95808,634.89401],[-0.97707,0.09914],[3.10624,-0.27995]],[[1101.6836,633.25037],[-2.50829,2.27687],[1.56851,-1.42379]],[[1105.10419,628.03258],[-0.76291,1.97414],[-0.82893,-0.04299]],[[1103.03293,627.00827],[0.50482,0.59279],[-12.44275,2.78715]]],&quot;closed&quot;:true}]}" fill="url(#color-12)" stroke="none" stroke-width="0.5" stroke-linecap="butt"/><path d="M549.12462,317.3841l-0.00121,0.01457" fill="none" stroke="#000000" stroke-width="1.5" stroke-linecap="round"/><path d="M541.61145,319.40186v-0.02893" fill="none" stroke="#000000" stroke-width="1.5" stroke-linecap="round"/><path d="M541.61145,318.87388v-1.47521l0.33387,-3.33865" fill="none" stroke="#000000" stroke-width="1.5" stroke-linecap="round"/><path d="M536.45595,318.91667l0.81526,-6.35904" fill="none" stroke="#000000" stroke-width="1.5" stroke-linecap="round"/><path d="M534.43336,313.22535l-0.83466,4.67411" fill="none" stroke="#000000" stroke-width="1.5" stroke-linecap="round"/><path d="M545.45089,317.89947l0.232,-3.36407" fill="none" stroke="#000000" stroke-width="1.5" stroke-linecap="round"/><path d="M546.4436,315.28265l-15.84969,1.11443" fill="none" stroke="#000000" stroke-width="1.5" stroke-linecap="round"/><path d="M526,367v-46h30v46z" fill="#000000" stroke="none" stroke-width="0" stroke-linecap="butt"/><path d="M528.33333,324.83333l0,-16.9854c4.1237,-0.72061 8.27383,-1.63348 12.59856,-2.59503c1.05533,5.05076 3.68576,9.61939 9.61498,13.00752c1.10446,0.63112 2.26066,1.19429 3.45313,1.68315v4.88976z" fill="#000000" stroke="none" stroke-width="none" stroke-linecap="butt"/><path d="M527.66667,336.5v-33h26.66667v33z" fill="#000000" stroke="none" stroke-width="0" stroke-linecap="butt"/></g></g></svg>