<svg version="1.1" xmlns="http://www.w3.org/2000/svg" xmlns:xlink="http://www.w3.org/1999/xlink" width="42.44697" height="53.0929" viewBox="0,0,42.44697,53.0929"><g transform="translate(-519.83057,-297.69601)"><g data-paper-data="{&quot;isPaintingLayer&quot;:true}" fill-rule="nonzero" stroke-linecap="butt" stroke-linejoin="miter" stroke-miterlimit="10" stroke-dasharray="" stroke-dashoffset="0" style="mix-blend-mode: normal"><path d="M525.98823,340.8802c-1.86873,0.59999 -3.6747,1.38668 -4.79937,3.21628c-0.05341,0.03596 -1.06267,0.98657 -1.09288,0.92844c-1.1527,-2.2185 1.75904,-5.46199 2.81199,-6.99355c1.57464,-2.29039 3.18535,-3.97547 5.61448,-5.19004c0,0 0.00734,-0.00363 0.01856,-0.01087c0.35569,0.60176 0.31248,1.68012 0.77275,2.28913c0.48541,0.64227 2.43643,1.94471 3.14144,2.27251c1.91752,1.44456 2.777,2.58015 5.18527,3.17844c0.54868,0.13631 1.68409,0.67287 1.62541,1.28871c-0.5267,-0.10996 -1.29705,0.57426 -1.80673,0.7902c-2.01293,0.85284 -5.11442,2.6195 -6.10462,4.63413c-0.40071,0.44601 -2.33216,3.57455 -2.86501,3.50417c-0.5196,-0.06864 0.73417,-4.00583 1.01047,-4.3646c0.94101,-1.07491 1.84623,-2.33671 2.85312,-3.30474c1.07547,-1.03395 2.68075,-1.31446 3.9393,-2.08199l0.03206,0.06374l0.44251,-0.22c0.08456,-0.04008 0.14323,-0.12487 0.14323,-0.22467c0,-0.13807 -0.11158,-0.24807 -0.24965,-0.24807l-0.31287,0.00042c-2.24533,0 -4.2242,0.55228 -6.29274,1.45164c-1.80399,0.78434 -3.16557,1.58175 -4.4799,3.0129c-0.45484,0.49527 -0.90494,0.97977 -1.33835,1.48564c-0.19415,0.2266 -0.72902,1.01361 -0.68846,0.71798c0.03409,-0.24847 0.07086,-0.50074 0.07067,-0.75153c0.25969,-2.52128 1.45755,-4.18631 3.32994,-5.31303c0.73328,-0.20986 1.49467,-0.43338 2.175,-0.65014l0.01436,-0.01216l0.00235,0.00463l0.31884,-0.15583c0.08456,-0.04008 0.14418,-0.02633 0.14418,-0.12613c0,-0.11246 -0.06972,-0.20764 -0.17187,-0.23906l-0.45399,-0.15626l-0.0387,0.12036c-1.07068,-0.24107 -2.06546,0.23125 -2.95079,1.08334z" data-paper-data="{&quot;noHover&quot;:false,&quot;origItem&quot;:[&quot;Path&quot;,{&quot;applyMatrix&quot;:true,&quot;segments&quot;:[[[1114.84016,683.00151],[-1.77066,-1.70418],[3.73746,1.19997]],[[1124.43858,689.4857],[-2.24933,-3.65919],[0.10682,0.07192]],[[1126.43322,691.284],[-0.06041,0.11627],[2.3054,-4.437]],[[1120.81699,677.37856],[2.10589,3.06311],[-3.14928,-4.58078]],[[1109.6636,667.04838],[4.85826,2.42913],[0,0]],[[1109.62668,667.02666],[0.02244,0.01448],[-0.71138,1.20352]],[[1108.08883,671.60549],[0.92055,-1.21803],[-0.97083,1.28455]],[[1101.86441,676.13409],[1.41001,-0.65559],[-3.83504,2.88912]],[[1091.53775,682.42258],[4.81655,-1.19658],[-1.09735,0.27262]],[[1088.28808,684.98435],[-0.11737,-1.23168],[1.05341,-0.21993]],[[1091.90097,686.55472],[-1.01936,-0.43188],[4.02587,1.70568]],[[1104.04211,695.73856],[-1.98039,-4.02925],[0.80141,0.89202]],[[1109.7291,702.74254],[-1.0657,0.14078],[1.03921,-0.13728]],[[1107.7209,694.21265],[0.5526,0.71754],[-1.88203,-2.14983]],[[1101.92299,687.54545],[2.0138,1.93606],[-2.15094,-2.06791]],[[1094.03565,683.32782],[2.51709,1.53505],[0,0]],[1093.97142,683.45629],[[1093.08668,683.01392],[0,0],[-0.16912,-0.08017]],[[1092.8006,682.56186],[0,0.1996],[0,-0.27614]],[[1093.3006,682.06186],[-0.27614,0],[0,0]],[[1093.92651,682.06186],[0,0],[4.49067,0]],[[1106.70945,684.97556],[-4.13707,-1.79873],[3.60799,1.56869]],[[1115.64893,691.07219],[-2.62867,-2.86231],[0.90967,0.99053]],[[1118.32239,694.04747],[-0.86684,-1.01174],[0.3883,0.4532]],[[1119.54821,695.35241],[0.08112,0.59126],[-0.06818,-0.49693]],[[1119.40247,693.85473],[-0.00039,0.50159],[-0.51938,-5.04257]],[[1112.72654,683.31861],[3.74479,2.25344],[-1.46656,-0.41973]],[[1108.44405,682.08494],[1.36067,0.43352],[0,0]],[1108.41642,682.06094],[1108.41178,682.07021],[[1107.79556,681.7621],[0,0],[-0.16912,-0.08017]],[[1107.50948,681.31004],[0,0.1996],[0,-0.22492]],[[1107.8623,680.83205],[-0.20431,0.06283],[0,0]],[1108.79023,680.52275],[[1108.87077,680.76436],[0,0],[2.14136,-0.48214]]],&quot;closed&quot;:true}],&quot;index&quot;:null}" fill="#6cff66" stroke="none" stroke-width="0.5"/><path d="M553.16909,338.86526l-0.0387,-0.12036l-0.45399,0.15626c-0.10216,0.03142 -0.17188,0.12659 -0.17188,0.23905c0,0.0998 0.05962,0.08604 0.14418,0.12613l0.31884,0.15583l0.00235,-0.00462l0.01436,0.01215c0.68034,0.21676 1.44172,0.44028 2.175,0.65014c1.87239,1.12672 3.07025,2.79175 3.32995,5.31303c-0.00019,0.25079 0.03658,0.50307 0.07067,0.75153c0.04056,0.29563 -0.49432,-0.49138 -0.68846,-0.71798c-0.43342,-0.50587 -0.88352,-0.99038 -1.33835,-1.48564c-1.31433,-1.43115 -2.67591,-2.22856 -4.4799,-3.0129c-2.06853,-0.89936 -4.04741,-1.45164 -6.29274,-1.45164l-0.31287,-0.00042c-0.13807,0 -0.24966,0.11 -0.24966,0.24807c0,0.0998 0.05867,0.18458 0.14323,0.22467l0.44251,0.22001l0.03206,-0.06374c1.25854,0.76753 2.86384,1.04803 3.9393,2.08198c1.0069,0.96803 1.91211,2.22983 2.85312,3.30474c0.2763,0.35877 1.53008,4.29596 1.01047,4.3646c-0.53285,0.07039 -2.46431,-3.05816 -2.86502,-3.50417c-0.9902,-2.01462 -4.09168,-3.78128 -6.10462,-4.63412c-0.50968,-0.21594 -1.28002,-0.90017 -1.80673,-0.7902c-0.05869,-0.61584 1.07674,-1.1524 1.62541,-1.28871c2.40827,-0.59829 3.26775,-1.73388 5.18527,-3.17844c0.70501,-0.32779 2.65603,-1.63023 3.14144,-2.27251c0.46028,-0.60902 0.41706,-1.68737 0.77275,-2.28913c0.01122,0.00724 0.01857,0.01087 0.01857,0.01087c2.42913,1.21456 4.03983,2.89965 5.61447,5.19004c1.05294,1.53156 3.96469,4.77505 2.81199,6.99355c-0.03021,0.05813 -1.03947,-0.89248 -1.09288,-0.92844c-1.12467,-1.82959 -2.93063,-2.61629 -4.79936,-3.21627c-0.88533,-0.85209 -1.88011,-1.32442 -2.95079,-1.08335z" data-paper-data="{&quot;noHover&quot;:false,&quot;origItem&quot;:[&quot;Path&quot;,{&quot;applyMatrix&quot;:true,&quot;segments&quot;:[[[1114.84016,683.00151],[-1.77066,-1.70418],[3.73746,1.19997]],[[1124.43858,689.4857],[-2.24933,-3.65919],[0.10682,0.07192]],[[1126.43322,691.284],[-0.06041,0.11627],[2.3054,-4.437]],[[1120.81699,677.37856],[2.10589,3.06311],[-3.14928,-4.58078]],[[1109.6636,667.04838],[4.85826,2.42913],[0,0]],[[1109.62668,667.02666],[0.02244,0.01448],[-0.71138,1.20352]],[[1108.08883,671.60549],[0.92055,-1.21803],[-0.97083,1.28455]],[[1101.86441,676.13409],[1.41001,-0.65559],[-3.83504,2.88912]],[[1091.53775,682.42258],[4.81655,-1.19658],[-1.09735,0.27262]],[[1088.28808,684.98435],[-0.11737,-1.23168],[1.05341,-0.21993]],[[1091.90097,686.55472],[-1.01936,-0.43188],[4.02587,1.70568]],[[1104.04211,695.73856],[-1.98039,-4.02925],[0.80141,0.89202]],[[1109.7291,702.74254],[-1.0657,0.14078],[1.03921,-0.13728]],[[1107.7209,694.21265],[0.5526,0.71754],[-1.88203,-2.14983]],[[1101.92299,687.54545],[2.0138,1.93606],[-2.15094,-2.06791]],[[1094.03565,683.32782],[2.51709,1.53505],[0,0]],[1093.97142,683.45629],[[1093.08668,683.01392],[0,0],[-0.16912,-0.08017]],[[1092.8006,682.56186],[0,0.1996],[0,-0.27614]],[[1093.3006,682.06186],[-0.27614,0],[0,0]],[[1093.92651,682.06186],[0,0],[4.49067,0]],[[1106.70945,684.97556],[-4.13707,-1.79873],[3.60799,1.56869]],[[1115.64893,691.07219],[-2.62867,-2.86231],[0.90967,0.99053]],[[1118.32239,694.04747],[-0.86684,-1.01174],[0.3883,0.4532]],[[1119.54821,695.35241],[0.08112,0.59126],[-0.06818,-0.49693]],[[1119.40247,693.85473],[-0.00039,0.50159],[-0.51938,-5.04257]],[[1112.72654,683.31861],[3.74479,2.25344],[-1.46656,-0.41973]],[[1108.44405,682.08494],[1.36067,0.43352],[0,0]],[1108.41642,682.06094],[1108.41178,682.07021],[[1107.79556,681.7621],[0,0],[-0.16912,-0.08017]],[[1107.50948,681.31004],[0,0.1996],[0,-0.22492]],[[1107.8623,680.83205],[-0.20431,0.06283],[0,0]],[1108.79023,680.52275],[[1108.87077,680.76436],[0,0],[2.14136,-0.48214]]],&quot;closed&quot;:true}]}" fill="#6cff66" stroke="none" stroke-width="0.5"/><path d="M558.13264,320c0,12.31815 -8.11826,22.30399 -18.13264,22.30399c-10.01438,0 -18.13263,-9.98584 -18.13263,-22.30399c0,-12.31815 8.11825,-22.30399 18.13263,-22.30399c10.01438,0 18.13264,9.98584 18.13264,22.30399z" fill="#6cff66" stroke="none" stroke-width="0"/><path d="M532.85128,329.60787c0,0.34314 -0.34314,0.34314 -0.34314,0.34314h-0.11438c-0.97812,0 -0.92069,0.35599 -1.83594,0.66867c0,0 -0.32553,0.10851 -0.43404,-0.21702c-0.10851,-0.32553 0.21702,-0.43404 0.21702,-0.43404c0.48409,-0.15621 0.45737,-0.4431 0.86163,-0.66328c0.24524,-0.13357 0.9023,-0.0406 1.19133,-0.0406h0.11438c0,0 0.34314,0 0.34314,0.34314z" fill="#6cff66" stroke="none" stroke-width="0.5"/><path d="M538.10095,313.42795c0,3.88891 -2.78001,7.04148 -6.20931,7.04148c-3.4293,0 -6.20931,-3.15257 -6.20931,-7.04148c0,-3.88891 2.78,-7.04149 6.20931,-7.04149c3.4293,0 6.20931,3.15258 6.20931,7.04149z" fill="#ffffff" stroke="#000000" stroke-width="1.5"/><path d="M554.36732,312.95124c0,3.88891 -2.78,7.04148 -6.20931,7.04148c-3.4293,0 -6.20931,-3.15258 -6.20931,-7.04148c0,-3.88891 2.78,-7.04148 6.20931,-7.04148c3.4293,0 6.20931,3.15258 6.20931,7.04148z" fill="#ffffff" stroke="#000000" stroke-width="1.5"/><path d="M531.8479,313.27147c0,-0.13807 0.11193,-0.25 0.25,-0.25c0.13807,0 0.25,0.11193 0.25,0.25c0,0.13807 -0.11193,0.25 -0.25,0.25c-0.13807,0 -0.25,-0.11193 -0.25,-0.25z" fill="#000000" stroke="none" stroke-width="0.5"/><path d="M547.96507,312.48909c0,-0.13807 0.11193,-0.25 0.25,-0.25c0.13807,0 0.25,0.11193 0.25,0.25c0,0.13807 -0.11193,0.25 -0.25,0.25c-0.13807,0 -0.25,-0.11193 -0.25,-0.25z" fill="#000000" stroke="none" stroke-width="0.5"/><path d="M523.60344,311.63957c0.22361,0.1118 0.1118,0.33541 0.1118,0.33541l-0.15648,0.31295c-0.31219,0.59025 -0.13008,1.56634 -0.13008,2.23536c0,4.22503 0.57312,4.20474 4.45301,5.22899c2.7345,1.67875 5.81536,2.50408 9.06701,2.50135c3.30066,0 6.54528,0.20752 9.8345,0.13621c1.79656,-0.23568 5.97386,-2.25653 6.72918,-3.82263c0.4741,-0.64441 0.7737,-0.30949 1.25445,-0.7782c1.24696,-1.21574 1.1786,-4.27721 1.1786,-5.92584c0,0 0,-0.25 0.25,-0.25c0.25,0 0.25,0.25 0.25,0.25c0,1.82522 0.02771,4.90649 -1.32504,6.2794c-0.4181,0.42433 -0.90358,0.18794 -1.17798,0.67976c-0.97295,1.74976 -5.08818,3.77503 -7.11937,4.06593c-3.30372,0.07705 -6.55967,-0.13462 -9.87433,-0.13462c-3.28407,-0.0026 -6.51368,-0.81379 -9.26366,-2.54165c-1.37994,-0.34813 -4.16699,-0.52356 -4.73732,-1.99405c-0.35818,-0.9235 -0.01903,-2.7015 -0.01903,-3.69465c0,-0.78753 -0.15898,-1.74624 0.18287,-2.45896l0.15648,-0.31295c0,0 0.1118,-0.22361 0.33541,-0.1118z" fill="#000000" stroke="none" stroke-width="0.5"/></g></g></svg>