<svg version="1.1" xmlns="http://www.w3.org/2000/svg" xmlns:xlink="http://www.w3.org/1999/xlink" width="1414.45195" height="970.15766" viewBox="0,0,1414.45195,970.15766"><defs><linearGradient x1="544.5045" y1="-92.16216" x2="544.5045" y2="708.13814" gradientUnits="userSpaceOnUse" id="color-1"><stop offset="0" stop-color="#001a6b"/><stop offset="1" stop-color="#152f33"/></linearGradient></defs><g transform="translate(167.24474,104.11412)"><g data-paper-data="{&quot;isPaintingLayer&quot;:true}" fill-rule="nonzero" stroke="none" stroke-width="0" stroke-linecap="butt" stroke-linejoin="miter" stroke-miterlimit="10" stroke-dasharray="" stroke-dashoffset="0" style="mix-blend-mode: normal"><path d="M-158.1982,708.13814v-800.3003h1405.40541v800.3003z" fill="url(#color-1)"/><path d="M788.22073,859.03153v-720.72072h262.76276v720.72072z" fill="#2c2c2c"/><path d="M500.44295,721.40391v-537.53754h262.76276v537.53754z" fill="#2c2c2c"/><path d="M158.5961,866.04354v-537.53754h262.76276v537.53754z" fill="#2c2c2c"/><path d="M-41.50601,802.49552v-171.17117h1155.87463v171.17117z" fill="#ff0000"/><path d="M630.57808,630.81832v-537.53754h262.76276v537.53754z" fill="#424242"/><path d="M336.77929,626.80931v-630.81832h262.76276v630.81832z" fill="#424242"/><path d="M33.97148,630.30781v-350.03754h262.76276v350.03754z" fill="#424242"/><path d="M947.37988,629.3018v-350.03754h262.76276v350.03754z" fill="#424242"/><path d="M157.0946,628.80631v-732.92042h262.76276v732.92042z" fill="#5d5d5d"/><path d="M471.40391,633.80631v-383.07057h262.76276v383.07057z" fill="#5d5d5d"/><path d="M826.25376,637.3048v-462.65015h232.73273v462.65015z" fill="#5d5d5d"/><path d="M-167.24474,630.29279v-566.25375h232.73273v566.25375z" fill="#5d5d5d"/></g></g></svg>