<svg version="1.1" xmlns="http://www.w3.org/2000/svg" xmlns:xlink="http://www.w3.org/1999/xlink" width="283.94007" height="572.57057" viewBox="0,0,283.94007,572.57057"><g transform="translate(-406.53597,-18.6997)"><g data-paper-data="{&quot;isPaintingLayer&quot;:true}" fill-rule="nonzero" stroke-linejoin="miter" stroke-miterlimit="10" stroke-dasharray="" stroke-dashoffset="0" style="mix-blend-mode: normal"><path d="M508.21321,485.66066v-177.17717h33.03303v177.17717z" fill="#4e4e4e" stroke="#000000" stroke-width="2" stroke-linecap="butt"/><path d="M584.87762,250.7881l-20.30042,-29.77396l104.20885,-71.05149l20.30043,29.77396z" data-paper-data="{&quot;index&quot;:null}" fill="#4e4e4e" stroke="#000000" stroke-width="2" stroke-linecap="butt"/><path d="M407.92554,188.25012l20.30043,-29.77396l104.20885,71.05149l-20.30043,29.77396z" fill="#4e4e4e" stroke="#000000" stroke-width="2" stroke-linecap="butt"/><path d="M450.66066,207.68589v-187.98619h189.18919v187.98619z" fill="#4e4e4e" stroke="#000000" stroke-width="2" stroke-linecap="butt"/><path d="M504.71471,413.09309v-204.2042h79.57958v204.2042z" fill="#4e4e4e" stroke="#000000" stroke-width="2" stroke-linecap="butt"/><path d="M548.25826,590.27027v-177.17718h33.03303v177.17718z" fill="#4e4e4e" stroke="#000000" stroke-width="2" stroke-linecap="butt"/><path d="M582.8,249.2c0,-1.38071 1.11929,-2.5 2.5,-2.5c1.38071,0 2.5,1.11929 2.5,2.5c0,1.38071 -1.11929,2.5 -2.5,2.5c-1.38071,0 -2.5,-1.11929 -2.5,-2.5z" fill="#9b9b9b" stroke="none" stroke-width="0.5" stroke-linecap="butt"/><path d="M585.3,247.4v3.8" fill="none" stroke="#000000" stroke-width="2" stroke-linecap="round"/><path d="M581.8,209.6c0,-1.38071 1.11929,-2.5 2.5,-2.5c1.38071,0 2.5,1.11929 2.5,2.5c0,1.38071 -1.11929,2.5 -2.5,2.5c-1.38071,0 -2.5,-1.11929 -2.5,-2.5z" fill="#9b9b9b" stroke="none" stroke-width="0.5" stroke-linecap="butt"/><path d="M584.3,207.8v3.8" fill="none" stroke="#000000" stroke-width="2" stroke-linecap="round"/><path d="M501.2,253c0,-1.38071 1.11929,-2.5 2.5,-2.5c1.38071,0 2.5,1.11929 2.5,2.5c0,1.38071 -1.11929,2.5 -2.5,2.5c-1.38071,0 -2.5,-1.11929 -2.5,-2.5z" fill="#9b9b9b" stroke="none" stroke-width="0.5" stroke-linecap="butt"/><path d="M503.7,251.2v3.8" fill="none" stroke="#000000" stroke-width="2" stroke-linecap="round"/><path d="M501,209.8c0,-1.38071 1.11929,-2.5 2.5,-2.5c1.38071,0 2.5,1.11929 2.5,2.5c0,1.38071 -1.11929,2.5 -2.5,2.5c-1.38071,0 -2.5,-1.11929 -2.5,-2.5z" fill="#9b9b9b" stroke="none" stroke-width="0.5" stroke-linecap="butt"/><path d="M503.5,208v3.8" fill="none" stroke="#000000" stroke-width="2" stroke-linecap="round"/><path d="M578.8,414c0,-1.38071 1.11929,-2.5 2.5,-2.5c1.38071,0 2.5,1.11929 2.5,2.5c0,1.38071 -1.11929,2.5 -2.5,2.5c-1.38071,0 -2.5,-1.11929 -2.5,-2.5z" fill="#9b9b9b" stroke="none" stroke-width="0.5" stroke-linecap="butt"/><path d="M581.3,412.2v3.8" fill="none" stroke="#000000" stroke-width="2" stroke-linecap="round"/><path d="M545.8,413.4c0,-1.38071 1.11929,-2.5 2.5,-2.5c1.38071,0 2.5,1.11929 2.5,2.5c0,1.38071 -1.11929,2.5 -2.5,2.5c-1.38071,0 -2.5,-1.11929 -2.5,-2.5z" fill="#9b9b9b" stroke="none" stroke-width="0.5" stroke-linecap="butt"/><path d="M548.3,411.6v3.8" fill="none" stroke="#000000" stroke-width="2" stroke-linecap="round"/><path d="M538.8,414c0,-1.38071 1.11929,-2.5 2.5,-2.5c1.38071,0 2.5,1.11929 2.5,2.5c0,1.38071 -1.11929,2.5 -2.5,2.5c-1.38071,0 -2.5,-1.11929 -2.5,-2.5z" fill="#9b9b9b" stroke="none" stroke-width="0.5" stroke-linecap="butt"/><path d="M541.3,412.2v3.8" fill="none" stroke="#000000" stroke-width="2" stroke-linecap="round"/><path d="M505.4,414.2c0,-1.38071 1.11929,-2.5 2.5,-2.5c1.38071,0 2.5,1.11929 2.5,2.5c0,1.38071 -1.11929,2.5 -2.5,2.5c-1.38071,0 -2.5,-1.11929 -2.5,-2.5z" fill="#9b9b9b" stroke="none" stroke-width="0.5" stroke-linecap="butt"/><path d="M507.9,412.4v3.8" fill="none" stroke="#000000" stroke-width="2" stroke-linecap="round"/><path d="M551.76667,159.33334c0,0 -1.66666,-0.33087 -1.66666,-3.66667c0,-15.46789 0,-59.71024 0,-67c0,-1.99523 0.5,-2.66666 0.5,-2.66666c0,0 1.32669,-1 4.25,-1c10.31619,0 34.28902,0 39.83334,0c2.23955,0 2.91666,1.5 2.91666,1.5c0,0 1.5,0.60168 1.5,3c0,7.96037 0,52.2389 0,66.83334c0,2.93261 -1.16666,3.5 -1.16666,3.5c0,0 -1.48383,1.16666 -4.08334,1.16666c-4.63684,0 -20.24748,0 -31.5,0c-1.99964,0 -3.86166,0 -5.5,0c-4.06268,0 -5.08334,-1.66666 -5.08334,-1.66666z" fill="#000000" stroke="none" stroke-width="0" stroke-linecap="butt"/><path d="M495.26667,159c0,0 -1.66666,-0.33087 -1.66666,-3.66667c0,-15.46789 0,-59.71024 0,-67c0,-1.99523 0.5,-2.66667 0.5,-2.66667c0,0 1.32669,-1 4.25,-1c10.31619,0 34.28902,0 39.83334,0c2.23955,0 2.91666,1.5 2.91666,1.5c0,0 1.5,0.60168 1.5,3c0,7.96037 0,52.2389 0,66.83334c0,2.93261 -1.16666,3.5 -1.16666,3.5c0,0 -1.48383,1.16666 -4.08334,1.16666c-4.63684,0 -20.24748,0 -31.5,0c-1.99964,0 -3.86165,0 -5.5,0c-4.06268,0 -5.08334,-1.66666 -5.08334,-1.66666z" fill="#000000" stroke="none" stroke-width="0" stroke-linecap="butt"/><path d="M594.68334,167.66667l-0.5,38" fill="none" stroke="#000000" stroke-width="2.5" stroke-linecap="round"/><path d="M544.85,167.66667l-0.5,38" fill="none" stroke="#000000" stroke-width="2.5" stroke-linecap="round"/><path d="M508.35,169.16667l-0.5,38" fill="none" stroke="#000000" stroke-width="2.5" stroke-linecap="round"/></g></g></svg>