<svg version="1.1" xmlns="http://www.w3.org/2000/svg" xmlns:xlink="http://www.w3.org/1999/xlink" width="2443.03856" height="799.24777" viewBox="0,0,2443.03856,799.24777"><g transform="translate(891.56708,-268.5)"><g data-paper-data="{&quot;isPaintingLayer&quot;:true}" fill-rule="nonzero" stroke-linecap="butt" stroke-linejoin="miter" stroke-miterlimit="10" stroke-dasharray="" stroke-dashoffset="0" style="mix-blend-mode: normal"><path d="M969.16217,762.94297v10.51051h-86.18517c-0.00516,-3.50351 -0.00964,-7.00701 -0.01333,-10.51051z" fill="#cecece" stroke="#000000" stroke-width="2"/><path d="" fill="#cecece" stroke="#000000" stroke-width="2"/><path d="M-891.56708,1067.74775v-466.95605h1169.05926c-0.06743,5.0168 0.18191,10.07135 0.21203,15.0116c0.01277,2.09533 0.40676,4.21674 0.07492,6.28567c-0.63615,3.96624 -2.41999,7.70151 -2.95685,11.6824c-0.55695,4.12989 -1.0797,16.03613 -1.59883,23.38513c-2.69355,38.13102 -1.52525,76.58211 -1.52525,114.80295c0,74.07407 0,149.64965 0,223.72372c0,0 0,10 10,10c10,0 10,-10 10,-10c0,-63.83948 0,-128.79421 0,-192.94187c1.18189,0.23917 2.01201,0.23917 2.01201,0.23917h3.003c5.79436,0 11.99772,0.69642 17.73835,-0.07492c2.04524,-0.27481 3.9641,-1.20294 6.00601,-1.5015c1.84159,-0.26927 3.75425,0.16781 5.5802,-0.19259c2.54561,-0.50243 3.09608,-2.63624 5.24235,-0.78822c0,0 3.58088,1.79044 7.34402,0.83982c-0.04994,1.75897 -0.10996,3.51821 -0.18231,5.27776c-0.21112,5.13401 -0.03436,10.29774 -0.62046,15.40255c-1.31463,11.4502 -3.97017,22.70636 -5.9438,34.06154c-2.002,14.5063 -5.05678,29.51353 -6.079,44.12234c-2.39984,34.29673 -1.54782,68.70399 -1.54782,103.06344l11.5015,10c0,0 10,0 10,-10c0,-2.45192 -0.60119,-4.30265 -1.50876,-5.6996c-0.07712,-31.82227 -0.70056,-63.67947 1.46245,-95.44117c0.96424,-14.15894 3.994,-28.89887 5.93301,-42.96475c0.62906,-3.61489 6.01177,-34.51363 6.06822,-35.00753c0.63283,-5.53715 0.48242,-11.13595 0.71732,-16.7042c0.78838,-18.68833 0.1498,-37.33245 0.83188,-56.00145c0.42188,-11.54725 2.34045,-22.99859 3.003,-34.53453c1.05242,-18.324 -0.24619,-36.96562 -0.01255,-55.32684c0.09461,-7.43493 2.16111,-14.71667 2.96686,-22.10842c0.67703,-6.2109 1.23796,-12.43896 1.55096,-18.67881c0.19108,-3.80931 -0.33331,-7.63942 -0.04003,-11.44222c0.21938,-2.84458 0.79813,-5.66089 1.18329,-8.48947h119.85892c-0.34634,29.9004 1.09936,59.86771 -1.22318,89.67077c-1.57069,20.15523 -4.57016,40.25964 -4.57814,60.47597c-0.03176,80.38037 0.95684,160.76646 0,241.14114c-0.04567,3.83632 -3.13847,7.27691 -3.003,11.11111c0.17622,4.98745 1.43024,10.1201 3.90625,14.45313c5.73541,10.03696 29.20456,14.71158 38.54988,6.64063c1.27038,-1.09715 2.45092,-2.23361 3.52743,-3.42091c4.43924,4.55728 10.73064,7.32716 18.05548,7.32716c9.51202,0 17.28121,-4.67096 21.51483,-11.86137c9.60989,13.61619 32.1823,15.1551 42.40221,-2.14013c1.55626,-2.63367 3.12082,-8.73987 3.125,-12.5c0.00199,-1.78728 0.00381,-3.57457 0.00547,-5.36185c4.45376,4.86108 10.93028,7.83933 18.53808,7.83933c10.82392,0 19.35851,-6.02889 23.03505,-14.93171c0.00406,4.65191 0.00839,9.30382 0.01299,13.95573c0.02447,24.69884 30.89182,33.98619 45.08003,15.18492c4.45599,5.14091 11.0955,8.31358 18.95901,8.31358c3.95013,0 7.59154,-0.80068 10.80248,-2.24935c10.45672,6.3312 24.9933,4.71342 33.37719,-6.13241c0.02613,-0.03381 0.05231,-0.06818 0.07851,-0.10309c11.92353,-3.41724 20.29868,-14.90343 17.79387,-28.92555c-1.14548,-6.41251 -2.13034,-13.0717 -3.22685,-19.70611c4.2154,-4.45707 6.6938,-10.56228 6.71533,-17.43303c0.12613,-40.24496 -0.75885,-80.49746 0,-120.73546c0.00691,-0.36643 0.01482,-0.73294 0.02368,-1.09953c1.27302,0.39731 2.6002,0.70016 3.97536,0.9008c-0.02249,57.32844 -0.02323,114.65687 0.05502,171.98524c0.01927,14.11564 10.48132,25 25,25c9.54884,0 17.34285,-4.70809 21.56541,-11.94708c5.63158,7.80989 15.53468,11.86731 26.062,10.39839c3.74869,-0.52307 7.08463,-2.91226 10.08268,-5.22268c13.68912,-10.54941 11.31284,-27.74374 12.33496,-42.36953c0.2974,-4.25551 2.99902,-19.39989 3.003,-28.41166c0.0457,-103.41441 -0.84412,-206.83228 0,-310.24325c0.06861,-8.40577 2.07065,-11.16915 2.80995,-16.98621c1.46205,-11.50395 1.99276,-16.90144 2.37116,-22.61698h662.97352v466.95606z" fill="#cecece" stroke="#000000" stroke-width="0"/><path d="" fill="#cecece" stroke="#000000" stroke-width="0"/><path d="M741.19973,1025.71321c0,0 -108,-282.50728 -108,-352.71321c0,-28.72255 -26,-64.71021 -26,-64.71021l440.30631,-6v423.42342z" fill="#cecece" stroke="none" stroke-width="0"/><path d="M611,588.44444v-8.55556h99v8.55556z" fill="#cecece" stroke="none" stroke-width="0"/><path d="M768,569.44445v-8.55556h99v8.55556z" fill="#cecece" stroke="none" stroke-width="0"/><path d="M611,474.44444v-8.55555h99v8.55555z" fill="#cecece" stroke="none" stroke-width="0"/><path d="M478,439.44445v-8.55555h99v8.55555z" fill="#cecece" stroke="none" stroke-width="0"/><path d="M270,404.44445l3,55.44445c0,0 12.10829,2 22,2c17.98102,0 72,-2 72,-2l4,-22.44445z" fill="#cecece" stroke="none" stroke-width="0"/><path d="M-8,374.5v-5c0,0 183.92268,0 225,0c15.49123,0 40,26 40,26l-7,6c0,0 -17.50877,-27 -33,-27c-41.07732,0 -225,0 -225,0z" fill="#cecece" stroke="none" stroke-width="0"/><path d="M-51,341.5v-11h57v11z" fill="#cecece" stroke="none" stroke-width="0"/><path d="M80,282.5v-7h102v7z" fill="#cecece" stroke="none" stroke-width="0"/><path d="M292,280.5v-7h102v7z" fill="#cecece" stroke="none" stroke-width="0"/><path d="M461,277.5v-7h102v7z" fill="#cecece" stroke="none" stroke-width="0"/><path d="M673,275.5v-7h102v7z" fill="#cecece" stroke="none" stroke-width="0"/></g></g></svg>