<svg version="1.1" xmlns="http://www.w3.org/2000/svg" xmlns:xlink="http://www.w3.org/1999/xlink" width="21.33333" height="43.93884" viewBox="0,0,21.33333,43.93884"><defs><radialGradient cx="542.91667" cy="297.66667" r="9.91666" gradientUnits="userSpaceOnUse" id="color-1"><stop offset="0" stop-color="#ffffff"/><stop offset="1" stop-color="#66ebff"/></radialGradient></defs><g transform="translate(-527.33333,-293.41665)"><g data-paper-data="{&quot;isPaintingLayer&quot;:true}" fill-rule="nonzero" stroke="#000000" stroke-linecap="butt" stroke-linejoin="miter" stroke-miterlimit="10" stroke-dasharray="" stroke-dashoffset="0" style="mix-blend-mode: normal"><path d="M542.68664,316.15211c0.44043,0.25716 0.88803,0.42013 1.33483,0.41501c0.22497,-0.00259 0.88371,0.09352 0.67305,-0.16197c-0.48473,-0.58786 -1.25482,-0.4708 -2.00788,-0.25303zM531.47047,318.30919c-0.10696,-0.25054 -0.20268,-0.64448 -0.26531,-1.25252c-0.23717,-2.30244 0.47434,-3.06993 0.47434,-3.06993l0.61387,-0.63085c3.12804,-1.66237 6.44658,-1.65101 9.6233,-1.65101c0.79058,0 2.37226,-0.86627 3.0705,0.12455c1.22054,1.73194 1.73338,4.81422 0.56643,8.50776c-0.06234,0.1973 -0.13431,0.36671 -0.21421,0.51126c0.40037,1.16667 0.48832,2.93641 -0.00938,5.60875c-0.02729,0.14653 -0.08134,0.2695 -0.15544,0.37266c1.15924,2.52096 1.62072,7.01463 -0.35406,9.55978c-1.00201,1.29142 -2.24035,-0.45602 -3.19064,-0.98546c-3.12556,-1.74136 -6.86109,-1.04732 -10.04653,-1.04732c0,0 -0.75,0 -0.75,-2.42699c0,-0.45821 0.02673,-0.8299 0.0701,-1.13143c-0.04498,-0.31163 -0.0701,-0.65928 -0.0701,-1.0259c0,-0.5552 0.05761,-1.06688 0.15455,-1.47581l0.49545,-2.13773l0.26579,0.64506c0.36795,-1.23292 0.79599,-2.18821 1.26724,-2.92094c-0.05461,-0.03867 -0.10901,-0.07842 -0.1632,-0.11921c-0.60053,-0.45236 -1.47965,0.14238 -1.78288,-1.5949c-0.20884,-1.19651 0.09951,-2.61526 0.40018,-3.85977zM540.21786,330.56358c0.17712,0.00897 0.35449,0.01508 0.53214,0.01793c0.14807,0.00236 4.25634,1.41883 3.96606,0.05721c-0.16909,-0.79314 -0.57997,-0.44255 -0.8733,-0.60833c-1.22633,0.01563 -2.42996,0.2372 -3.6249,0.53322zM534.66617,327.13297c1.13964,-0.20086 2.26782,-0.51837 3.39636,-0.83851c-1.03794,-0.15251 -2.06034,-0.09669 -3.02572,0.48034c-0.11345,0.06782 -0.23822,0.19525 -0.37064,0.35815zM538.76277,319.74885c-1.10108,-0.50585 -2.21078,-1.00006 -3.3461,-1.03266c-0.49084,-0.01412 -1.08021,0.1828 -1.61553,0.49533c0.31693,0.24225 0.58705,0.5564 0.68289,0.59313c1.34401,0.51527 2.84103,0.43603 4.27875,-0.05579z" fill="#8a8a8a" stroke-width="1"/><path d="M528.08333,311.6791v-17.51245h19.83333v17.51245z" fill="url(#color-1)" stroke-width="1.5"/></g></g></svg>