<svg version="1.1" xmlns="http://www.w3.org/2000/svg" xmlns:xlink="http://www.w3.org/1999/xlink" width="31.22069" height="53.08922" viewBox="0,0,31.22069,53.08922"><defs><linearGradient x1="526.10457" y1="296.40342" x2="557.12274" y2="298.98001" gradientUnits="userSpaceOnUse" id="color-1"><stop offset="0" stop-color="#ff0000"/><stop offset="1" stop-color="#0050ff"/></linearGradient></defs><g transform="translate(-525.91348,-290.474)"><g data-paper-data="{&quot;isPaintingLayer&quot;:true}" fill-rule="nonzero" stroke-linejoin="miter" stroke-miterlimit="10" stroke-dasharray="" stroke-dashoffset="0" style="mix-blend-mode: normal"><path d="M553.45973,321.1278c-1.0802,13.00391 -8.09082,23.03605 -15.65867,22.40741c-7.56786,-0.62864 -12.82713,-11.68 -11.74694,-24.68392c1.0802,-13.00391 8.09082,-23.03605 15.65867,-22.40741c7.56786,0.62864 12.82713,11.68 11.74694,24.68392z" fill="#7f7f7f" stroke="none" stroke-width="0" stroke-linecap="butt"/><path d="M557.12274,298.98001c-0.32575,3.92152 -7.53348,6.52376 -16.09891,5.81225c-8.56543,-0.7115 -15.24501,-4.46731 -14.91926,-8.38884c0.32575,-3.92152 7.53348,-6.52376 16.09891,-5.81225c8.56543,0.7115 15.24501,4.46731 14.91926,8.38884z" fill="url(#color-1)" stroke="none" stroke-width="0" stroke-linecap="butt"/><path d="M530.08805,325.45791l1.05428,-17.22184" fill="none" stroke="#000000" stroke-width="3" stroke-linecap="round"/><path d="M534.3959,324.93774l1.27237,-16.82743" fill="none" stroke="#000000" stroke-width="3" stroke-linecap="round"/></g></g></svg>