<svg version="1.1" xmlns="http://www.w3.org/2000/svg" xmlns:xlink="http://www.w3.org/1999/xlink" width="2445.53859" height="866.98732" viewBox="0,0,2445.53859,866.98732"><g transform="translate(469.39362,-193.5)"><g data-paper-data="{&quot;isPaintingLayer&quot;:true}" fill-rule="nonzero" stroke="#000000" stroke-linecap="butt" stroke-linejoin="miter" stroke-miterlimit="10" stroke-dasharray="" stroke-dashoffset="0" style="mix-blend-mode: normal"><path d="M-468.14362,1059.23728v-466.95605c0,0 265.74412,6.68136 480.12421,8.11692c78.36675,0.52477 157.86986,0.88308 207.01941,0.88308c10.73766,0 -1.5437,-9 7,-9c76.28032,0 178.86432,0 178.86432,0c0.06439,3.49324 0.12636,6.98074 0.15946,10.45662c0.33031,34.68615 2.51299,69.54585 1.96153,104.2292c-0.42104,26.48049 -2.82854,52.89749 -4.8951,79.30058c-0.6557,8.37747 -8.38528,42.17534 -0.96522,54.73237c6.58903,11.15067 19.64974,14.80855 30.48474,10.97366c0.75829,7.18693 1.90212,14.3748 2.39026,21.56621c0.70246,10.3486 -0.49982,22.74149 10.54688,29.05389c4.33302,2.47601 9.46256,3.90625 14.45313,3.90625c5.17052,0 9.33057,-0.94429 12.66111,-2.62501c4.44492,4.73415 10.84022,7.62501 18.33889,7.62501c3.97332,0 7.63682,-0.81162 10.86451,-2.27903c3.52284,1.46425 7.36875,2.27903 11.13549,2.27903c14.67112,0 24.81564,-10.88531 25,-25c0.03694,-2.82781 1.018,-20.95886 -0.30593,-29.89906c-0.8966,-6.05455 -2.14104,-12.05928 -2.86374,-18.13704c-0.61976,-5.21203 -0.91714,-16.35708 -2.17048,-24.07387c-1.20941,-7.4463 -3.0751,-14.80749 -3.72062,-22.32369c-0.91124,-10.61018 -0.78048,-21.28585 -0.93923,-31.9339c-0.12534,-8.40708 -0.38885,-39.7859 0.91543,-51.20409c1.48116,-12.96668 3.89975,-25.80909 5.80798,-38.71983c2.27635,-15.4014 2.91456,-37.59577 3.22671,-53.20971c0.16464,-8.23518 1.58981,8.50869 1.259,0.28243c0,0 8.37642,-2 15.79088,-2c42.00686,0 422.9721,4.32376 535.48863,1.7262c19.80826,-0.4573 28.35854,-24.7262 28.35854,-24.7262c0.12705,4.18345 0.3542,7.52808 0.36457,9.21877c0.00725,1.18146 0.09755,2.36409 0.25126,3.53553c0.58657,4.47012 1.05392,8.98003 1.49041,13.50226c0.12531,1.93195 0.23395,3.8165 0.25833,5.61498c0.13375,9.86829 -3.35032,29.55581 0.41317,44.89784c0.47079,2.55997 1.33154,4.98344 2.51839,7.20654c1.57836,3.299 3.6961,6.19901 6.51134,8.49389c1.25343,10.27474 1.72687,20.63519 2.65386,30.94631c0.89843,9.99343 3.4679,25.73175 4.0409,30.49441c1.62558,13.51134 -3.67773,39.78088 11.40922,48.40199c4.33302,2.47601 9.46256,3.90625 14.45313,3.90625c28.57516,0 26.44252,-30.25725 24.46105,-51.23352l1.69535,-2.06018l2.80674,-2.73088l0.77708,-1.865l1.4717,-2.82566l0.70876,-1.7719l5.07932,33.37842v2.10871l0.39063,3.90625l2.73438,8.59375l0.36879,0.42702l0.41246,1.52611l3.56326,3.07736l3.07736,3.56326l1.52611,0.41246l0.42702,0.36879l8.59375,2.73438l3.90625,0.39063h1.16941l1.57458,0.569l3.55376,-0.89877l0.6085,-0.06085l1.42541,-0.45354l5.42076,-1.37095l0.79477,-0.60672l0.95281,-0.30317l4.23173,-3.65467l1.18897,-0.90765l0.3988,-0.4636l2.77425,-2.39595l0.43682,-1.61624l5.95023,-8.50032l1.92007,-3.42413l0.09763,-0.31266l0.17893,-0.27436l1.41784,-3.66075l0.91167,-3.29603c7.27283,2.33183 15.73266,0.93325 23.95093,-5.23045c0.75385,-0.56539 1.44001,-1.16726 2.0638,-1.80127c1.35888,15.3187 2.59831,30.64945 4.0837,45.95602c0.36554,3.76674 2.42913,9.62839 4.25829,12.1607c8.73749,12.0963 24.77083,13.76511 36.9632,5.22562c6.18772,-4.33386 7.50796,-11.37886 8.53706,-18.04656c4.036,-26.14995 -4.55561,-57.36962 -7.04691,-80.32592c-6.76305,-62.31874 -9.46129,-77.32111 -18.04651,-130.52554h660.91271v466.95606z" fill="#ffab67" stroke-width="2.5"/><path d="M227,590.5v-52h170v52z" fill="#ffab67" stroke-width="2"/><path d="M517.49249,385.81894v-34.32194l182,56.98198l-4,2.33996z" fill="#ffab67" stroke-width="2"/><path d="M233,407.5c0,0 -47,-74.86318 -47,-83c0,-1.34114 7.41393,16.8743 18.73646,20.76664c13.48716,4.63646 28.26354,10.23336 28.26354,10.23336h170v52z" fill="#ffab67" stroke-width="2"/><path d="M8,314.5v-52h170v52z" fill="#ffab67" stroke-width="2"/><path d="M275,225.47898v-30.97898h170v30.97898z" fill="#ffab67" stroke-width="2"/><path d="M612,227.97748v-29.47748h170v29.47748z" fill="#ffab67" stroke-width="2"/><path d="M936,371.5v-62l167,56l3,6z" fill="#ffab67" stroke-width="2"/><path d="M540,613.5v-52h170v52z" fill="#ffab67" stroke-width="2"/><path d="M712,563.5v-52h170v52z" fill="#ffab67" stroke-width="2"/></g></g></svg>