<svg version="1.1" xmlns="http://www.w3.org/2000/svg" xmlns:xlink="http://www.w3.org/1999/xlink" width="1466.18018" height="614.10212" viewBox="0,0,1466.18018,614.10212"><g transform="translate(357.6216,-424.60209)"><g data-paper-data="{&quot;isPaintingLayer&quot;:true}" fill-rule="nonzero" stroke="none" stroke-linecap="butt" stroke-linejoin="miter" stroke-miterlimit="10" stroke-dasharray="" stroke-dashoffset="0" style="mix-blend-mode: normal"><path d="M656.60164,606.28832c5.79159,66.86883 -2.88051,150.38572 -21.39775,213.00175c-3.35658,11.35028 -7.81227,22.34624 -11.6653,33.53774c-4.19934,12.1974 -6.31245,29.16259 -9.30297,38.2674c-3.71919,11.32331 -8.01793,22.44289 -12.45402,33.51143h-2.92584c-0.00507,-106.10611 -0.16607,-212.2123 -0.08829,-318.31832z" fill="#8a8a8a" stroke-width="0"/><path d="" fill="#8a8a8a" stroke-width="0"/><path d="" fill="#8a8a8a" stroke-width="0"/><path d="M366.38307,924.60664c1.86429,-6.87718 1.33551,-15.17365 0.48307,-21.4183c-0.37825,-2.77092 -2.53302,-5.78587 -2.61238,-8.41582c-0.37425,-12.40352 0.03652,-24.81838 0,-37.22748c-0.05103,-17.33905 -3.01096,-34.54745 -4.60717,-51.81294c-0.67136,-7.26181 -5.80353,-27.6674 -5.90334,-36.02689c-0.6503,-54.46782 0.31859,-108.94565 0.26363,-163.41689h107.73144c0.0123,26.03469 0.30705,52.07076 0.00191,78.10346c-0.14328,12.22393 0.09071,24.51485 -1.40951,36.64722c-2.05555,16.62339 -9.07143,32.66899 -9.101,49.41896c-0.07775,44.04398 -0.04236,88.08811 0,132.13213c0.00709,7.3682 0.76604,14.6963 1.69824,22.01655z" fill="#8a8a8a" stroke-width="0"/><path d="M303.05859,865.5c-0.031,-13.05948 3.08605,-24.57599 4.9042,-37.61909c1.10875,-7.95401 1.67083,-12.68815 1.94184,-17.00962c0.00588,0.05319 0.01171,0.10637 0.01747,0.15954c1.71957,15.85527 3.55249,31.71905 4.33166,47.64825c0.6662,13.61972 -0.11885,27.27253 0,40.90802c0.03957,4.53958 2.40301,8.00913 3.003,12.32207c0.67674,4.86462 -0.03538,8.5636 0.89461,12.69749h-26.18125c0.17167,-1.62532 0.25293,-3.30704 0.26389,-5.01221c0.54376,-2.16082 1.02218,-4.35224 1.29626,-6.73604c0.87087,-7.57405 1.72174,-15.14563 2.56191,-22.71572c6.9664,-1.78417 6.9664,-9.64266 6.9664,-9.64266c0,-3.66667 0,-11.33336 0,-15.00003z" fill="#8a8a8a" stroke-width="0"/><path d="M1108.55858,606.28832v318.31832h-175.07707c-0.70093,-7.19001 -1.40718,-14.37944 -2.29935,-21.54758c-0.31165,-2.50392 -1.05597,-4.93476 -1.58396,-7.40214c-0.07976,-0.36691 -4.84279,-22.27919 -8.72581,-40.13738c0,-7.83585 0,-15.67169 0,-23.50754c0,-5.23878 0.00865,-57.36882 -0.03422,-58.10293c-1.12449,-19.25659 -5.24806,-38.22222 -7.5316,-57.37597c-1.89579,-15.90141 -1.29725,-32.24119 -1.8514,-48.2867c-0.71361,-20.66255 -0.96571,-41.30718 -1.05249,-61.95809z" fill="#8a8a8a" stroke-width="0"/><path d="" fill="#8a8a8a" stroke-width="0"/><path d="M888.4528,856.3931c0.14021,0.63791 0.28006,1.27591 0.4196,1.91397c0,2.7928 0,5.58561 0,8.37841c-0.11218,-3.43216 -0.25013,-6.86308 -0.4196,-10.29238z" fill="#8a8a8a" stroke-width="0"/><path d="M652.87614,924.60664c2.62174,-6.89158 4.95124,-13.87414 6.70021,-21.03679c2.96015,-12.12284 5.24318,-24.42329 8.73679,-36.40329c3.64087,-12.48499 8.09388,-24.11216 12.1679,-35.81033c-1.62984,31.52061 -1.28853,62.80979 5.68452,93.25041z" fill="#8a8a8a" stroke-width="0"/><path d="" fill="#0c7d00" stroke-width="0"/><path d="" fill="#0c7d00" stroke-width="0"/><path d="" fill="#0c7d00" stroke-width="0"/><path d="" fill="#dabe00" stroke-width="0"/><path d="" fill="#0c7d00" stroke-width="0"/><path d="M219.68008,925.08368c-0.31605,-2.16037 -0.89813,-5.68302 -1.58518,-10.91339c-0.08542,-0.65029 -6.63603,-37.70955 -6.82044,-38.75392c-0.26021,-6.33675 -0.50992,-12.67591 -0.75783,-19.01637c1.9623,9.69145 3.93992,19.37485 5.8622,29.05271l-0.04549,2.04729c0,0 0,6.25019 4.94128,8.868c0.20158,9.93212 0.5344,19.87069 0.82366,29.80643c-0.8078,-0.496 -1.64288,-0.84508 -2.4182,-1.09075z" fill="#8a8a8a" stroke-width="0"/><path d="" fill="#8a8a8a" stroke-width="0"/><path d="M210.91315,730.55592c1.01522,7.00332 2.01985,14.00831 3.02153,21.0137c-0.02308,0.00238 -0.04611,0.00481 -0.06907,0.00731c-1.07839,-6.99834 -2.22022,-13.99038 -2.95246,-21.02101z" fill="#8a8a8a" stroke-width="0"/><path d="M-98.13813,926.60664v-318.31832h273.63259c0.72053,13.41663 1.52733,26.82547 2.88186,40.13787c0.5376,5.28357 1.62166,10.51007 1.98404,15.80854c0.99506,14.54895 -0.0545,29.24078 0.98662,43.78757c1.43109,19.9955 3.5689,39.94484 4.91036,59.94633c2.44708,36.48651 3.46781,73.08744 5.13488,109.61501c0.06878,0.39441 6.83643,39.24492 7.00352,40.04264c0.61857,2.95306 1.062,5.97745 1.57558,8.98036z" fill="#8a8a8a" stroke-width="0"/><path d="M656.77014,608.28832c5.44961,66.52796 -3.23318,149.00846 -21.56626,211.00175c-3.35658,11.35028 -7.81227,22.34624 -11.6653,33.53774c-4.19934,12.1974 -6.31245,29.16259 -9.30297,38.2674c-3.94326,12.0055 -8.538,23.78198 -13.25719,35.51143h-2.12259c-0.00309,-106.1061 -0.1646,-212.2123 -0.0898,-318.31832z" fill="#8a8a8a" stroke-width="0"/><path d="" fill="#8a8a8a" stroke-width="0"/><path d="" fill="#8a8a8a" stroke-width="0"/><path d="M365.75609,926.60664c2.59293,-7.21215 2.04701,-16.55461 1.11006,-23.4183c-0.37825,-2.77092 -2.53302,-5.78587 -2.61238,-8.41582c-0.37425,-12.40352 0.03652,-24.81838 0,-37.22748c-0.05103,-17.33905 -3.01096,-34.54745 -4.60717,-51.81294c-0.67136,-7.26181 -5.80353,-27.6674 -5.90334,-36.02689c-0.64234,-53.8012 0.29511,-107.61216 0.26519,-161.41689h107.73137c0.02552,25.36809 0.29775,50.73737 0.00043,76.10346c-0.14328,12.22393 0.09071,24.51485 -1.40951,36.64722c-2.05555,16.62339 -9.07143,32.66899 -9.101,49.41896c-0.07775,44.04398 -0.04236,88.08811 0,132.13213c0.00773,8.03929 0.91052,16.03085 1.95683,24.01655z" fill="#8a8a8a" stroke-width="0"/><path d="M293.53028,912.85839c4.55177,-39.58729 8.55732,-79.10717 13.3426,-118.69973c1.21091,5.67875 2.44852,11.33344 3.04921,16.87216c1.71957,15.85527 3.55249,31.71905 4.33166,47.64825c0.6662,13.61972 -0.11885,27.27253 0,40.90802c0.03957,4.53958 2.40301,8.00913 3.003,12.32207c0.78375,5.63385 -0.29532,9.70428 1.47094,14.69749l-27.02073,-0.00001c0.35489,-2.22786 0.51151,-4.59647 0.52704,-7.01216c0.54376,-2.16084 1.02218,-4.35228 1.29627,-6.73609z" fill="#8a8a8a" stroke-width="0"/><path d="M-98.13812,926.60664v-318.31832h328.0506c0.00628,1.32657 0.01557,2.65319 0.02716,3.97986c-0.10084,0.3474 -0.19498,0.69933 -0.28282,1.05535c-0.62509,2.15271 -0.96854,4.42522 -0.98781,6.77501c-0.49908,7.35631 0.39625,15.22988 -0.00086,20.66274c-0.41842,5.72445 -2.99432,13.52199 -3.003,20.08708c-0.00913,6.90567 -0.01811,13.81135 -0.02651,20.71702c-0.7547,3.05887 -1.47124,6.13065 -1.47499,9.313c-0.05542,47.06306 -0.09496,94.12622 -0.07299,141.18932c-0.53408,1.9919 -0.96874,4.00205 -1.16414,5.95606c-2.93905,29.39049 -1.67308,58.99986 -0.81569,88.58287z" fill="#8a8a8a" stroke-width="0"/><path d="M1098.55858,608.28832v318.31832l-164.88208,0c-0.76654,-7.85659 -1.51944,-15.7148 -2.49433,-23.54758c-0.31165,-2.50392 -1.05597,-4.93476 -1.58396,-7.40214c-0.07976,-0.36691 -4.84279,-22.27919 -8.72581,-40.13738c0,-7.83585 0,-15.67169 0,-23.50754c0,-5.23878 0.00865,-57.36882 -0.03422,-58.10293c-1.12449,-19.25659 -5.24806,-38.22222 -7.5316,-57.37597c-1.89579,-15.90141 -1.29725,-32.24119 -1.8514,-48.2867c-0.69057,-19.9955 -0.94896,-39.97422 -1.04356,-59.95809z" fill="#8a8a8a" stroke-width="0"/><path d="" fill="#8a8a8a" stroke-width="0"/><path d="M888.4528,856.3931c0.14021,0.63791 0.28006,1.27591 0.4196,1.91397c0,2.7928 0,5.58561 0,8.37841c-0.11218,-3.43216 -0.25013,-6.86308 -0.4196,-10.29238z" fill="#8a8a8a" stroke-width="0"/><path d="" fill="#dabe00" stroke-width="0"/><path d="M652.10637,926.60664c2.93479,-7.54066 5.5516,-15.18039 7.46997,-23.03679c2.96015,-12.12284 5.24318,-24.42329 8.73679,-36.40329c3.64087,-12.48499 8.09388,-24.11216 12.1679,-35.81033c-1.66556,32.21136 -1.27262,64.18102 6.15255,95.25041z" fill="#8a8a8a" stroke-width="0"/><path d="M-357.6216,1038.70421v-432.43243h587.52695c0.00458,1.99868 0.01682,3.99749 0.03429,5.99639c-0.10084,0.3474 -0.19498,0.69933 -0.28282,1.05535c-0.62509,2.15271 -0.96854,4.42522 -0.98781,6.77501c-0.49908,7.35631 0.39625,15.22988 -0.00086,20.66274c-0.41842,5.72445 -2.99432,13.52199 -3.003,20.08708c-0.00913,6.90567 -0.01811,13.81135 -0.02651,20.71702c-0.7547,3.05887 -1.47124,6.13065 -1.47499,9.313c-0.05542,47.06306 -0.09496,94.12622 -0.07299,141.18932c-0.53408,1.9919 -0.96874,4.00205 -1.16414,5.95606c-3.9344,39.34399 -0.33332,79.08021 -0.26437,118.62038c0.0149,8.54624 3.04027,16.02079 5.16713,24.06284c3.11437,11.77598 0.35731,23.03407 13.36495,31.43483c3.17956,2.05346 6.70239,4.15737 10.48157,4.36732c4.13482,0.22971 8.43816,-0.42993 12.33369,-1.93636c0.52912,3.12842 1.63318,6.24658 3.32305,9.20386c3.52319,6.16558 10.00376,8.00875 16.15625,9.54688c6.04415,1.51104 12.45681,0.39966 18.68689,0.36719c4.65144,-0.02425 9.8583,-1.69754 13.6591,-4.37726c3.72013,-2.62284 7.75444,-4.8348 11.21053,-7.79691c12.55812,-10.76316 21.09178,-41.65262 24.09102,-49.43637c7.8892,-20.47436 18.23521,-40.19484 23.44,-61.5103c2.96015,-12.12284 5.24318,-24.42329 8.73679,-36.40329c3.64087,-12.48499 8.09388,-24.11216 12.1679,-35.81033c-1.7045,32.9645 -1.25312,65.67587 6.68498,97.42825c1.33406,5.33624 2.8976,10.91928 7.31177,14.6055c-2.62543,10.76474 -3.93181,21.6554 5.16624,29.07749c3.63499,2.96539 8.17013,5.08421 12.79743,5.85543c4.6273,0.77122 9.60448,0.23778 14.00474,-1.3884c2.11885,-0.78305 3.90373,-1.87289 5.41679,-3.19736c-0.00275,1.82982 -0.00571,3.65964 -0.00889,5.48946c-4.20587,4.07676 -6.13488,8.77619 -6.13488,16.96409c0,6.62282 2.20415,12.29972 5.91476,16.56245c0.45058,0.64721 0.96436,1.2967 1.54792,1.94891c0.81062,0.90599 1.68982,1.76525 2.62507,2.56697c6.6008,10.7841 20.59197,9.10781 30.9658,9.42167c3.46457,0.10482 7.83416,-0.00647 11.32353,-1.11672c1.79747,-0.57192 3.65669,-1.58213 5.43352,-2.81515c9.57797,-0.41034 19.23815,-1.50052 28.75095,-1.56814c7.7516,-0.0551 16.54375,-3.88915 21.09375,-10.54687c1.30678,-1.91212 1.91452,-4.21504 2.59441,-6.44488c1.76821,4.38675 4.60402,8.36082 8.40526,10.53295c17.52256,10.01289 39.43538,-0.60935 39.45313,-21.09375c0.1139,-131.45539 -0.15623,-262.911 -0.05984,-394.36635l195.51034,0c0,63.23473 0,126.46946 0,189.70419c0,22.02202 0,44.04404 0,66.06607c0,7.00701 -0.03697,14.01411 0,21.02102c0.01458,2.76421 0.56869,5.55823 0.15465,8.29129c-0.54577,3.60259 -2.002,7.00701 -3.003,10.51051c-0.05155,1.74074 -0.1031,3.48148 -0.15465,5.22222v3.003c0,0 0,16 16,16c10.86064,0 14.34919,-7.3721 15.46974,-12.10808c0.04703,2.16548 0.06179,4.35901 0.06179,6.61859v1.5015c0,0 0,16 16,16c16,0 16,-16 16,-16v-1.5015c0,-9.56379 -0.29019,-18.11499 -1.6534,-27.72499c-0.81379,-5.73684 -2.45853,-11.36125 -2.90562,-17.13825c-0.97016,-12.53564 0.05452,-25.14622 0.05452,-37.71935c0,-9.03216 0,-18.06433 0,-27.09649c1.06608,3.40677 2.24075,6.79122 2.76937,10.30817c1.51931,10.10815 1.74961,20.36839 2.63969,30.55125c2.00681,22.95859 1.62998,45.79112 1.62998,68.81965c0,9.00901 0,21.02102 0,30.03003c0,0 0,16 16,16c11.06856,0 14.48006,-7.65707 15.53153,-12.37711c0,2.48163 0,4.96326 0,7.44488c-1.77528,2.31675 -3.003,5.52114 -3.003,9.95325c0,16 16,16 16,16h3.003c1.6565,0 3.8514,0.08129 6.27476,0.12059v50.93198z" fill="#8a8a8a" stroke-width="0"/><path d="M888.4528,856.3931c0.14021,0.63791 0.28006,1.27591 0.4196,1.91397c0,2.7928 0,5.58561 0,8.37841c-0.11218,-3.43216 -0.25013,-6.86308 -0.4196,-10.29238z" fill="#8a8a8a" stroke-width="0"/><path d="" fill="#8a8a8a" stroke-width="0"/><path d="M911.14716,606.27178v52.06809c-0.48211,-17.36116 -0.67169,-34.7124 -0.74455,-52.06809z" fill="#8a8a8a" stroke-width="0"/><path d="M370.93414,606.27178c6.00965,57.86081 0.65643,129.68435 -12.89723,189.7602c-1.74306,-8.97642 -4.22455,-20.53891 -4.29366,-26.32677c-0.65037,-54.47334 0.31878,-108.95668 0.26361,-163.43343z" fill="#8a8a8a" stroke-width="0"/><path d="M307.40858,954.84546c-4.26625,10.70738 -7.2887,22.11879 -13.47298,31.84523c-0.88129,1.38606 -2.8706,0.71395 -4.75831,0.27486c3.62189,-18.03568 -0.58409,-41.6476 0.00138,-51.86994c0.01521,-0.26556 0.03257,-0.5282 0.05195,-0.78808c2.19461,-3.91147 2.96789,-9.18921 3.00338,-14.7131c0.54376,-2.16082 1.02217,-4.35224 1.29626,-6.73603c4.55177,-39.58729 8.55732,-79.10717 13.3426,-118.69973c1.21091,5.67875 2.44852,11.33344 3.04921,16.87216c1.71957,15.85527 3.55249,31.71905 4.33166,47.64825c0.6662,13.61972 -0.11885,27.27253 0,40.90802c0.03957,4.53958 2.40301,8.00913 3.003,12.32207c0.78691,5.65655 -0.30405,9.73705 1.49243,14.75788c-3.72402,9.41481 -7.59448,18.77646 -11.3406,28.17843z" fill="#8a8a8a" stroke-width="0"/><path d="" fill="#dabe00" stroke-width="0"/><path d="M124.24851,641.74174c0,-0.41421 0.33579,-0.75 0.75,-0.75c0.41421,0 0.75,0.33579 0.75,0.75c0,0.41421 -0.33579,0.75 -0.75,0.75c-0.41421,0 -0.75,-0.33579 -0.75,-0.75z" fill="#8a8a8a" stroke-width="0.5"/><path d="" fill="#8a8a8a" stroke-width="0.5"/><path d="" fill="#8a8a8a" stroke-width="0.5"/><path d="M173.79657,700.3003c0,0.75 -0.75,0.75 -0.75,0.75c-6.5,0 -13.01952,0 -19.51952,0c0,0 -0.75,0 -0.75,-0.75c0,-0.75 0.75,-0.75 0.75,-0.75c6.5,0 13,0 19.5,0h0.01952c0,0 0.75,0 0.75,0.75z" fill="#8a8a8a" stroke-width="0.5"/><path d="M600.22448,649.24925c0,-0.41421 0.33579,-0.75 0.75,-0.75c0.41421,0 0.75,0.33579 0.75,0.75c0,0.41421 -0.33579,0.75 -0.75,0.75c-0.41421,0 -0.75,-0.33579 -0.75,-0.75z" fill="#8a8a8a" stroke-width="0.5"/><path d="" fill="#8a8a8a" stroke-width="0.5"/><path d="" fill="#8a8a8a" stroke-width="0.5"/><path d="" fill="#dabe00" stroke-width="0.5"/><path d="" fill="#dabe00" stroke-width="0.5"/><path d="" fill="#8a8a8a" stroke-width="0.5"/><path d="" fill="#dabe00" stroke-width="0.5"/><path d="M919.76205,636.83024c0,-0.41421 0.33579,-0.75 0.75,-0.75c0.41421,0 0.75,0.33579 0.75,0.75c0,0.41421 -0.33579,0.75 -0.75,0.75c-0.41421,0 -0.75,-0.33579 -0.75,-0.75z" fill="#8a8a8a" stroke-width="0.5"/><path d="M933.27556,620.31372c0,-0.41421 0.33579,-0.75 0.75,-0.75c0.41421,0 0.75,0.33579 0.75,0.75c0,0.41421 -0.33579,0.75 -0.75,0.75c-0.41421,0 -0.75,-0.33579 -0.75,-0.75z" fill="#ffffff" stroke-width="0.5"/><path d="" fill="#dabe00" stroke-width="0.5"/><path d="" fill="#dabe00" stroke-width="0.5"/><path d="" fill="#dabe00" stroke-width="0.5"/><path d="M637.47975,614.30772c0,-0.41421 0.33579,-0.75 0.75,-0.75c0.41421,0 0.75,0.33579 0.75,0.75c0,0.41421 -0.33579,0.75 -0.75,0.75c-0.41421,0 -0.75,-0.33579 -0.75,-0.75z" fill="#8a8a8a" stroke-width="0.5"/><path d="M129.04354,590.27778v-34.53453h97.5976v34.53453z" fill="#8a8a8a" stroke-width="0"/><path d="M351.76126,526.20871v-34.53454h97.59759v34.53454z" fill="#8a8a8a" stroke-width="0"/><path d="M577.48199,459.13663v-34.53454h97.59759v34.53454z" fill="#8a8a8a" stroke-width="0"/></g></g></svg>