<svg version="1.1" xmlns="http://www.w3.org/2000/svg" xmlns:xlink="http://www.w3.org/1999/xlink" width="2445.53862" height="768.68993" viewBox="0,0,2445.53862,768.68993"><g transform="translate(469.39362,-289.79744)"><g data-paper-data="{&quot;isPaintingLayer&quot;:true}" fill="#ffab67" fill-rule="nonzero" stroke="#000000" stroke-linecap="butt" stroke-linejoin="miter" stroke-miterlimit="10" stroke-dasharray="" stroke-dashoffset="0" style="mix-blend-mode: normal"><path d="M-468.14362,1057.23728v-466.95605h873.00794c0.06439,3.49324 0.12636,6.98074 0.15946,10.45662c0.15732,16.52006 0.73482,33.07948 1.237,49.64048c-0.9596,14.36164 -2.69025,28.68294 -3.80635,43.03699c-4.0816,52.49302 -5.54856,81.16457 -3.54634,113.56702c-1.3682,11.938 -1.83985,25.15239 2.2169,32.01766c0.26231,0.4439 0.53487,0.87593 0.81714,1.29608c0.62545,5.4499 1.32937,11.16357 2.11433,17.22459c1.04987,8.10646 5.91985,15.53866 12.98497,19.68689c0.97517,0.57256 2.2588,0.21942 3.35712,0.48863c4.307,1.05567 9.20323,1.77779 13.97425,1.54486c0.45909,8.25198 1.78172,16.55708 10.17407,21.35271c4.33302,2.47601 9.46256,3.90625 14.45313,3.90625c5.17052,0 9.33057,-0.94429 12.66111,-2.62501c4.44492,4.73415 10.84022,7.62501 18.33889,7.62501c3.97332,0 7.63682,-0.81162 10.86451,-2.27903c3.52284,1.46425 7.36875,2.27903 11.13549,2.27903c14.67112,0 24.81564,-10.88531 25,-25c0.00904,-0.69183 0.07458,-2.29962 0.14906,-4.4647c2.72866,-0.66447 5.37194,-1.71479 7.77103,-3.0857c7.25413,-4.14522 9.45676,-10.90555 10.08016,-18.17349c0.98184,14.13818 1.99084,28.27447 3.0828,42.40446c0.24536,3.17497 2.0522,10.40051 3.84272,12.67195c2.30648,2.92598 5.09734,5.52461 8.18022,7.61676c0.74522,0.50574 1.78506,0.27293 2.65189,0.51732c11.62512,3.27756 28.46709,4.80332 35.85989,-8.13408c2.47601,-4.33302 3.90625,-9.46256 3.90625,-14.45312c0,-2.12735 -0.40962,-4.21161 -1.0076,-6.26771c3.11871,-0.21936 6.42081,-0.97743 9.85488,-2.3381c5.30898,-2.10356 9.29093,-7.32403 11.55817,-12.84513c4.55072,-1.62674 8.01728,-4.39722 10.65996,-7.92096c6.82174,6.97079 17.95343,10.10827 28.60071,9.52688c2.74076,0.8445 5.60608,1.30147 8.42699,1.30147c4.37483,0 8.00481,-0.78336 11.02738,-2.17957c2.46959,0.10734 5.15734,-0.15282 8.0815,-0.84086c0.33251,-0.07824 0.66412,-0.16315 0.99456,-0.25454c2.81514,0.71896 5.73937,1.03477 8.59342,0.88456c5.79554,-0.30503 10.27619,-1.91639 13.71549,-4.46976c1.01241,0.81421 2.09498,1.55976 3.24539,2.22787c0.88725,0.51528 3.34588,1.08537 5.83399,1.52629c-0.25685,4.06026 -0.55425,8.11752 -0.91573,12.16997c-0.78098,8.75524 -5.66161,9.94203 -0.45438,19.66999c2.35519,4.39987 5.94081,8.33701 10.16863,10.98866c18.95932,11.89113 38.15975,-4.05541 40.10871,-22.77966c0.69177,-6.646 1.11757,-13.55275 1.44022,-20.52905c3.00264,-1.26742 5.48871,-3.22537 7.55711,-5.64469c4.8641,-4.49156 8.07621,-10.79204 8.17133,-18.14295c1.35546,-5.69691 2.07213,-11.4077 2.6372,-16.00348c1.02175,-8.31001 1.98522,-16.6271 2.99266,-24.93886c0.3209,-2.64752 0.70449,-5.28759 0.99236,-7.9389c0.35998,-3.3154 -0.30224,-7.04025 0.19305,-10.19931c0.8069,-5.14658 3.24197,-11.57636 3.86729,-17.32908c1.36955,-12.5993 2.74813,-25.19816 3.9798,-37.81169c2.75145,-28.17773 -0.55512,-62.125 -3.84709,-90.01504c-2.04634,-17.33687 -2.88398,-34.79132 -4.15719,-52.20549c0.67697,-2.14264 1.07311,-4.41004 1.14521,-6.75901h136.98676c2.41714,15.37683 4.85812,30.74991 7.33114,46.11781c3.75175,23.31422 15.92353,44.46495 23.54207,66.81638c1.37552,4.03552 1.38515,8.53488 2.94009,12.56932c2.77507,7.20018 5.53058,14.40862 8.25498,21.62887c-0.76262,24.0894 -1.58545,48.17663 -2.54551,72.25893c-0.02792,0.70032 -1.36134,0.71224 -1.59131,1.37431c-1.63747,4.71428 -3.90625,9.46256 -3.90625,14.45313c0,25.12103 29.95463,31.44459 45.65328,19.45086c3.42978,3.41115 7.64992,5.59055 12.85287,5.8796c2.18827,0.12157 4.42375,-0.00595 6.62099,-0.37626c0.60916,0.03039 1.23334,0.04581 1.87286,0.04581c13.26361,0 19.5168,-6.16916 22.517,-14.97159c0.58644,1.72366 1.36384,3.23741 2.38925,4.42472c2.04611,2.36917 4.27145,4.59452 6.64063,6.64063c3.33664,2.88164 9.95899,3.72904 14.45313,3.90625c4.77822,0.18842 9.50532,-0.31973 13.77409,-1.63772c8.68188,3.35512 18.84674,1.61509 26.82539,-4.85006c4.76317,4.64743 11.73694,7.26856 20.48869,6.78951c7.82287,0.59555 15.89467,-0.68391 21.41183,-3.42673c12.11522,-6.02299 12.89753,-19.22348 11.1506,-31.09747c-0.74623,-5.07216 -1.48846,-10.14494 -2.22498,-15.21855c0.39833,-4.33178 0.46939,-8.68154 0.34551,-13.28666c7.60149,-10.53427 6.21822,-28.56864 4.90168,-42.50581l1.69535,-2.06018l2.80674,-2.73088l0.77708,-1.865l1.4717,-2.82566l0.70876,-1.7719l5.07932,33.37842v2.10871l0.39063,3.90625l2.73438,8.59375l0.36879,0.42702l0.41246,1.52611l3.56326,3.07736l3.07736,3.56326l1.52611,0.41246l0.42702,0.36879l8.59375,2.73438l3.90625,0.39063h1.16941l1.57458,0.569l3.55376,-0.89877l0.6085,-0.06085l1.42541,-0.45354l5.42076,-1.37095l0.79477,-0.60672l0.95281,-0.30317l4.23173,-3.65467l1.18897,-0.90765l0.3988,-0.4636l2.77425,-2.39595l0.43682,-1.61624l5.95023,-8.50032l1.92007,-3.42413l0.09763,-0.31266l0.17893,-0.27436l1.41784,-3.66075l0.91167,-3.29603c7.27283,2.33183 15.73266,0.93325 23.95093,-5.23045c0.75385,-0.56539 1.44001,-1.16726 2.0638,-1.80127c1.35888,15.3187 2.59831,30.64945 4.0837,45.95602c0.36554,3.76674 2.42913,9.62839 4.25829,12.1607c8.73749,12.0963 24.77083,13.76511 36.9632,5.22562c6.18772,-4.33386 7.50796,-11.37886 8.53706,-18.04656c4.036,-26.14995 -4.55561,-57.36962 -7.04691,-80.32592c-6.76305,-62.31874 -9.46129,-77.32111 -18.04651,-130.52554h660.91271v466.95606z" stroke-width="2.5"/><path d="" stroke-width="2.5"/><path d="" stroke-width="2.5"/><path d="" stroke-width="2.5"/><path d="" stroke-width="2.5"/><path d="M1323.52426,588.77627c3.40896,13.07524 6.87217,29.87721 4.26784,39.65467c-3.51081,13.18074 -8.01026,26.29978 -13.15437,39.34658c-10.52321,26.68959 -23.72056,53.10773 -34.01394,79.81958c-4.91868,12.76423 -2.57931,28.0655 -2.90825,39.54634c-0.62282,21.73862 0.95636,23.47155 1.93439,44.92445c0.30765,6.74831 -1.94903,16.63693 0.85276,25.47715h-673.22726c2.12775,-7.43015 2.72434,-15.78678 2.92329,-23.4686c0.58045,-22.41253 0.69717,-44.83745 1.58671,-67.24099c1.22836,-30.93683 3.25181,-61.84125 4.76649,-92.76682c0.58757,-11.9966 -4.56751,-35.10919 -4.75223,-38.80074c-0.94973,-18.97964 0.02031,-38.00142 0,-57.00211c-0.02285,-21.37431 -1.21467,-42.75493 -3.07594,-64.05851c293.34045,15.1967 714.80051,74.56902 714.80051,74.56902z" stroke-width="1.5"/><path d="M-263.32132,857.54504v-268.76877c0,0 389.34207,-56.69652 668.84706,-73.46222c-0.09646,0.94303 -0.14586,1.90751 -0.14586,2.89165c0,3.51777 0.48146,6.57473 1.36617,9.22862c-0.48995,36.62976 1.06867,73.28317 0.13533,109.90619c-0.47768,18.74367 -2.97346,37.38147 -4.42696,56.0748c-5.9843,76.96353 -6.34807,102.71935 1.60203,164.10535c0.00105,0.00812 0.00211,0.01625 0.00317,0.02437z" stroke-width="1.5"/><path d="" stroke-width="1.5"/><path d="" stroke-width="1.5"/><path d="" stroke-width="1.5"/><path d="" data-paper-data="{&quot;index&quot;:null}" stroke-width="2"/><path d="M685.63514,1003.19069l-12.01201,-487.98799c0,0 91.38831,-70.57057 142.64264,-70.57057c10.31839,0 52.93523,9.34101 79.78356,-7.84639c30.39544,-19.45814 45.65602,-65.72718 64.36059,-65.72718c82.1622,0 123.12312,73.57357 123.12312,73.57357v558.55856z" stroke-width="1.5"/><path d="M609.05856,330.51803v-28.52853c0,0 50.68633,12.01201 76.57658,12.01201c16.43976,0 43.46547,-5.14592 61.75197,-9.08679c11.34702,-2.44536 35.84563,10.58829 35.84563,10.58829l-16.51652,15.01502z" stroke-width="1.5"/><path d="M257.70721,321.50901v-30.03003c0,0 22.74012,13.51351 39.03904,13.51351c15.97222,0 50.752,-4.62202 76.87782,-8.45984c7.58569,-1.11432 16.70248,0.34932 24.8289,2.46852c5.37501,1.40169 12.83376,-0.99998 19.34227,-4.01668c3.3588,-1.55681 9.59928,0.99725 15.57312,4.37581c7.73849,4.37657 18.03255,-0.37381 18.03255,-0.37381l-45.04505,22.52252z" stroke-width="1.5"/><path d="M-166.88438,315.503v-16.51652c0,0 60.93695,15.01502 91.59159,15.01502c17.99668,0 78.16966,-12.21989 125.29562,-22.42779c33.80133,-7.32166 59.38906,26.93229 59.38906,26.93229v3.003z" stroke-width="1.5"/></g></g></svg>