<svg version="1.1" xmlns="http://www.w3.org/2000/svg" xmlns:xlink="http://www.w3.org/1999/xlink" width="1675.28158" height="895.78883" viewBox="0,0,1675.28158,895.78883"><g transform="translate(204.48574,-253.04751)"><g data-paper-data="{&quot;isPaintingLayer&quot;:true}" fill-rule="nonzero" stroke-linecap="butt" stroke-linejoin="miter" stroke-miterlimit="10" stroke-dasharray="" stroke-dashoffset="0" style="mix-blend-mode: normal"><path d="" fill="#cecece" stroke="#000000" stroke-width="2"/><path d="" fill="#8a8a8a" stroke="#000000" stroke-width="0"/><path d="" fill="#8a8a8a" stroke="#000000" stroke-width="0"/><path d="" fill="#8a8a8a" stroke="#000000" stroke-width="0"/><path d="" fill="#8a8a8a" stroke="#000000" stroke-width="0"/><path d="M-204.48574,1148.83634v-537.53754h893.72087c-0.25615,0.93313 -0.4018,1.99434 -0.4018,3.2012c0,3.81174 1.45294,6.17055 3.25117,7.63023c-3.61356,4.20804 -4.43395,13.20036 -1.75768,17.62708c1.69638,2.80592 8.76996,6.06427 12.39973,7.84376l-7.95718,0.95486c-5.02263,0.53119 -8.93604,4.78062 -8.93604,9.94407c0,2.76142 1.11929,5.26142 2.92893,7.07107l2,2l0.28734,-0.28734c0.39294,0.21445 0.80185,0.4033 1.2245,0.56432l0.63224,1.35396c1.46921,0.44007 2.93527,0.83496 4.39942,1.18932c-0.60122,1.36598 -1.55108,2.58727 -1.98226,4.01624c-0.62545,2.07277 -0.55349,4.30832 -1.1203,6.39789c-0.54129,1.99547 -1.69472,3.79596 -2.18944,5.80348c-0.26238,1.0647 0.18514,2.2185 -0.05131,3.28925c-0.45459,2.05859 -1.72038,3.91044 -2,6c-0.2967,2.21713 0.68596,4.50064 0.29995,6.70398c-0.20739,1.18382 -1.71355,1.83279 -2,3c-0.49116,2.00136 -0.42908,7.15282 -0.42908,9.89784c0,5 0,13 0,18c0,0 0,5.70518 4.30927,8.49699c-2.20211,3.52612 -3.14611,7.19571 -3.38583,12.35735c-0.2048,4.40968 0.13988,8.85227 1.5015,13.06595c1.08639,3.36193 -0.44566,8.00189 0.6932,11.58119c2.93182,9.21428 11.46639,17.74886 20.68067,20.68067c8.33776,2.65292 30.12896,0.52049 34.59009,0.6932c3.6705,0.1421 7.34905,1.47519 11.07807,1.5015c9.00878,0.06357 18.01819,0.0552 27.02703,0c9.21243,-0.05645 18.29585,-3.32871 27.3773,-3.87251c0.70241,-0.04206 3.25739,1.81783 3.87847,2.08442c1.67942,0.72088 3.49124,1.15193 5.09064,2.03625c8.41156,4.65086 12.14738,7.66047 21.54232,12.12752c4.673,2.22189 9.65798,2.40392 14.68274,3.5679c5.25301,1.21685 10.50915,3.49128 16.01712,3.57593c5.00441,0.07691 10.01016,0.03873 15.01502,0c8.08501,-0.06257 20.05892,-3.96731 25.47656,-4.89172c13.05375,-2.22737 26.18537,-3.9748 39.29832,-5.82197c6.27516,-0.88396 11.03213,-0.64404 16.9002,-2.27083c1.57405,-0.43637 3.17503,-0.82867 4.66734,-1.49279c0.42711,-0.19008 0.78243,-0.43012 1.0784,-0.69483c-0.18197,3.45972 -0.20413,6.90337 0.48159,10.27576v3c0,3.28408 1.58308,6.1984 4.02774,8.0215c0.10327,0.29812 0.20639,0.59622 0.30896,0.89441c0.95734,2.78296 1.59777,2.28374 4.34451,5.03049c4.86029,4.86029 9.90094,7.312 17.53049,7.46951c6.53968,0.13501 13.5341,0.65629 20.12626,-0.62036c0.43658,5.27142 2.50014,10.6705 2.92179,15.63339c1.03423,12.17306 -3.22225,30.26971 10.54688,38.13778c4.33302,2.47601 9.46256,3.90625 14.45313,3.90625c14.42468,0 21.46893,-8.53197 24.60938,-21.09375c1.15225,-4.60899 -1.37765,-9.83767 0.39063,-14.24717c0.5116,-1.27577 2.87093,0.62591 4.12315,0.05911c3.44823,-1.56079 6.38652,-4.06776 9.4972,-6.22415c0.83972,-0.58212 1.61754,-1.39741 2.33126,-2.35376c-0.85772,9.23201 -1.38183,18.51114 -1.38704,27.86873c-0.02065,37.03703 -0.12579,74.07429 0,111.11111c0.04794,14.11558 10.45485,25 25,25c14.54539,0 24.9518,-10.88442 25,-25c0.12576,-36.82862 -0.37626,-73.65959 0,-110.4865c0.27368,-26.7872 3.06422,-44.00677 7.21861,-71.87363c0.80131,-5.37501 3.60922,-17.79619 4.62863,-26.48598c1.49473,-12.74169 2.61803,-25.53044 4.41156,-38.23352c0.63008,-4.4627 4.2467,-18.64037 4.78599,-27.36443c1.00692,-16.28895 1.5216,-32.61182 2.87504,-48.87565c1.53526,-18.44874 6.02693,-36.62265 6.02693,-55.25133c0,-1.05696 -0.03174,-2.13403 -0.09774,-3.22327h301.28914v537.53754z" fill="#cecece" stroke="none" stroke-width="0"/><path d="" fill="#cecece" stroke="none" stroke-width="0"/><path d="M1081.79969,622.37968c0.0294,-0.0386 0.05874,-0.07728 0.08801,-0.11603c0.00665,0.07078 0.01319,0.14151 0.0196,0.21219c-0.03588,-0.03233 -0.07175,-0.06438 -0.10762,-0.09616z" fill="#cecece" stroke="none" stroke-width="0"/><path d="" fill="#8a8a8a" stroke="none" stroke-width="0"/><path d="" fill="#8a8a8a" stroke="none" stroke-width="0"/><path d="M177.83334,730.5v-156h129v156z" fill="#cecece" stroke="#000000" stroke-width="0"/><path d="M306.83334,704.5v-156h129v156z" fill="#cecece" stroke="#000000" stroke-width="0"/><path d="M435.83334,682.5v-156h129v156z" fill="#cecece" stroke="#000000" stroke-width="0"/><path d="M558.83334,664.5v-156h129v143.99903c-1.25582,1.67149 -2,3.74933 -2,6.00097c0,2.25121 0.74389,4.32868 1.99927,6z" fill="#cecece" stroke="#000000" stroke-width="0"/><path d="M729.83334,486.5v-18h152v18z" fill="#cecece" stroke="none" stroke-width="0"/><path d="M940.37088,433.98649l-22.52252,-11.99399c0,0 52.44384,-51.05105 70.77777,-51.05105c24.29364,0 84.72646,0 84.72646,0c0.27923,2.19761 1.20068,4.48458 1.29006,6.61067c0.13161,3.13059 -0.11651,7.27652 -0.12291,11.38933c0,0 -62.78242,0 -87.39511,0c-18.00212,0 -46.75374,45.04505 -46.75374,45.04505z" fill="#cecece" stroke="none" stroke-width="0"/><path d="M727.83334,292.5v-18h152v18z" fill="#cecece" stroke="none" stroke-width="0"/><path d="M382.49023,269.95162l1.8031,-16.90411l196.88312,21.00087l-1.8031,16.90411z" fill="#cecece" stroke="none" stroke-width="0"/><path d="M573.83334,294.5v-18h154v18z" fill="#cecece" stroke="none" stroke-width="0"/><path d="M129.83334,275.5v-18h152v18z" fill="#cecece" stroke="none" stroke-width="0"/></g></g></svg>