<svg version="1.1" xmlns="http://www.w3.org/2000/svg" xmlns:xlink="http://www.w3.org/1999/xlink" width="2445.03857" height="857.35292" viewBox="0,0,2445.03857,857.35292"><g transform="translate(680.85536,-200.88438)"><g data-paper-data="{&quot;isPaintingLayer&quot;:true}" fill="#ffffff" fill-rule="nonzero" stroke="#000000" stroke-width="2" stroke-linecap="butt" stroke-linejoin="miter" stroke-miterlimit="10" stroke-dasharray="" stroke-dashoffset="0" style="mix-blend-mode: normal"><path d="M265.06973,658.49763l-16.03535,-27.14968l421.46646,-248.92968l16.03535,27.14968z"/><path d="M-679.85535,1057.23728v-466.95605h1351.4956c0.10902,11.73416 0.1829,23.46818 0.04594,35.20018c-0.24408,20.90704 -3.76382,35.06587 -7.19352,56.94271c-1.28013,8.16551 -1.34946,21.60502 -1.73775,25.94956c-1.77727,19.88538 -4.01343,39.72714 -5.95967,59.59669c-4.17927,42.66707 -0.161,85.74248 -0.12407,128.61372c0.01469,17.04933 3.39132,33.93895 4.39921,50.95847c0.50583,8.54157 0.08081,17.11289 0.1053,25.66939c0.01061,3.70622 1.15722,7.59776 0,11.1187c-0.70173,2.13509 -4.13405,2.37897 -5.10276,4.40693c-4.7429,9.9291 -5.67377,18.97715 0,28.90625c3.74807,6.55912 10.64229,8.51995 17.1875,10.15625c6.11363,1.52841 15.34133,0.85271 21.44939,-1.09076c1.03431,-0.3291 5.49929,-4.27108 5.64538,-4.39085c0.04663,-0.03822 0.56128,-0.43146 1.25756,-0.98009c15.54298,13.08075 49.0088,6.96111 62.641,6.85232c14.11528,-0.11264 25,-10.39511 25,-25c0,-2.89043 -0.47977,-5.82748 -1.36462,-8.6294c3.92138,2.12845 8.4446,3.41279 12.90672,3.58057c0.00588,1.68294 0.01236,3.36589 0.01946,5.04883c0.0006,0.14307 0.00195,0.28533 0.00404,0.42679c0.13699,9.27962 3.45639,15.12026 8.57033,18.76838c4.29141,3.64428 9.95333,5.80483 16.42563,5.80483c1.07371,0 2.12511,-0.05946 3.15165,-0.17529c3.91326,0.26127 7.93829,0.25632 11.86336,0.17529c0.48678,-0.01005 0.96972,-0.03158 1.44851,-0.06438c5.10629,0.85513 10.32037,0.7111 14.46976,-0.32624c3.59515,-0.89879 7.74224,-1.09344 10.54688,-3.51562c6.18851,-5.34462 8.14009,-9.12285 10.15625,-17.1875c3.8486,-15.39441 0.78296,-33.16859 0.31282,-48.22785c-0.50705,-16.24158 -1.06772,-27.77076 -1.90653,-37.4803c22.68954,-2.62435 24.85772,-31.19141 23.66772,-54.93755c10.41522,-3.0787 17.30646,-12.42912 17.35566,-23.92121c0.12463,-29.11363 -0.36595,-58.2301 0,-87.3417c0.14746,-11.73045 3.8785,-26.24236 5.66585,-37.67746c3.06757,-19.62566 0.08379,-39.72859 0.34015,-59.59089c0.08367,-6.48225 3.15877,-12.96271 3.15877,-19.4902c0,-13.54827 0.58472,-27.11648 -0.15576,-40.6445c0,-2.26423 -0.30101,-4.45816 -0.86519,-6.54395c-0.07432,-0.32184 -0.15417,-0.64202 -0.23993,-0.96011h838.39793v466.95606z"/><path d=""/><path d="M748.09119,978.19069c-0.95301,-0.57198 -0.90065,-1.52297 -0.43518,-2.63326c0.23869,0.98226 0.53796,1.94969 0.91236,2.89719c-0.16078,-0.08165 -0.31988,-0.16952 -0.47719,-0.26393z"/><path d=""/><path d="M917.40691,552.74024v-24.02402h204.2042v24.02402z"/><path d="M788.27778,232.92042v-28.52853h153.15315v28.52853z"/><path d="M573.48064,230.41291c-0.00359,-9.50951 -0.00923,-19.01902 -0.01665,-28.52853l33.32707,0c-0.04294,9.44135 -0.62129,18.972 -1.38097,28.52853z"/><path d="M682.16667,201.88438v28.52853h-30.58355c0.00507,-9.50951 0.00601,-19.01902 0.00157,-28.52853z"/><path d="M523.55437,201.88438c0.03156,9.50948 0.05604,19.019 0.07199,28.52853h-31.06542c0.39136,-7.6856 1.11063,-15.0662 1.29042,-22.91345c0.04053,-1.76916 1.04019,-3.70489 1.81085,-5.61508z"/><path d="M417.66659,230.41291c-0.027,-9.50961 -0.07001,-19.01913 -0.13304,-28.52853l26.29546,0c-0.09146,2.93386 0.10727,5.81324 0.02234,8.96108c-0.07528,2.79001 -1.43211,5.65426 -1.5015,8.56145c-0.08754,3.66758 0.03357,7.33747 0.01533,11.006z"/><path d="M367.01601,201.88438c-0.06303,9.5094 -0.10604,19.01892 -0.13304,28.52853h-45.75333c-0.01252,-9.50952 -0.02072,-19.01904 -0.0184,-28.52853z"/><path d="M234.16737,230.41291c-0.01726,-9.50957 -0.04481,-19.01908 -0.08488,-28.52853h37.05283c-0.0095,9.50951 -0.01748,19.01902 -0.02282,28.52853z"/><path d="M183.43404,201.88438c-0.04007,9.50945 -0.06763,19.01897 -0.08489,28.52853h-51.64393c0.01647,-9.50973 0.06569,-19.01935 0.14995,-28.52853z"/><path d="M30.51502,230.41291v-28.52853h51.36854c-0.14752,10.66519 -0.42532,19.99615 -0.68752,28.52853z"/></g></g></svg>