<svg version="1.1" xmlns="http://www.w3.org/2000/svg" xmlns:xlink="http://www.w3.org/1999/xlink" width="2445.53859" height="852.7373" viewBox="0,0,2445.53859,852.7373"><g transform="translate(681.10535,-205.75)"><g data-paper-data="{&quot;isPaintingLayer&quot;:true}" fill-rule="nonzero" stroke-linejoin="miter" stroke-miterlimit="10" stroke-dasharray="" stroke-dashoffset="0" style="mix-blend-mode: normal"><path d="M642.5,372.5l-190,-1" fill="none" stroke="#ff0000" stroke-width="9" stroke-linecap="round"/><path d="M276.5,303.5l-278,1l264,7l-299,-7" fill="none" stroke="#ff0000" stroke-width="9" stroke-linecap="round"/><path d="M-679.85535,1057.23728v-466.95605h1585.99079c0.12705,4.18345 0.3542,7.52808 0.36457,9.21877c0.00725,1.18146 0.09755,2.36409 0.25126,3.53553c0.58657,4.47012 1.05392,8.98003 1.49041,13.50226c0.12531,1.93195 0.23395,3.8165 0.25833,5.61498c0.13375,9.86829 -3.35032,29.55581 0.41317,44.89784c0.47079,2.55997 1.33154,4.98344 2.51839,7.20654c1.57836,3.299 3.6961,6.19901 6.51134,8.49389c1.25343,10.27474 1.72687,20.63519 2.65386,30.94631c0.89843,9.99343 3.4679,25.73175 4.0409,30.49441c1.62558,13.51134 -3.67773,39.78088 11.40922,48.40199c4.33302,2.47601 9.46256,3.90625 14.45313,3.90625c28.57516,0 26.44252,-30.25725 24.46105,-51.23352l1.69535,-2.06018l2.80674,-2.73088l0.77708,-1.865l1.4717,-2.82566l0.70876,-1.7719l5.07932,33.37842v2.10871l0.39063,3.90625l2.73438,8.59375l0.36879,0.42702l0.41246,1.52611l3.56326,3.07736l3.07736,3.56326l1.52611,0.41246l0.42702,0.36879l8.59375,2.73438l3.90625,0.39063h1.16941l1.57458,0.569l3.55376,-0.89877l0.6085,-0.06085l1.42541,-0.45354l5.42076,-1.37095l0.79477,-0.60672l0.95281,-0.30317l4.23173,-3.65467l1.18897,-0.90765l0.3988,-0.4636l2.77425,-2.39595l0.43682,-1.61624l5.95023,-8.50032l1.92007,-3.42413l0.09763,-0.31266l0.17893,-0.27436l1.41784,-3.66075l0.91167,-3.29603c7.27283,2.33183 15.73266,0.93325 23.95093,-5.23045c0.75385,-0.56539 1.44001,-1.16726 2.0638,-1.80127c1.35888,15.3187 2.59831,30.64945 4.0837,45.95602c0.36554,3.76674 2.42913,9.62839 4.25829,12.1607c8.73749,12.0963 24.77083,13.76511 36.9632,5.22562c6.18772,-4.33386 7.50796,-11.37886 8.53706,-18.04656c4.036,-26.14995 -4.55561,-57.36962 -7.04691,-80.32592c-6.76305,-62.31874 -9.46129,-77.32111 -18.04651,-130.52554h660.91271v466.95606z" fill="#ffffff" stroke="#000000" stroke-width="2.5" stroke-linecap="butt"/><path d="" fill="#ffffff" stroke="#000000" stroke-width="2.5" stroke-linecap="butt"/><path d="M335,992.5v-444h144v444z" fill="#ffffff" stroke="#000000" stroke-width="2" stroke-linecap="butt"/><path d="M479,958.5v-444h144v444z" fill="#ffffff" stroke="#000000" stroke-width="2" stroke-linecap="butt"/><path d="M622,926.5v-444h144v444z" fill="#ffffff" stroke="#000000" stroke-width="2" stroke-linecap="butt"/><path d="M764,917.02252v-444h144v113.45073c-0.97058,2.66727 -1.5,5.54645 -1.5,8.54927c0,0.51904 0.01582,1.03439 0.047,1.54559c-1.07569,10.73692 -0.0691,21.85139 -0.047,25.45441c0.00725,1.18146 0.09755,2.36409 0.25126,3.53553c0.47992,3.65737 0.88003,7.34137 1.24873,11.03697v18.36763c-0.64637,8.85736 -1.51495,19.9741 0,29.95324v232.10663z" fill="#ffffff" stroke="#000000" stroke-width="2" stroke-linecap="butt"/><path d="M641,382.5v-22h104v22z" fill="#ffffff" stroke="#000000" stroke-width="2" stroke-linecap="butt"/><path d="M377,383.5l-156,-102l260,80v22z" fill="#ffffff" stroke="#000000" stroke-width="2" stroke-linecap="butt"/><path d="M53.75,228.5c0,-12.01219 9.73781,-21.75 21.75,-21.75c12.01219,0 21.75,9.73781 21.75,21.75c0,12.01219 -9.73781,21.75 -21.75,21.75c-12.01219,0 -21.75,-9.73781 -21.75,-21.75z" fill="#ffffff" stroke="#000000" stroke-width="2" stroke-linecap="butt"/></g></g></svg>