<svg version="1.1" xmlns="http://www.w3.org/2000/svg" xmlns:xlink="http://www.w3.org/1999/xlink" width="2129.02252" height="534.52763" viewBox="0,0,2129.02252,534.52763"><g transform="translate(860.05851,-489.29446)"><g data-paper-data="{&quot;isPaintingLayer&quot;:true}" fill-rule="nonzero" stroke-linejoin="miter" stroke-miterlimit="10" stroke-dasharray="" stroke-dashoffset="0" style="mix-blend-mode: normal"><path d="" fill="#00a043" stroke="#00a043" stroke-width="5" stroke-linecap="round"/><path d="" fill="#00a043" stroke="#00a043" stroke-width="5" stroke-linecap="round"/><path d="" fill="#00a043" stroke="#00a043" stroke-width="5" stroke-linecap="round"/><path d="M212.23453,652.01375l-223.54831,0.78807" fill="#00a043" stroke="#00a043" stroke-width="5" stroke-linecap="round"/><path d="" fill="#00a043" stroke="#00a043" stroke-width="5" stroke-linecap="round"/><path d="" fill="#00a043" stroke="#00a043" stroke-width="5" stroke-linecap="round"/><path d="" fill="#00a043" stroke="#00a043" stroke-width="5" stroke-linecap="round"/><path d="" fill="#00a043" stroke="#00a043" stroke-width="5" stroke-linecap="round"/><path d="" fill="#00a043" stroke="#00a043" stroke-width="5" stroke-linecap="round"/><path d="" fill="#00a043" stroke="#00a043" stroke-width="5" stroke-linecap="round"/><path d="" fill="#00a043" stroke="#00a043" stroke-width="5" stroke-linecap="round"/><path d="" fill="#00a043" stroke="#00a043" stroke-width="5" stroke-linecap="round"/><path d="" fill="#00a043" stroke="#00a043" stroke-width="5" stroke-linecap="round"/><path d="" fill="#00a043" stroke="#00a043" stroke-width="5" stroke-linecap="round"/><path d="" fill="#00a043" stroke="#00a043" stroke-width="5" stroke-linecap="round"/><path d="" fill="#00a043" stroke="#00a043" stroke-width="5" stroke-linecap="round"/><path d="" fill="#00a043" stroke="#00a043" stroke-width="5" stroke-linecap="round"/><path d="M825.76434,634.83588l-3.43972,0.01213" fill="#00a043" stroke="#00a043" stroke-width="5" stroke-linecap="round"/><path d="" fill="#00a043" stroke="#00a043" stroke-width="5" stroke-linecap="round"/><path d="" fill="#00a043" stroke="#00a043" stroke-width="5" stroke-linecap="round"/><path d="" fill="#00a043" stroke="#00a043" stroke-width="5" stroke-linecap="round"/><path d="M1266.46401,633.2823l-394.21623,1.38972" fill="#00a043" stroke="#00a043" stroke-width="5" stroke-linecap="round"/><path d="M822.22965,652.47075h139.44832v351.35135h-1801.73648v-351.35135h987.97993" fill="none" stroke="#0c7d00" stroke-width="40" stroke-linecap="butt"/><path d="M205.22223,632.32436c0,0 0.54909,0 1.26367,0.19181c0.40089,0.49828 0.74353,1.02962 0.96772,1.62818c0.24161,0.64508 1.86787,6.89026 3.53422,13.18602c-4.91943,0 -9.5638,0 -13.27312,0c-3.43828,0 -7.08081,0.97929 -10.31304,-0.19309c-1.69644,-0.61532 -2.77082,-2.50214 -4.5045,-3.003c-1.73712,-0.50186 -3.63264,0.3895 -5.4228,0.13498c-3.47652,-0.49429 -6.65282,-2.39086 -10.11661,-2.94489c-4.40153,0 -8.80308,0 -13.20461,0c-3.998,0 -7.99599,0 -11.99399,0c-1.5015,0 -4.50451,0 -6.00601,0c0,0 -4.5,0 -4.5,-4.5c0,-4.5 4.5,-4.5 4.5,-4.5c1.5015,0 3.00301,0 4.5045,0c4.44092,0 8.94886,0 13.4955,0c4.61134,0 9.26795,-0.6066 13.83637,0c12.52652,0 25.12853,0 37.2327,0z" fill="#0c7d00" stroke="none" stroke-width="0.5" stroke-linecap="butt"/><path d="" fill="#0c7d00" stroke="none" stroke-width="0.5" stroke-linecap="butt"/><path d="M189.34825,644.33543c0.27743,0.00062 0.55474,0.00094 0.83194,0.00094c5.51451,0 11.02926,-0.05074 16.54354,0c1.13603,0.01045 2.298,-0.13658 3.43778,-0.13427c0.92449,3.50467 1.93576,7.32988 2.78175,10.43531c-1.49102,-0.78939 -2.71336,-1.4111 -2.74893,-1.42142c-1.11169,-0.32267 -2.31312,0.10773 -3.47062,0.12038c-0.92458,0.01011 -1.84917,0.01682 -2.77378,0.021c1.40958,1.05264 2.71118,2.27918 4.12003,3.333c-0.91379,1.77141 -1.48896,3.81052 -2.29991,5.66322l0.00001,0.00001c0.26169,0.00042 0.52337,0.00068 0.78503,0.00076c1.10741,-0.23581 2.20195,-0.33462 3.27071,-0.10529c1.81382,-0.09257 3.62806,-0.18639 5.41806,-0.00182c1.18239,3.23692 2.56441,6.4301 3.13243,9.79772c-0.77291,-0.20499 -1.56838,-0.41098 -2.39518,-0.57806c-0.81921,0.85593 -1.97305,1.38897 -3.25139,1.38897c-2.95486,0 -8.91273,0 -11.86759,0c-5.41243,0.53535 -11.22399,0.0184 -16.66094,0c-0.27418,0 -0.54835,0 -0.82253,0c-0.77374,0.33111 -1.4047,1.02971 -2.22156,1.25793c-6.26012,1.749 -11.63622,1.79984 -17.97693,1.74507c-2.75649,-0.02381 -4.30313,0.09261 -6.28336,-0.5287c-4.73737,1.20197 -9.38005,2.98099 -14.18783,3.49799c-4.93844,0.53105 -12.76757,0.27804 -17.30602,0.02684c-3.07819,-0.17037 -6.13038,-0.66042 -9.19295,-1.01384c-1.78693,-0.20621 -3.65858,-0.06749 -5.35522,-0.66499c-3.0782,-1.08405 -5.85864,-2.87719 -8.78796,-4.31579l-3.87497,-1.93749c-1.52211,-0.72155 -2.57474,-2.27211 -2.57474,-4.06852c0,-2.48528 2.01472,-4.5 4.5,-4.5h2.72161c2.60301,-0.77833 5.41998,-0.55 8.07462,-1.13213c2.57487,-0.56464 4.73026,-2.39762 7.26288,-3.1288c1.62048,-0.46784 3.26556,-0.83871 4.9186,-1.17859c-0.16546,-0.17783 -0.32531,-0.35999 -0.48009,-0.54608l-0.15408,0.15408l-4.5045,-4.5045c-0.81434,-0.81434 -1.31802,-1.93934 -1.31802,-3.18198c0,-2.48528 2.01472,-4.5 4.5,-4.5c0.41169,0 0.81047,0.05528 1.18931,0.15883l3.18283,0.79571c3.31035,0.82784 6.64804,1.55869 9.99039,2.2714c1.11653,-1.36335 2.91569,-1.66321 2.91569,-1.66321c0.59977,-0.09897 1.20037,-0.1929 1.80174,-0.28201c-0.73888,-1.57417 -1.51891,-3.17681 -0.7149,-4.5088c1.54917,-2.56649 5.12676,-3.18883 7.94114,-4.22132c0.20096,-0.07372 6.13004,-0.05811 6.72683,-0.05811c4.24521,0 8.4881,-0.00813 12.73283,0.05811c2.04982,0.70516 4.2604,1.05225 6.14947,2.11547c1.03576,0.58295 1.30671,2.12146 2.35929,2.67347c0.68647,0.36002 1.56117,-0.40347 2.31482,-0.22216c1.08811,0.26177 1.89908,1.31751 3.003,1.5015c1.97476,0.32913 4.03124,-0.32913 6.00601,0c0.96831,0.16138 1.70628,1.01523 2.61165,1.38018zM145.38641,666.66608c-3.3312,-0.89932 -6.91049,-1.71693 -10.11688,-3.24156c-0.31766,0.09277 -0.63608,0.18269 -0.95538,0.26919c-4.35443,1.1797 -8.87529,1.68723 -13.21709,2.91258c-1.75054,0.49404 -3.34686,1.44616 -4.99385,2.23829c0.36942,0.00394 0.73785,0.01317 1.10004,0.05155c7.9181,0.839 16.40621,1.8191 24.40609,0.99946c1.86371,-0.19095 3.70969,-0.57574 5.54958,-1.04623c-0.91414,-0.51299 -1.6622,-1.11263 -1.76132,-2.07347c-0.00379,-0.03677 -0.00752,-0.07338 -0.01119,-0.10981z" fill="#0c7d00" stroke="none" stroke-width="0.5" stroke-linecap="butt"/><path d="M972.4565,720.90845v-102.1021h226.72673v102.1021z" fill="#0c7d00" stroke="none" stroke-width="0" stroke-linecap="butt"/><path d="M298.16008,612.60889h61.4075" fill="none" stroke="#0d8200" stroke-width="40" stroke-linecap="butt"/><path d="M762.97299,1017.11715v-469.87112c31.9525,1.6307 64.05751,3.24153 96.0961,4.11159v465.75953z" fill="#0d8200" stroke="none" stroke-width="0" stroke-linecap="butt"/><path d="M855.06008,983.07811v-431.83317c19.05012,0.55324 38.07998,0.85529 57.04359,0.75467c39.34957,-0.20879 78.70296,-1.05073 118.05251,-1.28374v432.36224z" fill="#0d8200" stroke="none" stroke-width="0" stroke-linecap="butt"/><path d="M1006.20122,924.00904v-373.08648c28.11709,-0.30653 56.23301,-0.43084 84.34498,0.08016c3.91717,0.0712 7.83421,0.14876 11.75112,0.23237v372.77394z" fill="#0d8200" stroke="none" stroke-width="0" stroke-linecap="butt"/><path d="" fill="#0d8200" stroke="none" stroke-width="0" stroke-linecap="butt"/><path d="M-143.69369,764.79432v-123.12312h355.85586v123.12312z" fill="#0d8200" stroke="#0d8200" stroke-width="40" stroke-linecap="butt"/><path d="M529.56759,607.60889h-61.4075" fill="none" stroke="#0d8200" stroke-width="40" stroke-linecap="butt"/><path d="M662.16009,610.10889h61.4075" fill="none" stroke="#0d8200" stroke-width="40" stroke-linecap="butt"/><path d="M1089.96401,519.5c12.5,0 12.5,12.5 12.5,12.5c0,5 0,13 0,18c0,0 0,12.5 -12.5,12.5c-2.22469,0 -4.05345,-0.39594 -5.55673,-1.04689c-2.09176,0.08041 -3.63095,-0.32633 -3.63095,-0.32633c-1.67298,-0.46774 -3.40004,-0.75691 -5.01893,-1.40322c-0.87782,-0.35045 -1.47675,-1.37128 -2.39832,-1.55795c-1.2468,-0.25254 -2.53376,0.4288 -3.79764,0.30294c-4.44007,-0.44214 -8.8111,-1.49069 -13.24473,-2c-5.43149,-0.62394 -11.76338,0.03145 -17.13668,0.03145c-16.46804,0 -32.93818,0.0754 -49.40594,-0.02415c-1.55312,0.20521 -3.12234,0.26984 -4.69016,0.34047c-3.12905,1.19878 -6.5505,1.77956 -9.97256,1.91787c-0.7903,0.27216 -1.58742,0.51123 -2.40686,0.64499c-3.49258,0.57009 -7.0806,-0.2889 -10.60191,0.02717c-3.51783,0.31575 -6.72466,2.38605 -10.21124,2.97283c-5.50761,0.92691 -11.27958,-0.64965 -16.77491,-0.04059c-0.99179,0.10992 -1.84759,0.87842 -2.83816,1c-5.23811,0.6429 -10.80723,0.16141 -16.08504,0.16141c-8.82982,0 -17.65964,0 -26.48946,0c-5.04561,0 -10.09122,0 -15.13683,0c-2.67956,0 -5.65795,-0.44659 -8.29525,-0.06083c-3.1704,0.46373 -6.28901,1.26205 -9.4399,1.85602c-1.90291,0.35872 -3.7772,0.90554 -5.69693,1.14398c-1.36816,0.16993 -2.8471,-0.8184 -4.12461,-0.27355c-1.30785,0.55778 -2.41177,1.65696 -3.78421,2c-4.30871,1.07697 -9.64384,0.33439 -14.0696,0.33439c-8.10325,0 -15.53061,0.56846 -23.04946,-3.22555c-3.09044,0.45031 -7.01947,0.59498 -10.06451,0.06414c-1.96787,-0.34306 -3.71176,-1.63631 -5.67631,-2c-1.24279,-0.23008 -2.52034,0.16141 -3.78205,0.16141h-2.83816c0,0 -6.45686,0 -9.82835,-5.04318c-6.41393,-0.53157 -11.45362,-5.90566 -11.45362,-12.45682c0,-1.61539 0.30642,-3.15921 0.86431,-4.57651c-2.32259,-5.30036 0.37995,-11.01366 0.37995,-11.01366l11.52324,-8.90983c0.88769,0.15179 1.76986,-0.34572 2.64105,-0.58125c4.36208,-1.17931 8.73629,-2.33397 13.16253,-3.20622c10.64435,-2.09763 21.37316,-2.41483 31.94624,-5.11888c5.40149,-0.01493 10.70448,-1.60899 15.98441,-2.81355c10.7958,-2.46294 20.96807,-4.6414 32.07104,-5.25868c7.15851,-0.39798 14.33679,-0.01596 21.50519,-0.02142c17.52951,-0.01335 34.88355,0.28423 52.39722,1.00593c17.43076,0.71829 35.14469,-0.29573 52.54211,1.02822c7.50423,0.57108 14.92032,2.06234 22.38375,3.06656c12.048,1.62109 24.103,3.19507 36.12422,5.02491c4.13763,0.62982 8.26081,1.37322 12.41064,1.90582c2.11469,0.27141 4.30975,-0.05614 6.37279,0.5049c0.98598,0.26814 4.17056,3.21386 2.24943,1.46365c0,0 3.73533,0 7.00733,2.21905c1.57184,-0.75263 3.52,-1.21905 5.93457,-1.21905z" fill="#0d8200" stroke="none" stroke-width="0.5" stroke-linecap="butt"/><path d="M142.16667,634.58333c-3.75,0 -3.75,-3.75 -3.75,-3.75v-0.33333c0,-3.52081 -0.8735,-10.54982 2.1547,-12.99099c1.83986,-1.48319 4.61886,-1.02555 7.11249,0.03153c0.56375,-2.01227 1.87334,-3.66122 4.77365,-4.38954c1.8045,-0.45314 3.73801,0.26757 5.39402,1.57968c0.56354,-0.19037 1.21916,-0.30109 1.9818,-0.31401c0.64668,-0.01096 1.23177,0.19789 1.76728,0.54712c0.60653,-0.29602 1.246,-0.49122 1.89938,-0.54712c0.61438,-0.05257 1.23018,0.06151 1.83197,0.3067c0.08737,-0.08311 0.17845,-0.16313 0.27348,-0.23983c1.61679,-1.30494 4.20589,-1.02898 6.21352,-0.49392c0.91453,0.24373 1.65931,0.84259 2.35524,1.52592c1.7088,-0.52866 3.7711,0.64581 5.37578,1.99322c1.43171,0.25398 2.96259,0.86452 4.21314,1.68982c1.29999,-1.59161 2.857,-2.43417 4.51746,-2.46414c3.45355,-5.02097 6.61663,-2.31292 10.10307,-0.47701c1.26064,0.66383 2.64557,1.16381 3.83972,1.92914c0.62893,-0.48119 1.41464,-0.76779 2.2672,-0.76989c0.15177,-1.02348 0.49267,-1.95931 1.19432,-2.72797c4.27069,-4.67857 6.84244,-1.22653 8.36764,1.75796c0.05683,-0.03449 0.11469,-0.06753 0.17364,-0.09905c-0.1884,-2.50815 1.12243,-4.5674 5.94666,-5.24888c1.71682,-0.24252 2.77525,2.08277 4.09624,3.20583c2.64808,2.2513 5.11176,5.10632 7.54923,7.54378c0,0 2.65165,2.65165 0,5.3033c-2.07278,2.07278 -4.14557,0.905 -4.95178,0.29635c-0.29328,1.77865 -1.83814,3.13534 -3.69987,3.13534c-0.83938,0 -1.61435,-0.27578 -2.23924,-0.74167l-3.63307,-2.64223l0.00405,-0.00557c-0.00876,-0.00357 -0.01753,-0.00715 -0.02629,-0.01073c-0.04906,-0.02007 -0.09743,-0.04014 -0.14514,-0.06019c-0.42278,1.60787 -1.88639,2.79373 -3.62698,2.79373c-0.39304,0 -0.77196,-0.06047 -1.12796,-0.17261c-0.51311,1.45959 -1.90372,2.50594 -3.53871,2.50594c-0.71874,0 -1.39026,-0.2022 -1.96076,-0.55283c-0.68133,0.94082 -1.78882,1.55283 -3.03924,1.55283c-1.84366,0 -3.37656,-1.33047 -3.69098,-3.08365c-0.45219,0.37911 -1.59719,0.65127 -2.9707,0.83655c-0.5799,0.3676 -1.26759,0.58044 -2.00499,0.58044c-0.12017,0 -0.23901,-0.00565 -0.35628,-0.0167c-0.26472,1.43007 -0.52811,2.64747 -0.63276,3.43414l-4.69313,-3.64179c-0.11917,0.50852 -0.34184,0.97719 -0.64457,1.38258c0.05031,0.24495 0.07674,0.49861 0.07674,0.75844c0,2.07107 -1.67893,3.75 -3.75,3.75c-0.37162,0 -0.73062,-0.05406 -1.06956,-0.15474l-3.5838,-0.9774l0.00005,-0.00017c-1.24658,-0.3606 -2.51505,-0.74485 -3.72242,-1.20126c-1.11054,-0.0123 -2.1052,-0.50734 -2.78401,-1.28516c-1.51046,-0.86962 -2.75602,-1.96906 -3.49163,-3.44153c-0.61797,1.22225 -1.88544,2.06025 -3.34863,2.06025c-0.61382,0 -1.1932,-0.14748 -1.70463,-0.40893c-0.67673,0.66524 -1.60479,1.0756 -2.62871,1.0756c-1.41114,0 -2.64023,-0.77945 -3.28024,-1.9313c-0.42887,0.17075 -0.89669,0.26463 -1.38643,0.26463c-1.48518,0 -2.76871,-0.86339 -3.37605,-2.11562c-0.4267,1.60205 -1.8875,2.78229 -3.62395,2.78229c-1.93054,0 -3.52035,-1.45882 -3.72721,-3.33423l-0.32716,-2.61731l0.2383,-0.02979c-0.1056,-0.09822 -0.21452,-0.19341 -0.32709,-0.28527c-0.2749,-0.2243 -0.61098,-0.36349 -0.95357,-0.49154c0.28114,1.79499 -0.15326,4.46653 -0.15326,5.34147v0.33333c0,0 0,3.75 -3.75,3.75z" fill="#14c700" stroke="none" stroke-width="0.5" stroke-linecap="butt"/><path d="M-2.83333,633.58333c-3.75,0 -3.75,-3.75 -3.75,-3.75v-0.33333c0,-3.52081 -0.8735,-10.54981 2.1547,-12.99099c1.83986,-1.48319 4.61886,-1.02555 7.11249,0.03152c0.56375,-2.01227 1.87333,-3.66122 4.77365,-4.38954c1.8045,-0.45314 3.73801,0.26758 5.39402,1.57968c0.56354,-0.19037 1.21916,-0.30109 1.9818,-0.31401c0.64667,-0.01096 1.23178,0.19789 1.76729,0.54712c0.60654,-0.29602 1.246,-0.49121 1.89938,-0.54712c0.61438,-0.05256 1.23018,0.06151 1.83197,0.3067c0.08737,-0.08311 0.17845,-0.16313 0.27348,-0.23983c1.61678,-1.30494 4.20589,-1.02897 6.21353,-0.49392c0.91453,0.24373 1.65931,0.84259 2.35523,1.52592c1.7088,-0.52867 3.7711,0.64581 5.37579,1.99322c1.4317,0.25398 2.96259,0.86453 4.21313,1.68983c1.29999,-1.59161 2.857,-2.43417 4.51747,-2.46415c3.45355,-5.02097 6.61663,-2.31291 10.10307,-0.47701c1.26064,0.66383 2.64557,1.1638 3.83972,1.92914c0.62893,-0.48119 1.41464,-0.76779 2.2672,-0.76989c0.15177,-1.02348 0.49267,-1.95932 1.19431,-2.72797c4.27069,-4.67857 6.84244,-1.22653 8.36764,1.75796c0.05683,-0.03449 0.1147,-0.06752 0.17364,-0.09905c-0.1884,-2.50815 1.12243,-4.56741 5.94666,-5.24889c1.71682,-0.24252 2.77525,2.08277 4.09624,3.20583c2.64809,2.2513 5.11176,5.10632 7.54923,7.54379c0,0 2.65165,2.65165 0,5.3033c-2.07279,2.07278 -4.14556,0.90499 -4.95178,0.29634c-0.29328,1.77865 -1.83814,3.13533 -3.69987,3.13533c-0.83938,0 -1.61435,-0.27577 -2.23924,-0.74167l-3.63307,-2.64223l0.00405,-0.00557c-0.00877,-0.00357 -0.01753,-0.00715 -0.02629,-0.01073c-0.04906,-0.02007 -0.09743,-0.04014 -0.14514,-0.06019c-0.42278,1.60787 -1.88639,2.79373 -3.62697,2.79373c-0.39304,0 -0.77196,-0.06047 -1.12796,-0.1726c-0.51311,1.45959 -1.90373,2.50594 -3.53872,2.50594c-0.71874,0 -1.39025,-0.20221 -1.96076,-0.55283c-0.68133,0.94082 -1.78881,1.55283 -3.03924,1.55283c-1.84366,0 -3.37657,-1.33047 -3.69098,-3.08366c-0.45219,0.37911 -1.59719,0.65127 -2.9707,0.83655c-0.5799,0.3676 -1.26758,0.58044 -2.00499,0.58044c-0.12016,0 -0.23901,-0.00565 -0.35629,-0.01671c-0.26472,1.43007 -0.52811,2.64748 -0.63276,3.43415l-4.69313,-3.64179c-0.11918,0.50852 -0.34184,0.97719 -0.64457,1.38258c0.05031,0.24495 0.07674,0.49861 0.07674,0.75844c0,2.07107 -1.67893,3.75 -3.75,3.75c-0.37162,0 -0.73062,-0.05406 -1.06956,-0.15474l-3.5838,-0.9774l0.00005,-0.00018c-1.24658,-0.36059 -2.51505,-0.74485 -3.72242,-1.20126c-1.11054,-0.0123 -2.1052,-0.50734 -2.78401,-1.28516c-1.51046,-0.86962 -2.75602,-1.96906 -3.49162,-3.44152c-0.61798,1.22225 -1.88544,2.06025 -3.34863,2.06025c-0.61382,0 -1.1932,-0.14748 -1.70462,-0.40894c-0.67673,0.66524 -1.6048,1.0756 -2.62871,1.0756c-1.41114,0 -2.64024,-0.77945 -3.28024,-1.93129c-0.42888,0.17075 -0.89669,0.26463 -1.38643,0.26463c-1.48519,0 -2.76872,-0.86339 -3.37606,-2.11563c-0.4267,1.60205 -1.8875,2.78229 -3.62394,2.78229c-1.93053,0 -3.52035,-1.45881 -3.72721,-3.33422l-0.32716,-2.61731l0.23829,-0.02979c-0.1056,-0.09822 -0.21452,-0.19342 -0.32709,-0.28527c-0.27489,-0.22429 -0.61098,-0.36349 -0.95357,-0.49154c0.28114,1.79499 -0.15326,4.46654 -0.15326,5.34147v0.33333c0,0 0,3.75 -3.75,3.75z" fill="#14c700" stroke="none" stroke-width="0.5" stroke-linecap="butt"/><path d="M-19.16667,634.25c-3.75,0 -3.75,-3.75 -3.75,-3.75v-0.33333c0,-3.52081 -0.8735,-10.54981 2.1547,-12.99099c1.83986,-1.48319 4.61886,-1.02555 7.11249,0.03152c0.56375,-2.01227 1.87333,-3.66122 4.77365,-4.38954c1.8045,-0.45314 3.73801,0.26758 5.39402,1.57968c0.56354,-0.19037 1.21916,-0.30109 1.9818,-0.31401c0.64667,-0.01096 1.23178,0.19789 1.76729,0.54712c0.60654,-0.29602 1.246,-0.49121 1.89938,-0.54712c0.61438,-0.05256 1.23018,0.06151 1.83197,0.3067c0.08737,-0.08311 0.17845,-0.16313 0.27348,-0.23983c1.61678,-1.30494 4.20589,-1.02897 6.21353,-0.49392c0.91453,0.24373 1.65931,0.84259 2.35523,1.52592c1.7088,-0.52867 3.7711,0.64581 5.37579,1.99322c1.4317,0.25398 2.96259,0.86453 4.21313,1.68983c1.29999,-1.59161 2.857,-2.43417 4.51747,-2.46415c3.45355,-5.02097 6.61663,-2.31291 10.10307,-0.47701c1.26064,0.66383 2.64557,1.1638 3.83972,1.92914c0.62893,-0.48119 1.41464,-0.76779 2.2672,-0.76989c0.15177,-1.02348 0.49267,-1.95932 1.19432,-2.72797c4.27069,-4.67857 6.84244,-1.22653 8.36764,1.75796c0.05683,-0.03449 0.11469,-0.06752 0.17364,-0.09905c-0.1884,-2.50815 1.12243,-4.56741 5.94666,-5.24889c1.71682,-0.24252 2.77525,2.08277 4.09625,3.20583c2.64808,2.2513 5.11176,5.10632 7.54923,7.54379c0,0 2.65165,2.65165 0,5.3033c-2.07278,2.07278 -4.14556,0.90499 -4.95178,0.29634c-0.29328,1.77865 -1.83814,3.13533 -3.69987,3.13533c-0.83938,0 -1.61435,-0.27577 -2.23924,-0.74167l-3.63307,-2.64223l0.00405,-0.00557c-0.00876,-0.00357 -0.01753,-0.00715 -0.02629,-0.01073c-0.04906,-0.02007 -0.09743,-0.04014 -0.14514,-0.06019c-0.42278,1.60787 -1.88639,2.79373 -3.62698,2.79373c-0.39304,0 -0.77195,-0.06047 -1.12795,-0.1726c-0.51312,1.45959 -1.90373,2.50594 -3.53872,2.50594c-0.71874,0 -1.39025,-0.20221 -1.96076,-0.55283c-0.68133,0.94082 -1.78881,1.55283 -3.03924,1.55283c-1.84366,0 -3.37656,-1.33047 -3.69097,-3.08366c-0.45219,0.37911 -1.59719,0.65127 -2.9707,0.83655c-0.5799,0.3676 -1.26758,0.58044 -2.00499,0.58044c-0.12016,0 -0.23901,-0.00565 -0.35628,-0.01671c-0.26472,1.43007 -0.52811,2.64748 -0.63276,3.43415l-4.69313,-3.64179c-0.11918,0.50852 -0.34184,0.97719 -0.64457,1.38258c0.05031,0.24495 0.07674,0.49861 0.07674,0.75844c0,2.07107 -1.67893,3.75 -3.75,3.75c-0.37162,0 -0.73062,-0.05406 -1.06956,-0.15474l-3.5838,-0.9774l0.00005,-0.00018c-1.24658,-0.36059 -2.51505,-0.74485 -3.72242,-1.20126c-1.11054,-0.0123 -2.1052,-0.50734 -2.78401,-1.28516c-1.51046,-0.86962 -2.75602,-1.96906 -3.49162,-3.44152c-0.61798,1.22225 -1.88544,2.06025 -3.34863,2.06025c-0.61382,0 -1.1932,-0.14748 -1.70462,-0.40894c-0.67673,0.66524 -1.6048,1.0756 -2.62871,1.0756c-1.41114,0 -2.64024,-0.77945 -3.28024,-1.93129c-0.42888,0.17075 -0.89669,0.26463 -1.38643,0.26463c-1.48519,0 -2.76872,-0.86339 -3.37606,-2.11563c-0.4267,1.60205 -1.8875,2.78229 -3.62394,2.78229c-1.93053,0 -3.52035,-1.45881 -3.72721,-3.33422l-0.32716,-2.61731l0.23829,-0.02979c-0.1056,-0.09822 -0.21452,-0.19342 -0.32709,-0.28527c-0.27489,-0.22429 -0.61098,-0.36349 -0.95357,-0.49154c0.28114,1.79499 -0.15326,4.46654 -0.15326,5.34147v0.33333c0,0 0,3.75 -3.75,3.75z" fill="#14c700" stroke="none" stroke-width="0.5" stroke-linecap="butt"/><path d="M66.5,634.25c-3.75,0 -3.75,-3.75 -3.75,-3.75v-0.33333c0,-3.52081 -0.8735,-10.54981 2.1547,-12.99099c1.83986,-1.48319 4.61887,-1.02555 7.1125,0.03152c0.56375,-2.01227 1.87333,-3.66122 4.77365,-4.38954c1.8045,-0.45314 3.73802,0.26758 5.39402,1.57968c0.56354,-0.19037 1.21915,-0.30109 1.98179,-0.31401c0.64668,-0.01096 1.23177,0.19789 1.76729,0.54712c0.60653,-0.29602 1.246,-0.49121 1.89939,-0.54712c0.61438,-0.05256 1.23018,0.06151 1.83197,0.3067c0.08737,-0.08311 0.17845,-0.16313 0.27348,-0.23983c1.61678,-1.30494 4.20589,-1.02897 6.21353,-0.49392c0.91453,0.24373 1.65931,0.84259 2.35523,1.52592c1.70879,-0.52867 3.7711,0.64581 5.37579,1.99322c1.4317,0.25398 2.96259,0.86453 4.21313,1.68983c1.29999,-1.59161 2.857,-2.43417 4.51747,-2.46415c3.45355,-5.02097 6.61663,-2.31291 10.10308,-0.47701c1.26064,0.66383 2.64557,1.1638 3.83971,1.92914c0.62893,-0.48119 1.41464,-0.76779 2.26721,-0.76989c0.15177,-1.02348 0.49267,-1.95932 1.19431,-2.72797c4.27069,-4.67857 6.84244,-1.22653 8.36764,1.75796c0.05683,-0.03449 0.1147,-0.06752 0.17364,-0.09905c-0.1884,-2.50815 1.12243,-4.56741 5.94666,-5.24889c1.71682,-0.24252 2.77525,2.08277 4.09624,3.20583c2.64809,2.2513 5.11176,5.10632 7.54923,7.54379c0,0 2.65165,2.65165 0,5.3033c-2.07279,2.07278 -4.14556,0.90499 -4.95178,0.29634c-0.29328,1.77865 -1.83814,3.13533 -3.69987,3.13533c-0.83938,0 -1.61435,-0.27577 -2.23924,-0.74167l-3.63307,-2.64223l0.00405,-0.00557c-0.00877,-0.00357 -0.01753,-0.00715 -0.02629,-0.01073c-0.04906,-0.02007 -0.09743,-0.04014 -0.14514,-0.06019c-0.42278,1.60787 -1.88639,2.79373 -3.62697,2.79373c-0.39304,0 -0.77196,-0.06047 -1.12796,-0.1726c-0.51311,1.45959 -1.90373,2.50594 -3.53871,2.50594c-0.71874,0 -1.39025,-0.20221 -1.96076,-0.55283c-0.68134,0.94082 -1.78881,1.55283 -3.03924,1.55283c-1.84365,0 -3.37656,-1.33047 -3.69097,-3.08366c-0.45219,0.37911 -1.59719,0.65127 -2.9707,0.83655c-0.5799,0.3676 -1.26759,0.58044 -2.00499,0.58044c-0.12017,0 -0.23901,-0.00565 -0.35628,-0.01671c-0.26472,1.43007 -0.52811,2.64748 -0.63276,3.43415l-4.69312,-3.64179c-0.11917,0.50852 -0.34184,0.97719 -0.64457,1.38258c0.05031,0.24495 0.07673,0.49861 0.07673,0.75844c0,2.07107 -1.67893,3.75 -3.75,3.75c-0.37162,0 -0.73062,-0.05406 -1.06955,-0.15474l-3.5838,-0.9774l0.00005,-0.00018c-1.24658,-0.36059 -2.51505,-0.74485 -3.72243,-1.20126c-1.11054,-0.0123 -2.10519,-0.50734 -2.78401,-1.28516c-1.51045,-0.86962 -2.75602,-1.96906 -3.49162,-3.44152c-0.61798,1.22225 -1.88544,2.06025 -3.34863,2.06025c-0.61382,0 -1.19319,-0.14748 -1.70462,-0.40894c-0.67673,0.66524 -1.6048,1.0756 -2.62871,1.0756c-1.41114,0 -2.64023,-0.77945 -3.28023,-1.93129c-0.42888,0.17075 -0.89669,0.26463 -1.38643,0.26463c-1.48519,0 -2.76871,-0.86339 -3.37605,-2.11563c-0.4267,1.60205 -1.8875,2.78229 -3.62395,2.78229c-1.93054,0 -3.52035,-1.45881 -3.72721,-3.33422l-0.32716,-2.61731l0.23829,-0.02979c-0.1056,-0.09822 -0.21451,-0.19342 -0.32709,-0.28527c-0.2749,-0.22429 -0.61098,-0.36349 -0.95357,-0.49154c0.28114,1.79499 -0.15326,4.46654 -0.15326,5.34147v0.33333c0,0 0,3.75 -3.75,3.75z" fill="#14c700" stroke="none" stroke-width="0.5" stroke-linecap="butt"/><path d="M-79.16667,632.25c-3.75,0 -3.75,-3.75 -3.75,-3.75v-0.33334c0,-3.52081 -0.87349,-10.54981 2.15471,-12.99099c1.83986,-1.48319 4.61886,-1.02555 7.11249,0.03153c0.56375,-2.01227 1.87333,-3.66122 4.77365,-4.38954c1.8045,-0.45314 3.73801,0.26758 5.39402,1.57968c0.56354,-0.19037 1.21916,-0.30109 1.9818,-0.31401c0.64667,-0.01096 1.23177,0.1979 1.76728,0.54713c0.60654,-0.29602 1.246,-0.49122 1.89938,-0.54713c0.61438,-0.05256 1.23018,0.06151 1.83197,0.3067c0.08737,-0.08311 0.17845,-0.16312 0.27348,-0.23982c1.61678,-1.30494 4.20589,-1.02897 6.21353,-0.49392c0.91453,0.24373 1.65932,0.84259 2.35524,1.52592c1.7088,-0.52867 3.7711,0.6458 5.37579,1.99322c1.4317,0.25398 2.96259,0.86453 4.21313,1.68983c1.29999,-1.59161 2.857,-2.43417 4.51746,-2.46414c3.45355,-5.02097 6.61663,-2.31292 10.10308,-0.47701c1.26064,0.66383 2.64556,1.1638 3.83972,1.92914c0.62893,-0.48119 1.41464,-0.76779 2.2672,-0.76988c0.15177,-1.02348 0.49267,-1.95932 1.19431,-2.72798c4.27069,-4.67857 6.84245,-1.22653 8.36764,1.75797c0.05683,-0.03449 0.11469,-0.06753 0.17363,-0.09906c-0.1884,-2.50815 1.12243,-4.5674 5.94666,-5.24888c1.71682,-0.24252 2.77525,2.08277 4.09624,3.20583c2.64809,2.2513 5.11176,5.10631 7.54923,7.54378c0,0 2.65165,2.65165 0,5.3033c-2.07279,2.07278 -4.14556,0.90499 -4.95178,0.29634c-0.29328,1.77865 -1.83814,3.13534 -3.69987,3.13534c-0.83938,0 -1.61435,-0.27578 -2.23924,-0.74167l-3.63307,-2.64224l0.00405,-0.00557c-0.00877,-0.00357 -0.01753,-0.00714 -0.02629,-0.01073c-0.04906,-0.02007 -0.09744,-0.04014 -0.14515,-0.0602c-0.42278,1.60787 -1.88639,2.79373 -3.62697,2.79373c-0.39304,0 -0.77195,-0.06047 -1.12795,-0.1726c-0.51312,1.45959 -1.90372,2.50594 -3.53871,2.50594c-0.71874,0 -1.39025,-0.2022 -1.96076,-0.55283c-0.68133,0.94082 -1.78881,1.55283 -3.03924,1.55283c-1.84366,0 -3.37656,-1.33047 -3.69097,-3.08365c-0.45219,0.37911 -1.59719,0.65127 -2.9707,0.83655c-0.5799,0.3676 -1.26759,0.58044 -2.005,0.58044c-0.12016,0 -0.239,-0.00565 -0.35628,-0.01671c-0.26472,1.43007 -0.52812,2.64747 -0.63277,3.43414l-4.69312,-3.64179c-0.11918,0.50852 -0.34184,0.97719 -0.64457,1.38258c0.05031,0.24495 0.07673,0.4986 0.07673,0.75844c0,2.07107 -1.67893,3.75 -3.75,3.75c-0.37162,0 -0.73062,-0.05405 -1.06956,-0.15473l-3.5838,-0.9774l0.00005,-0.00017c-1.24658,-0.36059 -2.51504,-0.74486 -3.72242,-1.20127c-1.11054,-0.0123 -2.1052,-0.50734 -2.78401,-1.28516c-1.51046,-0.86962 -2.75602,-1.96906 -3.49162,-3.44152c-0.61798,1.22225 -1.88544,2.06025 -3.34863,2.06025c-0.61382,0 -1.1932,-0.14748 -1.70462,-0.40894c-0.67673,0.66524 -1.60479,1.0756 -2.6287,1.0756c-1.41114,0 -2.64024,-0.77945 -3.28024,-1.93129c-0.42888,0.17075 -0.89669,0.26463 -1.38643,0.26463c-1.48519,0 -2.76871,-0.86338 -3.37605,-2.11562c-0.4267,1.60205 -1.8875,2.78229 -3.62395,2.78229c-1.93053,0 -3.52035,-1.45881 -3.72721,-3.33422l-0.32717,-2.61731l0.23829,-0.02979c-0.1056,-0.09822 -0.21452,-0.19341 -0.32709,-0.28527c-0.27489,-0.22429 -0.61097,-0.36349 -0.95356,-0.49154c0.28114,1.79499 -0.15327,4.46653 -0.15327,5.34146v0.33334c0,0 0,3.75 -3.75,3.75z" fill="#14c700" stroke="none" stroke-width="0.5" stroke-linecap="butt"/><path d="M662.64086,600.5443c-2.73919,0 -2.73919,-3.75 -2.73919,-3.75v-0.33334c0,-3.52081 -0.63805,-10.54982 1.57391,-12.99099c1.34392,-1.48319 3.37385,-1.02555 5.19533,0.03153c0.41179,-2.01227 1.36838,-3.66122 3.48692,-4.38954c1.31809,-0.45314 2.73043,0.26758 3.94007,1.57968c0.41164,-0.19037 0.89054,-0.30109 1.44761,-0.31401c0.47236,-0.01096 0.89975,0.1979 1.29091,0.54713c0.44304,-0.29602 0.91014,-0.49122 1.3874,-0.54713c0.44877,-0.05256 0.89859,0.06151 1.33816,0.3067c0.06382,-0.08311 0.13035,-0.16312 0.19976,-0.23982c1.18098,-1.30494 3.0722,-1.02897 4.53867,-0.49392c0.66802,0.24373 1.21205,0.84259 1.72039,1.52592c1.24819,-0.52867 2.7546,0.6458 3.92675,1.99322c1.04579,0.25398 2.16403,0.86453 3.07749,1.68983c0.94958,-1.59161 2.08689,-2.43417 3.29978,-2.46414c2.52265,-5.02097 4.83312,-2.31292 7.3798,-0.47701c0.92084,0.66383 1.93245,1.1638 2.80472,1.92914c0.4594,-0.48119 1.03332,-0.76779 1.65608,-0.76988c0.11086,-1.02348 0.35987,-1.95932 0.87239,-2.72798c3.11953,-4.67857 4.99807,-1.22653 6.11215,1.75797c0.04151,-0.03449 0.08378,-0.06753 0.12683,-0.09906c-0.13762,-2.50815 0.81988,-4.5674 4.34374,-5.24888c1.25405,-0.24252 2.02718,2.08277 2.99211,3.20583c1.9343,2.2513 3.73389,5.10631 5.51434,7.54378c0,0 1.9369,2.65165 0,5.3033c-1.51407,2.07279 -3.02813,0.905 -3.61703,0.29634c-0.21423,1.77866 -1.34267,3.13534 -2.70257,3.13534c-0.61313,0 -1.1792,-0.27578 -1.63565,-0.74168l-2.65378,-2.64224l0.00296,-0.00556c-0.0064,-0.00357 -0.0128,-0.00715 -0.0192,-0.01073c-0.03583,-0.02007 -0.07117,-0.04014 -0.10602,-0.0602c-0.30882,1.60787 -1.37791,2.79373 -2.64933,2.79373c-0.2871,0 -0.56388,-0.06047 -0.82392,-0.1726c-0.37481,1.45959 -1.39057,2.50594 -2.58485,2.50594c-0.525,0 -1.01551,-0.20221 -1.43224,-0.55283c-0.49768,0.94082 -1.30664,1.55283 -2.22002,1.55283c-1.3467,0 -2.46641,-1.33047 -2.69608,-3.08365c-0.3303,0.37911 -1.16667,0.65127 -2.16995,0.83654c-0.42359,0.3676 -0.92591,0.58044 -1.46455,0.58044c-0.08777,0 -0.17458,-0.00565 -0.26024,-0.01671c-0.19336,1.43007 -0.38576,2.64747 -0.4622,3.43414l-3.4281,-3.64179c-0.08705,0.50852 -0.2497,0.97719 -0.47082,1.38258c0.03675,0.24495 0.05605,0.4986 0.05605,0.75844c0,2.07107 -1.22638,3.75 -2.73919,3.75c-0.27145,0 -0.53368,-0.05405 -0.78126,-0.15473l-2.61779,-0.9774l0.00003,-0.00017c-0.91057,-0.36059 -1.83712,-0.74485 -2.71904,-1.20126c-0.81119,-0.0123 -1.53774,-0.50734 -2.03359,-1.28516c-1.10331,-0.86962 -2.01314,-1.96906 -2.55046,-3.44152c-0.4514,1.22224 -1.37722,2.06025 -2.44601,2.06025c-0.44837,0 -0.87157,-0.14748 -1.24514,-0.40894c-0.49431,0.66524 -1.17222,1.0756 -1.92014,1.0756c-1.03077,0 -1.92857,-0.77945 -2.39605,-1.9313c-0.31327,0.17075 -0.65499,0.26463 -1.01272,0.26463c-1.08485,0 -2.02241,-0.86339 -2.46604,-2.11562c-0.31169,1.60205 -1.37873,2.78229 -2.64712,2.78229c-1.41016,0 -2.57144,-1.45881 -2.72254,-3.33423l-0.23898,-2.61731l0.17406,-0.02978c-0.07714,-0.09822 -0.15669,-0.19341 -0.23892,-0.28527c-0.2008,-0.22429 -0.44629,-0.36349 -0.69653,-0.49154c0.20536,1.79499 -0.11195,4.46653 -0.11195,5.34147v0.33334c0,0 0,3.75 -2.73919,3.75z" fill="#14c700" stroke="none" stroke-width="0.5" stroke-linecap="butt"/><path d="M773.78427,690.10438c0.00968,3.74999 -3.74031,3.75967 -3.74031,3.75967l-0.33333,0.00086c-3.5208,0.00909 -10.54753,0.90073 -12.99651,-2.12116c-1.48793,-1.83602 -1.03747,-4.6162 0.01316,-7.11255c-2.01372,-0.55855 -3.66604,-1.86388 -4.40185,-4.7623c-0.4578,-1.80332 0.25792,-3.73869 1.56575,-5.39808c-0.19182,-0.56305 -0.30423,-1.21837 -0.31912,-1.98098c-0.01263,-0.64664 0.19471,-1.23228 0.54256,-1.76869c-0.29759,-0.60577 -0.49443,-1.24473 -0.55202,-1.89797c-0.05415,-0.61424 0.05834,-1.23033 0.30197,-1.83276c-0.08334,-0.08715 -0.16359,-0.17803 -0.24054,-0.27286c-1.30911,-1.61341 -1.03982,-4.20322 -0.50996,-6.21223c0.24137,-0.91516 0.8383,-1.66148 1.51983,-2.35917c-0.53307,-1.70742 0.63607,-3.77275 1.97934,-5.38091c0.25028,-1.43236 0.85687,-2.96481 1.67894,-4.21748c-1.59496,-1.29588 -2.44154,-2.85071 -2.4758,-4.51109c-5.02987,-3.44058 -2.32999,-6.61064 -0.50309,-10.10181c0.66058,-1.26235 1.15697,-2.64856 1.91922,-3.84468c-0.48281,-0.62769 -0.77144,-1.41265 -0.77574,-2.26521c-1.02387,-0.14913 -1.96058,-0.48761 -2.73104,-1.18727c-4.68958,-4.2586 -1.24419,-6.83925 1.73635,-8.37215c-0.03464,-0.05674 -0.06782,-0.11452 -0.0995,-0.17338c-2.50766,0.19487 -4.57029,-1.11063 -5.26422,-5.93309c-0.24695,-1.71619 2.0756,-2.78062 3.19525,-4.10451c2.24445,-2.65389 5.0931,-5.12492 7.52427,-7.56868c0,0 2.6448,-2.65849 5.30328,-0.01369c2.07813,2.06743 0.91569,4.14322 0.30913,4.951c1.77941,0.28869 3.14007,1.83004 3.14488,3.69176c0.00217,0.83938 -0.27161,1.61506 -0.73589,2.24115l-2.63285,3.63988l-0.00558,-0.00404c-0.00355,0.00877 -0.0071,0.01755 -0.01067,0.02632c-0.01994,0.04911 -0.03988,0.09753 -0.05982,0.14529c1.60896,0.41863 2.79859,1.87917 2.80308,3.61975c0.00101,0.39304 -0.05847,0.77211 -0.16969,1.1284c1.46091,0.50935 2.51085,1.89725 2.51507,3.53223c0.00186,0.71874 -0.19862,1.39077 -0.54777,1.96218c0.94258,0.6789 1.55744,1.7848 1.56067,3.03522c0.00476,1.84365 -1.32175,3.37999 -3.07412,3.69892c0.38028,0.45121 0.65539,1.59551 0.84421,2.96853c0.3691,0.57895 0.58371,1.26608 0.58561,2.00348c0.00031,0.12016 -0.00503,0.23902 -0.01579,0.35633c1.43075,0.26103 2.64883,0.52127 3.43577,0.62389l-3.62966,4.70251c0.50883,0.11786 0.97807,0.33932 1.38424,0.64099c0.24481,-0.05094 0.49841,-0.07802 0.75824,-0.07869c2.07106,-0.00535 3.75432,1.66924 3.75967,3.74031c0.00096,0.37162 -0.05217,0.73076 -0.15197,1.06995l-0.96815,3.58631l-0.00018,-0.00004c-0.35738,1.24751 -0.73836,2.51696 -1.19165,3.72551c-0.00944,1.11057 -0.5019,2.1065 -1.27796,2.78732c-0.86572,1.51269 -1.96194,2.76109 -3.4325,3.5005c1.22384,0.61482 2.06511,1.88012 2.06889,3.3433c0.00158,0.61382 -0.1444,1.19357 -0.40453,1.70567c0.66698,0.67501 1.07974,1.60201 1.08238,2.62592c0.00364,1.41114 -0.77263,2.64224 -1.92282,3.28521c0.17186,0.42843 0.26694,0.896 0.26821,1.38574c0.00383,1.48518 -0.85624,2.77093 -2.1069,3.3815c1.60315,0.42257 2.78715,1.88031 2.79164,3.61675c0.00498,1.93053 -1.44972,3.5241 -3.32459,3.7358l-2.61646,0.33392l-0.03041,-0.23822c-0.09795,0.10585 -0.19286,0.21501 -0.28442,0.32783c-0.22358,0.27547 -0.36192,0.61192 -0.48908,0.95484c1.79426,-0.28577 4.46692,0.14173 5.34185,0.13947l0.33333,-0.00086c0,0 3.74999,-0.00968 3.75967,3.74031z" fill="#14c700" stroke="none" stroke-width="0.5" stroke-linecap="butt"/><path d="M469.65337,600.21096c-2.62027,0 -2.62027,-3.75 -2.62027,-3.75v-0.33333c0,-3.52081 -0.61035,-10.54981 1.50557,-12.99099c1.28558,-1.48319 3.22738,-1.02555 4.96978,0.03152c0.39391,-2.01227 1.30897,-3.66122 3.33554,-4.38954c1.26087,-0.45314 2.6119,0.26757 3.76902,1.57968c0.39377,-0.19037 0.85187,-0.30108 1.38476,-0.31401c0.45186,-0.01096 0.86069,0.19789 1.23487,0.54712c0.42381,-0.29602 0.87063,-0.49121 1.32717,-0.54712c0.42929,-0.05256 0.85957,0.06151 1.28007,0.3067c0.06105,-0.08311 0.12469,-0.16313 0.19109,-0.23983c1.12971,-1.30494 2.93882,-1.02897 4.34163,-0.49392c0.63902,0.24373 1.15942,0.84258 1.64569,1.52591c1.194,-0.52867 2.63501,0.64581 3.75627,1.99323c1.00039,0.25398 2.07008,0.86452 2.94388,1.68982c0.90835,-1.59161 1.9963,-2.43417 3.15653,-2.46414c2.41313,-5.02097 4.6233,-2.31292 7.05941,-0.47701c0.88086,0.66383 1.84856,1.16381 2.68296,1.92914c0.43946,-0.48119 0.98846,-0.76779 1.58418,-0.76989c0.10605,-1.02348 0.34425,-1.95932 0.83451,-2.72797c2.9841,-4.67857 4.78108,-1.22653 5.84679,1.75796c0.03971,-0.03449 0.08014,-0.06753 0.12133,-0.09905c-0.13164,-2.50815 0.78428,-4.56741 4.15516,-5.24888c1.19961,-0.24252 1.93918,2.08277 2.86221,3.20583c1.85032,2.2513 3.57179,5.10632 5.27494,7.54379c0,0 1.85281,2.65165 0,5.3033c-1.44834,2.07278 -2.89667,0.90499 -3.46,0.29634c-0.20493,1.77865 -1.28438,3.13533 -2.58524,3.13533c-0.58651,0 -1.12801,-0.27577 -1.56464,-0.74167l-2.53857,-2.64224l0.00283,-0.00556c-0.00612,-0.00357 -0.01225,-0.00715 -0.01837,-0.01074c-0.03428,-0.02007 -0.06808,-0.04013 -0.10141,-0.06019c-0.29541,1.60787 -1.31809,2.79373 -2.53431,2.79373c-0.27463,0 -0.5394,-0.06047 -0.78815,-0.1726c-0.35853,1.45959 -1.33021,2.50594 -2.47264,2.50594c-0.50221,0 -0.97143,-0.20221 -1.37006,-0.55283c-0.47608,0.94082 -1.24991,1.55283 -2.12364,1.55283c-1.28823,0 -2.35934,-1.33047 -2.57903,-3.08365c-0.31596,0.37911 -1.11602,0.65127 -2.07574,0.83654c-0.4052,0.3676 -0.88571,0.58044 -1.40096,0.58044c-0.08396,0 -0.16701,-0.00565 -0.24895,-0.01671c-0.18497,1.43007 -0.36901,2.64748 -0.44213,3.43415l-3.27927,-3.64179c-0.08327,0.50852 -0.23886,0.97719 -0.45038,1.38258c0.03515,0.24495 0.05362,0.4986 0.05362,0.75844c0,2.07107 -1.17313,3.75 -2.62027,3.75c-0.25967,0 -0.51051,-0.05406 -0.74734,-0.15474l-2.50414,-0.9774l0.00003,-0.00017c-0.87103,-0.3606 -1.75736,-0.74485 -2.601,-1.20126c-0.77598,-0.0123 -1.47098,-0.50734 -1.9453,-1.28516c-1.05541,-0.86962 -1.92574,-1.96906 -2.43973,-3.44152c-0.4318,1.22224 -1.31743,2.06025 -2.33982,2.06025c-0.4289,0 -0.83373,-0.14748 -1.19109,-0.40893c-0.47285,0.66523 -1.12133,1.0756 -1.83678,1.0756c-0.98602,0 -1.84484,-0.77944 -2.29203,-1.93129c-0.29967,0.17075 -0.62655,0.26463 -0.96875,0.26463c-1.03776,0 -1.93461,-0.86339 -2.35898,-2.11562c-0.29816,1.60205 -1.31887,2.78229 -2.53219,2.78229c-1.34894,0 -2.45981,-1.45881 -2.60435,-3.33423l-0.2286,-2.61731l0.16651,-0.02979c-0.07379,-0.09822 -0.14989,-0.19341 -0.22855,-0.28527c-0.19208,-0.22429 -0.42692,-0.36349 -0.6663,-0.49154c0.19644,1.79499 -0.10709,4.46653 -0.10709,5.34147v0.33333c0,0 0,3.75 -2.62027,3.75z" fill="#14c700" stroke="none" stroke-width="0.5" stroke-linecap="butt"/><path d="M774.27196,620.76956c0.00968,3.74999 -3.74031,3.75967 -3.74031,3.75967l-0.33333,0.00086c-3.5208,0.00909 -10.54753,0.90073 -12.99651,-2.12116c-1.48793,-1.83602 -1.03747,-4.6162 0.01316,-7.11255c-2.01372,-0.55855 -3.66604,-1.86388 -4.40185,-4.7623c-0.4578,-1.80332 0.25792,-3.73869 1.56575,-5.39808c-0.19182,-0.56305 -0.30423,-1.21837 -0.31912,-1.98098c-0.01263,-0.64664 0.19471,-1.23228 0.54256,-1.76869c-0.29759,-0.60577 -0.49443,-1.24473 -0.55202,-1.89797c-0.05415,-0.61424 0.05834,-1.23033 0.30197,-1.83276c-0.08334,-0.08715 -0.16359,-0.17803 -0.24054,-0.27286c-1.30911,-1.61341 -1.03982,-4.20322 -0.50996,-6.21223c0.24137,-0.91516 0.8383,-1.66148 1.51983,-2.35917c-0.53307,-1.70742 0.63607,-3.77275 1.97934,-5.38091c0.25028,-1.43236 0.85687,-2.96481 1.67894,-4.21748c-1.59496,-1.29588 -2.44154,-2.85071 -2.4758,-4.51109c-5.02987,-3.44058 -2.32999,-6.61064 -0.50309,-10.10181c0.66058,-1.26235 1.15697,-2.64856 1.91922,-3.84468c-0.48281,-0.62769 -0.77144,-1.41265 -0.77574,-2.26521c-1.02387,-0.14913 -1.96058,-0.48761 -2.73104,-1.18727c-4.68958,-4.2586 -1.24419,-6.83925 1.73635,-8.37215c-0.03464,-0.05674 -0.06782,-0.11452 -0.0995,-0.17338c-2.50766,0.19487 -4.57029,-1.11063 -5.26422,-5.93309c-0.24695,-1.71619 2.0756,-2.78062 3.19525,-4.10451c2.24445,-2.65389 5.0931,-5.12492 7.52427,-7.56868c0,0 2.6448,-2.65849 5.30328,-0.01369c2.07813,2.06743 0.91569,4.14322 0.30913,4.951c1.77941,0.28869 3.14007,1.83004 3.14488,3.69176c0.00217,0.83938 -0.27161,1.61506 -0.73589,2.24115l-2.63285,3.63988l-0.00558,-0.00404c-0.00355,0.00877 -0.0071,0.01755 -0.01067,0.02632c-0.01994,0.04911 -0.03988,0.09753 -0.05982,0.14529c1.60896,0.41863 2.79859,1.87917 2.80308,3.61975c0.00101,0.39304 -0.05847,0.77211 -0.16969,1.1284c1.46091,0.50935 2.51085,1.89725 2.51507,3.53223c0.00186,0.71874 -0.19862,1.39077 -0.54777,1.96218c0.94258,0.6789 1.55744,1.7848 1.56067,3.03522c0.00476,1.84365 -1.32175,3.37999 -3.07412,3.69892c0.38028,0.45121 0.65539,1.59551 0.84421,2.96853c0.3691,0.57895 0.58371,1.26608 0.58561,2.00348c0.00031,0.12016 -0.00503,0.23902 -0.01579,0.35633c1.43075,0.26103 2.64883,0.52127 3.43577,0.62389l-3.62966,4.70251c0.50883,0.11786 0.97807,0.33932 1.38424,0.64099c0.24481,-0.05094 0.49841,-0.07802 0.75824,-0.07869c2.07106,-0.00535 3.75432,1.66924 3.75967,3.74031c0.00096,0.37162 -0.05217,0.73076 -0.15197,1.06995l-0.96815,3.58631l-0.00018,-0.00004c-0.35738,1.24751 -0.73836,2.51696 -1.19165,3.72551c-0.00944,1.11057 -0.5019,2.1065 -1.27796,2.78732c-0.86572,1.51269 -1.96194,2.76109 -3.4325,3.5005c1.22384,0.61482 2.06511,1.88012 2.06889,3.3433c0.00158,0.61382 -0.1444,1.19357 -0.40453,1.70567c0.66698,0.67501 1.07974,1.60201 1.08238,2.62592c0.00364,1.41114 -0.77263,2.64224 -1.92282,3.28521c0.17186,0.42843 0.26694,0.896 0.26821,1.38574c0.00383,1.48518 -0.85624,2.77093 -2.1069,3.3815c1.60315,0.42257 2.78715,1.88031 2.79164,3.61675c0.00498,1.93053 -1.44972,3.5241 -3.32459,3.7358l-2.61646,0.33392l-0.03041,-0.23822c-0.09795,0.10585 -0.19286,0.21501 -0.28442,0.32783c-0.22358,0.27547 -0.36192,0.61192 -0.48908,0.95484c1.79426,-0.28577 4.46692,0.14173 5.34185,0.13947l0.33333,-0.00086c0,0 3.74999,-0.00968 3.75967,3.74031z" fill="#14c700" stroke="none" stroke-width="0.5" stroke-linecap="butt"/><path d="M301.42263,602.71547c-2.50135,0 -2.50135,-3.75 -2.50135,-3.75v-0.33334c0,-3.52081 -0.58265,-10.54981 1.43725,-12.99099c1.22723,-1.48319 3.08091,-1.02554 4.74423,0.03153c0.37604,-2.01227 1.24957,-3.66122 3.18416,-4.38954c1.20365,-0.45314 2.49336,0.26757 3.59796,1.57968c0.3759,-0.19037 0.81321,-0.30108 1.32191,-0.31401c0.43135,-0.01096 0.82163,0.1979 1.17883,0.54712c0.40458,-0.29602 0.83111,-0.49122 1.26694,-0.54712c0.40981,-0.05256 0.82056,0.06151 1.22197,0.3067c0.05827,-0.08311 0.11903,-0.16312 0.18242,-0.23982c1.07844,-1.30494 2.80544,-1.02897 4.14459,-0.49392c0.61002,0.24373 1.10681,0.84259 1.57101,1.52592c1.13981,-0.52867 2.51543,0.64581 3.5858,1.99322c0.95499,0.25398 1.97613,0.86452 2.81028,1.68982c0.86713,-1.59161 1.90569,-2.43417 3.01327,-2.46414c2.30361,-5.02097 4.41347,-2.31292 6.73903,-0.47702c0.84088,0.66383 1.76466,1.16381 2.5612,1.92914c0.41951,-0.48119 0.9436,-0.76779 1.51229,-0.76989c0.10123,-1.02348 0.32862,-1.95932 0.79664,-2.72798c2.84867,-4.67857 4.5641,-1.22653 5.58145,1.75797c0.03791,-0.03449 0.0765,-0.06753 0.11582,-0.09906c-0.12567,-2.50815 0.74869,-4.5674 3.96659,-5.24888c1.14517,-0.24252 1.85117,2.08277 2.73231,3.20583c1.76635,2.2513 3.40968,5.10631 5.03554,7.54378c0,0 1.76872,2.65165 0,5.3033c-1.3826,2.07278 -2.76521,0.90499 -3.30297,0.29634c-0.19563,1.77865 -1.22609,3.13534 -2.46791,3.13534c-0.55989,0 -1.07682,-0.27578 -1.49363,-0.74167l-2.42336,-2.64224l0.0027,-0.00556c-0.00585,-0.00357 -0.01169,-0.00715 -0.01753,-0.01073c-0.03272,-0.02007 -0.06499,-0.04014 -0.09682,-0.0602c-0.28201,1.60787 -1.25827,2.79373 -2.41929,2.79373c-0.26217,0 -0.51492,-0.06047 -0.75238,-0.17261c-0.34226,1.45959 -1.26983,2.50594 -2.36042,2.50594c-0.47942,0 -0.92734,-0.2022 -1.30788,-0.55283c-0.45447,0.94082 -1.19319,1.55283 -2.02726,1.55283c-1.22977,0 -2.25226,-1.33046 -2.46198,-3.08365c-0.30162,0.37911 -1.06537,0.65127 -1.98154,0.83655c-0.38681,0.3676 -0.84552,0.58044 -1.33739,0.58044c-0.08015,0 -0.15942,-0.00565 -0.23765,-0.01671c-0.17658,1.43007 -0.35227,2.64747 -0.42207,3.43414l-3.13044,-3.64179c-0.07949,0.50852 -0.22802,0.97719 -0.42994,1.38258c0.03356,0.24495 0.05118,0.4986 0.05118,0.75844c0,2.07107 -1.11989,3.75 -2.50135,3.75c-0.24788,0 -0.48734,-0.05406 -0.71342,-0.15474l-2.39049,-0.9774l0.00003,-0.00017c-0.8315,-0.36059 -1.6776,-0.74485 -2.48296,-1.20126c-0.74076,-0.0123 -1.40423,-0.50734 -1.85701,-1.28516c-1.00751,-0.86962 -1.83834,-1.96906 -2.32901,-3.44152c-0.41221,1.22225 -1.25764,2.06025 -2.23363,2.06025c-0.40943,0 -0.79589,-0.14748 -1.13703,-0.40893c-0.45139,0.66523 -1.07044,1.0756 -1.75342,1.0756c-0.94127,0 -1.76111,-0.77945 -2.18801,-1.93129c-0.28607,0.17075 -0.59812,0.26463 -0.92479,0.26463c-0.99066,0 -1.84681,-0.86338 -2.25192,-2.11562c-0.28462,1.60205 -1.25901,2.78229 -2.41727,2.78229c-1.28772,0 -2.34817,-1.45882 -2.48615,-3.33423l-0.21823,-2.61731l0.15895,-0.02979c-0.07044,-0.09822 -0.14309,-0.19341 -0.21818,-0.28527c-0.18336,-0.22429 -0.40754,-0.36349 -0.63605,-0.49154c0.18753,1.79499 -0.10223,4.46653 -0.10223,5.34146v0.33334c0,0 0,3.75 -2.50135,3.75z" fill="#14c700" stroke="none" stroke-width="0.5" stroke-linecap="butt"/><path d="M769.38199,540.06651c-3.66235,0.80605 -4.46839,-2.8563 -4.46839,-2.8563l-0.07165,-0.32554c-0.75678,-3.43852 -3.12072,-10.11547 -0.68802,-13.15048c1.47804,-1.84399 4.29047,-1.99438 6.95303,-1.49801c0.11805,-2.08641 1.04258,-3.97831 3.71855,-5.31302c1.66492,-0.83042 3.70816,-0.54214 5.60749,0.38334c0.50945,-0.30705 1.12594,-0.5561 1.86798,-0.73265c0.6292,-0.1497 1.24552,-0.07149 1.84358,0.15446c0.52873,-0.41948 1.11129,-0.74756 1.73739,-0.9426c0.58872,-0.18339 1.21465,-0.20434 1.85507,-0.09424c0.06746,-0.09995 0.13922,-0.19767 0.21554,-0.29301c1.2985,-1.62196 3.8864,-1.90896 5.96212,-1.81795c0.94554,0.04146 1.80164,0.46623 2.62818,0.984c1.55522,-0.88361 3.82176,-0.17987 5.67856,0.79113c1.45283,-0.05969 3.07917,0.20752 4.47788,0.74473c0.92749,-1.83383 2.26701,-2.99138 3.88222,-3.37756c2.29359,-5.64594 5.96482,-3.68107 9.7644,-2.63747c1.37386,0.37735 2.83388,0.56795 4.16462,1.05872c0.5108,-0.60513 1.21654,-1.05392 2.04873,-1.23922c-0.07177,-1.03218 0.06001,-2.01941 0.58003,-2.92092c3.16523,-5.48718 6.41887,-2.66861 8.54992,-0.08172c0.04809,-0.0459 0.0975,-0.0906 0.14829,-0.13406c-0.72311,-2.40903 0.11444,-4.70191 4.67944,-6.40441c1.62456,-0.60587 3.15806,1.43757 4.68958,2.25043c3.0701,1.62948 6.08986,3.88821 8.99428,5.74478c0,0 3.15963,2.01971 1.13992,5.17934c-1.5788,2.46987 -3.85414,1.77491 -4.77234,1.35378c0.09589,1.80012 -1.12125,3.45715 -2.93946,3.85732c-0.81976,0.18042 -1.63589,0.07767 -2.34632,-0.24302l-4.11609,-1.79956l0.00276,-0.0063c-0.00933,-0.0016 -0.01865,-0.00322 -0.02798,-0.00483c-0.05222,-0.00906 -0.10378,-0.01826 -0.15469,-0.02759c-0.0673,1.66116 -1.2418,3.1339 -2.9417,3.50803c-0.38385,0.08448 -0.7669,0.10688 -1.13869,0.07388c-0.18739,1.53577 -1.32059,2.85656 -2.91736,3.208c-0.70194,0.15449 -1.40122,0.10135 -2.03376,-0.11845c-0.46319,1.06528 -1.41323,1.90103 -2.63443,2.16981c-1.80056,0.39629 -3.58362,-0.57359 -4.26752,-2.21822c-0.36013,0.46744 -1.41988,0.97936 -2.72145,1.45553c-0.48733,0.48365 -1.11319,0.83933 -1.83336,0.99783c-0.11736,0.02583 -0.23463,0.04585 -0.35155,0.06027c0.04885,1.45355 0.0533,2.69911 0.12018,3.48989l-5.36622,-2.5479c-0.00708,0.52225 -0.12381,1.02783 -0.33232,1.48881c0.10178,0.22841 0.18212,0.47046 0.23797,0.72422c0.44517,2.02266 -0.83364,4.02323 -2.8563,4.46839c-0.36294,0.07988 -0.72516,0.10426 -1.07781,0.07878l-3.71012,-0.18423l0.00001,-0.00018c-1.29495,-0.08422 -2.61637,-0.18685 -3.89362,-0.37307c-1.08723,0.22669 -2.16504,-0.04298 -2.99517,-0.65671c-1.66207,-0.52463 -3.11484,-1.33064 -4.14976,-2.61057c-0.34082,1.32651 -1.39853,2.41737 -2.82752,2.73187c-0.59947,0.13194 -1.197,0.11244 -1.75268,-0.03298c-0.51792,0.79515 -1.33609,1.3954 -2.33607,1.61549c-1.37816,0.30332 -2.74606,-0.19372 -3.61869,-1.18108c-0.38215,0.25894 -0.81885,0.45118 -1.29714,0.55645c-1.45047,0.31924 -2.88958,-0.24809 -3.75189,-1.34051c-0.07238,1.65632 -1.24533,3.12297 -2.9412,3.49621c-1.88541,0.41496 -3.75163,-0.66803 -4.35677,-2.45514l-0.8821,-2.48581l0.22632,-0.08031c-0.12425,-0.07323 -0.25108,-0.14278 -0.38076,-0.2083c-0.31668,-0.15996 -0.67483,-0.22367 -1.03694,-0.27509c0.6604,1.69261 0.81039,4.39508 0.99845,5.24956l0.07165,0.32554c0,0 0.80605,3.66235 -2.8563,4.46839z" fill="#14c700" stroke="none" stroke-width="0.5" stroke-linecap="butt"/><path d="M848.94719,521.64292c-3.72517,0.43084 -4.156,-3.29433 -4.156,-3.29433l-0.0383,-0.33112c-0.40451,-3.4975 -2.07978,-10.3796 0.6479,-13.15252c1.65727,-1.68475 4.47046,-1.54942 7.06902,-0.78583c0.32883,-2.06372 1.44029,-3.8522 4.23773,-4.90891c1.74049,-0.65746 3.74401,-0.16365 5.5398,0.9495c0.53794,-0.25385 1.17649,-0.43916 1.9326,-0.53962c0.64113,-0.08518 1.24635,0.05507 1.81844,0.34045c0.56851,-0.36375 1.18131,-0.63111 1.82395,-0.76171c0.60427,-0.1228 1.22911,-0.08023 1.85508,0.09419c0.07724,-0.0926 0.15853,-0.18255 0.24412,-0.26966c1.45615,-1.48205 4.05982,-1.50537 6.11563,-1.20452c0.93648,0.13705 1.74513,0.64637 2.51495,1.24522c1.63674,-0.72149 3.82032,0.20828 5.56919,1.36241c1.4514,0.08781 3.0423,0.51843 4.37938,1.19459c1.10852,-1.73043 2.55842,-2.74629 4.20445,-2.96683c2.85382,-5.3845 6.30708,-3.05778 9.98137,-1.63459c1.32856,0.51461 2.76176,0.85215 4.03592,1.47522c0.56948,-0.55026 1.31706,-0.92523 2.16374,-1.02526c0.03318,-1.03414 0.2643,-2.00294 0.87299,-2.84712c3.70489,-5.13825 6.65621,-2.00453 8.5142,0.78497c0.05249,-0.04079 0.10618,-0.08026 0.16111,-0.11835c-0.47531,-2.4699 0.59025,-4.66612 5.30424,-5.89734c1.67759,-0.43816 2.99616,1.75014 4.43744,2.71399c2.8892,1.93215 5.66457,4.48522 8.36594,6.62651c0,0 2.93874,2.32944 0.60929,5.26818c-1.82092,2.2972 -4.01414,1.37529 -4.88494,0.86329c-0.08699,1.80057 -1.46575,3.32576 -3.31515,3.53965c-0.83382,0.09643 -1.63534,-0.08848 -2.30962,-0.4795l-3.91258,-2.20733l0.00338,-0.00599c-0.00912,-0.00254 -0.01823,-0.00509 -0.02735,-0.00765c-0.05103,-0.0143 -0.1014,-0.02868 -0.15109,-0.04312c-0.23526,1.6458 -1.55293,2.99196 -3.28199,3.19193c-0.39044,0.04516 -0.77379,0.02862 -1.14031,-0.04187c-0.34203,1.50888 -1.60321,2.70807 -3.22738,2.89591c-0.71398,0.08258 -1.40428,-0.04115 -2.01129,-0.3239c-0.56873,1.01287 -1.59857,1.74806 -2.84071,1.89172c-1.83145,0.21182 -3.50706,-0.93372 -4.02082,-2.63918c-0.40564,0.42855 -1.5118,0.83046 -2.85492,1.17231c-0.53383,0.43179 -1.1925,0.72223 -1.92503,0.80695c-0.11937,0.01381 -0.23807,0.02184 -0.35584,0.02434c-0.09867,1.45102 -0.22045,2.69062 -0.23403,3.4841l-5.08045,-3.07848c-0.05996,0.51884 -0.22731,1.00999 -0.48145,1.44747c0.07812,0.23754 0.13351,0.48649 0.16337,0.7446c0.23794,2.05736 -1.23698,3.91806 -3.29434,4.15601c-0.36917,0.0427 -0.73199,0.03024 -1.08025,-0.03083l-3.67236,-0.55919l0.00003,-0.00018c-1.27975,-0.21499 -2.58397,-0.45097 -3.83579,-0.76564c-1.1046,0.11536 -2.14954,-0.26212 -2.91322,-0.95679c-1.60036,-0.69033 -2.964,-1.63938 -3.8639,-3.01759c-0.47346,1.28515 -1.63625,2.26322 -3.08976,2.43133c-0.60976,0.07052 -1.20224,-0.00942 -1.74032,-0.21039c-0.59581,0.73858 -1.4706,1.25285 -2.48773,1.37049c-1.4018,0.16213 -2.7123,-0.47095 -3.4804,-1.54164c-0.40642,0.21889 -0.86035,0.36589 -1.34684,0.42216c-1.47535,0.17063 -2.84958,-0.53957 -3.59676,-1.71374c-0.23982,1.64046 -1.55534,2.98072 -3.28029,3.18022c-1.91775,0.2218 -3.66464,-1.04471 -4.0856,-2.88393l-0.6257,-2.56239l0.23329,-0.05697c-0.11619,-0.08544 -0.23532,-0.16749 -0.3577,-0.2458c-0.29885,-0.19123 -0.64869,-0.29089 -1.00373,-0.37873c0.48551,1.75081 0.36091,4.45457 0.46143,5.32371l0.0383,0.33112c0,0 0.43083,3.72517 -3.29434,4.156z" fill="#14c700" stroke="none" stroke-width="0.5" stroke-linecap="butt"/><path d="M929.02615,510.6854c-3.63568,-0.91887 -2.71681,-4.55454 -2.71681,-4.55454l0.08168,-0.32317c0.86271,-3.41348 1.73816,-10.44224 5.27221,-12.06699c2.1472,-0.98715 4.72935,0.13748 6.88795,1.77335c1.03963,-1.81279 2.71333,-3.09058 5.7037,-3.08603c1.86052,0.00283 3.55851,1.17535 4.84252,2.85323c0.59301,-0.04648 1.25576,0.00682 1.99832,0.18116c0.62965,0.14783 1.14573,0.49369 1.57935,0.96348c0.66058,-0.13838 1.32838,-0.17093 1.97554,-0.06503c0.60853,0.09958 1.17761,0.36108 1.70098,0.74624c0.10507,-0.05917 0.21298,-0.11442 0.32391,-0.16551c1.88725,-0.869 4.3298,0.03297 6.14513,1.04364c0.82693,0.46039 1.40227,1.22349 1.90954,2.05651c1.78624,-0.09384 3.49789,1.55016 4.7235,3.2497c1.32583,0.59705 2.66044,1.56409 3.67064,2.67065c1.65035,-1.22455 3.36636,-1.65991 4.98354,-1.2821c4.57856,-4.02168 6.98166,-0.62113 9.91197,2.0131c1.05955,0.95249 2.27975,1.77657 3.24996,2.81118c0.72766,-0.31241 1.55965,-0.39775 2.38674,-0.19088c0.39793,-0.95509 0.95774,-1.77886 1.82635,-2.35216c5.2869,-3.48949 6.93439,0.48747 7.6818,3.7547c0.06355,-0.01951 0.12775,-0.03737 0.19262,-0.05349c0.43192,-2.47786 2.20736,-4.15314 7.05152,-3.63176c1.72391,0.18555 2.1803,2.6993 3.18584,4.11181c2.01572,2.83153 3.70472,6.2032 5.47063,9.16362c0,0 1.92108,3.22055 -1.29948,5.14163c-2.51749,1.5017 -4.24094,-0.13839 -4.87344,-0.92602c-0.72017,1.65257 -2.55036,2.58936 -4.35534,2.13317c-0.81379,-0.20567 -1.49756,-0.66294 -1.98924,-1.26775l-2.87489,-3.4519l0.00529,-0.0044c-0.00763,-0.00561 -0.01523,-0.01124 -0.02285,-0.01685c-0.04264,-0.03148 -0.08463,-0.06279 -0.12597,-0.09392c-0.80387,1.45526 -2.51344,2.24634 -4.20096,1.81984c-0.38106,-0.09631 -0.7336,-0.24778 -1.05127,-0.44373c-0.85512,1.28936 -2.45973,1.96308 -4.04488,1.56245c-0.69683,-0.17612 -1.29832,-0.53671 -1.76552,-1.01643c-0.8911,0.74519 -2.11477,1.06717 -3.32708,0.76079c-1.78745,-0.45176 -2.94763,-2.11727 -2.82287,-3.89405c-0.5313,0.25675 -1.70809,0.24005 -3.08512,0.08313c-0.6523,0.2143 -1.37116,0.25215 -2.08609,0.07146c-0.1165,-0.02945 -0.23034,-0.06404 -0.34133,-0.1035c-0.60706,1.32161 -1.16072,2.43737 -1.45494,3.17441l-3.6577,-4.68073c-0.24014,0.46382 -0.57086,0.86364 -0.96369,1.18249c-0.01125,0.24981 -0.04777,0.50221 -0.11144,0.75412c-0.50748,2.00794 -2.54661,3.2243 -4.55455,2.71682c-0.3603,-0.09106 -0.6951,-0.23143 -0.99903,-0.4121l-3.23505,-1.82574l0.00009,-0.00016c-1.12022,-0.65505 -2.25587,-1.33841 -3.3146,-2.07675c-1.07367,-0.28405 -1.9167,-1.00771 -2.38423,-1.92815c-1.25133,-1.21322 -2.18953,-2.58435 -2.54191,-4.19217c-0.89862,1.03356 -2.33279,1.53545 -3.75137,1.17693c-0.59511,-0.15041 -1.12068,-0.43536 -1.55246,-0.81416c-0.8191,0.47914 -1.81943,0.64959 -2.81213,0.3987c-1.36812,-0.34577 -2.36876,-1.40263 -2.70701,-2.67618c-0.45764,0.06045 -0.93419,0.03685 -1.40901,-0.08315c-1.43991,-0.36391 -2.47276,-1.51549 -2.75474,-2.87837c-0.80625,1.44865 -2.5117,2.23498 -4.19522,1.80949c-1.87169,-0.47304 -3.05558,-2.27694 -2.7966,-4.14587l0.32414,-2.61768l0.23833,0.02951c-0.07831,-0.1211 -0.16059,-0.24008 -0.24722,-0.35672c-0.21156,-0.28481 -0.50328,-0.50212 -0.80406,-0.7102c-0.16726,1.80916 -1.24303,4.29282 -1.45741,5.14108l-0.08168,0.32317c0,0 -0.91887,3.63568 -4.55455,2.71681z" fill="#14c700" stroke="none" stroke-width="0.5" stroke-linecap="butt"/><path d="M1013.60816,525.48788c-3.62078,-0.97594 -2.64484,-4.59671 -2.64484,-4.59671l0.08675,-0.32185c0.91629,-3.39949 1.90219,-10.41361 5.46136,-11.98258c2.16246,-0.95326 4.7266,0.21185 6.8592,1.88147c1.06802,-1.79621 2.76161,-3.04752 5.75153,-2.99593c1.86024,0.0321 3.53958,1.23117 4.79705,2.92904c0.59366,-0.03715 1.2555,0.02657 1.99523,0.21257c0.62725,0.15771 1.13783,0.51165 1.564,0.9882c0.66268,-0.12797 1.3309,-0.15002 1.97632,-0.03395c0.60689,0.10914 1.17178,0.37955 1.68903,0.7729c0.10598,-0.05751 0.21476,-0.11106 0.32647,-0.16039c1.90068,-0.8392 4.32874,0.10107 6.12795,1.14017c0.81958,0.47334 1.38286,1.24539 1.87696,2.08629c1.78749,-0.06573 3.47307,1.60498 4.6718,3.32359c1.31627,0.61783 2.63551,1.60575 3.62818,2.72806c1.66941,-1.19844 3.39205,-1.60675 5.00309,-1.20356c4.64125,-3.94917 6.99057,-0.51124 9.87908,2.16875c1.04444,0.96904 2.25152,1.81221 3.20534,2.86195c0.73249,-0.30093 1.56571,-0.37317 2.38944,-0.15332c0.4129,-0.94872 0.98561,-1.76358 1.86312,-2.32315c5.34113,-3.40591 6.92586,0.59648 7.62179,3.87507c0.06385,-0.01851 0.12832,-0.03536 0.19344,-0.05045c0.47084,-2.47076 2.27241,-4.11791 7.10777,-3.52039c1.72078,0.21264 2.13757,2.73326 3.12077,4.16141c1.97094,2.86288 3.6067,6.2607 5.32582,9.24853c0,0 1.87018,3.25037 -1.38019,5.12055c-2.5408,1.46192 -4.23824,-0.20507 -4.85827,-1.00256c-0.74607,1.64104 -2.59077,2.54892 -4.38835,2.0644c-0.81045,-0.21845 -1.48694,-0.68641 -1.96905,-1.29888l-2.82024,-3.49669l0.00535,-0.00432c-0.00754,-0.00573 -0.01506,-0.01147 -0.02258,-0.01721c-0.04214,-0.03215 -0.08363,-0.06411 -0.12448,-0.09589c-0.82666,1.44243 -2.54846,2.20653 -4.22907,1.75354c-0.3795,-0.10229 -0.72961,-0.25929 -1.04416,-0.46021c-0.87529,1.27575 -2.4903,1.92415 -4.06895,1.49864c-0.69398,-0.18705 -1.28972,-0.55706 -1.74932,-1.04407c-0.90271,0.73108 -2.1313,1.03378 -3.33863,0.70836c-1.78013,-0.47981 -2.91396,-2.16337 -2.76127,-3.93797c-0.53527,0.24836 -1.71165,0.21315 -3.08604,0.03459c-0.65559,0.20401 -1.37496,0.23055 -2.08696,0.03864c-0.11602,-0.03127 -0.2293,-0.06766 -0.33966,-0.10885c-0.62778,1.3119 -1.19892,2.41881 -1.50469,3.15113l-3.58363,-4.73768c-0.24741,0.45998 -0.58437,0.85455 -0.98217,1.16719c-0.01517,0.2496 -0.05567,0.50139 -0.12329,0.75227c-0.539,1.99971 -2.59701,3.18384 -4.59672,2.64485c-0.35882,-0.09672 -0.69137,-0.24234 -0.99243,-0.42776l-3.20594,-1.8764l0.00009,-0.00016c-1.10978,-0.67259 -2.23454,-1.37373 -3.28153,-2.12863c-1.06907,-0.3009 -1.90061,-1.03774 -2.35361,-1.96541c-1.23209,-1.23275 -2.14861,-2.61847 -2.47566,-4.23163c-0.91477,1.0193 -2.35665,1.49857 -3.76942,1.11778c-0.59267,-0.15975 -1.11369,-0.45293 -1.53946,-0.83848c-0.82653,0.4662 -1.82942,0.62089 -2.81805,0.35442c-1.36251,-0.36725 -2.34641,-1.43971 -2.66458,-2.71843c-0.45854,0.05325 -0.93466,0.02215 -1.40752,-0.10531c-1.43401,-0.38652 -2.44862,-1.5542 -2.70913,-2.92134c-0.82894,1.43579 -2.54654,2.1952 -4.22316,1.74328c-1.86402,-0.50242 -3.01939,-2.32472 -2.73105,-4.18934l0.36527,-2.61226l0.23783,0.03325c-0.0764,-0.12232 -0.15679,-0.24258 -0.24158,-0.36057c-0.20705,-0.28811 -0.49532,-0.50997 -0.79279,-0.72276c-0.1957,1.80631 -1.31039,4.27274 -1.53809,5.11752l-0.08675,0.32185c0,0 -0.97594,3.62077 -4.59672,2.64484z" fill="#14c700" stroke="none" stroke-width="0.5" stroke-linecap="butt"/></g></g></svg>