<svg version="1.1" xmlns="http://www.w3.org/2000/svg" xmlns:xlink="http://www.w3.org/1999/xlink" width="21.33333" height="31.93367" viewBox="0,0,21.33333,31.93367"><defs><radialGradient cx="543.58333" cy="308.33333" r="9.91666" gradientUnits="userSpaceOnUse" id="color-1"><stop offset="0" stop-color="#ffffff"/><stop offset="1" stop-color="#66ebff"/></radialGradient></defs><g transform="translate(-527.33333,-305.08331)"><g data-paper-data="{&quot;isPaintingLayer&quot;:true}" fill-rule="nonzero" stroke="#000000" stroke-linecap="butt" stroke-linejoin="miter" stroke-miterlimit="10" stroke-dasharray="" stroke-dashoffset="0" style="mix-blend-mode: normal"><path d="M542.68664,321.81025c0.44043,0.18688 0.88803,0.30531 1.33483,0.30158c0.22497,-0.00188 0.88371,0.06797 0.67305,-0.1177c-0.48473,-0.42721 -1.25482,-0.34214 -2.00788,-0.18388zM531.47047,323.37781c-0.10696,-0.18207 -0.20268,-0.46835 -0.26531,-0.91021c-0.23717,-1.67319 0.47434,-2.23093 0.47434,-2.23093l0.61387,-0.45844c3.12804,-1.20805 6.44658,-1.19979 9.6233,-1.19979c0.79058,0 2.37226,-0.62952 3.0705,0.09051c1.22054,1.25861 1.73338,3.49852 0.56643,6.18263c-0.06234,0.14337 -0.13431,0.26649 -0.21421,0.37153c0.40037,0.84783 0.48832,2.1339 -0.00938,4.07591c-0.02729,0.10648 -0.08134,0.19585 -0.15544,0.27082c1.15924,1.83199 1.62072,5.09756 -0.35406,6.94714c-1.00201,0.93849 -2.24035,-0.3314 -3.19064,-0.71614c-3.12556,-1.26546 -6.86109,-0.76109 -10.04653,-0.76109c0,0 -0.75,0 -0.75,-1.76371c0,-0.33298 0.02673,-0.60309 0.0701,-0.82221c-0.04498,-0.22646 -0.0701,-0.4791 -0.0701,-0.74553c0,-0.40347 0.05761,-0.77531 0.15455,-1.07247l0.49545,-1.5535l0.26579,0.46877c0.36795,-0.89597 0.79599,-1.59018 1.26724,-2.12266c-0.05461,-0.0281 -0.10901,-0.05699 -0.1632,-0.08663c-0.60053,-0.32873 -1.47965,0.10347 -1.78288,-1.15902c-0.20884,-0.86951 0.09951,-1.90053 0.40018,-2.80491zM540.21786,332.28313c0.17712,0.00651 0.35449,0.01096 0.53214,0.01303c0.14807,0.00171 4.25634,1.03107 3.96606,0.04158c-0.16909,-0.57638 -0.57997,-0.3216 -0.8733,-0.44207c-1.22633,0.01136 -2.42996,0.17237 -3.6249,0.3875zM534.66617,329.79009c1.13964,-0.14596 2.26782,-0.3767 3.39636,-0.60935c-1.03794,-0.11083 -2.06034,-0.07026 -3.02572,0.34906c-0.11345,0.04929 -0.23822,0.14189 -0.37064,0.26027zM538.76277,324.42402c-1.10108,-0.36761 -2.21078,-0.72675 -3.3461,-0.75043c-0.49084,-0.01027 -1.08021,0.13284 -1.61553,0.35996c0.31693,0.17605 0.58705,0.40434 0.68289,0.43103c1.34401,0.37445 2.84103,0.31687 4.27875,-0.04054z" fill="#8a8a8a" stroke-width="1"/><path d="M528.08333,318.55969v-12.72638h19.83333v12.72638z" fill="url(#color-1)" stroke-width="1.5"/></g></g></svg>