<svg version="1.1" xmlns="http://www.w3.org/2000/svg" xmlns:xlink="http://www.w3.org/1999/xlink" width="44.66666" height="133.33332" viewBox="0,0,44.66666,133.33332"><g transform="translate(-517.55405,-260.89492)"><g data-paper-data="{&quot;isPaintingLayer&quot;:true}" fill="#383838" fill-rule="nonzero" stroke="none" stroke-linecap="butt" stroke-linejoin="miter" stroke-miterlimit="10" stroke-dasharray="" stroke-dashoffset="0" style="mix-blend-mode: normal"><path d="M546.72072,323.72825c0,14.63555 -2.91015,26.5 -6.5,26.5c-3.58985,0 -6.5,-11.86445 -6.5,-26.5c0,-14.63555 2.91015,-26.5 6.5,-26.5c3.58985,0 6.5,11.86445 6.5,26.5z" stroke-width="0"/><path d="M545.72072,369.22824c0,13.80712 -1.11929,25 -2.5,25c-1.38071,0 -2.5,-11.19288 -2.5,-25c0,-13.80712 1.11929,-25 2.5,-25c1.38071,0 2.5,11.19288 2.5,25z" stroke-width="0"/><path d="M539.72072,368.22824c0,13.80712 -1.11929,25 -2.5,25c-1.38071,0 -2.5,-11.19288 -2.5,-25c0,-13.80712 1.11929,-25 2.5,-25c1.38071,0 2.5,11.19288 2.5,25z" stroke-width="0"/><path d="M555.73045,329.54703c6.30324,3.43764 3.51487,11.59533 2.98601,12.56505c-0.52887,0.96973 1.40203,-5.61571 -4.90121,-9.05334c-6.30324,-3.43764 -10.98428,-7.01051 -10.45541,-7.98024c0.52887,-0.96973 6.06738,1.0309 12.37062,4.46854z" data-paper-data="{&quot;index&quot;:null}" stroke-width="0"/><path d="M517.55405,302.22825v-41.33333h44.66666v41.33334z" stroke-width="NaN"/><path d="M555.06162,321.15042c6.48218,3.08698 4.14515,11.38525 3.67022,12.38249c-0.47492,0.99725 1.09211,-5.68412 -5.39007,-8.77109c-6.48218,-3.08698 -11.35202,-6.39792 -10.8771,-7.39517c0.47492,-0.99725 6.11477,0.69679 12.59695,3.78377z" data-paper-data="{&quot;index&quot;:null}" stroke-width="0"/></g></g></svg>