<svg version="1.1" xmlns="http://www.w3.org/2000/svg" xmlns:xlink="http://www.w3.org/1999/xlink" width="2445.5386" height="767.90507" viewBox="0,0,2445.5386,767.90507"><g transform="translate(469.39362,-290.58225)"><g data-paper-data="{&quot;isPaintingLayer&quot;:true}" fill-rule="nonzero" stroke="#000000" stroke-linecap="butt" stroke-linejoin="miter" stroke-miterlimit="10" stroke-dasharray="" stroke-dashoffset="0" style="mix-blend-mode: normal"><path d="M-468.14362,1057.23728v-466.95605h873.00794c0.06439,3.49324 0.12636,6.98074 0.15946,10.45662c0.33031,34.68615 2.51299,69.54585 1.96153,104.2292c-0.42104,26.48049 -2.82854,52.89749 -4.8951,79.30058c-0.6557,8.37747 -8.38528,42.17534 -0.96522,54.73237c6.58903,11.15067 19.64974,14.80855 30.48474,10.97366c0.75829,7.18693 1.90212,14.3748 2.39026,21.56621c0.70246,10.3486 -0.49982,22.74149 10.54688,29.05389c4.33302,2.47601 9.46256,3.90625 14.45313,3.90625c5.17052,0 9.33057,-0.94429 12.66111,-2.62501c4.44492,4.73415 10.84022,7.62501 18.33889,7.62501c3.97332,0 7.63682,-0.81162 10.86451,-2.27903c3.52284,1.46425 7.36875,2.27903 11.13549,2.27903c14.67112,0 24.81564,-10.88531 25,-25c0.00904,-0.69183 0.07458,-2.29962 0.14906,-4.4647c2.72866,-0.66447 5.37194,-1.71479 7.77103,-3.0857c7.25413,-4.14522 9.45676,-10.90555 10.08016,-18.17349c0.98184,14.13818 1.99084,28.27447 3.0828,42.40446c0.24536,3.17497 2.0522,10.40051 3.84272,12.67195c2.30648,2.92598 5.09734,5.52461 8.18022,7.61676c0.74522,0.50574 1.78506,0.27293 2.65189,0.51732c11.62512,3.27756 28.46709,4.80332 35.85989,-8.13408c2.47601,-4.33302 3.90625,-9.46256 3.90625,-14.45312c0,-2.12735 -0.40962,-4.21161 -1.0076,-6.26771c3.11871,-0.21936 6.42081,-0.97743 9.85488,-2.3381c7.41781,-2.93913 12.24496,-11.96318 13.42398,-19.39019c0.00399,-0.0251 3.60476,-27.50292 4.44942,-32.56134c1.17037,-7.00902 1.9538,-11.17303 2.65778,-15.00207c3.73203,4.61783 9.06253,7.88846 15.6852,8.74532c-2.83394,15.82195 -4.83472,36.70085 8.5763,44.36429c4.33302,2.47601 9.46256,3.90625 14.45313,3.90625c18.56992,0 23.71923,-14.11434 25.96073,-29.30164c2.87557,1.27327 6.32176,2.06156 10.44162,2.24882c7.27074,0.33049 12.60399,-1.34868 16.51747,-4.37232c-0.64904,13.50482 -1.14269,27.02357 -2.34383,40.48909c-0.78098,8.75524 -5.66161,9.94203 -0.45438,19.66999c2.35519,4.39987 5.94081,8.33701 10.16863,10.98866c18.95932,11.89113 38.15975,-4.05541 40.10871,-22.77966c1.65837,-15.93246 1.78824,-33.36344 2.63275,-49.65872c3.55085,-68.51522 4.63651,-136.89881 4.55089,-205.49744c-0.0102,-8.1758 -1.41466,-17.89741 -1.5015,-24.80451c-0.11547,-9.18455 -0.08749,-18.37054 -0.01366,-27.55688h331.16264c0.12705,4.18345 0.3542,7.52808 0.36457,9.21877c0.00725,1.18146 0.09755,2.36409 0.25126,3.53553c0.58657,4.47012 1.05392,8.98003 1.49041,13.50226c0.12531,1.93195 0.23395,3.8165 0.25833,5.61498c0.13375,9.86829 -3.35032,29.55581 0.41317,44.89784c0.47079,2.55997 1.33154,4.98344 2.51839,7.20654c1.57836,3.299 3.6961,6.19901 6.51134,8.49389c1.25343,10.27474 1.72687,20.63519 2.65386,30.94631c0.89843,9.99343 3.4679,25.73175 4.0409,30.49441c1.62558,13.51134 -3.67773,39.78088 11.40922,48.40199c4.33302,2.47601 9.46256,3.90625 14.45313,3.90625c28.57516,0 26.44252,-30.25725 24.46105,-51.23352l1.69535,-2.06018l2.80674,-2.73088l0.77708,-1.865l1.4717,-2.82566l0.70876,-1.7719l5.07932,33.37842v2.10871l0.39063,3.90625l2.73438,8.59375l0.36879,0.42702l0.41246,1.52611l3.56326,3.07736l3.07736,3.56326l1.52611,0.41246l0.42702,0.36879l8.59375,2.73438l3.90625,0.39063h1.16941l1.57458,0.569l3.55376,-0.89877l0.6085,-0.06085l1.42541,-0.45354l5.42076,-1.37095l0.79477,-0.60672l0.95281,-0.30317l4.23173,-3.65467l1.18897,-0.90765l0.3988,-0.4636l2.77425,-2.39595l0.43682,-1.61624l5.95023,-8.50032l1.92007,-3.42413l0.09763,-0.31266l0.17893,-0.27436l1.41784,-3.66075l0.91167,-3.29603c7.27283,2.33183 15.73266,0.93325 23.95093,-5.23045c0.75385,-0.56539 1.44001,-1.16726 2.0638,-1.80127c1.35888,15.3187 2.59831,30.64945 4.0837,45.95602c0.36554,3.76674 2.42913,9.62839 4.25829,12.1607c8.73749,12.0963 24.77083,13.76511 36.9632,5.22562c6.18772,-4.33386 7.50796,-11.37886 8.53706,-18.04656c4.036,-26.14995 -4.55561,-57.36962 -7.04691,-80.32592c-6.76305,-62.31874 -9.46129,-77.32111 -18.04651,-130.52554h660.91271v466.95606z" fill="#ffab67" stroke-width="2.5"/><path d="" fill="#ffab67" stroke-width="2.5"/><path d="" fill="#ffab67" stroke-width="2.5"/><path d="M489.92643,923.61111v-265.76577h207.20721v265.76577z" fill="#ffab67" stroke-width="1.5"/><path d="M849.5,589.5v-23h257v23z" fill="#ffab67" stroke-width="2"/><path d="M922.5,566.5v-23h257v23z" fill="#ffab67" stroke-width="2"/><path d="M965.5,542.5v-23h257v23z" fill="#ffab67" stroke-width="2"/><path d="M821.5,490.5l-87,-16l170,3l3,-1z" fill="#ffab67" stroke-width="2"/><path d="" data-paper-data="{&quot;index&quot;:null}" fill="#ffab67" stroke-width="2"/><path d="M-43.06684,327.75394c-2.38121,-0.04285 -4.74091,-0.0798 -7.00855,-0.10777c-3.27031,-0.04034 -6.34915,-0.06202 -9.02498,-0.05582c-24.9855,0.05788 -96.39964,0.22329 -96.39964,0.22329c0.08959,-2.09942 0.18211,-4.19869 0.27794,-6.2978c0,0 41.54245,2.04145 69.10357,3.39585c4.428,0.2176 8.49511,0.41746 11.97109,0.58827c12.50149,0.61434 30.75248,1.51123 44.04107,2.16425c9.87392,0.48522 86.00807,-36.1642 86.00807,-36.1642c0,0 -84.38769,36.5163 -98.96858,36.25393z" data-paper-data="{&quot;index&quot;:null}" fill="#ffab67" stroke-width="2"/><path d="M635.5,459.5l-87,-16l170,3l3,-1z" fill="#ffab67" stroke-width="2"/><path d="M463.5,432.5l-87,-16l170,3l3,-1z" fill="#ffab67" stroke-width="2"/><path d="M325.5,401.5c0,0 -30.85845,1.11777 -43.87248,-3.36982c-15.53668,-5.35748 -43.12752,-26.63018 -43.12752,-26.63018c0,0 35.51414,14.62672 57.99958,15.02352c31.24631,0.55141 112.00042,1.97648 112.00042,1.97648l3,-1z" fill="#ffab67" stroke-width="2"/></g></g></svg>