<svg version="1.1" xmlns="http://www.w3.org/2000/svg" xmlns:xlink="http://www.w3.org/1999/xlink" width="44.87824" height="76.96974" viewBox="0,0,44.87824,76.96974"><defs><linearGradient x1="514.15625" y1="326.875" x2="538.90625" y2="326.875" gradientUnits="userSpaceOnUse" id="color-1"><stop offset="0" stop-color="#cc00ff" stop-opacity="0"/><stop offset="1" stop-color="#cc00ff"/></linearGradient><linearGradient x1="528.29259" y1="394.55139" x2="528.29259" y2="413.4126" gradientUnits="userSpaceOnUse" id="color-2"><stop offset="0" stop-color="#7d7d7d"/><stop offset="1" stop-color="#adadad"/></linearGradient><linearGradient x1="-2180.1247" y1="2274.14581" x2="-2179.02877" y2="2289.00493" gradientUnits="userSpaceOnUse" id="color-3"><stop offset="0" stop-color="#7d7d7d"/><stop offset="1" stop-color="#adadad"/></linearGradient><linearGradient x1="552.17558" y1="310.77496" x2="555.77925" y2="310.77496" gradientUnits="userSpaceOnUse" id="color-4"><stop offset="0" stop-color="#006cff"/><stop offset="1" stop-color="#00a0ff"/></linearGradient><linearGradient x1="548.94607" y1="310.60777" x2="551.07434" y2="310.60777" gradientUnits="userSpaceOnUse" id="color-5"><stop offset="0" stop-color="#006cff"/><stop offset="1" stop-color="#00a0ff"/></linearGradient><linearGradient x1="533.08308" y1="310.43525" x2="547.38014" y2="310.43525" gradientUnits="userSpaceOnUse" id="color-6"><stop offset="0" stop-color="#006cff"/><stop offset="1" stop-color="#00a0ff"/></linearGradient><linearGradient x1="540.92686" y1="341.98217" x2="529.65051" y2="358.52718" gradientUnits="userSpaceOnUse" id="color-7"><stop offset="0" stop-color="#393939"/><stop offset="1" stop-color="#717171"/></linearGradient><linearGradient x1="536.02773" y1="338.10227" x2="523.38325" y2="356.65465" gradientUnits="userSpaceOnUse" id="color-8"><stop offset="0" stop-color="#393939"/><stop offset="1" stop-color="#717171"/></linearGradient><linearGradient x1="548.08653" y1="327.23829" x2="545.97634" y2="341.8632" gradientUnits="userSpaceOnUse" id="color-9"><stop offset="0" stop-color="#9e9e9e"/><stop offset="1" stop-color="#717171"/></linearGradient><linearGradient x1="534.20806" y1="324.50489" x2="532.45834" y2="336.63152" gradientUnits="userSpaceOnUse" id="color-10"><stop offset="0" stop-color="#9e9e9e"/><stop offset="1" stop-color="#717171"/></linearGradient><linearGradient x1="542.1932" y1="321.30159" x2="539.76469" y2="338.13264" gradientUnits="userSpaceOnUse" id="color-11"><stop offset="0" stop-color="#9e9e9e"/><stop offset="1" stop-color="#717171"/></linearGradient><linearGradient x1="542.53642" y1="287.462" x2="539.88463" y2="305.84048" gradientUnits="userSpaceOnUse" id="color-12"><stop offset="0" stop-color="#9e9e9e"/><stop offset="1" stop-color="#717171"/></linearGradient><linearGradient x1="543.17272" y1="314.20572" x2="542.49547" y2="318.89944" gradientUnits="userSpaceOnUse" id="color-13"><stop offset="0" stop-color="#9e9e9e"/><stop offset="1" stop-color="#717171"/></linearGradient></defs><g transform="translate(-514.15625,-284.62425)"><g data-paper-data="{&quot;isPaintingLayer&quot;:true}" fill-rule="nonzero" stroke-linejoin="miter" stroke-miterlimit="10" stroke-dasharray="" stroke-dashoffset="0" style="mix-blend-mode: normal"><path d="M514.15625,326.625c0,-1.65685 14.6175,-2.75 18.22253,-2.75c3.60502,0 6.52747,1.34315 6.52747,3c0,1.65685 -2.92245,3 -6.52747,3c-3.60502,0 -18.22253,-1.59315 -18.22253,-3.25z" fill="url(#color-1)" stroke="none" stroke-width="0.5" stroke-linecap="butt"/><path d="" data-paper-data="{&quot;index&quot;:null}" fill="#000000" stroke="none" stroke-width="0.5" stroke-linecap="butt"/><path d="" data-paper-data="{&quot;noHover&quot;:false,&quot;origItem&quot;:[&quot;Path&quot;,{&quot;applyMatrix&quot;:true,&quot;segments&quot;:[[[214.21936,363.46624],[-0.30208,-0.37388],[3.00673,0.15442]],[[223.17564,365.12684],[-2.72214,-1.01229],[0.78421,0.29162]],[[225.23038,366.56847],[-0.80035,-0.24385],[0.7421,0.2261]],[[227.55523,366.4612],[-0.77495,0.03576],[3.50491,0]],[[238.06996,366.4612],[-3.50491,0],[-1.08058,-2.14878]],[[237.21302,359.55162],[0.01277,2.28708],[0,0]],[[239.71302,357.05162],[-2.5,0],[2.5,0]],[[242.21302,359.55162],[0,0],[-0.01909,2.79627]],[[244.14909,365.09479],[-2.53148,-1.37374],[0,0]],[[244.57107,366.4612],[0,0],[7.03354,0]],[[265.67169,366.4612],[-7.03354,0],[3.04925,0]],[[274.81964,366.4612],[-3.04923,-0.00986],[0.84642,0.00274]],[[277.35997,366.4598],[-0.84249,-0.07098],[-2.84376,-3.86932]],[[269.2555,354.64224],[2.9011,3.87495],[-1.52693,-2.0395]],[[264.37183,348.76265],[1.03081,2.32992],[-0.4631,-1.04675]],[[264.2484,345.33101],[0.26442,1.11366],[-0.24124,-1.01601]],[[261.55208,340.80707],[0.56849,0.84929],[0,0]],[[261.11463,339.02281],[-0.11332,0.95811],[-0.5179,0.09202]],[[259.60671,339.31511],[0.48224,-0.10965],[-4.9579,1.12734]],[[244.77858,341.16631],[4.93186,-0.53102],[-0.36495,0.13559]],[[243.66918,341.57508],[0.37522,-0.13655],[-2.05219,0.74685]],[[237.17595,342.44759],[2.13113,-0.47702],[-1.33538,0.29891]],[[233.36431,343.97224],[1.3434,-0.26048],[-3.96057,0.76793]],[[221.09473,343.98507],[3.96691,-0.63065],[-1.45541,0.23138]],[[216.91087,345.41372],[1.39462,-0.47622],[0,0]],[[216.89509,345.41869],[0.01038,-0.00317],[-0.03209,0.04913]],[[216.84315,345.4943],[0,0],[-0.66286,0.84427]],[[214.85458,348.02711],[0.40217,-0.9952],[-0.90439,2.23798]],[[214.22695,355.24129],[0.57394,-2.34458],[-0.27021,1.10382]],[[212.7023,358.2906],[0.23015,-1.11286],[-0.27004,1.30575]],[[212.76917,362.29019],[-0.0223,-1.33319],[0,0]],[[212.76917,362.68043],[0,0],[0.69117,0.09707]]],&quot;closed&quot;:true}],&quot;index&quot;:null}" fill="url(#color-2)" stroke="none" stroke-width="0.5" stroke-linecap="butt"/><path d="" data-paper-data="{&quot;index&quot;:null}" fill="#000000" stroke="none" stroke-width="0.5" stroke-linecap="butt"/><path d="" data-paper-data="{&quot;noHover&quot;:false,&quot;origItem&quot;:[&quot;Path&quot;,{&quot;applyMatrix&quot;:true,&quot;segments&quot;:[[[214.21936,363.46624],[-0.30208,-0.37388],[3.00673,0.15442]],[[223.17564,365.12684],[-2.72214,-1.01229],[0.78421,0.29162]],[[225.23038,366.56847],[-0.80035,-0.24385],[0.7421,0.2261]],[[227.55523,366.4612],[-0.77495,0.03576],[3.50491,0]],[[238.06996,366.4612],[-3.50491,0],[-1.08058,-2.14878]],[[237.21302,359.55162],[0.01277,2.28708],[0,0]],[[239.71302,357.05162],[-2.5,0],[2.5,0]],[[242.21302,359.55162],[0,0],[-0.01909,2.79627]],[[244.14909,365.09479],[-2.53148,-1.37374],[0,0]],[[244.57107,366.4612],[0,0],[7.03354,0]],[[265.67169,366.4612],[-7.03354,0],[3.04925,0]],[[274.81964,366.4612],[-3.04923,-0.00986],[0.84642,0.00274]],[[277.35997,366.4598],[-0.84249,-0.07098],[-2.84376,-3.86932]],[[269.2555,354.64224],[2.9011,3.87495],[-1.52693,-2.0395]],[[264.37183,348.76265],[1.03081,2.32992],[-0.4631,-1.04675]],[[264.2484,345.33101],[0.26442,1.11366],[-0.24124,-1.01601]],[[261.55208,340.80707],[0.56849,0.84929],[0,0]],[[261.11463,339.02281],[-0.11332,0.95811],[-0.5179,0.09202]],[[259.60671,339.31511],[0.48224,-0.10965],[-4.9579,1.12734]],[[244.77858,341.16631],[4.93186,-0.53102],[-0.36495,0.13559]],[[243.66918,341.57508],[0.37522,-0.13655],[-2.05219,0.74685]],[[237.17595,342.44759],[2.13113,-0.47702],[-1.33538,0.29891]],[[233.36431,343.97224],[1.3434,-0.26048],[-3.96057,0.76793]],[[221.09473,343.98507],[3.96691,-0.63065],[-1.45541,0.23138]],[[216.91087,345.41372],[1.39462,-0.47622],[0,0]],[[216.89509,345.41869],[0.01038,-0.00317],[-0.03209,0.04913]],[[216.84315,345.4943],[0,0],[-0.66286,0.84427]],[[214.85458,348.02711],[0.40217,-0.9952],[-0.90439,2.23798]],[[214.22695,355.24129],[0.57394,-2.34458],[-0.27021,1.10382]],[[212.7023,358.2906],[0.23015,-1.11286],[-0.27004,1.30575]],[[212.76917,362.29019],[-0.0223,-1.33319],[0,0]],[[212.76917,362.68043],[0,0],[0.69117,0.09707]]],&quot;closed&quot;:true}],&quot;index&quot;:null}" fill="url(#color-3)" stroke="none" stroke-width="0.5" stroke-linecap="butt"/><path d="" fill="#000000" stroke="none" stroke-width="0.5" stroke-linecap="butt"/><path d="M546.06037,305.5027c-0.20939,-0.1833 -0.34162,-0.45256 -0.34162,-0.7527c0,-0.24238 0.08623,-0.46462 0.22969,-0.63772c0.01224,-0.35608 0.30864,-0.53512 0.61293,-0.692c0.91524,-0.47188 1.76324,1.05409 2.2503,2.30431c2.22318,-0.07498 4.17524,-0.11635 6.55062,0.76917l0.6652,-0.093c0,0 0.01431,0.00002 0.04011,0.00148l-0.00001,-0.00001c0.2765,-4.18031 -0.32562,-8.42448 -2.59731,-11.94224c-2.18032,-3.36392 -4.98077,-5.397 -8.91089,-6.34936c-0.72388,-0.17541 -2.81568,-0.99209 -3.58547,-0.64419c-0.64982,0.29368 -0.75635,2.49641 -0.72286,2.98998c0.18747,2.76312 1.19641,5.41985 1.94206,8.06335l0.43772,1.5518c0.06115,0.19955 0.08028,0.41542 0.0485,0.63567c-0.1152,0.79843 -0.85585,1.3523 -1.65428,1.23709c-0.55388,-0.07992 -0.99008,-0.46082 -1.16685,-0.95321l-0.59276,-1.55684c-0.63133,-0.83542 -0.50281,-2.16436 -1.27576,-2.87085c-1.3592,-1.24234 -5.49507,-0.40067 -7.19303,-0.82626c-0.68351,-0.17133 -4.41786,-2.23794 -4.91166,-1.68963c-2.05731,2.28438 -0.1497,7.08321 2.1679,8.1869c1.4647,0.57339 2.26804,1.63374 3.47173,2.36868c0.22029,-0.66643 0.4586,-1.30721 0.71633,-1.91109c0,0 0.58163,-1.33986 1.92149,-0.75823c1.33986,0.58163 0.75823,1.92149 0.75823,1.92149c-0.14118,0.31859 -0.27245,0.64736 -0.39511,0.98437c0.61075,-0.08954 1.19579,-0.17526 1.63475,-0.13742c3.28466,0.28314 6.73806,1.0026 10.05186,1.06914c-0.04381,-0.09178 -0.09378,-0.18162 -0.15182,-0.26868zM546.90625,312.75c0,-0.05581 0.00457,-0.11055 0.01336,-0.16388c0.11454,-1.4213 0.20976,-3.00891 0.41282,-4.37736c-0.08117,-0.08165 -0.1616,-0.16444 -0.23687,-0.24936c-2.49562,-0.15828 -5.32802,0.24369 -6.64984,0.41005c-2.27396,-0.19871 -4.55021,-0.42981 -6.78338,-0.5173c-0.19798,0.86423 -0.36881,1.74416 -0.52926,2.61508l0.76228,-0.02225c2.42583,0.35001 4.99756,0.89933 7.60746,1.38279c1.00867,0.81157 3.28806,1.23863 5.43871,1.18648c-0.023,-0.08417 -0.03528,-0.17277 -0.03528,-0.26424zM552.21875,311.80702v0.95125c0.73353,-0.05856 1.45766,-0.1539 2.16969,-0.29263c0,0 0.33438,-0.06031 0.70968,0.03851c0.25318,-1.03882 0.47234,-2.10976 0.64277,-3.19812l-1.41309,-0.08025c-0.48974,-0.18899 -0.95601,-0.32746 -1.40776,-0.42741c0.0721,1.06206 -0.39729,2.53093 -0.70129,3.00865zM543.50861,343.15985c-1.1713,4.69798 -4.2551,8.96872 -6.74385,13.06782c-0.87061,1.43395 -1.69716,3.46349 -3.14696,4.44354c-2.29125,1.54885 -5.69608,1.1593 -6.55172,-1.25464c-0.30983,0.22099 -0.65256,0.3975 -1.03604,0.51526c-6.54068,2.00839 -4.77784,-6.30613 -3.75546,-9.51218c1.83447,-3.39029 3.99768,-7.69182 6.99242,-10.20777c0.61347,-0.51538 1.27317,-1.00626 1.96111,-1.47418c-1.84911,0.53109 -3.37685,-0.11697 -3.80114,-2.81936c-0.24134,-1.53708 0.48839,-2.53529 1.0908,-3.79896c0.97709,-2.04964 1.82518,-4.18371 3.16385,-6.02705c1.31032,-1.80431 3.08025,-3.16809 4.22521,-5.03569c0,0 0.05109,-0.08121 0.14789,-0.18892c-0.35803,-0.07031 -0.71739,-0.14952 -1.07846,-0.23892c-0.9226,-0.22844 -3.68585,-0.7971 -4.29507,-1.3263c-1.92759,-1.67439 -1.47864,-2.63053 -1.22998,-4.64976c0.27974,-2.27163 0.69415,-4.87301 1.30174,-7.34178c-1.32585,-0.6713 -2.28772,-1.82603 -3.8739,-2.40143c-2.01913,-1.04628 -3.00069,-1.96366 -3.84041,-4.12171c-1.22676,-3.15273 -1.28319,-9.8559 3.59682,-9.77017c2.04251,0.03589 4.15093,1.90518 6.30685,2.08863c1.37774,0.11723 3.13007,-0.04596 4.67778,0.23988c-0.5151,-2.32415 -0.62951,-4.6655 0.4979,-6.60907c1.71129,-2.95011 4.36158,-2.1647 7.14704,-1.46127c4.63868,1.17143 8.06463,3.60399 10.66404,7.60669c3.83112,6.1244 3.66384,13.83668 1.92971,20.62686c-0.71232,2.78919 -2.03865,5.96162 -4.63025,7.54824c-2.12403,1.30037 -4.30807,0.7296 -6.6026,0.53796c0.72125,2.14061 2.01304,3.76406 2.93861,5.7981c1.34794,2.96226 1.46214,6.62634 1.33976,9.77379c-0.06075,1.56249 0.50433,3.98371 -0.12945,5.45367c-0.88988,2.06396 -2.26432,3.08347 -4.55575,1.74484c-0.68234,-0.39861 -1.1186,-1.13228 -1.39267,-1.97252c-0.34483,0.39763 -0.80205,0.64507 -1.31782,0.76641zM549.20719,312.75424c-0.00291,0.01873 -0.0058,0.03746 -0.00867,0.0562c0.31944,0.0122 0.63784,0.01941 0.955,0.02112c-0.00807,-1.13403 0.34991,-3.09602 0.89804,-4.26048c-0.33124,-0.01121 -0.66141,-0.00961 -0.99466,-0.00073c-0.15533,-0.0688 -0.31895,-0.13104 -0.48976,-0.18722c0.00247,1.19948 -0.22905,3.3172 -0.59965,4.42165c0.08098,-0.01593 0.16092,-0.03278 0.23969,-0.05054zM533.47819,313.33634l-0.56238,0.05885c0,0 -0.13055,0.00707 -0.31563,-0.02207c-0.01828,0.09436 -0.03669,0.18823 -0.05523,0.28157c-0.13758,0.69253 -0.89978,2.83612 -0.02514,3.37765c0.92179,0.57073 2.10981,0.50053 3.16208,0.76164c2.97487,0.73819 5.83181,0.72724 8.80332,0.79355c0.08992,-0.00555 0.18602,-0.00373 0.2887,0.0067c0.48319,0.01171 0.96959,0.02615 1.46019,0.04686c1.55719,0.08326 4.02128,0.90012 5.42516,-0.04755c0.87789,-0.5926 1.54683,-1.41543 2.06533,-2.33791c-0.40714,-0.08047 -0.74438,-0.3254 -0.95187,-0.65481c-6.35662,0.49082 -13.08115,-1.36798 -19.29453,-2.26449zM531.13186,342.46047c-2.63287,2.16683 -4.55643,6.16439 -6.16963,9.10395c-0.26124,0.83189 -1.91552,5.19975 -0.56271,5.71074c1.23499,0.46649 2.31293,-2.28984 2.6562,-2.93716c1.27891,-2.41176 3.09651,-4.40513 4.81936,-6.48469c1.24492,-2.46187 2.52955,-4.90224 4.10763,-7.22194l0.84614,-1.24147c0.07202,-0.10565 0.15545,-0.19889 0.24752,-0.27918c-0.05362,-0.11217 -0.10236,-0.22656 -0.14589,-0.34297c-2.01685,1.05861 -4.08382,2.28143 -5.7986,3.6927zM540.2035,322.52624c-0.60911,4.23636 -1.38814,8.4602 -2.00162,12.70354c-0.0086,0.23072 -0.12524,1.85071 0.04168,2.21059c0.07477,0.16119 0.27409,0.30175 0.53721,0.41179c0.52375,-0.20309 1.19087,0.0023 1.84368,0.21691c0.31233,-0.05638 0.55293,-0.17645 0.63503,-0.37435c2.12339,-5.1179 1.3649,-10.89454 1.7793,-16.22915c-0.84995,-0.02123 -1.69323,-0.04503 -2.53501,-0.08876zM538.71644,342.34993l-0.00536,-0.00227c-0.00132,0.00795 -0.00265,0.0159 -0.004,0.02387c-0.47738,2.80962 -2.48187,5.13435 -4.52982,7.36444c-0.95201,1.89634 -1.8863,3.80385 -2.92385,5.67604c-0.45692,0.86163 -1.08752,1.63487 -1.456,2.53785c-0.56951,1.39562 1.87855,0.51693 2.16857,0.31186c0.20276,-0.14337 1.4198,-1.94469 1.50367,-2.08361c2.49097,-4.1262 5.87896,-8.66707 7.12303,-13.39273c-0.60134,-0.26117 -1.16269,-0.62072 -1.61645,-1.04842zM534.0444,327.81028c-1.23976,1.69108 -1.97928,3.70143 -2.89602,5.57951c-0.0857,0.17557 -1.28667,2.55365 -0.98053,2.81781c0.39513,0.34095 0.92121,-0.49454 1.35395,-0.78628c2.21451,-1.49297 3.12357,-2.57819 3.79207,-5.15373c0.56678,-1.47664 0.75795,-2.92583 1.13735,-4.46334l0.1151,-0.84851c0,0 0.00369,-0.02556 0.01348,-0.0694c-0.85701,0.94629 -1.75405,1.85812 -2.5354,2.92394zM546.20839,333.42876c0.44577,1.66798 0.70265,3.34476 1.09922,5.03028c-0.03186,0.90162 0.02812,1.82889 0.2963,2.6903c0.09504,0.30527 0.22505,1.18509 0.35269,0.89196c0.56367,-1.29458 -0.02245,-3.64294 0.02929,-5.0041c0.10237,-2.69282 0.09202,-5.91881 -1.0899,-8.45488c-0.25715,-0.55177 -0.53636,-1.07776 -0.82208,-1.59379c-0.00897,0.25693 -0.02415,0.5132 -0.04734,0.76854c-0.13137,1.44628 -0.43084,2.85689 -0.7101,4.2724c0.80821,0.28705 0.89527,1.05629 0.89194,1.3993z" fill="#000000" stroke="none" stroke-width="0.5" stroke-linecap="butt"/><path d="M552.89644,308.75429c0.45175,0.09995 0.95255,0.23371 1.44229,0.4227l1.44051,0.09697c-0.17043,1.08836 -0.40076,2.23333 -0.65394,3.27215c-0.3753,-0.09882 -0.7251,-0.03188 -0.7251,-0.03188c-0.71203,0.13873 -1.48116,0.22283 -2.21469,0.28139l-0.00994,-0.96339c0.304,-0.47772 0.79297,-2.01589 0.72087,-3.07795z" data-paper-data="{&quot;noHover&quot;:false,&quot;origItem&quot;:[&quot;Path&quot;,{&quot;applyMatrix&quot;:true,&quot;segments&quot;:[[[552.21875,311.80702],[0.304,-0.47772],[0,0]],[[552.21875,312.75827],[0,0],[0.73353,-0.05856]],[[554.38844,312.46564],[-0.71203,0.13873],[0,0]],[[555.09812,312.50415],[-0.3753,-0.09882],[0.25318,-1.03882]],[[555.74089,309.30603],[-0.17043,1.08836],[0,0]],[[554.3278,309.22578],[0,0],[-0.48974,-0.18899]],[[552.92004,308.79837],[0.45175,0.09995],[0.0721,1.06206]]],&quot;closed&quot;:true,&quot;fillColor&quot;:[0,0,0,1]}]}" fill="url(#color-4)" stroke="none" stroke-width="0.5" stroke-linecap="butt"/><path d="M549.18968,312.80108c-0.07877,0.01776 -0.16263,0.03295 -0.24361,0.04888c0.3706,-1.10445 0.61379,-3.31639 0.61132,-4.51587c0.17081,0.05618 0.34535,0.11747 0.50068,0.18627c0.33325,-0.00888 0.68504,-0.005 1.01628,0.00621c-0.54813,1.16446 -0.92566,3.22086 -0.91759,4.35489c-0.31716,-0.00171 -0.65606,-0.01189 -0.9755,-0.02409c0.00287,-0.01874 0.00553,-0.03756 0.00844,-0.05629z" data-paper-data="{&quot;noHover&quot;:false,&quot;origItem&quot;:[&quot;Path&quot;,{&quot;applyMatrix&quot;:true,&quot;segments&quot;:[[[549.20719,312.75424],[0,0],[-0.00291,0.01873]],[[549.19852,312.81044],[0.00287,-0.01874],[0.31944,0.0122]],[[550.15352,312.83156],[-0.31716,-0.00171],[-0.00807,-1.13403]],[[551.05156,308.57108],[-0.54813,1.16446],[-0.33124,-0.01121]],[[550.0569,308.57035],[0.33325,-0.00888],[-0.15533,-0.0688]],[[549.56714,308.38313],[0.17081,0.05618],[0.00247,1.19948]],[[548.96749,312.80478],[0.3706,-1.10445],[0.08098,-0.01593]],[[549.20718,312.75424],[-0.07877,0.01776],[0,0]]],&quot;closed&quot;:true,&quot;fillColor&quot;:[0,0,0,1]}]}" fill="url(#color-5)" stroke="none" stroke-width="0.5" stroke-linecap="butt"/><path d="M546.95349,312.7664c0,0.09147 0.01171,0.18163 0.03471,0.2658c-2.15065,0.05215 -4.44302,-0.35591 -5.45169,-1.16748c-2.6099,-0.48346 -5.26532,-1.06965 -7.69115,-1.41966l-0.76228,0.0224c0.16045,-0.87092 0.33475,-1.76937 0.53273,-2.6336c2.23317,0.08749 4.56108,0.28715 6.83504,0.48586c1.32182,-0.16636 4.19613,-0.53556 6.69175,-0.37728c0.07527,0.08492 0.15638,0.16972 0.23755,0.25137c-0.20306,1.36845 -0.29839,2.98633 -0.41293,4.40763c-0.00879,0.05333 -0.01372,0.10914 -0.01372,0.16495z" data-paper-data="{&quot;noHover&quot;:false,&quot;origItem&quot;:[&quot;Path&quot;,{&quot;applyMatrix&quot;:true,&quot;segments&quot;:[[[546.90625,312.75],[0,0],[0,-0.05581]],[[546.91961,312.58612],[-0.00879,0.05333],[0.11454,-1.4213]],[[547.33243,308.20876],[-0.20306,1.36845],[-0.08117,-0.08165]],[[547.09556,307.9594],[0.07527,0.08492],[-2.49562,-0.15828]],[[540.44572,308.36945],[1.32182,-0.16636],[-2.27396,-0.19871]],[[533.66234,307.85215],[2.23317,0.08749],[-0.19798,0.86423]],[[533.13308,310.46723],[0.16045,-0.87092],[0,0]],[[533.89536,310.44498],[0,0],[2.42583,0.35001]],[[541.50282,311.82777],[-2.6099,-0.48346],[1.00867,0.81157]],[[546.94153,313.01425],[-2.15065,0.05215],[-0.023,-0.08417]],[[546.90625,312.75001],[0,0.09147],[0,0]]],&quot;closed&quot;:true,&quot;fillColor&quot;:[0,0,0,1]}]}" fill="url(#color-6)" stroke="none" stroke-width="0.5" stroke-linecap="butt"/><path d="M539.17589,341.26658c0.51384,0.30036 1.08047,0.52495 1.65268,0.6486c-0.0369,0.10002 -0.05125,0.16579 -0.05125,0.16579c-1.08392,4.96622 -4.71148,9.81625 -7.31992,14.13703c-0.08387,0.13894 -1.30467,1.9389 -1.50743,2.08226c-0.29002,0.20507 -2.74633,1.0792 -2.17682,-0.31643c0.36847,-0.90298 0.99761,-1.67731 1.45453,-2.53894c1.03756,-1.87219 1.95973,-3.83021 2.91175,-5.72655c2.04795,-2.23008 4.10687,-4.57545 4.58426,-7.38507c0.00135,-0.00797 -0.03052,0.06066 -0.02921,0.0527l0.00532,0.00226z" data-paper-data="{&quot;noHover&quot;:false,&quot;origItem&quot;:[&quot;Path&quot;,{&quot;applyMatrix&quot;:true,&quot;segments&quot;:[[1084.41817,683.30254],[[1084.40675,683.30483],[0,0],[0.00679,0.01464]],[[1084.42703,683.3488],[-0.00673,-0.01468],[2.37574,5.18106]],[[1085.23593,700.62198],[0.87263,-5.99234],[0.56264,4.20632]],[[1086.79716,713.29588],[-0.39405,-4.26276],[0.2154,1.93864]],[[1087.24948,719.13008],[-0.40813,-1.90739],[0.63079,2.94797]],[[1091.18463,717.20284],[-0.24832,0.66559],[0.1736,-0.46531]],[[1091.32275,712.06563],[0.01788,0.32408],[-0.55598,-10.07886]],[[1087.52169,680.62017],[3.8025,9.42836],[0,0]],[[1087.42007,680.28843],[0.05167,0.20687],[-1.08495,0.44018]],[[1083.97297,681.07658],[1.18752,-0.0824],[0,0]]],&quot;closed&quot;:true}]}" fill="url(#color-7)" stroke="none" stroke-width="0.5" stroke-linecap="butt"/><path d="M536.95733,338.73584c0.04352,0.11642 0.09322,0.23162 0.14683,0.34379c-0.09207,0.08029 -0.17549,0.17354 -0.24751,0.27919l-0.84547,1.24207c-1.57807,2.3197 -2.85043,4.7996 -4.09535,7.26147c-1.72285,2.07956 -3.59598,4.10295 -4.87489,6.5147c-0.34326,0.64732 -1.4261,3.40142 -2.66109,2.93493c-1.35281,-0.51099 0.28991,-4.88798 0.55115,-5.71987c1.6132,-2.93956 3.57972,-7.00486 6.21258,-9.17169c1.71479,-1.41126 3.7969,-2.62597 5.81375,-3.68458z" data-paper-data="{&quot;noHover&quot;:false,&quot;origItem&quot;:[&quot;Path&quot;,{&quot;applyMatrix&quot;:true,&quot;segments&quot;:[[[1072.00798,692.02832],[1.24434,-4.26381],[-1.91055,6.54663]],[[1072.06621,714.02337],[-0.64499,-6.67517],[0.50528,1.66908]],[[1077.56871,724.09509],[-2.8113,0.67928],[2.56645,-0.62012]],[[1078.65013,716.2491],[0.16183,1.45645],[-0.60293,-5.42633]],[[1079.31067,700.10372],[-0.5049,5.37738],[-0.71558,-5.47088]],[[1077.96453,683.5416],[0.00485,5.61117],[0,0]],[[1077.96453,680.53681],[0,0],[0,-0.25573]],[[1078.05912,679.79663],[-0.06173,0.23639],[-0.21497,-0.12498]],[[1077.43171,679.39415],[0.20304,0.14337],[-2.14075,4.02126]]],&quot;closed&quot;:true}]}" fill="url(#color-8)" stroke="none" stroke-width="0.5" stroke-linecap="butt"/><path d="M545.29291,331.995c0.27926,-1.41551 0.59612,-2.83294 0.72749,-4.27922c0.02319,-0.25534 0.03924,-0.51172 0.04821,-0.76865c0.28572,0.51601 0.5692,1.04168 0.82636,1.59345c1.18192,2.53606 1.20812,5.84279 1.10576,8.5356c-0.05175,1.36116 0.52461,3.71194 -0.03906,5.00652c-0.12764,0.29314 -0.25915,-0.58653 -0.35419,-0.8918c-0.26818,-0.86141 -0.32885,-1.78862 -0.297,-2.69024c-0.39657,-1.68552 -0.68114,-3.43748 -1.12691,-5.10545c0.00333,-0.34301 -0.08244,-1.11315 -0.89065,-1.40021z" data-paper-data="{&quot;noHover&quot;:false,&quot;origItem&quot;:[&quot;Path&quot;,{&quot;applyMatrix&quot;:true,&quot;segments&quot;:[[[1095.1308,664.17353],[-0.09138,-0.67994],[1.3588,3.17445]],[[1098.74344,673.81701],[-1.26643,-3.22323],[0.19447,1.79386]],[[1100.09835,679.05782],[-0.77689,-1.62856],[0.27532,0.57713]],[[1101.05124,680.72271],[-0.16893,0.61671],[0.74605,-2.72363]],[[1099.67997,670.80873],[0.28634,2.70919],[-0.56648,-5.35967]],[[1095.10764,654.38359],[3.06397,4.68256],[-0.66663,-1.01879]],[[1093.02512,651.4635],[0.71296,0.93985],[0.05562,0.51116]],[[1093.15091,652.99834],[-0.02702,-0.51205],[0.15304,2.90043]],[[1092.96554,661.65838],[0.1485,-2.88175],[1.68185,0.33738]]],&quot;closed&quot;:true}]}" fill="url(#color-9)" stroke="none" stroke-width="0.5" stroke-linecap="butt"/><path d="M536.58716,324.91957l-0.11308,0.84975c-0.3794,1.53752 -0.55218,3.01536 -1.11896,4.49201c-0.66851,2.57554 -1.63342,3.70612 -3.84792,5.19909c-0.43274,0.29174 -0.96465,1.12454 -1.35978,0.78358c-0.30614,-0.26417 0.8897,-2.64564 0.9754,-2.82121c0.91673,-1.87809 1.69225,-3.96184 2.932,-5.65293c0.78136,-1.06582 1.68868,-1.97348 2.54569,-2.91977c-0.00979,0.04384 -0.01336,0.06947 -0.01336,0.06947z" data-paper-data="{&quot;noHover&quot;:false,&quot;origItem&quot;:[&quot;Path&quot;,{&quot;applyMatrix&quot;:true,&quot;segments&quot;:[[[1073.63116,650.01387],[-0.00687,0.08958],[-1.42618,2.11797]],[[1069.44743,656.52599],[1.24229,-2.33296],[-1.97109,3.7016]],[[1065.30836,668.3978],[1.27826,-3.97951],[-0.1195,0.37202]],[[1064.17222,674.25572],[-0.68146,-0.43548],[0.87954,0.56207]],[[1066.62778,672.31256],[-0.77328,0.70111],[3.9572,-3.58784]],[[1072.66221,661.02765],[-0.58769,5.28922],[0.70018,-3.0849]],[[1073.63879,651.86762],[-0.31189,3.15187],[0,0]],[1073.62429,650.15511]],&quot;closed&quot;:true}]}" fill="url(#color-10)" stroke="none" stroke-width="0.5" stroke-linecap="butt"/><path d="M540.50138,321.33512c0.84177,0.04373 1.69754,0.0687 2.54749,0.08993c-0.4144,5.33461 0.33546,11.19346 -1.78794,16.31135c-0.29959,0.72207 -2.72418,0.40546 -3.03132,-0.25671c-0.16692,-0.35988 -0.05513,-1.98194 -0.04652,-2.21265c0.61348,-4.24334 1.40681,-8.54594 2.01592,-12.78229z" data-paper-data="{&quot;noHover&quot;:false,&quot;origItem&quot;:[&quot;Path&quot;,{&quot;applyMatrix&quot;:true,&quot;segments&quot;:[[[1080.13018,644.30709],[0,0],[0.00423,8.55984]],[[1079.79632,670.02545],[0.00242,-8.57492],[0.04887,0.45917]],[[1080.5102,674.38941],[-0.43321,-0.6647],[0.79709,1.22304]],[[1086.55285,674.03147],[-0.38679,1.51491],[2.7415,-10.73736]],[[1085.43966,641.39766],[0.70336,10.67823],[-1.68854,0.20073]],[[1080.39626,641.946],[1.67878,-0.15386],[0,0]]],&quot;closed&quot;:true}]}" fill="url(#color-11)" stroke="none" stroke-width="0.5" stroke-linecap="butt"/><path d="M556.06235,306.42368l-0.6658,0.09388c-3.00215,-1.11917 -5.34006,-0.74634 -8.39179,-0.70776c-3.54603,0.04481 -7.3266,-0.76709 -10.86664,-1.07224c-0.43896,-0.03783 -1.02822,0.04486 -1.63896,0.1344c0.12266,-0.33702 0.25287,-0.66668 0.39404,-0.98528c0,0 0.57568,-1.34628 -0.76417,-1.9279c-1.33986,-0.58163 -1.85345,0.70993 -1.85345,0.70993c-0.25773,0.60388 -0.56293,1.29442 -0.78322,1.96086c-1.20369,-0.73493 -2.0132,-1.80547 -3.4779,-2.37886c-2.3176,-1.10368 -4.22792,-5.9258 -2.17061,-8.21018c0.4938,-0.5483 4.31085,1.52899 4.99436,1.70032c1.69795,0.4256 5.83397,-0.41853 7.19317,0.82381c0.77295,0.70649 0.62666,2.00003 1.258,2.83546l0.58126,1.55118c0.17678,0.49238 0.60199,0.87142 1.15588,0.95134c0.79843,0.1152 1.52339,-0.43619 1.63859,-1.23462c0.03178,-0.22026 0.01084,-0.43543 -0.05029,-0.63498l-0.44115,-1.55018c-0.74565,-2.6435 -1.74152,-5.30455 -1.929,-8.06768c-0.03348,-0.49356 0.07835,-2.69676 0.72817,-2.99044c0.76979,-0.3479 2.87789,0.47163 3.60177,0.64705c3.93012,0.95236 6.75644,3.01694 8.93675,6.38087c2.27169,3.51776 2.86762,7.79218 2.59112,11.97249c-0.0258,-0.00145 -0.04014,-0.00144 -0.04014,-0.00144z" data-paper-data="{&quot;noHover&quot;:false,&quot;origItem&quot;:[&quot;Path&quot;,{&quot;applyMatrix&quot;:true,&quot;segments&quot;:[[[1106.92786,607.85856],[-0.05147,0.00449],[-0.64665,-8.3539]],[[1098.37558,584.96072],[5.50155,6.31458],[-5.27673,-6.03614]],[[1078.92297,574.93726],[8.05168,0.76268],[-1.48302,-0.14047]],[[1071.64153,574.68617],[1.42444,-0.90854],[-1.20243,0.76694]],[[1071.06461,580.81128],[-0.20725,-0.96743],[1.1603,5.41606]],[[1077.21195,596.218],[-2.23104,-5.01984],[0,0]],[[1078.52163,599.16477],[0,0],[0.17803,0.37754]],[[1078.7992,600.40924],[0,-0.44508],[0,1.6134]],[[1075.87788,603.33056],[1.6134,0],[-1.11924,0]],[[1073.29585,601.77695],[0.49056,0.92419],[0,0]],[[1071.67782,598.8645],[0,0],[-1.48833,-1.4734]],[[1068.33248,593.54604],[1.73184,1.17773],[-3.04537,-2.07099]],[[1053.85789,593.96489],[3.48266,0.35751],[-1.40194,-0.14391]],[[1043.65268,592.0231],[0.82087,-1.22639],[-3.41998,5.10954]],[[1050.28235,607.60987],[-4.90292,-1.52279],[3.06313,0.71668]],[[1057.83118,611.30708],[-2.59262,-1.11101],[0.24572,-1.38213]],[[1058.70331,607.31948],[-0.3377,1.26901],[0,0]],[[1062.29034,605.26975],[-2.81838,-0.76865],[2.81838,0.76865]],[[1064.34007,608.85678],[0,0],[-0.18846,0.67098]],[[1063.83911,610.9182],[0.14655,-0.70216],[1.1834,-0.35168]],[[1067.03584,610.17926],[-0.87972,0.05047],[7.09467,-0.40706]],[[1088.76453,609.21092],[-7.00658,1.10151],[6.02988,-0.94797]],[[1105.55785,608.24117],[-6.26241,-1.35794],[0,0]],[1106.84804,607.86709]],&quot;closed&quot;:true}]}" fill="url(#color-12)" stroke="none" stroke-width="0.5" stroke-linecap="butt"/><path d="M552.81426,315.59687c0.20749,0.32941 0.54491,0.57717 0.95205,0.65764c-0.5185,0.92248 -1.18851,1.75585 -2.0664,2.34845c-1.40386,0.94767 -3.87308,0.14326 -5.43027,0.06001c-0.4906,-0.0207 -0.98383,-0.02673 -1.46702,-0.03845c-0.10268,-0.01043 -0.20124,-0.01011 -0.29116,-0.00455c-2.97152,-0.06632 -5.89582,-0.08064 -8.87071,-0.81884c-1.05226,-0.26111 -2.24086,-0.19611 -3.16265,-0.76684c-0.87463,-0.54153 -0.11092,-2.69837 0.02666,-3.3909c0.01855,-0.09334 0.03727,-0.18828 0.05555,-0.28263c0.1851,0.02914 0.31572,0.0218 0.31572,0.0218l0.56267,-0.05977c6.21339,0.89651 13.01893,2.7649 19.37554,2.27408z" data-paper-data="{&quot;noHover&quot;:false,&quot;origItem&quot;:[&quot;Path&quot;,{&quot;applyMatrix&quot;:true,&quot;segments&quot;:[[[1064.19261,628.03656],[12.55545,0],[0,0]],[1063.09619,628.31369],[[1062.46509,628.36014],[0.37471,0.00483],[-0.00924,0.19201]],[[1062.43618,628.93328],[0.01005,-0.19005],[-0.07454,1.41016]],[[1063.35112,635.62651],[-1.886,-0.82214],[1.9877,0.86648]],[[1069.828,636.23104],[-2.15753,-0.21633],[6.09961,0.61158]],[[1087.48083,635.2875],[-5.90106,0.71743],[0.17641,-0.03668]],[[1088.05424,635.21831],[-0.20624,0.00867],[0.95982,-0.11483]],[[1090.95808,634.89401],[-0.97707,0.09914],[3.10624,-0.27995]],[[1101.6836,633.25037],[-2.50829,2.27687],[1.56851,-1.42379]],[[1105.10419,628.03258],[-0.76291,1.97414],[-0.82893,-0.04299]],[[1103.03293,627.00827],[0.50482,0.59279],[-12.44275,2.78715]]],&quot;closed&quot;:true}]}" fill="url(#color-13)" stroke="none" stroke-width="0.5" stroke-linecap="butt"/><path d="M549.84802,319.11369l0.90258,-3.91763" fill="none" stroke="#000000" stroke-width="1.5" stroke-linecap="round"/><path d="M542.12698,320.02357l0.28607,-1.98266l0.80724,-3.25675" fill="none" stroke="#000000" stroke-width="1.5" stroke-linecap="round"/><path d="M537.0528,318.95412l1.75584,-6.32444" fill="none" stroke="#000000" stroke-width="1.5" stroke-linecap="round"/><path d="M535.90452,312.88529l-1.49361,4.50701" fill="none" stroke="#000000" stroke-width="1.5" stroke-linecap="round"/><path d="M546.14163,319.08489l1.02178,-4.74374" fill="none" stroke="#000000" stroke-width="1.5" stroke-linecap="round"/><path d="M531.65148,315.4762l21.3629,1.56445" fill="none" stroke="#000000" stroke-width="1.5" stroke-linecap="round"/><path d="M548.34375,308l-2.3125,-1.9375" fill="none" stroke="#000000" stroke-width="2" stroke-linecap="round"/><path d="M554.40625,306.25l-2.3125,1.9375" data-paper-data="{&quot;index&quot;:null}" fill="none" stroke="#000000" stroke-width="2" stroke-linecap="round"/></g></g></svg>