<svg version="1.1" xmlns="http://www.w3.org/2000/svg" xmlns:xlink="http://www.w3.org/1999/xlink" width="37.88696" height="36.69486" viewBox="0,0,37.88696,36.69486"><defs><linearGradient x1="550.00918" y1="326.27451" x2="556.05123" y2="326.27451" gradientUnits="userSpaceOnUse" id="color-1"><stop offset="0" stop-color="#006cff"/><stop offset="1" stop-color="#00a3ff"/></linearGradient><linearGradient x1="533.7675" y1="326.97294" x2="542.98645" y2="326.97294" gradientUnits="userSpaceOnUse" id="color-2"><stop offset="0" stop-color="#006cff"/><stop offset="1" stop-color="#00a3ff"/></linearGradient><linearGradient x1="545.66455" y1="326.76276" x2="547.31279" y2="326.76276" gradientUnits="userSpaceOnUse" id="color-3"><stop offset="0" stop-color="#006cff"/><stop offset="1" stop-color="#00a3ff"/></linearGradient><linearGradient x1="539.82865" y1="304.40346" x2="539.82865" y2="322.97225" gradientUnits="userSpaceOnUse" id="color-4"><stop offset="0" stop-color="#9e9e9e"/><stop offset="1" stop-color="#717171"/></linearGradient><linearGradient x1="544.27766" y1="330.78218" x2="544.27766" y2="335.52451" gradientUnits="userSpaceOnUse" id="color-5"><stop offset="0" stop-color="#9e9e9e"/><stop offset="1" stop-color="#717171"/></linearGradient></defs><g transform="translate(-521.05652,-301.65257)"><g data-paper-data="{&quot;isPaintingLayer&quot;:true}" fill-rule="nonzero" stroke-linejoin="miter" stroke-miterlimit="10" stroke-dasharray="" stroke-dashoffset="0" style="mix-blend-mode: normal"><path d="M553.1297,337.20457c-2.42197,0 -4.89687,0 -7.22012,0c-2.72884,0.0041 -5.47845,0.83333 -8.16666,0.83333c0,0 -0.25,0 -0.25,0.25c0,0.02166 0.00187,0.04145 0.0053,0.05953c-0.13815,-0.01115 -0.27672,-0.02364 -0.41574,-0.03751c-0.94577,-0.09434 -3.7619,-0.26256 -4.44045,-0.69933c-2.14694,-1.38196 -1.83915,-2.3924 -1.8814,-4.42645c-0.04754,-2.2883 -0.00886,-4.92219 0.23993,-7.45243c-1.40812,-0.47508 -2.52503,-1.48061 -4.17714,-1.82359c-2.14785,-0.74721 -3.25036,-1.51501 -4.38966,-3.53102c-1.66442,-2.94522 -2.67754,-9.57163 2.16469,-10.18369c2.0267,-0.25618 4.38047,1.29286 6.54048,1.16655c1.38035,-0.08071 3.09142,-0.49249 4.66409,-0.43061c-0.84174,-2.22678 -1.28933,-4.52778 -0.45103,-6.61243c1.27245,-3.16425 4.00774,-2.76538 6.8651,-2.46695c4.75843,0.49698 8.49665,2.41535 11.64104,6.00581c4.66647,5.51451 5.60228,13.17163 4.85562,20.13986c-0.3067,2.86233 -1.16638,6.19164 -3.50484,8.13211c-0.65821,0.54619 -1.35495,0.87496 -2.07921,1.07681zM555.88606,321.22141c0,0 0.01417,-0.00201 0.03991,-0.00426c-0.32332,-4.17695 -1.52537,-8.29163 -4.27614,-11.44892c-2.63836,-3.01807 -5.70046,-4.63039 -9.7263,-5.01173c-0.74151,-0.07024 -2.9285,-0.57982 -3.64072,-0.12555c-0.60121,0.38347 -0.39208,2.57884 -0.28846,3.06256c0.58015,2.70803 1.95815,5.19344 3.07367,7.70336l0.65484,1.47339c0.08901,0.18876 0.13878,0.39969 0.13878,0.62223c0,0.8067 -0.65396,1.46066 -1.46066,1.46066c-0.55962,0 -1.04574,-0.31471 -1.29102,-0.7768l-0.80901,-1.45623c-0.74416,-0.7367 -0.80675,-2.07037 -1.67267,-2.65923c-1.52269,-1.03549 -5.49597,0.38819 -7.2373,0.20943c-0.70097,-0.07195 -4.69217,-1.58409 -5.10261,-0.97089c-1.70998,2.55478 0.86338,7.032 3.31484,7.79339c1.53156,0.35834 2.4781,1.29311 3.77441,1.84861c0.12286,-0.69106 0.26722,-1.3593 0.43607,-1.9938c0,0 0.38432,-1.40918 1.79351,-1.02486c1.40918,0.38432 1.02486,1.79351 1.02486,1.79351c-0.09423,0.33549 -0.17721,0.67963 -0.25048,1.03071c0.5917,-0.17584 1.15851,-0.34423 1.59837,-0.36947c3.54733,-0.20353 7.36105,0.06658 10.86434,-0.48417c3.01494,-0.47398 5.26545,-1.16384 8.39666,-0.48487l0.6451,-0.18704zM553.9785,330.79205c-6.22137,1.39357 -13.14243,0.51414 -19.42016,0.51414l-0.54821,0.13856c0,0 -0.12819,0.02564 -0.31555,0.02323c-0.00462,0.09601 -0.00942,0.19154 -0.01445,0.28657c-0.03727,0.70508 -0.48553,2.93555 0.45747,3.34662c0.99385,0.43324 2.15968,0.1941 3.23844,0.30226c3.0498,0.30579 5.87588,-0.11305 8.82641,-0.47177c0.0882,-0.01834 0.18358,-0.03026 0.2867,-0.0346c0.47991,-0.05741 0.96339,-0.11258 1.45192,-0.16215c1.55312,-0.13997 4.10862,0.31662 5.36276,-0.82182c0.78425,-0.71189 1.32884,-1.62182 1.71029,-2.60889c-0.41445,-0.0215 -0.78321,-0.21576 -1.03562,-0.51215zM542.79514,328.68644c-0.02199,-0.19778 -0.00645,-0.33769 -0.00645,-0.33769c0.10631,-0.94332 0.15949,-1.89419 0.158,-2.84348l-0.04754,-0.24615c-2.98355,0.21684 -6.01728,0.2871 -8.94173,0.59276c-0.07253,0.88366 -0.11595,1.77895 -0.15038,2.66386l0.75129,-0.13088c2.60791,0 5.41155,0.19973 8.23681,0.30159zM550.20602,325.75299c-0.10278,0.92501 -0.15533,1.85672 -0.16357,2.78767c1.76506,-0.18622 3.47652,-0.52031 5.08748,-1.08243c0,0 0.32234,-0.10745 0.70791,-0.06323c0.10223,-1.06433 0.16621,-2.15559 0.17946,-3.25713l-1.41007,0.12237c-1.66779,-0.3817 -3.01223,-0.26791 -4.39908,-0.02521zM545.868,325.50526c-0.00149,1.05699 -0.06062,2.11541 -0.17587,3.16609c0,0 -0.00301,0.02704 -0.01189,0.07335c0.48141,0.00014 0.96174,-0.00553 1.44009,-0.01848c0.00461,-1.04653 0.05328,-2.09479 0.16883,-3.13479l-0.00127,-0.81063c-0.49572,0.07821 -0.99523,0.14655 -1.49774,0.20695z" data-paper-data="{&quot;index&quot;:null}" fill="#000000" stroke="none" stroke-width="0.5" stroke-linecap="butt"/><path d="M550.17435,324.21058c1.38685,-0.2427 2.79081,-0.3649 4.4586,0.0168l1.41829,-0.11379c-0.01325,1.10154 -0.0724,2.23253 -0.17463,3.29686c-0.38557,-0.04422 -0.71032,0.06825 -0.71032,0.06825c-1.61096,0.56211 -3.39205,0.90095 -5.15711,1.08717c0.00825,-0.93095 0.05302,-1.89549 0.1558,-2.82049z" data-paper-data="{&quot;noHover&quot;:false,&quot;origItem&quot;:[&quot;Path&quot;,{&quot;applyMatrix&quot;:true,&quot;segments&quot;:[[[1095.48797,616.93017],[0,0],[-0.20556,1.85001]],[[1095.16083,622.5055],[0.01649,-1.8619],[3.53012,-0.37244]],[[1105.33578,620.34065],[-3.22192,1.12423],[0,0]],[[1106.75161,620.21419],[-0.77114,-0.08843],[0.20447,-2.12866]],[[1107.11054,613.69993],[-0.02651,2.20308],[0,0]],[[1104.2904,613.94467],[0,0],[-3.33558,-0.7634]],[[1095.49225,613.89425],[2.7737,-0.4854],[0,0]]],&quot;closed&quot;:true}],&quot;index&quot;:null}" fill="url(#color-1)" stroke="none" stroke-width="0.5" stroke-linecap="butt"/><path d="M542.82852,328.36119c0,0 -0.01647,0.14257 0.00552,0.34035c-2.82526,-0.10187 -5.70695,-0.30221 -8.31486,-0.30221l-0.75168,0.12975c0.03443,-0.8849 0.07693,-1.80381 0.14946,-2.68746c2.92445,-0.30565 6.03766,-0.38045 9.02121,-0.59728l0.04825,0.24818c0.0015,0.94929 -0.05158,1.92535 -0.15789,2.86867z" data-paper-data="{&quot;noHover&quot;:false,&quot;origItem&quot;:[&quot;Path&quot;,{&quot;applyMatrix&quot;:true,&quot;segments&quot;:[[[1080.65332,622.12172],[0,0],[0.21261,-1.88664]],[[1080.96932,616.43475],[0.00299,1.89858],[0,0]],[[1080.87424,615.94245],[0,0],[-5.96709,0.43366]],[[1062.99078,617.12796],[5.8489,-0.61131],[-0.14506,1.76731]],[[1062.69003,622.45567],[0.06885,-1.76981],[0,0]],[[1064.19261,622.19392],[0,0],[5.21582,0]],[[1080.66622,622.7971],[-5.65053,-0.20373],[-0.04399,-0.39556]]],&quot;closed&quot;:true}],&quot;index&quot;:null}" fill="url(#color-2)" stroke="none" stroke-width="0.5" stroke-linecap="butt"/><path d="M545.77493,324.9489c0.50251,-0.0604 1.03291,-0.12856 1.52863,-0.20677l0.00923,0.81491c-0.11555,1.04 -0.175,2.16236 -0.17961,3.2089c-0.47836,0.01295 -0.98722,0.01759 -1.46863,0.01745c0.00888,-0.04631 0.01158,-0.07348 0.01158,-0.07348c0.11525,-1.05068 0.17201,-2.18511 0.1735,-3.2421z" data-paper-data="{&quot;noHover&quot;:false,&quot;origItem&quot;:[&quot;Path&quot;,{&quot;applyMatrix&quot;:true,&quot;segments&quot;:[[[1086.81195,616.43475],[0,0],[-0.00298,2.11398]],[[1086.46022,622.76693],[0.2305,-2.10137],[0,0]],[[1086.43644,622.91363],[0.01777,-0.09261],[0.96282,0.00027]],[[1089.31661,622.87666],[-0.95671,0.02591],[0.00922,-2.09308]],[[1089.65427,616.60707],[-0.23111,2.08],[0,0]],[[1089.65172,614.98581],[0,0],[-0.99144,0.15641]],[[1086.65624,615.3997],[1.00502,-0.1208],[0,0]]],&quot;closed&quot;:true}],&quot;index&quot;:null}" fill="url(#color-3)" stroke="none" stroke-width="0.5" stroke-linecap="butt"/><path d="M555.96378,321.23484c-0.02574,0.00224 -0.03993,0.00431 -0.03993,0.00431l-0.64557,0.188c-3.13121,-0.67897 -5.39191,0.02392 -8.40685,0.49791c-3.50329,0.55075 -7.36106,0.28707 -10.90839,0.4906c-0.43986,0.02523 -1.01127,0.19124 -1.60297,0.36708c0.07327,-0.35109 0.15507,-0.69596 0.2493,-1.03145c0,0 0.37753,-1.41469 -1.03166,-1.79901c-1.40918,-0.38432 -1.73307,0.96734 -1.73307,0.96734c-0.16885,0.63451 -0.37231,1.36155 -0.49517,2.05261c-1.29631,-0.5555 -2.2504,-1.49946 -3.78197,-1.8578c-2.45146,-0.7614 -5.03084,-5.26128 -3.32085,-7.81605c0.41043,-0.61319 4.48502,0.89769 5.18599,0.96965c1.74133,0.17876 5.7144,-1.24738 7.23709,-0.21188c0.86592,0.58886 0.90587,1.89004 1.65003,2.62674l0.79682,1.45227c0.24528,0.46209 0.72027,0.77652 1.27989,0.77652c0.8067,0 1.44548,-0.64927 1.44548,-1.45597c0,-0.22254 -0.05144,-0.43252 -0.14046,-0.62129l-0.65801,-1.47129c-1.11552,-2.50992 -2.48121,-5.00148 -3.06136,-7.70951c-0.10362,-0.48372 -0.30757,-2.68031 0.29365,-3.06378c0.71222,-0.45427 2.91575,0.05581 3.65726,0.12605c4.02584,0.38135 7.11802,2.02115 9.75639,5.03922c2.75077,3.15729 3.95102,7.30279 4.27434,11.47974z" data-paper-data="{&quot;noHover&quot;:false,&quot;origItem&quot;:[&quot;Path&quot;,{&quot;applyMatrix&quot;:true,&quot;segments&quot;:[[[1106.92786,607.85856],[-0.05147,0.00449],[-0.64665,-8.3539]],[[1098.37558,584.96072],[5.50155,6.31458],[-5.27673,-6.03614]],[[1078.92297,574.93726],[8.05168,0.76268],[-1.48302,-0.14047]],[[1071.64153,574.68617],[1.42444,-0.90854],[-1.20243,0.76694]],[[1071.06461,580.81128],[-0.20725,-0.96743],[1.1603,5.41606]],[[1077.21195,596.218],[-2.23104,-5.01984],[0,0]],[[1078.52163,599.16477],[0,0],[0.17803,0.37754]],[[1078.7992,600.40924],[0,-0.44508],[0,1.6134]],[[1075.87788,603.33056],[1.6134,0],[-1.11924,0]],[[1073.29585,601.77695],[0.49056,0.92419],[0,0]],[[1071.67782,598.8645],[0,0],[-1.48833,-1.4734]],[[1068.33248,593.54604],[1.73184,1.17773],[-3.04537,-2.07099]],[[1053.85789,593.96489],[3.48266,0.35751],[-1.40194,-0.14391]],[[1043.65268,592.0231],[0.82087,-1.22639],[-3.41998,5.10954]],[[1050.28235,607.60987],[-4.90292,-1.52279],[3.06313,0.71668]],[[1057.83118,611.30708],[-2.59262,-1.11101],[0.24572,-1.38213]],[[1058.70331,607.31948],[-0.3377,1.26901],[0,0]],[[1062.29034,605.26975],[-2.81838,-0.76865],[2.81838,0.76865]],[[1064.34007,608.85678],[0,0],[-0.18846,0.67098]],[[1063.83911,610.9182],[0.14655,-0.70216],[1.1834,-0.35168]],[[1067.03584,610.17926],[-0.87972,0.05047],[7.09467,-0.40706]],[[1088.76453,609.21092],[-7.00658,1.10151],[6.02988,-0.94797]],[[1105.55785,608.24117],[-6.26241,-1.35794],[0,0]],[1106.84804,607.86709]],&quot;closed&quot;:true}],&quot;index&quot;:null}" fill="url(#color-4)" stroke="none" stroke-width="0.5" stroke-linecap="butt"/><path d="M534.51732,331.29839c6.27772,0 13.28034,0.87735 19.50171,-0.51622c0.25241,0.2964 0.62175,0.49344 1.03621,0.51494c-0.38145,0.98707 -0.92558,1.90758 -1.70984,2.61948c-1.25414,1.13844 -3.81292,0.69491 -5.36604,0.83488c-0.48853,0.04957 -0.97756,0.11404 -1.45747,0.17145c-0.10312,0.00434 -0.20061,0.01874 -0.28882,0.03708c-2.95053,0.35871 -5.84692,0.76216 -8.89672,0.45637c-1.07876,-0.10816 -2.2459,0.12591 -3.23975,-0.30733c-0.943,-0.41107 -0.49513,-2.65487 -0.45786,-3.35995c0.00503,-0.09502 0.01,-0.19167 0.01462,-0.28767c0.18736,0.00241 0.3156,-0.02351 0.3156,-0.02351l0.54837,-0.13951z" data-paper-data="{&quot;noHover&quot;:false,&quot;origItem&quot;:[&quot;Path&quot;,{&quot;applyMatrix&quot;:true,&quot;segments&quot;:[[[1064.19261,628.03656],[12.55545,0],[0,0]],[1063.09619,628.31369],[[1062.46509,628.36014],[0.37471,0.00483],[-0.00924,0.19201]],[[1062.43618,628.93328],[0.01005,-0.19005],[-0.07454,1.41016]],[[1063.35112,635.62651],[-1.886,-0.82214],[1.9877,0.86648]],[[1069.828,636.23104],[-2.15753,-0.21633],[6.09961,0.61158]],[[1087.48083,635.2875],[-5.90106,0.71743],[0.17641,-0.03668]],[[1088.05424,635.21831],[-0.20624,0.00867],[0.95982,-0.11483]],[[1090.95808,634.89401],[-0.97707,0.09914],[3.10624,-0.27995]],[[1101.6836,633.25037],[-2.50829,2.27687],[1.56851,-1.42379]],[[1105.10419,628.03258],[-0.76291,1.97414],[-0.82893,-0.04299]],[[1103.03293,627.00827],[0.50482,0.59279],[-12.44275,2.78715]]],&quot;closed&quot;:true}],&quot;index&quot;:null}" fill="url(#color-5)" stroke="none" stroke-width="0.5" stroke-linecap="butt"/><path d="M551.58544,334.68656l0.33386,-4.00637" data-paper-data="{&quot;index&quot;:null}" fill="none" stroke="#000000" stroke-width="1.5" stroke-linecap="round"/><path d="M544.07347,336.68975v-2.00319l0.33387,-3.33865" data-paper-data="{&quot;index&quot;:null}" fill="none" stroke="#000000" stroke-width="1.5" stroke-linecap="round"/><path d="M539.73324,329.84552l-0.83466,6.51037" data-paper-data="{&quot;index&quot;:null}" fill="none" stroke="#000000" stroke-width="1.5" stroke-linecap="round"/><path d="M536.06072,335.18736l0.83466,-4.67411" data-paper-data="{&quot;index&quot;:null}" fill="none" stroke="#000000" stroke-width="1.5" stroke-linecap="round"/><path d="M548.24679,330.34632l-0.33386,4.84104" data-paper-data="{&quot;index&quot;:null}" fill="none" stroke="#000000" stroke-width="1.5" stroke-linecap="round"/><path d="M554.42329,332.18258l-21.36735,1.50239" data-paper-data="{&quot;index&quot;:null}" fill="none" stroke="#000000" stroke-width="1.5" stroke-linecap="round"/></g></g></svg>