<svg version="1.1" xmlns="http://www.w3.org/2000/svg" xmlns:xlink="http://www.w3.org/1999/xlink" width="21.33333" height="43.93884" viewBox="0,0,21.33333,43.93884"><g transform="translate(-527.33333,-293.41665)"><g data-paper-data="{&quot;isPaintingLayer&quot;:true}" fill-rule="nonzero" stroke-linecap="butt" stroke-linejoin="miter" stroke-miterlimit="10" stroke-dasharray="" stroke-dashoffset="0" style="mix-blend-mode: normal"><path d="M542.68664,316.15211c0.44043,0.25716 0.88803,0.42013 1.33483,0.41501c0.22497,-0.00259 0.88371,0.09352 0.67305,-0.16197c-0.48473,-0.58786 -1.25482,-0.4708 -2.00788,-0.25303zM531.47047,318.30919c-0.10696,-0.25054 -0.20268,-0.64448 -0.26531,-1.25252c-0.23717,-2.30244 0.47434,-3.06993 0.47434,-3.06993l0.61387,-0.63085c3.12804,-1.66237 6.44658,-1.65101 9.6233,-1.65101c0.79058,0 2.37226,-0.86627 3.0705,0.12455c1.22054,1.73194 1.73338,4.81422 0.56643,8.50776c-0.06234,0.1973 -0.13431,0.36671 -0.21421,0.51126c0.40037,1.16667 0.48832,2.93641 -0.00938,5.60875c-0.02729,0.14653 -0.08134,0.2695 -0.15544,0.37266c1.15924,2.52096 1.62072,7.01463 -0.35406,9.55978c-1.00201,1.29142 -2.24035,-0.45602 -3.19064,-0.98546c-3.12556,-1.74136 -6.86109,-1.04732 -10.04653,-1.04732c0,0 -0.75,0 -0.75,-2.42699c0,-0.45821 0.02673,-0.8299 0.0701,-1.13143c-0.04498,-0.31163 -0.0701,-0.65928 -0.0701,-1.0259c0,-0.5552 0.05761,-1.06688 0.15455,-1.47581l0.49545,-2.13773l0.26579,0.64506c0.36795,-1.23292 0.79599,-2.18821 1.26724,-2.92094c-0.05461,-0.03867 -0.10901,-0.07842 -0.1632,-0.11921c-0.60053,-0.45236 -1.47965,0.14238 -1.78288,-1.5949c-0.20884,-1.19651 0.09951,-2.61526 0.40018,-3.85977zM540.21786,330.56358c0.17712,0.00897 0.35449,0.01508 0.53214,0.01793c0.14807,0.00236 4.25634,1.41883 3.96606,0.05721c-0.16909,-0.79314 -0.57997,-0.44255 -0.8733,-0.60833c-1.22633,0.01563 -2.42996,0.2372 -3.6249,0.53322zM534.66617,327.13297c1.13964,-0.20086 2.26782,-0.51837 3.39636,-0.83851c-1.03794,-0.15251 -2.06034,-0.09669 -3.02572,0.48034c-0.11345,0.06782 -0.23822,0.19525 -0.37064,0.35815zM538.76277,319.74885c-1.10108,-0.50585 -2.21078,-1.00006 -3.3461,-1.03266c-0.49084,-0.01412 -1.08021,0.1828 -1.61553,0.49533c0.31693,0.24225 0.58705,0.5564 0.68289,0.59313c1.34401,0.51527 2.84103,0.43603 4.27875,-0.05579z" fill="#ffffff" stroke="#000000" stroke-width="1"/><path d="M528.08333,311.6791v-17.51245h19.83333v17.51245z" fill="#ffffff" stroke="#000000" stroke-width="1.5"/><path d="M541.89575,295.51774c-0.00667,0.24991 -0.25658,0.24325 -0.25658,0.24325l-0.1939,-0.01111c-0.15166,-0.03856 -0.30332,-0.07712 -0.45498,-0.11568c-2.74457,0.01095 -6.66441,0.66414 -9.15131,1.93901c-2.89805,1.47804 -0.89717,1.83411 1.39456,1.87813l0.11439,-0.01906l0.00351,0.02106c0.02734,0.0004 0.0547,0.00076 0.08209,0.00107c1.92426,-0.66169 4.3558,-0.60413 6.5742,-0.51734c2.07907,-0.33612 4.31986,-0.70457 5.99379,-0.47876c0.00644,-0.00099 0.01287,-0.00197 0.01931,-0.00295v-0.06928l0.5,0c0.13807,0 0.25,0.11193 0.25,0.25c0,0.12733 -0.09519,0.23242 -0.21828,0.24801l-0.37639,0.05377c-0.1097,0.01564 -0.21896,0.03304 -0.32789,0.05177c-2.03054,1.25983 -7.19382,0.79443 -9.24304,0.88234c-0.49106,0.02098 -1.30411,0.03534 -2.20132,0.01172c2.47687,0.73835 5.43285,0.14903 7.93881,0.66178c0.0177,-0.00215 0.03541,-0.00429 0.05311,-0.00642v-0.02796l0.5,0c0.13807,0 0.25,0.11193 0.25,0.25c0,0.13498 -0.10698,0.24498 -0.24078,0.24983l-0.38038,0.01597c-0.76764,0.09065 -1.53739,0.20837 -2.30922,0.25156c-2.17668,0.12101 -4.26869,0.46004 -6.42434,0.76799c-0.35911,0.0513 -1.6576,0.14623 -2.34274,0.15141c2.83335,0.4152 6.09704,0.7409 8.75811,1.8604l0.00548,-0.02468l0.48329,0.1074c0.1144,0.02294 0.20057,0.12396 0.20057,0.24511c0,0.11263 -0.07447,0.20786 -0.17686,0.23913l-0.27761,0.09195c-0.24973,0.08208 -0.65547,0.18707 -1.14722,0.29392c1.61723,0 3.23447,0 4.8517,0c0.58128,0 1.58992,-0.171 2.26421,0.00016c0.0786,-0.00005 0.15719,-0.00009 0.23579,-0.00012v-0.00004l0.5,0c0.13807,0 0.25,0.11193 0.25,0.25c0,0.13807 -0.11193,0.25 -0.25,0.25l-0.25,0c-0.14813,0 -0.29625,0.00004 -0.44437,0.00013c-1.61611,0.33125 -3.49814,0.2816 -5.32941,0.17951c-0.80715,0.07841 -1.612,0.18853 -2.41481,0.34099c-0.65045,0.12353 -1.29595,0.29442 -1.94164,0.44103c-0.06764,0.01536 -0.37481,0.08308 -0.66637,0.13874c2.30393,-0.22362 5.47761,-0.23922 7.7966,0.17504v-0.02546l0.5,0c0.13807,0 0.25,0.11193 0.25,0.25c0,0.09011 -0.04767,0.16908 -0.11917,0.21308l-0.31117,0.19833l-0.00414,-0.0065l-0.01627,0.0182c-1.17146,0.46949 -2.38559,0.81364 -3.49075,1.42762c-2.36534,1.30556 -5.69586,0.77428 -8.30849,0.77428c0,0 -0.25,0 -0.25,-0.25c0,-0.25 0.25,-0.25 0.25,-0.25c2.4991,0 5.80777,0.55211 8.06567,-0.71136c0.82719,-0.45955 1.71176,-0.77172 2.59647,-1.09383c-0.49353,0.00156 -1.01634,-0.06981 -1.41213,-0.06981c-2.14052,0 -4.27073,-0.00797 -6.38143,-0.16234c-0.46182,-1.1208 1.49352,-1.13697 2.36567,-1.335c0.34729,-0.07886 0.69467,-0.15017 1.04227,-0.21452c-0.48512,-0.02296 -0.95466,-0.03814 -1.4015,-0.03814c-0.50031,0 -1.00061,0 -1.50092,0c-0.30312,0.01384 -0.58849,0.01502 -0.84433,0c-0.34325,0 -0.6865,0 -1.02975,0c0,0 -0.25,0 -0.25,0c-0.13807,0 -0.25,-0.11193 -0.25,-0.25c0,-0.13062 0.10017,-0.23784 0.22787,-0.24903l0.49477,-0.04948l0.00485,0.04851c0.01013,0 0.02026,0 0.03039,0c1.7167,-0.46644 3.6152,-0.21103 5.36107,-0.56518c-0.63612,-0.10572 -1.35019,-0.4108 -1.84351,-0.53946c-2.19764,-0.57314 -4.42926,-0.91896 -6.66962,-1.2711c-0.32906,-0.06072 -1.22786,-0.03442 -0.377,-0.82707c0.28473,-0.26525 2.14086,-0.1204 2.60077,-0.1861c1.8276,-0.26109 3.61918,-0.55009 5.44188,-0.72598c-1.83717,-0.05879 -3.98496,-0.19449 -5.32892,-0.8918c-0.06419,0.00223 -0.12837,0.00446 -0.19256,0.00669c0,0 -0.25,0 -0.25,0c-0.13033,0 -0.23736,-0.09972 -0.24896,-0.22702c-2.4913,-0.23272 -4.47454,-0.90208 -1.03506,-2.65626c2.57252,-1.30587 6.59926,-1.99987 9.43956,-1.98985c0.17172,0.04229 0.34344,0.08457 0.51516,0.12686l0.08596,-0.00364c0,0 0.24991,0.00667 0.24325,0.25658z" fill="#ececec" stroke="none" stroke-width="0.5"/></g></g></svg>