<svg version="1.1" xmlns="http://www.w3.org/2000/svg" xmlns:xlink="http://www.w3.org/1999/xlink" width="2445.53861" height="822.08475" viewBox="0,0,2445.53861,822.08475"><g transform="translate(469.39362,-236.4026)"><g data-paper-data="{&quot;isPaintingLayer&quot;:true}" fill="#ffab67" fill-rule="nonzero" stroke="#000000" stroke-linecap="butt" stroke-linejoin="miter" stroke-miterlimit="10" stroke-dasharray="" stroke-dashoffset="0" style="mix-blend-mode: normal"><path d="M-468.14362,1057.23728v-466.95605h873.00794c0.06439,3.49324 0.12636,6.98074 0.15946,10.45662c0.33031,34.68615 2.51299,69.54585 1.96153,104.2292c-0.42104,26.48049 -2.82854,52.89749 -4.8951,79.30058c-0.6557,8.37747 -8.38528,42.17534 -0.96522,54.73237c6.58903,11.15067 19.64974,14.80855 30.48474,10.97366c0.75829,7.18693 1.90212,14.3748 2.39026,21.56621c0.70246,10.3486 -0.49982,22.74149 10.54688,29.05389c4.33302,2.47601 9.46256,3.90625 14.45313,3.90625c5.17052,0 9.33057,-0.94429 12.66111,-2.62501c4.44492,4.73415 10.84022,7.62501 18.33889,7.62501c3.97332,0 7.63682,-0.81162 10.86451,-2.27903c3.52284,1.46425 7.36875,2.27903 11.13549,2.27903c14.67112,0 24.81564,-10.88531 25,-25c0.00904,-0.69183 0.07458,-2.29962 0.14906,-4.4647c2.72866,-0.66447 5.37194,-1.71479 7.77103,-3.0857c7.25413,-4.14522 9.45676,-10.90555 10.08016,-18.17349c0.98184,14.13818 1.99084,28.27447 3.0828,42.40446c0.24536,3.17497 2.0522,10.40051 3.84272,12.67195c2.30648,2.92598 5.09734,5.52461 8.18022,7.61676c0.74522,0.50574 1.78506,0.27293 2.65189,0.51732c11.62512,3.27756 28.46709,4.80332 35.85989,-8.13408c2.47601,-4.33302 3.90625,-9.46256 3.90625,-14.45312c0,-2.12735 -0.40962,-4.21161 -1.0076,-6.26771c3.11871,-0.21936 6.42081,-0.97743 9.85488,-2.3381c7.41781,-2.93913 12.24496,-11.96318 13.42398,-19.39019c0.0022,-0.01386 1.10182,-8.40385 2.22819,-16.76483c0.73364,17.66362 18.54074,25.82365 35.16666,24.9158c2.74076,0.8445 5.60608,1.30147 8.42699,1.30147c4.37483,0 8.00481,-0.78336 11.02738,-2.17957c2.46959,0.10734 5.15734,-0.15282 8.0815,-0.84086c0.33251,-0.07824 0.66412,-0.16315 0.99456,-0.25454c2.81514,0.71896 5.73937,1.03477 8.59342,0.88456c5.79554,-0.30503 10.27619,-1.91639 13.71549,-4.46976c1.01241,0.81421 2.09498,1.55976 3.24539,2.22787c0.88725,0.51528 3.34588,1.08537 5.83399,1.52629c-0.25685,4.06026 -0.55425,8.11752 -0.91573,12.16997c-0.78098,8.75524 -5.66161,9.94203 -0.45438,19.66999c2.35519,4.39987 5.94081,8.33701 10.16863,10.98866c18.95932,11.89113 38.15975,-4.05541 40.10871,-22.77966c0.69177,-6.646 1.11757,-13.55275 1.44022,-20.52905c3.00264,-1.26742 5.48871,-3.22537 7.55711,-5.64469c4.8641,-4.49156 8.07621,-10.79204 8.17133,-18.14295c1.35546,-5.69691 2.07213,-11.4077 2.6372,-16.00348c1.02175,-8.31001 1.98522,-16.6271 2.99266,-24.93886c0.3209,-2.64752 0.70449,-5.28759 0.99236,-7.9389c0.35998,-3.3154 -0.30224,-7.04025 0.19305,-10.19931c0.8069,-5.14658 3.24197,-11.57636 3.86729,-17.32908c1.36955,-12.5993 2.74813,-25.19816 3.9798,-37.81169c2.75145,-28.17773 -0.55512,-62.125 -3.84709,-90.01504c-2.04634,-17.33687 -2.88398,-34.79132 -4.15719,-52.20549c0.67697,-2.14264 1.07311,-4.41004 1.14521,-6.75901h136.98676c2.41714,15.37683 4.85812,30.74991 7.33114,46.11781c3.75175,23.31422 15.92353,44.46495 23.54207,66.81638c1.37552,4.03552 1.38515,8.53488 2.94009,12.56932c2.77507,7.20018 5.53058,14.40862 8.25498,21.62887c-0.76262,24.0894 -1.58545,48.17663 -2.54551,72.25893c-0.02792,0.70032 -1.36134,0.71224 -1.59131,1.37431c-1.63747,4.71428 -3.90625,9.46256 -3.90625,14.45313c0,25.12103 29.95463,31.44459 45.65328,19.45086c3.42978,3.41115 7.64992,5.59055 12.85287,5.8796c2.18827,0.12157 4.42375,-0.00595 6.62099,-0.37626c0.60916,0.03039 1.23334,0.04581 1.87286,0.04581c13.26361,0 19.5168,-6.16916 22.517,-14.97159c0.58644,1.72366 1.36384,3.23741 2.38925,4.42472c2.04611,2.36917 4.27145,4.59452 6.64063,6.64063c3.33664,2.88164 9.95899,3.72904 14.45313,3.90625c4.77822,0.18842 9.50532,-0.31973 13.77409,-1.63772c8.68188,3.35512 18.84674,1.61509 26.82539,-4.85006c4.76317,4.64743 11.73694,7.26856 20.48869,6.78951c7.82287,0.59555 15.89467,-0.68391 21.41183,-3.42673c12.11522,-6.02299 12.89753,-19.22348 11.1506,-31.09747c-0.74623,-5.07216 -1.48846,-10.14494 -2.22498,-15.21855c0.39833,-4.33178 0.46939,-8.68154 0.34551,-13.28666c7.60149,-10.53427 6.21822,-28.56864 4.90168,-42.50581l1.69535,-2.06018l2.80674,-2.73088l0.77708,-1.865l1.4717,-2.82566l0.70876,-1.7719l5.07932,33.37842v2.10871l0.39063,3.90625l2.73438,8.59375l0.36879,0.42702l0.41246,1.52611l3.56326,3.07736l3.07736,3.56326l1.52611,0.41246l0.42702,0.36879l8.59375,2.73438l3.90625,0.39063h1.16941l1.57458,0.569l3.55376,-0.89877l0.6085,-0.06085l1.42541,-0.45354l5.42076,-1.37095l0.79477,-0.60672l0.95281,-0.30317l4.23173,-3.65467l1.18897,-0.90765l0.3988,-0.4636l2.77425,-2.39595l0.43682,-1.61624l5.95023,-8.50032l1.92007,-3.42413l0.09763,-0.31266l0.17893,-0.27436l1.41784,-3.66075l0.91167,-3.29603c7.27283,2.33183 15.73266,0.93325 23.95093,-5.23045c0.75385,-0.56539 1.44001,-1.16726 2.0638,-1.80127c1.35888,15.3187 2.59831,30.64945 4.0837,45.95602c0.36554,3.76674 2.42913,9.62839 4.25829,12.1607c8.73749,12.0963 24.77083,13.76511 36.9632,5.22562c6.18772,-4.33386 7.50796,-11.37886 8.53706,-18.04656c4.036,-26.14995 -4.55561,-57.36962 -7.04691,-80.32592c-6.76305,-62.31874 -9.46129,-77.32111 -18.04651,-130.52554h660.91271v466.95606z" stroke-width="2.5"/><path d="" stroke-width="2.5"/><path d="M639.2447,838.84207c1.17037,-7.00902 1.9538,-11.17303 2.65778,-15.00207c2.49128,3.08259 5.69485,5.56485 9.5196,7.12952c-0.69715,0.12494 -1.35585,0.31706 -1.92208,0.65548c-5.52639,3.30299 -9.09022,6.88305 -10.94555,11.86016c0.29507,-2.08344 0.53764,-3.72917 0.69025,-4.64309z" stroke-width="2.5"/><path d="" stroke-width="2.5"/><path d="" stroke-width="2.5"/><path d="M-263.32132,857.54504v-268.76877h840.1937c1.69945,13.07524 3.42594,29.87721 2.12762,39.65467c-1.75022,13.18074 -3.9933,26.29978 -6.55776,39.34658c-5.24607,26.68959 -11.82526,53.10773 -16.95675,79.81958c-2.45208,12.76423 -1.28585,28.0655 -1.44983,39.54634c-0.31049,21.73862 0.47677,23.47155 0.96434,44.92445c0.15337,6.74831 -0.97164,16.63693 0.42512,25.47715z" stroke-width="1.5"/><path d="M658.75455,770.74826c0.22674,0.77747 0.45219,1.56225 0.67523,2.35366c1.31651,14.5413 2.50686,28.93649 3.67565,42.7331c-1.05722,4.59292 -2.79954,9.02907 -5.42786,13.18803c-1.52816,2.41811 -5.72219,1.13443 -8.17757,2.60195c-8.65911,5.17535 -12.5,11.03091 -12.5,21.875c0,1.40588 0.10572,2.75415 0.30857,4.04504h-15.79512c0.21658,-1.3481 0.37301,-2.70292 0.48656,-4.04504c0.22011,-2.60183 -1.41051,-5.02888 -2.0438,-7.56204c-1.67299,-6.69194 -0.54986,-13.82135 0.0438,-20.69365c0.55874,-6.46816 3.51946,-16.1227 5,-23.0958c2.69007,-12.66979 4.54056,-25.55258 8.1416,-37.99415c3.5711,-12.33813 7.85382,-24.4525 12.16093,-36.55947c4.65062,14.33376 9.23341,28.68811 13.45202,43.15337z" stroke-width="1.5"/><path d="" stroke-width="1.5"/><path d="M1287.22373,588.77627v268.76877h-489.41931c0.23217,-1.3131 0.36227,-2.66913 0.3803,-4.06293c1.35546,-5.69691 2.07213,-11.4077 2.6372,-16.00348c1.02175,-8.31001 1.98522,-16.6271 2.99266,-24.93886c0.3209,-2.64752 0.70449,-5.28759 0.99236,-7.9389c0.35998,-3.3154 -0.30224,-7.04025 0.19305,-10.19931c0.8069,-5.14658 3.24197,-11.57636 3.86729,-17.32908c1.36955,-12.5993 2.74813,-25.19816 3.9798,-37.81169c2.75145,-28.17773 -0.55512,-62.125 -3.84709,-90.01504c-2.04634,-17.33687 -2.88398,-34.79132 -4.15719,-52.20549c0.75174,-2.3793 1.15719,-4.91243 1.15719,-7.54026c0,-0.24206 -0.00344,-0.48332 -0.01027,-0.72373h136.74856c2.49441,15.87873 5.01394,31.75352 7.56764,47.62279c3.75175,23.31422 15.92353,44.46495 23.54207,66.81638c1.37552,4.03552 1.38515,8.53488 2.94009,12.56932c2.77507,7.20018 5.53058,14.40862 8.25498,21.62887c-0.76262,24.0894 -1.58545,48.17663 -2.54551,72.25893c-0.02792,0.70032 -1.36134,0.71224 -1.59131,1.37431c-1.63747,4.71428 -3.90625,9.46256 -3.90625,14.45313c0,25.12103 29.95463,31.44459 45.65328,19.45086c3.42978,3.41115 7.64992,5.59055 12.85287,5.8796c2.18827,0.12157 4.42375,-0.00595 6.62099,-0.37626c0.60916,0.03039 1.23334,0.04581 1.87286,0.04581c13.26361,0 19.5168,-6.16916 22.517,-14.97159c0.58644,1.72366 1.36384,3.23741 2.38925,4.42472c2.04611,2.36917 4.27145,4.59452 6.64063,6.64063c3.33664,2.88164 9.95899,3.72904 14.45313,3.90625c4.77822,0.18842 9.50532,-0.31973 13.77409,-1.63772c8.68188,3.35512 18.84674,1.61509 26.82539,-4.85006c4.76317,4.64743 11.73694,7.26856 20.48869,6.78951c7.82287,0.59555 15.89467,-0.68391 21.41183,-3.42673c12.11522,-6.02299 12.89753,-19.22348 11.1506,-31.09747c-0.74623,-5.07216 -1.48846,-10.14494 -2.22498,-15.21855c1.55871,-16.95063 -1.89396,-34.17646 -2.42797,-65.90141c-0.37303,-22.16112 -8.55001,-43.49662 -12.99765,-65.21004c-5.47284,-26.7184 -7.69755,-53.96251 -10.11558,-81.17125z" stroke-width="1.5"/><path d="" stroke-width="1.5"/><path d="" stroke-width="1.5"/><path d="" data-paper-data="{&quot;index&quot;:null}" stroke-width="2"/><path d="M181,586.5l-68,1c0,0 111.96004,-100.18988 140.12823,-102.22614c27.12582,-1.9609 75.87177,37.22614 75.87177,37.22614l7,65z" stroke-width="2"/><path d="M394,473.5l1,-1c0,0 171.8603,-52 212,-52c19.68226,0 14,28 14,28v25z" stroke-width="2"/><path d="M773,908.39815l3.23481,-29.62042c5.97225,-0.51966 10.42455,-3.22958 13.77858,-7.15267c4.8641,-4.49156 8.07621,-10.79204 8.17133,-18.14295c1.35546,-5.69691 2.07213,-11.4077 2.6372,-16.00348c1.02175,-8.31001 1.98522,-16.6271 2.99266,-24.93886c0.3209,-2.64752 0.70449,-5.28759 0.99236,-7.9389c0.24431,-2.25007 -9.65475,-2.61605 -15.88681,-3.60643c-4.56478,4.02407 -8.69581,5.12396 -9.92013,-5.24868c-1.57166,-13.31528 27.56967,-173.19991 26.67905,-186.58238l11.32095,-103.66337c0,0 1.06844,-21.10171 1.67173,-33.01662c0.39527,-7.80663 4.99399,-12.35146 6.33804,-23.74632c0.43386,-3.67826 1.19793,-57.00225 7.92674,-60.85457c3.42452,-1.96057 28.2121,21.3142 29.08315,17.2675c1.17824,-5.4738 13.69895,15.46906 25.01969,15.319c4.68144,-0.06205 -0.03935,0.03101 -0.03935,0.03101l59.12091,189.70427c1.38567,8.73309 2.78017,17.46478 4.18502,26.19479c3.75175,23.31422 15.92353,44.46495 23.54207,66.81638c1.37552,4.03552 1.38515,8.53488 2.94009,12.56932c2.77507,7.20018 5.53058,14.40862 8.25498,21.62887c-0.76262,24.0894 -1.58545,48.17663 -2.54551,72.25893c-0.02792,0.70032 -1.36134,0.71224 -1.59131,1.37431c-1.63747,4.71428 -3.90625,9.46256 -3.90625,14.45313c0,23.6993 26.66,30.66862 42.8589,21.31112l20.1411,64.62777c0,0 -123.31791,4.56111 -158,4.56111c-27.76789,0 -109,-7.60185 -109,-7.60185zM808.86729,777.07248c0.4444,-4.08828 -0.05786,-2.12232 -0.89715,1.96837c0.51503,-0.70465 0.83156,-1.36499 0.89715,-1.96837z" stroke-width="2"/><path d="M567,317.5v-23c0,0 58.57017,-0.45758 81.97937,-0.64046c17.53923,-0.13703 72.02063,20.64046 72.02063,20.64046l-51,2z" stroke-width="2"/><path d="M283,264.5l-34,-11l10,-16l160,27z" stroke-width="2"/><path d="M-113,293.5v-19h144c0,0 7.03262,1.23071 11.81322,2.06731c7.3845,1.29229 58.18678,-13.06731 58.18678,-13.06731c0,0 -21.93621,20.18614 -24.84473,13.35992c-4.3312,-10.1652 -10.81853,-22.57533 -16.27892,-21.37462c-28.18917,6.19867 -172.87635,38.01469 -172.87635,38.01469z" stroke-width="2"/></g></g></svg>