<svg version="1.1" xmlns="http://www.w3.org/2000/svg" xmlns:xlink="http://www.w3.org/1999/xlink" width="2556.18596" height="1251.06445" viewBox="0,0,2556.18596,1251.06445"><defs><linearGradient x1="-119.59851" y1="36.25146" x2="147.28701" y2="858.90774" gradientUnits="userSpaceOnUse" id="color-1"><stop offset="0" stop-color="#1d00ff"/><stop offset="1" stop-color="#00fff0"/></linearGradient><linearGradient x1="1224.02634" y1="1.22144" x2="957.14083" y2="823.87772" gradientUnits="userSpaceOnUse" id="color-2"><stop offset="0" stop-color="#ff0000"/><stop offset="1" stop-color="#400000"/></linearGradient><radialGradient cx="41.07357" cy="42.22973" r="108.85886" gradientUnits="userSpaceOnUse" id="color-3"><stop offset="0" stop-color="#ffe100"/><stop offset="1" stop-color="#ffe100" stop-opacity="0"/></radialGradient><radialGradient cx="1020.54805" cy="68.25075" r="108.85886" gradientUnits="userSpaceOnUse" id="color-4"><stop offset="0" stop-color="#020200"/><stop offset="1" stop-color="#020200" stop-opacity="0"/></radialGradient></defs><g transform="translate(725.87907,195.46762)"><g data-paper-data="{&quot;isPaintingLayer&quot;:true}" fill-rule="nonzero" stroke-linecap="butt" stroke-linejoin="miter" stroke-miterlimit="10" stroke-dasharray="" stroke-dashoffset="0" style="mix-blend-mode: normal"><text transform="translate(829.62462,617.3048) scale(0.5,0.5)" font-size="40" xml:space="preserve" fill="#ffffff" fill-rule="nonzero" stroke="none" stroke-width="1" stroke-linecap="butt" stroke-linejoin="miter" stroke-miterlimit="10" stroke-dasharray="" stroke-dashoffset="0" font-family="Marker" font-weight="normal" text-anchor="start" style="mix-blend-mode: normal"><tspan x="0" dy="0">Press Z to continue.</tspan></text><path d="M-458.99356,1055.59683l-266.88551,-822.65628l1212.56108,-393.37812c0,0 64.64767,24.47106 113.66526,45.79121c24.85024,10.80858 195.01246,228.08559 201.3684,233.67544c53.43076,46.99071 -124.38242,-111.59647 -95.74621,-84.67653c32.16112,30.23359 -77.18644,-63.31521 -69.22543,-38.77595c5.03905,15.53252 -109.59333,-31.27223 -103.87831,-13.65608c3.32384,10.24552 111.65755,81.42673 115.11814,92.09374c4.11623,12.68798 -96.61933,-35.07242 -92.41434,-22.11083c10.21695,31.49303 122.2474,109.20342 131.83669,138.76175c1.58249,4.8779 81.15069,96.83855 88.91163,110.29068c12.20014,21.14666 -47.80647,-34.9073 -63.05908,-35.76767c-18.16848,-1.02486 -110.45906,-67.701 -107.95864,-59.99363c4.43924,13.68366 111.9452,87.1791 117.24376,103.51156c5.94027,18.31046 12.68466,53.6968 19.34582,74.22938c7.62388,23.50007 -87.32287,-25.8797 -79.28796,-1.11264c44.51295,137.2081 90.9658,280.39582 90.9658,280.39582z" data-paper-data="{&quot;index&quot;:null}" fill="url(#color-1)" stroke="none" stroke-width="0"/><path d="M632.40991,494.67718c0,125.21772 -122.34861,226.72673 -273.27327,226.72673c-150.92466,0 -273.27327,-101.50901 -273.27327,-226.72673c0,-125.21771 122.34861,-226.72673 273.27327,-226.72673c150.92466,0 273.27327,101.50902 273.27327,226.72673z" fill="#0fc300" stroke="#000000" stroke-width="1"/><path d="M427.71021,515.2027c0,125.21771 -122.34861,226.72673 -273.27327,226.72673c-150.92466,0 -273.27327,-101.50901 -273.27327,-226.72673c0,-125.21771 122.34861,-226.72673 273.27327,-226.72673c150.92466,0 273.27327,101.50901 273.27327,226.72673z" fill="#0fc300" stroke="#000000" stroke-width="1"/><path d="M350.8603,627.18867c0,0 46.45285,-143.18771 90.9658,-280.39582c8.03491,-24.76706 -86.91184,24.61271 -79.28796,1.11264c6.66116,-20.53258 13.40556,-55.91893 19.34582,-74.22939c5.29856,-16.33246 112.80452,-89.8279 117.24376,-103.51156c2.50042,-7.70736 -89.79016,58.96878 -107.95864,59.99363c-15.25261,0.86037 -75.25923,56.91432 -63.05909,35.76766c7.76093,-13.45214 87.32915,-105.41278 88.91163,-110.29068c9.58929,-29.55833 121.61974,-107.26872 131.83668,-138.76175c4.20499,-12.96159 -96.53057,34.79881 -92.41434,22.11083c3.46058,-10.66702 111.79429,-81.84823 115.11814,-92.09375c5.71502,-17.61616 -108.91737,29.18859 -103.87832,13.65608c7.96101,-24.53926 -101.38654,69.00954 -69.22543,38.77595c28.63621,-26.91995 -149.17697,131.66724 -95.74621,84.67653c6.35594,-5.58986 176.51816,-222.86686 201.3684,-233.67545c49.01759,-21.32015 113.66526,-45.79121 113.66526,-45.79121l1212.56108,393.37812l-266.88551,822.65628z" data-paper-data="{&quot;index&quot;:null}" fill="url(#color-2)" stroke="none" stroke-width="0"/><path d="M928.7012,484.66217c0,125.21772 -114.95392,226.72673 -256.75676,226.72673c-141.80284,0 -256.75675,-101.50901 -256.75675,-226.72673c0,-125.21771 114.95391,-226.72673 256.75675,-226.72673c141.80284,0 256.75676,101.50901 256.75676,226.72673z" fill="#4b4832" stroke="#000000" stroke-width="1"/><path d="M1165.44294,517.1997c0,125.21771 -122.34862,226.72672 -273.27328,226.72672c-150.92466,0 -273.27327,-101.50901 -273.27327,-226.72672c0,-125.21771 122.34861,-226.72673 273.27327,-226.72673c150.92466,0 273.27328,101.50902 273.27328,226.72673z" fill="#4b4832" stroke="#000000" stroke-width="1"/><path d="M-261.47898,803.003v-241.25375h1364.86486v241.25375z" fill="#000000" stroke="#ffffff" stroke-width="1.5"/><text transform="translate(63.38893,609.79729) scale(0.63014,0.63014)" font-size="40" xml:space="preserve" fill="#ffffff" fill-rule="nonzero" stroke="none" stroke-width="1" stroke-linecap="butt" stroke-linejoin="miter" stroke-miterlimit="10" stroke-dasharray="" stroke-dashoffset="0" font-family="Marker" font-weight="normal" text-anchor="start" style="mix-blend-mode: normal"><tspan x="0" dy="0">Whether thats for good...</tspan></text><text transform="translate(641.9625,613.29579) scale(0.63014,0.63014)" font-size="40" xml:space="preserve" fill="#ffffff" fill-rule="nonzero" stroke="none" stroke-width="1" stroke-linecap="butt" stroke-linejoin="miter" stroke-miterlimit="10" stroke-dasharray="" stroke-dashoffset="0" font-family="Marker" font-weight="normal" text-anchor="start" style="mix-blend-mode: normal"><tspan x="0" dy="0">Or evil.</tspan></text><path d="M-67.78529,42.22973c0,58.8772 48.73777,106.60661 108.85886,106.60661c60.12109,0 108.85886,-47.7294 108.85886,-106.60661c0,-58.8772 -48.73777,-106.60661 -108.85886,-106.60661c-60.12109,0 -108.85886,47.7294 -108.85886,106.60661z" fill="url(#color-3)" stroke="#000000" stroke-width="0"/><path d="M911.68919,68.25075c0,58.8772 48.73777,106.6066 108.85886,106.6066c60.12109,0 108.85886,-47.7294 108.85886,-106.6066c0,-58.8772 -48.73777,-106.60661 -108.85886,-106.60661c-60.12109,0 -108.85886,47.7294 -108.85886,106.60661z" fill="url(#color-4)" stroke="#000000" stroke-width="0"/></g></g></svg>