<svg version="1.1" xmlns="http://www.w3.org/2000/svg" xmlns:xlink="http://www.w3.org/1999/xlink" width="1196.6967" height="469.36317" viewBox="0,0,1196.6967,469.36317"><g transform="translate(38.07808,-490.28398)"><g data-paper-data="{&quot;isPaintingLayer&quot;:true}" fill-rule="nonzero" stroke="none" stroke-linecap="butt" stroke-linejoin="miter" stroke-miterlimit="10" stroke-dasharray="" stroke-dashoffset="0" style="mix-blend-mode: normal"><path d="M-38.07808,944.62464v-318.31832h345.24015c0.4501,13.4939 0.0624,27.0319 0.0624,40.54804c0,35.03504 0,73.07307 0,108.10811c0,0 0,3.1576 1.37097,6.73085c-2.717,2.97741 -4.37397,6.93878 -4.37397,11.28717c0,7.94928 5.53753,14.6052 12.96554,16.32069c-0.39161,5.12977 -0.50479,10.2902 -0.90361,15.42012c-1.63252,20.99911 -1.55142,41.80975 -1.55142,62.85378v1.5015c0,0 0,16.75 16.75,16.75c16.75,0 16.75,-16.75 16.75,-16.75v-1.5015c0,-14.224 -0.69607,-28.64838 -0.01447,-42.84744c0.27943,-5.82112 1.02427,-11.61085 1.46605,-17.4219c0.36889,-4.85218 0.4053,-9.73872 0.78614,-14.58795c1.79385,-0.82282 3.4173,-1.95319 4.80282,-3.32361c0,2.53678 0,5.07355 0,7.61033c0,0.39426 -0.03118,18.48205 0.08152,19.66852c0.24133,2.54063 1.26926,4.96603 1.5015,7.50751c0.2853,3.12205 -0.29044,6.2879 0.04398,9.40507c0.51502,4.80054 2.36731,9.37688 3.09379,14.15c0.62713,4.12039 1.04667,8.26972 1.57001,12.40458c0.41448,1.68824 0.82896,3.37648 1.24344,5.06473c0.20203,3.05343 1.93079,16.11716 16.72326,16.11716c2.89677,0 5.29256,-0.50097 7.27402,-1.32963c0,2.36739 0,4.73477 0,7.10216c0,3.5035 0,10.01001 0,13.51351c0,0 0,16.75 16.75,16.75c3.11008,0 5.64268,-0.57747 7.70505,-1.51796c-0.08933,1.70304 -0.26004,3.41344 -0.26912,5.10922c0.34903,1.22162 0.76506,2.44594 1.17076,3.67527z" fill="#0c7d00" stroke-width="0"/><path d="" fill="#0c7d00" stroke-width="0"/><path d="M718.54743,626.30632c-0.13237,54.71631 -0.34171,109.44207 -0.09742,164.15691c-2.14067,22.25882 -3.85814,44.59776 -7.04221,66.72136c-2.07889,14.44462 -5.8919,28.62083 -7.62896,43.11053c-1.19762,9.98994 -1.66025,20.06321 -3.00363,30.0346c-0.64535,4.79014 -1.5179,9.54489 -2.42078,14.29492h-251.66676c-0.7114,-2.80407 -1.72593,-5.53734 -2.52148,-8.32176c-0.01813,-3.62344 0.61154,-7.30855 -0.05438,-10.87032c-0.87261,-4.66729 -3.70186,-8.83368 -4.5045,-13.51351c-0.65313,-3.80813 0.38974,-7.73046 0.19908,-11.58948c-0.30186,-6.10977 -0.72422,-12.23216 -1.67458,-18.27511c-0.84034,-5.34336 -2.2893,-10.57306 -3.46856,-15.85383c1.21257,-5.84121 1.7852,-10.46934 2.04232,-15.05281c2.25478,1.29374 5.15644,2.12619 8.89055,2.12619c16.75,0 16.75,-16.75 16.75,-16.75v-1.5015c0,-5.53188 0.55902,-10.54273 1.376,-15.97145c0.46494,-3.08948 2.22268,-5.88242 2.73854,-8.96381c2.38068,-14.22054 1.86591,-16.01362 1.85909,-29.57949c2.52638,-20.211 1.53387,-40.74356 1.53387,-61.10086c0,-31.03353 0,-62.06706 0,-93.10059z" fill="#0c7d00" stroke-width="0"/><path d="M679.50839,630.81082c-0.13237,54.71631 -0.34171,109.44207 -0.09742,164.15691c-2.14067,22.25882 -3.85814,44.59776 -7.04221,66.72136c-2.07889,14.44462 -5.8919,28.62083 -7.62896,43.11053c-1.19762,9.98994 -1.66025,20.06321 -3.00363,30.0346c-0.64535,4.79014 -1.5179,9.54489 -2.42078,14.29492h-251.66676c-0.7114,-2.80407 -1.72593,-5.53734 -2.52148,-8.32176c-0.01813,-3.62344 0.61154,-7.30855 -0.05438,-10.87032c-0.87261,-4.66729 -3.70186,-8.83368 -4.5045,-13.51351c-0.65313,-3.80813 0.38974,-7.73046 0.19908,-11.58948c-0.30186,-6.10977 -0.72422,-12.23216 -1.67458,-18.27511c-0.84034,-5.34336 -2.2893,-10.57306 -3.46856,-15.85383c1.21257,-5.84121 1.7852,-10.46934 2.04232,-15.05281c2.25478,1.29374 5.15644,2.12619 8.89055,2.12619c16.75,0 16.75,-16.75 16.75,-16.75v-1.5015c0,-5.53188 0.55902,-10.54273 1.376,-15.97145c0.46494,-3.08948 2.22268,-5.88242 2.73854,-8.96381c2.38068,-14.22054 1.86591,-16.01362 1.85909,-29.57949c2.52638,-20.211 1.53387,-40.74356 1.53387,-61.10086c0,-31.03353 0,-62.06706 0,-93.10059z" fill="#0c7d00" stroke-width="0"/><path d="M667.49638,636.81683c-0.13237,54.71631 -0.34171,109.44207 -0.09742,164.15691c-2.14067,22.25882 -3.85814,44.59776 -7.04221,66.72136c-2.07889,14.44462 -5.8919,28.62083 -7.62896,43.11053c-1.19762,9.98994 -1.66025,20.06321 -3.00363,30.0346c-0.64535,4.79014 -1.5179,9.54489 -2.42078,14.29492h-251.66676c-0.7114,-2.80407 -1.72593,-5.53734 -2.52148,-8.32176c-0.01813,-3.62344 0.61154,-7.30855 -0.05438,-10.87032c-0.87261,-4.66729 -3.70186,-8.83368 -4.5045,-13.51351c-0.65313,-3.80813 0.38974,-7.73046 0.19908,-11.58948c-0.30186,-6.10977 -0.72422,-12.23216 -1.67458,-18.27511c-0.84034,-5.34336 -2.2893,-10.57306 -3.46856,-15.85383c1.21257,-5.84121 1.7852,-10.46934 2.04232,-15.05281c2.25478,1.29374 5.15644,2.12619 8.89055,2.12619c16.75,0 16.75,-16.75 16.75,-16.75v-1.5015c0,-5.53188 0.55902,-10.54273 1.376,-15.97145c0.46494,-3.08948 2.22268,-5.88242 2.73854,-8.96381c2.38068,-14.22054 1.86591,-16.01362 1.85909,-29.57949c2.52638,-20.211 1.53387,-40.74356 1.53387,-61.10086c0,-31.03353 0,-62.06706 0,-93.10059z" fill="#0c7d00" stroke-width="0"/><path d="M667.49638,636.81683c-0.13237,54.71631 -0.34171,109.44207 -0.09742,164.15691c-2.14067,22.25882 -3.85814,44.59776 -7.04221,66.72136c-2.07889,14.44462 -5.8919,28.62083 -7.62896,43.11053c-1.19762,9.98994 -1.66025,20.06321 -3.00363,30.0346c-0.64535,4.79014 -1.5179,9.54489 -2.42078,14.29492h-251.66676c-0.7114,-2.80407 -1.72593,-5.53734 -2.52148,-8.32176c-0.01813,-3.62344 0.61154,-7.30855 -0.05438,-10.87032c-0.87261,-4.66729 -3.70186,-8.83368 -4.5045,-13.51351c-0.65313,-3.80813 0.38974,-7.73046 0.19908,-11.58948c-0.30186,-6.10977 -0.72422,-12.23216 -1.67458,-18.27511c-0.84034,-5.34336 -2.2893,-10.57306 -3.46856,-15.85383c1.21257,-5.84121 1.7852,-10.46934 2.04232,-15.05281c2.25478,1.29374 5.15644,2.12619 8.89055,2.12619c16.75,0 16.75,-16.75 16.75,-16.75v-1.5015c0,-5.53188 0.55902,-10.54273 1.376,-15.97145c0.46494,-3.08948 2.22268,-5.88242 2.73854,-8.96381c2.38068,-14.22054 1.86591,-16.01362 1.85909,-29.57949c2.52638,-20.211 1.53387,-40.74356 1.53387,-61.10086c0,-31.03353 0,-62.06706 0,-93.10059z" fill="#0c7d00" stroke-width="0"/><path d="M659.98887,626.30632c-0.13237,54.71631 -0.34171,109.44207 -0.09742,164.15691c-2.14067,22.25882 -3.85814,44.59776 -7.04221,66.72136c-2.07889,14.44462 -5.8919,28.62083 -7.62896,43.11053c-1.19762,9.98994 -1.66025,20.06321 -3.00363,30.0346c-0.64535,4.79014 -1.5179,9.54489 -2.42078,14.29492h-251.66676c-0.7114,-2.80407 -1.72593,-5.53734 -2.52148,-8.32176c-0.01813,-3.62344 0.61154,-7.30855 -0.05438,-10.87032c-0.87261,-4.66729 -3.70186,-8.83368 -4.5045,-13.51351c-0.65313,-3.80813 0.38974,-7.73046 0.19908,-11.58948c-0.30186,-6.10977 -0.72422,-12.23216 -1.67458,-18.27511c-0.84034,-5.34336 -2.2893,-10.57306 -3.46856,-15.85383c1.21257,-5.84121 1.7852,-10.46934 2.04232,-15.05281c2.25478,1.29374 5.15644,2.12619 8.89055,2.12619c16.75,0 16.75,-16.75 16.75,-16.75v-1.5015c0,-5.53188 0.55902,-10.54273 1.376,-15.97145c0.46494,-3.08948 2.22268,-5.88242 2.73854,-8.96381c2.38068,-14.22054 1.86591,-16.01362 1.85909,-29.57949c2.52638,-20.211 1.53387,-40.74356 1.53387,-61.10086c0,-31.03353 0,-62.06706 0,-93.10059z" fill="#0c7d00" stroke-width="0"/><path d="" fill="#0c7d00" stroke-width="0"/><path d="" fill="#0c7d00" stroke-width="0"/><path d="M1158.61862,626.30632v318.31832h-319.39564c0,-106.10611 0,-212.21221 0,-318.31832z" fill="#0c7d00" stroke-width="0"/><path d="" fill="#0c7d00" stroke-width="0"/><path d="M799.17868,944.62464c-0.83647,-2.72554 -1.66274,-5.45334 -2.4118,-8.19827c-0.09316,-0.52909 -0.18565,-1.05827 -0.27746,-1.58755c1.81542,0.64082 3.95125,1.01779 6.46404,1.01779c0.97931,0 1.90137,-0.05726 2.76952,-0.16508c0,2.9777 0,5.9554 0,8.93311z" fill="#0c7d00" stroke-width="0"/><path d="M753.90879,944.62464c-0.17376,-4.61512 -0.31485,-9.23104 -0.37882,-13.84893c-0.30938,-22.33119 -0.62018,-44.66236 -0.93047,-66.99354c-0.01085,-0.78056 -0.02155,-1.56112 -0.03211,-2.34169c3.58516,27.51472 6.69436,55.05388 11.52759,82.3884c0.07518,0.26544 0.15123,0.53069 0.22808,0.79575z" fill="#0c7d00" stroke-width="0"/><path d="M142.48585,668.35586v-94.59459h166.66667v94.59459z" fill="#0d8200" stroke-width="0"/><path d="M228.07143,623.31081v-93.09309h81.08108v93.09309z" fill="#0d8200" stroke-width="0"/><path d="M289.633,588.77628v-87.08709h52.55255v87.08709z" fill="#0d8200" stroke-width="0"/><path d="M312.15552,549.73724v-48.04805h87.08709v48.04805z" fill="#0d8200" stroke-width="0"/><path d="M264.60297,770.95345v-225.22522h132.13213v225.22522z" fill="#0d8200" stroke-width="0"/><path d="M370.71408,959.64715v-331.83183h75.07508v331.83183z" fill="#0d8200" stroke-width="0"/><path d="M931.26963,688.37087v-94.5946h166.66666v94.5946z" data-paper-data="{&quot;index&quot;:null}" fill="#0d8200" stroke-width="0"/><path d="M931.26963,643.32583v-76.57657h81.08108v76.57657z" data-paper-data="{&quot;index&quot;:null}" fill="#0d8200" stroke-width="0"/><path d="M843.68705,790.96847v-225.22522h132.13213v225.22522z" data-paper-data="{&quot;index&quot;:null}" fill="#0d8200" stroke-width="0"/><path d="M623.3713,636.7489c-3.72921,-0.39442 -3.33479,-4.12361 -3.33479,-4.12361l0.03506,-0.33148c0.37031,-3.50129 0.24095,-10.58318 3.50911,-12.69231c1.98565,-1.28145 4.70112,-0.53406 7.06973,0.77943c0.77227,-1.94182 2.24801,-3.44388 5.20884,-3.86311c1.84214,-0.26083 3.68914,0.65925 5.19796,2.13825c0.58043,-0.13004 1.24405,-0.17119 2.00383,-0.10383c0.64425,0.05712 1.20413,0.32635 1.69994,0.72996c0.63431,-0.23059 1.29075,-0.35744 1.9464,-0.34432c0.61649,0.01235 1.21689,0.19057 1.78955,0.49769c0.09563,-0.07346 0.19462,-0.14345 0.29719,-0.20974c1.74506,-1.12765 4.29078,-0.5809 6.231,0.16235c0.88382,0.33856 1.5615,1.01244 2.18168,1.76517c1.75491,-0.346 3.68226,1.03886 5.13632,2.54759c1.39705,0.40316 2.85523,1.17132 4.01204,2.12358c1.46018,-1.44605 3.09718,-2.12018 4.75158,-1.97533c3.96249,-4.62989 6.8232,-1.60417 10.0972,0.58826c1.18382,0.79274 2.50849,1.4356 3.61552,2.32229c0.67605,-0.41237 1.48755,-0.61475 2.33561,-0.52715c0.25858,-1.00184 0.69601,-1.89663 1.47461,-2.58722c4.73908,-4.20344 6.93349,-0.50006 8.13633,2.6283c0.06015,-0.02832 0.12117,-0.05509 0.18309,-0.08024c0.07644,-2.51405 1.59658,-4.42402 6.46574,-4.59432c1.73281,-0.06061 2.54079,2.36311 3.73634,3.61888c2.39661,2.51732 4.54634,5.61564 6.71392,8.29596c0,0 2.35804,2.91583 -0.55779,5.27388c-2.2793,1.84328 -4.21775,0.46396 -4.95548,-0.22611c-0.47873,1.73795 -2.15772,2.92461 -4.00912,2.7288c-0.83472,-0.08829 -1.57638,-0.44404 -2.14881,-0.97307l-3.33502,-3.00969l0.00461,-0.00511c-0.00835,-0.00448 -0.01668,-0.00897 -0.02501,-0.01345c-0.04667,-0.02512 -0.09266,-0.05015 -0.138,-0.07512c-0.58955,1.55449 -2.16977,2.57983 -3.9007,2.39676c-0.39087,-0.04134 -0.76132,-0.14132 -1.10354,-0.29028c-0.66378,1.39752 -2.15674,2.29181 -3.78265,2.11984c-0.71476,-0.0756 -1.36128,-0.34732 -1.89174,-0.75599c-0.77652,0.86394 -1.94221,1.35608 -3.18571,1.22456c-1.83343,-0.19392 -3.2179,-1.67822 -3.34617,-3.45476c-0.48955,0.32945 -1.65684,0.47966 -3.04221,0.51945c-0.61534,0.30458 -1.3216,0.4439 -2.05492,0.36634c-0.1195,-0.01264 -0.23709,-0.03076 -0.35255,-0.05409c-0.41366,1.3943 -0.80363,2.57724 -0.99045,3.34854l-4.28406,-4.1152c-0.172,0.49316 -0.44272,0.93583 -0.7864,1.30712c0.02427,0.24888 0.02387,0.50391 -0.00346,0.7623c-0.21783,2.05958 -2.06403,3.55262 -4.12362,3.33479c-0.36956,-0.03909 -0.72088,-0.13059 -1.04735,-0.26637l-3.46112,-1.34892l0.00006,-0.00017c-1.20173,-0.48971 -2.42277,-1.00525 -3.57543,-1.58611c-1.10308,-0.12904 -2.04015,-0.72595 -2.63339,-1.57084c-1.41061,-1.02367 -2.53364,-2.24801 -3.11029,-3.78967c-0.74309,1.15047 -2.09168,1.85051 -3.54675,1.69662c-0.61041,-0.06456 -1.17106,-0.27216 -1.65216,-0.58595c-0.74294,0.59037 -1.70901,0.90085 -2.72725,0.79316c-1.40331,-0.14842 -2.54362,-1.05282 -3.05892,-2.26559c-0.44446,0.12469 -0.91954,0.16885 -1.40657,0.11735c-1.47694,-0.1562 -2.66255,-1.14981 -3.13481,-2.45897c-0.59284,1.54828 -2.16966,2.56834 -3.89648,2.3857c-1.91983,-0.20304 -3.3474,-1.82099 -3.35586,-3.70776l-0.05006,-2.6372l0.2401,-0.00457c-0.09469,-0.10879 -0.19299,-0.2149 -0.29528,-0.31809c-0.24978,-0.25197 -0.56935,-0.42574 -0.89658,-0.5891c0.09079,1.8146 -0.62218,4.42565 -0.7142,5.29573l-0.03506,0.33148c0,0 -0.39442,3.72919 -4.12362,3.33478z" fill="#14c700" stroke-width="0.5"/><path d="M537.43066,633.18677c-3.72919,-0.39442 -3.33479,-4.12362 -3.33479,-4.12362l0.03507,-0.33148c0.37031,-3.50128 0.24096,-10.58317 3.50912,-12.69231c1.98565,-1.28145 4.70111,-0.53406 7.06973,0.77943c0.77226,-1.94183 2.24802,-3.44387 5.20885,-3.8631c1.84214,-0.26083 3.68915,0.65924 5.19796,2.13825c0.58043,-0.13005 1.24406,-0.1712 2.00383,-0.10384c0.64424,0.05712 1.20413,0.32636 1.69994,0.72997c0.63431,-0.23058 1.29075,-0.35744 1.9464,-0.34432c0.61649,0.01235 1.21689,0.19057 1.78956,0.49769c0.09562,-0.07346 0.19462,-0.14345 0.29718,-0.20974c1.74506,-1.12765 4.29078,-0.5809 6.231,0.16234c0.88383,0.33858 1.56149,1.01244 2.18169,1.76517c1.75491,-0.346 3.68226,1.03886 5.13632,2.54758c1.39705,0.40316 2.85522,1.17132 4.01203,2.12358c1.46017,-1.44605 3.09718,-2.12018 4.75158,-1.97533c3.96249,-4.62989 6.8232,-1.60418 10.09721,0.58825c1.18383,0.79274 2.50848,1.43561 3.61551,2.32229c0.67604,-0.41238 1.48755,-0.61475 2.3356,-0.52716c0.25856,-1.00185 0.69602,-1.89663 1.47461,-2.58722c4.73908,-4.20344 6.93348,-0.50006 8.13633,2.6283c0.06015,-0.02832 0.12115,-0.05509 0.1831,-0.08023c0.07644,-2.51406 1.59659,-4.42402 6.46575,-4.59432c1.73281,-0.06061 2.54079,2.36311 3.73634,3.61889c2.39661,2.51732 4.54634,5.61564 6.71393,8.29596c0,0 2.35803,2.91583 -0.5578,5.27388c-2.2793,1.84328 -4.21776,0.46395 -4.95549,-0.22611c-0.47872,1.73794 -2.15772,2.92461 -4.00912,2.7288c-0.83472,-0.08828 -1.57637,-0.44405 -2.14881,-0.97308l-3.33502,-3.0097l0.00461,-0.00511c-0.00835,-0.00448 -0.01667,-0.00897 -0.025,-0.01345c-0.04667,-0.02512 -0.09267,-0.05016 -0.13801,-0.07512c-0.58955,1.55449 -2.16977,2.57983 -3.9007,2.39676c-0.39086,-0.04134 -0.76132,-0.14132 -1.10354,-0.29028c-0.66378,1.39753 -2.15674,2.29182 -3.78267,2.11985c-0.71475,-0.0756 -1.36126,-0.34731 -1.89173,-0.75599c-0.77651,0.86394 -1.94222,1.35607 -3.18571,1.22455c-1.83343,-0.19391 -3.2179,-1.67823 -3.34617,-3.45476c-0.48955,0.32945 -1.65684,0.47966 -3.0422,0.51945c-0.61536,0.30456 -1.3216,0.44391 -2.05492,0.36635c-0.11951,-0.01264 -0.2371,-0.03076 -0.35255,-0.05408c-0.41366,1.39429 -0.80363,2.57724 -0.99045,3.34854l-4.28406,-4.11519c-0.17201,0.49316 -0.44272,0.93582 -0.78641,1.30712c0.02427,0.24888 0.02387,0.50391 -0.00346,0.7623c-0.21783,2.05959 -2.06403,3.55261 -4.12362,3.33479c-0.36956,-0.0391 -0.72088,-0.1306 -1.04734,-0.26637l-3.46112,-1.34892l0.00007,-0.00018c-1.20173,-0.48971 -2.42277,-1.00524 -3.57545,-1.5861c-1.10308,-0.12903 -2.04016,-0.72595 -2.63339,-1.57084c-1.41062,-1.02366 -2.53363,-2.24801 -3.11028,-3.78968c-0.74309,1.15047 -2.09167,1.85051 -3.54674,1.69662c-0.61041,-0.06456 -1.17106,-0.27216 -1.65216,-0.58597c-0.74293,0.59037 -1.70902,0.90084 -2.72725,0.79316c-1.40331,-0.14842 -2.54361,-1.05282 -3.05892,-2.26559c-0.44446,0.12469 -0.91955,0.16886 -1.40658,0.11735c-1.47695,-0.15621 -2.66255,-1.14981 -3.13481,-2.45898c-0.59284,1.54829 -2.16965,2.56834 -3.89648,2.3857c-1.91983,-0.20305 -3.3474,-1.82098 -3.35586,-3.70774l-0.05006,-2.6372l0.2401,-0.00457c-0.09469,-0.10879 -0.19298,-0.21491 -0.29527,-0.31809c-0.24978,-0.25197 -0.56935,-0.42574 -0.89657,-0.5891c0.09079,1.81461 -0.62218,4.42564 -0.71421,5.29573l-0.03506,0.33148c0,0 -0.39442,3.7292 -4.12363,3.33478z" fill="#14c700" stroke-width="0.5"/><path d="M362.54021,640.88218l-0.92859,-16.49039l167.90218,-9.45468l0.92859,16.49039z" data-paper-data="{&quot;index&quot;:null}" fill="#0d8200" stroke-width="0"/><path d="M453.40431,632.71671c-3.74925,-0.0755 -3.67374,-3.82474 -3.67374,-3.82474l0.00671,-0.33327c0.07089,-3.5201 -0.66092,-10.56527 2.41582,-12.94497c1.86935,-1.44584 4.63859,-0.93235 7.11042,0.17473c0.60416,-2.00051 1.94666,-3.62275 4.86105,-4.29253c1.81325,-0.41671 3.73188,0.34279 5.36113,1.68796c0.56726,-0.17899 1.22496,-0.27647 1.98772,-0.27405c0.64677,0.00206 1.22754,0.22266 1.75591,0.58259c0.61238,-0.28375 1.25563,-0.46603 1.91002,-0.50877c0.6153,-0.04018 1.22869,0.08628 1.82543,0.34353c0.08903,-0.08133 0.1817,-0.1595 0.27826,-0.23427c1.64272,-1.27212 4.22574,-0.94408 6.2222,-0.36871c0.90943,0.26209 1.64202,0.87582 2.32404,1.57302c1.71909,-0.49415 3.75733,0.72161 5.33456,2.10107c1.4263,0.28276 2.94458,0.924 4.17826,1.77431c1.33178,-1.56511 2.90544,-2.37616 4.56617,-2.37268c3.55394,-4.95042 6.66186,-2.17923 10.11063,-0.27349c1.24702,0.68908 2.6216,1.21684 3.80009,2.00606c0.63849,-0.46843 1.42981,-0.73916 2.28225,-0.72408c0.17235,-1.02022 0.53202,-1.94899 1.249,-2.70337c4.36403,-4.59164 6.86574,-1.08851 8.33054,1.92608c0.05752,-0.03334 0.11604,-0.06521 0.1756,-0.09553c-0.13786,-2.51143 1.21416,-4.54388 6.05114,-5.12809c1.72135,-0.20791 2.73275,2.13822 4.03086,3.28765c2.60222,2.30415 5.00791,5.20821 7.39581,7.69426c0,0 2.59772,2.7045 -0.10678,5.30222c-2.1141,2.03063 -4.16294,0.82134 -4.95673,0.19658c-0.32903,1.77239 -1.9009,3.09769 -3.76225,3.06021c-0.83921,-0.01691 -1.60846,-0.30822 -2.22385,-0.7866l-3.57914,-2.71484l0.00416,-0.00548c-0.0087,-0.00375 -0.01738,-0.00752 -0.02607,-0.01127c-0.04864,-0.02106 -0.09659,-0.04208 -0.14389,-0.0631c-0.45507,1.59904 -1.94226,2.75518 -3.68249,2.72014c-0.39296,-0.00791 -0.77058,-0.076 -1.12425,-0.19528c-0.54239,1.44896 -1.9538,2.4671 -3.58845,2.43418c-0.7186,-0.01447 -1.3859,-0.23017 -1.94923,-0.5922c-0.70015,0.92691 -1.81972,1.5165 -3.06989,1.49133c-1.84328,-0.03712 -3.34909,-1.39818 -3.62813,-3.15734c-0.45973,0.36993 -1.60999,0.61897 -2.98695,0.77655c-0.58718,0.35586 -1.27901,0.55481 -2.01627,0.53995c-0.12014,-0.00242 -0.23884,-0.01046 -0.35587,-0.02388c-0.29346,1.42445 -0.5813,2.6363 -0.70178,3.4207l-4.61885,-3.73554c-0.12939,0.50601 -0.36144,0.97012 -0.67227,1.36932c0.04537,0.24591 0.06668,0.50005 0.06145,0.75982c-0.0417,2.07065 -1.75409,3.71544 -3.82475,3.67374c-0.37155,-0.00748 -0.72938,-0.06875 -1.06623,-0.17624l-3.56339,-1.04936l0.00005,-0.00017c-1.23906,-0.38562 -2.49955,-0.79534 -3.69749,-1.27596c-1.11006,-0.03467 -2.09455,-0.54963 -2.75756,-1.34095c-1.49264,-0.89986 -2.71583,-2.02415 -3.42163,-3.51112c-0.64245,1.20955 -1.92655,2.02186 -3.38943,1.9924c-0.6137,-0.01236 -1.18998,-0.17147 -1.69605,-0.44317c-0.68999,0.65147 -1.62611,1.04307 -2.64982,1.02246c-1.41085,-0.02842 -2.62401,-0.83245 -3.24069,-1.99695c-0.43224,0.16208 -0.90183,0.24653 -1.39148,0.23667c-1.48488,-0.0299 -2.75077,-0.91896 -3.33277,-2.18317c-0.45888,1.59313 -1.94313,2.74372 -3.67923,2.70876c-1.93015,-0.03887 -3.49028,-1.5294 -3.65934,-3.4086l-0.27439,-2.62336l0.23884,-0.02499c-0.10361,-0.10033 -0.21059,-0.19769 -0.32128,-0.2918c-0.27032,-0.22979 -0.60353,-0.37572 -0.94348,-0.51063c0.24494,1.80028 -0.24314,4.46255 -0.26076,5.3373l-0.00672,0.33327c0,0 -0.07551,3.74923 -3.82475,3.67373z" fill="#14c700" stroke-width="0.5"/><path d="M367.47242,636.48395c-3.74924,-0.07551 -3.67374,-3.82475 -3.67374,-3.82475l0.00672,-0.33327c0.07089,-3.52009 -0.66091,-10.56526 2.41583,-12.94497c1.86935,-1.44584 4.63858,-0.93235 7.11042,0.17472c0.60414,-2.00052 1.94667,-3.62275 4.86106,-4.29252c1.81325,-0.41671 3.73187,0.34277 5.36113,1.68796c0.56725,-0.179 1.22497,-0.27649 1.98771,-0.27406c0.64676,0.00206 1.22754,0.22267 1.75591,0.5826c0.61238,-0.28374 1.25564,-0.46603 1.91002,-0.50877c0.6153,-0.04018 1.22869,0.08628 1.82543,0.34353c0.08902,-0.08133 0.1817,-0.1595 0.27825,-0.23428c1.64272,-1.27212 4.22575,-0.94408 6.2222,-0.36871c0.90944,0.26211 1.64201,0.87583 2.32404,1.57303c1.71909,-0.49415 3.75733,0.72161 5.33456,2.10106c1.4263,0.28276 2.94457,0.92399 4.17825,1.77431c1.33177,-1.56511 2.90544,-2.37615 4.56617,-2.37268c3.55394,-4.95042 6.66186,-2.17924 10.11064,-0.2735c1.24703,0.68908 2.62159,1.21684 3.80009,2.00606c0.63848,-0.46844 1.42982,-0.73916 2.28224,-0.72409c0.17234,-1.02023 0.53203,-1.94899 1.249,-2.70337c4.36403,-4.59164 6.86574,-1.08852 8.33054,1.92608c0.05752,-0.03334 0.11603,-0.0652 0.1756,-0.09553c-0.13787,-2.51144 1.21416,-4.54388 6.05114,-5.12809c1.72135,-0.20791 2.73275,2.13823 4.03086,3.28766c2.60222,2.30415 5.00791,5.20821 7.39582,7.69425c0,0 2.59771,2.7045 -0.10679,5.30222c-2.1141,2.03063 -4.16295,0.82133 -4.95675,0.19659c-0.32903,1.77238 -1.9009,3.09769 -3.76225,3.06021c-0.83921,-0.0169 -1.60845,-0.30823 -2.22385,-0.78661l-3.57914,-2.71485l0.00416,-0.00549c-0.0087,-0.00375 -0.01737,-0.00752 -0.02605,-0.01127c-0.04864,-0.02106 -0.09661,-0.04209 -0.1439,-0.06309c-0.45507,1.59904 -1.94226,2.75518 -3.68249,2.72014c-0.39296,-0.00791 -0.77058,-0.076 -1.12425,-0.19528c-0.5424,1.44897 -1.9538,2.46711 -3.58847,2.43419c-0.71859,-0.01448 -1.38589,-0.23016 -1.94922,-0.59219c-0.70014,0.92691 -1.81972,1.51649 -3.06989,1.49132c-1.84328,-0.03711 -3.34909,-1.39819 -3.62814,-3.15734c-0.45973,0.36993 -1.60999,0.61898 -2.98694,0.77656c-0.58719,0.35584 -1.27901,0.55481 -2.01627,0.53996c-0.12015,-0.00242 -0.23885,-0.01046 -0.35587,-0.02387c-0.29346,1.42444 -0.5813,2.6363 -0.70178,3.4207l-4.61885,-3.73553c-0.1294,0.50602 -0.36144,0.97011 -0.67227,1.36932c0.04537,0.24591 0.06668,0.50005 0.06145,0.75983c-0.0417,2.07066 -1.75408,3.71543 -3.82475,3.67374c-0.37155,-0.00749 -0.72938,-0.06875 -1.06622,-0.17624l-3.56339,-1.04936l0.00005,-0.00018c-1.23906,-0.38562 -2.49955,-0.79534 -3.6975,-1.27596c-1.11007,-0.03466 -2.09456,-0.54963 -2.75756,-1.34095c-1.49264,-0.89985 -2.71581,-2.02415 -3.42162,-3.51113c-0.64245,1.20955 -1.92653,2.02187 -3.38942,1.99241c-0.6137,-0.01236 -1.18998,-0.17148 -1.69605,-0.44318c-0.68998,0.65147 -1.62612,1.04307 -2.64983,1.02246c-1.41085,-0.02842 -2.624,-0.83245 -3.24069,-1.99695c-0.43224,0.16208 -0.90184,0.24654 -1.39148,0.23667c-1.48489,-0.0299 -2.75077,-0.91896 -3.33277,-2.18318c-0.45888,1.59314 -1.94313,2.74373 -3.67923,2.70876c-1.93015,-0.03888 -3.49027,-1.52939 -3.65933,-3.40858l-0.2744,-2.62336l0.23884,-0.02499c-0.10361,-0.10033 -0.21058,-0.1977 -0.32127,-0.2918c-0.27032,-0.22979 -0.60352,-0.37572 -0.94347,-0.51064c0.24494,1.80029 -0.24315,4.46255 -0.26077,5.33731l-0.00672,0.33326c0,0 -0.07551,3.74924 -3.82476,3.67374z" fill="#14c700" stroke-width="0.5"/><path d="M284.23014,636.2152c-3.74925,-0.0755 -3.67374,-3.82474 -3.67374,-3.82474l0.00672,-0.33326c0.07089,-3.5201 -0.66092,-10.56526 2.41582,-12.94497c1.86935,-1.44584 4.63859,-0.93235 7.11042,0.17472c0.60415,-2.00051 1.94666,-3.62275 4.86105,-4.29253c1.81324,-0.41671 3.73188,0.34278 5.36114,1.68796c0.56725,-0.17899 1.22496,-0.27648 1.98771,-0.27405c0.64677,0.00206 1.22754,0.22266 1.75591,0.58259c0.61237,-0.28376 1.25564,-0.46603 1.91002,-0.50877c0.61531,-0.04018 1.22869,0.08628 1.82542,0.34352c0.08903,-0.08133 0.1817,-0.1595 0.27826,-0.23428c1.64273,-1.27212 4.22574,-0.94408 6.2222,-0.36872c0.90944,0.2621 1.64202,0.87583 2.32404,1.57303c1.71909,-0.49415 3.75734,0.72161 5.33456,2.10107c1.4263,0.28275 2.94458,0.92399 4.17825,1.77431c1.33177,-1.56511 2.90544,-2.37616 4.56617,-2.37269c3.55394,-4.95042 6.66185,-2.17923 10.11062,-0.27349c1.24701,0.68908 2.62159,1.21684 3.80009,2.00606c0.6385,-0.46843 1.42982,-0.73916 2.28225,-0.72408c0.17234,-1.02022 0.53201,-1.94899 1.249,-2.70337c4.36403,-4.59163 6.86575,-1.08851 8.33055,1.92608c0.05752,-0.03334 0.11604,-0.0652 0.1756,-0.09553c-0.13787,-2.51143 1.21415,-4.54388 6.05114,-5.1281c1.72136,-0.2079 2.73275,2.13822 4.03086,3.28765c2.60222,2.30416 5.00791,5.20821 7.39581,7.69425c0,0 2.59772,2.7045 -0.10678,5.30222c-2.1141,2.03063 -4.16295,0.82134 -4.95674,0.19658c-0.32903,1.77239 -1.9009,3.09769 -3.76225,3.06021c-0.8392,-0.0169 -1.60846,-0.30822 -2.22385,-0.7866l-3.57913,-2.71484l0.00416,-0.00549c-0.00869,-0.00375 -0.01738,-0.00752 -0.02607,-0.01127c-0.04864,-0.02106 -0.09659,-0.04208 -0.1439,-0.0631c-0.45506,1.59903 -1.94226,2.75518 -3.68249,2.72014c-0.39297,-0.00791 -0.77058,-0.07599 -1.12425,-0.19528c-0.54239,1.44895 -1.9538,2.4671 -3.58845,2.43417c-0.7186,-0.01447 -1.3859,-0.23017 -1.94923,-0.5922c-0.70015,0.92691 -1.81973,1.5165 -3.0699,1.49133c-1.84328,-0.03712 -3.34909,-1.39818 -3.62813,-3.15734c-0.45973,0.36993 -1.60999,0.61897 -2.98694,0.77656c-0.58718,0.35586 -1.27901,0.55481 -2.01628,0.53995c-0.12014,-0.00242 -0.23884,-0.01046 -0.35587,-0.02388c-0.29345,1.42445 -0.5813,2.6363 -0.70177,3.4207l-4.61885,-3.73554c-0.12939,0.50601 -0.36144,0.97012 -0.67227,1.36933c0.04537,0.2459 0.06669,0.50005 0.06145,0.75982c-0.0417,2.07065 -1.75409,3.71545 -3.82475,3.67375c-0.37154,-0.00748 -0.72938,-0.06875 -1.06622,-0.17624l-3.56339,-1.04936l0.00005,-0.00017c-1.23906,-0.38562 -2.49955,-0.79534 -3.69749,-1.27596c-1.11006,-0.03467 -2.09455,-0.54962 -2.75756,-1.34094c-1.49265,-0.89986 -2.71582,-2.02416 -3.42163,-3.51113c-0.64246,1.20955 -1.92655,2.02187 -3.38943,1.99241c-0.6137,-0.01236 -1.18998,-0.17147 -1.69605,-0.44317c-0.68999,0.65147 -1.62611,1.04307 -2.64982,1.02246c-1.41085,-0.02841 -2.62402,-0.83245 -3.24069,-1.99695c-0.43223,0.16207 -0.90183,0.24653 -1.39148,0.23667c-1.48488,-0.0299 -2.75077,-0.91896 -3.33276,-2.18317c-0.45888,1.59313 -1.94314,2.74372 -3.67924,2.70875c-1.93015,-0.03886 -3.49028,-1.5294 -3.65933,-3.4086l-0.27439,-2.62336l0.23884,-0.02499c-0.10361,-0.10033 -0.21058,-0.1977 -0.32128,-0.2918c-0.27033,-0.22978 -0.60353,-0.37572 -0.94348,-0.51063c0.24494,1.80029 -0.24314,4.46255 -0.26076,5.3373l-0.00672,0.33327c0,0 -0.0755,3.74923 -3.82474,3.67373z" fill="#14c700" stroke-width="0.5"/><path d="M291.67991,510.55914c-3.72919,-0.39442 -3.33479,-4.12362 -3.33479,-4.12362l0.03507,-0.33148c0.37031,-3.50128 0.24096,-10.58317 3.50912,-12.69231c1.98565,-1.28145 4.70111,-0.53406 7.06973,0.77943c0.77226,-1.94183 2.24802,-3.44387 5.20885,-3.8631c1.84214,-0.26083 3.68915,0.65924 5.19796,2.13825c0.58043,-0.13005 1.24406,-0.1712 2.00383,-0.10384c0.64424,0.05712 1.20413,0.32636 1.69994,0.72997c0.63431,-0.23058 1.29075,-0.35744 1.9464,-0.34432c0.61649,0.01235 1.21689,0.19057 1.78956,0.49769c0.09562,-0.07346 0.19462,-0.14345 0.29718,-0.20974c1.74506,-1.12765 4.29078,-0.5809 6.231,0.16234c0.88383,0.33858 1.56149,1.01244 2.18169,1.76517c1.75491,-0.346 3.68226,1.03886 5.13632,2.54758c1.39705,0.40316 2.85522,1.17132 4.01203,2.12358c1.46017,-1.44605 3.09718,-2.12018 4.75158,-1.97533c3.96249,-4.62989 6.8232,-1.60418 10.09721,0.58825c1.18383,0.79274 2.50848,1.43561 3.61551,2.32229c0.67604,-0.41238 1.48755,-0.61475 2.3356,-0.52716c0.25856,-1.00185 0.69602,-1.89663 1.47461,-2.58722c4.73908,-4.20344 6.93348,-0.50006 8.13633,2.6283c0.06015,-0.02832 0.12115,-0.05509 0.1831,-0.08023c0.07644,-2.51406 1.59659,-4.42402 6.46575,-4.59432c1.73281,-0.06061 2.54079,2.36311 3.73634,3.61889c2.39661,2.51732 4.54634,5.61564 6.71393,8.29596c0,0 2.35803,2.91583 -0.5578,5.27388c-2.2793,1.84328 -4.21776,0.46395 -4.95549,-0.22611c-0.47872,1.73794 -2.15772,2.92461 -4.00912,2.7288c-0.83472,-0.08828 -1.57637,-0.44405 -2.14881,-0.97308l-3.33502,-3.0097l0.00461,-0.00511c-0.00835,-0.00448 -0.01667,-0.00897 -0.025,-0.01345c-0.04667,-0.02512 -0.09267,-0.05016 -0.13801,-0.07512c-0.58955,1.55449 -2.16977,2.57983 -3.9007,2.39676c-0.39086,-0.04134 -0.76132,-0.14132 -1.10354,-0.29028c-0.66378,1.39753 -2.15674,2.29182 -3.78267,2.11985c-0.71475,-0.0756 -1.36126,-0.34731 -1.89173,-0.75599c-0.77651,0.86394 -1.94222,1.35607 -3.18571,1.22455c-1.83343,-0.19391 -3.2179,-1.67823 -3.34617,-3.45476c-0.48955,0.32945 -1.65684,0.47966 -3.0422,0.51945c-0.61536,0.30456 -1.3216,0.44391 -2.05492,0.36635c-0.11951,-0.01264 -0.2371,-0.03076 -0.35255,-0.05408c-0.41366,1.39429 -0.80363,2.57724 -0.99045,3.34854l-4.28406,-4.11519c-0.17201,0.49316 -0.44272,0.93582 -0.78641,1.30712c0.02427,0.24888 0.02387,0.50391 -0.00346,0.7623c-0.21783,2.05959 -2.06403,3.55261 -4.12362,3.33479c-0.36956,-0.0391 -0.72088,-0.1306 -1.04734,-0.26637l-3.46112,-1.34892l0.00007,-0.00018c-1.20173,-0.48971 -2.42277,-1.00524 -3.57545,-1.5861c-1.10308,-0.12903 -2.04016,-0.72595 -2.63339,-1.57084c-1.41062,-1.02366 -2.53363,-2.24801 -3.11028,-3.78968c-0.74309,1.15047 -2.09167,1.85051 -3.54674,1.69662c-0.61041,-0.06456 -1.17106,-0.27216 -1.65216,-0.58597c-0.74293,0.59037 -1.70902,0.90084 -2.72725,0.79316c-1.40331,-0.14842 -2.54361,-1.05282 -3.05892,-2.26559c-0.44446,0.12469 -0.91955,0.16886 -1.40658,0.11735c-1.47695,-0.15621 -2.66255,-1.14981 -3.13481,-2.45898c-0.59284,1.54829 -2.16965,2.56834 -3.89648,2.3857c-1.91983,-0.20305 -3.3474,-1.82098 -3.35586,-3.70774l-0.05006,-2.6372l0.2401,-0.00457c-0.09469,-0.10879 -0.19298,-0.21491 -0.29527,-0.31809c-0.24978,-0.25197 -0.56935,-0.42574 -0.89657,-0.5891c0.09079,1.81461 -0.62218,4.42564 -0.71421,5.29573l-0.03506,0.33148c0,0 -0.39442,3.7292 -4.12363,3.33478z" fill="#14c700" stroke-width="0.5"/><path d="M313.19643,511.05464c-3.72919,-0.39442 -3.33479,-4.12362 -3.33479,-4.12362l0.03507,-0.33148c0.37031,-3.50128 0.24096,-10.58317 3.50912,-12.69231c1.98565,-1.28145 4.70111,-0.53406 7.06973,0.77943c0.77226,-1.94183 2.24802,-3.44387 5.20885,-3.8631c1.84214,-0.26083 3.68915,0.65924 5.19796,2.13825c0.58043,-0.13005 1.24406,-0.1712 2.00383,-0.10384c0.64424,0.05712 1.20413,0.32636 1.69994,0.72997c0.63431,-0.23058 1.29075,-0.35744 1.9464,-0.34432c0.61649,0.01235 1.21689,0.19057 1.78956,0.49769c0.09562,-0.07346 0.19462,-0.14345 0.29718,-0.20974c1.74506,-1.12765 4.29078,-0.5809 6.231,0.16234c0.88383,0.33858 1.56149,1.01244 2.18169,1.76517c1.75491,-0.346 3.68226,1.03886 5.13632,2.54758c1.39705,0.40316 2.85522,1.17132 4.01203,2.12358c1.46017,-1.44605 3.09718,-2.12018 4.75158,-1.97533c3.96249,-4.62989 6.8232,-1.60418 10.09721,0.58825c1.18383,0.79274 2.50848,1.43561 3.61551,2.32229c0.67604,-0.41238 1.48755,-0.61475 2.3356,-0.52716c0.25856,-1.00185 0.69602,-1.89663 1.47461,-2.58722c4.73908,-4.20344 6.93348,-0.50006 8.13633,2.6283c0.06015,-0.02832 0.12115,-0.05509 0.1831,-0.08023c0.07644,-2.51406 1.59659,-4.42402 6.46575,-4.59432c1.73281,-0.06061 2.54079,2.36311 3.73634,3.61889c2.39661,2.51732 4.54634,5.61564 6.71393,8.29596c0,0 2.35803,2.91583 -0.5578,5.27388c-2.2793,1.84328 -4.21776,0.46395 -4.95549,-0.22611c-0.47872,1.73794 -2.15772,2.92461 -4.00912,2.7288c-0.83472,-0.08828 -1.57637,-0.44405 -2.14881,-0.97308l-3.33502,-3.0097l0.00461,-0.00511c-0.00835,-0.00448 -0.01667,-0.00897 -0.025,-0.01345c-0.04667,-0.02512 -0.09267,-0.05016 -0.13801,-0.07512c-0.58955,1.55449 -2.16977,2.57983 -3.9007,2.39676c-0.39086,-0.04134 -0.76132,-0.14132 -1.10354,-0.29028c-0.66378,1.39753 -2.15674,2.29182 -3.78267,2.11985c-0.71475,-0.0756 -1.36126,-0.34731 -1.89173,-0.75599c-0.77651,0.86394 -1.94222,1.35607 -3.18571,1.22455c-1.83343,-0.19391 -3.2179,-1.67823 -3.34617,-3.45476c-0.48955,0.32945 -1.65684,0.47966 -3.0422,0.51945c-0.61536,0.30456 -1.3216,0.44391 -2.05492,0.36635c-0.11951,-0.01264 -0.2371,-0.03076 -0.35255,-0.05408c-0.41366,1.39429 -0.80363,2.57724 -0.99045,3.34854l-4.28406,-4.11519c-0.17201,0.49316 -0.44272,0.93582 -0.78641,1.30712c0.02427,0.24888 0.02387,0.50391 -0.00346,0.7623c-0.21783,2.05959 -2.06403,3.55261 -4.12362,3.33479c-0.36956,-0.0391 -0.72088,-0.1306 -1.04734,-0.26637l-3.46112,-1.34892l0.00007,-0.00018c-1.20173,-0.48971 -2.42277,-1.00524 -3.57545,-1.5861c-1.10308,-0.12903 -2.04016,-0.72595 -2.63339,-1.57084c-1.41062,-1.02366 -2.53363,-2.24801 -3.11028,-3.78968c-0.74309,1.15047 -2.09167,1.85051 -3.54674,1.69662c-0.61041,-0.06456 -1.17106,-0.27216 -1.65216,-0.58597c-0.74293,0.59037 -1.70902,0.90084 -2.72725,0.79316c-1.40331,-0.14842 -2.54361,-1.05282 -3.05892,-2.26559c-0.44446,0.12469 -0.91955,0.16886 -1.40658,0.11735c-1.47695,-0.15621 -2.66255,-1.14981 -3.13481,-2.45898c-0.59284,1.54829 -2.16965,2.56834 -3.89648,2.3857c-1.91983,-0.20305 -3.3474,-1.82098 -3.35586,-3.70774l-0.05006,-2.6372l0.2401,-0.00457c-0.09469,-0.10879 -0.19298,-0.21491 -0.29527,-0.31809c-0.24978,-0.25197 -0.56935,-0.42574 -0.89657,-0.5891c0.09079,1.81461 -0.62218,4.42564 -0.71421,5.29573l-0.03506,0.33148c0,0 -0.39442,3.7292 -4.12363,3.33478z" fill="#14c700" stroke-width="0.5"/><path d="M228.44092,535.57415c-2.42895,-0.39442 -2.17206,-4.12362 -2.17206,-4.12362l0.02284,-0.33148c0.2412,-3.50128 0.15695,-10.58317 2.28561,-12.69231c1.29332,-1.28145 3.06199,-0.53406 4.60475,0.77943c0.503,-1.94183 1.46421,-3.44387 3.3927,-3.8631c1.19985,-0.26083 2.40287,0.65924 3.38561,2.13825c0.37805,-0.13005 0.8103,-0.1712 1.30516,-0.10384c0.41962,0.05712 0.78429,0.32636 1.10723,0.72997c0.41315,-0.23058 0.84071,-0.35744 1.26776,-0.34432c0.40154,0.01235 0.7926,0.19057 1.1656,0.49769c0.06228,-0.07346 0.12676,-0.14345 0.19356,-0.20974c1.13662,-1.12765 2.79473,-0.5809 4.05846,0.16234c0.57567,0.33858 1.01705,1.01244 1.42101,1.76517c1.14303,-0.346 2.39838,1.03886 3.34546,2.54758c0.90995,0.40316 1.8597,1.17132 2.61317,2.12358c0.95106,-1.44605 2.0173,-2.12018 3.09486,-1.97533c2.5809,-4.62989 4.44418,-1.60418 6.57665,0.58825c0.77107,0.79274 1.63386,1.43561 2.3549,2.32229c0.44033,-0.41238 0.96889,-0.61475 1.52125,-0.52716c0.16841,-1.00185 0.45334,-1.89663 0.96046,-2.58722c3.08672,-4.20344 4.51601,-0.50006 5.29946,2.6283c0.03918,-0.02832 0.07891,-0.05509 0.11926,-0.08023c0.04979,-2.51406 1.03991,-4.42402 4.21136,-4.59432c1.12864,-0.06061 1.6549,2.36311 2.4336,3.61889c1.56099,2.51732 2.96118,5.61564 4.37301,8.29596c0,0 1.53586,2.91583 -0.36331,5.27388c-1.48458,1.84328 -2.74717,0.46395 -3.22768,-0.22611c-0.31181,1.73794 -1.4054,2.92461 -2.61127,2.7288c-0.54368,-0.08828 -1.02674,-0.44405 -1.39959,-0.97308l-2.17221,-3.0097l0.003,-0.00511c-0.00544,-0.00448 -0.01086,-0.00897 -0.01628,-0.01345c-0.0304,-0.02512 -0.06036,-0.05016 -0.08989,-0.07512c-0.38399,1.55449 -1.41324,2.57983 -2.54066,2.39676c-0.25458,-0.04134 -0.49587,-0.14132 -0.71877,-0.29028c-0.43234,1.39753 -1.40476,2.29182 -2.46378,2.11985c-0.46554,-0.0756 -0.88663,-0.34731 -1.23215,-0.75599c-0.50577,0.86394 -1.26503,1.35607 -2.07496,1.22455c-1.19417,-0.19391 -2.09593,-1.67823 -2.17947,-3.45476c-0.31886,0.32945 -1.07916,0.47966 -1.98149,0.51945c-0.4008,0.30456 -0.8608,0.44391 -1.33844,0.36635c-0.07784,-0.01264 -0.15443,-0.03076 -0.22963,-0.05408c-0.26943,1.39429 -0.52343,2.57724 -0.64511,3.34854l-2.79035,-4.11519c-0.11204,0.49316 -0.28836,0.93582 -0.51222,1.30712c0.01581,0.24888 0.01555,0.50391 -0.00225,0.7623c-0.14188,2.05959 -1.34437,3.55261 -2.68585,3.33479c-0.24071,-0.0391 -0.46953,-0.1306 -0.68217,-0.26637l-2.25434,-1.34892l0.00005,-0.00018c-0.78273,-0.48971 -1.57803,-1.00524 -2.32881,-1.5861c-0.71847,-0.12903 -1.32882,-0.72595 -1.71522,-1.57084c-0.91878,-1.02366 -1.65024,-2.24801 -2.02583,-3.78968c-0.484,1.15047 -1.36237,1.85051 -2.31011,1.69662c-0.39758,-0.06456 -0.76275,-0.27216 -1.07611,-0.58597c-0.4839,0.59037 -1.11314,0.90084 -1.77635,0.79316c-0.91402,-0.14842 -1.65674,-1.05282 -1.99238,-2.26559c-0.28949,0.12469 -0.59893,0.16886 -0.91615,0.11735c-0.96199,-0.15621 -1.73421,-1.14981 -2.04181,-2.45898c-0.38614,1.54829 -1.41317,2.56834 -2.53791,2.3857c-1.25045,-0.20305 -2.18027,-1.82098 -2.18578,-3.70774l-0.03261,-2.6372l0.15639,-0.00457c-0.06167,-0.10879 -0.12569,-0.21491 -0.19232,-0.31809c-0.16269,-0.25197 -0.37084,-0.42574 -0.58397,-0.5891c0.05913,1.81461 -0.40525,4.42564 -0.46519,5.29573l-0.02284,0.33148c0,0 -0.2569,3.7292 -2.68586,3.33478z" fill="#14c700" stroke-width="0.5"/><path d="M148.704,575.10869c-3.37458,-0.39442 -3.01768,-4.12362 -3.01768,-4.12362l0.03173,-0.33148c0.3351,-3.50128 0.21805,-10.58317 3.17544,-12.69231c1.79683,-1.28145 4.25408,-0.53406 6.39746,0.77943c0.69883,-1.94183 2.03425,-3.44387 4.71354,-3.8631c1.66697,-0.26083 3.33834,0.65924 4.70368,2.13825c0.52524,-0.13005 1.12576,-0.1712 1.81329,-0.10384c0.58298,0.05712 1.08962,0.32636 1.53829,0.72997c0.57399,-0.23058 1.16801,-0.35744 1.76131,-0.34432c0.55787,0.01235 1.10118,0.19057 1.6194,0.49769c0.08653,-0.07346 0.17611,-0.14345 0.26892,-0.20974c1.57912,-1.12765 3.88277,-0.5809 5.63849,0.16234c0.79979,0.33858 1.41301,1.01244 1.97423,1.76517c1.58803,-0.346 3.3321,1.03886 4.6479,2.54758c1.2642,0.40316 2.58371,1.17132 3.63052,2.12358c1.32132,-1.44605 2.80267,-2.12018 4.29975,-1.97533c3.5857,-4.62989 6.17437,-1.60418 9.13706,0.58825c1.07126,0.79274 2.26995,1.43561 3.27171,2.32229c0.61176,-0.41238 1.3461,-0.61475 2.11351,-0.52716c0.23397,-1.00185 0.62984,-1.89663 1.33439,-2.58722c4.28843,-4.20344 6.27417,-0.50006 7.36264,2.6283c0.05443,-0.02832 0.10962,-0.05509 0.16568,-0.08023c0.06917,-2.51406 1.44477,-4.42402 5.85092,-4.59432c1.56803,-0.06061 2.29919,2.36311 3.38105,3.61889c2.16872,2.51732 4.11403,5.61564 6.0755,8.29596c0,0 2.1338,2.91583 -0.50476,5.27388c-2.06256,1.84328 -3.81668,0.46395 -4.48427,-0.22611c-0.4332,1.73794 -1.95254,2.92461 -3.62789,2.7288c-0.75534,-0.08828 -1.42647,-0.44405 -1.94448,-0.97308l-3.01789,-3.0097l0.00417,-0.00511c-0.00756,-0.00448 -0.01509,-0.00897 -0.02263,-0.01345c-0.04224,-0.02512 -0.08386,-0.05016 -0.12489,-0.07512c-0.53349,1.55449 -1.96345,2.57983 -3.52978,2.39676c-0.35369,-0.04134 -0.68892,-0.14132 -0.9986,-0.29028c-0.60066,1.39753 -1.95165,2.29182 -3.42297,2.11985c-0.64678,-0.0756 -1.23181,-0.34731 -1.71184,-0.75599c-0.70267,0.86394 -1.75754,1.35607 -2.88278,1.22455c-1.65909,-0.19391 -2.91191,-1.67823 -3.02798,-3.45476c-0.443,0.32945 -1.49929,0.47966 -2.75291,0.51945c-0.55685,0.30456 -1.19593,0.44391 -1.85952,0.36635c-0.10814,-0.01264 -0.21456,-0.03076 -0.31903,-0.05408c-0.37432,1.39429 -0.72721,2.57724 -0.89626,3.34854l-3.87669,-4.11519c-0.15565,0.49316 -0.40062,0.93582 -0.71163,1.30712c0.02197,0.24888 0.0216,0.50391 -0.00313,0.7623c-0.19712,2.05959 -1.86776,3.55261 -3.7315,3.33479c-0.33442,-0.0391 -0.65233,-0.1306 -0.94775,-0.26637l-3.13199,-1.34892l0.00006,-0.00018c-1.08745,-0.48971 -2.19238,-1.00524 -3.23546,-1.5861c-0.99819,-0.12903 -1.84616,-0.72595 -2.38298,-1.57084c-1.27648,-1.02366 -2.29271,-2.24801 -2.81452,-3.78968c-0.67243,1.15047 -1.89277,1.85051 -3.20948,1.69662c-0.55236,-0.06456 -1.05971,-0.27216 -1.49506,-0.58597c-0.67228,0.59037 -1.54651,0.90084 -2.46791,0.79316c-1.26987,-0.14842 -2.30173,-1.05282 -2.76804,-2.26559c-0.40219,0.12469 -0.83211,0.16886 -1.27283,0.11735c-1.3365,-0.15621 -2.40936,-1.14981 -2.83672,-2.45898c-0.53646,1.54829 -1.96334,2.56834 -3.52596,2.3857c-1.73727,-0.20305 -3.02909,-1.82098 -3.03675,-3.70774l-0.0453,-2.6372l0.21727,-0.00457c-0.08569,-0.10879 -0.17463,-0.21491 -0.26719,-0.31809c-0.22603,-0.25197 -0.51521,-0.42574 -0.81131,-0.5891c0.08216,1.81461 -0.56302,4.42564 -0.6463,5.29573l-0.03173,0.33148c0,0 -0.35692,3.7292 -3.73151,3.33478z" fill="#14c700" stroke-width="0.5"/><path d="M926.81505,572.1207c-3.72919,-0.39442 -3.33479,-4.12362 -3.33479,-4.12362l0.03507,-0.33148c0.37031,-3.50128 0.24096,-10.58317 3.50912,-12.69231c1.98565,-1.28145 4.70111,-0.53406 7.06973,0.77943c0.77226,-1.94183 2.24802,-3.44387 5.20885,-3.8631c1.84214,-0.26083 3.68915,0.65924 5.19796,2.13825c0.58043,-0.13005 1.24406,-0.1712 2.00383,-0.10384c0.64424,0.05712 1.20413,0.32636 1.69994,0.72997c0.63431,-0.23058 1.29075,-0.35744 1.9464,-0.34432c0.61649,0.01235 1.21689,0.19057 1.78956,0.49769c0.09562,-0.07346 0.19462,-0.14345 0.29718,-0.20974c1.74506,-1.12765 4.29078,-0.5809 6.231,0.16234c0.88383,0.33858 1.56149,1.01244 2.18169,1.76517c1.75491,-0.346 3.68226,1.03886 5.13632,2.54758c1.39705,0.40316 2.85522,1.17132 4.01203,2.12358c1.46017,-1.44605 3.09718,-2.12018 4.75158,-1.97533c3.96249,-4.62989 6.8232,-1.60418 10.09721,0.58825c1.18383,0.79274 2.50848,1.43561 3.61551,2.32229c0.67604,-0.41238 1.48755,-0.61475 2.3356,-0.52716c0.25856,-1.00185 0.69602,-1.89663 1.47461,-2.58722c4.73908,-4.20344 6.93348,-0.50006 8.13633,2.6283c0.06015,-0.02832 0.12115,-0.05509 0.1831,-0.08023c0.07644,-2.51406 1.59659,-4.42402 6.46575,-4.59432c1.73281,-0.06061 2.54079,2.36311 3.73634,3.61889c2.39661,2.51732 4.54634,5.61564 6.71393,8.29596c0,0 2.35803,2.91583 -0.5578,5.27388c-2.2793,1.84328 -4.21776,0.46395 -4.95549,-0.22611c-0.47872,1.73794 -2.15772,2.92461 -4.00912,2.7288c-0.83472,-0.08828 -1.57637,-0.44405 -2.14881,-0.97308l-3.33502,-3.0097l0.00461,-0.00511c-0.00835,-0.00448 -0.01667,-0.00897 -0.025,-0.01345c-0.04667,-0.02512 -0.09267,-0.05016 -0.13801,-0.07512c-0.58955,1.55449 -2.16977,2.57983 -3.9007,2.39676c-0.39086,-0.04134 -0.76132,-0.14132 -1.10354,-0.29028c-0.66378,1.39753 -2.15674,2.29182 -3.78267,2.11985c-0.71475,-0.0756 -1.36126,-0.34731 -1.89173,-0.75599c-0.77651,0.86394 -1.94222,1.35607 -3.18571,1.22455c-1.83343,-0.19391 -3.2179,-1.67823 -3.34617,-3.45476c-0.48955,0.32945 -1.65684,0.47966 -3.0422,0.51945c-0.61536,0.30456 -1.3216,0.44391 -2.05492,0.36635c-0.11951,-0.01264 -0.2371,-0.03076 -0.35255,-0.05408c-0.41366,1.39429 -0.80363,2.57724 -0.99045,3.34854l-4.28406,-4.11519c-0.17201,0.49316 -0.44272,0.93582 -0.78641,1.30712c0.02427,0.24888 0.02387,0.50391 -0.00346,0.7623c-0.21783,2.05959 -2.06403,3.55261 -4.12362,3.33479c-0.36956,-0.0391 -0.72088,-0.1306 -1.04734,-0.26637l-3.46112,-1.34892l0.00007,-0.00018c-1.20173,-0.48971 -2.42277,-1.00524 -3.57545,-1.5861c-1.10308,-0.12903 -2.04016,-0.72595 -2.63339,-1.57084c-1.41062,-1.02366 -2.53363,-2.24801 -3.11028,-3.78968c-0.74309,1.15047 -2.09167,1.85051 -3.54674,1.69662c-0.61041,-0.06456 -1.17106,-0.27216 -1.65216,-0.58597c-0.74293,0.59037 -1.70902,0.90084 -2.72725,0.79316c-1.40331,-0.14842 -2.54361,-1.05282 -3.05892,-2.26559c-0.44446,0.12469 -0.91955,0.16886 -1.40658,0.11735c-1.47695,-0.15621 -2.66255,-1.14981 -3.13481,-2.45898c-0.59284,1.54829 -2.16965,2.56834 -3.89648,2.3857c-1.91983,-0.20305 -3.3474,-1.82098 -3.35586,-3.70774l-0.05006,-2.6372l0.2401,-0.00457c-0.09469,-0.10879 -0.19298,-0.21491 -0.29527,-0.31809c-0.24978,-0.25197 -0.56935,-0.42574 -0.89657,-0.5891c0.09079,1.81461 -0.62218,4.42564 -0.71421,5.29573l-0.03506,0.33148c0,0 -0.39442,3.7292 -4.12363,3.33478z" fill="#14c700" stroke-width="0.5"/><path d="M842.7887,571.65064c-3.74925,-0.0755 -3.67374,-3.82474 -3.67374,-3.82474l0.00671,-0.33327c0.07089,-3.5201 -0.66092,-10.56527 2.41582,-12.94497c1.86935,-1.44584 4.63859,-0.93235 7.11042,0.17473c0.60416,-2.00051 1.94666,-3.62275 4.86105,-4.29253c1.81325,-0.41671 3.73188,0.34279 5.36113,1.68796c0.56726,-0.17899 1.22496,-0.27647 1.98772,-0.27405c0.64677,0.00206 1.22754,0.22266 1.75591,0.58259c0.61238,-0.28375 1.25563,-0.46603 1.91002,-0.50877c0.6153,-0.04018 1.22869,0.08628 1.82543,0.34353c0.08903,-0.08133 0.1817,-0.1595 0.27826,-0.23427c1.64272,-1.27212 4.22574,-0.94408 6.2222,-0.36871c0.90943,0.26209 1.64202,0.87582 2.32404,1.57302c1.71909,-0.49415 3.75733,0.72161 5.33456,2.10107c1.4263,0.28276 2.94458,0.924 4.17826,1.77431c1.33178,-1.56511 2.90544,-2.37616 4.56617,-2.37268c3.55394,-4.95042 6.66186,-2.17923 10.11063,-0.27349c1.24702,0.68908 2.6216,1.21684 3.80009,2.00606c0.63849,-0.46843 1.42981,-0.73916 2.28225,-0.72408c0.17235,-1.02022 0.53202,-1.94899 1.249,-2.70337c4.36403,-4.59164 6.86574,-1.08851 8.33054,1.92608c0.05752,-0.03334 0.11604,-0.06521 0.1756,-0.09553c-0.13786,-2.51143 1.21416,-4.54388 6.05114,-5.12809c1.72135,-0.20791 2.73275,2.13822 4.03086,3.28765c2.60222,2.30415 5.00791,5.20821 7.39581,7.69426c0,0 2.59772,2.7045 -0.10678,5.30222c-2.1141,2.03063 -4.16294,0.82134 -4.95673,0.19658c-0.32903,1.77239 -1.9009,3.09769 -3.76225,3.06021c-0.83921,-0.01691 -1.60846,-0.30822 -2.22385,-0.7866l-3.57914,-2.71484l0.00416,-0.00548c-0.0087,-0.00375 -0.01738,-0.00752 -0.02607,-0.01127c-0.04864,-0.02106 -0.09659,-0.04208 -0.14389,-0.0631c-0.45507,1.59904 -1.94226,2.75518 -3.68249,2.72014c-0.39296,-0.00791 -0.77058,-0.076 -1.12425,-0.19528c-0.54239,1.44896 -1.9538,2.4671 -3.58845,2.43418c-0.7186,-0.01447 -1.3859,-0.23017 -1.94923,-0.5922c-0.70015,0.92691 -1.81972,1.5165 -3.06989,1.49133c-1.84328,-0.03712 -3.34909,-1.39818 -3.62813,-3.15734c-0.45973,0.36993 -1.60999,0.61897 -2.98695,0.77655c-0.58718,0.35586 -1.27901,0.55481 -2.01627,0.53995c-0.12014,-0.00242 -0.23884,-0.01046 -0.35587,-0.02388c-0.29346,1.42445 -0.5813,2.6363 -0.70178,3.4207l-4.61885,-3.73554c-0.12939,0.50601 -0.36144,0.97012 -0.67227,1.36932c0.04537,0.24591 0.06668,0.50005 0.06145,0.75982c-0.0417,2.07065 -1.75409,3.71544 -3.82475,3.67374c-0.37155,-0.00748 -0.72938,-0.06875 -1.06623,-0.17624l-3.56339,-1.04936l0.00005,-0.00017c-1.23906,-0.38562 -2.49955,-0.79534 -3.69749,-1.27596c-1.11006,-0.03467 -2.09455,-0.54963 -2.75756,-1.34095c-1.49264,-0.89986 -2.71583,-2.02415 -3.42163,-3.51112c-0.64245,1.20955 -1.92655,2.02186 -3.38943,1.9924c-0.6137,-0.01236 -1.18998,-0.17147 -1.69605,-0.44317c-0.68999,0.65147 -1.62611,1.04307 -2.64982,1.02246c-1.41085,-0.02842 -2.62401,-0.83245 -3.24069,-1.99695c-0.43224,0.16208 -0.90183,0.24653 -1.39148,0.23667c-1.48488,-0.0299 -2.75077,-0.91896 -3.33277,-2.18317c-0.45888,1.59313 -1.94313,2.74372 -3.67923,2.70876c-1.93015,-0.03887 -3.49028,-1.5294 -3.65934,-3.4086l-0.27439,-2.62336l0.23884,-0.02499c-0.10361,-0.10033 -0.21059,-0.19769 -0.32128,-0.2918c-0.27032,-0.22979 -0.60353,-0.37572 -0.94348,-0.51063c0.24494,1.80028 -0.24314,4.46255 -0.26076,5.3373l-0.00672,0.33327c0,0 -0.07551,3.74923 -3.82475,3.67373z" fill="#14c700" stroke-width="0.5"/></g></g></svg>