<svg version="1.1" xmlns="http://www.w3.org/2000/svg" xmlns:xlink="http://www.w3.org/1999/xlink" width="25.64582" height="26.16395" viewBox="0,0,25.64582,26.16395"><g transform="translate(-523.02084,-310.91665)"><g data-paper-data="{&quot;isPaintingLayer&quot;:true}" fill-rule="nonzero" stroke-linecap="butt" stroke-linejoin="miter" stroke-miterlimit="10" stroke-dasharray="" stroke-dashoffset="0" style="mix-blend-mode: normal"><path d="M542.68664,324.63932c0.44043,0.15174 0.88803,0.2479 1.33483,0.24488c0.22497,-0.00153 0.88371,0.05518 0.67305,-0.09557c-0.48473,-0.34687 -1.25482,-0.2778 -2.00788,-0.1493zM531.47047,325.91212c-0.10696,-0.14783 -0.20268,-0.38028 -0.26531,-0.73906c-0.23717,-1.35857 0.47434,-1.81143 0.47434,-1.81143l0.61387,-0.37224c3.12804,-0.98089 6.44658,-0.97419 9.6233,-0.97419c0.79058,0 2.37226,-0.51115 3.0705,0.07349c1.22054,1.02194 1.73338,2.84066 0.56643,5.02006c-0.06234,0.11642 -0.13431,0.21638 -0.21421,0.30167c0.40037,0.6884 0.48832,1.73265 -0.00938,3.30948c-0.02729,0.08646 -0.08134,0.15902 -0.15544,0.21989c1.15924,1.48751 1.62072,4.13903 -0.35406,5.64081c-1.00201,0.76201 -2.24035,-0.26908 -3.19064,-0.58148c-3.12556,-1.0275 -6.86109,-0.61798 -10.04653,-0.61798c0,0 -0.75,0 -0.75,-1.43206c0,-0.27037 0.02673,-0.48969 0.0701,-0.66761c-0.04498,-0.18388 -0.0701,-0.38901 -0.0701,-0.60534c0,-0.3276 0.05761,-0.62952 0.15455,-0.87081l0.49545,-1.26138l0.26579,0.38062c0.36795,-0.72749 0.79599,-1.29117 1.26724,-1.72352c-0.05461,-0.02282 -0.10901,-0.04627 -0.1632,-0.07034c-0.60053,-0.26692 -1.47965,0.08401 -1.78288,-0.94108c-0.20884,-0.70601 0.09951,-1.54315 0.40018,-2.27748zM540.21786,333.1429c0.17712,0.00529 0.35449,0.0089 0.53214,0.01058c0.14807,0.00139 4.25634,0.83719 3.96606,0.03376c-0.16909,-0.468 -0.57997,-0.26113 -0.8733,-0.35895c-1.22633,0.00922 -2.42996,0.13996 -3.6249,0.31463zM534.66617,331.11865c1.13964,-0.11852 2.26782,-0.30587 3.39636,-0.49477c-1.03794,-0.08999 -2.06034,-0.05705 -3.02572,0.28343c-0.11345,0.04002 -0.23822,0.11521 -0.37064,0.21133zM538.76277,326.7616c-1.10108,-0.29848 -2.21078,-0.59009 -3.3461,-0.60933c-0.49084,-0.00833 -1.08021,0.10786 -1.61553,0.29227c0.31693,0.14294 0.58705,0.32831 0.68289,0.34998c1.34401,0.30404 2.84103,0.25728 4.27875,-0.03292z" fill="#ffffff" stroke="#000000" stroke-width="1"/><path d="M528.08333,321.99999v-10.33334h19.83333v10.33334z" fill="#ffffff" stroke="#000000" stroke-width="1.5"/><path d="M548.64584,314.63608c0,0.25 -0.25,0.25 -0.25,0.25l-0.16872,-0.00385c-1.80461,-0.32056 -3.589,-0.45363 -5.37736,-0.87543c-0.09095,-0.01273 -0.18188,-0.02504 -0.2728,-0.03694c-0.37465,0.04525 -0.77221,0.05558 -1.14368,0.10511c-0.04818,0.00642 -0.09645,0.01297 -0.1448,0.01964c-0.9665,0.26329 -1.97419,0.63975 -2.96003,0.96838c1.88169,0.03 3.94899,0.32309 5.3174,0.32309c0.7966,0.00145 5.11422,0.3227 3.94214,1.63437c-0.31992,0.35802 -0.81568,0.56856 -1.39153,0.68769c0.04593,0.04533 0.07439,0.10831 0.07439,0.17793c0,0.08283 -0.04028,0.15625 -0.10233,0.20175l-0.15432,0.11574c0.00435,0.01847 0.00665,0.03772 0.00665,0.05751c0,0.13188 -0.10212,0.23991 -0.2316,0.24933l-0.31759,0.02647c-1.60553,1.20222 -4.20146,1.89292 -6.34408,2.52149c1.60398,0.17569 3.19453,0.4255 4.55211,0.92306l0.00501,-0.03632l0.49176,0.06783c0.12363,0.01509 0.21939,0.12044 0.21939,0.24814c0,0.13807 -0.11193,0.25 -0.25,0.25l-0.375,0c-2.21646,0 -4.48951,0.06159 -6.65303,-0.47001l-0.00263,0.0237l-0.49394,-0.05488c-0.12652,-0.01236 -0.22539,-0.11904 -0.22539,-0.2488c0,-0.06904 0.02798,-0.13154 0.07322,-0.17678l0.1626,-0.1626c-0.80016,-0.12578 -1.60014,-0.25226 -2.40029,-0.37587c-3.17996,-0.086 -6.35549,-0.1244 -9.53581,-0.16715l-0.0452,-0.04374l-0.01165,0.02192l-0.23063,-0.12259c-0.08143,-0.04122 -0.13725,-0.12568 -0.13725,-0.22319c0,-0.12548 0.09245,-0.22937 0.21295,-0.24727l0.48914,-0.08152l0.00294,0.01763c2.0222,-0.7348 5.06806,-1.50186 7.2619,-1.74066c-0.79737,-0.08 -1.59259,-0.18879 -2.38664,-0.32962l-0.02746,-0.02254l-0.00468,0.00975l-0.44566,-0.2142c-0.08652,-0.03932 -0.14669,-0.12649 -0.14669,-0.22772c0,-0.13668 0.10969,-0.24775 0.24584,-0.24997l0.49932,-0.00949l0.00053,0.02768c0.51526,-0.10653 1.04888,-0.18273 1.5946,-0.23781c-0.14706,-0.06279 -0.28746,-0.13024 -0.42035,-0.2027l-0.04033,0.08065l-0.44237,-0.22118c-0.08456,-0.04009 -0.14304,-0.12623 -0.14304,-0.22603c0,-0.13807 0.11193,-0.25 0.25,-0.25c0.45833,0 1.16667,0 1.625,0c1.96733,0.00321 3.92126,0.33054 5.88717,0.58386c0.38565,-0.02357 0.76473,-0.05505 1.13499,-0.09775c0.77771,-0.08969 1.55622,-0.17094 2.33514,-0.24866c-0.33464,-0.08691 -0.66744,-0.19358 -0.96388,-0.22956c-2.11735,-0.25698 -4.36138,0.18081 -6.41839,-0.38289c-0.06329,0 -0.22504,0 -0.22504,0c-0.13807,0 -0.25,-0.11193 -0.25,-0.25c0,-0.0998 0.05848,-0.18594 0.14304,-0.22603l0.44237,-0.22118l0.0285,0.057c0.27895,-0.17671 0.58929,-0.34203 0.92348,-0.49608c-0.1801,0.00711 -0.35929,0.01103 -0.53739,0.01129c-3.50217,0 -6.82784,-0.41401 -10.29371,-0.87885c-0.33537,-0.07437 -0.67066,-0.14907 -1.00589,-0.2241l-0.01629,-0.01267l-0.00242,0.0061l-0.3934,-0.15592c-0.09534,-0.03525 -0.1633,-0.12697 -0.1633,-0.23456c0,-0.13807 0.11193,-0.25 0.25,-0.25h0.5l0,0.03169c2.87608,-0.54915 6.39623,-0.03169 9.25,-0.03169c2.89721,0 5.75454,-0.06628 8.62262,0.22281c0.64515,-0.0642 1.24213,-0.09662 1.75238,-0.09781c0.05953,0.00207 0.11905,0.00413 0.17858,0.0062l0.20512,-0.10256c0.03474,-0.01829 0.07431,-0.02864 0.1163,-0.02864c0.13807,0 0.25,0.11193 0.25,0.25c0,0.0998 -0.05848,0.18594 -0.14304,0.22603l-0.17873,0.08936c1.49221,0.28281 2.98377,0.42082 4.49049,0.68846l0.08128,-0.00385c0,0 0.25,0 0.25,0.25zM535.82149,315.76193c2.32188,0.24513 4.75759,-0.19527 6.99935,0.57463l0.00874,-0.04368l0.48575,0.09715c0.11685,0.02099 0.20551,0.12317 0.20551,0.24605c0,0.11304 -0.07503,0.20856 -0.178,0.23948l-0.38195,0.12446l-0.00273,-0.00837l-0.02326,0.01532c-0.70765,0.07273 -1.41549,0.14243 -2.12293,0.21613c0.40775,0.02416 0.81647,0.03797 1.22638,0.03796c1.47173,-0.00003 2.96717,0.16831 4.358,-0.32747c0.0976,-0.03479 1.04032,-0.23679 1.01729,-0.45487c-0.03017,-0.28562 -3.3875,-0.59341 -3.76779,-0.59263c-1.87951,0 -5.78121,-0.71134 -7.82435,-0.12415zM534.19788,317.84548c-0.57045,0.02626 -1.1436,0.04107 -1.72154,0.04121c-0.1677,0.00004 -0.36512,0.01385 -0.57763,0.03066c1.32539,0.14758 2.65462,0.21873 3.99714,0.21873c1.2531,0 2.5062,0.00001 3.7593,-0.00003c0.33111,-0.02173 0.66125,-0.04208 0.98934,-0.05978c-0.12664,-0.00275 -0.2533,-0.00557 -0.37996,-0.00845c-1.5186,-0.03451 -3.93344,0.04993 -6.06664,-0.22234zM537.77489,320.92376c1.40643,-0.5699 3.04478,-1.40361 4.63535,-2.04275c-1.61952,0.04341 -3.33716,-0.10727 -4.88441,-0.19167c-1.44319,0.07641 -2.87096,0.1571 -4.25499,0.19673c-1.46872,-0.05096 -3.34611,0.9329 -5.14194,1.50581c2.04956,0.02702 4.09878,0.0966 6.14749,0.15597c1.07046,0.16326 2.27012,0.26208 3.4985,0.3759zM537.18516,314.22286c0.69673,-0.21078 1.43089,-0.38631 2.1598,-0.52718c-2.09999,-0.09581 -4.20132,-0.05961 -6.32412,-0.05961c-2.25,0 -4.5,0 -6.75,0c-0.14401,0 -0.31134,0.0098 -0.492,0.02241c3.04945,0.39681 6.01189,0.72759 9.117,0.72759c0.74718,0.00119 1.51543,-0.06493 2.28932,-0.16322z" fill="#ececec" stroke="none" stroke-width="0.5"/></g></g></svg>