<svg version="1.1" xmlns="http://www.w3.org/2000/svg" xmlns:xlink="http://www.w3.org/1999/xlink" width="1979.47748" height="1573.55405" viewBox="0,0,1979.47748,1573.55405"><defs><linearGradient x1="555.01501" y1="-501.31756" x2="555.01501" y2="468.6524" gradientUnits="userSpaceOnUse" id="color-1"><stop offset="0" stop-color="#000000"/><stop offset="1" stop-color="#212121"/></linearGradient><linearGradient x1="544.63136" y1="208.1164" x2="544.63136" y2="810.97222" gradientUnits="userSpaceOnUse" id="color-2"><stop offset="0" stop-color="#082d00"/><stop offset="1" stop-color="#1a1a1a"/></linearGradient><linearGradient x1="169.66965" y1="226.90315" x2="169.66965" y2="905.58183" gradientUnits="userSpaceOnUse" id="color-3"><stop offset="0" stop-color="#082d00"/><stop offset="1" stop-color="#1a1a1a"/></linearGradient><linearGradient x1="838.33331" y1="188.35961" x2="838.33331" y2="867.03828" gradientUnits="userSpaceOnUse" id="color-4"><stop offset="0" stop-color="#082d00"/><stop offset="1" stop-color="#1a1a1a"/></linearGradient><linearGradient x1="426.42641" y1="-104.92869" x2="426.42641" y2="220.89712" gradientUnits="userSpaceOnUse" id="color-5"><stop offset="0" stop-color="#5c5c5c"/><stop offset="1" stop-color="#303030"/></linearGradient><linearGradient x1="344.59459" y1="-26.58423" x2="344.59459" y2="54.23046" gradientUnits="userSpaceOnUse" id="color-6"><stop offset="0" stop-color="#2d2d2d"/><stop offset="1" stop-color="#0a0a0a"/></linearGradient><linearGradient x1="496.74174" y1="36.3931" x2="496.74174" y2="158.47488" gradientUnits="userSpaceOnUse" id="color-7"><stop offset="0" stop-color="#2d2d2d"/><stop offset="1" stop-color="#0a0a0a"/></linearGradient><linearGradient x1="514.17671" y1="-51.11874" x2="514.17671" y2="-22.85663" gradientUnits="userSpaceOnUse" id="color-8"><stop offset="0" stop-color="#2d2d2d"/><stop offset="1" stop-color="#0a0a0a"/></linearGradient><linearGradient x1="440.43544" y1="-32.26425" x2="440.43544" y2="26.19744" gradientUnits="userSpaceOnUse" id="color-9"><stop offset="0" stop-color="#2d2d2d"/><stop offset="1" stop-color="#0a0a0a"/></linearGradient><linearGradient x1="364.26977" y1="83.84686" x2="364.26977" y2="152.81903" gradientUnits="userSpaceOnUse" id="color-10"><stop offset="0" stop-color="#2d2d2d"/><stop offset="1" stop-color="#0a0a0a"/></linearGradient><linearGradient x1="65.8108" y1="238.65693" x2="65.8108" y2="1036.70794" gradientUnits="userSpaceOnUse" id="color-11"><stop offset="0" stop-color="#082d00"/><stop offset="1" stop-color="#1a1a1a"/></linearGradient><linearGradient x1="780.27027" y1="247.41364" x2="780.27027" y2="926.09232" gradientUnits="userSpaceOnUse" id="color-12"><stop offset="0" stop-color="#082d00"/><stop offset="1" stop-color="#1a1a1a"/></linearGradient><linearGradient x1="365.10508" y1="272.18547" x2="365.10508" y2="1070.23648" gradientUnits="userSpaceOnUse" id="color-13"><stop offset="0" stop-color="#082d00"/><stop offset="1" stop-color="#1a1a1a"/></linearGradient></defs><g transform="translate(434.72372,502.31758)"><g data-paper-data="{&quot;isPaintingLayer&quot;:true}" fill-rule="nonzero" stroke-linecap="butt" stroke-linejoin="miter" stroke-miterlimit="10" stroke-dasharray="" stroke-dashoffset="0" style="mix-blend-mode: normal"><path d="M-433.72372,468.6524v-969.96997h1977.47748v969.96997z" fill="url(#color-1)" stroke="#000000" stroke-width="2"/><path d="M882.0706,509.54431c0,166.47404 -151.07668,301.42791 -337.43921,301.42791c-186.36253,0 -337.43921,-134.95387 -337.43921,-301.42791c0,-166.47404 151.07668,-301.42791 337.43921,-301.42791c186.36253,0 337.43921,134.95388 337.43921,301.42791z" fill="url(#color-2)" stroke="#000000" stroke-width="2"/><path d="M549.54955,566.24249c0,187.41194 -170.07802,339.33934 -379.87988,339.33934c-209.80186,0 -379.87988,-151.9274 -379.87988,-339.33934c0,-187.41194 170.07802,-339.33934 379.87988,-339.33934c209.80186,0 379.87988,151.9274 379.87988,339.33934z" fill="url(#color-3)" stroke="#000000" stroke-width="2"/><path d="M1329.32428,527.69894c0,187.41194 -219.82415,339.33934 -490.99099,339.33934c-271.16684,0 -490.99099,-151.9274 -490.99099,-339.33934c0,-187.41194 219.82415,-339.33934 490.99099,-339.33934c271.16684,0 490.99099,151.9274 490.99099,339.33934z" fill="url(#color-4)" stroke="#000000" stroke-width="2"/><path d="M596.09606,57.98423c0,89.97432 -75.9637,162.91291 -169.66967,162.91291c-93.70597,0 -169.66967,-72.9386 -169.66967,-162.91291c0,-89.97432 75.9637,-162.91291 169.66967,-162.91291c93.70597,0 169.66967,72.9386 169.66967,162.91291z" fill="url(#color-5)" stroke="#000000" stroke-width="2"/><path d="M379.87988,13.82313c0,22.31636 -15.79776,40.40734 -35.28529,40.40734c-19.48752,0 -35.28529,-18.09098 -35.28529,-40.40734c0,-22.31636 15.79776,-40.40734 35.28529,-40.40734c19.48752,0 35.28529,18.09098 35.28529,40.40734z" fill="url(#color-6)" stroke="#000000" stroke-width="2"/><path d="M550.04504,97.43399c0,33.71195 -23.8647,61.04088 -53.3033,61.04088c-29.4386,0 -53.3033,-27.32893 -53.3033,-61.04088c0,-33.71195 23.8647,-61.04088 53.3033,-61.04088c29.4386,0 53.3033,27.32893 53.3033,61.04088z" fill="url(#color-7)" stroke="#000000" stroke-width="2"/><path d="M526.51652,-36.98768c0,7.80437 -5.52472,14.13107 -12.3398,14.13107c-6.81509,0 -12.3398,-6.32669 -12.3398,-14.13107c0,-7.80437 5.52472,-14.13107 12.3398,-14.13107c6.81509,0 12.3398,6.32669 12.3398,14.13107z" fill="url(#color-8)" stroke="#000000" stroke-width="2"/><path d="M465.96097,-3.03341c0,16.14375 -11.42817,29.23084 -25.52553,29.23084c-14.09736,0 -25.52553,-13.08709 -25.52553,-29.23084c0,-16.14375 11.42817,-29.23085 25.52553,-29.23085c14.09736,0 25.52553,13.0871 25.52553,29.23085z" fill="url(#color-9)" stroke="#000000" stroke-width="2"/><path d="M394.38438,118.33295c0,19.04615 -13.48277,34.48609 -30.11462,34.48609c-16.63185,0 -30.11462,-15.43995 -30.11462,-34.48609c0,-19.04615 13.48277,-34.4861 30.11462,-34.4861c16.63185,0 30.11462,15.43995 30.11462,34.4861z" fill="url(#color-10)" stroke="#000000" stroke-width="2"/><path d="M110.11259,76.75297c0,-1.38071 1.11929,-2.5 2.5,-2.5c1.38071,0 2.5,1.11929 2.5,2.5c0,1.38071 -1.11929,2.5 -2.5,2.5c-1.38071,0 -2.5,-1.11929 -2.5,-2.5z" fill="#ffffff" stroke="none" stroke-width="0.5"/><path d="M45.54804,189.3656c0,-1.38071 1.11929,-2.5 2.5,-2.5c1.38071,0 2.5,1.11929 2.5,2.5c0,1.38071 -1.11929,2.5 -2.5,2.5c-1.38071,0 -2.5,-1.11929 -2.5,-2.5z" fill="#ffffff" stroke="none" stroke-width="0.5"/><path d="M117.62011,28.70493c0,-1.38071 1.11929,-2.5 2.5,-2.5c1.38071,0 2.5,1.11929 2.5,2.5c0,1.38071 -1.11929,2.5 -2.5,2.5c-1.38071,0 -2.5,-1.11929 -2.5,-2.5z" fill="#ffffff" stroke="none" stroke-width="0.5"/><path d="M183.6862,-41.86563c0,-1.38071 1.11929,-2.5 2.5,-2.5c1.38071,0 2.5,1.11929 2.5,2.5c0,1.38071 -1.11929,2.5 -2.5,2.5c-1.38071,0 -2.5,-1.11929 -2.5,-2.5z" fill="#ffffff" stroke="none" stroke-width="0.5"/><path d="M195.69819,109.78603c0,-1.38071 1.11929,-2.5 2.5,-2.5c1.38071,0 2.5,1.11929 2.5,2.5c0,1.38071 -1.11929,2.5 -2.5,2.5c-1.38071,0 -2.5,-1.11929 -2.5,-2.5z" fill="#ffffff" stroke="none" stroke-width="0.5"/><path d="M75.57806,85.76201c0,-1.38071 1.11929,-2.5 2.5,-2.5c1.38071,0 2.5,1.11929 2.5,2.5c0,1.38071 -1.11929,2.5 -2.5,2.5c-1.38071,0 -2.5,-1.11929 -2.5,-2.5z" fill="#ffffff" stroke="none" stroke-width="0.5"/><path d="M9.51201,1.67791c0,-1.38071 1.11929,-2.5 2.5,-2.5c1.38071,0 2.5,1.11929 2.5,2.5c0,1.38071 -1.11929,2.5 -2.5,2.5c-1.38071,0 -2.5,-1.11929 -2.5,-2.5z" fill="#ffffff" stroke="none" stroke-width="0.5"/><path d="M354.85736,228.40464c0,-1.38071 1.11929,-2.5 2.5,-2.5c1.38071,0 2.5,1.11929 2.5,2.5c0,1.38071 -1.11929,2.5 -2.5,2.5c-1.38071,0 -2.5,-1.11929 -2.5,-2.5z" fill="#ffffff" stroke="none" stroke-width="0.5"/><path d="M261.76425,171.34758c0,-1.38071 1.11929,-2.5 2.5,-2.5c1.38071,0 2.5,1.11929 2.5,2.5c0,1.38071 -1.11929,2.5 -2.5,2.5c-1.38071,0 -2.5,-1.11929 -2.5,-2.5z" fill="#ffffff" stroke="none" stroke-width="0.5"/><path d="M56.05855,117.29354c0,-1.38071 1.11929,-2.5 2.5,-2.5c1.38071,0 2.5,1.11929 2.5,2.5c0,1.38071 -1.11929,2.5 -2.5,2.5c-1.38071,0 -2.5,-1.11929 -2.5,-2.5z" fill="#ffffff" stroke="none" stroke-width="0.5"/><path d="M119.61712,195.37162c0,2.5 -2.5,2.5 -2.5,2.5h-4.5045c0,0 -2.5,0 -2.5,-2.5c0,-2.5 2.5,-2.5 2.5,-2.5h4.5045c0,0 2.5,0 2.5,2.5z" fill="#ffffff" stroke="none" stroke-width="0.5"/><path d="M179.18166,174.3506c0,-1.38071 1.11929,-2.5 2.5,-2.5c1.38071,0 2.5,1.11929 2.5,2.5c0,1.38071 -1.11929,2.5 -2.5,2.5c-1.38071,0 -2.5,-1.11929 -2.5,-2.5z" fill="#ffffff" stroke="none" stroke-width="0.5"/><path d="M610.11261,166.84308c0,-1.38071 1.11929,-2.5 2.5,-2.5c1.38071,0 2.5,1.11929 2.5,2.5c0,1.38071 -1.11929,2.5 -2.5,2.5c-1.38071,0 -2.5,-1.11929 -2.5,-2.5z" fill="#ffffff" stroke="none" stroke-width="0.5"/><path d="M629.80328,0.1764c0,-1.38071 1.11929,-2.5 2.5,-2.5c1.38071,0 2.5,1.11929 2.5,2.5c0,1.38071 -1.11929,2.5 -2.5,2.5c-1.38071,0 -2.5,-1.11929 -2.5,-2.5z" fill="#ffffff" stroke="none" stroke-width="0.5"/><path d="M742.4159,-44.86863c0,-1.38071 1.11929,-2.5 2.5,-2.5c1.38071,0 2.5,1.11929 2.5,2.5c0,1.38071 -1.11929,2.5 -2.5,2.5c-1.38071,0 -2.5,-1.11929 -2.5,-2.5z" fill="#ffffff" stroke="none" stroke-width="0.5"/><path d="M904.57807,46.72294c0,-1.38071 1.11929,-2.5 2.5,-2.5c1.38071,0 2.5,1.11929 2.5,2.5c0,1.38071 -1.11929,2.5 -2.5,2.5c-1.38071,0 -2.5,-1.11929 -2.5,-2.5z" fill="#ffffff" stroke="none" stroke-width="0.5"/><path d="M837.01052,159.33556c0,-1.38071 1.11929,-2.5 2.5,-2.5c1.38071,0 2.5,1.11929 2.5,2.5c0,1.38071 -1.11929,2.5 -2.5,2.5c-1.38071,0 -2.5,-1.11929 -2.5,-2.5z" fill="#ffffff" stroke="none" stroke-width="0.5"/><path d="M730.4039,90.26648c0,-1.38071 1.11929,-2.5 2.5,-2.5c1.38071,0 2.5,1.11929 2.5,2.5c0,1.38071 -1.11929,2.5 -2.5,2.5c-1.38071,0 -2.5,-1.11929 -2.5,-2.5z" fill="#ffffff" stroke="none" stroke-width="0.5"/><path d="M772.44595,25.70195c0,-1.38071 1.11929,-2.5 2.5,-2.5c1.38071,0 2.5,1.11929 2.5,2.5c0,1.38071 -1.11929,2.5 -2.5,2.5c-1.38071,0 -2.5,-1.11929 -2.5,-2.5z" fill="#ffffff" stroke="none" stroke-width="0.5"/><path d="M837.01052,-34.35811c0,-1.38071 1.11929,-2.5 2.5,-2.5c1.38071,0 2.5,1.11929 2.5,2.5c0,1.38071 -1.11929,2.5 -2.5,2.5c-1.38071,0 -2.5,-1.11929 -2.5,-2.5z" fill="#ffffff" stroke="none" stroke-width="0.5"/><path d="M924.09761,-55.37914c0,-1.38071 1.11929,-2.5 2.5,-2.5c1.38071,0 2.5,1.11929 2.5,2.5c0,1.38071 -1.11929,2.5 -2.5,2.5c-1.38071,0 -2.5,-1.11929 -2.5,-2.5z" fill="#ffffff" stroke="none" stroke-width="0.5"/><path d="M626.80031,99.27552c0,-1.38071 1.11929,-2.5 2.5,-2.5c1.38071,0 2.5,1.11929 2.5,2.5c0,1.38071 -1.11929,2.5 -2.5,2.5c-1.38071,0 -2.5,-1.11929 -2.5,-2.5z" fill="#ffffff" stroke="none" stroke-width="0.5"/><path d="M1018.38589,30.20645c0,-1.38071 1.11929,-2.5 2.5,-2.5c1.38071,0 2.5,1.11929 2.5,2.5c0,1.38071 -1.11929,2.5 -2.5,2.5c-1.38071,0 -2.5,-1.11929 -2.5,-2.5z" fill="#ffffff" stroke="none" stroke-width="0.5"/><path d="M1018.38589,142.81903c0,-1.38071 1.11929,-2.5 2.5,-2.5c1.38071,0 2.5,1.11929 2.5,2.5c0,1.38071 -1.11929,2.5 -2.5,2.5c-1.38071,0 -2.5,-1.11929 -2.5,-2.5z" fill="#ffffff" stroke="none" stroke-width="0.5"/><path d="M985.35284,135.31156c0,-1.38071 1.11929,-2.5 2.5,-2.5c1.38071,0 2.5,1.11929 2.5,2.5c0,1.38071 -1.11929,2.5 -2.5,2.5c-1.38071,0 -2.5,-1.11929 -2.5,-2.5z" fill="#ffffff" stroke="none" stroke-width="0.5"/><path d="M977.84536,55.73198c0,-1.38071 1.11929,-2.5 2.5,-2.5c1.38071,0 2.5,1.11929 2.5,2.5c0,1.38071 -1.11929,2.5 -2.5,2.5c-1.38071,0 -2.5,-1.11929 -2.5,-2.5z" fill="#ffffff" stroke="none" stroke-width="0.5"/><path d="M1042.40989,-28.35212c0,-1.38071 1.11929,-2.5 2.5,-2.5c1.38071,0 2.5,1.11929 2.5,2.5c0,1.38071 -1.11929,2.5 -2.5,2.5c-1.38071,0 -2.5,-1.11929 -2.5,-2.5z" fill="#ffffff" stroke="none" stroke-width="0.5"/><path d="M976.34384,-34.35811c0,-1.38071 1.11929,-2.5 2.5,-2.5c1.38071,0 2.5,1.11929 2.5,2.5c0,1.38071 -1.11929,2.5 -2.5,2.5c-1.38071,0 -2.5,-1.11929 -2.5,-2.5z" fill="#ffffff" stroke="none" stroke-width="0.5"/><path d="M512.50749,637.68243c0,220.3757 -199.99293,399.02551 -446.6967,399.02551c-246.70377,0 -446.6967,-178.64981 -446.6967,-399.02551c0,-220.3757 199.99293,-399.02551 446.6967,-399.02551c246.70377,0 446.6967,178.64981 446.6967,399.02551z" fill="url(#color-11)" stroke="#000000" stroke-width="2"/><path d="M1160.15012,586.75298c0,187.41194 -170.07802,339.33934 -379.87988,339.33934c-209.80186,0 -379.87988,-151.9274 -379.87988,-339.33934c0,-187.41194 170.07802,-339.33934 379.87988,-339.33934c209.80186,0 379.87988,151.9274 379.87988,339.33934z" fill="url(#color-12)" stroke="#000000" stroke-width="2"/><path d="M811.80179,671.21098c0,220.3757 -199.99293,399.0255 -446.6967,399.0255c-246.70377,0 -446.69669,-178.6498 -446.69669,-399.0255c0,-220.3757 199.99293,-399.02551 446.6967,-399.02551c246.70377,0 446.6967,178.64981 446.6967,399.02551z" fill="url(#color-13)" stroke="#000000" stroke-width="2"/><path d="M-41.50599,802.49551v-171.17117h1155.87463v171.17117z" fill="#1c5e0b" stroke="none" stroke-width="0"/><path d="M-41.50601,802.49551v-171.17117h1155.87463v171.17117z" fill="#ff0000" stroke="none" stroke-width="0"/></g></g></svg>