<svg version="1.1" xmlns="http://www.w3.org/2000/svg" xmlns:xlink="http://www.w3.org/1999/xlink" width="29.07394" height="23.52489" viewBox="0,0,29.07394,23.52489"><g transform="translate(-525.88889,-308.69388)"><g data-paper-data="{&quot;isPaintingLayer&quot;:true}" fill="#e6e6e6" fill-rule="nonzero" stroke="none" stroke-width="0.5" stroke-linecap="butt" stroke-linejoin="miter" stroke-miterlimit="10" stroke-dasharray="" stroke-dashoffset="0" style="mix-blend-mode: normal"><path d="M544.47037,331.55618l-0.36102,0.38399l-0.01642,0.03311l-0.02086,0.00654l-0.01497,0.01592l-0.03696,0.00035l-0.50293,0.15764l-1.1056,0.06504l-0.18547,-0.03494l-0.1887,-0.00358l-2.40631,-0.65035l-0.03634,-0.02027l-0.03653,0.00764l-0.22055,-0.15108l-0.23345,-0.13026l-0.00942,-0.03611l-0.03433,-0.02351l-2.53638,-2.86156l-0.01498,-0.02875l-0.02572,-0.01974l-1.29751,-1.6339l-0.67731,0.48917l-0.20585,0.08234l-0.19563,0.10433l-0.94495,0.23624l-0.00647,0.00743l-0.0287,0.00137l-0.06045,0.01511h-0.2569l-0.25661,0.01222l-0.0611,-0.01222h-0.02873l-0.00681,-0.00711l-1.20407,-0.24081l-0.16764,-0.07941l-0.1788,-0.04938l-1.49582,-0.84546l-0.10343,-0.09819l-0.12434,-0.06985l-1.12363,-1.06121l-0.01433,-0.0026l-0.01924,-0.0291l-0.01344,-0.01269l-0.14829,-0.23188l-0.15182,-0.22958l-0.00615,-0.01743l-0.0188,-0.02939l0.00343,-0.01415l-0.34074,-0.96542l-0.00974,-0.00719l-0.00413,-0.03209l-0.01409,-0.03993l-0.02494,-0.26369l-0.03378,-0.2627l0.00495,-0.04205l-0.00305,-0.03221l0.00791,-0.00916l0.25033,-2.12778l0.02328,-0.06145l-0.0151,-0.04481l0.03094,-0.05918l-1.12636,-0.94851l-0.00821,-0.01136l-0.02439,-0.00488l-0.15343,-0.24111l-0.16743,-0.23161l0.00447,-0.02447l-0.00753,-0.01183l-0.13007,-0.39021l-0.01443,-0.18763l-0.04564,-0.18256v-0.97553l0.0297,-0.1188l-0.00459,-0.12237l0.26014,-1.23567l0.03687,-0.07585l0.0088,-0.08388l0.31279,-0.85814l0.08101,-0.11982l0.04965,-0.13584l1.27766,-1.88607l0.00029,-0.01472l0.02574,-0.02371l0.00941,-0.01389l0.20561,-0.18415l0.20302,-0.187l0.01473,-0.00803l0.02607,-0.02335l0.01468,0.00112l0.65992,-0.35995l0.18901,-0.04914l0.1791,-0.07787l0.78043,-0.13007l0.09753,0.0078l0.09492,-0.02373l0.53385,0l0.28333,-0.47222l0.1019,-0.1019l0.07415,-0.12358l0.26014,-0.26014l0.04146,-0.02488l0.02814,-0.03931l1.30071,-1.1056l0.07335,-0.0363l0.05633,-0.05937l0.71539,-0.45525l0.16042,-0.05347l0.14647,-0.0845l0.36155,-0.1033l0.00634,-0.00777l0.02898,-0.00232l0.05838,-0.01668l0.25736,-0.00858l0.25669,-0.02053l0.05989,0.00998l0.02905,-0.00097l0.00718,0.00701l1.46473,0.24412l0.16037,0.06973l0.17071,0.03793l0.50614,0.25307l0.8337,0.38906l0.45176,0.09035l0.48409,-0.43031l0.13691,-0.07157l0.11729,-0.10054l0.26014,-0.13007l0.04849,-0.01078l0.04027,-0.02908l0.32518,-0.13007l0.21968,-0.02996l0.21509,-0.05377h1.30504l0.01259,-0.00813l0.0342,0.00813h0.01392l0.26905,0.06726l0.26981,0.06414l0.01235,0.00641l0.0341,0.00852l0.00744,0.01301l1.70207,0.88255l0.04291,0.03789l0.05417,0.01851l1.1056,0.71539l0,0l0.17503,-0.03501l0.11647,0.00555l0.11312,-0.02828h0.25384l0.00188,-0.00142l0.00879,0.00142h0.1257l0.22855,0.05714l0.23258,0.03751l0.11554,0.04952l0.00864,0.00216l0.00117,0.00204l0.23383,0.10021l0.68813,0.1588l0.01447,-0.00517l0.0316,0.0158l0.00943,0.00218l0.24879,0.12694l0.24982,0.12491l0.00735,0.0063l0.03147,0.01605l0.00443,0.01471l0.86725,0.74336l0.18327,0.25824l0.0792,0.04526l0.02561,0.10243l0.0611,0.0861l-0.01718,0.08959l0.0768,0.3072v0.32518l-0.02508,0.1003l0.00726,0.10314l-0.05761,0.32643l0.14673,0.05118l0.16835,0.02296l1.30071,0.52028l0.02572,0.01858l0.03282,-0.00333l0.20851,0.17762l0.22206,0.16037l0.00456,0.03267l0.02416,0.02058l0.32518,0.45525l0.01353,0.03435l0.02658,0.02563l0.25345,0.40553l0.00242,0.00093l0.00377,0.00897l0.06553,0.10486l0.07287,0.22467l0.09146,0.21776l0.0188,0.12221l0.003,0.00926l-0.00123,0.00228l0.08767,0.56983l0.00049,0.00047l0,0.0027l0.02134,0.13871l-0.02134,0.23047v0.1209l1.12375,0.6243l0.16542,0.15475l0.18018,0.13728l0.20217,0.25271l0.01032,0.00311l0.0138,0.02705l0.03385,0.04232l0.10836,0.23641l0.11819,0.23165l0.01219,0.0528l0.01265,0.0276l-0.00397,0.01002l0.17424,0.75503l-0.00243,0.1336l0.03241,0.12963v0.58532l-0.01821,0.07282l0.02129,0.04625l-0.08992,0.22825l-0.0595,0.238l-0.04421,0.02526l-0.02751,0.06984l-0.30274,0.42383l-0.82514,1.33292l-0.01228,0.01195l-0.00146,0.02629l-0.21539,0.18462l-0.20337,0.1978l-0.02631,-0.00093l-0.01301,0.01115l-0.07546,0.03773l0.3797,0.10355l0.31041,1.13818l-0.31041,0.51735l-0.09024,0.09024l-0.16364,0.40909l0.00276,0.01761l-0.18477,0.24251l-0.1785,0.24716l-0.01765,0.00246l-0.3099,0.24792l-0.11246,0.05154l-0.03351,0.05865l-0.20779,0.05195l-0.19471,0.08924l-0.06281,-0.02486l-0.12001,0.03h-0.10337l-0.56414,0.15386l-0.05465,0.00116l-0.04992,0.02227l-1.06523,0.18798l-0.01245,0.01114l-0.31481,-0.02422l-0.31496,-0.02218l-0.01068,-0.01284l-1.13174,-0.37725l-0.0543,-0.03455l-0.06327,-0.01183l-0.92508,-0.42399l-0.02663,0.21748l-0.081,0.21081l-0.05906,0.21797z"/></g></g></svg>