<svg version="1.1" xmlns="http://www.w3.org/2000/svg" xmlns:xlink="http://www.w3.org/1999/xlink" width="48.5141" height="133.33332" viewBox="0,0,48.5141,133.33332"><g transform="translate(-517.55406,-260.89491)"><g data-paper-data="{&quot;isPaintingLayer&quot;:true}" fill="#383838" fill-rule="nonzero" stroke="none" stroke-linecap="butt" stroke-linejoin="miter" stroke-miterlimit="10" stroke-dasharray="" stroke-dashoffset="0" style="mix-blend-mode: normal"><path d="M546.72072,323.72824c0,14.63555 -2.91015,26.5 -6.5,26.5c-3.58985,0 -6.5,-11.86445 -6.5,-26.5c0,-14.63555 2.91015,-26.5 6.5,-26.5c3.58985,0 6.5,11.86445 6.5,26.5z" stroke-width="0"/><path d="M545.72072,369.22823c0,13.80712 -1.11929,25 -2.5,25c-1.38071,0 -2.5,-11.19288 -2.5,-25c0,-13.80712 1.11929,-25 2.5,-25c1.38071,0 2.5,11.19288 2.5,25z" stroke-width="0"/><path d="M539.72072,368.22823c0,13.80712 -1.11929,25 -2.5,25c-1.38071,0 -2.5,-11.19288 -2.5,-25c0,-13.80712 1.11929,-25 2.5,-25c1.38071,0 2.5,11.19288 2.5,25z" stroke-width="0"/><path d="M551.1112,319.32666c-5.68956,-4.37915 -9.75571,-8.63874 -9.08199,-9.51405c0.67371,-0.87532 5.83217,1.9651 11.52174,6.34425c5.68956,4.37915 9.75571,8.63874 9.08199,9.51405c-0.67371,0.87532 -5.83217,-1.9651 -11.52174,-6.34425z" data-paper-data="{&quot;index&quot;:null}" stroke-width="0"/><path d="M566.05009,322.20343c-0.36463,1.04265 -6.15424,-0.03343 -12.93148,-2.4035c-6.77724,-2.37007 -11.97568,-5.13664 -11.61105,-6.17929c0.36462,-1.04264 6.15424,0.03343 12.93148,2.4035c6.77724,2.37007 11.97568,5.13664 11.61105,6.17929z" data-paper-data="{&quot;index&quot;:null}" stroke-width="0"/><path d="M517.55406,302.22824v-41.33333h44.66666v41.33334z" stroke-width="NaN"/></g></g></svg>