<svg version="1.1" xmlns="http://www.w3.org/2000/svg" xmlns:xlink="http://www.w3.org/1999/xlink" width="49.19729" height="133.33332" viewBox="0,0,49.19729,133.33332"><g transform="translate(-513.02342,-260.89491)"><g data-paper-data="{&quot;isPaintingLayer&quot;:true}" fill="#383838" fill-rule="nonzero" stroke="none" stroke-linecap="butt" stroke-linejoin="miter" stroke-miterlimit="10" stroke-dasharray="" stroke-dashoffset="0" style="mix-blend-mode: normal"><path d="M546.72072,323.72824c0,14.63555 -2.91015,26.5 -6.5,26.5c-3.58985,0 -6.5,-11.86445 -6.5,-26.5c0,-14.63555 2.91015,-26.5 6.5,-26.5c3.58985,0 6.5,11.86445 6.5,26.5z" stroke-width="0"/><path d="M545.72072,369.22823c0,13.80712 -1.11929,25 -2.5,25c-1.38071,0 -2.5,-11.19288 -2.5,-25c0,-13.80712 1.11929,-25 2.5,-25c1.38071,0 2.5,11.19288 2.5,25z" stroke-width="0"/><path d="M539.72072,368.22823c0,13.80712 -1.11929,25 -2.5,25c-1.38071,0 -2.5,-11.19288 -2.5,-25c0,-13.80712 1.11929,-25 2.5,-25c1.38071,0 2.5,11.19288 2.5,25z" stroke-width="0"/><path d="M527.76921,308.67288c7.01174,1.54388 12.50333,3.66993 12.26581,4.74865c-0.23751,1.07873 -6.11421,0.70165 -13.12595,-0.84223c-7.01174,-1.54388 -12.50333,-3.66993 -12.26581,-4.74865c0.23751,-1.07873 6.11421,-0.70165 13.12595,0.84223z" data-paper-data="{&quot;index&quot;:null}" stroke-width="0"/><path d="M513.02509,312.42215c-0.11338,-1.09873 5.58423,-2.58691 12.72601,-3.32394c7.14178,-0.73703 13.02325,-0.44379 13.13663,0.65495c0.11339,1.09872 -5.58423,2.58691 -12.72601,3.32394c-7.14178,0.73703 -13.02325,0.44379 -13.13663,-0.65495z" data-paper-data="{&quot;index&quot;:null}" stroke-width="0"/><path d="M517.55406,302.22824v-41.33333h44.66666v41.33334z" stroke-width="NaN"/></g></g></svg>