<svg version="1.1" xmlns="http://www.w3.org/2000/svg" xmlns:xlink="http://www.w3.org/1999/xlink" width="21.33333" height="31.93367" viewBox="0,0,21.33333,31.93367"><g transform="translate(-527.33333,-305.08331)"><g data-paper-data="{&quot;isPaintingLayer&quot;:true}" fill-rule="nonzero" stroke-linecap="butt" stroke-linejoin="miter" stroke-miterlimit="10" stroke-dasharray="" stroke-dashoffset="0" style="mix-blend-mode: normal"><path d="M542.68664,321.81025c0.44043,0.18688 0.88803,0.30531 1.33483,0.30158c0.22497,-0.00188 0.88371,0.06797 0.67305,-0.1177c-0.48473,-0.42721 -1.25482,-0.34214 -2.00788,-0.18388zM531.47047,323.37781c-0.10696,-0.18207 -0.20268,-0.46835 -0.26531,-0.91021c-0.23717,-1.67319 0.47434,-2.23093 0.47434,-2.23093l0.61387,-0.45844c3.12804,-1.20805 6.44658,-1.19979 9.6233,-1.19979c0.79058,0 2.37226,-0.62952 3.0705,0.09051c1.22054,1.25861 1.73338,3.49852 0.56643,6.18263c-0.06234,0.14337 -0.13431,0.26649 -0.21421,0.37153c0.40037,0.84783 0.48832,2.1339 -0.00938,4.07591c-0.02729,0.10648 -0.08134,0.19585 -0.15544,0.27082c1.15924,1.83199 1.62072,5.09756 -0.35406,6.94714c-1.00201,0.93849 -2.24035,-0.3314 -3.19064,-0.71614c-3.12556,-1.26546 -6.86109,-0.76109 -10.04653,-0.76109c0,0 -0.75,0 -0.75,-1.76371c0,-0.33298 0.02673,-0.60309 0.0701,-0.82221c-0.04498,-0.22646 -0.0701,-0.4791 -0.0701,-0.74553c0,-0.40347 0.05761,-0.77531 0.15455,-1.07247l0.49545,-1.5535l0.26579,0.46877c0.36795,-0.89597 0.79599,-1.59018 1.26724,-2.12266c-0.05461,-0.0281 -0.10901,-0.05699 -0.1632,-0.08663c-0.60053,-0.32873 -1.47965,0.10347 -1.78288,-1.15902c-0.20884,-0.86951 0.09951,-1.90053 0.40018,-2.80491zM540.21786,332.28313c0.17712,0.00651 0.35449,0.01096 0.53214,0.01303c0.14807,0.00171 4.25634,1.03107 3.96606,0.04158c-0.16909,-0.57638 -0.57997,-0.3216 -0.8733,-0.44207c-1.22633,0.01136 -2.42996,0.17237 -3.6249,0.3875zM534.66617,329.79009c1.13964,-0.14596 2.26782,-0.3767 3.39636,-0.60935c-1.03794,-0.11083 -2.06034,-0.07026 -3.02572,0.34906c-0.11345,0.04929 -0.23822,0.14189 -0.37064,0.26027zM538.76277,324.42402c-1.10108,-0.36761 -2.21078,-0.72675 -3.3461,-0.75043c-0.49084,-0.01027 -1.08021,0.13284 -1.61553,0.35996c0.31693,0.17605 0.58705,0.40434 0.68289,0.43103c1.34401,0.37445 2.84103,0.31687 4.27875,-0.04054z" fill="#ffffff" stroke="#000000" stroke-width="1"/><path d="M528.08333,318.55969v-12.72638h19.83333v12.72638z" fill="#ffffff" stroke="#000000" stroke-width="1.5"/><path d="M542.51338,307.57544c0.06063,0.24254 -0.1819,0.30317 -0.1819,0.30317l-0.02986,0.00746c-0.31441,0.0786 -0.67139,0.16563 -1.05705,0.25262c1.69076,0.19506 3.31835,0.65935 4.28016,1.7435l0.04789,-0.04789l0.25,0.25c0.04349,0.04349 0.07103,0.10293 0.0731,0.16879c0.25097,0.00531 0.50109,0.00799 0.75013,0.00799l0.25,0c0.13807,0 0.25,0.11193 0.25,0.25c0,0.06148 -0.02219,0.11777 -0.059,0.16131l-0.31904,0.38285l-0.06933,-0.05778c-0.05139,0.05728 -0.10512,0.11355 -0.16106,0.16884l0.415,0.11728c0.10773,0.02782 0.18731,0.12565 0.18731,0.24208c0,0.12977 -0.09887,0.23644 -0.22539,0.2488l-0.49394,0.05488c-0.27422,0.03026 -0.55028,0.0522 -0.82763,0.06771c-2.16554,1.35154 -5.71604,1.97026 -7.68664,2.46291c-0.85934,0.21484 -1.94463,0.38283 -2.93613,0.65826c-0.36278,0.12152 -0.72325,0.24583 -1.08055,0.37266c-0.01197,0.00522 -0.02391,0.01047 -0.0358,0.01576c0.66916,0.00913 1.49235,0.2559 2.03074,0.31423c2.26811,0.24573 4.48033,0.41037 6.76172,0.41521c0.33324,0 0.66649,0 0.99973,0l0.5,0c0.13807,0 0.25,0.11193 0.25,0.25c0,0.13373 -0.105,0.24293 -0.23705,0.24967l-0.49741,0.02926l-0.0017,-0.02893c-0.01577,0 -0.04539,0 -0.06116,0c-2.77664,0.73088 -6.35393,0.13598 -9.16194,0.50224c-0.54161,0.07064 -4.93914,0.74658 -5.13615,0.11573c-0.21649,-0.69324 3.5155,-2.00816 4.1155,-2.22475c0.11036,-0.03982 0.22107,-0.07944 0.3321,-0.11885c0.33331,-0.14532 0.69793,-0.26641 1.07626,-0.3718c1.34485,-0.45187 2.72284,-0.86723 4.08632,-1.22249c-2.0902,-0.01147 -5.09367,-0.99447 -7.07312,-1.18698l-0.03021,-0.0217l-0.00429,0.01072l-0.45883,-0.18353c-0.09495,-0.03545 -0.16256,-0.12697 -0.16256,-0.23428c0,-0.13371 0.10497,-0.24291 0.237,-0.24967l0.4974,-0.02936l0.00219,0.03716c1.1234,-0.2566 2.37141,-0.32235 3.64527,-0.30777c-0.02691,-0.03988 -0.04262,-0.08794 -0.04262,-0.13966c0,-0.13807 0.11193,-0.25 0.25,-0.25c0.08333,0 0.41667,0 0.5,0c0.03879,0 0.07758,0 0.11637,0c1.16831,-0.38232 2.69873,-0.44856 4.25208,-0.47166c-0.79446,-0.12156 -1.58097,-0.26504 -2.35217,-0.42856c-2.7644,-0.58698 -5.29612,-1.47478 -8.14127,-1.47478c0,0 -0.25,0 -0.25,-0.25c0,-0.25 0.25,-0.25 0.25,-0.25c1.57213,0 3.04911,0.26506 4.52115,0.60248c-0.08623,-0.03943 -0.14615,-0.12646 -0.14615,-0.22748c0,-0.13807 0.11193,-0.25 0.25,-0.25c0.08333,0 0.41667,0 0.5,0c0.04739,0 0.09478,0 0.14217,0c1.94464,-0.58083 4.81171,-0.12116 6.76733,-0.61007l0.02986,-0.00746c0,0 0.24254,-0.06063 0.30317,0.1819zM538.39097,309.37176c1.88355,0.40054 3.86148,0.67867 5.82124,0.80767c0.20844,-0.01918 0.41123,-0.04233 0.60719,-0.07042c-0.73032,-0.23491 -1.72144,-0.91836 -2.2352,-1.08179c-1.11,-0.35309 -2.22482,-0.46997 -3.35498,-0.50601c-1.32547,0.19528 -2.70927,0.26812 -3.77718,-0.01013c-0.0604,0 -0.1208,0 -0.1812,0l-0.5,0c0,0 0,0 0,0c-0.00214,0 -0.00427,-0.00003 -0.00639,-0.00008c1.19471,0.2764 2.38747,0.59767 3.62652,0.86076zM541.72963,311.26476c-0.26617,0.04318 -0.5347,0.08315 -0.80374,0.11865c0.11622,0.00174 0.23124,0.00266 0.34495,0.00266c0.86228,0 1.74129,0.03507 2.61845,0.04397c-0.17698,-0.02783 -0.3427,-0.0512 -0.49102,-0.06477c-0.55423,-0.05071 -1.1108,-0.08198 -1.66863,-0.10052zM535.94255,316.47067c-0.94278,-0.12609 -1.83531,-0.32919 -2.60826,-0.65185l-0.01401,0.05606l-0.40841,-0.1021c-0.80134,0.33 -2.09344,0.86543 -2.75345,1.11399c0.50349,-0.04022 1.2916,-0.00069 1.36242,-0.00069c0.96849,0 1.89096,-0.11833 2.85106,-0.24356c0.52354,-0.06829 1.04703,-0.12494 1.57065,-0.17184zM535.37976,311.88538c1.44821,0.14074 2.88862,0.39607 4.12351,1.00356l0.01565,-0.04068l0.46123,0.17739c0.07393,0.02647 0.13175,0.08677 0.15482,0.16225c1.15127,-0.38162 2.27402,-0.81405 3.38512,-1.26476c-0.75394,-0.01235 -1.50727,-0.03706 -2.24924,-0.03706c-1.96369,0 -3.92739,-0.00204 -5.89108,-0.0007zM544.45942,310.72503c0.46031,0.06086 0.90329,0.14593 1.31983,0.26214c0.18205,-0.076 0.36409,-0.1519 0.5462,-0.22754c-0.58277,-0.00528 -1.17069,-0.02486 -1.76082,-0.05801c-0.03484,0.00777 -0.06991,0.01558 -0.10521,0.02342z" fill="#ececec" stroke="none" stroke-width="0.5"/></g></g></svg>