<svg version="1.1" xmlns="http://www.w3.org/2000/svg" xmlns:xlink="http://www.w3.org/1999/xlink" width="57.20848" height="135.75759" viewBox="0,0,57.20848,135.75759"><g transform="translate(-522.40151,-256.91664)"><g data-paper-data="{&quot;isPaintingLayer&quot;:true}" fill="#383838" fill-rule="nonzero" stroke="none" stroke-linecap="butt" stroke-linejoin="miter" stroke-miterlimit="10" stroke-dasharray="" stroke-dashoffset="0" style="mix-blend-mode: normal"><path d="M553.69781,323.78032c-2.47737,14.42435 -7.35383,25.62499 -10.89188,25.01733c-3.53805,-0.60766 -4.39789,-12.79351 -1.92052,-27.21785c2.47737,-14.42435 7.35383,-25.62499 10.89188,-25.01733c3.53805,0.60766 4.39789,12.79351 1.92052,27.21785z" stroke-width="0"/><path d="M545.01041,368.45445c-2.33714,13.60788 -5.33492,24.44978 -6.6957,24.21606c-1.36078,-0.23372 -0.56929,-11.45454 1.76785,-25.06242c2.33714,-13.60788 5.33492,-24.44978 6.6957,-24.21606c1.36078,0.23372 0.56929,11.45454 -1.76785,25.06242z" stroke-width="0"/><path d="M539.26627,366.45326c-2.33714,13.60788 -5.33492,24.44978 -6.6957,24.21606c-1.36078,-0.23372 -0.56929,-11.45454 1.76785,-25.06242c2.33714,-13.60788 5.33492,-24.44978 6.6957,-24.21606c1.36078,0.23372 0.56929,11.45454 -1.76785,25.06242z" stroke-width="0"/><path d="M537.56821,305.73428c6.64923,2.70849 11.70169,5.73342 11.285,6.75637c-0.41668,1.02296 -6.14475,-0.34343 -12.79397,-3.05192c-6.64923,-2.70849 -11.70169,-5.73342 -11.285,-6.75637c0.41668,-1.02296 6.14475,0.34343 12.79397,3.05192z" data-paper-data="{&quot;index&quot;:null}" stroke-width="0"/><path d="M522.40222,306.93369c0.07424,-1.10207 5.94153,-1.60433 13.10501,-1.12183c7.16348,0.4825 12.91044,1.76707 12.8362,2.86915c-0.07423,1.10206 -5.94153,1.60433 -13.10501,1.12183c-7.16348,-0.4825 -12.91044,-1.76707 -12.8362,-2.86915z" data-paper-data="{&quot;index&quot;:null}" stroke-width="0"/><path d="M528.59136,297.65351l6.99653,-40.73688l44.0221,7.56076l-6.99653,40.73689z" stroke-width="NaN"/></g></g></svg>