<svg version="1.1" xmlns="http://www.w3.org/2000/svg" xmlns:xlink="http://www.w3.org/1999/xlink" width="46.32144" height="83.48591" viewBox="0,0,46.32144,83.48591"><defs><linearGradient x1="553.49857" y1="316.51828" x2="558.20621" y2="302.51189" gradientUnits="userSpaceOnUse" id="color-1"><stop offset="0" stop-color="#9e9e9e"/><stop offset="1" stop-color="#717171"/></linearGradient><linearGradient x1="528.29259" y1="394.55139" x2="528.29259" y2="413.4126" gradientUnits="userSpaceOnUse" id="color-2"><stop offset="0" stop-color="#7d7d7d"/><stop offset="1" stop-color="#adadad"/></linearGradient><linearGradient x1="-2180.1247" y1="2274.14581" x2="-2179.02877" y2="2289.00493" gradientUnits="userSpaceOnUse" id="color-3"><stop offset="0" stop-color="#7d7d7d"/><stop offset="1" stop-color="#adadad"/></linearGradient><linearGradient x1="547.54716" y1="308.98661" x2="553.58921" y2="308.98661" gradientUnits="userSpaceOnUse" id="color-4"><stop offset="0" stop-color="#006cff"/><stop offset="1" stop-color="#00a3ff"/></linearGradient><linearGradient x1="531.30548" y1="309.68504" x2="540.52442" y2="309.68504" gradientUnits="userSpaceOnUse" id="color-5"><stop offset="0" stop-color="#006cff"/><stop offset="1" stop-color="#00a3ff"/></linearGradient><linearGradient x1="543.20253" y1="309.47486" x2="544.85077" y2="309.47486" gradientUnits="userSpaceOnUse" id="color-6"><stop offset="0" stop-color="#006cff"/><stop offset="1" stop-color="#00a3ff"/></linearGradient><linearGradient x1="543.8285" y1="340.10249" x2="543.8285" y2="360.12482" gradientUnits="userSpaceOnUse" id="color-7"><stop offset="0" stop-color="#393939"/><stop offset="1" stop-color="#717171"/></linearGradient><linearGradient x1="537.5951" y1="339.65556" x2="537.5951" y2="362.10714" gradientUnits="userSpaceOnUse" id="color-8"><stop offset="0" stop-color="#393939"/><stop offset="1" stop-color="#717171"/></linearGradient><linearGradient x1="526.39631" y1="316.75043" x2="521.19879" y2="305.65528" gradientUnits="userSpaceOnUse" id="color-9"><stop offset="0" stop-color="#9e9e9e"/><stop offset="1" stop-color="#717171"/></linearGradient><linearGradient x1="541.8595" y1="320.65731" x2="541.8595" y2="337.66266" gradientUnits="userSpaceOnUse" id="color-10"><stop offset="0" stop-color="#9e9e9e"/><stop offset="1" stop-color="#717171"/></linearGradient><linearGradient x1="537.36662" y1="287.11555" x2="537.36662" y2="305.68435" gradientUnits="userSpaceOnUse" id="color-11"><stop offset="0" stop-color="#9e9e9e"/><stop offset="1" stop-color="#717171"/></linearGradient><linearGradient x1="537.65233" y1="285.19331" x2="537.65233" y2="309.10852" gradientUnits="userSpaceOnUse" id="color-12"><stop offset="0" stop-color="#9e9e9e"/><stop offset="1" stop-color="#717171"/></linearGradient><linearGradient x1="537.50948" y1="280.5886" x2="537.50948" y2="311.79758" gradientUnits="userSpaceOnUse" id="color-13"><stop offset="0" stop-color="#9e9e9e"/><stop offset="1" stop-color="#717171"/></linearGradient><linearGradient x1="541.81563" y1="313.49428" x2="541.81563" y2="318.23661" gradientUnits="userSpaceOnUse" id="color-14"><stop offset="0" stop-color="#9e9e9e"/><stop offset="1" stop-color="#717171"/></linearGradient></defs><g transform="translate(-516.52482,-281.6504)"><g data-paper-data="{&quot;isPaintingLayer&quot;:true}" fill-rule="nonzero" stroke-linejoin="miter" stroke-miterlimit="10" stroke-dasharray="" stroke-dashoffset="0" style="mix-blend-mode: normal"><path d="M550.43215,320.19515c-1.08599,-1.34837 -0.36242,-3.92323 0.16219,-5.36876c0.80666,-2.40003 1.54611,-4.67047 2.79056,-6.83676c0.54769,-1.09188 1.0693,-2.12201 1.63082,-3.15431c-0.01004,0.07839 -0.02183,0.15794 -0.0352,0.23847c0.13783,-0.1674 0.27762,-0.33391 0.42013,-0.4991c0.69415,-1.48417 2.21567,-4.06905 4.15025,-4.18754c2.64882,-0.16223 3.41627,1.36732 3.28043,3.61084c-0.09674,1.59784 -1.69241,3.50453 -2.34239,4.92672c-1.30929,2.86481 -3.06261,6.0842 -5.60096,8.12103c-1.4679,1.17787 -3.03643,1.97872 -4.45583,3.14943zM554.61202,310.14572c-0.15162,0.3077 -0.57603,0.95514 -1.42687,0.84713c-0.38868,1.38945 -0.75709,2.78364 -1.29165,4.13392c-0.09438,0.23838 -0.19633,0.47399 -0.30412,0.70739c0.48762,-0.33187 0.97393,-0.67557 1.45216,-1.05223c2.19807,-1.7312 3.66124,-4.60631 4.7835,-7.05627c0.56728,-1.23839 2.1489,-3.07056 2.22918,-4.48025c0.01817,-0.31919 -0.49441,0.4076 -0.71684,0.63727c-0.62763,0.64809 -1.09908,1.44882 -1.477,2.26803c-1.11366,1.3259 -2.09869,2.70695 -3.24837,3.995z" data-paper-data="{&quot;index&quot;:null}" fill="#000000" stroke="none" stroke-width="0.5" stroke-linecap="butt"/><path d="M553.14859,311.01301c0.85085,0.108 1.27451,-0.54083 1.42613,-0.84853c1.14968,-1.28806 2.19331,-2.72374 3.30696,-4.04964c0.37792,-0.81921 0.84997,-1.61957 1.4776,-2.26766c0.22243,-0.22967 0.73629,-0.95567 0.71811,-0.63646c-0.08028,1.40969 -1.65426,3.24841 -2.22154,4.48681c-1.12225,2.44995 -2.63596,5.38998 -4.83403,7.12118c-0.47824,0.37666 -0.96821,0.71815 -1.45583,1.05001c0.10779,-0.2334 0.20901,-0.46951 0.30338,-0.70789c0.53456,-1.35028 0.89053,-2.75839 1.27921,-4.14784z" data-paper-data="{&quot;noHover&quot;:false,&quot;origItem&quot;:[&quot;Path&quot;,{&quot;applyMatrix&quot;:true,&quot;segments&quot;:[[[1095.1308,664.17353],[-0.09138,-0.67994],[1.3588,3.17445]],[[1098.74344,673.81701],[-1.26643,-3.22323],[0.19447,1.79386]],[[1100.09835,679.05782],[-0.77689,-1.62856],[0.27532,0.57713]],[[1101.05124,680.72271],[-0.16893,0.61671],[0.74605,-2.72363]],[[1099.67997,670.80873],[0.28634,2.70919],[-0.56648,-5.35967]],[[1095.10764,654.38359],[3.06397,4.68256],[-0.66663,-1.01879]],[[1093.02512,651.4635],[0.71296,0.93985],[0.05562,0.51116]],[[1093.15091,652.99834],[-0.02702,-0.51205],[0.15304,2.90043]],[[1092.96554,661.65838],[0.1485,-2.88175],[1.68185,0.33738]]],&quot;closed&quot;:true}],&quot;index&quot;:null}" fill="url(#color-1)" stroke="none" stroke-width="0.5" stroke-linecap="butt"/><path d="" data-paper-data="{&quot;index&quot;:null}" fill="#000000" stroke="none" stroke-width="0.5" stroke-linecap="butt"/><path d="" data-paper-data="{&quot;noHover&quot;:false,&quot;origItem&quot;:[&quot;Path&quot;,{&quot;applyMatrix&quot;:true,&quot;segments&quot;:[[[214.21936,363.46624],[-0.30208,-0.37388],[3.00673,0.15442]],[[223.17564,365.12684],[-2.72214,-1.01229],[0.78421,0.29162]],[[225.23038,366.56847],[-0.80035,-0.24385],[0.7421,0.2261]],[[227.55523,366.4612],[-0.77495,0.03576],[3.50491,0]],[[238.06996,366.4612],[-3.50491,0],[-1.08058,-2.14878]],[[237.21302,359.55162],[0.01277,2.28708],[0,0]],[[239.71302,357.05162],[-2.5,0],[2.5,0]],[[242.21302,359.55162],[0,0],[-0.01909,2.79627]],[[244.14909,365.09479],[-2.53148,-1.37374],[0,0]],[[244.57107,366.4612],[0,0],[7.03354,0]],[[265.67169,366.4612],[-7.03354,0],[3.04925,0]],[[274.81964,366.4612],[-3.04923,-0.00986],[0.84642,0.00274]],[[277.35997,366.4598],[-0.84249,-0.07098],[-2.84376,-3.86932]],[[269.2555,354.64224],[2.9011,3.87495],[-1.52693,-2.0395]],[[264.37183,348.76265],[1.03081,2.32992],[-0.4631,-1.04675]],[[264.2484,345.33101],[0.26442,1.11366],[-0.24124,-1.01601]],[[261.55208,340.80707],[0.56849,0.84929],[0,0]],[[261.11463,339.02281],[-0.11332,0.95811],[-0.5179,0.09202]],[[259.60671,339.31511],[0.48224,-0.10965],[-4.9579,1.12734]],[[244.77858,341.16631],[4.93186,-0.53102],[-0.36495,0.13559]],[[243.66918,341.57508],[0.37522,-0.13655],[-2.05219,0.74685]],[[237.17595,342.44759],[2.13113,-0.47702],[-1.33538,0.29891]],[[233.36431,343.97224],[1.3434,-0.26048],[-3.96057,0.76793]],[[221.09473,343.98507],[3.96691,-0.63065],[-1.45541,0.23138]],[[216.91087,345.41372],[1.39462,-0.47622],[0,0]],[[216.89509,345.41869],[0.01038,-0.00317],[-0.03209,0.04913]],[[216.84315,345.4943],[0,0],[-0.66286,0.84427]],[[214.85458,348.02711],[0.40217,-0.9952],[-0.90439,2.23798]],[[214.22695,355.24129],[0.57394,-2.34458],[-0.27021,1.10382]],[[212.7023,358.2906],[0.23015,-1.11286],[-0.27004,1.30575]],[[212.76917,362.29019],[-0.0223,-1.33319],[0,0]],[[212.76917,362.68043],[0,0],[0.69117,0.09707]]],&quot;closed&quot;:true}],&quot;index&quot;:null}" fill="url(#color-2)" stroke="none" stroke-width="0.5" stroke-linecap="butt"/><path d="" data-paper-data="{&quot;index&quot;:null}" fill="#000000" stroke="none" stroke-width="0.5" stroke-linecap="butt"/><path d="" data-paper-data="{&quot;noHover&quot;:false,&quot;origItem&quot;:[&quot;Path&quot;,{&quot;applyMatrix&quot;:true,&quot;segments&quot;:[[[214.21936,363.46624],[-0.30208,-0.37388],[3.00673,0.15442]],[[223.17564,365.12684],[-2.72214,-1.01229],[0.78421,0.29162]],[[225.23038,366.56847],[-0.80035,-0.24385],[0.7421,0.2261]],[[227.55523,366.4612],[-0.77495,0.03576],[3.50491,0]],[[238.06996,366.4612],[-3.50491,0],[-1.08058,-2.14878]],[[237.21302,359.55162],[0.01277,2.28708],[0,0]],[[239.71302,357.05162],[-2.5,0],[2.5,0]],[[242.21302,359.55162],[0,0],[-0.01909,2.79627]],[[244.14909,365.09479],[-2.53148,-1.37374],[0,0]],[[244.57107,366.4612],[0,0],[7.03354,0]],[[265.67169,366.4612],[-7.03354,0],[3.04925,0]],[[274.81964,366.4612],[-3.04923,-0.00986],[0.84642,0.00274]],[[277.35997,366.4598],[-0.84249,-0.07098],[-2.84376,-3.86932]],[[269.2555,354.64224],[2.9011,3.87495],[-1.52693,-2.0395]],[[264.37183,348.76265],[1.03081,2.32992],[-0.4631,-1.04675]],[[264.2484,345.33101],[0.26442,1.11366],[-0.24124,-1.01601]],[[261.55208,340.80707],[0.56849,0.84929],[0,0]],[[261.11463,339.02281],[-0.11332,0.95811],[-0.5179,0.09202]],[[259.60671,339.31511],[0.48224,-0.10965],[-4.9579,1.12734]],[[244.77858,341.16631],[4.93186,-0.53102],[-0.36495,0.13559]],[[243.66918,341.57508],[0.37522,-0.13655],[-2.05219,0.74685]],[[237.17595,342.44759],[2.13113,-0.47702],[-1.33538,0.29891]],[[233.36431,343.97224],[1.3434,-0.26048],[-3.96057,0.76793]],[[221.09473,343.98507],[3.96691,-0.63065],[-1.45541,0.23138]],[[216.91087,345.41372],[1.39462,-0.47622],[0,0]],[[216.89509,345.41869],[0.01038,-0.00317],[-0.03209,0.04913]],[[216.84315,345.4943],[0,0],[-0.66286,0.84427]],[[214.85458,348.02711],[0.40217,-0.9952],[-0.90439,2.23798]],[[214.22695,355.24129],[0.57394,-2.34458],[-0.27021,1.10382]],[[212.7023,358.2906],[0.23015,-1.11286],[-0.27004,1.30575]],[[212.76917,362.29019],[-0.0223,-1.33319],[0,0]],[[212.76917,362.68043],[0,0],[0.69117,0.09707]]],&quot;closed&quot;:true}],&quot;index&quot;:null}" fill="url(#color-3)" stroke="none" stroke-width="0.5" stroke-linecap="butt"/><path d="" fill="#000000" stroke="none" stroke-width="0.5" stroke-linecap="butt"/><path d="M535.24832,332.54648c-0.02367,-1.60911 -0.87162,-2.99626 -0.88235,-4.58823c-0.00963,-1.42892 -0.0109,-3.70851 -0.0109,-5.13746c0,-0.84609 0.46167,-1.43909 1.07873,-1.73266c-0.26955,-0.01701 -0.54059,-0.03887 -0.81334,-0.06608c-0.94577,-0.09434 -3.7619,-0.26256 -4.44045,-0.69933c-2.14695,-1.38195 -1.83915,-2.3924 -1.8814,-4.42645c-0.04754,-2.2883 -0.00887,-4.92219 0.23993,-7.45243c-1.40813,-0.47508 -2.52504,-1.48061 -4.17714,-1.82359c-2.14785,-0.74721 -3.25036,-1.51501 -4.38966,-3.53102c-0.51259,-0.90704 -0.96341,-2.31228 -1.20045,-3.8407c0.86177,-0.12212 1.72315,-0.24879 2.58538,-0.37621c0.39539,2.18054 2.11811,4.41507 3.78451,4.93263c1.53157,0.35834 2.47811,1.2931 3.77441,1.84861c0.12286,-0.69106 0.26722,-1.3593 0.43607,-1.9938c0,0 0.38432,-1.40919 1.79351,-1.02486c1.40919,0.38432 1.02486,1.79351 1.02486,1.79351c-0.09423,0.33549 -0.17721,0.67963 -0.25048,1.03071c0.5917,-0.17584 1.15851,-0.34423 1.59837,-0.36947c3.54733,-0.20353 7.36105,0.06658 10.86434,-0.48417c3.01494,-0.47399 5.26545,-1.16384 8.39666,-0.48487l0.6451,-0.18704c0,0 0.01417,-0.00202 0.03991,-0.00426l0.00001,-0.00003c-0.16494,-2.1308 -0.55855,-4.65435 -1.26979,-7.03456c0.76129,-0.08755 1.52387,-0.17282 2.2891,-0.25091c0.24584,-0.02509 0.4893,-0.04956 0.73077,-0.07313c1.317,4.63252 1.50042,9.81883 1.03771,14.1371c-0.3067,2.86233 -1.16638,6.19165 -3.50484,8.13211c-1.91656,1.59037 -4.15972,1.33735 -6.4581,1.47535c0.08356,0.16519 0.1704,0.32638 0.26011,0.48418c-0.07597,0.0476 -0.14869,0.09859 -0.2183,0.15271c0.38868,0.9411 0.52657,2.06813 0.5942,2.9473c0.35177,4.57306 0.15313,9.25171 0.50608,13.84012c0.09073,0.21153 0.14098,0.44455 0.14098,0.6893c0,0.02423 -0.00049,0.04835 -0.00147,0.07234c-0.02652,0.95339 -0.3294,1.46765 -0.74959,1.67755c1.47135,4.41175 1.34955,9.445 1.59136,14.03927c0.08817,1.67523 0.54819,3.8178 -0.09787,5.44416c-1.02103,2.57027 -4.05393,4.16594 -6.12047,2.65311c-0.13157,0.3571 -0.31535,0.69597 -0.56592,1.00925c-4.27364,5.34322 -7.49961,-2.5201 -8.4604,-5.74514c-0.3935,-3.83464 -1.02856,-8.60742 0.02912,-12.37302c0.51721,-1.8414 1.33081,-3.71573 2.22658,-5.5025c-0.07496,-0.19491 -0.11604,-0.40664 -0.11604,-0.62796c0,-0.1406 0.01658,-0.27732 0.04789,-0.40832c-0.54843,-1.80037 -0.07736,-4.12545 -0.10672,-6.12109zM532.09631,314.01828l-0.54821,0.13856c0,0 -0.1282,0.02564 -0.31555,0.02323c-0.00462,0.096 -0.00943,0.19154 -0.01445,0.28657c-0.03727,0.70508 -0.48553,2.93555 0.45747,3.34662c0.99385,0.43324 2.15967,0.1941 3.23844,0.30226c3.0498,0.30579 5.87589,-0.11305 8.82641,-0.47177c0.08821,-0.01834 0.18358,-0.03026 0.2867,-0.0346c0.47991,-0.05741 0.96339,-0.11258 1.45192,-0.16215c1.55312,-0.13997 4.10861,0.31662 5.36276,-0.82182c0.78426,-0.7119 1.32884,-1.62182 1.71029,-2.60889c-0.41446,-0.0215 -0.78322,-0.21576 -1.03563,-0.51216c-6.22137,1.39357 -13.14243,0.51414 -19.42016,0.51414zM536.00399,346.01416c-0.95528,3.27332 -0.29338,7.65994 0.02911,10.99752c0.25264,0.83454 1.3456,5.3755 2.75125,5.03586c1.28323,-0.31006 0.62162,-3.19477 0.54071,-3.923c-0.30147,-2.71317 0.07782,-5.384 0.33027,-8.07269c-0.35779,-2.73544 -0.67065,-5.47547 -0.67307,-8.28106v-1.5024c0,-0.12786 0.01643,-0.25189 0.04729,-0.37009c-0.0764,-0.04442 -0.15138,-0.09114 -0.22482,-0.1402c-0.06152,0.07803 -0.13623,0.14471 -0.22612,0.19822c-1.01973,1.93758 -1.97911,4.01723 -2.57461,6.05782zM540.89381,329.34602c0.10026,0.7716 0.03545,4.7346 -0.42306,5.19311c-0.14035,0.14035 -0.34845,0.20767 -0.57238,0.25329c-0.00012,0.07344 -0.00019,0.14687 -0.00021,0.22031c0.02444,0.22958 0.14034,1.84963 0.35694,2.18198c0.39855,0.61152 2.82793,0.57849 3.02133,-0.17897c0.12258,-0.4801 0.22159,-0.96211 0.30003,-1.44569c-0.23451,-2.81372 -0.04666,-5.68933 -0.12829,-8.48456c-0.20681,-1.68985 -0.45312,-3.37307 -0.61617,-5.03465c-0.05293,-0.24451 -0.08125,-0.54102 -0.07572,-0.85037c-0.01327,-0.16747 -0.02546,-0.33469 -0.03646,-0.50165c-0.84427,0.10037 -1.68231,0.19724 -2.5217,0.27417l-0.13304,1.18055c0.00065,1.31693 -0.01479,2.63498 -0.03651,3.95369c0.43313,1.27726 0.76981,2.50439 0.86523,3.23878zM542.20908,341.65127l-0.00571,0.00115c0.00339,0.00732 0.00677,0.01464 0.01014,0.02198c1.18787,2.59053 0.84077,5.64042 0.40445,8.63659c0.28132,2.10316 0.58359,4.20557 0.78062,6.33695c0.1077,0.96932 0.02209,1.96341 0.22616,2.9171c0.31539,1.47399 1.84342,-0.63083 1.96758,-0.96362c0.0868,-0.23266 0.078,-2.40657 0.06906,-2.5686c-0.27799,-5.03943 0.00072,-11.00855 -1.90053,-15.72273c0,0 -0.02498,-0.06244 -0.05081,-0.16587c-0.54247,0.22009 -1.12979,0.35288 -1.72355,0.39408zM540.32666,311.06086c0.10631,-0.94332 0.15949,-1.89419 0.158,-2.84348l-0.04754,-0.24615c-2.98355,0.21683 -6.01728,0.2871 -8.94173,0.59276c-0.07253,0.88365 -0.11595,1.77895 -0.15038,2.66386l0.75129,-0.13088c2.60791,0 5.41154,0.19973 8.23681,0.30159c-0.02199,-0.19778 -0.00645,-0.33769 -0.00645,-0.33769zM547.74398,308.46509c-0.10278,0.925 -0.15532,1.85672 -0.16357,2.78767c1.76506,-0.18622 3.47652,-0.52031 5.08748,-1.08243c0,0 0.32234,-0.10744 0.70791,-0.06323c0.10223,-1.06433 0.16621,-2.15559 0.17946,-3.25713l-1.41007,0.12237c-1.66779,-0.3817 -3.01223,-0.26791 -4.39908,-0.02521zM543.40598,308.21738c-0.00149,1.05699 -0.06062,2.11541 -0.17587,3.16609c0,0 -0.00301,0.02704 -0.01189,0.07335c0.48141,0.00014 0.96173,-0.00553 1.44009,-0.01848c0.00461,-1.04654 0.05327,-2.09479 0.16883,-3.13479l-0.00127,-0.81063c-0.49572,0.07821 -0.99523,0.14655 -1.49774,0.20695z" fill="#000000" stroke="none" stroke-width="0.5" stroke-linecap="butt"/><path d="M538.60598,298.109l0.65484,1.47339c0.08902,0.18877 0.13878,0.3997 0.13878,0.62223c0,0.8067 -0.65396,1.46066 -1.46066,1.46066c-0.55962,0 -1.04574,-0.31471 -1.29102,-0.7768l-0.80901,-1.45623c-0.33137,-0.32805 -0.5276,-0.77447 -0.71978,-1.22079c1.15426,-0.02882 2.30758,-0.08921 3.46065,-0.1616c0.00875,0.01981 0.01749,0.03952 0.02621,0.05914z" fill="#000000" stroke="none" stroke-width="0.5" stroke-linecap="butt"/><path d="M523.53892,304.99039c0.63549,0.60723 1.20499,1.39346 1.78731,1.81811c0.52999,0.38649 1.29405,0.39389 1.66779,0.97791c1.59694,1.50473 3.28596,4.3484 3.24218,6.57264c-0.25377,1.05419 -0.77346,3.82873 -1.58513,4.88344c-1.57464,-1.26114 -3.48762,-2.03126 -5.13344,-3.27697c-1.8165,-1.37489 -3.24803,-3.17049 -4.77848,-4.84783c-0.94358,-1.03413 -1.93184,-1.77728 -2.1475,-3.31817c-0.41332,-2.95317 1.13729,-3.95143 3.35305,-3.78523c0.2215,0.0728 0.48327,0.09142 0.7541,0.09615c0.24196,0.04258 0.48947,0.09662 0.74111,0.16125v-0.00002c0.76424,0.19628 1.45981,0.43299 2.09899,0.71873zM528.52186,315.63386l-0.35666,-0.77846c-0.80975,-1.36096 -1.41372,-2.69209 -2.38507,-3.94036c-1.38797,-2.27021 -2.57312,-3.0445 -5.12586,-3.82966c-0.49883,-0.15343 -1.24496,-0.80003 -1.52399,-0.35899c-0.21618,0.34172 1.62391,2.26828 1.75692,2.41138c1.42285,1.53072 2.71456,3.23949 4.39216,4.49742c1.05732,0.79283 2.18059,1.4047 3.27557,2.06118c-0.02211,-0.03911 -0.03307,-0.0625 -0.03307,-0.0625z" data-paper-data="{&quot;index&quot;:null}" fill="#000000" stroke="none" stroke-width="0.5" stroke-linecap="butt"/><path d="M547.71232,306.92267c1.38685,-0.2427 2.79081,-0.3649 4.4586,0.0168l1.41829,-0.11379c-0.01325,1.10154 -0.0724,2.23253 -0.17463,3.29686c-0.38557,-0.04422 -0.71032,0.06825 -0.71032,0.06825c-1.61096,0.56212 -3.39205,0.90095 -5.15711,1.08717c0.00824,-0.93095 0.05301,-1.89548 0.1558,-2.82049z" data-paper-data="{&quot;noHover&quot;:false,&quot;origItem&quot;:[&quot;Path&quot;,{&quot;applyMatrix&quot;:true,&quot;segments&quot;:[[[1095.48797,616.93017],[0,0],[-0.20556,1.85001]],[[1095.16083,622.5055],[0.01649,-1.8619],[3.53012,-0.37244]],[[1105.33578,620.34065],[-3.22192,1.12423],[0,0]],[[1106.75161,620.21419],[-0.77114,-0.08843],[0.20447,-2.12866]],[[1107.11054,613.69993],[-0.02651,2.20308],[0,0]],[[1104.2904,613.94467],[0,0],[-3.33558,-0.7634]],[[1095.49225,613.89425],[2.7737,-0.4854],[0,0]]],&quot;closed&quot;:true}]}" fill="url(#color-4)" stroke="none" stroke-width="0.5" stroke-linecap="butt"/><path d="M540.37202,311.41364c-2.82526,-0.10186 -5.70695,-0.30221 -8.31486,-0.30221l-0.75168,0.12975c0.03443,-0.88491 0.07693,-1.80381 0.14946,-2.68746c2.92445,-0.30566 6.03766,-0.38045 9.02121,-0.59728l0.04825,0.24818c0.00149,0.94929 -0.05159,1.92535 -0.15789,2.86867c0,0 -0.01647,0.14257 0.00552,0.34035z" data-paper-data="{&quot;noHover&quot;:false,&quot;origItem&quot;:[&quot;Path&quot;,{&quot;applyMatrix&quot;:true,&quot;segments&quot;:[[[1080.65332,622.12172],[0,0],[0.21261,-1.88664]],[[1080.96932,616.43475],[0.00299,1.89858],[0,0]],[[1080.87424,615.94245],[0,0],[-5.96709,0.43366]],[[1062.99078,617.12796],[5.8489,-0.61131],[-0.14506,1.76731]],[[1062.69003,622.45567],[0.06885,-1.76981],[0,0]],[[1064.19261,622.19392],[0,0],[5.21582,0]],[[1080.66622,622.7971],[-5.65053,-0.20373],[-0.04399,-0.39556]]],&quot;closed&quot;:true}]}" fill="url(#color-5)" stroke="none" stroke-width="0.5" stroke-linecap="butt"/><path d="M543.31291,307.66099c0.50251,-0.0604 1.03291,-0.12856 1.52863,-0.20677l0.00923,0.81491c-0.11555,1.04 -0.175,2.16236 -0.17961,3.2089c-0.47835,0.01295 -0.98722,0.01758 -1.46863,0.01745c0.00888,-0.04631 0.01158,-0.07348 0.01158,-0.07348c0.11525,-1.05068 0.17201,-2.18511 0.1735,-3.2421z" data-paper-data="{&quot;noHover&quot;:false,&quot;origItem&quot;:[&quot;Path&quot;,{&quot;applyMatrix&quot;:true,&quot;segments&quot;:[[[1086.81195,616.43475],[0,0],[-0.00298,2.11398]],[[1086.46022,622.76693],[0.2305,-2.10137],[0,0]],[[1086.43644,622.91363],[0.01777,-0.09261],[0.96282,0.00027]],[[1089.31661,622.87666],[-0.95671,0.02591],[0.00922,-2.09308]],[[1089.65427,616.60707],[-0.23111,2.08],[0,0]],[[1089.65172,614.98581],[0,0],[-0.99144,0.15641]],[[1086.65624,615.3997],[1.00502,-0.1208],[0,0]]],&quot;closed&quot;:true}]}" fill="url(#color-6)" stroke="none" stroke-width="0.5" stroke-linecap="butt"/><path d="M541.97861,340.49731c0.59376,-0.0412 1.18847,-0.17473 1.73094,-0.39482c0.02584,0.10343 0.05102,0.16586 0.05102,0.16586c1.90125,4.71418 1.63518,10.7649 1.91317,15.80433c0.00894,0.16204 0.01388,2.33694 -0.07292,2.56959c-0.12416,0.33279 -1.66157,2.43848 -1.97697,0.96449c-0.20407,-0.95369 -0.12029,-1.94786 -0.22799,-2.91718c-0.19703,-2.13138 -0.53775,-4.26871 -0.81907,-6.37187c0.43632,-2.99617 0.81677,-6.09377 -0.3711,-8.6843c-0.00337,-0.00734 0.00895,0.06731 0.00555,0.05999l0.00568,-0.00113z" data-paper-data="{&quot;noHover&quot;:false,&quot;origItem&quot;:[&quot;Path&quot;,{&quot;applyMatrix&quot;:true,&quot;segments&quot;:[[1084.41817,683.30254],[[1084.40675,683.30483],[0,0],[0.00679,0.01464]],[[1084.42703,683.3488],[-0.00673,-0.01468],[2.37574,5.18106]],[[1085.23593,700.62198],[0.87263,-5.99234],[0.56264,4.20632]],[[1086.79716,713.29588],[-0.39405,-4.26276],[0.2154,1.93864]],[[1087.24948,719.13008],[-0.40813,-1.90739],[0.63079,2.94797]],[[1091.18463,717.20284],[-0.24832,0.66559],[0.1736,-0.46531]],[[1091.32275,712.06563],[0.01788,0.32408],[-0.55598,-10.07886]],[[1087.52169,680.62017],[3.8025,9.42836],[0,0]],[[1087.42007,680.28843],[0.05167,0.20687],[-1.08495,0.44018]],[[1083.97297,681.07658],[1.18752,-0.0824],[0,0]]],&quot;closed&quot;:true}]}" fill="url(#color-7)" stroke="none" stroke-width="0.5" stroke-linecap="butt"/><path d="M538.72007,339.65556c0.10152,0.07169 0.20747,0.13889 0.31495,0.20139c-0.03086,0.1182 -0.04729,0.24223 -0.04729,0.37009l0.00088,1.50252c0.00243,2.80559 0.34769,5.57137 0.70548,8.30681c-0.25245,2.68869 -0.66072,5.4156 -0.35925,8.12876c0.08092,0.72823 0.73722,3.61385 -0.54601,3.92391c-1.40565,0.33964 -2.5133,-4.20235 -2.76594,-5.03689c-0.3225,-3.33758 -0.98704,-7.80437 -0.03176,-11.07768c0.62217,-2.13191 1.65857,-4.30828 2.72894,-6.31891z" data-paper-data="{&quot;noHover&quot;:false,&quot;origItem&quot;:[&quot;Path&quot;,{&quot;applyMatrix&quot;:true,&quot;segments&quot;:[[[1072.00798,692.02832],[1.24434,-4.26381],[-1.91055,6.54663]],[[1072.06621,714.02337],[-0.64499,-6.67517],[0.50528,1.66908]],[[1077.56871,724.09509],[-2.8113,0.67928],[2.56645,-0.62012]],[[1078.65013,716.2491],[0.16183,1.45645],[-0.60293,-5.42633]],[[1079.31067,700.10372],[-0.5049,5.37738],[-0.71558,-5.47088]],[[1077.96453,683.5416],[0.00485,5.61117],[0,0]],[[1077.96453,680.53681],[0,0],[0,-0.25573]],[[1078.05912,679.79663],[-0.06173,0.23639],[-0.21497,-0.12498]],[[1077.43171,679.39415],[0.20304,0.14337],[-2.14075,4.02126]]],&quot;closed&quot;:true}]}" fill="url(#color-8)" stroke="none" stroke-width="0.5" stroke-linecap="butt"/><path d="M528.55229,315.66242c0,0 0.01086,0.02349 0.03296,0.06259c-1.09498,-0.65648 -2.22687,-1.26136 -3.28418,-2.05419c-1.6776,-1.25794 -3.02507,-3.02648 -4.44792,-4.55721c-0.13302,-0.1431 -1.96919,-2.0744 -1.753,-2.41612c0.27903,-0.44104 1.02995,0.20128 1.52878,0.35471c2.55275,0.78517 3.80452,1.58663 5.19249,3.85684c0.97135,1.24827 1.56605,2.61217 2.3758,3.97313l0.35509,0.78024z" data-paper-data="{&quot;noHover&quot;:false,&quot;origItem&quot;:[&quot;Path&quot;,{&quot;applyMatrix&quot;:true,&quot;segments&quot;:[[[1073.63116,650.01387],[-0.00687,0.08958],[-1.42618,2.11797]],[[1069.44743,656.52599],[1.24229,-2.33296],[-1.97109,3.7016]],[[1065.30836,668.3978],[1.27826,-3.97951],[-0.1195,0.37202]],[[1064.17222,674.25572],[-0.68146,-0.43548],[0.87954,0.56207]],[[1066.62778,672.31256],[-0.77328,0.70111],[3.9572,-3.58784]],[[1072.66221,661.02765],[-0.58769,5.28922],[0.70018,-3.0849]],[[1073.63879,651.86762],[-0.31189,3.15187],[0,0]],[1073.62429,650.15511]],&quot;closed&quot;:true}],&quot;index&quot;:null}" fill="url(#color-9)" stroke="none" stroke-width="0.5" stroke-linecap="butt"/><path d="M540.18981,320.9321c0.83939,-0.07693 1.68995,-0.17443 2.53422,-0.27479c0.35168,5.33911 1.93054,11.03082 0.55979,16.3995c-0.1934,0.75745 -2.63836,0.79034 -3.03691,0.17882c-0.2166,-0.33235 -0.3376,-1.95375 -0.36203,-2.18333c0.00048,-1.68136 0.02703,-3.3757 0.059,-5.07236c0.07163,-0.6898 0.08888,-1.39612 0.04043,-2.07685c0.03764,-1.93786 0.07137,-3.87312 0.07042,-5.78996z" data-paper-data="{&quot;noHover&quot;:false,&quot;origItem&quot;:[&quot;Path&quot;,{&quot;applyMatrix&quot;:true,&quot;segments&quot;:[[[1080.13018,644.30709],[0,0],[0.00423,8.55984]],[[1079.79632,670.02545],[0.00242,-8.57492],[0.04887,0.45917]],[[1080.5102,674.38941],[-0.43321,-0.6647],[0.79709,1.22304]],[[1086.55285,674.03147],[-0.38679,1.51491],[2.7415,-10.73736]],[[1085.43966,641.39766],[0.70336,10.67823],[-1.68854,0.20073]],[[1080.39626,641.946],[1.67878,-0.15386],[0,0]]],&quot;closed&quot;:true}]}" fill="url(#color-10)" stroke="none" stroke-width="0.5" stroke-linecap="butt"/><path d="M553.46181,303.95126l-0.64557,0.188c-3.13121,-0.67897 -5.39191,0.02392 -8.40685,0.49791c-3.50329,0.55075 -7.36105,0.28707 -10.90839,0.4906c-0.43986,0.02524 -1.01127,0.19124 -1.60297,0.36708c0.07327,-0.35108 0.15507,-0.69596 0.2493,-1.03145c0,0 0.37752,-1.41469 -1.03166,-1.79901c-1.40919,-0.38432 -1.73307,0.96734 -1.73307,0.96734c-0.16885,0.6345 -0.37231,1.36154 -0.49517,2.05261c-1.29631,-0.5555 -2.2504,-1.49946 -3.78197,-1.8578c-1.66601,-0.51744 -3.39111,-2.76153 -3.78879,-4.94831c0.65303,-0.09649 1.30653,-0.19345 1.96104,-0.28923c3.46128,-0.50653 6.94188,-0.35936 10.43745,-0.35936c0.48083,0 0.96146,-0.00685 1.44192,-0.01913c0.18417,0.4316 0.37497,0.8621 0.70064,1.1845l0.79682,1.45227c0.24528,0.46209 0.72027,0.77652 1.27989,0.77652c0.8067,0 1.44548,-0.64927 1.44548,-1.45597c0,-0.22254 -0.05145,-0.43252 -0.14046,-0.62129l-0.65801,-1.47129c-0.00367,-0.00825 -0.00733,-0.01651 -0.01101,-0.0248c1.81963,-0.11413 3.63864,-0.25826 5.45976,-0.35541c2.75881,-0.14717 5.47145,-0.49096 8.20087,-0.80456c0.71191,2.38985 1.10558,4.92388 1.27066,7.05649c-0.02574,0.00225 -0.03993,0.00431 -0.03993,0.00431z" data-paper-data="{&quot;noHover&quot;:false,&quot;origItem&quot;:[&quot;Path&quot;,{&quot;applyMatrix&quot;:true,&quot;segments&quot;:[[[1106.92786,607.85856],[-0.05147,0.00449],[-0.64665,-8.3539]],[[1098.37558,584.96072],[5.50155,6.31458],[-5.27673,-6.03614]],[[1078.92297,574.93726],[8.05168,0.76268],[-1.48302,-0.14047]],[[1071.64153,574.68617],[1.42444,-0.90854],[-1.20243,0.76694]],[[1071.06461,580.81128],[-0.20725,-0.96743],[1.1603,5.41606]],[[1077.21195,596.218],[-2.23104,-5.01984],[0,0]],[[1078.52163,599.16477],[0,0],[0.17803,0.37754]],[[1078.7992,600.40924],[0,-0.44508],[0,1.6134]],[[1075.87788,603.33056],[1.6134,0],[-1.11924,0]],[[1073.29585,601.77695],[0.49056,0.92419],[0,0]],[[1071.67782,598.8645],[0,0],[-1.48833,-1.4734]],[[1068.33248,593.54604],[1.73184,1.17773],[-3.04537,-2.07099]],[[1053.85789,593.96489],[3.48266,0.35751],[-1.40194,-0.14391]],[[1043.65268,592.0231],[0.82087,-1.22639],[-3.41998,5.10954]],[[1050.28235,607.60987],[-4.90292,-1.52279],[3.06313,0.71668]],[[1057.83118,611.30708],[-2.59262,-1.11101],[0.24572,-1.38213]],[[1058.70331,607.31948],[-0.3377,1.26901],[0,0]],[[1062.29034,605.26975],[-2.81838,-0.76865],[2.81838,0.76865]],[[1064.34007,608.85678],[0,0],[-0.18846,0.67098]],[[1063.83911,610.9182],[0.14655,-0.70216],[1.1834,-0.35168]],[[1067.03584,610.17926],[-0.87972,0.05047],[7.09467,-0.40706]],[[1088.76453,609.21092],[-7.00658,1.10151],[6.02988,-0.94797]],[[1105.55785,608.24117],[-6.26241,-1.35794],[0,0]],[1106.84804,607.86709]],&quot;closed&quot;:true}]}" fill="url(#color-11)" stroke="none" stroke-width="0.5" stroke-linecap="butt"/><path d="M522.42213,290.62649c2.0267,-0.32993 4.38046,1.66511 6.54048,1.50243c1.38036,-0.10396 3.09142,-0.63429 4.66409,-0.55459c-0.84173,-2.86791 -1.28933,-3.80756 -0.45103,-6.49243c1.27245,-4.07533 4.00774,-3.5616 6.8651,-3.17725c4.75843,0.64007 8.49665,1.08691 11.64104,5.71115c1.67258,2.54563 2.86589,5.70578 3.67423,9.12614c-0.21104,0.0267 -0.42358,0.05425 -0.63785,0.08241c-0.79861,0.10495 -1.5943,0.22005 -2.38865,0.33805c-0.67346,-2.70885 -1.60444,-5.23331 -2.85604,-7.0835c-2.63837,-3.88705 -5.70046,-3.93971 -9.7263,-4.43085c-0.74151,-0.09046 -2.9285,-0.74676 -3.64072,-0.1617c-0.60122,0.49388 -0.39209,1.29747 -0.28846,1.92046c0.53969,3.24453 1.76985,7.9924 2.83684,11.24118c-1.15649,0.09179 -2.31326,0.16653 -3.47102,0.19858c-0.18085,-0.48218 -0.39589,-0.92089 -0.73189,-1.21517c-1.52269,-1.33365 -5.49597,0.49995 -7.2373,0.26973c-0.70097,-0.09268 -4.69217,-2.04019 -5.10261,-1.25043c-0.45926,0.8837 -0.60955,1.94599 -0.53622,3.0462c-0.86294,0.16428 -1.72502,0.3276 -2.58749,0.48502c-0.40544,-4.27324 0.24265,-9.03593 3.4338,-9.55543z" fill="#000000" stroke="none" stroke-width="0.5" stroke-linecap="butt"/><path d="M535.80579,287.35541c-0.10362,-0.623 -0.30757,-1.42815 0.29365,-1.92203c0.71222,-0.58507 2.91575,-1.21605 3.65726,-1.12558c4.02584,0.49114 7.11803,1.86712 9.75639,5.75418c1.25071,1.84888 2.18088,4.37927 2.85383,7.09488c-2.68796,0.39894 -5.36022,0.83228 -8.07765,1.01899c-1.88263,0.12935 -3.76304,0.32379 -5.64421,0.47294c-1.06893,-3.25071 -2.29711,-8.03404 -2.83927,-11.29336z" data-paper-data="{&quot;noHover&quot;:false,&quot;origItem&quot;:[&quot;Path&quot;,{&quot;applyMatrix&quot;:true,&quot;segments&quot;:[[[1106.92786,607.85856],[-0.05147,0.00449],[-0.64665,-8.3539]],[[1098.37558,584.96072],[5.50155,6.31458],[-5.27673,-6.03614]],[[1078.92297,574.93726],[8.05168,0.76268],[-1.48302,-0.14047]],[[1071.64153,574.68617],[1.42444,-0.90854],[-1.20243,0.76694]],[[1071.06461,580.81128],[-0.20725,-0.96743],[1.1603,5.41606]],[[1077.21195,596.218],[-2.23104,-5.01984],[0,0]],[[1078.52163,599.16477],[0,0],[0.17803,0.37754]],[[1078.7992,600.40924],[0,-0.44508],[0,1.6134]],[[1075.87788,603.33056],[1.6134,0],[-1.11924,0]],[[1073.29585,601.77695],[0.49056,0.92419],[0,0]],[[1071.67782,598.8645],[0,0],[-1.48833,-1.4734]],[[1068.33248,593.54604],[1.73184,1.17773],[-3.04537,-2.07099]],[[1053.85789,593.96489],[3.48266,0.35751],[-1.40194,-0.14391]],[[1043.65268,592.0231],[0.82087,-1.22639],[-3.41998,5.10954]],[[1050.28235,607.60987],[-4.90292,-1.52279],[3.06313,0.71668]],[[1057.83118,611.30708],[-2.59262,-1.11101],[0.24572,-1.38213]],[[1058.70331,607.31948],[-0.3377,1.26901],[0,0]],[[1062.29034,605.26975],[-2.81838,-0.76865],[2.81838,0.76865]],[[1064.34007,608.85678],[0,0],[-0.18846,0.67098]],[[1063.83911,610.9182],[0.14655,-0.70216],[1.1834,-0.35168]],[[1067.03584,610.17926],[-0.87972,0.05047],[7.09467,-0.40706]],[[1088.76453,609.21092],[-7.00658,1.10151],[6.02988,-0.94797]],[[1105.55785,608.24117],[-6.26241,-1.35794],[0,0]],[1106.84804,607.86709]],&quot;closed&quot;:true}]}" fill="url(#color-12)" stroke="none" stroke-width="0.5" stroke-linecap="butt"/><path d="M521.92747,295.53851c0.41044,-1.03062 4.48502,1.50877 5.18599,1.62971c1.74133,0.30045 5.7144,-2.0965 7.23709,-0.35611c0.34048,0.38915 0.55325,0.96339 0.73135,1.59228c-0.40783,0.01519 -0.81578,0.02352 -1.22388,0.02352c-3.52016,0 -7.02399,-0.24453 -10.50985,0.61285c-0.65269,0.16054 -1.30438,0.32307 -1.95559,0.48483c-0.07458,-1.44158 0.0751,-2.83251 0.53489,-3.98707z" data-paper-data="{&quot;noHover&quot;:false,&quot;origItem&quot;:[&quot;Path&quot;,{&quot;applyMatrix&quot;:true,&quot;segments&quot;:[[[1106.92786,607.85856],[-0.05147,0.00449],[-0.64665,-8.3539]],[[1098.37558,584.96072],[5.50155,6.31458],[-5.27673,-6.03614]],[[1078.92297,574.93726],[8.05168,0.76268],[-1.48302,-0.14047]],[[1071.64153,574.68617],[1.42444,-0.90854],[-1.20243,0.76694]],[[1071.06461,580.81128],[-0.20725,-0.96743],[1.1603,5.41606]],[[1077.21195,596.218],[-2.23104,-5.01984],[0,0]],[[1078.52163,599.16477],[0,0],[0.17803,0.37754]],[[1078.7992,600.40924],[0,-0.44508],[0,1.6134]],[[1075.87788,603.33056],[1.6134,0],[-1.11924,0]],[[1073.29585,601.77695],[0.49056,0.92419],[0,0]],[[1071.67782,598.8645],[0,0],[-1.48833,-1.4734]],[[1068.33248,593.54604],[1.73184,1.17773],[-3.04537,-2.07099]],[[1053.85789,593.96489],[3.48266,0.35751],[-1.40194,-0.14391]],[[1043.65268,592.0231],[0.82087,-1.22639],[-3.41998,5.10954]],[[1050.28235,607.60987],[-4.90292,-1.52279],[3.06313,0.71668]],[[1057.83118,611.30708],[-2.59262,-1.11101],[0.24572,-1.38213]],[[1058.70331,607.31948],[-0.3377,1.26901],[0,0]],[[1062.29034,605.26975],[-2.81838,-0.76865],[2.81838,0.76865]],[[1064.34007,608.85678],[0,0],[-0.18846,0.67098]],[[1063.83911,610.9182],[0.14655,-0.70216],[1.1834,-0.35168]],[[1067.03584,610.17926],[-0.87972,0.05047],[7.09467,-0.40706]],[[1088.76453,609.21092],[-7.00658,1.10151],[6.02988,-0.94797]],[[1105.55785,608.24117],[-6.26241,-1.35794],[0,0]],[1106.84804,607.86709]],&quot;closed&quot;:true}]}" fill="url(#color-13)" stroke="none" stroke-width="0.5" stroke-linecap="butt"/><path d="M551.55702,313.49428c0.25241,0.2964 0.62175,0.49344 1.03621,0.51494c-0.38145,0.98707 -0.92558,1.90758 -1.70984,2.61948c-1.25414,1.13844 -3.81292,0.6949 -5.36604,0.83488c-0.48853,0.04957 -0.97756,0.11404 -1.45747,0.17145c-0.10312,0.00434 -0.20062,0.01873 -0.28882,0.03708c-2.95053,0.35872 -5.84691,0.76216 -8.89672,0.45637c-1.07876,-0.10816 -2.2459,0.12591 -3.23975,-0.30733c-0.943,-0.41107 -0.49513,-2.65487 -0.45786,-3.35995c0.00503,-0.09503 0.01,-0.19167 0.01462,-0.28767c0.18736,0.00241 0.3156,-0.02351 0.3156,-0.02351l0.54837,-0.13951c6.27773,0 13.28034,0.87735 19.50171,-0.51622z" data-paper-data="{&quot;noHover&quot;:false,&quot;origItem&quot;:[&quot;Path&quot;,{&quot;applyMatrix&quot;:true,&quot;segments&quot;:[[[1064.19261,628.03656],[12.55545,0],[0,0]],[1063.09619,628.31369],[[1062.46509,628.36014],[0.37471,0.00483],[-0.00924,0.19201]],[[1062.43618,628.93328],[0.01005,-0.19005],[-0.07454,1.41016]],[[1063.35112,635.62651],[-1.886,-0.82214],[1.9877,0.86648]],[[1069.828,636.23104],[-2.15753,-0.21633],[6.09961,0.61158]],[[1087.48083,635.2875],[-5.90106,0.71743],[0.17641,-0.03668]],[[1088.05424,635.21831],[-0.20624,0.00867],[0.95982,-0.11483]],[[1090.95808,634.89401],[-0.97707,0.09914],[3.10624,-0.27995]],[[1101.6836,633.25037],[-2.50829,2.27687],[1.56851,-1.42379]],[[1105.10419,628.03258],[-0.76291,1.97414],[-0.82893,-0.04299]],[[1103.03293,627.00827],[0.50482,0.59279],[-12.44275,2.78715]]],&quot;closed&quot;:true}]}" fill="url(#color-14)" stroke="none" stroke-width="0.5" stroke-linecap="butt"/><path d="M549.45727,313.39229l-0.33386,4.00637" fill="none" stroke="#000000" stroke-width="1.5" stroke-linecap="round"/><path d="M541.61145,319.40184v-2.00319l0.33387,-3.33865" fill="none" stroke="#000000" stroke-width="1.5" stroke-linecap="round"/><path d="M536.43655,319.06799l0.83466,-6.51037" fill="none" stroke="#000000" stroke-width="1.5" stroke-linecap="round"/><path d="M533.5987,317.89946l0.83466,-4.67411" fill="none" stroke="#000000" stroke-width="1.5" stroke-linecap="round"/><path d="M545.4509,317.89946l0.33386,-4.84104" fill="none" stroke="#000000" stroke-width="1.5" stroke-linecap="round"/><path d="M530.59392,316.39707l21.36735,-1.50239" fill="none" stroke="#000000" stroke-width="1.5" stroke-linecap="round"/></g></g></svg>