<svg version="1.1" xmlns="http://www.w3.org/2000/svg" xmlns:xlink="http://www.w3.org/1999/xlink" width="38.66891" height="47.13107" viewBox="0,0,38.66891,47.13107"><g transform="translate(-519.83635,-297.46725)"><g data-paper-data="{&quot;isPaintingLayer&quot;:true}" fill-rule="nonzero" stroke-linejoin="miter" stroke-miterlimit="10" stroke-dasharray="" stroke-dashoffset="0" style="mix-blend-mode: normal"><path d="M558.13265,319.77124c0,12.31815 -8.11826,22.30399 -18.13264,22.30399c-10.01438,0 -18.13263,-9.98584 -18.13263,-22.30399c0,-12.31815 8.11825,-22.30399 18.13263,-22.30399c10.01438,0 18.13264,9.98584 18.13264,22.30399z" fill="#252525" stroke="none" stroke-width="0" stroke-linecap="butt"/><path d="M545.20427,324.23204l-0.11438,-17.2713" fill="none" stroke="#ffffff" stroke-width="1.5" stroke-linecap="round"/><path d="M533.88069,324.23204v-17.61443" fill="none" stroke="#ffffff" stroke-width="1.5" stroke-linecap="round"/><path d="M532.85128,329.60787c0,0.34314 -0.34314,0.34314 -0.34314,0.34314h-0.11438c-0.97812,0 -0.92069,0.35599 -1.83594,0.66867c0,0 -0.32553,0.10851 -0.43404,-0.21702c-0.10851,-0.32553 0.21702,-0.43404 0.21702,-0.43404c0.48409,-0.15621 0.45737,-0.4431 0.86163,-0.66328c0.24524,-0.13357 0.9023,-0.0406 1.19133,-0.0406h0.11438c0,0 0.34314,0 0.34314,0.34314z" fill="#252525" stroke="none" stroke-width="0.5" stroke-linecap="butt"/><path d="M537.55022,341.04307c0,1.76928 -3.96538,3.20357 -8.85693,3.20357c-4.89155,0 -8.85693,-1.43429 -8.85693,-3.20357c0,-1.76928 3.96538,-3.20357 8.85693,-3.20357c4.89155,0 8.85693,1.43429 8.85693,3.20357z" fill="#252525" stroke="none" stroke-width="0" stroke-linecap="butt"/><path d="M558.50526,341.39475c0,1.76929 -3.96538,3.20357 -8.85694,3.20357c-4.89155,0 -8.85693,-1.43428 -8.85693,-3.20357c0,-1.76929 3.96538,-3.20357 8.85693,-3.20357c4.89155,0 8.85694,1.43428 8.85694,3.20357z" fill="#252525" stroke="none" stroke-width="0" stroke-linecap="butt"/></g></g></svg>