<svg version="1.1" xmlns="http://www.w3.org/2000/svg" xmlns:xlink="http://www.w3.org/1999/xlink" width="56.5438" height="37.50968" viewBox="0,0,56.5438,37.50968"><g transform="translate(-502.90579,-301.13946)"><g data-paper-data="{&quot;isPaintingLayer&quot;:true}" fill-rule="nonzero" stroke="none" stroke-linecap="butt" stroke-linejoin="miter" stroke-miterlimit="10" stroke-dasharray="" stroke-dashoffset="0" style="mix-blend-mode: normal"><path d="M554.2,320c0,8.06336 -6.35756,14.6 -14.2,14.6c-7.84244,0 -14.2,-6.53664 -14.2,-14.6c0,-8.06336 6.35756,-14.6 14.2,-14.6c7.84244,0 14.2,6.53664 14.2,14.6z" fill="#003535" stroke-width="0"/><path d="M559.21986,307.15079c0.24921,0.01986 0.22935,0.26907 0.22935,0.26907l-0.00217,0.02724c-0.30092,3.61859 -3.55428,2.95136 -6.11523,2.45288c-1.59828,0.85756 -0.39307,4.92558 -0.74382,6.69177c-0.26563,1.33758 -0.67875,2.32648 -1.94373,1.45054c-1.19794,-0.82951 -4.68192,-3.06245 -5.84213,-1.49517c-0.5309,0.71717 -0.66173,2.39762 -0.90894,3.27207c-0.06808,0.24083 -0.25252,0.69941 -0.50528,1.24184c0.24792,0.6209 0.56135,1.16427 0.98945,1.56279c0.47856,0.44549 1.56345,0.70325 2.16603,0.98488c1.47076,0.2367 2.89816,0.50052 4.39043,0.53194c0.31599,0.00665 1.43232,-0.13096 1.66067,0.07189c0.70738,0.62838 0.2555,3.71611 0.2555,4.58748c0,0.64772 -0.27535,2.24777 0.28628,2.74056c0.85453,0.74979 7.29859,1.15249 3.08359,2.75562c-0.0047,0.00179 -0.94271,0.32637 -0.95212,0.32963c-1.90605,0.65965 -3.84593,0.44567 -5.76928,-0.03429c-0.35051,1.39022 -1.00164,3.03774 -0.69847,2.95849c3.02752,0 5.86621,0.04556 8.84607,0.60428c0,0 0.24572,0.04607 0.19965,0.29179c-0.04607,0.24572 -0.29179,0.19965 -0.29179,0.19965c-2.94957,-0.55304 -5.7566,-0.59572 -8.75393,-0.59572c-1.55927,-0.18712 -0.21251,-2.06618 0.30669,-3.55981c-1.40221,-0.3747 -2.79378,-0.86914 -4.15513,-1.24694c-0.70593,-0.19591 -1.41186,-0.39182 -2.11779,-0.58773c-1.29616,0.07576 -2.8225,0.13404 -3.36561,-0.24311c-0.18888,-0.13116 -0.26149,-0.40456 -0.25726,-0.76232c-1.45898,-0.4049 -2.91797,-0.8098 -4.37695,-1.2147c-3.31493,-0.95121 -7.09153,1.47068 -9.95433,0.9339c-3.3016,-0.61905 -7.03525,0.15805 -10.38286,0.41446c-3.5606,0.27273 -6.84172,0.67408 -10.3102,1.53115c-0.1618,0.03998 -0.3236,0.07996 -0.4854,0.11994l-0.47998,0.1186c-0.02084,0.00563 -0.04277,0.00864 -0.0654,0.00864c-0.13807,0 -0.25,-0.11193 -0.25,-0.25c0,-0.11292 0.07486,-0.20835 0.17766,-0.23937l0.46971,-0.15381l0.01135,0.03467l0.00971,-0.0024c2.54504,-1.50121 6.288,-2.09816 9.00724,-2.98857c3.32623,-1.08917 6.69668,-1.92113 9.6542,-3.80671c0.95231,-0.60715 2.77278,-2.00257 3.89501,-0.81106c0.33404,0.35466 0.13998,1.09951 0.40937,1.47437c0.84573,1.17681 2.90509,1.83824 4.21894,1.87674c3.43448,0.10066 3.12407,-6.14135 6.02238,-6.9318c0.24044,-0.05796 0.56432,-0.02669 0.91985,0.06272c-0.00565,-0.8061 -0.19236,-1.54941 -0.81842,-2.09721c-0.85944,-0.75201 -1.80225,-0.58402 -2.64457,-1.11034c-1.56152,-0.97571 -1.79883,-5.6432 -2.28276,-7.28582c-0.25686,-0.99927 -1.38628,-0.94297 -2.24654,-1.04817c-2.74165,-0.33529 -4.47971,0.43528 -6.97716,1.5028c-0.4099,0.17521 -1.675,0.98513 -2.10256,0.59445c-0.21468,-0.19616 -0.15039,-1.95955 -0.07013,-2.2493c0.58577,-2.11482 0.79093,-3.84181 0.79093,-6.13327c0,-1.20102 0.01093,-3.62758 1.9644,-2.62229c1.74965,0.9004 2.33321,4.09517 3.08517,5.67171c2.62528,2.31514 6.02734,2.50058 9.50043,2.50058c2.49375,0.16744 0.18926,3.82422 1.09075,4.88841c0.92928,1.09698 3.79341,-0.49345 4.67438,0.87168c0.73598,1.28796 0.95046,3.37171 1.49011,5.09151c0.11383,-0.2785 0.20219,-0.52523 0.25681,-0.71844c0.26731,-0.94554 0.40712,-2.64434 0.98582,-3.43028c1.40401,-1.9068 5.08553,0.3774 6.53103,1.37833c1.55142,1.07428 1.21371,-4.67437 1.2211,-6.03266c0.00194,-0.35602 -0.14467,-1.33549 0.03733,-1.62999c0.0639,-0.1034 0.95152,-0.50697 1.0697,-0.56297c2.29776,0.32923 5.43018,1.45202 5.69158,-1.99822l0.00217,-0.02724c0,0 0.01986,-0.24921 0.26907,-0.22935zM542.87502,321.03974c-0.64192,-1.79408 -0.82498,-4.04828 -1.64401,-5.48159c-0.47423,-1.0362 -3.76208,0.21827 -4.62176,-0.79656c-0.57547,-0.67932 0.68663,-4.87833 -0.70925,-4.71159c-1.65,0 -3.28547,-0.04442 -4.83373,-0.32669c0.64057,0.25952 1.12888,0.72334 1.36882,1.46887c0.4074,1.38288 0.74319,6.24074 2.06223,6.99948c0.88503,0.50909 1.81631,0.37557 2.71474,1.16169c0.83616,0.73164 0.93458,1.62649 0.81346,2.56789c0.81586,0.2675 1.71071,0.773 2.12798,1.18249c0.00059,0.00057 0.59683,1.05493 0.60525,1.0497c0.67562,-0.42027 1.54546,-1.89096 2.11629,-3.11369zM537.68464,322.32139c-0.31573,-0.09421 -0.59309,-0.13197 -0.77172,-0.07488c-2.87517,0.78414 -2.30417,7.06247 -6.16859,6.9492c-1.44386,-0.04232 -3.67914,-0.78901 -4.61032,-2.08474c-0.23704,-0.32984 -0.10833,-1.14836 -0.36733,-1.42335c-0.88354,-0.93808 -2.55693,0.44018 -3.26224,0.88985c-2.99538,1.90972 -6.39976,2.75755 -9.7674,3.86028c-1.65322,0.54135 -3.30645,1.08269 -4.95967,1.62404c2.19439,-0.3702 4.38113,-0.60043 6.68119,-0.7766c3.39452,-0.26 7.16435,-1.03527 10.51319,-0.40736c2.86337,0.53688 6.64054,-1.8291 9.99589,-0.92426c1.42953,0.39673 2.85906,0.79345 4.28859,1.19018c0.20466,-1.35788 1.035,-3.33646 1.15747,-3.97704c-4.18047,0.32781 -2.89651,-2.41464 -2.72908,-4.84534zM544.43411,332.58074c0.21705,0.06024 0.4341,0.12047 0.65116,0.18071c1.35395,0.37575 2.74946,0.88068 4.15673,1.2574c0.07229,-0.33961 0.07039,-0.64246 -0.06071,-0.87792c-0.50046,-0.89882 -3.74483,-0.52199 -4.63836,-0.55758c-0.03416,-0.00136 -0.07048,-0.00221 -0.10882,-0.00261zM549.60787,334.11368c1.83854,0.46003 3.69272,0.66383 5.49636,0.03962c4.55254,-1.57554 -0.82621,-0.94576 -2.29772,-2.23691c-0.73217,-0.64243 -0.45651,-2.26958 -0.45651,-3.11639c0,-0.66832 0.40069,-3.781 -0.08744,-4.21355c-0.07095,-0.06287 -1.19297,0.05715 -1.33927,0.05407c-1.53719,-0.03237 -3.01372,-0.2964 -4.52689,-0.55392c-0.67083,-0.3062 -1.84256,-0.60275 -2.37377,-1.11041c-0.3816,-0.36469 -0.67405,-0.82627 -0.9102,-1.3463c-0.67579,1.34529 -1.629,2.89757 -2.27116,3.01669c-0.64799,0.1202 -0.74612,-0.89954 -1.038,-1.18597c-0.31187,-0.30606 -1.13643,-0.78745 -1.8568,-1.05171c-0.2667,1.40433 -0.81671,2.86623 0.00325,4.01351c0.27395,0.38331 2.35751,0.31081 2.83656,0.41088c0.14043,1.46945 -0.50027,2.66818 -0.88197,4.06775c-0.0122,0.04474 -0.07729,0.2021 -0.13834,0.38422c1.03739,0.2879 2.07478,0.5758 3.11218,0.8637c0.6429,-0.04041 1.24566,-0.08267 1.68468,-0.06518c1.15394,0.04596 4.39083,-0.38169 5.05543,0.81417c0.12907,0.23224 0.09692,0.68284 -0.01039,1.21575zM541.22887,332.21012c-0.52546,-0.14583 -1.05091,-0.29165 -1.57637,-0.43748c-0.00529,0.1062 0.01513,0.18715 0.07934,0.21495c0.36815,0.15937 0.90303,0.21566 1.49702,0.22252zM529.95639,309.47326c-1.43561,-0.39099 -2.77542,-1.04222 -3.95595,-2.12269c-0.83108,-1.66804 -4.15043,-9.0188 -4.15043,-3.35058c0,1.70375 0.28049,3.81005 -0.30052,5.42785c-0.20136,0.56067 -0.99935,1.95178 -0.57868,2.58959c0.01967,0.02983 1.44728,-0.639 1.56445,-0.68909c1.41194,-0.60353 4.94231,-2.07279 7.42114,-1.85509z" fill="#00ffff" stroke-width="0.5"/></g></g></svg>