<svg version="1.1" xmlns="http://www.w3.org/2000/svg" xmlns:xlink="http://www.w3.org/1999/xlink" width="1490.77971" height="328.35586" viewBox="0,0,1490.77971,328.35586"><g transform="translate(271.67382,-635.03532)"><g data-paper-data="{&quot;isPaintingLayer&quot;:true}" fill-rule="nonzero" stroke="#000000" stroke-linecap="butt" stroke-linejoin="miter" stroke-miterlimit="10" stroke-dasharray="" stroke-dashoffset="0" style="mix-blend-mode: normal"><path d="" fill="#ffab67" stroke-width="2.5"/><path d="" fill="#ffab67" stroke-width="2.5"/><path d="" fill="#ffab67" stroke-width="2.5"/><path d="" fill="#ffab67" stroke-width="2.5"/><path d="" fill="#ffab67" stroke-width="1.5"/><path d="" fill="#ffab67" stroke-width="1.5"/><path d="" fill="#ffab67" stroke-width="1.5"/><path d="" data-paper-data="{&quot;index&quot;:null}" fill="#ffab67" stroke-width="2"/><path d="M533.26263,798.46096l-10.62542,4.64862l-0.55978,0.31465l-0.60009,0.2286l-9.00901,4.5045l-1.89833,1.19895l-1.92133,1.16173l-21.48214,16.1116l-0.67475,-3.03637l-0.54792,-1.66265l-0.44853,-1.69217l-4.15112,-11.06966l-2.72652,-9.5428l-0.58395,-1.4707l-0.37676,-1.19581h11.38251l3.02026,0.75506l1.92359,0.2815l0.23355,0.07431l0.86604,0.0866l0.86118,0.12603l0.2446,-0.01545l1.93443,0.19344z" fill="#a6a6a6" stroke-width="1.5"/><path d="M1218.35589,635.78532v326.85586h-1490.00823c13.61189,-0.39003 26.85262,-0.82582 39.60066,-1.3041c210.0857,-7.88197 148.0555,-33.34065 147.5467,-44.19924c-0.7041,-15.02397 -13.31853,-30.20712 -51.80393,-45.05859c-8.40677,-3.24415 -29.2601,-4.18696 -39.59982,-7.46602c-19.24537,-6.10336 -7.87726,-11.99139 -14.55591,-18.10803c-25.68701,-23.52556 -67.14997,-41.57319 -62.08377,-62.94922c6.41563,-27.06957 20.90873,-54.49092 21.00539,-81.56377c0.07876,-22.06895 0.74383,-44.13797 0.43662,-66.2069z" fill="#a6a6a6" stroke-width="1.5"/><path d="" fill="#a6a6a6" stroke-width="1.5"/><path d="" fill="#a6a6a6" stroke-width="1.5"/><path d="" fill="#a6a6a6" stroke-width="1.5"/><path d="" fill="#a6a6a6" stroke-width="1.5"/></g></g></svg>