<svg version="1.1" xmlns="http://www.w3.org/2000/svg" xmlns:xlink="http://www.w3.org/1999/xlink" width="25.22916" height="16.29487" viewBox="0,0,25.22916,16.29487"><g transform="translate(-527.66667,-320.91666)"><g data-paper-data="{&quot;isPaintingLayer&quot;:true}" fill-rule="nonzero" stroke-linecap="butt" stroke-linejoin="miter" stroke-miterlimit="10" stroke-dasharray="" stroke-dashoffset="0" style="mix-blend-mode: normal"><path d="M542.68666,330.45766c0.44043,0.07947 0.88803,0.12983 1.33483,0.12825c0.22497,-0.0008 0.88371,0.0289 0.67305,-0.05005c-0.48473,-0.18166 -1.25482,-0.14549 -2.00788,-0.07819zM531.47048,331.12424c-0.10696,-0.07742 -0.20268,-0.19916 -0.26531,-0.38706c-0.23717,-0.71151 0.47434,-0.94868 0.47434,-0.94868l0.61387,-0.19495c3.12804,-0.51371 6.44658,-0.5102 9.6233,-0.5102c0.79058,0 2.37226,-0.2677 3.0705,0.03849c1.22054,0.53521 1.73338,1.48771 0.56643,2.6291c-0.06234,0.06097 -0.13431,0.11332 -0.21421,0.15799c0.40037,0.36053 0.48832,0.90742 -0.00938,1.73324c-0.02729,0.04528 -0.08134,0.08328 -0.15544,0.11516c1.15924,0.77904 1.62072,2.16769 -0.35406,2.9542c-1.00201,0.39908 -2.24035,-0.14092 -3.19064,-0.30453c-3.12556,-0.53812 -6.86109,-0.32365 -10.04653,-0.32365c0,0 -0.75,0 -0.75,-0.75c0,-0.1416 0.02673,-0.25646 0.0701,-0.34964c-0.04498,-0.0963 -0.0701,-0.20373 -0.0701,-0.31703c0,-0.17157 0.05761,-0.32969 0.15455,-0.45606l0.49545,-0.66061l0.26579,0.19934c0.36795,-0.381 0.79599,-0.67621 1.26724,-0.90264c-0.05461,-0.01195 -0.10901,-0.02423 -0.1632,-0.03684c-0.60053,-0.13979 -1.47965,0.044 -1.78288,-0.49286c-0.20884,-0.36975 0.09951,-0.80818 0.40018,-1.19276zM540.21786,334.91114c0.17712,0.00277 0.35449,0.00466 0.53214,0.00554c0.14807,0.00073 4.25634,0.43845 3.96606,0.01768c-0.16909,-0.2451 -0.57997,-0.13676 -0.8733,-0.18799c-1.22633,0.00483 -2.42996,0.0733 -3.6249,0.16478zM534.66617,333.85098c1.13964,-0.06207 2.26782,-0.16019 3.39636,-0.25912c-1.03794,-0.04713 -2.06034,-0.02988 -3.02572,0.14844c-0.11345,0.02096 -0.23822,0.06034 -0.37064,0.11068zM538.76276,331.56913c-1.10108,-0.15632 -2.21078,-0.30904 -3.3461,-0.31912c-0.49084,-0.00436 -1.08021,0.05649 -1.61553,0.15307c0.31693,0.07486 0.58705,0.17194 0.68289,0.18329c1.34401,0.15923 2.84103,0.13474 4.27875,-0.01724z" fill="#ffffff" stroke="#000000" stroke-width="1"/><path d="M528.41667,328.83333v-7.16667h19.83333v7.16667z" fill="#ffffff" stroke="#000000" stroke-width="1.5"/><path d="M532.02094,323.01832c-0.00724,-0.2499 0.24265,-0.25714 0.24265,-0.25714l0.01981,0.02646c0.55548,-0.30209 0.9949,-0.45584 1.57238,-0.64834c3.32115,-0.01985 6.56309,0.24396 9.76606,1.11746c0.32195,0.0878 0.91425,0.13851 1.20867,0.42326c0.94309,0.02644 1.82578,0.12944 2.56532,0.36703v-0.03598l0.25,0c0.13807,0 0.25,0.11193 0.25,0.25c0,0.12436 -0.0908,0.22751 -0.20972,0.24677l-0.32049,0.05805c-1.12837,0.32643 -2.22185,0.52312 -3.31657,0.64157c1.96073,0.3001 3.95238,0.23443 5.90829,0.56041c0.47766,0.07961 1.3535,0.0723 1.95003,0.2432c0.07949,0 0.15897,0 0.23846,0l0.5,0c0.13807,0 0.25,0.11193 0.25,0.25c0,0.13807 -0.11193,0.25 -0.25,0.25c-0.08333,0 -0.41667,0 -0.5,0c-0.15015,0 -0.30031,0 -0.45046,0c-0.80515,0.09164 -1.72517,0.07854 -2.67643,0.00296c-2.95758,0.01249 -5.91278,0.06294 -8.87061,0.12203c-1.51112,0.00005 -2.9468,0.00846 -4.39435,0.13661c1.89846,0.76069 3.82999,1.42146 5.83383,1.87254l0.0107,0.00783l0.00138,-0.00414l0.36953,0.12318c0.10216,0.03142 0.17641,0.12653 0.17641,0.23899c0,0.13807 -0.11193,0.25 -0.25,0.25h-0.25v-0.06211c-2.32633,0.47309 -6.71452,-1.17981 -8.9072,-1.51683c-0.66168,-0.1018 -1.28425,-0.1555 -1.95357,-0.16835l-0.26646,-0.00272c-0.13704,-0.0012 -0.24777,-0.11266 -0.24777,-0.24999c0,-0.13131 0.10123,-0.23897 0.2299,-0.2492l0.49541,-0.04504l0.0027,0.0297c0.82256,-0.27777 1.68822,-0.46687 2.57418,-0.59534c-0.28875,-0.12559 -0.57701,-0.25257 -0.86492,-0.38053c-0.26725,-0.11878 -0.78942,-0.33674 -1.1988,-0.63459c-0.20449,0 -0.40898,0 -0.61348,0c0,0 -0.25,0 -0.25,-0.25c0,-0.25 0.25,-0.25 0.25,-0.25c0.04411,0 0.08822,0 0.13233,0c-0.13326,-0.23982 -0.14404,-0.5088 0.06589,-0.80178c0.13747,-0.19185 1.29382,-0.07322 1.55178,-0.07322c1.79167,0 3.58333,0 5.375,0c0.25439,0 0.52558,-0.00775 0.81021,-0.02089c0.20678,-0.01891 0.416,-0.02994 0.62644,-0.0354c1.18395,-0.07699 2.53799,-0.21134 3.8608,-0.26192c-3.0874,-0.81948 -6.18505,-1.03758 -9.3824,-1.06002c-0.53508,0.17836 -0.89636,0.3126 -1.41355,0.59401l-0.24426,0.03411c0,0 -0.2499,0.00724 -0.25714,-0.24265zM531.85329,324.88608c2.47252,0 4.94503,0 7.41755,0c0.19681,0 0.39207,-0.00014 0.58597,-0.00067c-0.742,-0.12291 -1.48286,-0.21399 -2.20818,-0.2437l-0.25762,-0.00568c-0.10125,-0.00192 -0.18777,-0.06403 -0.22527,-0.15203c-1.92127,-0.08331 -5.65842,-0.29026 -5.31245,0.40208zM542.17786,325.34291c-0.94566,0.03945 -1.90717,0.04317 -2.90702,0.04317c-2.24526,0 -4.49053,0 -6.73579,0c0.11079,0.05617 0.23589,0.11535 0.37614,0.17769c0.54943,0.24419 1.1,0.48454 1.6527,0.71829c1.87735,-0.18283 3.80662,-0.14602 5.57946,-0.14596c1.81809,-0.03641 3.63519,-0.06945 5.45246,-0.09241c-0.92322,-0.16793 -1.77431,-0.34792 -2.4646,-0.49514c-0.31425,-0.06702 -0.63244,-0.13641 -0.95334,-0.20563zM532.94378,327.20778c1.50654,0.2306 2.97634,0.43262 4.4488,0.72437c-0.90257,-0.32269 -1.79517,-0.67501 -2.68161,-1.0453c-0.42809,0.05633 -0.85901,0.12527 -1.29495,0.20965c-0.13962,0.02702 -0.29992,0.06728 -0.47223,0.11129zM541.4151,324.67218c0.26853,0.05496 0.53598,0.11154 0.80172,0.16843c1.06697,-0.04658 2.11372,-0.14053 3.17473,-0.32953c-0.78849,0 -1.57699,0 -2.36548,0c-0.44649,0.053 -1.0119,0.11472 -1.61097,0.1611z" fill="#ececec" stroke="none" stroke-width="0.5"/></g></g></svg>