<svg version="1.1" xmlns="http://www.w3.org/2000/svg" xmlns:xlink="http://www.w3.org/1999/xlink" width="41.33334" height="61.14442" viewBox="0,0,41.33334,61.14442"><g transform="translate(-519.33333,-289.42779)"><g data-paper-data="{&quot;isPaintingLayer&quot;:true}" fill-rule="nonzero" stroke-linecap="butt" stroke-linejoin="miter" stroke-miterlimit="10" stroke-dasharray="" stroke-dashoffset="0" style="mix-blend-mode: normal"><path d="M558.16667,320c0,15.50385 -8.13349,28.07221 -18.16667,28.07221c-10.03317,0 -18.16667,-12.56835 -18.16667,-28.07221c0,-15.50385 8.13349,-28.07221 18.16667,-28.07221c10.03317,0 18.16667,12.56835 18.16667,28.07221z" fill="#00fff3" stroke="#0800ff" stroke-width="5"/><path d="M543.3114,313.54608c-0.72077,0.03075 -1.6255,-0.20014 -2.21714,-1.31984c-1.11803,-2.11588 1.11803,-3.17384 1.11803,-3.17384l3.70525,0.28603c0.69893,0.86721 1.68835,1.58179 2.09679,2.60163c0.36307,0.90656 -0.08311,1.95434 0.1092,2.90658c0.28836,1.42778 1.07458,2.7864 1.4712,4.18575c-0.17992,-3.92906 -1.00619,-7.83098 -2.57798,-11.69896c-1.4563,-3.58376 -6.42654,-4.0839 -7.23749,0.21009c-0.43645,2.31102 0.56982,4.96128 0.71289,7.26281c0.16011,2.57561 -0.04392,5.02994 0.29566,7.59807c0.06947,0.27261 1.27124,5.67774 2.39622,2.69091c0.33057,-0.87768 0.4622,-1.81397 0.77725,-2.69674c0.23705,-0.66421 0.8208,-1.23412 0.87517,-1.9333c0.0535,-0.68793 -1.59381,-4.57419 -1.63268,-4.77444c-0.13637,-0.70246 0.33987,-1.46009 0.1092,-2.14011c-0.00052,-0.00156 -0.00105,-0.0031 -0.00159,-0.00464zM549.61667,321.77718c-0.25044,0.72048 -0.6654,1.41099 -0.91731,2.13262c-0.41902,1.20036 -0.47654,2.56305 -1.22275,3.61162c-2.29818,3.22939 -4.72362,4.19914 -8.62956,1.95289c-1.94381,-1.11787 -2.48064,-4.37821 -2.97423,-6.20118c-0.36589,-2.77197 -0.19874,-5.40169 -0.37101,-8.17284c-0.17175,-2.76276 -1.24215,-5.72983 -0.62044,-8.50809c1.09898,-4.91108 6.54164,-8.49908 11.77776,-6.42562c3.8289,1.51621 4.71123,5.16969 5.73437,8.43564c2.54776,8.13268 2.92856,15.22293 0.72764,23.50262c-0.29234,2.13562 -0.3448,4.32414 -1.88714,6.1457c-0.71136,0.84016 -1.9336,1.13519 -2.88858,1.72029c-0.98098,0.60103 -1.79174,1.54555 -2.91883,1.83787c-2.85959,0.74165 -8.69571,0.22351 -11.09356,-1.74892c-2.19599,-1.80638 -3.36795,-5.73055 -4.33952,-8.17945c-0.24193,-0.60979 -1.95162,-4.18895 -2.07617,-4.63783c-0.76674,-2.7632 -0.05304,-5.48638 -0.40543,-8.24604c-0.45908,-3.5952 -0.72491,-5.90162 0.03362,-9.55378c0,0 0.49029,-2.31969 2.94174,-1.85575c2.45145,0.46394 1.96116,2.78363 1.96116,2.78363c-0.7192,3.33575 -0.3651,4.8219 0.03362,8.10964c0.2993,2.46797 -0.44068,5.08648 0.26124,7.52487c0.42328,1.47041 1.35889,2.76673 1.92383,4.19387c0.70308,1.77612 1.49317,4.90267 2.99381,6.32978c2.23254,2.12314 7.99334,0.50961 9.76569,-1.34495c0.48116,-0.50347 0.75217,-3.73189 0.77953,-3.94768c0.83188,-3.16687 1.31874,-6.32099 1.4105,-9.4589z" fill="#00bbb2" stroke="none" stroke-width="0.5"/></g></g></svg>