<svg version="1.1" xmlns="http://www.w3.org/2000/svg" xmlns:xlink="http://www.w3.org/1999/xlink" width="4990.29644" height="360.34989" viewBox="0,0,4990.29644,360.34989"><g transform="translate(3764.37555,-603.04129)"><g data-paper-data="{&quot;isPaintingLayer&quot;:true}" fill-rule="nonzero" stroke="#000000" stroke-linejoin="miter" stroke-miterlimit="10" stroke-dasharray="" stroke-dashoffset="0" style="mix-blend-mode: normal"><path d="" fill="#ffab67" stroke-width="2.5" stroke-linecap="butt"/><path d="" fill="#ffab67" stroke-width="2.5" stroke-linecap="butt"/><path d="" fill="#ffab67" stroke-width="2.5" stroke-linecap="butt"/><path d="" fill="#ffab67" stroke-width="2.5" stroke-linecap="butt"/><path d="" fill="#ffab67" stroke-width="1.5" stroke-linecap="butt"/><path d="" fill="#ffab67" stroke-width="1.5" stroke-linecap="butt"/><path d="" fill="#ffab67" stroke-width="1.5" stroke-linecap="butt"/><path d="" data-paper-data="{&quot;index&quot;:null}" fill="#ffab67" stroke-width="2" stroke-linecap="butt"/><path d="M-3763.62555,962.64115v-355.85586h3957.18229c-0.01888,0.0744 -0.03707,0.1496 -0.05456,0.2256c-4.80178,2.66042 -4.80178,8.79241 -4.80178,8.79241c0.10096,11.34233 3.77934,22.91915 6.30768,33.76113c3.02808,12.98494 6.05946,25.9691 9.08918,38.95365c2.41784,10.36219 5.61444,20.57175 7.27041,31.08263c2.04452,12.97712 2.90568,26.11321 4.36714,39.16886c3.70818,33.12643 7.41637,66.25286 11.12455,99.3793c0.86999,7.77191 1.57843,15.63251 2.31814,23.50298c-1.3635,13.96319 -2.6503,27.93631 -3.849,41.92108l-1.29198,15.07307c0,0 -0.85401,9.96347 9.10946,10.81748c3.25465,0.27897 5.53727,-0.59635 7.13561,-1.9016c1.14979,5.02642 2.29959,10.05285 3.44938,15.07927z" fill="#a6a6a6" stroke-width="1.5" stroke-linecap="butt"/><path d="M551.08814,861.12152c0.57766,-1.36971 1.1539,-2.74007 1.73052,-4.11025c-0.15239,4.61391 -0.27411,9.22582 -0.37131,13.83715c-0.4452,-3.24234 -0.90001,-6.4842 -1.35922,-9.7269z" fill="#a6a6a6" stroke-width="1.5" stroke-linecap="butt"/><path d="M969.36401,830.01616l1.25398,0.30627l1.21684,0.42511l30.19002,7.34521l19.39992,5.80921l1.42527,0.27948l1.39526,0.39785l24.68566,4.5045l2.36858,0.19798l2.36551,0.23021h3.0857l1.27986,-0.12456l2.31022,0.45501l6.15436,-2.49559l3.09981,-0.95987l0.68301,-0.57406l0.83305,-0.3378l2.26846,-2.26898l5.04591,-4.24103l0.61497,-2.21443l0.68685,-1.05836l0.6188,-1.20443l0.425,-0.47891l0.31315,-0.95783l0.1859,-0.36183l1.43603,-3.66855l0.29582,-1.83527l0.57878,-1.77027l0.40139,-3.90625v-0.40454l0.06662,-0.41328l5.04582,-1.96423c0.68526,0.64968 1.35366,1.31733 2.00124,2.00717c22.64239,24.12029 44.54559,48.98802 66.81224,73.45686c4.23167,4.65018 8.45004,9.3125 12.69273,13.95262c0.0445,5.8918 0.11544,11.53489 0.86116,19.71741c0.46875,5.14347 0.19245,9.2846 3.21106,14.25611c7.76439,12.78755 24.27436,15.72102 36.05123,8.80041c1.69239,4.31143 4.38433,7.9575 8.60354,10.30385c0.93634,0.52071 1.90888,0.99517 2.90868,1.4198h-268.98294c-0.65528,-1.61152 -1.20619,-3.25622 -1.57193,-4.95993c-1.27218,-5.92618 -0.20817,-12.1207 -0.35585,-18.1801c-0.16243,-6.66469 -0.38298,-13.32783 -0.57448,-19.99175c-0.9296,-32.34995 -1.96627,-64.7014 -2.96834,-97.05418z" fill="#a6a6a6" stroke-width="1.5" stroke-linecap="butt"/><path d="M857.88226,812.37043l3.3596,0.65879l0.1812,0.05611l0.20833,0.02027l0.20524,0.04025l0.19015,-0.00177l3.41011,0.33187h53.99988l0.34661,-0.03373l0.34742,0.02461l0.73588,-0.01936l6.68345,2.06956c1.07617,34.85738 2.20783,69.71315 3.20937,104.56682c0.06435,2.23949 1.11651,40.62561 1.36757,41.79514c0.0181,0.08433 0.11183,0.34684 0.27051,0.76216h-93.84416c-0.42648,-11.41314 -0.90146,-22.82662 -1.06714,-34.25843c-0.38418,-26.5085 -1.58201,-53.15675 -1.15994,-79.66297c0.2235,-14.03574 1.1889,-28.12876 2.06835,-42.18479z" fill="#a6a6a6" stroke-width="1.5" stroke-linecap="butt"/><path d="M1110.29781,810.47294h1.47229l0.63021,0.15576l1.02035,-0.15576h0.41568l4.01383,-0.39062l1.81902,-0.56327l1.88581,-0.28789l3.76958,-1.39754l0.3718,-0.18092l0.98421,-0.30476l0.4921,-0.41361l4.32331,-2.10372l1.05211,-0.64668c0.08129,10.76915 0.21738,21.53888 0.29719,32.30734c-7.79257,-8.60739 -15.63303,-17.16774 -23.58177,-25.61571z" fill="#a6a6a6" stroke-width="1.5" stroke-linecap="butt"/><path d="M1168.38622,867.30715c0.27067,3.17393 0.52848,6.34884 0.77379,9.52455c-2.4093,-2.6584 -4.81419,-5.32204 -7.21644,-7.989c2.27791,-0.25958 4.43404,-0.78182 6.44266,-1.53556z" fill="#a6a6a6" stroke-width="1.5" stroke-linecap="butt"/><path d="M-266.04273,962.64118c13.56064,-0.42463 26.75153,-0.89909 39.45157,-1.4198c209.29476,-8.58129 147.4981,-36.29877 146.99121,-48.12078c-0.70145,-16.35696 -13.26838,-32.88722 -51.6089,-49.05637c-8.37512,-3.53198 -29.14994,-4.55844 -39.45073,-8.12844c-19.17291,-6.64487 -7.84761,-13.05532 -14.50111,-19.71465c-25.59031,-25.61285 -66.89716,-45.26173 -61.85004,-68.53433c6.39148,-29.47129 20.83001,-59.32558 20.92631,-88.80044c0.07846,-24.027 0.74103,-48.05407 0.43497,-72.08105h419.20618c-0.01888,0.07439 -0.03707,0.14958 -0.05455,0.22557c-4.80178,2.66042 -4.80178,8.79241 -4.80178,8.79241c0.10096,11.34233 3.77934,22.91915 6.30768,33.76113c3.02808,12.98494 6.05946,25.9691 9.08918,38.95365c2.41784,10.36219 5.61444,20.57175 7.27041,31.08263c2.04452,12.97712 2.90568,26.11321 4.36714,39.16886c3.70818,33.12643 7.41637,66.25286 11.12455,99.3793c0.86999,7.77189 1.57843,15.63248 2.31814,23.50293c-1.3635,13.96321 -2.6503,27.93634 -3.849,41.92113l-1.29198,15.07307c0,0 -0.85401,9.96347 9.10946,10.81748c3.25466,0.27897 5.53728,-0.59635 7.13562,-1.90161c1.1498,5.02644 2.29959,10.05287 3.44939,15.07931z" fill="#a6a6a6" stroke-width="1.5" stroke-linecap="butt"/><path d="M551.08811,861.12151c0.57767,-1.36974 1.15392,-2.74012 1.73056,-4.11032c-0.1524,4.614 -0.27412,9.226 -0.37132,13.83741c-0.44521,-3.2424 -0.90003,-6.48433 -1.35924,-9.72709z" fill="#a6a6a6" stroke-width="1.5" stroke-linecap="butt"/><path d="M1218.35589,962.64118h-265.10237c-0.65529,-1.61153 -1.2062,-3.25623 -1.57194,-4.95996c-1.27218,-5.92618 -0.20817,-12.1207 -0.35585,-18.1801c-0.16243,-6.66469 -0.38298,-13.32783 -0.57448,-19.99175c-1.10489,-38.45004 -2.36103,-76.90221 -3.53056,-115.3562c1.35808,0.11527 2.71598,0.22322 4.07369,0.32189c18.69668,1.35876 37.48731,1.98647 56.20766,2.95993c6.89589,0.35859 13.78319,1.0963 20.68832,1.06319c11.28377,-0.0541 22.47743,-2.01766 33.71498,-3.03926c0,0 4.08118,-0.37102 6.78084,-3.25063c1.7157,1.42081 3.4314,2.84162 5.14709,4.26244c5.7489,4.76081 12.15384,8.82122 17.26251,14.26334c22.64239,24.12029 44.54559,48.98802 66.81224,73.45686c4.48694,4.9307 8.95893,9.87505 13.46082,14.79211c3.75816,4.10475 6.93707,8.84245 11.31918,12.27318c5.64002,4.41554 12.28631,7.36712 18.44321,11.02763c5.73038,3.40692 11.44376,6.84344 17.21853,10.17459c0.00204,0.00118 0.00408,0.00236 0.00613,0.00354z" fill="#a6a6a6" stroke-width="1.5" stroke-linecap="butt"/><path d="M838.55342,962.64118c-0.42648,-11.41315 -0.90146,-22.82664 -1.06714,-34.25846c-0.38418,-26.5085 -1.58201,-53.15675 -1.15994,-79.66297c0.26644,-16.73217 1.58721,-33.54573 2.55982,-50.28099c22.5014,0.46487 44.99939,1.00083 67.49244,2.04191c6.92138,0.32036 13.84286,0.9654 20.76209,1.67392c1.19428,39.31195 2.48929,78.62194 3.61881,117.92926c0.06435,2.23949 1.11651,40.62561 1.36757,41.79514c0.0181,0.08434 0.11184,0.34685 0.27052,0.76219z" fill="#a6a6a6" stroke-width="1.5" stroke-linecap="butt"/><path d="" fill="#a6a6a6" stroke-width="1.5" stroke-linecap="butt"/><path d="" fill="#a6a6a6" stroke-width="1.5" stroke-linecap="butt"/><path d="" fill="#a6a6a6" stroke-width="1.5" stroke-linecap="butt"/><path d="" fill="#a6a6a6" stroke-width="1.5" stroke-linecap="butt"/><path d="" fill="none" stroke-width="1.5" stroke-linecap="round"/><path d="" fill="none" stroke-width="1.5" stroke-linecap="round"/><path d="M-354.57207,919.10661v-315.31532h549.49477c-0.62269,0.86995 -1.12371,1.92939 -1.42051,3.2196c-4.80178,2.66042 -4.80178,8.79241 -4.80178,8.79241c0.10096,11.34233 3.77934,22.91915 6.30768,33.76113c3.02808,12.98494 6.05946,25.9691 9.08918,38.95365c2.41784,10.36219 5.61444,20.57175 7.27041,31.08263c2.04452,12.97712 2.90568,26.11321 4.36714,39.16886c3.70818,33.12643 7.41637,66.25286 11.12455,99.3793c2.23017,19.92282 3.39877,40.42851 6.75375,60.18899c0.04354,0.25646 0.08817,0.51271 0.13381,0.76875z" fill="#a6a6a6" stroke-width="1.5" stroke-linecap="butt"/><path d="M1100.38288,603.79129v315.31532h-1316.09458c-18.49036,-73.09389 -41.76197,-146.19544 -55.4418,-219.30262c-2.76124,-14.7565 3.16194,-29.66747 4.72584,-44.42656c1.82204,-17.19538 3.64416,-34.39076 5.4662,-51.58614z" fill="#a6a6a6" stroke-width="1.5" stroke-linecap="butt"/></g></g></svg>