<svg version="1.1" xmlns="http://www.w3.org/2000/svg" xmlns:xlink="http://www.w3.org/1999/xlink" width="107.49998" height="102.5972" viewBox="0,0,107.49998,102.5972"><defs><linearGradient x1="538.32934" y1="271.50458" x2="535.60383" y2="318.38916" gradientUnits="userSpaceOnUse" id="color-1"><stop offset="0" stop-color="#000000"/><stop offset="1" stop-color="#000000"/></linearGradient><linearGradient x1="526.48369" y1="313.54468" x2="526.30386" y2="316.63802" gradientUnits="userSpaceOnUse" id="color-2"><stop offset="0" stop-color="#a5a5a5"/><stop offset="1" stop-color="#6e6e6e"/></linearGradient><linearGradient x1="531.10061" y1="312.22749" x2="530.8302" y2="316.87902" gradientUnits="userSpaceOnUse" id="color-3"><stop offset="0" stop-color="#a5a5a5"/><stop offset="1" stop-color="#6e6e6e"/></linearGradient><linearGradient x1="536.16539" y1="311.19274" x2="535.84224" y2="316.75165" gradientUnits="userSpaceOnUse" id="color-4"><stop offset="0" stop-color="#a5a5a5"/><stop offset="1" stop-color="#6e6e6e"/></linearGradient><linearGradient x1="541.14633" y1="310.57395" x2="540.82476" y2="316.10556" gradientUnits="userSpaceOnUse" id="color-5"><stop offset="0" stop-color="#a5a5a5"/><stop offset="1" stop-color="#6e6e6e"/></linearGradient><linearGradient x1="545.93156" y1="310.50555" x2="545.63991" y2="315.52255" gradientUnits="userSpaceOnUse" id="color-6"><stop offset="0" stop-color="#a5a5a5"/><stop offset="1" stop-color="#6e6e6e"/></linearGradient><linearGradient x1="549.86111" y1="310.3299" x2="549.58033" y2="315.1595" gradientUnits="userSpaceOnUse" id="color-7"><stop offset="0" stop-color="#a5a5a5"/><stop offset="1" stop-color="#6e6e6e"/></linearGradient><linearGradient x1="553.58201" y1="309.91802" x2="553.30294" y2="314.71861" gradientUnits="userSpaceOnUse" id="color-8"><stop offset="0" stop-color="#a5a5a5"/><stop offset="1" stop-color="#6e6e6e"/></linearGradient><linearGradient x1="553.5444" y1="306.52539" x2="553.41415" y2="308.76602" gradientUnits="userSpaceOnUse" id="color-9"><stop offset="0" stop-color="#a5a5a5"/><stop offset="1" stop-color="#6e6e6e"/></linearGradient><linearGradient x1="549.64424" y1="306.70845" x2="549.48797" y2="309.39674" gradientUnits="userSpaceOnUse" id="color-10"><stop offset="0" stop-color="#a5a5a5"/><stop offset="1" stop-color="#6e6e6e"/></linearGradient><linearGradient x1="545.36617" y1="307.03208" x2="545.21805" y2="309.57986" gradientUnits="userSpaceOnUse" id="color-11"><stop offset="0" stop-color="#a5a5a5"/><stop offset="1" stop-color="#6e6e6e"/></linearGradient><linearGradient x1="541.20562" y1="307.05984" x2="541.03457" y2="310.00231" gradientUnits="userSpaceOnUse" id="color-12"><stop offset="0" stop-color="#a5a5a5"/><stop offset="1" stop-color="#6e6e6e"/></linearGradient><linearGradient x1="536.37428" y1="307.47916" x2="536.18896" y2="310.66711" gradientUnits="userSpaceOnUse" id="color-13"><stop offset="0" stop-color="#a5a5a5"/><stop offset="1" stop-color="#6e6e6e"/></linearGradient><linearGradient x1="531.1939" y1="307.80698" x2="530.94951" y2="312.01083" gradientUnits="userSpaceOnUse" id="color-14"><stop offset="0" stop-color="#a5a5a5"/><stop offset="1" stop-color="#6e6e6e"/></linearGradient><linearGradient x1="526.33489" y1="308.68594" x2="526.07821" y2="313.10144" gradientUnits="userSpaceOnUse" id="color-15"><stop offset="0" stop-color="#a5a5a5"/><stop offset="1" stop-color="#6e6e6e"/></linearGradient><linearGradient x1="538.2646" y1="272.70767" x2="536.76968" y2="298.4233" gradientUnits="userSpaceOnUse" id="color-16"><stop offset="0" stop-color="#a5a5a5"/><stop offset="1" stop-color="#6e6e6e"/></linearGradient><linearGradient x1="524.52839" y1="301.5949" x2="555.26979" y2="303.38198" gradientUnits="userSpaceOnUse" id="color-17"><stop offset="0" stop-color="#006aff"/><stop offset="1" stop-color="#00a8ff"/></linearGradient></defs><g transform="translate(-486.25001,-269.90876)"><g data-paper-data="{&quot;isPaintingLayer&quot;:true}" fill-rule="nonzero" stroke-linejoin="miter" stroke-miterlimit="10" stroke-dasharray="" stroke-dashoffset="0" style="mix-blend-mode: normal"><path d="M536.29011,319.73081l0.91168,48.77515" fill="none" stroke="#000000" stroke-width="8" stroke-linecap="round"/><path d="M533.32713,320.41459l-41.02583,0.45584l-0.22792,-46.72386l91.39641,-0.22792l0.45584,44.21671" fill="none" stroke="#000000" stroke-width="8" stroke-linecap="round"/><path d="M531.27584,319.50289l49.23099,-0.68376" fill="none" stroke="#000000" stroke-width="8" stroke-linecap="round"/><path d="M490.25001,319.50289v-45.1284h99.49998v45.1284z" fill="#9966ff" stroke="#000000" stroke-width="8" stroke-linecap="butt"/><path d="M533.90134,300.21345c0.15504,0.05739 0.27971,0.11711 0.35245,0.17085c0.77424,0.57208 1.11643,2.00214 0.79864,2.84776c-0.10154,0.27017 -0.42013,0.3958 -0.63021,0.59371c-0.16051,0.56783 -0.30333,1.33175 -0.87163,1.66999c-0.30812,0.18339 -0.71677,0.0337 -1.07532,0.02935c-1.04346,-0.01269 -2.05056,-0.14978 -2.38721,-1.32586c-0.08506,-0.29716 0.0144,-0.61807 0.02748,-0.92689c0.05539,-1.30717 0.21372,-2.19143 0.79597,-3.35566c0.12509,-0.25011 0.13463,-0.5964 0.27536,-0.82629c-0.33951,0.00604 -0.68235,0.00541 -1.04252,-0.00648c-1.80219,-0.05945 -3.58711,-0.0235 -5.39375,-0.12587c-0.00995,0.17103 -0.01981,0.34068 -0.02956,0.50859c-0.04871,0.838 -0.19756,1.71966 -0.1516,2.55643c0.09431,1.71738 -0.00655,3.39059 -0.107,5.11852c-0.02377,0.37433 -0.00329,0.66694 0.04089,0.93361c0.05661,-0.01932 0.0956,-0.02564 0.0956,-0.02564c0.77851,-0.12597 1.53991,-0.36519 2.32532,-0.43636c1.09099,-0.09884 2.20945,0.05332 3.30817,-0.16766c2.40112,-0.48291 4.81809,-1.03346 7.29566,-1.09413c0.40348,-0.00988 0.80529,0.08305 1.20872,0.07104c0.83118,-0.02472 1.69066,-0.33052 2.52088,-0.41214c1.03273,-0.10153 2.02008,-0.0114 3.03606,-0.20197c1.39954,0.07352 2.75286,0.12113 4.13789,0.05137c0.56987,-0.02869 1.11958,-0.24756 1.6895,-0.27529c0.27754,-0.01351 0.55774,0.12244 0.83064,0.07008c0.22101,-0.0424 0.36098,-0.3017 0.58252,-0.34125c0.79698,-0.14231 1.97451,0.09161 2.78535,0.16191l0.45133,0.31895c0.11394,-0.41364 0.24196,-0.82447 0.31274,-1.24692c0.41309,-2.46546 0.30674,-5.04037 0.31968,-7.56888l-0.01838,0.00946c-1.20737,-0.07019 -2.48054,-0.26743 -3.68789,-0.21649c-1.56782,0.06615 -3.13153,0.37451 -4.6922,0.47496c-0.84049,0.05409 -1.69954,-0.20545 -2.54101,-0.11346c-0.63094,0.06897 -1.23884,0.27809 -1.8627,0.39491c-0.67511,0.22399 -1.39573,0.27684 -2.08783,0.44101c-0.28775,0.06826 -0.5279,0.28894 -0.81897,0.3412c-0.31651,0.05683 -1.44371,-0.12123 -1.7623,-0.08313c-0.40753,0.04876 -0.78658,0.25793 -1.19527,0.29581c-0.40554,0.03761 -0.81417,-0.10945 -1.21971,-0.0719c-0.65516,0.06066 -1.22038,0.52618 -1.86961,0.63305c-0.21805,0.0359 -0.43963,-0.00078 -0.6613,-0.02648c0.43165,0.28353 0.77788,0.72087 0.91515,1.15618zM530.18716,297.85661c0.83984,0.02692 1.56007,-0.01328 2.39456,-0.04552c0.28504,-0.01102 0.5717,0.1078 0.85343,0.06307c0.67802,-0.10766 1.27328,-0.57208 1.95589,-0.64506c0.40912,-0.04375 0.82265,0.10865 1.23235,0.07065c0.40655,-0.0377 0.78302,-0.24985 1.18878,-0.29518c0.5541,-0.06189 1.12332,0.20583 1.66988,0.09574c0.2574,-0.05185 0.46452,-0.25871 0.71993,-0.31957c0.6926,-0.16502 1.415,-0.21443 2.0898,-0.44151c0.68616,-0.13094 1.35668,-0.35502 2.05134,-0.42858c0.86289,-0.09137 1.72675,0.16891 2.5827,0.11006c1.57535,-0.1083 3.15748,-0.412 4.74117,-0.47714c1.23055,-0.0506 2.52316,0.14235 3.75458,0.21614c0.00001,-0.00034 0.00003,-0.00067 0.00004,-0.00101l-0.21148,-0.01866c0,0 0.08555,-0.07615 0.21563,-0.12572c0.00949,-0.30954 0.02255,-0.61796 0.04039,-0.92493c0,0 0.02745,-0.47194 0.44827,-0.56358c0.10086,-0.24496 0.24426,-0.45802 0.55854,-0.75064c0.14024,-0.13059 0.39418,-0.11236 0.51022,-0.26484c0.12489,-0.16414 0.06694,-0.41121 0.14838,-0.60071c0.26263,-0.61107 0.79403,-1.09307 1.00468,-1.72395c0.09298,-0.27848 0.0029,-0.58953 0.04967,-0.87935c0.08891,-0.55105 0.20033,-1.09846 0.28167,-1.65069c0.11664,-0.79187 0.27256,-1.58051 0.32433,-2.37925c0.00821,-0.1268 0.16079,-1.42631 -0.00874,-1.76349c-0.10813,-0.21505 -0.36353,-0.32494 -0.49217,-0.52839c-0.14157,-0.22389 -0.14589,-0.5223 -0.30572,-0.73356c-0.1687,-0.22298 -0.45032,-0.33441 -0.65022,-0.52991c-0.41866,-0.40946 -0.82995,-0.8485 -1.34016,-1.13594c-0.56299,-0.4245 -1.22518,-0.92446 -1.88515,-1.18516c-0.79137,-0.31259 -1.65893,-0.51167 -2.42146,-0.90454c-0.32351,-0.16668 -0.57891,-0.44768 -0.90205,-0.61512c-0.77689,-0.40256 -1.71451,-0.55928 -2.52187,-0.8777c-0.66254,-0.2613 -1.20578,-0.76743 -1.8551,-1.06003c-0.53281,-0.24009 -1.16073,-0.22579 -1.68519,-0.48359c-0.20893,-0.10269 -0.35338,-0.30999 -0.5598,-0.41763c-0.60861,-0.31739 -1.31811,-0.39091 -1.95492,-0.64707c-1.02421,-0.41198 -2.01908,-1.15439 -2.97729,-1.70521c-0.08447,-0.04909 -0.91517,-0.58298 -1.15085,-0.56605c-0.89691,0.0644 -1.54832,0.96644 -2.10493,1.54255c-0.31417,0.32519 -0.74777,0.60318 -0.87408,1.03735c-0.21526,0.73994 -0.08141,1.85441 -0.12638,2.62782c-0.05063,0.871 -0.32221,2.01841 -0.17818,2.87429c0.27176,1.61495 0.8526,3.08112 2.09064,4.06055c0.26674,0.11166 0.53483,0.2202 0.80315,0.32774c0.25844,0.10358 0.57186,0.08989 0.79492,0.25653c0.35189,0.26285 0.95289,0.55668 0.87148,0.98828c-0.40348,2.13909 -2.17989,0.31751 -2.65012,-0.21775c-0.22515,-0.12943 -0.4363,-0.27251 -0.63414,-0.42771c-0.62529,-0.29735 -1.21497,-0.6742 -1.86239,-0.91931c-0.42928,-0.16253 -0.91706,-0.04386 -1.37503,-0.07486c-0.32676,-0.02212 -0.65822,-0.13555 -0.97978,-0.07341c-0.37696,0.07286 -0.68824,0.34698 -1.05314,0.46636c-0.51085,0.16714 -1.07842,0.03341 -1.60732,0.12922c-0.65243,0.11819 -1.19387,0.58614 -1.82259,0.79675c-1.53356,0.51373 -3.00125,0.901 -4.64521,1.07344c-1.40696,0.43679 -2.65331,0.61506 -4.12892,0.5312c-0.93909,-0.05337 -1.69649,0.07644 -2.40835,-0.51513c-0.13315,-0.11065 -0.05785,0.35475 -0.00417,0.51935c0.13575,0.41616 0.42752,0.77259 0.7202,1.09809c0.49635,0.55202 1.08107,1.03977 1.47348,1.66992c0.32009,0.51402 0.60251,1.05139 0.87215,1.59361c0.19533,0.39279 0.22848,0.90097 0.55596,1.19285c0.17873,0.15928 0.43036,0.21208 0.63209,0.34099c0.67986,0.43446 1.31079,0.94204 2.00408,1.36279c0.43551,0.01353 0.87079,0.03449 1.30579,0.05947c0.01547,-0.29405 0.0317,-0.58824 0.04881,-0.88257l0.01086,-0.18693c0,0 0.03563,-0.613 0.64865,-0.57737c0.61302,0.03563 0.57738,0.64865 0.57738,0.64865c-0.06869,1.18173 -0.14238,2.44922 -0.21429,3.68629c1.79787,0.10186 3.57156,0.06706 5.36535,0.12454zM556.20759,309.54972c-0.03563,0.61302 -0.64865,0.57738 -0.64865,0.57738l-0.0108,-0.00063c-0.13873,1.03856 -0.24329,2.04678 -0.30559,3.11835c-0.02268,0.29587 0.02772,0.60675 -0.06805,0.88759c-0.58581,1.71791 -2.17889,1.63917 -3.65076,1.91674c-0.37501,0.07072 -0.71664,0.28424 -1.09496,0.33437c-1.18338,0.1568 -2.50537,-0.11002 -3.69671,-0.02269c-0.40404,0.02962 -0.78639,0.21032 -1.18972,0.24833c-1.21532,0.11455 -2.4237,0.12763 -3.64836,0.27848c-0.75173,0.0926 -1.75422,0.01932 -2.43788,0.31484c-0.30435,0.13157 -0.51377,0.46641 -0.83796,0.53597c-0.77206,0.16567 -2.3653,-0.05814 -3.20676,0.01364c-1.12508,0.07485 -2.21994,0.36376 -3.34458,0.38579c-1.30988,0.02564 -2.66082,-0.15314 -3.96888,-0.22918c-0.79116,-0.04599 -1.90412,0.06422 -2.57889,-0.44978c-0.74954,-0.57095 -0.9704,-2.19177 -1.22731,-3.00592c-0.38891,-1.23244 -0.49807,-2.43807 -0.65145,-3.71844c-0.035,-0.29218 0.05953,-0.59245 0.01128,-0.88274c-0.17601,-1.05872 -0.47518,-1.66178 -0.41521,-2.78149c0.20945,-3.60298 0.28676,-7.19303 0.45358,-10.7997c-0.53245,-0.03124 -1.06457,-0.06848 -1.59638,-0.10925c-0.82443,-0.45659 -1.54895,-0.99794 -2.33005,-1.51501c-0.26601,-0.17608 -0.59062,-0.27185 -0.81989,-0.49367c-0.36446,-0.3526 -0.57201,-1.07723 -0.78732,-1.51108c-0.39843,-0.80284 -0.84331,-1.71966 -1.44524,-2.38935c-0.7782,-0.86582 -2.49544,-2.1895 -1.59079,-3.63779c0.23059,-0.36916 0.70882,-0.58916 1.14183,-0.6336c0.27897,-0.02862 0.45045,0.35053 0.71518,0.44309c0.53324,0.18645 1.12926,0.03847 1.69316,0.07204c1.3744,0.08177 2.49725,-0.1015 3.809,-0.50782c1.02474,-0.11259 2.13208,-0.15543 3.10826,-0.52798c1.06925,-0.40806 2.26039,-1.12749 3.39586,-1.34915c0.47752,-0.09323 0.99623,0.06438 1.45667,-0.09285c0.41151,-0.14052 0.77587,-0.42542 1.2038,-0.50273c0.46084,-0.08326 2.04144,-0.02557 2.74379,0.13282c-0.40402,-0.83041 -0.66126,-1.75 -0.80758,-2.68142c-0.14855,-0.94553 0.11384,-2.14918 0.16955,-3.10742c0.05111,-0.87916 -0.07176,-2.14793 0.19963,-2.98004c0.08996,-0.27586 0.32454,-0.48165 0.503,-0.71045c0.85577,-1.09717 2.0908,-2.60958 3.61687,-2.674c0.5947,-0.0251 1.29274,0.45486 1.77481,0.72938c0.90757,0.52172 1.85891,1.24891 2.83055,1.63339c0.68518,0.27113 1.43609,0.37833 2.09229,0.71357c0.19349,0.09884 0.32462,0.29681 0.5183,0.39529c0.50494,0.25675 1.11897,0.22837 1.63604,0.45971c0.62385,0.27911 1.13722,0.78043 1.7748,1.02659c0.84587,0.32658 1.81167,0.50403 2.62519,0.92198c0.32371,0.16632 0.57871,0.44807 0.90205,0.61512c0.73865,0.38163 1.58655,0.56502 2.35173,0.87342c0.73416,0.2959 1.46743,0.82244 2.09687,1.29705c0.80554,0.47114 1.72899,1.21274 2.3003,1.95965c0.17824,0.23302 0.19901,0.55689 0.35505,0.80534c0.15371,0.24475 0.44779,0.39384 0.56421,0.65839c0.31492,0.71572 0.17166,1.64291 0.12605,2.37066c-0.08897,1.41947 -0.38774,2.76341 -0.61986,4.15146c-0.05729,0.34258 0.02437,0.70937 -0.08687,1.03842c-0.25793,0.76295 -0.73983,1.16607 -1.05407,1.85746c-0.12789,0.28138 -0.12706,0.62567 -0.31241,0.87299c-0.15525,0.20717 -0.4569,0.25076 -0.65481,0.41767c-0.3213,0.27095 -0.34435,0.61545 -0.45905,1.00048c0,0 -0.0485,0.15518 -0.17547,0.28087c-0.10466,3.03634 0.13692,6.17179 -0.35827,9.16509c-0.11335,0.68522 -0.38244,1.33884 -0.49193,2.02469c-0.11227,0.70331 -0.05744,1.43323 -0.10388,2.14742c0.16016,0.03111 0.53476,0.15569 0.50668,0.63868zM552.87159,309.95978c-0.00445,0.00073 -0.00888,0.00148 -0.0133,0.00224c0.03643,1.03861 0.01584,2.08124 -0.0458,3.14155c-0.01449,0.24924 -0.06159,1.05927 -0.07607,1.3085l-0.01588,0.27308c0.58702,-0.10297 1.12447,-0.32448 1.2771,-0.90375c0.05165,-0.19602 0.01259,-0.40523 0.01889,-0.60783c0.06276,-1.07981 0.16549,-2.10251 0.30527,-3.15084c-0.49599,-0.06335 -1.02702,-0.13206 -1.45019,-0.06293zM551.17099,310.6058c-1.00429,0.1849 -2.14127,-0.17752 -3.17694,-0.19171c0.01557,0.28037 0.0299,0.55953 0.04499,0.83633c0.02784,0.51052 0.37114,0.95897 0.46588,1.46141c0.15643,0.8297 -0.09421,1.12624 0.36628,1.88458l0.06374,0.4697c0.44925,0.03128 0.89992,0.16219 1.34451,0.09844c0.34931,-0.05009 0.66222,-0.25496 1.00893,-0.32073c0.06007,-0.0114 0.12523,-0.0209 0.19447,-0.02921c0.01823,-0.3136 0.05792,-0.99638 0.071,-1.22153l0.03261,-0.56079c0.05052,-0.86886 0.07295,-1.72484 0.05708,-2.57653c-0.15324,0.06546 -0.30951,0.12004 -0.47254,0.15006zM546.03557,310.69424c-0.73234,0.04996 -1.45865,0.05735 -2.18835,0.04042c-0.02289,1.23498 -0.04348,2.46957 -0.11597,3.71659l-0.04347,0.74772c0,0 -0.00558,0.09607 -0.05037,0.20995c0.19613,-0.01861 0.39179,-0.03373 0.58663,-0.04417c1.17549,-0.06303 2.33143,-0.15676 3.49483,-0.23949c-0.00291,-0.04134 -0.00141,-0.06715 -0.00141,-0.06715l0.03817,0.06455c0.00092,-0.00007 0.00185,-0.00013 0.00276,-0.0002c-0.25875,-0.4698 -0.47183,-0.98537 -0.51454,-1.51722c-0.01823,-0.22695 0.0939,-0.4574 0.05144,-0.6811c-0.10356,-0.54554 -0.43962,-1.04097 -0.48183,-1.59465c-0.01894,-0.24855 -0.03425,-0.4994 -0.0486,-0.75148c-0.24166,0.05153 -0.48373,0.09947 -0.72932,0.11623zM542.21097,310.66407c-0.54768,-0.03349 -1.10916,-0.10407 -1.65223,0.04841c-0.21355,0.05995 -0.36106,0.27311 -0.57315,0.33809c-0.18618,0.05705 -0.37536,0.10435 -0.56646,0.14372c-0.0933,1.60505 -0.1866,3.21009 -0.27991,4.81514c0.60282,-0.20886 1.27451,-0.1699 1.91001,-0.25507c0.50315,-0.06745 1.01328,-0.1471 1.52441,-0.21789c-0.12491,-0.18501 -0.1119,-0.40879 -0.1119,-0.40879l0.04347,-0.74772c0.07202,-1.23909 0.09278,-2.46595 0.11552,-3.69324c-0.13627,-0.00711 -0.27284,-0.0147 -0.40977,-0.02266zM538.11938,311.35941c-0.22718,0.01497 -0.4575,-0.09444 -0.68108,-0.05144c-0.2741,0.0527 -0.49297,0.29197 -0.76944,0.33038c-0.67105,0.09327 -1.3842,-0.13568 -2.03148,0.0644c-0.17691,0.05469 -0.34492,0.13329 -0.51194,0.21467c-0.07437,1.27934 -0.14875,2.55869 -0.22311,3.83803l-0.01065,0.18311c0.21432,0.10596 0.35578,0.33264 0.34103,0.58634c-0.00269,0.0462 -0.01041,0.09091 -0.02261,0.13362c0.36827,-0.0557 0.73734,-0.10564 1.10856,-0.13101c0.64784,-0.05364 1.30084,-0.11517 1.94905,-0.06615c0.20222,0.01528 0.4068,0.07123 0.60934,0.09881c0.09281,-1.59667 0.19886,-3.42074 0.30257,-5.20488c-0.02009,0.00141 -0.04017,0.00277 -0.06023,0.0041zM530.09091,312.74211c-0.45453,0.10398 -0.86812,0.33548 -1.29569,0.52633c-0.06671,1.1474 -0.1334,2.29478 -0.20009,3.44217c0.00049,0.00003 0.00098,0.00007 0.00147,0.00011l0.01739,-0.19715c0,0 0.07297,0.08198 0.12256,0.20748c1.10036,0.08303 2.22159,0.20696 3.31479,0.18883c0.35253,-0.00585 0.70333,-0.03987 1.0536,-0.08579c-0.03104,-0.04765 -0.05563,-0.09978 -0.07255,-0.15508c-0.0129,-0.00448 -0.02534,-0.00928 -0.03737,-0.0144c-0.36607,-0.15573 -0.34044,-0.59658 -0.34044,-0.59658c0.06564,-1.12932 0.1437,-2.47187 0.21541,-3.70558c-0.91473,0.18234 -1.87998,0.18397 -2.77906,0.38965zM525.86806,314.00423c0,0 -0.23793,0.05326 -0.44751,-0.05726c0.01322,0.04435 0.02696,0.08867 0.04124,0.13299c0.15608,0.48414 0.46433,1.53725 0.65738,2.06206c0.04511,0.12261 0.05912,0.27841 0.16439,0.3558c0.22359,0.16442 0.66428,0.1927 1.08324,0.1917l-0.00057,-0.00111c0.05928,-1.01986 0.11858,-2.03973 0.17786,-3.0596c-0.70223,0.15766 -1.63751,0.36679 -1.67604,0.3754zM525.59976,312.80579c0.67049,-0.1501 1.35338,-0.25342 2.01711,-0.42893c0.06496,-1.1175 0.12994,-2.235 0.1949,-3.35249c0,0 0.00614,-0.10573 0.05723,-0.2268c-0.28374,0.00463 -0.5665,0.01487 -0.84757,0.03991c-0.75243,0.0671 -1.48049,0.30345 -2.22617,0.42441c0,0 -0.00288,0.00048 -0.00825,0.00113c0.02725,0.12229 0.05349,0.25325 0.07746,0.39628c0.19175,1.14402 0.16457,2.27263 0.35205,3.39293c0.1421,-0.19247 0.38324,-0.24644 0.38324,-0.24644zM529.77562,311.55518c1.01787,-0.23813 2.15108,-0.19417 3.16832,-0.47896c0.06238,-1.13858 0.06738,-2.09385 0.42497,-3.1219c-0.58544,0.0925 -1.15856,0.20202 -1.70448,0.32887c-0.40476,0.09403 -0.78387,0.28574 -1.19144,0.36669c-0.49534,0.09838 -0.99419,0.12786 -1.49276,0.13778c0.06634,0.15665 0.05756,0.308 0.05756,0.308c-0.05423,0.93274 -0.10845,1.86548 -0.16267,2.79822c0.29293,-0.1359 0.58764,-0.26548 0.90051,-0.33868zM534.30246,310.5212c0.69013,-0.20055 1.44247,0.00828 2.15406,-0.09245c0.27637,-0.03912 0.49504,-0.2793 0.76946,-0.33038c0.33283,-0.06196 0.68019,-0.06276 1.03048,-0.06487c0.04843,-0.83302 0.09544,-1.64182 0.13937,-2.39748c-0.27935,-0.02268 -0.55851,-0.06338 -0.83833,-0.05683c-0.9001,0.0211 -1.8598,0.08442 -2.81729,0.19115c-0.01619,0.11381 -0.05384,0.19406 -0.05384,0.19406c-0.4169,0.86086 -0.45746,1.68593 -0.49183,2.59147c0.03565,-0.01248 0.07159,-0.02409 0.10794,-0.03465zM539.58227,309.89058c0.21777,-0.06844 0.37104,-0.28672 0.59189,-0.34443c0.8543,-0.22322 1.30759,-0.15255 2.10807,-0.10812c0.12167,0.00708 0.24294,0.01382 0.36388,0.02015c0.01775,-0.72827 0.04243,-1.45819 0.0851,-2.19237c0,0 0.00224,-0.03847 0.01524,-0.0956c-0.4501,0.01049 -0.90238,0.01623 -1.36281,0.06173c-0.58424,0.05774 -1.17398,0.21647 -1.76218,0.32126c0.00603,0.05712 0.00385,0.09473 0.00385,0.09473c-0.04397,0.75622 -0.08793,1.51245 -0.13189,2.26867c0.0297,-0.0081 0.05932,-0.01676 0.08884,-0.02604zM545.9565,309.46868c0.24748,-0.01594 0.49153,-0.06324 0.73508,-0.11458c-0.04197,-0.58046 -0.10185,-1.15843 -0.21212,-1.7212c0,0 -0.05525,-0.29212 0.1144,-0.50827c-0.73594,-0.00869 -1.4733,-0.0421 -2.2211,-0.0907c-0.14947,0.02851 -0.29839,0.05067 -0.44698,0.06811c0.03775,0.12756 0.03149,0.23507 0.03149,0.23507c-0.04221,0.7261 -0.0668,1.44809 -0.08452,2.1685c0.69387,0.0154 1.38407,0.00813 2.08376,-0.03692zM550.95867,309.39619c0.21866,-0.04289 0.42622,-0.12607 0.63077,-0.21975c-0.0523,-0.78136 -0.14135,-1.56274 -0.27509,-2.35085c-0.02425,0.0102 -0.04934,0.01812 -0.07559,0.02301c-0.34057,0.06359 -0.69274,-0.05812 -1.03863,-0.03859c-0.57936,0.03268 -1.13928,0.2451 -1.71868,0.27681c-0.30917,0.01693 -0.61724,0.02812 -0.92486,0.03426c0.10158,0.13555 0.12958,0.2836 0.12958,0.2836c0.10721,0.58427 0.17606,1.18246 0.226,1.78304c0.98451,0.01458 2.11005,0.39215 3.04651,0.20846zM554.53595,307.06501c-0.15175,-0.036 -0.25877,-0.11669 -0.25877,-0.11669l-0.38111,-0.32037c-0.40376,-0.00483 -0.92139,-0.10638 -1.39421,-0.14192c0.13187,0.75246 0.22506,1.49917 0.28547,2.24522c0.50851,-0.06444 1.12704,0.0177 1.69241,0.08197c0.04358,-0.57883 0.01477,-1.16887 0.05621,-1.74821z" fill="url(#color-1)" stroke="none" stroke-width="0.5" stroke-linecap="butt"/><path d="M527.54002,313.60609c-0.05928,1.01986 -0.11972,2.05996 -0.17899,3.07983l0.00057,0.00111c-0.41894,0.00101 -0.86708,-0.02556 -1.09068,-0.18998c-0.10526,-0.07739 -0.12149,-0.2336 -0.1666,-0.35621c-0.19304,-0.52481 -0.50634,-1.59878 -0.66242,-2.08291c-0.01428,-0.04432 -0.02766,-0.08897 -0.04088,-0.13331c0.20958,0.11052 0.45007,0.05558 0.45007,0.05558c0.03852,-0.00863 0.98669,-0.21643 1.68892,-0.3741z" data-paper-data="{&quot;noHover&quot;:false,&quot;origItem&quot;:[&quot;Path&quot;,{&quot;applyMatrix&quot;:true,&quot;segments&quot;:[[[180.08165,240.08671],[0.15452,-0.04415],[0,0]],[[178.24927,239.9597],[0.8779,0.39971],[0.0642,0.1771]],[[178.44835,240.49051],[-0.06855,-0.17676],[0.74876,1.93087]],[[181.6074,248.71629],[-0.90864,-2.08744],[0.2123,0.48771]],[[182.35962,250.12362],[-0.4461,-0.2897],[0.94765,0.61542]],[[186.80769,250.64684],[-1.70258,0.10309],[0,0]],[[186.80512,250.6425],[0,0],[0,-4.15921]],[[186.80512,238.16486],[0,4.15921],[-2.81697,0.80675]]],&quot;closed&quot;:true}]}" fill="url(#color-2)" stroke="none" stroke-width="0.5" stroke-linecap="butt"/><path d="M532.86637,312.33013c-0.07171,1.23372 -0.14856,2.59375 -0.21422,3.72307c0,0 -0.02627,0.44152 0.3398,0.59725c0.01203,0.00512 0.02453,0.00989 0.03742,0.01437c0.01694,0.05532 0.04134,0.1076 0.07239,0.15524c-0.35026,0.04593 -0.70439,0.08217 -1.05691,0.08801c-1.0932,0.01812 -2.22839,-0.10847 -3.32875,-0.19149c-0.04958,-0.12549 -0.12319,-0.20819 -0.12319,-0.20819l0.00122,0.18112c-0.00049,-0.00003 -0.01924,0.01637 -0.01973,0.01633c0.06671,-1.1474 0.13199,-2.30929 0.19868,-3.45667c0.42757,-0.19086 0.84634,-0.42713 1.30087,-0.5311c0.89909,-0.20567 1.87768,-0.20562 2.79242,-0.38794z" data-paper-data="{&quot;noHover&quot;:false,&quot;origItem&quot;:[&quot;Path&quot;,{&quot;applyMatrix&quot;:true,&quot;segments&quot;:[[[196.94703,233.95916],[3.60571,-1.04838],[-1.82288,0.53001]],[[191.80512,236.40454],[1.69276,-0.8768],[0,4.67928]],[[191.80512,250.44239],[0,-4.67928],[0.00199,0.00003]],[[191.81111,250.44247],[-0.00199,-0.00003],[0,0]],[191.83522,249.63706],[[192.38239,250.45141],[-0.23119,-0.49837],[4.49196,0.07746]],[[205.89981,250.43573],[-4.43893,0.33197],[1.43143,-0.10706]],[[210.16185,249.83809],[-1.41281,0.26943],[-0.13744,-0.18632]],[[209.83031,249.2249],[0.0819,0.2208],[-0.05346,-0.01514]],[[209.675,249.17519],[0.05011,0.01796],[-1.52466,-0.54645]],[[208.15034,246.83085],[0,0],[0,-4.60559]],[[208.15034,231.7188],[0,5.03134],[-3.67485,0.9572]]],&quot;closed&quot;:true}]}" fill="url(#color-3)" stroke="none" stroke-width="0.5" stroke-linecap="butt"/><path d="M538.17584,311.33281c-0.10371,1.78414 -0.21036,3.62766 -0.30317,5.22433c-0.20254,-0.0276 -0.40879,-0.08253 -0.611,-0.09782c-0.6482,-0.04901 -1.30999,0.01339 -1.95783,0.06704c-0.37122,0.02535 -0.74391,0.07365 -1.1122,0.12934c0.0122,-0.04271 0.01974,-0.08754 0.02243,-0.13375c0.01475,-0.25372 -0.1287,-0.48212 -0.34302,-0.58809l0.01027,-0.18353c0.07437,-1.27934 0.14987,-2.57563 0.22424,-3.85499c0.16702,-0.08137 0.33697,-0.16144 0.51387,-0.21611c0.64728,-0.20008 1.37007,0.02756 2.04112,-0.06571c0.27648,-0.03843 0.49782,-0.27669 0.77192,-0.3294c0.22358,-0.04299 0.45581,0.06769 0.683,0.0527c0.02008,-0.00133 0.04028,-0.00259 0.06037,-0.004z" data-paper-data="{&quot;noHover&quot;:false,&quot;origItem&quot;:[&quot;Path&quot;,{&quot;applyMatrix&quot;:true,&quot;segments&quot;:[[[229.25169,226.44225],[0.08128,-0.01012],[-0.91983,0.11456]],[[226.4713,226.3941],[0.89856,-0.22759],[-1.10163,0.27901]],[[223.42199,227.91876],[1.11461,-0.22153],[-2.70541,0.53769]],[[215.18034,228.66051],[2.58357,-0.96615],[-0.70612,0.26406]],[[213.15034,229.65399],[0.6596,-0.37022],[0,5.2174]],[[213.15034,245.30619],[0,-5.2174],[0,0]],[[213.15034,246.05291],[0,0],[0.8961,0.38005]],[[214.675,248.35551],[0,-1.03467],[0,0.1884]],[[214.61465,248.90394],[0.0395,-0.17649],[1.48368,-0.31337]],[[219.08938,248.10957],[-1.50282,0.19076],[2.62043,-0.37113]],[[226.99555,247.38017],[-2.64618,-0.04605],[0.8255,0.01436]],[[229.49555,247.63785],[-0.82977,-0.06434],[0,-6.51152]],[[229.49555,226.41136],[0,7.27608],[-0.0813,0.01048]]],&quot;closed&quot;:true}]}" fill="url(#color-4)" stroke="none" stroke-width="0.5" stroke-linecap="butt"/><path d="M542.61556,310.66323c-0.02273,1.22729 -0.03973,2.47156 -0.11176,3.71065l-0.0458,0.75028c0,0 -0.01364,0.22425 0.11127,0.40926c-0.51111,0.07078 -1.02818,0.15275 -1.53133,0.22021c-0.63549,0.0852 -1.3145,0.04401 -1.91732,0.25288c0.0933,-1.60505 0.18641,-3.23006 0.27971,-4.83511c0.19108,-0.03937 0.38257,-0.08801 0.56875,-0.14507c0.21207,-0.06499 0.36252,-0.279 0.57607,-0.33896c0.54307,-0.15248 1.11161,-0.08098 1.65929,-0.0475c0.13694,0.00796 0.27484,0.01626 0.41111,0.02336z" data-paper-data="{&quot;noHover&quot;:false,&quot;origItem&quot;:[&quot;Path&quot;,{&quot;applyMatrix&quot;:true,&quot;segments&quot;:[[[245.71748,222.64933],[0.55843,0],[-2.23394,-0.0067]],[[239.01353,223.23648],[2.17124,-0.74804],[-0.8538,0.29415]],[[236.76391,224.74602],[0.84662,-0.31423],[-0.74327,0.27588]],[[234.49555,225.46406],[0.76737,-0.20516],[0,6.54568]],[[234.49555,245.10109],[0,-6.54568],[2.40074,-0.99133]],[[242.19843,243.61305],[-2.56277,0.49641],[2.02907,-0.39302]],[[248.34283,242.36726],[-2.06071,0.40849],[-0.55138,-0.72244]],[247.79145,240.73222],[[247.79145,237.6829],[0,0],[0,-5.05325]],[[247.38836,222.64461],[0.19761,4.99364],[-0.55557,0.00331]]],&quot;closed&quot;:true}]}" fill="url(#color-5)" stroke="none" stroke-width="0.5" stroke-linecap="butt"/><path d="M546.75784,310.55359c0.01435,0.25208 0.03144,0.50381 0.05038,0.75236c0.04221,0.55368 0.38422,1.05879 0.48778,1.60435c0.04246,0.22368 -0.07051,0.45954 -0.05228,0.68648c0.04271,0.53185 0.25279,1.05184 0.51153,1.52164c-0.00092,0.00007 -0.01864,-0.01781 -0.01956,-0.01774l-0.02134,-0.04666c0,0 -0.00165,0.02595 0.00126,0.06731c-1.16341,0.08271 -2.3345,0.17758 -3.50998,0.24061c-0.19484,0.01045 -0.3919,0.02448 -0.58803,0.04309c0.0448,-0.11387 0.05007,-0.21025 0.05007,-0.21025l0.04192,-0.74955c0.0725,-1.24704 0.09523,-2.49795 0.11812,-3.73292c0.7297,0.01694 1.46519,0.00667 2.19754,-0.04327c0.24559,-0.01676 0.49094,-0.06391 0.73259,-0.11543z" data-paper-data="{&quot;noHover&quot;:false,&quot;origItem&quot;:[&quot;Path&quot;,{&quot;applyMatrix&quot;:true,&quot;segments&quot;:[[[261.26952,221.86827],[0.99424,-0.12613],[-2.96479,0.37611]],[[252.38465,222.54958],[2.96983,-0.10356],[0.19873,5.02491]],[[252.79145,237.6829],[0,-5.08562],[0,0]],[252.79145,240.73222],[[252.63633,241.59746],[0.15512,-0.47341],[0.79277,-0.12196]],[[255.01023,241.2793],[-0.78947,0.08849],[4.76282,-0.5339]],[[269.15827,239.48021],[-4.70906,0.61105],[-0.02161,-0.16736]],[269.13666,239.20756],[[269.30703,239.46093],[0,0],[0.00374,-0.00048]],[[269.31825,239.45947],[-0.00374,0.00048],[-1.16269,-1.84831]],[[266.86841,233.41438],[0.2993,2.15156],[-0.12772,-0.91809]],[[266.91656,230.63399],[0.22541,0.89911],[-0.54977,-2.19287]],[[264.58142,224.26644],[0.30236,2.24043],[-0.13573,-1.00574]],[[264.20635,221.22354],[0.11789,1.02121],[-0.96999,0.2665]]],&quot;closed&quot;:true}]}" fill="url(#color-6)" stroke="none" stroke-width="0.5" stroke-linecap="butt"/><path d="M551.63981,310.4333c0.01588,0.85169 -0.00227,1.71892 -0.05279,2.58778l-0.03358,0.56411c-0.0131,0.22515 -0.05599,0.91217 -0.07421,1.22577c-0.06924,0.00831 -0.13501,0.01831 -0.19508,0.0297c-0.34671,0.06577 -0.66422,0.27277 -1.01355,0.32286c-0.44459,0.06375 -0.90199,-0.06753 -1.35124,-0.09881l-0.06494,-0.47018c-0.46049,-0.75832 -0.21691,-1.06646 -0.37335,-1.89616c-0.09473,-0.50244 -0.43493,-0.95859 -0.46277,-1.46912c-0.0151,-0.2768 -0.02758,-0.55767 -0.04313,-0.83804c1.03567,0.01419 2.18681,0.37627 3.1911,0.19137c0.16303,-0.03002 0.32031,-0.08383 0.47355,-0.14931z" data-paper-data="{&quot;noHover&quot;:false,&quot;origItem&quot;:[&quot;Path&quot;,{&quot;applyMatrix&quot;:true,&quot;segments&quot;:[[[282.12133,220.29547],[0.65555,-0.16052],[-4.03819,0.98878]],[[269.16347,220.2669],[4.21278,-0.18704],[0.12953,1.13584]],[[269.54396,223.65552],[-0.12675,-1.12148],[0.23378,2.06844]],[[271.7828,229.48523],[-0.50374,-2.01974],[0.83186,3.33531]],[[273.71679,237.05848],[-2.05082,-2.97338],[0,0]],[[274.08682,238.95248],[0,0],[1.83335,0.02096]],[[279.5748,239.03492],[-1.79192,0.36415],[1.40796,-0.28612]],[[283.59976,237.49295],[-1.39366,0.34921],[0.24147,-0.06051]],[[284.38325,237.32828],[-0.27943,0.05017],[0,-1.27892]],[[284.38325,232.3466],[0,0.91822],[0,0]],[[284.38325,230.05961],[0,0],[0,-3.5434]],[[284.00644,219.57392],[0.26574,3.45791],[-0.60735,0.30229]]],&quot;closed&quot;:true}]}" fill="url(#color-7)" stroke="none" stroke-width="0.5" stroke-linecap="butt"/><path d="M554.31453,309.99821c-0.13978,1.04833 -0.23999,2.09274 -0.30277,3.17255c-0.0063,0.2026 0.03025,0.41308 -0.02139,0.6091c-0.15264,0.57927 -0.69804,0.80102 -1.28506,0.90399l0.01553,-0.2732c0.01449,-0.24924 0.05772,-1.06141 0.07222,-1.31065c0.06163,-1.06029 0.08709,-2.12429 0.05066,-3.1629c0.00442,-0.00076 0.00893,-0.00152 0.01337,-0.00225c0.42317,-0.06914 0.96146,0.00001 1.45744,0.06335z" data-paper-data="{&quot;noHover&quot;:false,&quot;origItem&quot;:[&quot;Path&quot;,{&quot;applyMatrix&quot;:true,&quot;segments&quot;:[[[288.88067,217.26792],[1.7036,-0.38097],[-0.01788,0.004]],[[288.82713,217.28013],[0.01783,-0.00414],[0.39348,4.21274]],[[289.38325,230.05961],[0,-4.32406],[0,1.01644]],[[289.38325,235.39591],[0,-1.01644],[0,0]],[[289.38325,236.50959],[0,0],[2.36161,-0.55724]],[[294.3604,232.53454],[-0.4835,2.39051],[0.16361,-0.8089]],[[294.29353,230.05961],[0.02229,0.82498],[0,-4.40371]],[[294.78979,217.18103],[-0.3204,4.29389],[-2.03089,-0.14027]]],&quot;closed&quot;:true}]}" fill="url(#color-8)" stroke="none" stroke-width="0.5" stroke-linecap="butt"/><path d="M554.47615,308.80956c-0.56537,-0.06429 -1.1986,-0.14549 -1.70712,-0.08105c-0.06041,-0.74604 -0.15479,-1.51242 -0.28668,-2.26488c0.47282,0.03554 1.00287,0.13506 1.40664,0.13989l0.38573,0.32357c0,0 0.10858,0.08285 0.26033,0.11885c-0.04144,0.57934 -0.01533,1.18478 -0.05891,1.7636z" data-paper-data="{&quot;noHover&quot;:false,&quot;origItem&quot;:[&quot;Path&quot;,{&quot;applyMatrix&quot;:true,&quot;segments&quot;:[[[294.96148,205.10902],[-0.03154,2.3645],[-0.62529,-0.11041]],[293.88212,204.69589],[[292.25741,203.48383],[0,0],[-1.64222,0.07577]],[[286.55716,203.23639],[1.93015,0.03275],[0.71382,3.02718]],[[288.24798,212.29453],[-0.42185,-3.01796],[2.05161,-0.38208]],[[295.14603,212.22785],[-2.31308,-0.12768],[0.04036,-2.36292]]],&quot;closed&quot;:true}]}" fill="url(#color-9)" stroke="none" stroke-width="0.5" stroke-linecap="butt"/><path d="M547.8904,309.18159c-0.04995,-0.60059 -0.12019,-1.20969 -0.22741,-1.79396c0,0 -0.02753,-0.14919 -0.12912,-0.28475c0.30764,-0.00614 0.61768,-0.02031 0.92684,-0.03723c0.5794,-0.03172 1.15393,-0.24696 1.7333,-0.27964c0.34591,-0.0195 0.70253,0.10592 1.0431,0.04233c0.02623,-0.00491 0.05143,-0.01269 0.07567,-0.0229c0.13375,0.78809 0.22355,1.58257 0.27585,2.36393c-0.20455,0.09368 -0.41402,0.17944 -0.63267,0.22232c-0.93646,0.18369 -2.08103,-0.19553 -3.06554,-0.21012z" data-paper-data="{&quot;noHover&quot;:false,&quot;origItem&quot;:[&quot;Path&quot;,{&quot;applyMatrix&quot;:true,&quot;segments&quot;:[[[280.97256,215.42922],[-3.76283,0.96787],[0.8786,-0.226]],[[283.48438,214.38702],[-0.80928,0.42911],[-0.3972,-3.16345]],[[281.81081,204.89709],[0.72983,3.1716],[-0.09611,0.04722]],[[281.50907,205.00849],[0.10548,-0.02611],[-1.36921,0.3389]],[[277.27843,205.09703],[1.4013,-0.16104],[-2.34704,0.26972]],[[270.35835,206.62825],[2.34748,-0.26585],[-1.25261,0.14185]],[[266.60735,206.98602],[1.2489,-0.09766],[0.44493,0.52695]],[[267.20106,208.10806],[0,0],[0.5738,2.34937]],[[268.54092,215.30174],[-0.34491,-2.42929],[4.00492,-0.17334]]],&quot;closed&quot;:true}]}" fill="url(#color-10)" stroke="none" stroke-width="0.5" stroke-linecap="butt"/><path d="M543.85172,309.50043c0.01771,-0.72041 0.04183,-1.45748 0.08405,-2.18358c0,0 0.00697,-0.10838 -0.03078,-0.23596c0.14859,-0.01742 0.29952,-0.04141 0.44899,-0.06992c0.7478,0.0486 1.50137,0.08362 2.2373,0.09231c-0.16965,0.21615 -0.1128,0.51041 -0.1128,0.51041c0.11029,0.56276 0.1694,1.15428 0.21137,1.73473c-0.24356,0.05133 -0.49137,0.10199 -0.73886,0.11793c-0.69969,0.04505 -1.40541,0.04948 -2.09928,0.03408z" data-paper-data="{&quot;noHover&quot;:false,&quot;origItem&quot;:[&quot;Path&quot;,{&quot;applyMatrix&quot;:true,&quot;segments&quot;:[[[260.6586,216.90573],[-2.83321,0.34844],[1.00214,-0.12325]],[[263.61921,216.26635],[-0.9778,0.26619],[-0.30775,-2.34929]],[[262.35035,209.32073],[0.58121,2.26128],[0,0]],[[262.69521,207.22789],[-0.63842,0.91864],[-2.99325,0.13858]],[[253.64622,207.38402],[3.05089,0.02083],[-0.60079,0.15119]],[[251.84556,207.76642],[0.59983,-0.10592],[0.18356,0.5096]],[[252.02912,208.7144],[0,0],[0,2.96117]],[[252.19797,217.54814],[-0.09824,-2.93227],[2.82386,-0.10134]]],&quot;closed&quot;:true}]}" fill="url(#color-11)" stroke="none" stroke-width="0.5" stroke-linecap="butt"/><path d="M539.47244,309.9115c0.04397,-0.75622 0.08678,-1.52661 0.13075,-2.28283c0,0 0.00246,-0.03807 -0.00357,-0.0952c0.58818,-0.1048 1.19051,-0.26885 1.77475,-0.32658c0.46042,-0.04548 0.91974,-0.04712 1.36986,-0.05761c-0.01298,0.05711 -0.015,0.09588 -0.015,0.09588c-0.04267,0.73417 -0.06643,1.4781 -0.08418,2.20637c-0.12093,-0.00634 -0.24303,-0.01188 -0.36469,-0.01896c-0.80049,-0.04443 -1.27198,-0.11377 -2.12626,0.10946c-0.22087,0.05771 -0.3749,0.27518 -0.59268,0.34362c-0.02953,0.00928 -0.05929,0.01777 -0.08899,0.02587z" data-paper-data="{&quot;noHover&quot;:false,&quot;origItem&quot;:[&quot;Path&quot;,{&quot;applyMatrix&quot;:true,&quot;segments&quot;:[[[234.85049,220.12662],[-0.11782,0.04469],[0.86895,-0.32962]],[[237.17484,218.58684],[-0.88403,0.28673],[3.41947,-1.1091]],[[245.71748,217.64933],[-3.26405,0.00854],[0.49621,0]],[[247.20119,217.64524],[-0.49302,0.00284],[-0.09992,-2.96422]],[[247.02912,208.7144],[0,2.99412],[0,0]],[[247.06843,208.32229],[-0.03931,0.2352],[-1.82695,0.14901]],[[241.54396,208.89513],[1.86064,-0.2937],[-2.36097,0.37267]],[[234.45757,210.61725],[2.36591,-0.56492],[0.03798,0.23076]],[[234.49555,211.00138],[0,0],[0,3.08402]],[[234.49555,220.25345],[0,-3.08402],[0.1188,-0.03992]]],&quot;closed&quot;:true}]}" fill="url(#color-12)" stroke="none" stroke-width="0.5" stroke-linecap="butt"/><path d="M534.17289,310.54991c0.03437,-0.90553 0.07493,-1.7447 0.49182,-2.60555c0,0 0.03833,-0.08114 0.05452,-0.19497c0.95749,-0.10675 1.93444,-0.17152 2.83455,-0.19262c0.27984,-0.00656 0.56123,0.03658 0.84057,0.05926c-0.04393,0.75566 -0.08999,1.57678 -0.13841,2.40979c-0.35028,0.00211 -0.70039,0.00659 -1.03322,0.06857c-0.27441,0.05109 -0.49991,0.29443 -0.77629,0.33355c-0.71159,0.10074 -1.47539,-0.1131 -2.16553,0.08744c-0.03635,0.01055 -0.07239,0.02203 -0.10803,0.03453z" data-paper-data="{&quot;noHover&quot;:false,&quot;origItem&quot;:[&quot;Path&quot;,{&quot;applyMatrix&quot;:true,&quot;segments&quot;:[[[213.53995,223.93726],[-0.14521,0.0515],[2.75764,-0.97818]],[[222.27322,223.05251],[-2.86841,0.5776],[1.11405,-0.22433]],[[225.32254,221.52786],[-1.10325,0.2725],[1.33814,-0.33052]],[[229.49555,221.02071],[-1.4232,0.09137],[0,-3.39716]],[[229.49555,211.24334],[0,3.08174],[-1.14077,-0.02618]],[[226.07469,211.21045],[1.13581,-0.09278],[-3.65347,0.29844]],[[214.66911,212.65307],[3.86647,-0.66005],[-0.03892,0.46641]],[[214.49619,213.45452],[0,0],[-1.49104,3.59739]],[[213.10944,224.10363],[-0.07422,-3.68862],[0.14191,-0.05917]]],&quot;closed&quot;:true}]}" fill="url(#color-13)" stroke="none" stroke-width="0.5" stroke-linecap="butt"/><path d="M528.85439,311.88903c0.05423,-0.93274 0.10622,-1.87825 0.16044,-2.811c0,0 0.00937,-0.15258 -0.05697,-0.30923c0.49858,-0.00991 1.00292,-0.04463 1.49826,-0.14301c0.40757,-0.08095 0.79611,-0.27315 1.20085,-0.36719c0.54592,-0.12685 1.12424,-0.2328 1.70968,-0.32531c-0.35759,1.02806 -0.36147,1.99783 -0.42384,3.1364c-1.01724,0.28477 -2.16857,0.24394 -3.18644,0.48207c-0.31285,0.0732 -0.60906,0.20136 -0.90199,0.33728z" data-paper-data="{&quot;noHover&quot;:false,&quot;origItem&quot;:[&quot;Path&quot;,{&quot;applyMatrix&quot;:true,&quot;segments&quot;:[[[195.38514,229.20937],[-1.25432,0.37142],[4.08083,-1.2084]],[[208.14948,226.51407],[-4.06725,1.39785],[-0.01547,-4.64243]],[[209.13913,213.7248],[-1.21053,4.26298],[-2.35765,0.51433]],[[202.28909,215.46423],[2.18887,-0.64452],[-1.62286,0.47785]],[[197.53317,217.23609],[1.63743,-0.4253],[-1.99005,0.51689]],[[191.49846,218.14875],[2.02414,-0.15807],[0.30667,0.62106]],[[191.80512,219.387],[0,0],[0,3.8039]],[[191.80512,230.7987],[0,-3.8039],[1.1585,-0.62159]]],&quot;closed&quot;:true}]}" fill="url(#color-14)" stroke="none" stroke-width="0.5" stroke-linecap="butt"/><path d="M525.19974,313.05036c-0.18747,-1.1203 -0.16412,-2.26834 -0.35587,-3.41237c-0.02398,-0.14304 -0.04923,-0.27494 -0.07649,-0.39723c0.00537,-0.00067 0.00828,-0.00116 0.00828,-0.00116c0.74567,-0.12095 1.4862,-0.3595 2.23865,-0.42658c0.28105,-0.02506 0.56695,-0.03351 0.85069,-0.03814c-0.05109,0.12109 -0.05687,0.22711 -0.05687,0.22711c-0.06496,1.1175 -0.1294,2.25327 -0.19435,3.37077c-0.66372,0.17551 -1.35887,0.2816 -2.02936,0.4317c0,0 -0.24255,0.05343 -0.38465,0.2459z" data-paper-data="{&quot;noHover&quot;:false,&quot;origItem&quot;:[&quot;Path&quot;,{&quot;applyMatrix&quot;:true,&quot;segments&quot;:[[[178.70804,235.27909],[0,0],[2.68974,-0.7685]],[[186.80512,233.05913],[-2.65617,0.87019],[0,-4.55738]],[[186.80512,219.387],[0,4.55738],[0,0]],[[186.98417,218.45166],[-0.17905,0.5042],[-1.15218,0.08585]],[[183.54873,218.81415],[1.13644,-0.16825],[-3.04238,0.45045]],[[174.60087,221.06514],[3.00218,-0.66776],[0,0]],[[174.56758,221.0717],[0.02172,-0.00399],[0.13967,0.4906]],[[174.97606,222.66409],[-0.13123,-0.57567],[1.04965,4.60456]],[[177.20858,236.37133],[-1.02668,-4.5091],[0.53205,-0.81583]]],&quot;closed&quot;:true}]}" fill="url(#color-15)" stroke="none" stroke-width="0.5" stroke-linecap="butt"/><path d="M524.80139,297.72755c0.07191,-1.23707 0.14431,-2.50616 0.21299,-3.68789c0,0 0.03527,-0.61361 -0.57775,-0.64924c-0.61302,-0.03563 -0.62764,0.56467 -0.62764,0.56467l-0.01093,0.18683c-0.01711,0.29433 -0.05386,0.60198 -0.06934,0.89604c-0.43499,-0.02497 -0.87058,-0.04639 -1.30609,-0.05993c-0.69329,-0.42073 -1.32492,-0.92959 -2.00477,-1.36405c-0.20173,-0.12891 -0.45351,-0.18203 -0.63224,-0.34132c-0.3275,-0.29188 -0.36094,-0.80083 -0.55627,-1.19362c-0.26964,-0.54221 -0.55238,-1.08063 -0.87248,-1.59465c-0.3924,-0.63016 -0.97736,-1.11906 -1.47371,-1.67107c-0.29268,-0.3255 -0.58455,-0.68261 -0.7203,-1.09876c-0.05368,-0.16458 -0.10451,-0.63216 0.02864,-0.52151c0.71185,0.59157 1.4692,0.46131 2.4083,0.51468c1.47561,0.08387 2.69756,-0.09169 4.10452,-0.52849c1.64396,-0.17245 3.11158,-0.5604 4.64514,-1.07413c0.6287,-0.21061 1.17016,-0.6796 1.82257,-0.79779c0.52889,-0.09582 1.09647,0.03759 1.60733,-0.12955c0.36488,-0.11938 0.67631,-0.39463 1.05325,-0.46749c0.32156,-0.06215 0.65304,0.05111 0.9798,0.07323c0.45798,0.03099 0.96989,-0.0831 1.39917,0.07942c0.64742,0.24511 1.23724,0.61762 1.86253,0.91497c0.19785,0.15521 0.40649,0.29247 0.63164,0.42189c0.47022,0.53527 2.22586,2.35924 2.62934,0.22015c0.08141,-0.43162 -0.52065,-0.71859 -0.87253,-0.98146c-0.22306,-0.16663 -0.52929,-0.14335 -0.78772,-0.24693c-0.26831,-0.10753 -0.53957,-0.23649 -0.80631,-0.34815c-1.23803,-0.97941 -1.81682,-2.44706 -2.08859,-4.06203c-0.14402,-0.85588 0.12976,-2.00425 0.18039,-2.87527c0.04497,-0.7734 -0.08782,-1.88817 0.12744,-2.62811c0.12631,-0.43416 0.56106,-0.71238 0.87523,-1.03756c0.55661,-0.57611 1.21021,-1.47825 2.10712,-1.54267c0.23567,-0.01691 1.06754,0.51707 1.152,0.56616c0.95822,0.55082 1.95636,1.29415 2.98057,1.70613c0.63682,0.25615 1.34816,0.33069 1.95678,0.64808c0.20643,0.10766 0.35145,0.31536 0.56039,0.41805c0.52446,0.2578 1.15359,0.24454 1.6864,0.48464c0.64932,0.2926 1.19382,0.80018 1.85635,1.06147c0.80737,0.31842 1.74595,0.47667 2.52283,0.87923c0.32312,0.16745 0.57885,0.44912 0.90238,0.6158c0.76253,0.39285 1.63057,0.59315 2.42194,0.90574c0.65997,0.26068 1.32249,0.76172 1.88546,1.18622c0.51022,0.28743 0.92167,0.72733 1.34034,1.13679c0.19989,0.1955 0.48156,0.30731 0.65026,0.53029c0.15983,0.21126 0.16422,0.51009 0.30579,0.73399c0.12864,0.20345 0.38408,0.31368 0.4922,0.52871c0.16954,0.3372 0.01698,1.63773 0.00876,1.76451c-0.05178,0.79874 -0.2078,1.58875 -0.32444,2.38064c-0.08133,0.55223 -0.19291,1.10058 -0.28182,1.65164c-0.04676,0.28983 0.0432,0.60136 -0.04978,0.87983c-0.21064,0.63088 -0.74237,1.11397 -1.00499,1.72503c-0.08144,0.1895 -0.02362,0.43691 -0.14851,0.60104c-0.11604,0.1525 -0.37007,0.1345 -0.51031,0.26509c-0.31427,0.29262 -0.45791,0.50619 -0.55876,0.75115c-0.42082,0.09162 -0.44843,0.56395 -0.44843,0.56395c-0.01784,0.30698 -0.03114,0.61584 -0.04064,0.92538c-0.1301,0.04958 -0.2157,0.12584 -0.2157,0.12584l0.19014,0.00646c-0.00001,0.00034 0.02134,0.01282 0.02132,0.01315c-1.23142,-0.07379 -2.52467,-0.26575 -3.75522,-0.21513c-1.58367,0.06513 -3.16764,0.37087 -4.74299,0.47919c-0.85595,0.05884 -1.72127,-0.20031 -2.58414,-0.10893c-0.69467,0.07356 -1.36697,0.29861 -2.05313,0.42955c-0.67479,0.22708 -1.39932,0.27722 -2.0919,0.44224c-0.25539,0.06086 -0.46335,0.2679 -0.72073,0.31974c-0.54656,0.11009 -1.11753,-0.15749 -1.67163,-0.09558c-0.40576,0.04533 -0.78348,0.25745 -1.19002,0.29516c-0.40971,0.03798 -0.8245,-0.11455 -1.23362,-0.07081c-0.68262,0.07299 -1.27953,0.53698 -1.95755,0.64462c-0.28172,0.04473 -0.56912,-0.07436 -0.85416,-0.06335c-0.83449,0.03225 -1.55642,0.07159 -2.39626,0.04469c-1.79379,-0.05749 -3.57006,-0.02472 -5.36792,-0.1266z" data-paper-data="{&quot;noHover&quot;:false,&quot;origItem&quot;:[&quot;Path&quot;,{&quot;applyMatrix&quot;:true,&quot;segments&quot;:[[[193.82121,173.43491],[-7.30437,0.19017],[3.41987,-0.08903]],[[203.54303,172.68408],[-3.3841,0.32825],[1.15592,-0.11212]],[[207.02664,172.73879],[-1.13448,0.24837],[2.73031,-0.59774]],[[214.82386,169.65488],[-2.75721,0.45792],[1.65255,-0.27446]],[[219.8494,169.65087],[-1.65624,0.25124],[1.64348,-0.2493]],[[224.61137,168.17021],[-1.63852,0.28011],[2.23747,-0.38251]],[[231.42117,168.16482],[-2.19548,0.57661],[1.03388,-0.27153]],[[234.27176,166.69583],[-1.02371,0.30768],[2.776,-0.83435]],[[242.66132,164.40756],[-2.689,1.08241],[2.75795,-0.69432]],[[250.89766,162.18093],[-2.80605,0.46312],[3.48558,-0.57528]],[[261.42093,162.01804],[-3.4651,0.44143],[6.37732,-0.81243]],[[280.57841,158.95851],[-6.4214,0.63888],[4.98958,-0.49642]],[[295.88982,158.94986],[-5.02252,-0.00895],[-0.00004,-0.00137]],[[295.8897,158.94576],[0.00004,0.00137],[0,0]],[295.02576,158.9199],[[295.87253,158.35793],[-0.51704,0.23225],[-0.03458,-1.26038]],[[295.81818,154.58903],[0,1.25192],[0,0]],[[297.50694,152.19251],[-1.68876,0.47184],[0.35204,-1.01942]],[[299.59973,149.00962],[-1.2082,1.26362],[0.53915,-0.56388]],[[301.61095,147.81261],[-0.43559,0.64723],[0.46884,-0.69663]],[[302.0721,145.33604],[-0.28623,0.78942],[0.92302,-2.54571]],[[305.74821,138.09176],[-0.70706,2.61393],[0.3121,-1.15381]],[[305.74228,134.50595],[-0.12158,1.18907],[0.23116,-2.26074]],[[306.49708,127.73029],[-0.20011,2.26369],[0.28697,-3.24609]],[[307.25316,117.98332],[-0.0217,3.25868],[0.00344,-0.51729]],[[306.80096,110.81771],[0.76875,1.33043],[-0.49028,-0.8485]],[[304.6757,108.7864],[0.5709,0.79649],[-0.62831,-0.87658]],[[303.25977,105.87718],[0.69954,0.82085],[-0.73836,-0.8664]],[[300.49182,103.87696],[0.85863,0.74738],[-1.79836,-1.56533]],[[294.77637,99.57662],[2.14166,1.0477],[-2.38849,-1.59233]],[[286.83423,95.20506],[2.74404,0.90363],[-3.29032,-1.08353]],[[276.77859,92.10076],[3.19214,1.41657],[-1.35433,-0.60101]],[[272.96694,89.81377],[1.35291,0.6042],[-3.25279,-1.45266]],[[262.50951,86.84225],[3.35674,1.10344],[-2.75459,-0.90549]],[[254.71907,82.97212],[2.70826,1.03584],[-2.22229,-0.84997]],[[247.75541,81.40474],[2.19259,0.9239],[-0.87346,-0.36805]],[[245.38143,79.83958],[0.86443,0.38877],[-2.5487,-1.14624]],[[237.28284,77.67149],[2.64885,0.89068],[-4.26022,-1.4325]],[[224.77889,71.44424],[4.02477,2.01238],[-0.35492,-0.17957]],[[219.96757,69.41545],[0.95389,-0.12446],[-3.63025,0.47366]],[[211.77664,76.18248],[2.1262,-2.47313],[-1.20013,1.39594]],[[208.46909,80.60523],[0.41078,-1.7945],[-0.70008,3.05833]],[[208.57636,91.31572],[0,-3.15409],[0,3.55214]],[[208.53125,103.04021],[-0.7876,-3.44464],[1.48613,6.49972]],[[217.988,119.05018],[-5.26336,-3.68828],[1.11055,0.39084]],[[221.32979,120.19247],[-1.11596,-0.37369],[1.07491,0.35994]],[[224.62132,121.04725],[-0.946,-0.62455],[1.4923,0.98521]],[[228.39692,124.8582],[0.22891,-1.77348],[-1.13451,8.78957]],[[217.57418,124.59931],[2.03769,2.06448],[-0.94572,-0.47286]],[[214.89565,123.01072],[0.8408,0.58409],[-2.61171,-1.06087]],[[207.10884,119.71423],[2.68931,0.84328],[-1.78322,-0.55916]],[[201.50239,119.7349],[1.86874,0.01776],[-1.33333,-0.01267]],[[197.5028,119.66803],[1.29226,-0.3286],[-1.51488,0.38521]],[[193.33253,121.81238],[1.45488,-0.57147],[-2.03684,0.80006]],[[186.83019,122.71734],[2.12703,-0.51439],[-2.62383,0.63453]],[[179.61061,126.38635],[2.50558,-1.00456],[-6.11171,2.45036]],[[160.98405,131.84688],[6.64101,-1.08933],[-5.61532,2.10778]],[[144.32771,134.98149],[6.01735,-0.00779],[-3.82949,0.00496]],[[134.41743,133.45683],[3.03305,2.23624],[-0.56731,-0.41827]],[[134.52317,135.56867],[-0.25709,-0.65627],[0.65005,1.65938]],[[137.70985,139.86166],[-1.26649,-1.25383],[2.14783,2.12636]],[[144.0933,146.30086],[-1.74381,-2.46856],[1.42245,2.01363]],[[148.01464,152.57188],[-1.22402,-2.14006],[0.88673,1.55035]],[[150.55619,157.28881],[-1.40004,-1.10895],[0.76403,0.60517]],[[153.20581,158.52539],[-0.85036,-0.47629],[2.8659,1.60521]],[[161.67333,163.59084],[-2.91727,-1.54627],[1.77328,-0.04792]],[[166.99471,163.52404],[-1.77394,0.00123],[-0.0066,-1.19882]],[[166.98457,159.92533],[0,1.20034],[0,0]],[166.98457,159.163],[[169.48457,156.663],[-2.5,0],[2.5,0]],[[171.98457,159.163],[0,0],[0,4.81932]],[[171.98457,174.19642],[0,-5.04502],[7.33139,-0.01074]]],&quot;closed&quot;:true}]}" fill="url(#color-16)" stroke="none" stroke-width="0.5" stroke-linecap="butt"/><path d="M532.9636,299.0388c0.22168,0.02571 0.44348,0.06196 0.66154,0.02606c0.64922,-0.10687 1.2162,-0.57482 1.87136,-0.63549c0.40554,-0.03755 0.81556,0.10823 1.22108,0.07062c0.4087,-0.03789 0.79023,-0.2486 1.19776,-0.29735c0.31859,-0.03811 1.45033,0.13881 1.76683,0.082c0.29107,-0.05225 0.53347,-0.27285 0.82122,-0.34111c0.69209,-0.16416 1.41693,-0.21563 2.09206,-0.43962c0.62386,-0.11683 1.23386,-0.32451 1.8648,-0.39348c0.84148,-0.09199 1.70245,0.16962 2.54294,0.11552c1.56067,-0.10045 3.12556,-0.40687 4.69338,-0.47302c1.20734,-0.05094 2.48103,0.14754 3.6884,0.21773l0.01838,-0.00947c-0.01294,2.52851 0.09402,5.10919 -0.31908,7.57465c-0.07079,0.42245 -0.19899,0.8343 -0.31292,1.24794l-0.4513,-0.31912c-0.81084,-0.0703 -1.98847,-0.30382 -2.78543,-0.16152c-0.22154,0.03956 -0.36164,0.29932 -0.58264,0.34173c-0.27288,0.05237 -0.55315,-0.0834 -0.83069,-0.0699c-0.56993,0.02774 -1.11995,0.24755 -1.68983,0.27624c-1.38502,0.06977 -2.73997,0.02506 -4.13951,-0.04846c-1.01598,0.19055 -2.00876,0.10449 -3.04147,0.20602c-0.83022,0.08162 -1.6976,0.38772 -2.52878,0.41244c-0.40343,0.012 -0.80817,-0.08225 -1.21165,-0.07236c-2.47759,0.06068 -4.89904,0.60637 -7.30014,1.08928c-1.09872,0.22096 -2.21768,0.06773 -3.30866,0.16657c-0.78541,0.07116 -1.54692,0.3101 -2.32543,0.43605c0,0 -0.03899,0.0063 -0.09561,0.02562c-0.04418,-0.26667 -0.06487,-0.55992 -0.0411,-0.93425c0.10045,-1.72793 0.20079,-3.40504 0.10648,-5.12242c-0.04594,-0.83677 0.10312,-1.72046 0.15184,-2.55844c0.00977,-0.16791 0.01971,-0.33794 0.02966,-0.50899c1.80664,0.10237 3.59194,0.06517 5.39413,0.12461c0.36017,0.01188 0.72605,0.02104 1.06555,0.015c-0.14072,0.22988 -0.14991,0.5751 -0.275,0.8252c-0.58224,1.16423 -0.74013,2.04415 -0.79552,3.3513c-0.0131,0.30882 -0.11269,0.62859 -0.02763,0.92575c0.33665,1.17609 1.34304,1.31064 2.3865,1.32332c0.35855,0.00435 0.7447,0.1639 1.05282,-0.01949c0.5683,-0.33823 0.71031,-1.1045 0.87082,-1.67234c0.21008,-0.19791 0.52847,-0.32461 0.63,-0.59476c0.31779,-0.84561 -0.02376,-2.28182 -0.798,-2.85389c-0.07274,-0.05375 -0.19738,-0.11353 -0.35242,-0.17092c-0.13729,-0.43531 -0.48303,-0.87374 -0.91468,-1.15729z" data-paper-data="{&quot;noHover&quot;:false,&quot;origItem&quot;:[&quot;Path&quot;,{&quot;applyMatrix&quot;:true,&quot;segments&quot;:[[[209.4741,182.13664],[-0.66086,-1.73684],[0.64372,0.19663]],[[210.94696,182.74782],[-0.30834,-0.20126],[3.28204,2.14222]],[[214.86586,194.13369],[1.09187,-3.51202],[-0.34884,1.12205]],[[212.44467,196.69571],[0.80706,-0.85401],[-0.51822,2.34588]],[[209.29651,203.68923],[2.22996,-1.50904],[-1.20905,0.81817]],[[204.93287,204.0626],[1.45833,-0.067],[-4.24408,0.19501]],[[194.91685,199.23774],[1.64622,4.70058],[-0.41595,-1.1877]],[[194.80958,195.46397],[0.01978,1.25828],[-0.08373,-5.32595]],[[197.25185,181.63701],[-2.09145,4.8695],[0.4493,-1.04609]],[[198.17579,178.21354],[-0.51763,0.96761],[-1.37852,0.10482]],[[193.93698,178.43357],[1.4667,-0.03681],[-7.33895,0.1842]],[[171.98457,179.19642],[7.3672,-0.01082],[0,0.69753]],[[171.98457,181.27055],[0,-0.68477],[0,3.41752]],[[171.9724,191.69681],[-0.38448,-3.39012],[0.7891,6.95794]],[[172.7469,212.52604],[0,-7.0468],[-0.00816,1.52709]],[[173.13369,216.311],[-0.24257,-1.07341],[0.22552,-0.0919]],[[173.51621,216.18421],[0,0],[3.13446,-0.6959]],[[182.86425,213.86122],[-3.17548,0.47481],[4.41089,-0.65954]],[[196.27054,212.39814],[-4.41349,1.15774],[9.64511,-2.53009]],[[225.66497,206.22727],[-10.0557,0.83203],[1.63757,-0.13549]],[[230.59448,206.23043],[-1.63684,0.1441],[3.37249,-0.2969]],[[240.74305,203.95969],[-3.35506,0.5279],[4.17348,-0.65668]],[[253.03531,202.42148],[-4.08441,1.01453],[5.70575,-0.03186]],[[269.86566,201.65259],[-5.61289,0.61078],[2.30944,-0.25131]],[[276.66751,200.13449],[-2.30986,0.24739],[1.12484,-0.12047]],[[280.06015,200.22303],[-1.09675,0.27732],[0.88825,-0.2246]],[[282.34714,198.69837],[-0.89108,0.21312],[3.20562,-0.76671]],[[293.70634,198.69837],[-3.31224,-0.09415],[0,0]],[[295.61615,199.8881],[0,0],[0.36536,-1.70814]],[[296.59268,194.74613],[-0.18788,1.73376],[1.09647,-10.11837]],[[296.10364,163.9072],[0.54485,10.28012],[0,0]],[[296.0312,163.94999],[0,0],[-4.9239,0]],[[280.99082,163.94147],[4.89516,-0.49232],[-6.35671,0.63931]],[[262.03184,166.98057],[6.31953,-0.77703],[-3.40334,0.41846]],[[251.67719,167.11979],[3.39843,-0.5727],[-2.54814,0.42941]],[[244.19966,169.16503],[2.50803,-0.62224],[-2.69102,1.06993]],[[235.81798,171.45074],[2.7742,-0.83076],[-1.15342,0.3454]],[[232.56993,173.03106],[1.17074,-0.28117],[-1.27301,0.30573]],[[225.38747,173.10961],[1.28589,-0.23016],[-1.6449,0.29442]],[[220.59922,174.59433],[1.65215,-0.25058],[-1.63941,0.24865]],[[215.62477,174.59032],[1.63943,-0.24843],[-2.64852,0.40134]],[[208.1754,177.60504],[2.61347,-0.58777],[-0.87778,0.19742]],[[205.48129,177.65362],[0.90704,0.05213],[1.82138,1.05042]]],&quot;closed&quot;:true}]}" fill="url(#color-17)" stroke="none" stroke-width="0.5" stroke-linecap="butt"/><path d="M543.40042,298.8668c0.08951,0.05195 0.17431,0.10177 0.25313,0.1468c0.23644,0.19167 0.56057,0.30945 0.70934,0.57499c0.43172,0.77056 0.71955,2.61381 -0.01813,3.38302c-0.07588,0.07913 -0.15949,0.14901 -0.24952,0.21014c-0.03022,0.14035 -0.08722,0.26628 -0.19317,0.36582c-0.33773,0.31726 -0.94816,0.27336 -1.38555,0.11769c-0.41767,0.02829 -0.84824,-0.11599 -1.17382,-0.45346c-0.00417,-0.00432 -0.00825,-0.00872 -0.01223,-0.01316c-0.47647,-0.21218 -0.88295,-0.51556 -1.11926,-0.873c-0.50599,-0.76536 -0.19317,-2.32476 0.08348,-3.11025c0.12976,-0.36841 0.15286,-0.84681 0.47149,-1.0727c0.30846,-0.21868 0.75459,-0.07636 1.13251,-0.06443c0.34692,0.01095 0.73336,-0.0428 1.03276,0.13281c0.23234,0.13628 0.3383,0.41109 0.46896,0.65573z" fill="#2b2b2b" stroke="none" stroke-width="0.5" stroke-linecap="butt"/></g></g></svg>