<svg version="1.1" xmlns="http://www.w3.org/2000/svg" xmlns:xlink="http://www.w3.org/1999/xlink" width="36.26527" height="55.36696" viewBox="0,0,36.26527,55.36696"><g transform="translate(-521.86738,-297.46725)"><g data-paper-data="{&quot;isPaintingLayer&quot;:true}" fill-rule="nonzero" stroke-linejoin="miter" stroke-miterlimit="10" stroke-dasharray="" stroke-dashoffset="0" style="mix-blend-mode: normal"><path d="M558.13265,319.77124c0,12.31815 -8.11826,22.30399 -18.13264,22.30399c-10.01438,0 -18.13263,-9.98584 -18.13263,-22.30399c0,-12.31815 8.11825,-22.30399 18.13263,-22.30399c10.01438,0 18.13264,9.98584 18.13264,22.30399z" fill="#252525" stroke="none" stroke-width="0" stroke-linecap="butt"/><path d="M545.20427,318.20179l-0.11438,-17.2713" fill="none" stroke="#ffffff" stroke-width="1.5" stroke-linecap="round"/><path d="M533.88069,318.32742v-17.61443" fill="none" stroke="#ffffff" stroke-width="1.5" stroke-linecap="round"/><path d="M532.85128,329.60787c0,0.34314 -0.34314,0.34314 -0.34314,0.34314h-0.11438c-0.97812,0 -0.92069,0.35599 -1.83594,0.66867c0,0 -0.32553,0.10851 -0.43404,-0.21702c-0.10851,-0.32553 0.21702,-0.43404 0.21702,-0.43404c0.48409,-0.15621 0.45737,-0.4431 0.86163,-0.66328c0.24524,-0.13357 0.9023,-0.0406 1.19133,-0.0406h0.11438c0,0 0.34314,0 0.34314,0.34314z" fill="#252525" stroke="none" stroke-width="0.5" stroke-linecap="butt"/><path d="M533.94308,335.29468c1.75062,-0.25629 3.74419,3.4595 4.45277,8.29945c0.70857,4.83996 -0.13617,8.97128 -1.88679,9.22757c-1.75062,0.25629 -3.74419,-3.4595 -4.45277,-8.29945c-0.70857,-4.83996 0.13617,-8.97128 1.88679,-9.22757z" fill="#252525" stroke="none" stroke-width="0" stroke-linecap="butt"/><path d="M540.81757,352.32499c-1.63134,-0.68492 -1.41873,-4.89635 0.47486,-9.40653c1.89359,-4.51016 4.7511,-7.61114 6.38244,-6.92622c1.63134,0.68492 1.41873,4.89635 -0.47486,9.40652c-1.89359,4.51016 -4.7511,7.61115 -6.38245,6.92623z" fill="#252525" stroke="none" stroke-width="0" stroke-linecap="butt"/></g></g></svg>