<svg version="1.1" xmlns="http://www.w3.org/2000/svg" xmlns:xlink="http://www.w3.org/1999/xlink" width="125" height="87.5" viewBox="0,0,125,87.5"><defs><linearGradient x1="496.74075" y1="394.5514" x2="496.74075" y2="413.41261" gradientUnits="userSpaceOnUse" id="color-1"><stop offset="0" stop-color="#7d7d7d"/><stop offset="1" stop-color="#adadad"/></linearGradient><linearGradient x1="3205.15805" y1="2274.14582" x2="3204.06212" y2="2289.00494" gradientUnits="userSpaceOnUse" id="color-2"><stop offset="0" stop-color="#7d7d7d"/><stop offset="1" stop-color="#adadad"/></linearGradient><linearGradient x1="507.48618" y1="304.98661" x2="501.44413" y2="304.98661" gradientUnits="userSpaceOnUse" id="color-3"><stop offset="0" stop-color="#006cff"/><stop offset="1" stop-color="#00a3ff"/></linearGradient><linearGradient x1="523.72786" y1="305.68505" x2="514.50892" y2="305.68505" gradientUnits="userSpaceOnUse" id="color-4"><stop offset="0" stop-color="#006cff"/><stop offset="1" stop-color="#00a3ff"/></linearGradient><linearGradient x1="511.83081" y1="305.47487" x2="510.18257" y2="305.47487" gradientUnits="userSpaceOnUse" id="color-5"><stop offset="0" stop-color="#006cff"/><stop offset="1" stop-color="#00a3ff"/></linearGradient><linearGradient x1="511.20484" y1="336.1025" x2="511.20484" y2="356.12483" gradientUnits="userSpaceOnUse" id="color-6"><stop offset="0" stop-color="#393939"/><stop offset="1" stop-color="#717171"/></linearGradient><linearGradient x1="517.43824" y1="335.65557" x2="517.43824" y2="358.10715" gradientUnits="userSpaceOnUse" id="color-7"><stop offset="0" stop-color="#393939"/><stop offset="1" stop-color="#717171"/></linearGradient><linearGradient x1="518.37529" y1="321.74563" x2="531.44394" y2="314.84989" gradientUnits="userSpaceOnUse" id="color-8"><stop offset="0" stop-color="#9e9e9e"/><stop offset="1" stop-color="#717171"/></linearGradient><linearGradient x1="520.61967" y1="320.96813" x2="520.61967" y2="333.22034" gradientUnits="userSpaceOnUse" id="color-9"><stop offset="0" stop-color="#9e9e9e"/><stop offset="1" stop-color="#717171"/></linearGradient><linearGradient x1="513.17384" y1="316.65732" x2="513.17384" y2="333.66267" gradientUnits="userSpaceOnUse" id="color-10"><stop offset="0" stop-color="#9e9e9e"/><stop offset="1" stop-color="#717171"/></linearGradient><linearGradient x1="517.66672" y1="283.11557" x2="517.66672" y2="301.68436" gradientUnits="userSpaceOnUse" id="color-11"><stop offset="0" stop-color="#9e9e9e"/><stop offset="1" stop-color="#717171"/></linearGradient><linearGradient x1="513.21772" y1="309.49429" x2="513.21772" y2="314.23661" gradientUnits="userSpaceOnUse" id="color-12"><stop offset="0" stop-color="#9e9e9e"/><stop offset="1" stop-color="#717171"/></linearGradient><linearGradient x1="517.09168" y1="305.06462" x2="504.49167" y2="305.06462" gradientUnits="userSpaceOnUse" id="color-13"><stop offset="0" stop-color="#0094ff"/><stop offset="1" stop-color="#0086ff"/></linearGradient><linearGradient x1="578.01667" y1="319.42658" x2="480.01667" y2="319.42658" gradientUnits="userSpaceOnUse" id="color-14"><stop offset="0" stop-color="#ffffff" stop-opacity="0"/><stop offset="1" stop-color="#ffffff"/></linearGradient></defs><g transform="translate(-480.01667,-275.67658)"><g data-paper-data="{&quot;isPaintingLayer&quot;:true}" fill-rule="nonzero" stroke-linejoin="miter" stroke-miterlimit="10" stroke-dasharray="" stroke-dashoffset="0" style="mix-blend-mode: normal"><path d="" data-paper-data="{&quot;index&quot;:null}" fill="#000000" stroke="none" stroke-width="0.5" stroke-linecap="butt"/><path d="" data-paper-data="{&quot;noHover&quot;:false,&quot;origItem&quot;:[&quot;Path&quot;,{&quot;applyMatrix&quot;:true,&quot;segments&quot;:[[[214.21936,363.46624],[-0.30208,-0.37388],[3.00673,0.15442]],[[223.17564,365.12684],[-2.72214,-1.01229],[0.78421,0.29162]],[[225.23038,366.56847],[-0.80035,-0.24385],[0.7421,0.2261]],[[227.55523,366.4612],[-0.77495,0.03576],[3.50491,0]],[[238.06996,366.4612],[-3.50491,0],[-1.08058,-2.14878]],[[237.21302,359.55162],[0.01277,2.28708],[0,0]],[[239.71302,357.05162],[-2.5,0],[2.5,0]],[[242.21302,359.55162],[0,0],[-0.01909,2.79627]],[[244.14909,365.09479],[-2.53148,-1.37374],[0,0]],[[244.57107,366.4612],[0,0],[7.03354,0]],[[265.67169,366.4612],[-7.03354,0],[3.04925,0]],[[274.81964,366.4612],[-3.04923,-0.00986],[0.84642,0.00274]],[[277.35997,366.4598],[-0.84249,-0.07098],[-2.84376,-3.86932]],[[269.2555,354.64224],[2.9011,3.87495],[-1.52693,-2.0395]],[[264.37183,348.76265],[1.03081,2.32992],[-0.4631,-1.04675]],[[264.2484,345.33101],[0.26442,1.11366],[-0.24124,-1.01601]],[[261.55208,340.80707],[0.56849,0.84929],[0,0]],[[261.11463,339.02281],[-0.11332,0.95811],[-0.5179,0.09202]],[[259.60671,339.31511],[0.48224,-0.10965],[-4.9579,1.12734]],[[244.77858,341.16631],[4.93186,-0.53102],[-0.36495,0.13559]],[[243.66918,341.57508],[0.37522,-0.13655],[-2.05219,0.74685]],[[237.17595,342.44759],[2.13113,-0.47702],[-1.33538,0.29891]],[[233.36431,343.97224],[1.3434,-0.26048],[-3.96057,0.76793]],[[221.09473,343.98507],[3.96691,-0.63065],[-1.45541,0.23138]],[[216.91087,345.41372],[1.39462,-0.47622],[0,0]],[[216.89509,345.41869],[0.01038,-0.00317],[-0.03209,0.04913]],[[216.84315,345.4943],[0,0],[-0.66286,0.84427]],[[214.85458,348.02711],[0.40217,-0.9952],[-0.90439,2.23798]],[[214.22695,355.24129],[0.57394,-2.34458],[-0.27021,1.10382]],[[212.7023,358.2906],[0.23015,-1.11286],[-0.27004,1.30575]],[[212.76917,362.29019],[-0.0223,-1.33319],[0,0]],[[212.76917,362.68043],[0,0],[0.69117,0.09707]]],&quot;closed&quot;:true}],&quot;index&quot;:null}" fill="url(#color-1)" stroke="none" stroke-width="0.5" stroke-linecap="butt"/><path d="" data-paper-data="{&quot;index&quot;:null}" fill="#000000" stroke="none" stroke-width="0.5" stroke-linecap="butt"/><path d="" data-paper-data="{&quot;noHover&quot;:false,&quot;origItem&quot;:[&quot;Path&quot;,{&quot;applyMatrix&quot;:true,&quot;segments&quot;:[[[214.21936,363.46624],[-0.30208,-0.37388],[3.00673,0.15442]],[[223.17564,365.12684],[-2.72214,-1.01229],[0.78421,0.29162]],[[225.23038,366.56847],[-0.80035,-0.24385],[0.7421,0.2261]],[[227.55523,366.4612],[-0.77495,0.03576],[3.50491,0]],[[238.06996,366.4612],[-3.50491,0],[-1.08058,-2.14878]],[[237.21302,359.55162],[0.01277,2.28708],[0,0]],[[239.71302,357.05162],[-2.5,0],[2.5,0]],[[242.21302,359.55162],[0,0],[-0.01909,2.79627]],[[244.14909,365.09479],[-2.53148,-1.37374],[0,0]],[[244.57107,366.4612],[0,0],[7.03354,0]],[[265.67169,366.4612],[-7.03354,0],[3.04925,0]],[[274.81964,366.4612],[-3.04923,-0.00986],[0.84642,0.00274]],[[277.35997,366.4598],[-0.84249,-0.07098],[-2.84376,-3.86932]],[[269.2555,354.64224],[2.9011,3.87495],[-1.52693,-2.0395]],[[264.37183,348.76265],[1.03081,2.32992],[-0.4631,-1.04675]],[[264.2484,345.33101],[0.26442,1.11366],[-0.24124,-1.01601]],[[261.55208,340.80707],[0.56849,0.84929],[0,0]],[[261.11463,339.02281],[-0.11332,0.95811],[-0.5179,0.09202]],[[259.60671,339.31511],[0.48224,-0.10965],[-4.9579,1.12734]],[[244.77858,341.16631],[4.93186,-0.53102],[-0.36495,0.13559]],[[243.66918,341.57508],[0.37522,-0.13655],[-2.05219,0.74685]],[[237.17595,342.44759],[2.13113,-0.47702],[-1.33538,0.29891]],[[233.36431,343.97224],[1.3434,-0.26048],[-3.96057,0.76793]],[[221.09473,343.98507],[3.96691,-0.63065],[-1.45541,0.23138]],[[216.91087,345.41372],[1.39462,-0.47622],[0,0]],[[216.89509,345.41869],[0.01038,-0.00317],[-0.03209,0.04913]],[[216.84315,345.4943],[0,0],[-0.66286,0.84427]],[[214.85458,348.02711],[0.40217,-0.9952],[-0.90439,2.23798]],[[214.22695,355.24129],[0.57394,-2.34458],[-0.27021,1.10382]],[[212.7023,358.2906],[0.23015,-1.11286],[-0.27004,1.30575]],[[212.76917,362.29019],[-0.0223,-1.33319],[0,0]],[[212.76917,362.68043],[0,0],[0.69117,0.09707]]],&quot;closed&quot;:true}],&quot;index&quot;:null}" fill="url(#color-2)" stroke="none" stroke-width="0.5" stroke-linecap="butt"/><path d="" data-paper-data="{&quot;index&quot;:null}" fill="#000000" stroke="none" stroke-width="0.5" stroke-linecap="butt"/><path d="M513.51624,318.74962c0.38403,1.0548 0.67493,2.13784 0.74494,3.26983c0.10866,1.75702 -0.80949,3.42643 -1.21356,5.13981c-0.43381,1.83948 0.04186,4.54077 0.05221,6.45478c0.70819,0.04362 1.47026,-0.09995 1.67841,-0.41932c0.2166,-0.33235 0.3325,-1.9524 0.35694,-2.18198c-0.00121,-4.28746 -0.16905,-8.57926 -0.16693,-12.85918l-0.13304,-1.18055c-0.51123,-0.04686 -1.02195,-0.10111 -1.53388,-0.15904c0.39083,0.71073 0.27606,1.51414 0.27606,1.51414c-0.02014,0.141 -0.04054,0.28149 -0.06115,0.42151zM507.76668,329.67658c0,-3.62702 0.58627,-6.92622 1.12502,-10.43381c-0.38219,-0.92027 -0.80979,-1.79775 -1.11861,-2.53414l-0.06307,-0.43679c-1.93259,-0.06021 -3.79586,-0.08128 -5.42355,-1.43195c-2.33846,-1.94046 -3.19814,-5.26978 -3.50484,-8.13211c-0.74666,-6.96823 0.18915,-14.62535 4.85562,-20.13986c3.14439,-3.59046 6.88261,-5.50883 11.64104,-6.00581c2.85736,-0.29843 5.59265,-0.69731 6.8651,2.46695c0.8383,2.08465 0.3907,4.38566 -0.45103,6.61243c1.57267,-0.06188 3.28373,0.34989 4.66409,0.43061c2.16002,0.12631 4.51378,-1.42272 6.54048,-1.16655c4.84223,0.61206 3.82911,7.23847 2.16469,10.18369c-1.1393,2.01601 -2.24181,2.78381 -4.38966,3.53102c-1.6521,0.34298 -2.76901,1.34851 -4.17714,1.82359c0.2488,2.53024 0.28747,5.16413 0.23993,7.45243c-0.04225,2.03405 0.26555,3.0445 -1.8814,4.42645c-0.67855,0.43677 -3.49468,0.60499 -4.44045,0.69933c-0.37014,0.03692 -0.73713,0.064 -1.10153,0.08246c0.08043,0.12043 0.1194,0.2081 0.1194,0.2081c0.86651,2.01197 2.42354,3.61453 3.46276,5.58747c1.06171,2.01562 1.59634,4.24893 2.27071,6.4171c0.41578,1.33675 0.99547,2.42894 0.5371,3.9158c-1.06575,3.45711 -3.52852,3.08247 -5.88695,1.13799l-0.00001,0.00002c-0.61436,-0.50653 -1.14794,-1.02067 -1.6084,-1.55579l-0.00167,0.23988c1.39494,2.51569 2.85151,5.37101 3.63243,8.15127c1.05768,3.7656 0.42262,8.53838 0.02912,12.37302c-0.96079,3.22504 -4.18676,11.08836 -8.4604,5.74514c-0.25057,-0.31328 -0.43435,-0.65215 -0.56592,-1.00925c-2.06654,1.51283 -5.09944,-0.08284 -6.12047,-2.65311c-0.64606,-1.62636 -0.18604,-3.76893 -0.09787,-5.44416c0.25942,-4.92884 0.10035,-10.36294 1.93892,-14.99283c0,0 0.09339,-0.23347 0.29954,-0.46793c-0.25965,-0.54734 -0.25965,-1.08066 -0.25965,-1.08066c0,-0.43964 -0.01544,-0.90355 -0.03707,-1.38202c-0.79627,-0.65892 -0.79627,-1.78465 -0.79627,-1.78465v-0.83333zM509.85001,313.25992c0.57247,0 0.99928,0.14565 1.3175,0.36284c0.04334,0.00558 0.08513,0.01262 0.12542,0.021c2.95052,0.35872 5.77661,0.77756 8.82641,0.47177c1.07877,-0.10816 2.24459,0.13098 3.23844,-0.30226c0.943,-0.41107 0.49474,-2.64154 0.45747,-3.34662c-0.00502,-0.09503 -0.00983,-0.19057 -0.01445,-0.28657c-0.18735,0.00241 -0.31555,-0.02323 -0.31555,-0.02323l-0.54821,-0.13856l0.00001,-0.00001c-6.27773,0 -13.19879,0.87943 -19.42016,-0.51414c-0.25241,0.2964 -0.62117,0.49066 -1.03563,0.51216c0.38145,0.98707 0.92603,1.89699 1.71029,2.60889c1.096,0.99488 3.18586,0.77163 4.73204,0.79293c0.25607,-0.09908 0.56168,-0.15821 0.92642,-0.15821zM501.56942,299.92932c0.02574,0.00224 0.03991,0.00426 0.03991,0.00426l0.6451,0.18704c3.13121,-0.67897 5.38172,0.01088 8.39666,0.48487c3.50329,0.55075 7.31701,0.28064 10.86434,0.48417c0.43986,0.02524 1.00667,0.19363 1.59837,0.36947c-0.07327,-0.35108 -0.15625,-0.69522 -0.25048,-1.03071c0,0 -0.38433,-1.40919 1.02486,-1.79351c1.40919,-0.38433 1.79351,1.02486 1.79351,1.02486c0.16885,0.6345 0.31321,1.30274 0.43607,1.9938c1.2963,-0.55551 2.24284,-1.49027 3.77441,-1.84861c2.45146,-0.7614 5.02483,-5.23862 3.31484,-7.79339c-0.41044,-0.6132 -4.40164,0.89893 -5.10261,0.97089c-1.74133,0.17875 -5.71461,-1.24493 -7.2373,-0.20943c-0.86592,0.58886 -0.92851,1.92253 -1.67267,2.65923l-0.80901,1.45623c-0.24528,0.46209 -0.7314,0.7768 -1.29102,0.7768c-0.8067,0 -1.46066,-0.65396 -1.46066,-1.46066c0,-0.22253 0.04976,-0.43346 0.13878,-0.62223l0.65484,-1.47339c1.11552,-2.50992 2.49352,-4.99533 3.07367,-7.70336c0.10363,-0.48372 0.31276,-2.67909 -0.28846,-3.06256c-0.71222,-0.45427 -2.89921,0.05531 -3.64072,0.12555c-4.02584,0.38134 -7.08793,1.99366 -9.7263,5.01173c-2.75077,3.15729 -3.95282,7.27197 -4.27614,11.44892zM519.02936,342.01416c-0.62216,-2.13191 -1.64148,-4.30646 -2.71186,-6.31709c-0.10152,0.07168 -0.20622,0.13875 -0.3137,0.20124c0.03086,0.1182 0.04729,0.24223 0.04729,0.37009v1.5024c-0.00242,2.80559 -0.31528,5.54562 -0.67307,8.28106c0.25245,2.68869 0.63174,5.35952 0.33027,8.07269c-0.08091,0.72823 -0.74252,3.61294 0.54071,3.923c1.40565,0.33964 2.49861,-4.20132 2.75125,-5.03586c0.32249,-3.33758 0.98439,-7.7242 0.02911,-10.99752zM513.04685,336.53831c-0.59376,-0.0412 -1.18108,-0.17399 -1.72355,-0.39408c-0.02583,0.10343 -0.05081,0.16587 -0.05081,0.16587c-1.90125,4.71418 -1.62254,10.6833 -1.90053,15.72273c-0.00894,0.16203 -0.01774,2.33594 0.06906,2.5686c0.12416,0.33279 1.65219,2.43761 1.96758,0.96362c0.20407,-0.95369 0.11846,-1.94778 0.22616,-2.9171c0.19703,-2.13138 0.4993,-4.23379 0.78062,-6.33695c-0.43632,-2.99617 -0.78342,-6.04606 0.40445,-8.63659c0.00337,-0.00734 0.00675,-0.01466 0.01014,-0.02198l-0.00571,-0.00115zM514.70669,307.06087c0,0 0.01554,0.13991 -0.00645,0.33769c2.82527,-0.10186 5.6289,-0.30159 8.23681,-0.30159l0.75129,0.13088c-0.03443,-0.88491 -0.07785,-1.78021 -0.15038,-2.66386c-2.92445,-0.30566 -5.95818,-0.37593 -8.94173,-0.59276l-0.04754,0.24615c-0.00149,0.94929 0.05169,1.90016 0.158,2.84348zM518.22119,321.07756l-0.00725,0.85625c0.15594,1.57594 0.1382,3.03757 0.48829,4.58002c0.29384,2.64461 1.03861,3.84853 3.01721,5.64245c0.38664,0.35055 0.78801,1.25261 1.22778,0.97158c0.34073,-0.21774 -0.50832,-2.74295 -0.56807,-2.92896c-0.63913,-1.98975 -1.08398,-4.0851 -2.06953,-5.9359c-0.62114,-1.16648 -1.37877,-2.19707 -2.09186,-3.25606c0.00343,0.04479 0.00343,0.07062 0.00343,0.07062zM507.28723,302.94714c-1.38685,-0.2427 -2.73129,-0.35649 -4.39908,0.02521l-1.41007,-0.12237c0.01325,1.10154 0.07723,2.1928 0.17946,3.25713c0.38557,-0.04421 0.70791,0.06323 0.70791,0.06323c1.61096,0.56212 3.32242,0.89621 5.08748,1.08243c-0.00825,-0.93095 -0.06079,-1.86267 -0.16357,-2.78767zM511.70521,303.69987c-0.50251,-0.0604 -1.00202,-0.12874 -1.49774,-0.20695l-0.00127,0.81063c0.11556,1.04 0.16422,2.08825 0.16883,3.13479c0.47836,0.01295 0.95868,0.01862 1.44009,0.01848c-0.00888,-0.04631 -0.01189,-0.07335 -0.01189,-0.07335c-0.11525,-1.05068 -0.17438,-2.1091 -0.17587,-3.16609z" data-paper-data="{&quot;index&quot;:null}" fill="#000000" stroke="none" stroke-width="0.5" stroke-linecap="butt"/><path d="M519.01765,323.08579c-1.17965,-0.10029 -2.28524,-0.33607 -3.39997,-0.52985c-0.08392,-0.42571 -0.12556,-0.80683 -0.12456,-1.03047c0.00319,-0.71884 -0.21917,-1.78994 -0.00874,-2.46257c0.37013,-1.18313 4.90055,-2.12427 6.0888,-2.45563c1.25393,-0.47321 2.42003,-1.16858 3.66152,-1.64804c0.87894,-0.33945 1.70206,0.11961 2.57443,-0.33808c0,0 0.13525,-0.07136 0.13837,-0.20825c0.01406,-0.0014 0.02813,-0.0028 0.04221,-0.00418c1.52623,-0.596 4.41072,-1.41845 5.89332,-0.17004c2.02997,1.70932 1.53083,3.34619 -0.11481,4.87711c-1.17203,1.09032 -3.64248,1.37054 -5.09397,1.95212c-2.92386,1.17152 -6.41378,2.29356 -9.65661,2.01788zM523.5765,317.89897c-0.32201,0.11825 -1.07585,0.29438 -1.61748,-0.37063c-1.2397,0.73809 -2.46801,1.49358 -3.78634,2.10268c-0.23274,0.10753 -0.46906,0.20782 -0.70808,0.3025c0.58198,0.09597 1.17117,0.18248 1.77724,0.23955c2.78563,0.26232 5.82802,-0.81053 8.33033,-1.81064c1.26486,-0.50552 3.67373,-0.74147 4.70408,-1.7069c0.23329,-0.2186 -0.63913,-0.04582 -0.95859,-0.0329c-0.90145,0.03645 -1.79507,0.29113 -2.63372,0.62371c-1.72086,0.19207 -3.38661,0.51279 -5.10745,0.65262z" data-paper-data="{&quot;index&quot;:null}" fill="#000000" stroke="none" stroke-width="0.5" stroke-linecap="butt"/><path d="M507.33039,304.45748c0.10279,0.92501 0.14756,1.88954 0.1558,2.82049c-1.76506,-0.18622 -3.54615,-0.52505 -5.15711,-1.08717c0,0 -0.32475,-0.11247 -0.71032,-0.06825c-0.10223,-1.06433 -0.16138,-2.19532 -0.17463,-3.29686l1.41829,0.11379c1.66779,-0.3817 3.07175,-0.2595 4.4586,-0.0168z" data-paper-data="{&quot;noHover&quot;:false,&quot;origItem&quot;:[&quot;Path&quot;,{&quot;applyMatrix&quot;:true,&quot;segments&quot;:[[[1095.48797,616.93017],[0,0],[-0.20556,1.85001]],[[1095.16083,622.5055],[0.01649,-1.8619],[3.53012,-0.37244]],[[1105.33578,620.34065],[-3.22192,1.12423],[0,0]],[[1106.75161,620.21419],[-0.77114,-0.08843],[0.20447,-2.12866]],[[1107.11054,613.69993],[-0.02651,2.20308],[0,0]],[[1104.2904,613.94467],[0,0],[-3.33558,-0.7634]],[[1095.49225,613.89425],[2.7737,-0.4854],[0,0]]],&quot;closed&quot;:true}],&quot;index&quot;:null}" fill="url(#color-3)" stroke="none" stroke-width="0.5" stroke-linecap="butt"/><path d="M514.66131,307.41364c0.02199,-0.19778 0.00552,-0.34035 0.00552,-0.34035c-0.1063,-0.94332 -0.15938,-1.91938 -0.15789,-2.86867l0.04825,-0.24818c2.98355,0.21683 6.09676,0.29162 9.02121,0.59728c0.07253,0.88365 0.11503,1.80255 0.14946,2.68746l-0.75168,-0.12975c-2.60791,0 -5.4896,0.20035 -8.31486,0.30221z" data-paper-data="{&quot;noHover&quot;:false,&quot;origItem&quot;:[&quot;Path&quot;,{&quot;applyMatrix&quot;:true,&quot;segments&quot;:[[[1080.65332,622.12172],[0,0],[0.21261,-1.88664]],[[1080.96932,616.43475],[0.00299,1.89858],[0,0]],[[1080.87424,615.94245],[0,0],[-5.96709,0.43366]],[[1062.99078,617.12796],[5.8489,-0.61131],[-0.14506,1.76731]],[[1062.69003,622.45567],[0.06885,-1.76981],[0,0]],[[1064.19261,622.19392],[0,0],[5.21582,0]],[[1080.66622,622.7971],[-5.65053,-0.20373],[-0.04399,-0.39556]]],&quot;closed&quot;:true}],&quot;index&quot;:null}" fill="url(#color-4)" stroke="none" stroke-width="0.5" stroke-linecap="butt"/><path d="M511.64573,304.17991c0.00149,1.05699 0.05825,2.19142 0.1735,3.2421c0,0 0.0027,0.02717 0.01158,0.07348c-0.48141,0.00013 -0.99028,-0.0045 -1.46863,-0.01745c-0.00461,-1.04654 -0.06406,-2.1689 -0.17961,-3.2089l0.00923,-0.81491c0.49572,0.07821 1.02612,0.14637 1.52863,0.20677z" data-paper-data="{&quot;noHover&quot;:false,&quot;origItem&quot;:[&quot;Path&quot;,{&quot;applyMatrix&quot;:true,&quot;segments&quot;:[[[1086.81195,616.43475],[0,0],[-0.00298,2.11398]],[[1086.46022,622.76693],[0.2305,-2.10137],[0,0]],[[1086.43644,622.91363],[0.01777,-0.09261],[0.96282,0.00027]],[[1089.31661,622.87666],[-0.95671,0.02591],[0.00922,-2.09308]],[[1089.65427,616.60707],[-0.23111,2.08],[0,0]],[[1089.65172,614.98581],[0,0],[-0.99144,0.15641]],[[1086.65624,615.3997],[1.00502,-0.1208],[0,0]]],&quot;closed&quot;:true}],&quot;index&quot;:null}" fill="url(#color-5)" stroke="none" stroke-width="0.5" stroke-linecap="butt"/><path d="M512.81642,337.69228l0.00568,0.00113c-0.0034,0.00732 0.00892,-0.06733 0.00555,-0.05999c-1.18787,2.59053 -0.80742,5.68813 -0.3711,8.6843c-0.28132,2.10316 -0.62204,4.24049 -0.81907,6.37187c-0.1077,0.96932 -0.02392,1.96349 -0.22799,2.91718c-0.3154,1.47399 -1.85281,-0.6317 -1.97697,-0.96449c-0.0868,-0.23265 -0.08186,-2.40755 -0.07292,-2.56959c0.27799,-5.03943 0.01192,-11.09015 1.91317,-15.80433c0,0 0.02518,-0.06243 0.05102,-0.16586c0.54247,0.22009 1.13718,0.35362 1.73094,0.39482z" data-paper-data="{&quot;noHover&quot;:false,&quot;origItem&quot;:[&quot;Path&quot;,{&quot;applyMatrix&quot;:true,&quot;segments&quot;:[[1084.41817,683.30254],[[1084.40675,683.30483],[0,0],[0.00679,0.01464]],[[1084.42703,683.3488],[-0.00673,-0.01468],[2.37574,5.18106]],[[1085.23593,700.62198],[0.87263,-5.99234],[0.56264,4.20632]],[[1086.79716,713.29588],[-0.39405,-4.26276],[0.2154,1.93864]],[[1087.24948,719.13008],[-0.40813,-1.90739],[0.63079,2.94797]],[[1091.18463,717.20284],[-0.24832,0.66559],[0.1736,-0.46531]],[[1091.32275,712.06563],[0.01788,0.32408],[-0.55598,-10.07886]],[[1087.52169,680.62017],[3.8025,9.42836],[0,0]],[[1087.42007,680.28843],[0.05167,0.20687],[-1.08495,0.44018]],[[1083.97297,681.07658],[1.18752,-0.0824],[0,0]]],&quot;closed&quot;:true}],&quot;index&quot;:null}" fill="url(#color-6)" stroke="none" stroke-width="0.5" stroke-linecap="butt"/><path d="M519.04221,341.97448c0.95528,3.27331 0.29074,7.7401 -0.03176,11.07768c-0.25264,0.83454 -1.36029,5.37653 -2.76594,5.03689c-1.28323,-0.31006 -0.62693,-3.19568 -0.54601,-3.92391c0.30147,-2.71316 -0.1068,-5.44007 -0.35925,-8.12876c0.35779,-2.73544 0.70305,-5.50122 0.70548,-8.30681l0.00088,-1.50252c0,-0.12786 -0.01643,-0.25189 -0.04729,-0.37009c0.10748,-0.0625 0.21343,-0.1297 0.31495,-0.20139c1.07037,2.01063 2.10677,4.187 2.72894,6.31891z" data-paper-data="{&quot;noHover&quot;:false,&quot;origItem&quot;:[&quot;Path&quot;,{&quot;applyMatrix&quot;:true,&quot;segments&quot;:[[[1072.00798,692.02832],[1.24434,-4.26381],[-1.91055,6.54663]],[[1072.06621,714.02337],[-0.64499,-6.67517],[0.50528,1.66908]],[[1077.56871,724.09509],[-2.8113,0.67928],[2.56645,-0.62012]],[[1078.65013,716.2491],[0.16183,1.45645],[-0.60293,-5.42633]],[[1079.31067,700.10372],[-0.5049,5.37738],[-0.71558,-5.47088]],[[1077.96453,683.5416],[0.00485,5.61117],[0,0]],[[1077.96453,680.53681],[0,0],[0,-0.25573]],[[1078.05912,679.79663],[-0.06173,0.23639],[-0.21497,-0.12498]],[[1077.43171,679.39415],[0.20304,0.14337],[-2.14075,4.02126]]],&quot;closed&quot;:true}],&quot;index&quot;:null}" fill="url(#color-7)" stroke="none" stroke-width="0.5" stroke-linecap="butt"/><path d="M521.91864,317.51773c0.54164,0.665 1.2959,0.48735 1.6179,0.3691c1.72084,-0.13983 3.4667,-0.45969 5.18756,-0.65176c0.83865,-0.33258 1.73245,-0.58658 2.6339,-0.62303c0.31946,-0.01291 1.19225,-0.18423 0.95895,0.03438c-1.03035,0.96543 -3.43822,1.21139 -4.70308,1.71692c-2.5023,1.0001 -5.62606,2.08511 -8.41169,1.8228c-0.60607,-0.05708 -1.19639,-0.14772 -1.77836,-0.2437c0.23902,-0.09468 0.47515,-0.19584 0.7079,-0.30337c1.31833,-0.60911 2.54722,-1.38326 3.78693,-2.12135z" data-paper-data="{&quot;noHover&quot;:false,&quot;origItem&quot;:[&quot;Path&quot;,{&quot;applyMatrix&quot;:true,&quot;segments&quot;:[[[1095.1308,664.17353],[-0.09138,-0.67994],[1.3588,3.17445]],[[1098.74344,673.81701],[-1.26643,-3.22323],[0.19447,1.79386]],[[1100.09835,679.05782],[-0.77689,-1.62856],[0.27532,0.57713]],[[1101.05124,680.72271],[-0.16893,0.61671],[0.74605,-2.72363]],[[1099.67997,670.80873],[0.28634,2.70919],[-0.56648,-5.35967]],[[1095.10764,654.38359],[3.06397,4.68256],[-0.66663,-1.01879]],[[1093.02512,651.4635],[0.71296,0.93985],[0.05562,0.51116]],[[1093.15091,652.99834],[-0.02702,-0.51205],[0.15304,2.90043]],[[1092.96554,661.65838],[0.1485,-2.88175],[1.68185,0.33738]]],&quot;closed&quot;:true}],&quot;index&quot;:null}" fill="url(#color-8)" stroke="none" stroke-width="0.5" stroke-linecap="butt"/><path d="M518.20575,321.0388c0,0 0.00013,-0.02588 -0.0033,-0.07067c0.71309,1.05898 1.48149,2.08691 2.10263,3.25339c0.98554,1.8508 1.45553,4.02394 2.09466,6.0137c0.05975,0.18601 0.90324,2.71385 0.56251,2.93159c-0.43977,0.28103 -0.8473,-0.61919 -1.23394,-0.96974c-1.9786,-1.79392 -2.77216,-3.05071 -3.06601,-5.69532c-0.35009,-1.54245 -0.31005,-3.02982 -0.46599,-4.60576l0.00943,-0.85719z" data-paper-data="{&quot;noHover&quot;:false,&quot;origItem&quot;:[&quot;Path&quot;,{&quot;applyMatrix&quot;:true,&quot;segments&quot;:[[[1073.63116,650.01387],[-0.00687,0.08958],[-1.42618,2.11797]],[[1069.44743,656.52599],[1.24229,-2.33296],[-1.97109,3.7016]],[[1065.30836,668.3978],[1.27826,-3.97951],[-0.1195,0.37202]],[[1064.17222,674.25572],[-0.68146,-0.43548],[0.87954,0.56207]],[[1066.62778,672.31256],[-0.77328,0.70111],[3.9572,-3.58784]],[[1072.66221,661.02765],[-0.58769,5.28922],[0.70018,-3.0849]],[[1073.63879,651.86762],[-0.31189,3.15187],[0,0]],[1073.62429,650.15511]],&quot;closed&quot;:true}],&quot;index&quot;:null}" fill="url(#color-9)" stroke="none" stroke-width="0.5" stroke-linecap="butt"/><path d="M514.97862,318.11313c-0.00212,4.27992 0.16863,8.65171 0.16984,12.93917c-0.02443,0.22958 -0.14543,1.85098 -0.36203,2.18333c-0.39855,0.61152 -2.84351,0.57863 -3.03691,-0.17882c-1.37075,-5.36868 0.20811,-11.06039 0.55979,-16.3995c0.84427,0.10036 1.69483,0.19786 2.53422,0.27479z" data-paper-data="{&quot;noHover&quot;:false,&quot;origItem&quot;:[&quot;Path&quot;,{&quot;applyMatrix&quot;:true,&quot;segments&quot;:[[[1080.13018,644.30709],[0,0],[0.00423,8.55984]],[[1079.79632,670.02545],[0.00242,-8.57492],[0.04887,0.45917]],[[1080.5102,674.38941],[-0.43321,-0.6647],[0.79709,1.22304]],[[1086.55285,674.03147],[-0.38679,1.51491],[2.7415,-10.73736]],[[1085.43966,641.39766],[0.70336,10.67823],[-1.68854,0.20073]],[[1080.39626,641.946],[1.67878,-0.15386],[0,0]]],&quot;closed&quot;:true}],&quot;index&quot;:null}" fill="url(#color-10)" stroke="none" stroke-width="0.5" stroke-linecap="butt"/><path d="M501.57155,299.95127c0,0 -0.01419,-0.00206 -0.03993,-0.00431c0.32332,-4.17695 1.52357,-8.32245 4.27434,-11.47974c2.63836,-3.01808 5.73055,-4.65788 9.75639,-5.03922c0.74151,-0.07024 2.94504,-0.58032 3.65726,-0.12605c0.60122,0.38347 0.39727,2.58006 0.29365,3.06378c-0.58015,2.70803 -1.94584,5.19959 -3.06136,7.70951l-0.65801,1.47129c-0.08901,0.18877 -0.14046,0.39875 -0.14046,0.62129c0,0.8067 0.63878,1.45597 1.44548,1.45597c0.55962,0 1.03461,-0.31443 1.27989,-0.77652l0.79682,-1.45227c0.74417,-0.7367 0.78411,-2.03788 1.65003,-2.62674c1.52269,-1.0355 5.49576,0.39064 7.23709,0.21188c0.70097,-0.07196 4.77555,-1.58285 5.18599,-0.96965c1.70999,2.55477 -0.86939,7.05466 -3.32085,7.81605c-1.53157,0.35834 -2.48566,1.3023 -3.78197,1.8578c-0.12286,-0.69107 -0.32632,-1.41811 -0.49517,-2.05261c0,0 -0.32388,-1.35166 -1.73307,-0.96734c-1.40918,0.38432 -1.03166,1.79901 -1.03166,1.79901c0.09423,0.33549 0.17603,0.68037 0.2493,1.03145c-0.5917,-0.17584 -1.16311,-0.34184 -1.60297,-0.36708c-3.54734,-0.20353 -7.4051,0.06015 -10.90839,-0.4906c-3.01494,-0.47399 -5.27564,-1.17688 -8.40685,-0.49791l-0.64557,-0.188z" data-paper-data="{&quot;noHover&quot;:false,&quot;origItem&quot;:[&quot;Path&quot;,{&quot;applyMatrix&quot;:true,&quot;segments&quot;:[[[1106.92786,607.85856],[-0.05147,0.00449],[-0.64665,-8.3539]],[[1098.37558,584.96072],[5.50155,6.31458],[-5.27673,-6.03614]],[[1078.92297,574.93726],[8.05168,0.76268],[-1.48302,-0.14047]],[[1071.64153,574.68617],[1.42444,-0.90854],[-1.20243,0.76694]],[[1071.06461,580.81128],[-0.20725,-0.96743],[1.1603,5.41606]],[[1077.21195,596.218],[-2.23104,-5.01984],[0,0]],[[1078.52163,599.16477],[0,0],[0.17803,0.37754]],[[1078.7992,600.40924],[0,-0.44508],[0,1.6134]],[[1075.87788,603.33056],[1.6134,0],[-1.11924,0]],[[1073.29585,601.77695],[0.49056,0.92419],[0,0]],[[1071.67782,598.8645],[0,0],[-1.48833,-1.4734]],[[1068.33248,593.54604],[1.73184,1.17773],[-3.04537,-2.07099]],[[1053.85789,593.96489],[3.48266,0.35751],[-1.40194,-0.14391]],[[1043.65268,592.0231],[0.82087,-1.22639],[-3.41998,5.10954]],[[1050.28235,607.60987],[-4.90292,-1.52279],[3.06313,0.71668]],[[1057.83118,611.30708],[-2.59262,-1.11101],[0.24572,-1.38213]],[[1058.70331,607.31948],[-0.3377,1.26901],[0,0]],[[1062.29034,605.26975],[-2.81838,-0.76865],[2.81838,0.76865]],[[1064.34007,608.85678],[0,0],[-0.18846,0.67098]],[[1063.83911,610.9182],[0.14655,-0.70216],[1.1834,-0.35168]],[[1067.03584,610.17926],[-0.87972,0.05047],[7.09467,-0.40706]],[[1088.76453,609.21092],[-7.00658,1.10151],[6.02988,-0.94797]],[[1105.55785,608.24117],[-6.26241,-1.35794],[0,0]],[1106.84804,607.86709]],&quot;closed&quot;:true}],&quot;index&quot;:null}" fill="url(#color-11)" stroke="none" stroke-width="0.5" stroke-linecap="butt"/><path d="M503.47631,309.4943c6.22137,1.39357 13.22398,0.51622 19.50171,0.51622l0.54837,0.13951c0,0 0.12824,0.02592 0.3156,0.02351c0.00462,0.096 0.00959,0.19264 0.01462,0.28767c0.03727,0.70508 0.48514,2.94888 -0.45786,3.35995c-0.99385,0.43324 -2.16099,0.19917 -3.23975,0.30733c-3.04981,0.30579 -5.94619,-0.09765 -8.89672,-0.45637c-0.0882,-0.01835 -0.1857,-0.03274 -0.28882,-0.03708c-0.47991,-0.05741 -0.96894,-0.12188 -1.45747,-0.17145c-1.55312,-0.13998 -4.1119,0.30356 -5.36604,-0.83488c-0.78426,-0.7119 -1.32839,-1.63241 -1.70984,-2.61948c0.41446,-0.0215 0.7838,-0.21854 1.03621,-0.51494z" data-paper-data="{&quot;noHover&quot;:false,&quot;origItem&quot;:[&quot;Path&quot;,{&quot;applyMatrix&quot;:true,&quot;segments&quot;:[[[1064.19261,628.03656],[12.55545,0],[0,0]],[1063.09619,628.31369],[[1062.46509,628.36014],[0.37471,0.00483],[-0.00924,0.19201]],[[1062.43618,628.93328],[0.01005,-0.19005],[-0.07454,1.41016]],[[1063.35112,635.62651],[-1.886,-0.82214],[1.9877,0.86648]],[[1069.828,636.23104],[-2.15753,-0.21633],[6.09961,0.61158]],[[1087.48083,635.2875],[-5.90106,0.71743],[0.17641,-0.03668]],[[1088.05424,635.21831],[-0.20624,0.00867],[0.95982,-0.11483]],[[1090.95808,634.89401],[-0.97707,0.09914],[3.10624,-0.27995]],[[1101.6836,633.25037],[-2.50829,2.27687],[1.56851,-1.42379]],[[1105.10419,628.03258],[-0.76291,1.97414],[-0.82893,-0.04299]],[[1103.03293,627.00827],[0.50482,0.59279],[-12.44275,2.78715]]],&quot;closed&quot;:true}],&quot;index&quot;:null}" fill="url(#color-12)" stroke="none" stroke-width="0.5" stroke-linecap="butt"/><path d="M505.57607,309.3923l0.33386,4.00637" data-paper-data="{&quot;index&quot;:null}" fill="none" stroke="#000000" stroke-width="1.5" stroke-linecap="round"/><path d="M513.08802,310.06002l0.33387,3.33865v2.00319" data-paper-data="{&quot;index&quot;:null}" fill="none" stroke="#000000" stroke-width="1.5" stroke-linecap="round"/><path d="M518.59679,315.068l-0.83466,-6.51037" data-paper-data="{&quot;index&quot;:null}" fill="none" stroke="#000000" stroke-width="1.5" stroke-linecap="round"/><path d="M521.43464,313.89946l-0.83466,-4.67411" data-paper-data="{&quot;index&quot;:null}" fill="none" stroke="#000000" stroke-width="1.5" stroke-linecap="round"/><path d="M509.58245,313.89947l-0.33386,-4.84104" data-paper-data="{&quot;index&quot;:null}" fill="none" stroke="#000000" stroke-width="1.5" stroke-linecap="round"/><path d="M503.07207,310.89468l21.36735,1.50239" data-paper-data="{&quot;index&quot;:null}" fill="none" stroke="#000000" stroke-width="1.5" stroke-linecap="round"/><path d="M505.59971,302.90251c0.64242,-0.92395 4.67851,0.47699 5.60774,0.48414c1.52453,0.01173 5.88422,-0.73501 5.88422,1.84917c0,2.04939 -2.83393,2.6146 -5.83992,2.15777c-1.43098,-0.21747 -2.75096,0.39009 -3.97276,-0.0735c-1.36632,-0.51844 -2.35481,-2.20187 -2.78732,-2.82394z" data-paper-data="{&quot;index&quot;:null}" fill="url(#color-13)" stroke="none" stroke-width="0.5" stroke-linecap="butt"/><path d="M504.22501,298.85991l2.3,4.2l-0.15,4.05" data-paper-data="{&quot;index&quot;:null}" fill="none" stroke="#000000" stroke-width="2.5" stroke-linecap="round"/><path d="M510.82501,307.55991l0.3,-5.4l2.55,-2.6" data-paper-data="{&quot;index&quot;:null}" fill="none" stroke="#000000" stroke-width="2.5" stroke-linecap="round"/><path d="M529.01667,275.67658c27.06195,0 76,44.29688 76,44.29688c0,0 -48.93805,43.20312 -76,43.20312c-27.06195,0 -49,-19.58754 -49,-43.75c0,-24.16246 21.93805,-43.75 49,-43.75z" data-paper-data="{&quot;index&quot;:null}" fill="url(#color-14)" stroke="none" stroke-width="0" stroke-linecap="butt"/></g></g></svg>