<svg version="1.1" xmlns="http://www.w3.org/2000/svg" xmlns:xlink="http://www.w3.org/1999/xlink" width="187.22069" height="318.35941" viewBox="0,0,187.22069,318.35941"><defs><linearGradient x1="447.53557" y1="196.37719" x2="633.54183" y2="211.8282" gradientUnits="userSpaceOnUse" id="color-1"><stop offset="0" stop-color="#ff0000"/><stop offset="1" stop-color="#0050ff"/></linearGradient></defs><g transform="translate(-446.38966,-160.82029)"><g data-paper-data="{&quot;isPaintingLayer&quot;:true}" fill-rule="nonzero" stroke="none" stroke-linecap="butt" stroke-linejoin="miter" stroke-miterlimit="10" stroke-dasharray="" stroke-dashoffset="0" style="mix-blend-mode: normal"><path d="M611.5759,344.64156c-6.47762,77.98038 -48.51812,138.13998 -93.90014,134.37022c-45.38209,-3.76976 -76.92028,-70.0413 -70.44272,-148.02174c6.47762,-77.98038 48.51812,-138.13998 93.90014,-134.37022c45.38209,3.76976 76.92028,70.0413 70.44272,148.02174z" fill="#7f7f7f" stroke-width="0"/><path d="M633.54183,211.8282c-1.95342,23.51613 -45.17592,39.12095 -96.54012,34.85424c-51.3642,-4.26664 -91.41955,-26.78906 -89.46613,-50.30525c1.95342,-23.51613 45.17592,-39.12095 96.54012,-34.85424c51.3642,4.26664 91.41955,26.78906 89.46613,50.30525z" fill="url(#color-1)" stroke-width="0"/><path d="M500,350.5c-1.38071,0 -2.5,-1.11929 -2.5,-2.5v-3c0.00494,-0.33783 -0.00705,-0.67786 -0.02472,-1.01862c-0.59314,-0.45712 -0.97528,-1.17462 -0.97528,-1.98138v-2.99978c-0.0006,-2.54486 -0.02618,-5.04771 -0.09427,-7.53298c-0.13205,0.02155 -0.26758,0.03276 -0.40573,0.03276c-1.38071,0 -2.5,-1.11929 -2.5,-2.5c0,1.38071 -1.11929,2.5 -2.5,2.5c-1.29767,0 -2.36442,-0.9887 -2.48804,-2.2539l-0.54883,-4.93944c-1.656,-5.40213 -1.30621,-12.02269 -2.48825,-17.64527c-0.24153,-1.14888 -0.15142,-2.40335 -0.66639,-3.45837c-0.34821,-0.71336 -1.25682,-1.07236 -1.7796,-1.65455c0.01603,0.87495 0.11507,1.75415 0.08027,2.62854c-0.06628,1.66535 -0.25527,3.32354 -0.38348,4.98527c-0.28999,3.7585 -0.65776,7.83806 -0.23784,11.59137c0.30763,2.74966 0.98538,5.47182 1.01215,8.23851l-0.00174,0.00784h0.00175v5c0,1.38071 -1.11929,2.5 -2.5,2.5c-0.76522,0 -1.45014,-0.3438 -1.90872,-0.88536l-3.24338,-3.78394c-0.26664,-0.23459 -0.52632,-0.47283 -0.7759,-0.71406c0.4984,3.4271 0.39804,5.25687 0.42798,8.87373l-0.00355,0.00964h0.00356v3c0,1.38071 -1.11929,2.5 -2.5,2.5c-1.06038,0 -1.96657,-0.66018 -2.32997,-1.59194l-1.9008,-4.56191l0.19558,-0.08149c-1.48664,-2.32709 -2.70972,-4.79809 -3.37841,-7.61309c-0.0267,-0.11239 -0.05305,-0.22479 -0.07907,-0.33718l-0.08389,0.30202c-0.27453,1.08262 -1.25544,1.88359 -2.42343,1.88359c-1.38071,0 -2.5,-1.11929 -2.5,-2.5c0,-7.33333 0,-17.66667 0,-25c0,-0.63734 -0.01645,-10.17995 0.05446,-10.51898c0.39269,-1.87759 1.16312,-3.46583 2.13032,-4.92731l2.00751,-4.51691c0.37715,-0.90256 1.26836,-1.53681 2.30771,-1.53681c1.38071,0 2.5,1.11929 2.5,2.5c0,0.01259 -0.00009,0.02516 -0.00028,0.0377l-0.05381,4.16144l-0.00453,-0.00006l0.0043,0.01497c-0.0198,0.79037 -0.04669,1.57922 -0.07874,2.3668c0.20219,-0.05276 0.41435,-0.08085 0.63307,-0.08085c0.69036,0 1.31536,0.27982 1.76777,0.73223l2,2l-0.28127,0.28127l0.3597,0.22855c0.54867,-0.31817 1.30595,-0.46107 2.27184,0.02188c2.23607,1.11803 1.11803,3.3541 1.11803,3.3541l-1,2c-0.53932,1.07865 -1.10939,2.15642 -1.68624,3.23677c0.12223,3.79289 0.35062,7.56415 1.06446,11.35575c0.57688,3.06408 0.36738,6.36249 1.64009,9.20882c0.2379,0.53204 0.68711,0.92467 1.1465,1.31164c-0.20439,-2.00012 -0.67152,-3.98281 -0.88872,-5.98467c-0.61039,-5.62578 0.01601,-11.83564 0.61171,-17.45281c0.51908,-4.89464 -0.36719,-10.38815 8.19045,-8.92016c1.40845,0.24161 0.37102,2.8845 0.99537,4.16992c0.37461,0.77126 1.5195,0.97657 1.88182,1.75369c0.22282,0.47791 0.4263,0.97175 0.61261,1.47894c0.33673,-1.12235 0.74626,-2.23107 1.24303,-3.32307c1.00762,-2.21492 1.16133,-5.71378 3.4929,-6.41017c0.87627,-0.26173 1.69771,0.13233 2.43998,0.80345c0.3031,-0.82511 0.63052,-1.65087 0.98393,-2.47826c0.71224,-1.66746 1.6951,-5.31908 3.5364,-6.65312c-0.00019,-2.73825 -0.00037,-5.4765 -0.00037,-8.21475l0,-3c0,0 0,0 0,0c0,-1.38071 1.11929,-2.5 2.5,-2.5c1.22888,0 2.25067,0.88665 2.46053,2.05512l0.9715,4.85749c1.53746,3.88641 1.96876,8.87394 2.99366,12.9824c1.39496,5.59192 2.45967,11.23257 3.15036,16.92113c0.2391,-1.75005 -0.07605,-3.54532 -0.07605,-5.31614c0,0 0,-2.5 2.5,-2.5c2.5,0 2.5,2.5 2.5,2.5c0,0.48002 0.00949,6.14144 -0.03228,6.40046c-0.16784,1.04064 -0.831,1.95954 -1,3c-0.25579,1.57484 0.46745,3.36101 -0.26353,4.77919c-0.5635,1.09323 -1.66346,1.7402 -2.76397,2.39664c0.03575,1.13618 0.05579,2.2742 0.05977,3.41407c0.01513,4.3341 0.0602,8.67579 0.00002,13.00964c-0.01014,0.72995 0.07265,1.47693 0.11502,2.21718c0.94874,2.41382 1.84358,4.83906 2.42746,7.3255c0.44273,-1.68058 1.07687,-3.3331 1.50263,-5.01546c0.62125,-2.45485 -0.09744,-5.06491 -0.04415,-7.5966c0.01061,-0.50383 0.02449,-1.00748 0.04114,-1.51098c-0.84959,-8.7238 0.51404,-17.7995 0.87428,-26.58241c-0.15987,-1.31975 -0.44817,-2.66731 0.08361,-3.83724v-3c0,-1.38071 1.11929,-2.5 2.5,-2.5c1.38071,0 2.5,1.11929 2.5,2.5v3c0.77207,3.24269 0.00035,6.66667 0,10c-0.00068,6.38127 -0.48122,12.74518 -0.8359,19.11558c-0.04143,0.74404 -0.03995,1.51572 -0.01865,2.30258c0.19061,1.34077 0.44601,2.66722 0.77991,3.9755c0,0 0.3702,1.48078 -0.62498,2.41752c-0.04428,0.91919 -0.14681,1.8132 -0.34549,2.66158c-0.62523,2.66977 -1.88895,5.24022 -1.99626,7.98013l-0.18896,0.30366l0.10203,0.03401l-0.98177,2.94531c-0.31417,1.02156 -1.26534,1.76412 -2.38994,1.76412c-0.88153,0 -1.6565,-0.45626 -2.10163,-1.14551l-2.75199,-4.12799l0.02184,-0.01456c-0.06142,-0.08585 -0.12173,-0.1726 -0.18085,-0.26032c-0.02572,-0.03817 -0.68352,-1.91898 -1.41386,-4.01828c-1.6129,1.54957 -3.68519,2.5405 -5.69154,1.30272c-0.52368,-0.32307 -0.96768,-0.75309 -1.34388,-1.26689c-0.01253,0.0452 -0.02522,0.09025 -0.03808,0.13515v2.89567c0,1.38065 -1.11919,2.4999 -2.49982,2.5c-0.4561,0.60722 -1.18227,1 -2.00018,1zM509.31105,316.00936c-0.07967,-1.35136 -0.18352,-2.69734 -0.30976,-4.03894c-0.16217,0.55171 -0.30692,1.09679 -0.43612,1.63692c0.12841,0.91707 0.26104,1.8329 0.39991,2.74674c0.11291,-0.11722 0.22832,-0.23214 0.34597,-0.34473zM508.11803,340.76393c0.07349,0.26829 0.22163,-0.51201 0.36448,-0.7507c0.35433,-0.59205 0.98751,-1.0615 1.12475,-1.73769c0.00042,-0.00206 0.00084,-0.00413 0.00125,-0.00619c-0.01016,-0.02934 -0.01701,-0.04911 -0.0203,-0.05861c-0.05324,-0.15353 -1.15388,-3.32443 -2.07713,-5.99176c-0.05011,2.92036 -0.09015,5.99996 0.60695,8.54495zM508.21793,305.47239c-0.25388,-1.73911 -0.54109,-3.47347 -0.85761,-5.20528c-0.04654,1.07277 -0.09286,2.14532 -0.13946,3.21766c0.09093,0.66892 0.18017,1.33865 0.26852,2.0089c0.22152,-0.04583 0.46437,-0.05784 0.72856,-0.02127zM493.5004,323.87846c-0.00013,-0.0005 -0.00026,-0.00101 -0.0004,-0.00151c0,0.04102 0,0.08204 0,0.12305l0.00035,0c0.00001,-0.04051 0.00003,-0.08103 0.00004,-0.12154zM493.5,321.42598c0.00042,-0.00246 0.00084,-0.00492 0.00126,-0.00738c0.00064,-1.82304 0.00129,-3.64608 0.00193,-5.46912c0.00361,-3.78103 0.17934,-7.41395 0.65268,-10.97458c-0.33182,0.80257 -0.60188,1.60795 -0.68816,2.42555c-0.26585,2.51922 0.03228,5.06634 0.03228,7.59954c0,2.14199 0,4.28399 0,6.42598zM493.5,325c0,0.33333 0,-0.33333 0,0z" fill="#000000" stroke-width="0.5"/><path d="M547,289.5c-2.5,0 -2.5,-2.5 -2.5,-2.5c0,-5.66667 0,-13.33333 0,-19c0,0 0,-2.5 2.5,-2.5c2.5,0 2.5,2.5 2.5,2.5c0,5.66667 0,11.33333 0,17v2c0,0 0,2.5 -2.5,2.5z" fill="#0e00ff" stroke-width="0.5"/><path d="M521,273.5c-2.5,0 -2.5,-2.5 -2.5,-2.5c0,-3.33333 0,-9.66667 0,-13c0,0 0,-2.5 2.5,-2.5c2.5,0 2.5,2.5 2.5,2.5c0,3.33333 0,6.66667 0,10v3c0,0 0,2.5 -2.5,2.5z" fill="#0e00ff" stroke-width="0.5"/><path d="M496,281.5c-2.5,0 -2.5,-2.5 -2.5,-2.5c0,-3.33333 0,-7.66667 0,-11c0,0 0,-2.5 2.5,-2.5c2.5,0 2.5,2.5 2.5,2.5c0,3.33333 0,6.66667 0,10v1c0,0 0,2.5 -2.5,2.5z" fill="#0e00ff" stroke-width="0.5"/><path d="M479,268.5c-2.5,0 -2.5,-2.5 -2.5,-2.5c0,-3.66667 0,-8.33333 0,-12c0,0 0,-2.5 2.5,-2.5c2.5,0 2.5,2.5 2.5,2.5c0,3.66667 0,7.33333 0,11v1c0,0 0,2.5 -2.5,2.5z" fill="#0e00ff" stroke-width="0.5"/></g></g></svg>