<svg version="1.1" xmlns="http://www.w3.org/2000/svg" xmlns:xlink="http://www.w3.org/1999/xlink" width="2043.54354" height="797.44992" viewBox="0,0,2043.54354,797.44992"><g transform="translate(78.21471,-238.77381)"><g data-paper-data="{&quot;isPaintingLayer&quot;:true}" fill-rule="nonzero" stroke="none" stroke-linecap="butt" stroke-linejoin="miter" stroke-miterlimit="10" stroke-dasharray="" stroke-dashoffset="0" style="mix-blend-mode: normal"><path d="M326,740.5v-140h127v140z" fill="#0d8200" stroke-width="0"/><path d="M386,801.5v-218h103v218z" fill="#0d8200" stroke-width="0"/><path d="M426,761.5v-193h78v193z" fill="#0d8200" stroke-width="0"/><path d="M481,723.5v-183h39v183z" fill="#0d8200" stroke-width="0"/><path d="M456,615.5v-64h43v64z" fill="#0d8200" stroke-width="0"/><path d="M-78.21471,1036.22373v-408.40841h2043.54354v408.40841z" fill="#0d8200" stroke-width="0"/><path d="M212.80523,679.96043l-12.54965,-27.82584l307.93923,-138.88258l12.5496,27.82586z" data-paper-data="{&quot;index&quot;:null}" fill="#0d8200" stroke-width="0"/><path d="M912.02102,741.93544v-218h103v218z" fill="#0d8200" stroke-width="0"/><path d="M952.02102,701.93544v-193h78v193z" fill="#0d8200" stroke-width="0"/><path d="M1041.21876,663.93544v-183h43.75063v183z" fill="#0d8200" stroke-width="0"/><path d="M1013.17348,555.93544v-64h48.23787v64z" fill="#0d8200" stroke-width="0"/><path d="M740.35494,620.39587l-14.07833,-27.82584l345.44959,-138.88258l14.07828,27.82586z" data-paper-data="{&quot;index&quot;:null}" fill="#0d8200" stroke-width="0"/><path d="M727.36486,692.37988v-100.6006h229.72973v100.6006z" fill="#0d8200" stroke-width="0"/><path d="M868.50601,627.81532v-93.09309h72.07207v93.09309z" fill="#0d8200" stroke-width="0"/><path d="M799.43694,636.82432v-61.56156h129.12913v61.56156z" fill="#0d8200" stroke-width="0"/><path d="M809.94745,588.77628v-36.03604h76.57658v36.03604z" fill="#0d8200" stroke-width="0"/><path d="M505.14264,672.86036v-157.65766h639.63964v157.65766z" fill="#0d8200" stroke-width="0"/><path d="M701.83934,414.6021v-34.53453c0,0 162.8183,24.02402 186.18619,24.02402c5.64388,0 1.5015,12.01201 1.5015,12.01201l3.003,-1.5015z" fill="#0d8200" stroke-width="0"/><path d="M933.56607,346.02853l3.00301,1.50151c0,0 -4.14238,-12.01202 1.5015,-12.01202c23.36789,0 186.18619,-24.02402 186.18619,-24.02402v34.53453z" data-paper-data="{&quot;index&quot;:null}" fill="#0d8200" stroke-width="0"/><path d="M630.75826,284.96246v-34.53453c0,0 162.8183,24.02402 186.18619,24.02402c5.64388,0 1.5015,12.01202 1.5015,12.01202l3.00301,-1.50151z" fill="#0d8200" stroke-width="0"/><path d="M636.30887,260.05431l2.92907,-16.25472l165.50258,29.82328l-2.92907,16.25472z" data-paper-data="{&quot;index&quot;:null}" fill="#0d8200" stroke-width="0"/><path d="M726.5829,273.22847c-3.62905,-0.94473 -2.68432,-4.57377 -2.68432,-4.57377l0.08398,-0.32258c0.88699,-3.40726 1.81247,-10.4296 5.35799,-12.02915c2.15417,-0.97184 4.72825,0.17115 6.87515,1.82235c1.05252,-1.80534 2.73527,-3.07118 5.72552,-3.04534c1.86045,0.01608 3.55004,1.20065 4.82209,2.88763c0.59332,-0.04226 1.25568,0.01576 1.99698,0.19539c0.62858,0.15231 1.14219,0.50183 1.57245,0.9747c0.66155,-0.13368 1.32956,-0.16147 1.97596,-0.05097c0.6078,0.10391 1.175,0.36945 1.69562,0.75834c0.10549,-0.05842 0.21379,-0.11291 0.32508,-0.1632c1.89338,-0.85553 4.32945,0.06379 6.13754,1.08737c0.82363,0.46626 1.39353,1.23344 1.89485,2.07005c1.78686,-0.08112 3.48677,1.57503 4.70024,3.28325c1.32154,0.60648 2.64924,1.58299 3.65154,2.69673c1.65903,-1.21277 3.37809,-1.6359 4.99255,-1.24658c4.60708,-3.98898 6.98591,-0.57141 9.89738,2.08362c1.05274,0.96001 2.26704,1.79276 3.22986,2.83425c0.72987,-0.30722 1.56244,-0.38664 2.38804,-0.17388c0.40472,-0.95223 0.97038,-1.772 1.84304,-2.3391c5.31161,-3.45176 6.93073,0.53683 7.65487,3.8093c0.06369,-0.01906 0.12801,-0.03646 0.19299,-0.05211c0.44955,-2.47471 2.23688,-4.13732 7.0772,-3.58146c1.72254,0.19781 2.16102,2.71475 3.15648,4.13439c1.99551,2.84581 3.66046,6.22941 5.40525,9.20233c0,0 1.8981,3.23415 -1.33605,5.13224c-2.52812,1.48374 -4.23985,-0.16858 -4.86672,-0.9607c-0.73192,1.6474 -2.56874,2.57113 -4.37042,2.10211c-0.8123,-0.21147 -1.4928,-0.67358 -1.98017,-1.28188l-2.85024,-3.47227l0.00532,-0.00437c-0.00759,-0.00567 -0.01516,-0.01135 -0.02273,-0.01702c-0.04242,-0.03179 -0.08417,-0.06338 -0.12529,-0.09481c-0.81421,1.4495 -2.52937,2.22839 -4.21381,1.78988c-0.38037,-0.09901 -0.73182,-0.25299 -1.04809,-0.4512c-0.86427,1.28324 -2.47364,1.94552 -4.05589,1.53361c-0.69556,-0.18107 -1.29447,-0.54594 -1.75824,-1.02897c-0.89638,0.73882 -2.12232,1.05209 -3.33242,0.73708c-1.78419,-0.46447 -2.93248,-2.1382 -2.79507,-3.91405c-0.53311,0.25297 -1.70975,0.22788 -3.08564,0.06116c-0.6538,0.20966 -1.37293,0.24238 -2.08655,0.0566c-0.11628,-0.03027 -0.22987,-0.06569 -0.34058,-0.10593c-0.61646,1.31726 -1.17804,2.42904 -1.4775,3.16397l-3.62429,-4.70665c-0.24344,0.46209 -0.57699,0.85956 -0.97208,1.1756c-0.01302,0.24972 -0.05135,0.50186 -0.11681,0.7533c-0.52176,2.00427 -2.5695,3.20609 -4.57378,2.68432c-0.35964,-0.09362 -0.69343,-0.23637 -0.99608,-0.4192l-3.22197,-1.84873l0.00009,-0.00016c-1.11552,-0.66301 -2.24629,-1.35444 -3.29973,-2.10029c-1.07162,-0.29169 -1.90947,-1.02134 -2.37044,-1.94507c-1.24266,-1.22211 -2.17108,-2.59987 -2.512,-4.21016c-0.90595,1.02714 -2.34367,1.5188 -3.75966,1.15019c-0.59402,-0.15464 -1.11755,-0.44333 -1.54662,-0.82519c-0.82249,0.47329 -1.824,0.63663 -2.81489,0.37867c-1.36562,-0.35551 -2.35872,-1.41946 -2.68789,-2.69539c-0.45806,0.05719 -0.93443,0.0302 -1.40838,-0.09318c-1.43728,-0.37415 -2.46191,-1.53306 -2.73418,-2.89791c-0.81654,1.44287 -2.52755,2.21704 -4.20799,1.77957c-1.86827,-0.48635 -3.0393,-2.29864 -2.76702,-4.16568l0.34277,-2.61531l0.23811,0.0312c-0.07745,-0.12166 -0.15888,-0.24122 -0.24468,-0.35847c-0.20953,-0.28632 -0.49969,-0.50569 -0.79897,-0.71591c-0.18014,1.80792 -1.27356,4.28387 -1.49398,5.13058l-0.08398,0.32258c0,0 -0.94474,3.62904 -4.57378,2.68432z" fill="#14c700" stroke-width="0.5"/><path d="M642.12816,256.9227c-3.62904,-0.94474 -2.68432,-4.57378 -2.68432,-4.57378l0.08398,-0.32258c0.88699,-3.40725 1.81248,-10.4296 5.358,-12.02915c2.15417,-0.97184 4.72825,0.17115 6.87515,1.82235c1.05251,-1.80535 2.73527,-3.07118 5.72552,-3.04534c1.86045,0.01608 3.55005,1.20064 4.82209,2.88763c0.59332,-0.04227 1.25569,0.01576 1.99699,0.19538c0.62857,0.15231 1.14219,0.50184 1.57245,0.97471c0.66155,-0.13367 1.32956,-0.16147 1.97596,-0.05097c0.6078,0.10391 1.175,0.36945 1.69562,0.75834c0.10548,-0.05842 0.21379,-0.11291 0.32507,-0.1632c1.89338,-0.85553 4.32945,0.06379 6.13754,1.08737c0.82363,0.46628 1.39353,1.23344 1.89486,2.07005c1.78686,-0.08112 3.48677,1.57503 4.70025,3.28324c1.32154,0.60648 2.64923,1.58299 3.65153,2.69672c1.65902,-1.21277 3.37809,-1.6359 4.99255,-1.24658c4.60708,-3.98898 6.98591,-0.57141 9.89739,2.08362c1.05275,0.96001 2.26704,1.79276 3.22986,2.83425c0.72986,-0.30723 1.56244,-0.38664 2.38803,-0.17389c0.40471,-0.95224 0.97039,-1.772 1.84304,-2.3391c5.31161,-3.45176 6.93073,0.53683 7.65487,3.8093c0.06369,-0.01906 0.128,-0.03646 0.193,-0.05211c0.44955,-2.47472 2.23688,-4.13732 7.0772,-3.58145c1.72254,0.19781 2.16102,2.71475 3.15648,4.13439c1.99551,2.84581 3.66046,6.22941 5.40526,9.20233c0,0 1.89809,3.23414 -1.33606,5.13224c-2.52812,1.48374 -4.23985,-0.16859 -4.86673,-0.9607c-0.7319,1.6474 -2.56874,2.57113 -4.37042,2.10211c-0.81231,-0.21146 -1.49279,-0.67358 -1.98017,-1.28188l-2.85024,-3.47228l0.00532,-0.00437c-0.00759,-0.00567 -0.01515,-0.01135 -0.02272,-0.01702c-0.04242,-0.03179 -0.08418,-0.06339 -0.1253,-0.09481c-0.81421,1.4495 -2.52937,2.22839 -4.21381,1.78988c-0.38036,-0.09901 -0.73182,-0.25299 -1.04809,-0.4512c-0.86427,1.28325 -2.47364,1.94552 -4.0559,1.53362c-0.69555,-0.18107 -1.29446,-0.54594 -1.75824,-1.02897c-0.89637,0.73883 -2.12232,1.05209 -3.33242,0.73708c-1.78419,-0.46446 -2.93247,-2.13821 -2.79507,-3.91405c-0.53311,0.25297 -1.70975,0.22788 -3.08563,0.06116c-0.65381,0.20964 -1.37293,0.24238 -2.08655,0.05661c-0.11629,-0.03027 -0.22989,-0.06568 -0.34058,-0.10592c-0.61645,1.31725 -1.17804,2.42904 -1.4775,3.16397l-3.62429,-4.70665c-0.24345,0.46209 -0.57699,0.85956 -0.97208,1.1756c-0.01302,0.24972 -0.05135,0.50186 -0.11681,0.7533c-0.52176,2.00428 -2.5695,3.20608 -4.57378,2.68432c-0.35964,-0.09363 -0.69343,-0.23637 -0.99607,-0.4192l-3.22197,-1.84873l0.00009,-0.00017c-1.11552,-0.66301 -2.24629,-1.35443 -3.29974,-2.10028c-1.07162,-0.29168 -1.90948,-1.02134 -2.37044,-1.94507c-1.24266,-1.2221 -2.17107,-2.59987 -2.51199,-4.21017c-0.90595,1.02714 -2.34366,1.51881 -3.75965,1.15019c-0.59402,-0.15464 -1.11755,-0.44333 -1.54662,-0.8252c-0.82248,0.47329 -1.824,0.63662 -2.81489,0.37867c-1.36562,-0.35551 -2.35871,-1.41946 -2.68789,-2.69539c-0.45806,0.05719 -0.93444,0.0302 -1.40839,-0.09318c-1.43729,-0.37416 -2.4619,-1.53306 -2.73418,-2.89792c-0.81655,1.44288 -2.52755,2.21705 -4.20799,1.77958c-1.86827,-0.48636 -3.0393,-2.29864 -2.76702,-4.16567l0.34277,-2.61531l0.23811,0.0312c-0.07745,-0.12166 -0.15887,-0.24122 -0.24467,-0.35847c-0.20953,-0.28632 -0.49969,-0.50569 -0.79897,-0.71591c-0.18014,1.80793 -1.27355,4.28386 -1.49398,5.13058l-0.08398,0.32258c0,0 -0.94474,3.62904 -4.57379,2.68431z" fill="#14c700" stroke-width="0.5"/><path d="M702.82753,388.71393l2.23751,-16.36426l166.61788,22.78192l-2.23751,16.36426z" data-paper-data="{&quot;index&quot;:null}" fill="#0d8200" stroke-width="0"/><path d="M793.5788,398.05012c-3.66583,-0.79007 -2.87576,-4.45589 -2.87576,-4.45589l0.07023,-0.32585c0.74178,-3.44179 1.36879,-10.49705 4.84334,-12.24543c2.11105,-1.06227 4.73126,-0.0294 6.94621,1.52932c0.97505,-1.84833 2.60264,-3.18435 5.5913,-3.28527c1.85946,-0.06279 3.59774,1.04911 4.94014,2.68066c0.59099,-0.06737 1.25522,-0.03747 2.00347,0.11057c0.63447,0.12553 1.16243,0.45297 1.61235,0.90718c0.65529,-0.1616 1.32152,-0.21768 1.97202,-0.13467c0.61165,0.07806 1.18961,0.31932 1.72624,0.68579c0.10292,-0.06284 0.20881,-0.12187 0.31788,-0.17683c1.85542,-0.93501 4.32826,-0.11976 6.17811,0.82626c0.84265,0.43094 1.44455,1.17327 1.98088,1.98788c1.78182,-0.15678 3.55039,1.42583 4.83518,3.08109c1.34606,0.54992 2.71395,1.46929 3.76255,2.53954c1.60614,-1.28199 3.30572,-1.77761 4.93523,-1.45706c4.43387,-4.18066 6.95541,-0.86699 9.97679,1.66226c1.09248,0.91453 2.34099,1.69506 3.34709,2.69481c0.7162,-0.33788 1.54465,-0.45252 2.37852,-0.27493c0.36399,-0.96853 0.89441,-1.81153 1.74225,-2.41511c5.16053,-3.67378 6.94726,0.2426 7.80944,3.48144c0.06282,-0.02174 0.12635,-0.04185 0.19061,-0.06024c0.34426,-2.49154 2.05951,-4.22841 6.91905,-3.8782c1.72938,0.12463 2.27414,2.62072 3.32887,3.99689c2.11433,2.75867 3.9212,6.06867 5.79042,8.96497c0,0 2.03346,3.15079 -1.11733,5.18426c-2.46296,1.58955 -4.24318,0.01128 -4.90306,-0.75357c-0.66143,1.67694 -2.45745,2.67769 -4.2774,2.28546c-0.82054,-0.17685 -1.52,-0.60971 -2.03272,-1.1968l-2.99484,-3.34835l0.00513,-0.00459c-0.00782,-0.00534 -0.01563,-0.0107 -0.02343,-0.01604c-0.04372,-0.02996 -0.08678,-0.05976 -0.1292,-0.08942c-0.75205,1.48271 -2.43265,2.33359 -4.13417,1.96687c-0.38422,-0.0828 -0.74189,-0.22175 -1.06627,-0.40637c-0.80911,1.31872 -2.38896,2.04861 -3.98725,1.70413c-0.70261,-0.15143 -1.31645,-0.49058 -1.80027,-0.95352c-0.86426,0.77615 -2.07582,1.1411 -3.29818,0.87765c-1.80227,-0.38844 -3.02047,-2.01199 -2.95845,-3.79207c-0.52191,0.27533 -1.69856,0.30014 -3.08027,0.19188c-0.64433,0.23718 -1.36142,0.30036 -2.08228,0.14499c-0.11746,-0.02532 -0.23245,-0.05589 -0.34477,-0.0914c-0.56007,1.3422 -1.07403,2.47678 -1.34208,3.22375l-3.82052,-4.54881c-0.22363,0.472 -0.54004,0.88324 -0.92138,1.21575c-0.00243,0.25005 -0.03004,0.50358 -0.08478,0.75758c-0.43634,2.02458 -2.43131,3.31211 -4.4559,2.87577c-0.36328,-0.0783 -0.70283,-0.20677 -1.01295,-0.37661l-3.29743,-1.71052l0.00008,-0.00016c-1.14262,-0.61513 -2.30167,-1.25802 -3.38579,-1.95855c-1.08302,-0.24601 -1.95104,-0.93949 -2.45075,-1.84285c-1.29334,-1.16834 -2.27932,-2.50552 -2.68818,-4.09991c-0.86161,1.06461 -2.27719,1.61677 -3.70753,1.3085c-0.60004,-0.12932 -1.13534,-0.39556 -1.58021,-0.7589c-0.80169,0.50772 -1.79538,0.71336 -2.79631,0.49764c-1.37946,-0.29731 -2.41676,-1.31821 -2.79971,-2.57905c-0.45523,0.07656 -0.93231,0.06977 -1.41106,-0.03341c-1.45185,-0.3129 -2.52467,-1.42734 -2.85454,-2.77942c-0.75466,1.47618 -2.43131,2.32218 -4.12879,1.95632c-1.88721,-0.40673 -3.13399,-2.16776 -2.94109,-4.04466l0.23161,-2.62749l0.23922,0.02108c-0.08254,-0.11827 -0.16896,-0.23427 -0.25965,-0.34778c-0.22147,-0.27718 -0.52067,-0.48406 -0.8286,-0.6814c-0.10335,1.81393 -1.09085,4.334 -1.27518,5.18929l-0.07023,0.32585c0,0 -0.79008,3.66582 -4.4559,2.87576z" fill="#14c700" stroke-width="0.5"/><path d="M708.50886,385.33849c-3.66582,-0.79008 -2.87576,-4.4559 -2.87576,-4.4559l0.07023,-0.32585c0.74178,-3.44178 1.3688,-10.49705 4.84335,-12.24543c2.11105,-1.06227 4.73126,-0.0294 6.94621,1.52932c0.97505,-1.84834 2.60264,-3.18435 5.5913,-3.28527c1.85946,-0.06279 3.59774,1.0491 4.94014,2.68066c0.591,-0.06738 1.25523,-0.03748 2.00347,0.11056c0.63446,0.12553 1.16243,0.45298 1.61235,0.90719c0.65529,-0.16159 1.32152,-0.21768 1.97202,-0.13467c0.61165,0.07806 1.18961,0.31932 1.72624,0.68579c0.10291,-0.06284 0.20881,-0.12187 0.31787,-0.17683c1.85542,-0.93501 4.32826,-0.11976 6.17811,0.82626c0.84266,0.43095 1.44455,1.17327 1.98089,1.98788c1.78182,-0.15678 3.55039,1.42583 4.83518,3.08108c1.34606,0.54992 2.71394,1.46929 3.76254,2.53954c1.60613,-1.28199 3.30572,-1.77761 4.93523,-1.45706c4.43387,-4.18066 6.95541,-0.86699 9.9768,1.66226c1.09249,0.91453 2.34099,1.69506 3.34709,2.69481c0.71619,-0.33789 1.54465,-0.45252 2.37851,-0.27494c0.36398,-0.96854 0.89442,-1.81153 1.74225,-2.41511c5.16053,-3.67378 6.94726,0.2426 7.80944,3.48144c0.06282,-0.02174 0.12634,-0.04185 0.19062,-0.06024c0.34426,-2.49155 2.05951,-4.22841 6.91905,-3.87819c1.72938,0.12463 2.27414,2.62072 3.32887,3.99689c2.11433,2.75867 3.9212,6.06867 5.79043,8.96497c0,0 2.03345,3.15079 -1.11734,5.18426c-2.46296,1.58955 -4.24318,0.01127 -4.90307,-0.75357c-0.66142,1.67694 -2.45745,2.67769 -4.2774,2.28546c-0.82054,-0.17684 -1.51999,-0.60971 -2.03272,-1.1968l-2.99484,-3.34836l0.00513,-0.00459c-0.00782,-0.00534 -0.01562,-0.01069 -0.02342,-0.01604c-0.04372,-0.02996 -0.08679,-0.05977 -0.12921,-0.08942c-0.75205,1.48271 -2.43265,2.33359 -4.13417,1.96687c-0.38421,-0.0828 -0.74189,-0.22175 -1.06627,-0.40637c-0.80911,1.31873 -2.38896,2.04861 -3.98726,1.70414c-0.7026,-0.15143 -1.31644,-0.49058 -1.80027,-0.95352c-0.86425,0.77615 -2.07582,1.1411 -3.29818,0.87765c-1.80227,-0.38843 -3.02046,-2.012 -2.95845,-3.79207c-0.52191,0.27533 -1.69856,0.30014 -3.08026,0.19188c-0.64434,0.23717 -1.36142,0.30036 -2.08228,0.145c-0.11747,-0.02532 -0.23246,-0.05588 -0.34477,-0.09139c-0.56007,1.34219 -1.07403,2.47678 -1.34208,3.22375l-3.82052,-4.54881c-0.22364,0.47199 -0.54004,0.88324 -0.92138,1.21575c-0.00243,0.25005 -0.03004,0.50358 -0.08478,0.75758c-0.43635,2.02459 -2.43131,3.3121 -4.4559,2.87577c-0.36328,-0.07831 -0.70283,-0.20677 -1.01294,-0.37661l-3.29743,-1.71052l0.00008,-0.00017c-1.14262,-0.61513 -2.30167,-1.25801 -3.3858,-1.95854c-1.08302,-0.246 -1.95105,-0.93949 -2.45075,-1.84285c-1.29334,-1.16833 -2.27931,-2.50552 -2.68817,-4.09992c-0.86161,1.06461 -2.27718,1.61677 -3.70752,1.3085c-0.60004,-0.12932 -1.13534,-0.39556 -1.58021,-0.75891c-0.80168,0.50773 -1.79538,0.71335 -2.79631,0.49764c-1.37946,-0.29731 -2.41675,-1.31821 -2.79971,-2.57905c-0.45523,0.07656 -0.93232,0.06978 -1.41107,-0.03341c-1.45185,-0.31291 -2.52466,-1.42734 -2.85454,-2.77943c-0.75466,1.47619 -2.43131,2.32219 -4.12879,1.95633c-1.88721,-0.40674 -3.13399,-2.16776 -2.94109,-4.04465l0.23161,-2.62749l0.23922,0.02108c-0.08254,-0.11827 -0.16895,-0.23427 -0.25964,-0.34778c-0.22147,-0.27718 -0.52067,-0.48406 -0.8286,-0.6814c-0.10335,1.81394 -1.09085,4.33399 -1.27518,5.18929l-0.07023,0.32585c0,0 -0.79008,3.66582 -4.45591,2.87575z" fill="#14c700" stroke-width="0.5"/><path d="M941.50554,342.44126l-2.68727,-16.29644l165.92737,-27.36131l2.68727,16.29644z" data-paper-data="{&quot;index&quot;:null}" fill="#0d8200" stroke-width="0"/><path d="M1030.97477,324.6027c-3.73581,0.326 -4.0618,-3.4098 -4.0618,-3.4098l-0.02898,-0.33207c-0.30608,-3.50749 -1.78731,-10.43394 1.01721,-13.12912c1.70396,-1.63751 4.51223,-1.42319 7.08832,-0.58689c0.38669,-2.05366 1.54796,-3.81021 4.37398,-4.7879c1.75827,-0.60829 3.74713,-0.05839 5.51093,1.10478c0.54485,-0.23864 1.18836,-0.40593 1.947,-0.48511c0.64328,-0.06714 1.24432,0.09007 1.80816,0.39141c0.57851,-0.34764 1.19858,-0.59768 1.84463,-0.71017c0.60748,-0.10577 1.23087,-0.04565 1.8517,0.14629c0.07982,-0.09039 0.1636,-0.17802 0.2516,-0.2627c1.49722,-1.44055 4.10051,-1.3907 6.14706,-1.0322c0.93225,0.1633 1.72629,0.69515 2.47897,1.31539c1.65636,-0.67521 3.81296,0.31554 5.52871,1.51836c1.44837,0.12856 3.02653,0.60371 4.34409,1.31717c1.15671,-1.69859 2.63458,-2.67333 4.28615,-2.84752c3.00399,-5.30219 6.39051,-2.87936 10.02336,-1.35348c1.31357,0.55173 2.73672,0.92941 3.99288,1.58804c0.58472,-0.53404 1.34254,-0.88786 2.1917,-0.96406c0.06222,-1.0328 0.32047,-1.99472 0.95265,-2.82146c3.84781,-5.03212 6.70991,-1.81671 8.48878,1.02389c0.05362,-0.0393 0.1084,-0.07725 0.16437,-0.11377c-0.40573,-2.48227 0.72112,-4.64769 5.46785,-5.74597c1.68924,-0.39085 2.9458,1.83362 4.35942,2.8376c2.83377,2.01257 5.53631,4.64261 8.17645,6.85896c0,0 2.87212,2.4111 0.46103,5.28322c-1.88475,2.24513 -4.05119,1.26195 -4.90726,0.72569c-0.13755,1.79742 -1.55863,3.28326 -3.41331,3.44511c-0.8362,0.07296 -1.63221,-0.1344 -2.29524,-0.5442l-3.84901,-2.3164l0.00355,-0.00589c-0.00905,-0.0028 -0.01809,-0.00562 -0.02712,-0.00842c-0.05062,-0.01573 -0.10054,-0.03151 -0.14982,-0.04734c-0.2814,1.63854 -1.63639,2.94714 -3.37038,3.09846c-0.39156,0.03417 -0.77429,0.00687 -1.13869,-0.0739c-0.38428,1.49866 -1.67867,2.66195 -3.30747,2.80407c-0.71603,0.06248 -1.40258,-0.08059 -2.0014,-0.38029c-0.59698,0.99648 -1.64705,1.70246 -2.89274,1.81116c-1.83668,0.16027 -3.47944,-1.03189 -3.94507,-2.75112c-0.41752,0.41699 -1.53454,0.78765 -2.88674,1.09162c-0.54574,0.41663 -1.21232,0.68844 -1.94695,0.75254c-0.11971,0.01045 -0.23859,0.01515 -0.35639,0.01433c-0.1394,1.44767 -0.29596,2.68336 -0.33183,3.47615l-4.99195,-3.22002c-0.07452,0.51695 -0.25559,1.00322 -0.52193,1.43338c0.07141,0.23964 0.11979,0.49005 0.14237,0.74889c0.18004,2.06323 -1.34657,3.88176 -3.40981,4.06181c-0.37021,0.03231 -0.73255,0.00967 -1.07896,-0.06117l-3.6552,-0.66216l0.00003,-0.00018c-1.2732,-0.25086 -2.57029,-0.52339 -3.81276,-0.87311c-1.1074,0.08428 -2.14132,-0.32242 -2.88518,-1.03827c-1.58034,-0.73503 -2.91677,-1.72202 -3.77759,-3.12496c-0.50938,1.27134 -1.69921,2.21635 -3.15686,2.34355c-0.61149,0.05336 -1.2015,-0.0432 -1.73372,-0.2592c-0.61634,0.72154 -1.5052,1.21104 -2.52524,1.30005c-1.40579,0.12267 -2.69801,-0.54698 -3.43571,-1.63883c-0.41242,0.20738 -0.87028,0.34158 -1.35818,0.38416c-1.47956,0.12911 -2.83329,-0.61943 -3.54718,-1.81413c-0.28582,1.63307 -1.63848,2.93584 -3.36836,3.08679c-1.92323,0.16783 -3.63385,-1.14726 -4.00296,-2.99759l-0.55344,-2.57896l0.2348,-0.0504c-0.11374,-0.08867 -0.23053,-0.17403 -0.35065,-0.25575c-0.29335,-0.19955 -0.64026,-0.30901 -0.99268,-0.40678c0.43612,1.76375 0.23561,4.46296 0.31167,5.33457l0.02898,0.33207c0,0 0.32599,3.7358 -3.40981,4.0618z" fill="#14c700" stroke-width="0.5"/><path d="M945.93895,337.54066c-3.7358,0.32599 -4.0618,-3.40981 -4.0618,-3.40981l-0.02897,-0.33207c-0.30607,-3.50748 -1.7873,-10.43394 1.01722,-13.12912c1.70396,-1.63751 4.51223,-1.4232 7.08831,-0.5869c0.38668,-2.05367 1.54796,-3.8102 4.37398,-4.78789c1.75827,-0.60829 3.74713,-0.0584 5.51093,1.10478c0.54485,-0.23865 1.18836,-0.40594 1.94699,-0.48512c0.64327,-0.06713 1.24432,0.09008 1.80816,0.39143c0.57851,-0.34762 1.19858,-0.59768 1.84463,-0.71017c0.60748,-0.10577 1.23088,-0.04565 1.85171,0.14629c0.0798,-0.09039 0.1636,-0.17802 0.25159,-0.2627c1.49722,-1.44055 4.10051,-1.3907 6.14706,-1.0322c0.93226,0.16332 1.72628,0.69515 2.47898,1.31539c1.65636,-0.67521 3.81296,0.31554 5.52871,1.51835c1.44837,0.12856 3.02652,0.6037 4.34408,1.31717c1.1567,-1.69859 2.63458,-2.67332 4.28615,-2.84752c3.00399,-5.30219 6.39051,-2.87937 10.02336,-1.35349c1.31358,0.55173 2.73672,0.92942 3.99288,1.58804c0.58471,-0.53405 1.34254,-0.88786 2.19169,-0.96407c0.06221,-1.0328 0.32048,-1.99472 0.95265,-2.82146c3.84781,-5.03212 6.7099,-1.81672 8.48878,1.02389c0.05362,-0.0393 0.10838,-0.07724 0.16438,-0.11377c-0.40573,-2.48228 0.72112,-4.64769 5.46786,-5.74597c1.68924,-0.39085 2.9458,1.83363 4.35942,2.83761c2.83377,2.01257 5.53631,4.64261 8.17645,6.85896c0,0 2.87211,2.4111 0.46102,5.28322c-1.88475,2.24513 -4.0512,1.26194 -4.90728,0.7257c-0.13754,1.79741 -1.55863,3.28326 -3.41331,3.44511c-0.8362,0.07297 -1.63219,-0.1344 -2.29523,-0.54421l-3.84901,-2.3164l0.00355,-0.0059c-0.00905,-0.0028 -0.01807,-0.00562 -0.02711,-0.00842c-0.05062,-0.01573 -0.10055,-0.03152 -0.14983,-0.04734c-0.2814,1.63854 -1.63639,2.94714 -3.37038,3.09845c-0.39155,0.03417 -0.77429,0.00687 -1.13869,-0.0739c-0.38429,1.49867 -1.67867,2.66195 -3.30748,2.80409c-0.71602,0.06248 -1.40256,-0.08059 -2.00139,-0.38028c-0.59697,0.99649 -1.64705,1.70245 -2.89275,1.81116c-1.83668,0.16028 -3.47944,-1.03191 -3.94507,-2.75111c-0.41752,0.41699 -1.53454,0.78765 -2.88673,1.09162c-0.54576,0.41662 -1.21232,0.68844 -1.94694,0.75255c-0.11972,0.01045 -0.2386,0.01515 -0.35638,0.01433c-0.1394,1.44766 -0.29596,2.68336 -0.33183,3.47615l-4.99195,-3.22001c-0.07453,0.51695 -0.25559,1.00321 -0.52193,1.43338c0.07141,0.23964 0.11979,0.49005 0.14238,0.7489c0.18004,2.06324 -1.34657,3.88175 -3.40981,4.06181c-0.37022,0.0323 -0.73255,0.00967 -1.07895,-0.06118l-3.6552,-0.66216l0.00003,-0.00019c-1.2732,-0.25086 -2.57029,-0.52338 -3.81277,-0.8731c-1.1074,0.08429 -2.14133,-0.32242 -2.88518,-1.03827c-1.58034,-0.73502 -2.91676,-1.72202 -3.77758,-3.12497c-0.50938,1.27134 -1.6992,2.21635 -3.15685,2.34355c-0.61149,0.05336 -1.20149,-0.0432 -1.73372,-0.25921c-0.61633,0.72154 -1.50521,1.21103 -2.52525,1.30005c-1.40579,0.12267 -2.69799,-0.54698 -3.43571,-1.63883c-0.41242,0.20738 -0.87029,0.34159 -1.35818,0.38416c-1.47957,0.12911 -2.83329,-0.61943 -3.54719,-1.81414c-0.28582,1.63309 -1.63847,2.93585 -3.36835,3.08679c-1.92323,0.16782 -3.63385,-1.14726 -4.00296,-2.99758l-0.55345,-2.57896l0.2348,-0.0504c-0.11374,-0.08867 -0.23052,-0.17404 -0.35065,-0.25576c-0.29335,-0.19955 -0.64025,-0.30901 -0.99268,-0.40678c0.43612,1.76376 0.23561,4.46295 0.31167,5.33457l0.02898,0.33207c0,0 0.32599,3.7358 -3.40982,4.0618z" fill="#14c700" stroke-width="0.5"/><path d="M788.0015,532.20871v-17.73144h133.63363v17.73144z" fill="#0c7d00" stroke-width="0"/><path d="M792.87783,522.34363c-3.74923,-0.0686 -3.67374,-3.47438 -3.67374,-3.47438l0.00672,-0.30274c0.07089,-3.19764 -0.6609,-9.59743 2.41583,-11.75915c1.86934,-1.3134 4.63858,-0.84694 7.11042,0.15872c0.60414,-1.81726 1.94667,-3.29089 4.86106,-3.89931c1.81325,-0.37854 3.73188,0.31137 5.36113,1.53333c0.56725,-0.1626 1.22497,-0.25116 1.98771,-0.24895c0.64676,0.00187 1.22754,0.20227 1.75591,0.52923c0.61238,-0.25775 1.25563,-0.42334 1.91002,-0.46216c0.61531,-0.0365 1.22869,0.07838 1.82542,0.31206c0.08902,-0.07388 0.1817,-0.14489 0.27825,-0.21282c1.64273,-1.15559 4.22575,-0.8576 6.22221,-0.33494c0.90944,0.23809 1.64202,0.7956 2.32404,1.42893c1.71908,-0.44888 3.75734,0.65551 5.33456,1.90859c1.4263,0.25685 2.94457,0.83935 4.17825,1.61177c1.33177,-1.42174 2.90544,-2.15849 4.56617,-2.15533c3.55394,-4.49694 6.66185,-1.97961 10.11064,-0.24845c1.24703,0.62596 2.62159,1.10537 3.80009,1.82229c0.63848,-0.42552 1.42981,-0.67144 2.28224,-0.65776c0.17233,-0.92677 0.53203,-1.77046 1.24901,-2.45573c4.36402,-4.17102 6.86574,-0.9888 8.33054,1.74964c0.05751,-0.03029 0.11603,-0.05924 0.17561,-0.08678c-0.13787,-2.28138 1.21416,-4.12764 6.05114,-4.65833c1.72136,-0.18886 2.73275,1.94236 4.03086,2.9865c2.60222,2.09308 5.00791,4.73111 7.39582,6.98942c0,0 2.59771,2.45675 -0.10679,4.81651c-2.1141,1.84462 -4.16295,0.7461 -4.95675,0.17858c-0.32903,1.61002 -1.9009,2.81393 -3.76225,2.77988c-0.83921,-0.01535 -1.60844,-0.27999 -2.22384,-0.71455l-3.57914,-2.46615l0.00416,-0.00499c-0.00869,-0.00341 -0.01737,-0.00683 -0.02606,-0.01024c-0.04864,-0.01913 -0.09661,-0.03823 -0.1439,-0.05731c-0.45506,1.45256 -1.94227,2.50279 -3.6825,2.47096c-0.39296,-0.00719 -0.77058,-0.06904 -1.12425,-0.1774c-0.5424,1.31623 -1.9538,2.24111 -3.58846,2.21121c-0.71859,-0.01315 -1.38589,-0.20908 -1.94922,-0.53794c-0.70014,0.842 -1.81972,1.37757 -3.06989,1.3547c-1.84328,-0.03372 -3.34909,-1.2701 -3.62814,-2.86811c-0.45973,0.33604 -1.60999,0.56227 -2.98694,0.70542c-0.58719,0.32324 -1.27901,0.50399 -2.01627,0.4905c-0.12014,-0.0022 -0.23885,-0.00951 -0.35587,-0.02169c-0.29345,1.29395 -0.5813,2.3948 -0.70177,3.10735l-4.61885,-3.39334c-0.1294,0.45967 -0.36144,0.88124 -0.67227,1.24388c0.04537,0.22338 0.06668,0.45425 0.06144,0.69023c-0.0417,1.88097 -1.75409,3.37508 -3.82475,3.33721c-0.37154,-0.0068 -0.72938,-0.06245 -1.06621,-0.1601l-3.56339,-0.95323l0.00005,-0.00016c-1.23906,-0.3503 -2.49955,-0.72248 -3.6975,-1.15907c-1.11006,-0.03148 -2.09456,-0.49929 -2.75756,-1.21811c-1.49264,-0.81742 -2.71581,-1.83873 -3.42162,-3.18949c-0.64246,1.09875 -1.92654,1.83666 -3.38943,1.8099c-0.6137,-0.01123 -1.18997,-0.15577 -1.69604,-0.40259c-0.68998,0.59179 -1.62612,0.94752 -2.64983,0.9288c-1.41085,-0.02581 -2.62401,-0.75619 -3.24069,-1.81402c-0.43223,0.14723 -0.90183,0.22396 -1.39148,0.21499c-1.48489,-0.02717 -2.75077,-0.83478 -3.33277,-1.98319c-0.45888,1.4472 -1.94313,2.49239 -3.67923,2.46062c-1.93015,-0.03531 -3.49027,-1.38929 -3.65933,-3.09634l-0.2744,-2.38305l0.23884,-0.0227c-0.10361,-0.09114 -0.21057,-0.17959 -0.32127,-0.26507c-0.27032,-0.20874 -0.60353,-0.34131 -0.94347,-0.46386c0.24494,1.63538 -0.24316,4.05376 -0.26077,4.84839l-0.00671,0.30273c0,0 -0.07551,3.40579 -3.82476,3.33721z" fill="#14c700" stroke-width="0.5"/><path d="M827.90786,522.79374c-3.74923,-0.0686 -3.67374,-3.47438 -3.67374,-3.47438l0.00672,-0.30274c0.07089,-3.19764 -0.6609,-9.59743 2.41583,-11.75915c1.86934,-1.3134 4.63858,-0.84694 7.11042,0.15872c0.60414,-1.81726 1.94667,-3.29089 4.86106,-3.89931c1.81325,-0.37854 3.73188,0.31137 5.36113,1.53333c0.56725,-0.1626 1.22497,-0.25116 1.98771,-0.24895c0.64676,0.00187 1.22754,0.20227 1.75591,0.52923c0.61238,-0.25775 1.25563,-0.42334 1.91002,-0.46216c0.61531,-0.0365 1.22869,0.07838 1.82542,0.31206c0.08902,-0.07388 0.1817,-0.14489 0.27825,-0.21282c1.64273,-1.15559 4.22575,-0.8576 6.2222,-0.33494c0.90944,0.23809 1.64202,0.7956 2.32404,1.42893c1.71908,-0.44888 3.75734,0.65551 5.33456,1.90859c1.4263,0.25685 2.94457,0.83935 4.17825,1.61177c1.33177,-1.42174 2.90544,-2.15849 4.56617,-2.15533c3.55394,-4.49694 6.66185,-1.97961 10.11064,-0.24845c1.24703,0.62596 2.62159,1.10537 3.80009,1.82229c0.63848,-0.42552 1.42981,-0.67144 2.28224,-0.65776c0.17233,-0.92677 0.53203,-1.77046 1.24901,-2.45573c4.36402,-4.17102 6.86574,-0.9888 8.33054,1.74964c0.05751,-0.03029 0.11603,-0.05924 0.17561,-0.08678c-0.13787,-2.28138 1.21416,-4.12764 6.05114,-4.65833c1.72136,-0.18886 2.73275,1.94236 4.03086,2.9865c2.60222,2.09308 5.00791,4.73111 7.39582,6.98942c0,0 2.59771,2.45675 -0.10679,4.81651c-2.1141,1.84462 -4.16295,0.7461 -4.95675,0.17858c-0.32903,1.61002 -1.9009,2.81393 -3.76225,2.77988c-0.83921,-0.01535 -1.60844,-0.27999 -2.22384,-0.71455l-3.57914,-2.46615l0.00416,-0.00499c-0.00869,-0.00341 -0.01737,-0.00683 -0.02606,-0.01024c-0.04864,-0.01913 -0.09661,-0.03823 -0.1439,-0.05731c-0.45506,1.45256 -1.94227,2.50279 -3.6825,2.47096c-0.39296,-0.00719 -0.77058,-0.06904 -1.12425,-0.1774c-0.5424,1.31623 -1.9538,2.24111 -3.58847,2.21121c-0.71859,-0.01315 -1.38588,-0.20908 -1.94922,-0.53794c-0.70014,0.842 -1.81972,1.37757 -3.06989,1.3547c-1.84328,-0.03372 -3.34909,-1.2701 -3.62814,-2.86811c-0.45973,0.33604 -1.60999,0.56227 -2.98694,0.70542c-0.58719,0.32324 -1.27901,0.50399 -2.01627,0.4905c-0.12014,-0.0022 -0.23885,-0.00951 -0.35587,-0.02169c-0.29345,1.29395 -0.5813,2.3948 -0.70177,3.10735l-4.61885,-3.39334c-0.1294,0.45967 -0.36144,0.88124 -0.67227,1.24388c0.04537,0.22338 0.06668,0.45425 0.06144,0.69023c-0.0417,1.88097 -1.75409,3.37508 -3.82475,3.33721c-0.37154,-0.0068 -0.72938,-0.06245 -1.06621,-0.1601l-3.56339,-0.95323l0.00005,-0.00016c-1.23906,-0.3503 -2.49955,-0.72248 -3.6975,-1.15907c-1.11006,-0.03148 -2.09456,-0.49929 -2.75756,-1.21811c-1.49264,-0.81742 -2.71581,-1.83873 -3.42162,-3.18949c-0.64246,1.09875 -1.92654,1.83666 -3.38943,1.8099c-0.6137,-0.01123 -1.18998,-0.15577 -1.69605,-0.40259c-0.68998,0.59179 -1.62612,0.94752 -2.64983,0.9288c-1.41085,-0.02581 -2.62401,-0.75619 -3.24069,-1.81402c-0.43223,0.14723 -0.90183,0.22396 -1.39148,0.21499c-1.48489,-0.02717 -2.75077,-0.83478 -3.33277,-1.98319c-0.45888,1.4472 -1.94313,2.49239 -3.67923,2.46062c-1.93015,-0.03531 -3.49027,-1.38929 -3.65933,-3.09634l-0.2744,-2.38305l0.23884,-0.0227c-0.10361,-0.09114 -0.21058,-0.17959 -0.32128,-0.26507c-0.27032,-0.20874 -0.60352,-0.34131 -0.94347,-0.46386c0.24494,1.63538 -0.24316,4.05376 -0.26077,4.84839l-0.00671,0.30273c0,0 -0.07551,3.40579 -3.82476,3.33721z" fill="#14c700" stroke-width="0.5"/><path d="M674.38288,532.70421v-17.73144h133.63363v17.73144z" fill="#0c7d00" stroke-width="0"/><path d="M679.25921,522.83913c-3.74923,-0.06859 -3.67374,-3.47438 -3.67374,-3.47438l0.00672,-0.30274c0.07089,-3.19763 -0.66091,-9.59743 2.41583,-11.75915c1.86934,-1.3134 4.63858,-0.84693 7.11042,0.15872c0.60414,-1.81726 1.94667,-3.29089 4.86106,-3.89931c1.81325,-0.37853 3.73188,0.31137 5.36113,1.53333c0.56725,-0.1626 1.22497,-0.25115 1.98771,-0.24895c0.64676,0.00187 1.22754,0.20227 1.75591,0.52923c0.61238,-0.25775 1.25563,-0.42334 1.91002,-0.46216c0.61531,-0.0365 1.22869,0.07838 1.82542,0.31206c0.08902,-0.07389 0.1817,-0.1449 0.27825,-0.21282c1.64273,-1.15559 4.22575,-0.8576 6.2222,-0.33494c0.90944,0.23809 1.64202,0.7956 2.32404,1.42893c1.71908,-0.44889 3.75734,0.65551 5.33456,1.90859c1.4263,0.25685 2.94457,0.83935 4.17825,1.61177c1.33177,-1.42174 2.90544,-2.15849 4.56617,-2.15533c3.55394,-4.49694 6.66185,-1.97961 10.11064,-0.24845c1.24703,0.62596 2.62159,1.10537 3.80009,1.82229c0.63848,-0.42552 1.42981,-0.67144 2.28224,-0.65775c0.17233,-0.92677 0.53203,-1.77046 1.24901,-2.45573c4.36402,-4.17102 6.86574,-0.9888 8.33054,1.74965c0.05751,-0.03029 0.11602,-0.05924 0.1756,-0.08678c-0.13787,-2.28138 1.21416,-4.12764 6.05115,-4.65833c1.72136,-0.18886 2.73275,1.94235 4.03086,2.98649c2.60222,2.09308 5.00791,4.73111 7.39582,6.98942c0,0 2.59771,2.45676 -0.10679,4.81651c-2.1141,1.84462 -4.16295,0.7461 -4.95675,0.17858c-0.32903,1.61002 -1.9009,2.81392 -3.76225,2.77988c-0.83921,-0.01535 -1.60844,-0.27999 -2.22384,-0.71455l-3.57914,-2.46616l0.00416,-0.00499c-0.00869,-0.0034 -0.01737,-0.00683 -0.02606,-0.01024c-0.04864,-0.01913 -0.09661,-0.03823 -0.1439,-0.05732c-0.45506,1.45255 -1.94227,2.50279 -3.6825,2.47096c-0.39296,-0.00718 -0.77058,-0.06903 -1.12425,-0.17739c-0.5424,1.31624 -1.9538,2.24111 -3.58847,2.21121c-0.71859,-0.01315 -1.38588,-0.20908 -1.94922,-0.53795c-0.70014,0.842 -1.81972,1.37757 -3.06989,1.3547c-1.84328,-0.03372 -3.34909,-1.2701 -3.62814,-2.86811c-0.45973,0.33605 -1.60999,0.56227 -2.98694,0.70541c-0.58719,0.32325 -1.27901,0.504 -2.01627,0.4905c-0.12014,-0.0022 -0.23885,-0.00951 -0.35587,-0.02169c-0.29345,1.29396 -0.5813,2.3948 -0.70177,3.10735l-4.61885,-3.39333c-0.1294,0.45967 -0.36144,0.88125 -0.67227,1.24388c0.04537,0.22338 0.06668,0.45424 0.06145,0.69023c-0.0417,1.88098 -1.75409,3.37507 -3.82475,3.33721c-0.37154,-0.0068 -0.72938,-0.06245 -1.06621,-0.16009l-3.56339,-0.95323l0.00005,-0.00016c-1.23906,-0.35029 -2.49955,-0.72248 -3.6975,-1.15907c-1.11006,-0.03148 -2.09456,-0.49929 -2.75756,-1.21811c-1.49264,-0.81742 -2.71582,-1.83873 -3.42163,-3.18949c-0.64246,1.09875 -1.92653,1.83665 -3.38942,1.80989c-0.6137,-0.01123 -1.18998,-0.15577 -1.69605,-0.40259c-0.68998,0.59179 -1.62612,0.94752 -2.64983,0.9288c-1.41085,-0.02581 -2.62401,-0.75619 -3.24069,-1.81402c-0.43223,0.14723 -0.90183,0.22396 -1.39148,0.21499c-1.48489,-0.02716 -2.75077,-0.83478 -3.33278,-1.98319c-0.45888,1.4472 -1.94313,2.49239 -3.67923,2.46063c-1.93015,-0.03532 -3.49027,-1.3893 -3.65933,-3.09634l-0.2744,-2.38305l0.23884,-0.0227c-0.10361,-0.09114 -0.21058,-0.17958 -0.32128,-0.26506c-0.27032,-0.20874 -0.60352,-0.34131 -0.94347,-0.46387c0.24494,1.63538 -0.24316,4.05376 -0.26077,4.84839l-0.00672,0.30273c0,0 -0.07551,3.40579 -3.82476,3.33721z" fill="#14c700" stroke-width="0.5"/><path d="M714.28924,523.28924c-3.74923,-0.06859 -3.67374,-3.47438 -3.67374,-3.47438l0.00672,-0.30274c0.07089,-3.19763 -0.66091,-9.59744 2.41583,-11.75915c1.86934,-1.3134 4.63858,-0.84694 7.11042,0.15872c0.60414,-1.81726 1.94667,-3.29089 4.86106,-3.89931c1.81325,-0.37853 3.73188,0.31137 5.36113,1.53333c0.56725,-0.1626 1.22497,-0.25115 1.98771,-0.24895c0.64676,0.00187 1.22754,0.20227 1.75591,0.52923c0.61238,-0.25775 1.25563,-0.42334 1.91002,-0.46216c0.61531,-0.0365 1.22869,0.07838 1.82542,0.31206c0.08902,-0.07389 0.1817,-0.14489 0.27825,-0.21282c1.64273,-1.15559 4.22575,-0.8576 6.22221,-0.33494c0.90944,0.23809 1.64202,0.79559 2.32404,1.42893c1.71908,-0.44889 3.75734,0.65551 5.33456,1.90859c1.4263,0.25685 2.94457,0.83935 4.17825,1.61177c1.33177,-1.42174 2.90544,-2.15848 4.56617,-2.15533c3.55394,-4.49694 6.66185,-1.97961 10.11064,-0.24845c1.24703,0.62595 2.62159,1.10537 3.80009,1.8223c0.63848,-0.42552 1.42981,-0.67145 2.28224,-0.65776c0.17233,-0.92676 0.53203,-1.77046 1.24901,-2.45573c4.36402,-4.17102 6.86574,-0.9888 8.33054,1.74964c0.05751,-0.03028 0.11602,-0.05924 0.1756,-0.08678c-0.13787,-2.28138 1.21416,-4.12764 6.05115,-4.65833c1.72136,-0.18886 2.73275,1.94236 4.03086,2.9865c2.60222,2.09309 5.00791,4.73111 7.39582,6.98942c0,0 2.59771,2.45676 -0.10679,4.81651c-2.1141,1.84462 -4.16295,0.7461 -4.95675,0.17858c-0.32903,1.61002 -1.9009,2.81392 -3.76225,2.77988c-0.83921,-0.01535 -1.60844,-0.27999 -2.22384,-0.71455l-3.57914,-2.46615l0.00415,-0.00499c-0.00869,-0.00341 -0.01737,-0.00683 -0.02605,-0.01024c-0.04864,-0.01913 -0.09661,-0.03823 -0.1439,-0.05731c-0.45506,1.45255 -1.94227,2.50279 -3.6825,2.47096c-0.39296,-0.00719 -0.77058,-0.06904 -1.12425,-0.1774c-0.5424,1.31624 -1.9538,2.24111 -3.58847,2.21121c-0.71859,-0.01315 -1.38588,-0.20908 -1.94922,-0.53794c-0.70014,0.842 -1.81972,1.37757 -3.06989,1.3547c-1.84328,-0.03372 -3.34909,-1.2701 -3.62814,-2.86811c-0.45973,0.33605 -1.60999,0.56227 -2.98694,0.70542c-0.58719,0.32325 -1.27901,0.504 -2.01627,0.4905c-0.12014,-0.0022 -0.23885,-0.00951 -0.35587,-0.02169c-0.29345,1.29395 -0.5813,2.3948 -0.70177,3.10735l-4.61885,-3.39333c-0.1294,0.45966 -0.36144,0.88125 -0.67227,1.24388c0.04537,0.22338 0.06668,0.45424 0.06145,0.69022c-0.0417,1.88098 -1.75409,3.37508 -3.82475,3.33721c-0.37154,-0.0068 -0.72938,-0.06245 -1.06622,-0.1601l-3.56339,-0.95323l0.00005,-0.00017c-1.23906,-0.35029 -2.49955,-0.72247 -3.6975,-1.15907c-1.11006,-0.03148 -2.09456,-0.49929 -2.75756,-1.21812c-1.49264,-0.81742 -2.71582,-1.83872 -3.42163,-3.18949c-0.64246,1.09875 -1.92653,1.83665 -3.38942,1.80989c-0.6137,-0.01123 -1.18998,-0.15577 -1.69605,-0.40259c-0.68998,0.59179 -1.62612,0.94752 -2.64983,0.9288c-1.41085,-0.02581 -2.62401,-0.7562 -3.24069,-1.81402c-0.43223,0.14723 -0.90183,0.22396 -1.39148,0.21499c-1.48489,-0.02716 -2.75077,-0.83478 -3.33278,-1.98319c-0.45888,1.4472 -1.94313,2.49239 -3.67923,2.46063c-1.93015,-0.03531 -3.49027,-1.3893 -3.65933,-3.09634l-0.2744,-2.38305l0.23884,-0.0227c-0.10361,-0.09114 -0.21058,-0.17958 -0.32128,-0.26506c-0.27032,-0.20874 -0.60352,-0.34131 -0.94347,-0.46387c0.24494,1.63538 -0.24316,4.05376 -0.26077,4.84839l-0.00671,0.30273c0,0 -0.07551,3.40579 -3.82476,3.33721z" fill="#14c700" stroke-width="0.5"/><path d="M562.26576,534.70121v-17.73144h133.63363v17.73144z" fill="#0c7d00" stroke-width="0"/><path d="M567.14209,524.83613c-3.74923,-0.06859 -3.67374,-3.47438 -3.67374,-3.47438l0.00672,-0.30274c0.07089,-3.19763 -0.6609,-9.59744 2.41583,-11.75915c1.86934,-1.3134 4.63858,-0.84693 7.11042,0.15872c0.60414,-1.81726 1.94667,-3.29089 4.86106,-3.89931c1.81325,-0.37853 3.73188,0.31137 5.36113,1.53333c0.56725,-0.1626 1.22497,-0.25115 1.98771,-0.24895c0.64676,0.00187 1.22754,0.20227 1.75591,0.52923c0.61238,-0.25775 1.25563,-0.42334 1.91002,-0.46216c0.61531,-0.0365 1.22869,0.07838 1.82542,0.31206c0.08902,-0.07389 0.1817,-0.14489 0.27825,-0.21282c1.64273,-1.15559 4.22575,-0.8576 6.22221,-0.33494c0.90944,0.23809 1.64202,0.7956 2.32404,1.42893c1.71908,-0.44889 3.75734,0.6555 5.33456,1.90859c1.4263,0.25685 2.94457,0.83935 4.17825,1.61177c1.33177,-1.42174 2.90544,-2.15848 4.56617,-2.15533c3.55394,-4.49694 6.66185,-1.97961 10.11064,-0.24845c1.24703,0.62595 2.62159,1.10537 3.80009,1.8223c0.63848,-0.42552 1.42981,-0.67145 2.28224,-0.65776c0.17233,-0.92676 0.53203,-1.77046 1.24901,-2.45573c4.36402,-4.17102 6.86574,-0.9888 8.33054,1.74964c0.05751,-0.03028 0.11603,-0.05924 0.17561,-0.08678c-0.13787,-2.28138 1.21416,-4.12764 6.05115,-4.65833c1.72136,-0.18886 2.73274,1.94236 4.03086,2.9865c2.60222,2.09309 5.00792,4.73111 7.39583,6.98942c0,0 2.59771,2.45676 -0.10679,4.81651c-2.1141,1.84462 -4.16295,0.7461 -4.95675,0.17858c-0.32903,1.61002 -1.9009,2.81392 -3.76225,2.77987c-0.83921,-0.01535 -1.60845,-0.27999 -2.22385,-0.71455l-3.57913,-2.46615l0.00415,-0.00499c-0.00869,-0.00341 -0.01737,-0.00683 -0.02605,-0.01024c-0.04864,-0.01913 -0.09661,-0.03823 -0.1439,-0.05732c-0.45506,1.45256 -1.94227,2.5028 -3.6825,2.47096c-0.39296,-0.00719 -0.77058,-0.06904 -1.12425,-0.1774c-0.5424,1.31624 -1.9538,2.24111 -3.58847,2.21121c-0.71859,-0.01315 -1.38588,-0.20908 -1.94922,-0.53795c-0.70014,0.842 -1.81972,1.37757 -3.06989,1.3547c-1.84328,-0.03372 -3.34909,-1.2701 -3.62814,-2.86811c-0.45973,0.33605 -1.60999,0.56227 -2.98694,0.70541c-0.58719,0.32325 -1.27901,0.504 -2.01627,0.4905c-0.12014,-0.0022 -0.23886,-0.00951 -0.35588,-0.02169c-0.29345,1.29395 -0.5813,2.3948 -0.70177,3.10735l-4.61885,-3.39333c-0.1294,0.45966 -0.36144,0.88125 -0.67227,1.24388c0.04537,0.22338 0.06668,0.45424 0.06145,0.69022c-0.0417,1.88098 -1.75409,3.37508 -3.82475,3.33721c-0.37154,-0.0068 -0.72938,-0.06245 -1.06622,-0.16009l-3.56339,-0.95323l0.00005,-0.00016c-1.23906,-0.35029 -2.49955,-0.72248 -3.6975,-1.15907c-1.11006,-0.03148 -2.09456,-0.49929 -2.75756,-1.21812c-1.49264,-0.81742 -2.71582,-1.83872 -3.42163,-3.18949c-0.64246,1.09875 -1.92653,1.83666 -3.38942,1.8099c-0.6137,-0.01123 -1.18998,-0.15577 -1.69605,-0.40259c-0.68998,0.59179 -1.62612,0.94752 -2.64983,0.9288c-1.41085,-0.02581 -2.62401,-0.7562 -3.24069,-1.81402c-0.43223,0.14723 -0.90183,0.22395 -1.39148,0.21499c-1.48489,-0.02716 -2.75077,-0.83478 -3.33277,-1.98319c-0.45888,1.4472 -1.94313,2.49239 -3.67923,2.46062c-1.93015,-0.03531 -3.49028,-1.38929 -3.65933,-3.09634l-0.27439,-2.38305l0.23884,-0.0227c-0.10361,-0.09114 -0.21058,-0.17958 -0.32128,-0.26506c-0.27032,-0.20874 -0.60353,-0.34131 -0.94347,-0.46387c0.24494,1.63538 -0.24316,4.05376 -0.26077,4.84839l-0.00671,0.30273c0,0 -0.07551,3.40579 -3.82476,3.33721z" fill="#14c700" stroke-width="0.5"/><path d="M602.17212,525.28623c-3.74923,-0.06859 -3.67374,-3.47438 -3.67374,-3.47438l0.00672,-0.30274c0.07089,-3.19763 -0.6609,-9.59744 2.41583,-11.75915c1.86934,-1.3134 4.63858,-0.84694 7.11042,0.15872c0.60414,-1.81726 1.94667,-3.29089 4.86106,-3.89931c1.81325,-0.37853 3.73188,0.31137 5.36113,1.53333c0.56725,-0.1626 1.22497,-0.25115 1.98771,-0.24895c0.64676,0.00187 1.22754,0.20227 1.75591,0.52923c0.61238,-0.25775 1.25563,-0.42334 1.91002,-0.46216c0.61531,-0.0365 1.22869,0.07838 1.82542,0.31206c0.08902,-0.07389 0.1817,-0.14489 0.27825,-0.21282c1.64273,-1.15559 4.22575,-0.8576 6.22221,-0.33494c0.90944,0.23809 1.64202,0.79559 2.32404,1.42893c1.71908,-0.44889 3.75734,0.65551 5.33456,1.90859c1.4263,0.25685 2.94457,0.83935 4.17825,1.61177c1.33177,-1.42174 2.90544,-2.15848 4.56617,-2.15533c3.55394,-4.49693 6.66185,-1.97961 10.11064,-0.24844c1.24703,0.62595 2.62159,1.10537 3.80009,1.82229c0.63848,-0.42552 1.42981,-0.67144 2.28224,-0.65775c0.17233,-0.92676 0.53203,-1.77046 1.24901,-2.45573c4.36402,-4.17102 6.86574,-0.9888 8.33054,1.74964c0.05751,-0.03029 0.11603,-0.05924 0.17561,-0.08678c-0.13787,-2.28138 1.21416,-4.12764 6.05115,-4.65833c1.72136,-0.18886 2.73274,1.94235 4.03086,2.98649c2.60222,2.09308 5.00792,4.73111 7.39583,6.98942c0,0 2.59771,2.45676 -0.10679,4.81651c-2.1141,1.84462 -4.16295,0.7461 -4.95675,0.17858c-0.32903,1.61002 -1.90091,2.81392 -3.76226,2.77988c-0.83921,-0.01535 -1.60844,-0.27999 -2.22384,-0.71455l-3.57913,-2.46615l0.00415,-0.00499c-0.00869,-0.0034 -0.01737,-0.00683 -0.02606,-0.01024c-0.04864,-0.01913 -0.0966,-0.03823 -0.1439,-0.05731c-0.45506,1.45256 -1.94227,2.50279 -3.6825,2.47096c-0.39296,-0.00718 -0.77058,-0.06903 -1.12425,-0.17739c-0.5424,1.31624 -1.9538,2.24111 -3.58847,2.21121c-0.71859,-0.01315 -1.38588,-0.20908 -1.94922,-0.53794c-0.70014,0.842 -1.81973,1.37757 -3.0699,1.3547c-1.84328,-0.03372 -3.34909,-1.2701 -3.62814,-2.86811c-0.45973,0.33605 -1.60999,0.56227 -2.98694,0.70542c-0.58719,0.32325 -1.27901,0.504 -2.01627,0.4905c-0.12014,-0.0022 -0.23886,-0.00951 -0.35588,-0.02169c-0.29345,1.29396 -0.5813,2.3948 -0.70177,3.10735l-4.61885,-3.39333c-0.1294,0.45967 -0.36144,0.88125 -0.67227,1.24388c0.04537,0.22338 0.06668,0.45424 0.06145,0.69023c-0.0417,1.88098 -1.75409,3.37508 -3.82475,3.33721c-0.37154,-0.0068 -0.72938,-0.06245 -1.06622,-0.1601l-3.56339,-0.95323l0.00005,-0.00017c-1.23906,-0.35029 -2.49956,-0.72247 -3.6975,-1.15907c-1.11006,-0.03148 -2.09455,-0.49929 -2.75756,-1.21811c-1.49264,-0.81742 -2.71582,-1.83873 -3.42163,-3.18949c-0.64246,1.09875 -1.92653,1.83665 -3.38942,1.80989c-0.6137,-0.01123 -1.18998,-0.15577 -1.69605,-0.40259c-0.68998,0.59179 -1.62612,0.94752 -2.64983,0.9288c-1.41085,-0.02581 -2.62401,-0.75619 -3.24069,-1.81402c-0.43223,0.14723 -0.90183,0.22396 -1.39148,0.21499c-1.48489,-0.02716 -2.75077,-0.83478 -3.33277,-1.98319c-0.45888,1.4472 -1.94313,2.49239 -3.67923,2.46063c-1.93015,-0.03532 -3.49028,-1.3893 -3.65933,-3.09634l-0.27439,-2.38305l0.23884,-0.0227c-0.10361,-0.09114 -0.21058,-0.17958 -0.32128,-0.26506c-0.27032,-0.20874 -0.60353,-0.34131 -0.94347,-0.46387c0.24494,1.63538 -0.24316,4.05376 -0.26077,4.84839l-0.00671,0.30273c0,0 -0.07551,3.40579 -3.82476,3.33721z" fill="#14c700" stroke-width="0.5"/><path d="M499.6982,533.6952v-17.73144h133.63363v17.73144z" fill="#0c7d00" stroke-width="0"/><path d="M504.57453,523.83012c-3.74923,-0.06859 -3.67374,-3.47438 -3.67374,-3.47438l0.00672,-0.30274c0.07089,-3.19763 -0.6609,-9.59744 2.41583,-11.75915c1.86934,-1.3134 4.63858,-0.84694 7.11042,0.15872c0.60414,-1.81726 1.94667,-3.29089 4.86106,-3.89931c1.81325,-0.37853 3.73188,0.31137 5.36113,1.53333c0.56725,-0.1626 1.22497,-0.25115 1.98771,-0.24895c0.64676,0.00187 1.22754,0.20227 1.75591,0.52923c0.61238,-0.25775 1.25563,-0.42334 1.91002,-0.46216c0.61531,-0.0365 1.22869,0.07838 1.82542,0.31206c0.08902,-0.07389 0.1817,-0.1449 0.27825,-0.21282c1.64273,-1.15559 4.22575,-0.8576 6.22221,-0.33494c0.90944,0.23809 1.64202,0.79559 2.32404,1.42893c1.71908,-0.44889 3.75734,0.65551 5.33456,1.90859c1.4263,0.25686 2.94457,0.83935 4.17825,1.61177c1.33177,-1.42174 2.90544,-2.15848 4.56617,-2.15533c3.55394,-4.49694 6.66185,-1.97961 10.11064,-0.24845c1.24703,0.62595 2.62159,1.10537 3.80009,1.8223c0.63848,-0.42552 1.42981,-0.67145 2.28224,-0.65776c0.17233,-0.92676 0.53203,-1.77046 1.24901,-2.45573c4.36402,-4.17102 6.86574,-0.9888 8.33054,1.74964c0.05751,-0.03028 0.11603,-0.05924 0.17561,-0.08679c-0.13787,-2.28138 1.21416,-4.12764 6.05115,-4.65833c1.72136,-0.18886 2.73274,1.94235 4.03086,2.9865c2.60222,2.09308 5.00792,4.73111 7.39583,6.98942c0,0 2.59771,2.45676 -0.10679,4.81651c-2.1141,1.84462 -4.16295,0.7461 -4.95675,0.17858c-0.32903,1.61002 -1.9009,2.81392 -3.76225,2.77987c-0.83921,-0.01535 -1.60845,-0.27999 -2.22385,-0.71454l-3.57913,-2.46616l0.00415,-0.00499c-0.00869,-0.00341 -0.01737,-0.00683 -0.02605,-0.01024c-0.04864,-0.01913 -0.09661,-0.03823 -0.1439,-0.05732c-0.45506,1.45255 -1.94227,2.50279 -3.6825,2.47096c-0.39296,-0.00719 -0.77058,-0.06903 -1.12425,-0.17739c-0.5424,1.31624 -1.9538,2.24111 -3.58847,2.2112c-0.71859,-0.01315 -1.38588,-0.20908 -1.94922,-0.53795c-0.70014,0.842 -1.81972,1.37758 -3.06989,1.35471c-1.84328,-0.03372 -3.34909,-1.2701 -3.62814,-2.86811c-0.45973,0.33605 -1.60999,0.56227 -2.98694,0.70542c-0.58719,0.32325 -1.27901,0.504 -2.01627,0.4905c-0.12014,-0.0022 -0.23886,-0.00951 -0.35588,-0.02169c-0.29345,1.29395 -0.5813,2.3948 -0.70177,3.10735l-4.61885,-3.39333c-0.1294,0.45966 -0.36144,0.88125 -0.67227,1.24388c0.04537,0.22338 0.06668,0.45424 0.06145,0.69022c-0.0417,1.88098 -1.75409,3.37508 -3.82475,3.33721c-0.37154,-0.0068 -0.72938,-0.06245 -1.06622,-0.16009l-3.56339,-0.95323l0.00005,-0.00016c-1.23906,-0.35029 -2.49955,-0.72248 -3.6975,-1.15907c-1.11006,-0.03148 -2.09456,-0.49929 -2.75756,-1.21812c-1.49264,-0.81742 -2.71582,-1.83872 -3.42163,-3.18949c-0.64246,1.09875 -1.92653,1.83665 -3.38942,1.80989c-0.6137,-0.01123 -1.18998,-0.15577 -1.69605,-0.40259c-0.68998,0.59179 -1.62612,0.94752 -2.64983,0.9288c-1.41085,-0.02581 -2.62401,-0.75619 -3.24069,-1.81402c-0.43223,0.14723 -0.90183,0.22395 -1.39148,0.21499c-1.48489,-0.02716 -2.75077,-0.83478 -3.33278,-1.98319c-0.45888,1.4472 -1.94313,2.49239 -3.67923,2.46063c-1.93015,-0.03531 -3.49027,-1.3893 -3.65933,-3.09634l-0.2744,-2.38305l0.23884,-0.0227c-0.10361,-0.09114 -0.21058,-0.17958 -0.32128,-0.26506c-0.27032,-0.20874 -0.60352,-0.34131 -0.94347,-0.46387c0.24494,1.63538 -0.24316,4.05376 -0.26077,4.84839l-0.00671,0.30273c0,0 -0.07551,3.40579 -3.82476,3.33721z" fill="#14c700" stroke-width="0.5"/><path d="M539.60456,524.28022c-3.74923,-0.06859 -3.67374,-3.47438 -3.67374,-3.47438l0.00672,-0.30274c0.07089,-3.19763 -0.6609,-9.59743 2.41583,-11.75915c1.86934,-1.3134 4.63858,-0.84693 7.11042,0.15872c0.60414,-1.81726 1.94667,-3.29089 4.86106,-3.89931c1.81325,-0.37853 3.73188,0.31137 5.36113,1.53334c0.56725,-0.1626 1.22497,-0.25116 1.98771,-0.24895c0.64676,0.00187 1.22754,0.20227 1.75591,0.52924c0.61238,-0.25775 1.25563,-0.42335 1.91002,-0.46217c0.61531,-0.0365 1.22869,0.07838 1.82542,0.31206c0.08902,-0.07389 0.1817,-0.14489 0.27825,-0.21282c1.64273,-1.15559 4.22575,-0.8576 6.22221,-0.33494c0.90944,0.23809 1.64202,0.7956 2.32404,1.42893c1.71908,-0.44889 3.75734,0.6555 5.33456,1.90859c1.4263,0.25685 2.94457,0.83935 4.17825,1.61177c1.33177,-1.42174 2.90544,-2.15849 4.56617,-2.15533c3.55394,-4.49694 6.66185,-1.97961 10.11064,-0.24844c1.24703,0.62595 2.62159,1.10537 3.80009,1.82229c0.63848,-0.42552 1.42981,-0.67144 2.28224,-0.65775c0.17233,-0.92677 0.53203,-1.77046 1.24901,-2.45573c4.36402,-4.17102 6.86574,-0.9888 8.33054,1.74964c0.05751,-0.03029 0.11603,-0.05924 0.17561,-0.08678c-0.13787,-2.28138 1.21416,-4.12764 6.05115,-4.65833c1.72136,-0.18886 2.73274,1.94235 4.03086,2.98649c2.60222,2.09308 5.00792,4.73111 7.39583,6.98943c0,0 2.59771,2.45676 -0.10679,4.81651c-2.1141,1.84462 -4.16295,0.7461 -4.95675,0.17858c-0.32903,1.61002 -1.9009,2.81392 -3.76225,2.77987c-0.83921,-0.01535 -1.60845,-0.27999 -2.22385,-0.71455l-3.57913,-2.46615l0.00415,-0.00499c-0.00869,-0.00341 -0.01737,-0.00683 -0.02605,-0.01024c-0.04864,-0.01913 -0.09661,-0.03823 -0.1439,-0.05731c-0.45506,1.45255 -1.94227,2.50279 -3.6825,2.47096c-0.39296,-0.00719 -0.77058,-0.06903 -1.12425,-0.17739c-0.5424,1.31624 -1.9538,2.24111 -3.58847,2.2112c-0.71859,-0.01315 -1.38588,-0.20908 -1.94922,-0.53794c-0.70014,0.842 -1.81972,1.37757 -3.06989,1.3547c-1.84328,-0.03372 -3.34909,-1.2701 -3.62814,-2.86811c-0.45973,0.33605 -1.60999,0.56227 -2.98694,0.70542c-0.58719,0.32325 -1.27901,0.504 -2.01627,0.4905c-0.12014,-0.0022 -0.23886,-0.00951 -0.35588,-0.02169c-0.29345,1.29395 -0.5813,2.3948 -0.70177,3.10735l-4.61885,-3.39333c-0.1294,0.45966 -0.36144,0.88125 -0.67227,1.24388c0.04537,0.22338 0.06668,0.45424 0.06145,0.69022c-0.0417,1.88098 -1.75409,3.37508 -3.82475,3.33721c-0.37154,-0.0068 -0.72938,-0.06245 -1.06622,-0.1601l-3.56339,-0.95323l0.00005,-0.00016c-1.23906,-0.35029 -2.49955,-0.72248 -3.6975,-1.15907c-1.11006,-0.03148 -2.09456,-0.49929 -2.75756,-1.21812c-1.49264,-0.81742 -2.71582,-1.83872 -3.42163,-3.18949c-0.64246,1.09875 -1.92653,1.83665 -3.38942,1.80989c-0.6137,-0.01123 -1.18998,-0.15577 -1.69605,-0.40259c-0.68998,0.59179 -1.62612,0.94752 -2.64983,0.9288c-1.41085,-0.02581 -2.62401,-0.7562 -3.24069,-1.81402c-0.43223,0.14723 -0.90183,0.22396 -1.39148,0.21499c-1.48489,-0.02716 -2.75077,-0.83478 -3.33277,-1.98319c-0.45888,1.4472 -1.94313,2.49239 -3.67923,2.46063c-1.93015,-0.03531 -3.49028,-1.3893 -3.65933,-3.09634l-0.27439,-2.38305l0.23884,-0.0227c-0.10361,-0.09114 -0.21058,-0.17958 -0.32128,-0.26506c-0.27032,-0.20874 -0.60353,-0.34131 -0.94347,-0.46387c0.24494,1.63538 -0.24316,4.05376 -0.26077,4.84839l-0.00671,0.30273c0,0 -0.07551,3.40579 -3.82476,3.33721z" fill="#14c700" stroke-width="0.5"/><path d="M388.43724,583.46825l-7.02497,-16.28047l122.69837,-52.9439l7.02497,16.28047z" fill="#0c7d00" stroke-width="0"/><path d="M389.00613,572.4785c-3.46961,1.42242 -4.74962,-1.73458 -4.74962,-1.73458l-0.11377,-0.28063c-1.20177,-2.96406 -4.4092,-8.55023 -2.44068,-11.75402c1.19602,-1.94653 3.92346,-2.61538 6.59146,-2.67132c-0.16527,-1.90791 0.48357,-3.79284 2.91842,-5.50612c1.5149,-1.06594 3.54986,-1.19263 5.52992,-0.71615c0.45641,-0.37403 1.02523,-0.71592 1.72643,-1.01609c0.59458,-0.25452 1.20722,-0.30062 1.8219,-0.20975c0.46015,-0.47928 0.98516,-0.88616 1.57062,-1.18107c0.55049,-0.27729 1.1592,-0.41482 1.79968,-0.43669c0.05246,-0.10311 0.10943,-0.20503 0.17116,-0.30564c1.05047,-1.71185 3.54019,-2.46161 5.58034,-2.77269c0.92935,-0.1417 1.82285,0.07995 2.69999,0.39125c1.40057,-1.09323 3.70957,-0.88674 5.6542,-0.36108c1.41135,-0.32924 3.03615,-0.39593 4.47491,-0.17549c0.65951,-1.83303 1.81252,-3.13295 3.33861,-3.78802c1.4815,-5.53698 5.33242,-4.45696 9.18485,-4.23382c1.39298,0.08068 2.845,-0.02372 4.2111,0.16763c0.41765,-0.64366 1.0468,-1.18297 1.83489,-1.50812c-0.20894,-0.9192 -0.21294,-1.83637 0.17387,-2.74962c2.35441,-5.55867 5.91217,-3.628 8.34204,-1.69398c0.04081,-0.05059 0.08306,-0.10036 0.12685,-0.14926c-1.03044,-2.04007 -0.52051,-4.27091 3.71041,-6.67452c1.50567,-0.85538 3.27866,0.70073 4.88422,1.14514c3.21853,0.89084 6.47252,2.35989 9.55974,3.48735c0,0 3.35847,1.22654 1.81019,4.46468c-1.21029,2.53125 -3.5267,2.33435 -4.48039,2.12777c0.33577,1.60863 -0.63052,3.33677 -2.35304,4.04295c-0.77662,0.31839 -1.58775,0.38017 -2.32496,0.22498l-4.26331,-0.84634l0.00184,-0.00622c-0.00933,0.00032 -0.01865,0.00061 -0.02798,0.00092c-0.05224,0.00171 -0.10385,0.00317 -0.15483,0.00439c0.15766,1.51398 -0.79175,3.06749 -2.40219,3.72772c-0.36365,0.14909 -0.73487,0.24191 -1.10253,0.28253c0.02346,1.42342 -0.90602,2.83179 -2.41877,3.45196c-0.665,0.27262 -1.35531,0.3571 -2.00284,0.27833c-0.30925,1.05048 -1.12504,1.9858 -2.28197,2.4601c-1.7058,0.69933 -3.57823,0.1607 -4.46756,-1.19599c-0.28897,0.49068 -1.25548,1.15411 -2.46304,1.83108c-0.41108,0.52943 -0.97467,0.96948 -1.65695,1.24919c-0.11119,0.04558 -0.22308,0.0859 -0.33535,0.12108c0.24321,1.30433 0.41506,2.42914 0.58674,3.13111l-5.58528,-1.28573c0.06331,0.47332 0.01727,0.95233 -0.12445,1.40844c0.13016,0.18713 0.24119,0.39066 0.32988,0.6094c0.70693,1.74358 -0.27339,3.79384 -2.18961,4.57944c-0.34384,0.14095 -0.69444,0.23163 -1.04239,0.27543l-3.64945,0.53654l-0.00002,-0.00017c-1.27645,0.16927 -2.58125,0.32694 -3.85414,0.40068c-1.0317,0.41089 -2.12097,0.3714 -3.01451,-0.02593c-1.69435,-0.15917 -3.22206,-0.61229 -4.40527,-1.57289c-0.15457,1.26337 -1.04123,2.44963 -2.39501,3.00464c-0.56793,0.23283 -1.15431,0.32843 -1.71676,0.3023c-0.39906,0.81672 -1.11766,1.51423 -2.06502,1.90262c-1.30563,0.53526 -2.70888,0.34528 -3.69419,-0.38166c-0.33853,0.30643 -0.73931,0.56292 -1.19244,0.74868c-1.37414,0.56335 -2.8564,0.32335 -3.84577,-0.5005c0.15204,1.51058 -0.79667,3.05828 -2.40329,3.71693c-1.78619,0.73227 -3.75509,0.10719 -4.58662,-1.39319l-1.19607,-2.07933l0.21031,-0.11547c-0.13124,-0.04264 -0.26449,-0.08146 -0.4,-0.11609c-0.3309,-0.08455 -0.68936,-0.07427 -1.05004,-0.05212c0.87281,1.40451 1.38279,3.81837 1.68144,4.55495l0.11377,0.28062c0,0 1.28,3.15701 -2.18962,4.57944z" fill="#14c700" stroke-width="0.5"/><path d="M421.34797,559.01333c-3.46961,1.42242 -4.74962,-1.73458 -4.74962,-1.73458l-0.11377,-0.28063c-1.20177,-2.96406 -4.4092,-8.55023 -2.44068,-11.75402c1.19602,-1.94653 3.92346,-2.61538 6.59146,-2.67132c-0.16527,-1.90791 0.48357,-3.79284 2.91842,-5.50612c1.5149,-1.06594 3.54986,-1.19263 5.52992,-0.71615c0.45641,-0.37403 1.02523,-0.71592 1.72643,-1.01609c0.59458,-0.25452 1.20723,-0.30062 1.8219,-0.20974c0.46015,-0.47928 0.98516,-0.88617 1.57062,-1.18107c0.55049,-0.27729 1.1592,-0.41482 1.79968,-0.43669c0.05246,-0.10311 0.10943,-0.20503 0.17116,-0.30564c1.05047,-1.71185 3.54019,-2.46161 5.58034,-2.77269c0.92935,-0.1417 1.82285,0.07995 2.69999,0.39125c1.40057,-1.09323 3.70957,-0.88674 5.6542,-0.36108c1.41135,-0.32924 3.03615,-0.39593 4.47491,-0.17549c0.65951,-1.83303 1.81252,-3.13295 3.33861,-3.78802c1.4815,-5.53698 5.33242,-4.45696 9.18485,-4.23382c1.39298,0.08068 2.845,-0.02372 4.2111,0.16763c0.41765,-0.64366 1.0468,-1.18297 1.83489,-1.50812c-0.20894,-0.9192 -0.21294,-1.83637 0.17387,-2.74962c2.35441,-5.55867 5.91217,-3.628 8.34204,-1.69398c0.04081,-0.05059 0.08306,-0.10036 0.12685,-0.14926c-1.03044,-2.04007 -0.52051,-4.27091 3.71041,-6.67452c1.50567,-0.85538 3.27866,0.70073 4.88422,1.14514c3.21853,0.89084 6.47252,2.35989 9.55974,3.48735c0,0 3.35847,1.22654 1.81019,4.46468c-1.21029,2.53125 -3.5267,2.33435 -4.48039,2.12777c0.33577,1.60863 -0.63052,3.33677 -2.35304,4.04295c-0.77662,0.31839 -1.58775,0.38017 -2.32496,0.22498l-4.26331,-0.84634l0.00184,-0.00623c-0.00933,0.00032 -0.01865,0.00061 -0.02798,0.00092c-0.05224,0.00171 -0.10385,0.00317 -0.15483,0.00439c0.15766,1.51398 -0.79176,3.06749 -2.4022,3.72771c-0.36365,0.14909 -0.73487,0.24191 -1.10253,0.28253c0.02346,1.42342 -0.90602,2.83179 -2.41877,3.45196c-0.665,0.27262 -1.35531,0.3571 -2.00284,0.27834c-0.30925,1.05048 -1.12504,1.98579 -2.28197,2.4601c-1.7058,0.69933 -3.57823,0.1607 -4.46756,-1.19599c-0.28897,0.49068 -1.25548,1.15411 -2.46304,1.83108c-0.41108,0.52943 -0.97467,0.96948 -1.65695,1.24919c-0.11119,0.04558 -0.22308,0.0859 -0.33535,0.12108c0.24321,1.30433 0.41506,2.42914 0.58674,3.13111l-5.58528,-1.28573c0.06331,0.47332 0.01727,0.95233 -0.12445,1.40844c0.13016,0.18713 0.24119,0.39066 0.32988,0.6094c0.70693,1.74358 -0.27339,3.79384 -2.18961,4.57944c-0.34384,0.14095 -0.69444,0.23163 -1.0424,0.27542l-3.64945,0.53654l-0.00002,-0.00017c-1.27645,0.16927 -2.58125,0.32694 -3.85414,0.40068c-1.0317,0.41089 -2.12097,0.3714 -3.01451,-0.02593c-1.69435,-0.15917 -3.22206,-0.61229 -4.40527,-1.57289c-0.15457,1.26337 -1.04123,2.44963 -2.39501,3.00464c-0.56793,0.23283 -1.15431,0.32843 -1.71676,0.3023c-0.39906,0.81672 -1.11766,1.51423 -2.06502,1.90262c-1.30563,0.53526 -2.70888,0.34528 -3.69419,-0.38166c-0.33853,0.30643 -0.73931,0.56292 -1.19244,0.74868c-1.37414,0.56335 -2.8564,0.32335 -3.84577,-0.5005c0.15204,1.51058 -0.79667,3.05828 -2.40329,3.71693c-1.78619,0.73227 -3.75509,0.10719 -4.58662,-1.39319l-1.19607,-2.07933l0.21031,-0.11547c-0.13124,-0.04264 -0.26449,-0.08146 -0.4,-0.11609c-0.3309,-0.08455 -0.68936,-0.07427 -1.05004,-0.05212c0.87281,1.40451 1.38279,3.81837 1.68144,4.55495l0.11377,0.28062c0,0 1.28,3.15701 -2.18962,4.57944z" fill="#14c700" stroke-width="0.5"/><path d="M288.33214,630.5103l-7.02497,-16.28048l122.69837,-52.9439l7.02496,16.28048z" fill="#0c7d00" stroke-width="0"/><path d="M288.90102,619.52054c-3.46961,1.42242 -4.74962,-1.73458 -4.74962,-1.73458l-0.11377,-0.28063c-1.20177,-2.96406 -4.4092,-8.55023 -2.44068,-11.75402c1.19603,-1.94654 3.92346,-2.61537 6.59146,-2.67132c-0.16527,-1.90791 0.48357,-3.79285 2.91842,-5.50612c1.5149,-1.06595 3.54986,-1.19263 5.52992,-0.71614c0.45641,-0.37403 1.02522,-0.71592 1.72643,-1.01609c0.59458,-0.25452 1.20722,-0.30062 1.82189,-0.20974c0.46015,-0.47928 0.98517,-0.88617 1.57063,-1.18107c0.5505,-0.27729 1.1592,-0.41483 1.79968,-0.43669c0.05246,-0.10311 0.10942,-0.20502 0.17116,-0.30564c1.05047,-1.71186 3.54019,-2.46161 5.58035,-2.77269c0.92935,-0.1417 1.82285,0.07995 2.69998,0.39125c1.40057,-1.09323 3.70958,-0.88674 5.6542,-0.36108c1.41135,-0.32925 3.03616,-0.39594 4.47491,-0.17549c0.65951,-1.83303 1.81252,-3.13295 3.3386,-3.78801c1.4815,-5.53697 5.33242,-4.45695 9.18485,-4.23381c1.39297,0.08068 2.845,-0.02373 4.2111,0.16763c0.41765,-0.64367 1.04679,-1.18297 1.83489,-1.50812c-0.20894,-0.91921 -0.21294,-1.83637 0.17387,-2.74962c2.35442,-5.55867 5.91217,-3.62801 8.34204,-1.69398c0.04081,-0.0506 0.08306,-0.10036 0.12685,-0.14925c-1.03044,-2.04007 -0.52051,-4.27091 3.71041,-6.67452c1.50567,-0.85538 3.27866,0.70074 4.88423,1.14513c3.21853,0.89084 6.47252,2.35989 9.55974,3.48735c0,0 3.35847,1.22654 1.81019,4.46468c-1.21029,2.53125 -3.5267,2.33435 -4.48039,2.12777c0.33577,1.60862 -0.63052,3.33677 -2.35304,4.04295c-0.77661,0.3184 -1.58775,0.38017 -2.32496,0.22499l-4.26331,-0.84634l0.00184,-0.00622c-0.00934,0.00032 -0.01866,0.00061 -0.02798,0.00092c-0.05224,0.00171 -0.10385,0.00317 -0.15483,0.00439c0.15765,1.51399 -0.79175,3.06749 -2.40219,3.72771c-0.36365,0.14909 -0.73487,0.24191 -1.10253,0.28254c0.02346,1.42342 -0.90602,2.83179 -2.41877,3.45196c-0.665,0.27262 -1.35532,0.3571 -2.00285,0.27833c-0.30926,1.05048 -1.12503,1.9858 -2.28196,2.4601c-1.7058,0.69933 -3.57824,0.1607 -4.46756,-1.19599c-0.28897,0.49068 -1.25547,1.15412 -2.46303,1.83108c-0.41108,0.52944 -0.97467,0.96948 -1.65695,1.24919c-0.11118,0.04558 -0.22308,0.0859 -0.33535,0.12108c0.2432,1.30434 0.41506,2.42913 0.58675,3.13111l-5.58528,-1.28573c0.06331,0.47331 0.01728,0.95233 -0.12445,1.40844c0.13016,0.18713 0.24119,0.39066 0.32987,0.6094c0.70693,1.74357 -0.27339,3.79384 -2.18961,4.57943c-0.34384,0.14095 -0.69443,0.23163 -1.04239,0.27543l-3.64945,0.53654l-0.00002,-0.00017c-1.27645,0.16927 -2.58125,0.32694 -3.85414,0.40068c-1.0317,0.41089 -2.12097,0.3714 -3.01451,-0.02593c-1.69435,-0.15917 -3.22206,-0.61229 -4.40527,-1.57289c-0.15457,1.26337 -1.04122,2.44963 -2.39501,3.00464c-0.56793,0.23283 -1.15431,0.32843 -1.71676,0.30231c-0.39906,0.81673 -1.11766,1.51423 -2.06502,1.90262c-1.30563,0.53526 -2.70887,0.34528 -3.69419,-0.38166c-0.33853,0.30643 -0.73931,0.56292 -1.19244,0.74868c-1.37414,0.56335 -2.8564,0.32335 -3.84577,-0.5005c0.15204,1.51058 -0.79667,3.05827 -2.40329,3.71694c-1.78619,0.73227 -3.75509,0.10719 -4.58662,-1.39319l-1.19607,-2.07934l0.2103,-0.11546c-0.13124,-0.04264 -0.26449,-0.08147 -0.4,-0.11609c-0.3309,-0.08456 -0.68937,-0.07427 -1.05005,-0.05212c0.87282,1.40451 1.38279,3.81837 1.68144,4.55495l0.11377,0.28063c0,0 1.28,3.15701 -2.18962,4.57944z" fill="#14c700" stroke-width="0.5"/><path d="M321.24286,606.05537c-3.46961,1.42242 -4.74962,-1.73459 -4.74962,-1.73459l-0.11377,-0.28063c-1.20177,-2.96406 -4.4092,-8.55023 -2.44068,-11.75401c1.19603,-1.94654 3.92346,-2.61537 6.59145,-2.67133c-0.16527,-1.90791 0.48357,-3.79284 2.91843,-5.50612c1.5149,-1.06595 3.54985,-1.19263 5.52991,-0.71615c0.45641,-0.37403 1.02523,-0.71592 1.72643,-1.01608c0.59458,-0.25452 1.20722,-0.30061 1.82189,-0.20974c0.46015,-0.47928 0.98516,-0.88617 1.57062,-1.18107c0.5505,-0.27729 1.1592,-0.41483 1.79969,-0.43669c0.05246,-0.10311 0.10943,-0.20502 0.17117,-0.30565c1.05047,-1.71186 3.54018,-2.46161 5.58034,-2.77269c0.92935,-0.1417 1.82286,0.07995 2.69999,0.39125c1.40057,-1.09323 3.70958,-0.88674 5.6542,-0.36108c1.41135,-0.32925 3.03615,-0.39594 4.4749,-0.17549c0.65951,-1.83303 1.81252,-3.13295 3.3386,-3.78801c1.4815,-5.53697 5.33242,-4.45695 9.18485,-4.23382c1.39297,0.08068 2.845,-0.02373 4.2111,0.16763c0.41765,-0.64367 1.04679,-1.18298 1.83489,-1.50813c-0.20894,-0.91921 -0.21294,-1.83637 0.17387,-2.74961c2.35442,-5.55867 5.91217,-3.62801 8.34204,-1.69398c0.04081,-0.0506 0.08306,-0.10036 0.12685,-0.14926c-1.03044,-2.04007 -0.52051,-4.27091 3.71041,-6.67452c1.50567,-0.85539 3.27865,0.70074 4.88422,1.14513c3.21853,0.89084 6.47253,2.35989 9.55975,3.48735c0,0 3.35847,1.22654 1.81018,4.46469c-1.21029,2.53125 -3.5267,2.33435 -4.48039,2.12776c0.33577,1.60862 -0.63051,3.33677 -2.35304,4.04296c-0.77661,0.3184 -1.58776,0.38016 -2.32496,0.22498l-4.26331,-0.84634l0.00184,-0.00622c-0.00934,0.00032 -0.01865,0.00061 -0.02798,0.00092c-0.05224,0.00171 -0.10385,0.00317 -0.15483,0.00439c0.15765,1.51399 -0.79176,3.06749 -2.4022,3.72771c-0.36365,0.14909 -0.73487,0.2419 -1.10253,0.28253c0.02346,1.42342 -0.90602,2.83179 -2.41877,3.45196c-0.665,0.27262 -1.35531,0.35711 -2.00284,0.27834c-0.30926,1.05048 -1.12504,1.9858 -2.28197,2.4601c-1.7058,0.69933 -3.57823,0.1607 -4.46756,-1.19599c-0.28897,0.49068 -1.25547,1.15411 -2.46303,1.83107c-0.41108,0.52944 -0.97467,0.96948 -1.65695,1.24919c-0.11118,0.04558 -0.22307,0.0859 -0.33535,0.12108c0.2432,1.30434 0.41505,2.42914 0.58674,3.13111l-5.58528,-1.28573c0.06331,0.47331 0.01727,0.95233 -0.12445,1.40844c0.13016,0.18713 0.24119,0.39066 0.32988,0.6094c0.70693,1.74357 -0.27339,3.79385 -2.18961,4.57944c-0.34384,0.14095 -0.69444,0.23162 -1.0424,0.27542l-3.64945,0.53655l-0.00002,-0.00017c-1.27645,0.16927 -2.58125,0.32693 -3.85414,0.40067c-1.0317,0.41089 -2.12097,0.37141 -3.01451,-0.02592c-1.69435,-0.15917 -3.22206,-0.61229 -4.40526,-1.57289c-0.15457,1.26337 -1.04122,2.44962 -2.39501,3.00464c-0.56793,0.23283 -1.15431,0.32843 -1.71676,0.3023c-0.39906,0.81673 -1.11766,1.51423 -2.06501,1.90263c-1.30563,0.53526 -2.70888,0.34528 -3.6942,-0.38166c-0.33853,0.30643 -0.73931,0.56293 -1.19244,0.74869c-1.37414,0.56335 -2.8564,0.32335 -3.84577,-0.50051c0.15204,1.51058 -0.79667,3.05827 -2.40329,3.71694c-1.78619,0.73227 -3.75509,0.10719 -4.58662,-1.39319l-1.19608,-2.07933l0.21031,-0.11547c-0.13124,-0.04264 -0.2645,-0.08146 -0.4,-0.11609c-0.3309,-0.08456 -0.68936,-0.07427 -1.05004,-0.05211c0.87282,1.40451 1.38278,3.81837 1.68143,4.55495l0.11378,0.28062c0,0 1.28,3.15701 -2.18962,4.57944z" fill="#14c700" stroke-width="0.5"/><path d="M200.23905,665.54033l-7.02497,-16.28048l122.69837,-52.9439l7.02496,16.28048z" fill="#0c7d00" stroke-width="0"/><path d="M200.80793,654.55057c-3.46961,1.42242 -4.74962,-1.73458 -4.74962,-1.73458l-0.11377,-0.28063c-1.20177,-2.96406 -4.4092,-8.55023 -2.44068,-11.75401c1.19603,-1.94654 3.92346,-2.61537 6.59145,-2.67133c-0.16527,-1.90791 0.48357,-3.79285 2.91843,-5.50612c1.5149,-1.06595 3.54986,-1.19263 5.52992,-0.71614c0.45641,-0.37403 1.02522,-0.71592 1.72643,-1.01608c0.59458,-0.25452 1.20722,-0.30062 1.82189,-0.20974c0.46015,-0.47928 0.98517,-0.88617 1.57063,-1.18107c0.5505,-0.27729 1.1592,-0.41483 1.79968,-0.43669c0.05246,-0.10311 0.10942,-0.20502 0.17116,-0.30565c1.05047,-1.71186 3.54019,-2.46161 5.58035,-2.77269c0.92935,-0.1417 1.82285,0.07995 2.69998,0.39125c1.40057,-1.09323 3.70958,-0.88674 5.6542,-0.36108c1.41135,-0.32925 3.03615,-0.39594 4.4749,-0.17549c0.65951,-1.83303 1.81253,-3.13295 3.33861,-3.78801c1.4815,-5.53697 5.33242,-4.45695 9.18485,-4.23382c1.39297,0.08068 2.845,-0.02373 4.2111,0.16763c0.41765,-0.64367 1.0468,-1.18297 1.83489,-1.50812c-0.20894,-0.91921 -0.21294,-1.83637 0.17387,-2.74962c2.35442,-5.55867 5.91217,-3.62801 8.34204,-1.69398c0.04081,-0.0506 0.08306,-0.10036 0.12685,-0.14926c-1.03044,-2.04007 -0.52051,-4.2709 3.71041,-6.67452c1.50567,-0.85538 3.27866,0.70074 4.88423,1.14513c3.21853,0.89084 6.47252,2.35989 9.55974,3.48735c0,0 3.35848,1.22654 1.81019,4.46468c-1.21029,2.53125 -3.52671,2.33435 -4.48039,2.12777c0.33577,1.60862 -0.63052,3.33677 -2.35304,4.04295c-0.77661,0.3184 -1.58775,0.38016 -2.32496,0.22498l-4.26331,-0.84634l0.00184,-0.00622c-0.00933,0.00032 -0.01865,0.00061 -0.02798,0.00092c-0.05224,0.00171 -0.10385,0.00317 -0.15484,0.00439c0.15765,1.51399 -0.79175,3.06749 -2.40219,3.72771c-0.36365,0.14909 -0.73488,0.24191 -1.10254,0.28253c0.02346,1.42342 -0.90602,2.83179 -2.41877,3.45196c-0.665,0.27262 -1.35532,0.3571 -2.00284,0.27833c-0.30926,1.05048 -1.12504,1.9858 -2.28197,2.4601c-1.7058,0.69933 -3.57824,0.1607 -4.46756,-1.19599c-0.28897,0.49068 -1.25547,1.15411 -2.46303,1.83107c-0.41108,0.52944 -0.97467,0.96948 -1.65695,1.24919c-0.11118,0.04558 -0.22308,0.0859 -0.33535,0.12108c0.2432,1.30434 0.41506,2.42914 0.58675,3.13111l-5.58528,-1.28573c0.06331,0.47331 0.01727,0.95234 -0.12445,1.40844c0.13016,0.18713 0.24119,0.39066 0.32988,0.6094c0.70693,1.74357 -0.27339,3.79384 -2.18961,4.57943c-0.34384,0.14095 -0.69443,0.23163 -1.04239,0.27542l-3.64946,0.53654l-0.00002,-0.00017c-1.27645,0.16927 -2.58125,0.32694 -3.85414,0.40068c-1.0317,0.41089 -2.12097,0.3714 -3.01451,-0.02593c-1.69435,-0.15917 -3.22206,-0.61229 -4.40527,-1.57289c-0.15457,1.26337 -1.04122,2.44963 -2.39501,3.00464c-0.56793,0.23283 -1.15431,0.32843 -1.71676,0.3023c-0.39906,0.81673 -1.11766,1.51423 -2.06502,1.90262c-1.30563,0.53526 -2.70887,0.34528 -3.69419,-0.38166c-0.33853,0.30643 -0.73931,0.56292 -1.19244,0.74868c-1.37414,0.56335 -2.8564,0.32335 -3.84576,-0.5005c0.15204,1.51058 -0.79667,3.05827 -2.40329,3.71693c-1.78619,0.73227 -3.75509,0.10719 -4.58661,-1.39319l-1.19608,-2.07934l0.21031,-0.11546c-0.13124,-0.04264 -0.26449,-0.08146 -0.4,-0.11609c-0.3309,-0.08456 -0.68937,-0.07427 -1.05005,-0.05212c0.87282,1.40451 1.38279,3.81837 1.68144,4.55495l0.11377,0.28062c0,0 1.28,3.15701 -2.18962,4.57944z" fill="#14c700" stroke-width="0.5"/><path d="M233.14977,641.0854c-3.46961,1.42242 -4.74962,-1.73459 -4.74962,-1.73459l-0.11377,-0.28063c-1.20177,-2.96406 -4.4092,-8.55023 -2.44068,-11.75401c1.19603,-1.94654 3.92346,-2.61537 6.59145,-2.67133c-0.16527,-1.90791 0.48357,-3.79284 2.91842,-5.50612c1.5149,-1.06595 3.54986,-1.19263 5.52992,-0.71615c0.45641,-0.37403 1.02522,-0.71592 1.72643,-1.01608c0.59458,-0.25452 1.20722,-0.30061 1.82189,-0.20974c0.46015,-0.47928 0.98516,-0.88617 1.57062,-1.18107c0.5505,-0.27729 1.1592,-0.41482 1.79969,-0.43668c0.05246,-0.10311 0.10942,-0.20502 0.17116,-0.30565c1.05047,-1.71186 3.54019,-2.46161 5.58034,-2.77269c0.92935,-0.1417 1.82286,0.07995 2.69999,0.39125c1.40057,-1.09323 3.70957,-0.88674 5.65419,-0.36108c1.41135,-0.32925 3.03616,-0.39594 4.47491,-0.17549c0.65951,-1.83303 1.81252,-3.13295 3.3386,-3.78802c1.4815,-5.53697 5.33242,-4.45695 9.18485,-4.23381c1.39297,0.08068 2.845,-0.02373 4.2111,0.16763c0.41765,-0.64367 1.04679,-1.18298 1.83489,-1.50813c-0.20894,-0.91921 -0.21294,-1.83637 0.17387,-2.74961c2.35442,-5.55867 5.91216,-3.62801 8.34204,-1.69398c0.04081,-0.0506 0.08306,-0.10036 0.12685,-0.14926c-1.03044,-2.04007 -0.52051,-4.27091 3.71041,-6.67453c1.50567,-0.85538 3.27866,0.70074 4.88422,1.14513c3.21853,0.89084 6.47253,2.35989 9.55975,3.48735c0,0 3.35847,1.22654 1.81019,4.46469c-1.21029,2.53125 -3.5267,2.33435 -4.48039,2.12777c0.33577,1.60862 -0.63051,3.33677 -2.35304,4.04296c-0.77661,0.3184 -1.58776,0.38016 -2.32496,0.22498l-4.26331,-0.84634l0.00183,-0.00622c-0.00933,0.00032 -0.01865,0.00061 -0.02797,0.00092c-0.05224,0.00171 -0.10385,0.00317 -0.15483,0.00439c0.15765,1.51399 -0.79176,3.06749 -2.4022,3.72771c-0.36365,0.14909 -0.73487,0.24191 -1.10253,0.28253c0.02346,1.42342 -0.90602,2.83179 -2.41877,3.45196c-0.665,0.27262 -1.35531,0.3571 -2.00284,0.27833c-0.30926,1.05048 -1.12505,1.9858 -2.28198,2.4601c-1.7058,0.69933 -3.57823,0.1607 -4.46755,-1.19599c-0.28897,0.49068 -1.25548,1.15411 -2.46304,1.83107c-0.41108,0.52944 -0.97468,0.96948 -1.65695,1.24919c-0.11118,0.04558 -0.22307,0.0859 -0.33534,0.12108c0.2432,1.30434 0.41505,2.42914 0.58674,3.13111l-5.58528,-1.28573c0.06331,0.47331 0.01728,0.95233 -0.12445,1.40844c0.13016,0.18713 0.24119,0.39065 0.32987,0.6094c0.70693,1.74357 -0.27338,3.79385 -2.1896,4.57944c-0.34384,0.14095 -0.69444,0.23163 -1.0424,0.27542l-3.64945,0.53654l-0.00002,-0.00017c-1.27645,0.16927 -2.58125,0.32693 -3.85415,0.40067c-1.0317,0.41089 -2.12097,0.3714 -3.01451,-0.02593c-1.69435,-0.15917 -3.22206,-0.61229 -4.40527,-1.57289c-0.15457,1.26337 -1.04122,2.44962 -2.39501,3.00464c-0.56793,0.23283 -1.15431,0.32843 -1.71676,0.30231c-0.39906,0.81673 -1.11766,1.51423 -2.06502,1.90262c-1.30563,0.53526 -2.70887,0.34528 -3.69419,-0.38166c-0.33853,0.30643 -0.73931,0.56292 -1.19244,0.74868c-1.37414,0.56335 -2.8564,0.32335 -3.84577,-0.5005c0.15204,1.51058 -0.79667,3.05827 -2.40329,3.71694c-1.78619,0.73227 -3.75509,0.10719 -4.58662,-1.39319l-1.19608,-2.07933l0.21031,-0.11547c-0.13124,-0.04264 -0.2645,-0.08146 -0.4,-0.11609c-0.3309,-0.08456 -0.68937,-0.07427 -1.05005,-0.05212c0.87282,1.40451 1.38279,3.81837 1.68144,4.55496l0.11377,0.28062c0,0 1.28,3.15701 -2.18962,4.57944z" fill="#14c700" stroke-width="0.5"/><path d="M147.2265,635.27661c-3.74853,-0.09986 -3.64463,-3.5049 -3.64463,-3.5049l0.00925,-0.30267c0.09756,-3.19693 -0.58084,-9.60261 2.51382,-11.73859c1.88023,-1.29776 4.64548,-0.80822 7.10885,0.21801c0.61928,-1.81216 1.97405,-3.27454 4.89341,-3.85863c1.81634,-0.3634 3.72915,0.34248 5.34816,1.57799c0.56858,-0.15786 1.22702,-0.24093 1.98972,-0.23236c0.64672,0.00726 1.2258,0.2125 1.75143,0.54386c0.6145,-0.25264 1.25912,-0.41286 1.91381,-0.44622c0.61559,-0.03137 1.22799,0.08862 1.82276,0.32727c0.08964,-0.07314 0.1829,-0.14337 0.28002,-0.21049c1.65231,-1.14185 4.23275,-0.82233 6.22478,-0.28304c0.90742,0.24567 1.63532,0.80926 2.31204,1.44826c1.72277,-0.43453 3.75174,0.68682 5.31846,1.95301c1.42411,0.26874 2.93747,0.86388 4.16466,1.64656c1.34357,-1.41058 2.92334,-2.13417 4.58399,-2.11717c3.59133,-4.46714 6.67813,-1.92398 10.11236,-0.16411c1.24176,0.63634 2.61228,1.12719 3.78476,1.85393c0.64201,-0.42019 1.43537,-0.6595 2.28765,-0.6387c0.18006,-0.9253 0.54678,-1.76596 1.26944,-2.44523c4.39866,-4.13448 6.87375,-0.93151 8.31566,1.81906c0.05777,-0.02981 0.11652,-0.05827 0.17632,-0.08532c-0.11884,-2.28245 1.24855,-4.11737 6.08979,-4.6077c1.72287,-0.1745 2.71645,1.96508 4.00581,3.02001c2.58468,2.11471 4.96829,4.77271 7.33728,7.05087c0,0 2.57713,2.47833 -0.14696,4.81545c-2.12941,1.82692 -4.16903,0.71135 -4.95806,0.13723c-0.34244,1.60722 -1.92431,2.79797 -3.78531,2.7484c-0.83905,-0.02234 -1.60605,-0.2934 -2.21781,-0.73307l-3.55844,-2.49592l0.00419,-0.00495c-0.00867,-0.00348 -0.01731,-0.00697 -0.02596,-0.01046c-0.04848,-0.01954 -0.09629,-0.03904 -0.14342,-0.05851c-0.46717,1.44871 -1.96307,2.48651 -3.70298,2.44016c-0.39288,-0.01046 -0.76997,-0.07546 -1.12273,-0.18677c-0.55336,1.31167 -1.97242,2.22474 -3.60678,2.1812c-0.71846,-0.01915 -1.38409,-0.22062 -1.94467,-0.55418c-0.70714,0.83613 -1.83116,1.36235 -3.08109,1.32905c-1.84293,-0.04909 -3.33838,-1.29799 -3.60409,-2.89827c-0.46251,0.3322 -1.61462,0.54882 -2.99271,0.68048c-0.58987,0.31834 -1.28317,0.49331 -2.02029,0.47367c-0.12012,-0.0032 -0.23877,-0.0115 -0.35568,-0.02465c-0.30424,1.29146 -0.60125,2.38987 -0.72767,3.10139l-4.59038,-3.43174c-0.13323,0.45857 -0.36878,0.8782 -0.68262,1.23823c0.04351,0.22375 0.06289,0.45478 0.05569,0.69071c-0.05739,1.88056 -1.78217,3.36034 -3.85244,3.3052c-0.37147,-0.0099 -0.72884,-0.06854 -1.06485,-0.16899l-3.55532,-0.98291l0.00005,-0.00016c-1.2361,-0.36062 -2.49345,-0.7433 -3.68771,-1.18987c-1.10976,-0.04074 -2.09032,-0.51674 -2.74731,-1.24107c-1.48577,-0.82984 -2.70038,-1.86131 -3.3949,-3.21791c-0.65159,1.09335 -1.94178,1.82052 -3.4044,1.78156c-0.61358,-0.01635 -1.18864,-0.16569 -1.69263,-0.41672c-0.69489,0.58601 -1.63397,0.93392 -2.65748,0.90667c-1.41058,-0.03758 -2.6176,-0.77805 -3.22545,-1.84099c-0.43345,0.14362 -0.90367,0.21643 -1.39323,0.20338c-1.48461,-0.03955 -2.74371,-0.85769 -3.31612,-2.01092c-0.47093,1.44332 -1.96385,2.47609 -3.69962,2.42985c-1.92978,-0.05141 -3.47857,-1.41836 -3.63338,-3.12676l-0.25451,-2.38525l0.23903,-0.02071c-0.10284,-0.09201 -0.20907,-0.18134 -0.31905,-0.26774c-0.26857,-0.21098 -0.60066,-0.34633 -0.93957,-0.47172c0.23129,1.63737 -0.27696,4.05158 -0.3012,4.84604l-0.00924,0.30267c0,0 -0.10391,3.40504 -3.85246,3.30519z" fill="#14c700" stroke-width="0.5"/><path d="M65.13941,635.77211c-3.74853,-0.09986 -3.64463,-3.5049 -3.64463,-3.5049l0.00924,-0.30268c0.09756,-3.19694 -0.58083,-9.60261 2.51382,-11.73859c1.88023,-1.29777 4.64548,-0.80822 7.10885,0.21801c0.61927,-1.81215 1.97405,-3.27454 4.89342,-3.85863c1.81634,-0.3634 3.72914,0.34249 5.34815,1.57799c0.56859,-0.15787 1.22702,-0.24093 1.98972,-0.23236c0.64672,0.00726 1.22581,0.2125 1.75143,0.54386c0.61451,-0.25264 1.25912,-0.41286 1.91381,-0.44622c0.61559,-0.03137 1.22799,0.08862 1.82276,0.32727c0.08963,-0.07314 0.1829,-0.14337 0.28001,-0.21049c1.65231,-1.14185 4.23276,-0.82233 6.22478,-0.28304c0.90742,0.24568 1.63533,0.80926 2.31205,1.44826c1.72277,-0.43453 3.75173,0.68682 5.31846,1.95302c1.42411,0.26874 2.93747,0.86388 4.16466,1.64656c1.34357,-1.41058 2.92334,-2.13418 4.58398,-2.11717c3.59133,-4.46713 6.67813,-1.92397 10.11236,-0.16411c1.24176,0.63634 2.61228,1.1272 3.78476,1.85393c0.64201,-0.42018 1.43536,-0.6595 2.28764,-0.6387c0.18006,-0.9253 0.54677,-1.76596 1.26944,-2.44522c4.39866,-4.13448 6.87374,-0.93151 8.31565,1.81906c0.05776,-0.02981 0.11652,-0.05827 0.17633,-0.08532c-0.11884,-2.28245 1.24855,-4.11737 6.08979,-4.6077c1.72287,-0.1745 2.71645,1.96507 4.00581,3.02c2.58468,2.11472 4.96829,4.77271 7.33728,7.05087c0,0 2.57713,2.47833 -0.14696,4.81545c-2.12942,1.82692 -4.16903,0.71136 -4.95807,0.13724c-0.34244,1.60722 -1.92431,2.79797 -3.78531,2.7484c-0.83905,-0.02234 -1.60605,-0.2934 -2.2178,-0.73307l-3.55845,-2.49592l0.00419,-0.00495c-0.00867,-0.00347 -0.01731,-0.00698 -0.02596,-0.01045c-0.04848,-0.01954 -0.09629,-0.03903 -0.14342,-0.05851c-0.46717,1.44871 -1.96307,2.4865 -3.70297,2.44016c-0.39288,-0.01046 -0.76997,-0.07546 -1.12273,-0.18677c-0.55336,1.31166 -1.97242,2.22474 -3.60679,2.1812c-0.71846,-0.01914 -1.38409,-0.22062 -1.94466,-0.55418c-0.70713,0.83613 -1.83116,1.36235 -3.08109,1.32905c-1.84293,-0.04909 -3.33838,-1.29798 -3.6041,-2.89826c-0.46251,0.3322 -1.61461,0.54882 -2.99271,0.68048c-0.58987,0.31834 -1.28317,0.49331 -2.0203,0.47367c-0.12012,-0.0032 -0.23877,-0.0115 -0.35568,-0.02465c-0.30424,1.29147 -0.60125,2.38987 -0.72767,3.10139l-4.59038,-3.43174c-0.13323,0.45857 -0.36878,0.8782 -0.68262,1.23823c0.04351,0.22375 0.06289,0.45478 0.05569,0.69071c-0.05739,1.88056 -1.78217,3.36034 -3.85244,3.3052c-0.37148,-0.0099 -0.72884,-0.06854 -1.06484,-0.16899l-3.55532,-0.98292l0.00006,-0.00016c-1.2361,-0.36062 -2.49344,-0.7433 -3.6877,-1.18987c-1.10977,-0.04074 -2.09032,-0.51674 -2.74731,-1.24107c-1.48577,-0.82984 -2.70038,-1.86131 -3.3949,-3.21792c-0.65159,1.09335 -1.94178,1.82052 -3.4044,1.78156c-0.61358,-0.01635 -1.18864,-0.16569 -1.69263,-0.41672c-0.69489,0.58601 -1.63397,0.93393 -2.65749,0.90667c-1.41058,-0.03758 -2.6176,-0.77805 -3.22545,-1.84099c-0.43345,0.14362 -0.90367,0.21643 -1.39323,0.20338c-1.48461,-0.03955 -2.74371,-0.85769 -3.31611,-2.01092c-0.47093,1.44332 -1.96385,2.4761 -3.69962,2.42986c-1.92978,-0.05141 -3.47857,-1.41836 -3.63338,-3.12676l-0.25451,-2.38526l0.23903,-0.02071c-0.10285,-0.092 -0.20907,-0.18134 -0.31905,-0.26774c-0.26857,-0.21098 -0.60066,-0.34633 -0.93957,-0.47172c0.23129,1.63737 -0.27696,4.05159 -0.3012,4.84605l-0.00923,0.30267c0,0 -0.10392,3.40504 -3.85246,3.30519z" fill="#14c700" stroke-width="0.5"/><path d="M922.6693,516.21637c-3.53731,1.24456 -4.6555,-1.97332 -4.6555,-1.97332l-0.09939,-0.28604c-1.04984,-3.02122 -3.96973,-8.76292 -1.8412,-11.8627c1.29324,-1.88335 4.05109,-2.41295 6.71849,-2.33347c-0.06826,-1.91383 0.67538,-3.76343 3.19402,-5.35096c1.56703,-0.98771 3.60579,-1.01099 5.55913,-0.43467c0.4748,-0.35039 1.06023,-0.66298 1.77575,-0.92719c0.60672,-0.22403 1.22092,-0.23898 1.83019,-0.11704c0.48387,-0.45532 1.02885,-0.83504 1.62852,-1.09986c0.56386,-0.249 1.17875,-0.35548 1.81952,-0.34482c0.05763,-0.10031 0.11969,-0.1992 0.18645,-0.29656c1.13597,-1.65635 3.66052,-2.27883 5.71383,-2.48601c0.93534,-0.09436 1.81645,0.17233 2.67666,0.52773c1.45423,-1.02077 3.74978,-0.6974 5.66523,-0.07375c1.42624,-0.25722 3.05233,-0.24138 4.47804,0.05177c0.75166,-1.79721 1.96914,-3.03696 3.52649,-3.61375c1.76051,-5.45468 5.55168,-4.18068 9.38782,-3.76237c1.38709,0.15125 2.84254,0.12064 4.19717,0.38106c0.44977,-0.62164 1.10546,-1.12835 1.90904,-1.41309c-0.16203,-0.92862 -0.1195,-1.8448 0.31315,-2.73725c2.6334,-5.43207 6.08861,-3.32338 8.41723,-1.26857c0.04332,-0.04846 0.08805,-0.09602 0.13426,-0.14263c-0.92561,-2.08972 -0.30315,-4.29182 4.04426,-6.47768c1.54713,-0.7779 3.23888,0.86617 4.81983,1.39146c3.16919,1.05298 6.34446,2.68523 9.3705,3.96787c0,0 3.29191,1.39535 1.58134,4.55077c-1.33716,2.46659 -3.64059,2.15242 -4.58257,1.89772c0.25372,1.62359 -0.79899,3.30048 -2.55513,3.91837c-0.79177,0.27858 -1.60499,0.29912 -2.33338,0.10674l-4.21488,-1.06154l0.00215,-0.00613c-0.00934,-0.00015 -0.01866,-0.00034 -0.02799,-0.0005c-0.05226,-0.00095 -0.10388,-0.0021 -0.15486,-0.00347c0.08064,1.52003 -0.94636,3.02337 -2.58823,3.60104c-0.37074,0.13044 -0.74619,0.20431 -1.11544,0.22623c-0.04879,1.42278 -1.04852,2.78218 -2.59079,3.32481c-0.67797,0.23853 -1.37168,0.28788 -2.01438,0.17636c-0.36215,1.03344 -1.22434,1.92616 -2.40385,2.34116c-1.73908,0.61188 -3.58178,-0.02104 -4.40113,-1.4211c-0.31349,0.47539 -1.31241,1.08893 -2.55276,1.70375c-0.43741,0.5079 -1.02261,0.91878 -1.71819,1.16351c-0.11335,0.03988 -0.22715,0.07447 -0.34106,0.10391c0.17672,1.315 0.29128,2.44707 0.42713,3.15685l-5.51286,-1.56744c0.03921,0.47592 -0.03106,0.95198 -0.19575,1.40031c0.1205,0.19349 0.22106,0.40239 0.29854,0.62535c0.61756,1.77719 -0.46551,3.77509 -2.41912,4.46245c-0.35054,0.12333 -0.7053,0.19609 -1.05503,0.22218l-3.67198,0.3507l-0.00001,-0.00017c-1.28339,0.10429 -2.59452,0.19555 -3.86951,0.20462c-1.05122,0.35802 -2.13708,0.26332 -3.00931,-0.17883c-1.68409,-0.24493 -3.18684,-0.77497 -4.31979,-1.79436c-0.21847,1.2539 -1.16416,2.39364 -2.54436,2.87925c-0.57901,0.20371 -1.16949,0.26945 -1.72989,0.21482c-0.43998,0.79543 -1.19304,1.45558 -2.15888,1.79541c-1.3311,0.46833 -2.7229,0.2074 -3.67007,-0.56859c-0.35365,0.28886 -0.76692,0.52469 -1.22889,0.68722c-1.40095,0.49291 -2.86913,0.17802 -3.81542,-0.69497c0.0752,1.51634 -0.95081,3.01392 -2.58877,3.59022c-1.82104,0.64071 -3.75569,-0.08346 -4.51003,-1.6241l-1.08904,-2.13734l0.2159,-0.10465c-0.12891,-0.04924 -0.26003,-0.09478 -0.3936,-0.13623c-0.32619,-0.10123 -0.68471,-0.10915 -1.04605,-0.10532c0.80043,1.44699 1.18728,3.88361 1.44818,4.6344l0.09939,0.28603c0,0 1.11818,3.21789 -2.41914,4.46245z" fill="#14c700" stroke-width="0.5"/><path d="M989.23086,491.18634c-3.5373,1.24455 -4.65549,-1.97332 -4.65549,-1.97332l-0.09939,-0.28604c-1.04984,-3.02121 -3.96972,-8.76292 -1.8412,-11.8627c1.29324,-1.88335 4.05109,-2.41296 6.71849,-2.33347c-0.06826,-1.91383 0.67538,-3.76342 3.19402,-5.35096c1.56702,-0.98771 3.60578,-1.01099 5.55912,-0.43467c0.4748,-0.35039 1.06023,-0.66298 1.77576,-0.92719c0.60672,-0.22402 1.22092,-0.23899 1.8302,-0.11704c0.48387,-0.45531 1.02885,-0.83504 1.62851,-1.09986c0.56385,-0.249 1.17875,-0.35548 1.81952,-0.34482c0.05763,-0.10032 0.11969,-0.19921 0.18646,-0.29657c1.13597,-1.65636 3.66051,-2.27883 5.71382,-2.48601c0.93534,-0.09436 1.81646,0.17233 2.67667,0.52772c1.45423,-1.02076 3.74978,-0.69739 5.66523,-0.07374c1.42624,-0.25722 3.05233,-0.24139 4.47805,0.05177c0.75166,-1.79721 1.96914,-3.03696 3.52649,-3.61376c1.76051,-5.45468 5.55168,-4.18067 9.38782,-3.76237c1.38709,0.15125 2.84254,0.12064 4.19717,0.38106c0.44976,-0.62165 1.10547,-1.12835 1.90904,-1.41309c-0.16203,-0.92862 -0.1195,-1.8448 0.31315,-2.73725c2.6334,-5.43207 6.08862,-3.32339 8.41723,-1.26857c0.04333,-0.04846 0.08804,-0.09602 0.13426,-0.14263c-0.92562,-2.08972 -0.30315,-4.29182 4.04426,-6.47769c1.54713,-0.7779 3.23888,0.86617 4.81983,1.39146c3.16919,1.05298 6.34446,2.68523 9.3705,3.96787c0,0 3.29192,1.39535 1.58134,4.55077c-1.33716,2.46659 -3.64059,2.15242 -4.58257,1.89772c0.25373,1.62359 -0.79899,3.30048 -2.55513,3.91836c-0.79177,0.27858 -1.60499,0.29912 -2.33338,0.10674l-4.21488,-1.06155l0.00215,-0.00612c-0.00934,-0.00015 -0.01866,-0.00034 -0.02798,-0.0005c-0.05226,-0.00095 -0.10388,-0.0021 -0.15486,-0.00347c0.08064,1.52004 -0.94636,3.02337 -2.58823,3.60104c-0.37074,0.13044 -0.74619,0.20431 -1.11544,0.22623c-0.04879,1.42278 -1.04853,2.78218 -2.59079,3.32481c-0.67798,0.23853 -1.37169,0.28788 -2.01438,0.17636c-0.36216,1.03344 -1.22434,1.92617 -2.40384,2.34116c-1.73908,0.61188 -3.58178,-0.02104 -4.40113,-1.42111c-0.31349,0.47539 -1.31241,1.08893 -2.55276,1.70375c-0.43741,0.5079 -1.02261,0.91878 -1.71819,1.16351c-0.11335,0.03988 -0.22714,0.07447 -0.34105,0.10391c0.17672,1.315 0.29128,2.44706 0.42713,3.15684l-5.51286,-1.56744c0.03921,0.47592 -0.03106,0.95198 -0.19574,1.40031c0.1205,0.19349 0.22107,0.40239 0.29853,0.62535c0.61756,1.7772 -0.46551,3.77509 -2.41912,4.46245c-0.35054,0.12333 -0.7053,0.19609 -1.05503,0.22218l-3.67198,0.3507l0,-0.00017c-1.28339,0.10429 -2.59452,0.19556 -3.86951,0.20463c-1.05122,0.35802 -2.13708,0.26332 -3.00931,-0.17883c-1.68409,-0.24493 -3.18684,-0.77497 -4.31979,-1.79436c-0.21847,1.2539 -1.16417,2.39364 -2.54436,2.87926c-0.57901,0.20371 -1.16949,0.26944 -1.72989,0.21481c-0.43998,0.79543 -1.19304,1.45558 -2.15888,1.79541c-1.3311,0.46833 -2.7229,0.2074 -3.67007,-0.56859c-0.35365,0.28886 -0.76692,0.52469 -1.22889,0.68722c-1.40095,0.49291 -2.86913,0.17802 -3.81542,-0.69497c0.0752,1.51634 -0.95081,3.01391 -2.58878,3.59022c-1.82104,0.64071 -3.75569,-0.08346 -4.51003,-1.6241l-1.08904,-2.13734l0.2159,-0.10465c-0.12891,-0.04924 -0.26003,-0.09478 -0.3936,-0.13623c-0.32619,-0.10123 -0.68471,-0.10915 -1.04605,-0.10532c0.80043,1.44698 1.18728,3.88361 1.44817,4.6344l0.0994,0.28603c0,0 1.11818,3.21789 -2.41914,4.46245z" fill="#14c700" stroke-width="0.5"/><path d="M-22.95368,637.7691c-3.74853,-0.09986 -3.64463,-3.5049 -3.64463,-3.5049l0.00925,-0.30268c0.09756,-3.19694 -0.58084,-9.60261 2.51382,-11.73859c1.88023,-1.29777 4.64548,-0.80822 7.10885,0.21801c0.61928,-1.81215 1.97406,-3.27454 4.89342,-3.85863c1.81634,-0.3634 3.72915,0.34249 5.34816,1.57799c0.56858,-0.15787 1.22702,-0.24093 1.98972,-0.23236c0.64672,0.00726 1.22581,0.2125 1.75144,0.54386c0.6145,-0.25264 1.25912,-0.41286 1.9138,-0.44622c0.61559,-0.03137 1.22799,0.08862 1.82276,0.32727c0.08964,-0.07314 0.1829,-0.14337 0.28002,-0.21049c1.6523,-1.14185 4.23276,-0.82233 6.22478,-0.28304c0.90742,0.24568 1.63532,0.80926 2.31204,1.44826c1.72277,-0.43453 3.75173,0.68682 5.31846,1.95301c1.42411,0.26874 2.93747,0.86388 4.16466,1.64656c1.34357,-1.41058 2.92334,-2.13418 4.58398,-2.11717c3.59133,-4.46713 6.67814,-1.92397 10.11236,-0.16411c1.24176,0.63634 2.61228,1.1272 3.78476,1.85393c0.64201,-0.42018 1.43536,-0.6595 2.28764,-0.6387c0.18006,-0.9253 0.54677,-1.76596 1.26944,-2.44522c4.39866,-4.13448 6.87374,-0.93151 8.31565,1.81906c0.05776,-0.02981 0.11652,-0.05827 0.17633,-0.08531c-0.11884,-2.28245 1.24855,-4.11737 6.08979,-4.6077c1.72287,-0.1745 2.71645,1.96507 4.00581,3.02c2.58468,2.11472 4.96829,4.77271 7.33727,7.05087c0,0 2.57712,2.47833 -0.14696,4.81545c-2.12941,1.82692 -4.16902,0.71136 -4.95806,0.13724c-0.34244,1.60722 -1.9243,2.79797 -3.78531,2.7484c-0.83905,-0.02234 -1.60605,-0.2934 -2.2178,-0.73307l-3.55845,-2.49592l0.00419,-0.00495c-0.00867,-0.00347 -0.01731,-0.00698 -0.02596,-0.01045c-0.04848,-0.01954 -0.09628,-0.03903 -0.14342,-0.05851c-0.46716,1.44871 -1.96307,2.4865 -3.70298,2.44016c-0.39288,-0.01046 -0.76997,-0.07546 -1.12273,-0.18677c-0.55336,1.31166 -1.97243,2.22474 -3.60679,2.1812c-0.71846,-0.01914 -1.38409,-0.22062 -1.94466,-0.55418c-0.70713,0.83613 -1.83116,1.36235 -3.08109,1.32905c-1.84293,-0.04909 -3.33838,-1.29798 -3.6041,-2.89826c-0.46251,0.3322 -1.61461,0.54882 -2.99271,0.68048c-0.58987,0.31834 -1.28317,0.49331 -2.0203,0.47367c-0.12012,-0.0032 -0.23877,-0.0115 -0.35568,-0.02466c-0.30424,1.29147 -0.60125,2.38987 -0.72767,3.10139l-4.59039,-3.43174c-0.13322,0.45857 -0.36877,0.8782 -0.68262,1.23823c0.04351,0.22375 0.0629,0.45478 0.05569,0.69071c-0.05738,1.88056 -1.78218,3.36034 -3.85245,3.3052c-0.37148,-0.0099 -0.72884,-0.06854 -1.06484,-0.16899l-3.55532,-0.98292l0.00006,-0.00016c-1.2361,-0.36062 -2.49345,-0.7433 -3.68771,-1.18987c-1.10976,-0.04074 -2.09032,-0.51674 -2.7473,-1.24107c-1.48577,-0.82984 -2.70039,-1.86131 -3.3949,-3.21791c-0.6516,1.09335 -1.94178,1.82052 -3.4044,1.78156c-0.61358,-0.01635 -1.18864,-0.16569 -1.69263,-0.41672c-0.69489,0.58601 -1.63396,0.93393 -2.65749,0.90667c-1.41058,-0.03758 -2.6176,-0.77805 -3.22544,-1.84099c-0.43345,0.14362 -0.90367,0.21643 -1.39323,0.20338c-1.48461,-0.03955 -2.74371,-0.85769 -3.31611,-2.01092c-0.47093,1.44332 -1.96385,2.47609 -3.69962,2.42985c-1.92978,-0.05141 -3.47857,-1.41836 -3.63338,-3.12675l-0.25451,-2.38526l0.23903,-0.02071c-0.10285,-0.092 -0.20908,-0.18134 -0.31906,-0.26774c-0.26857,-0.21098 -0.60066,-0.34633 -0.93957,-0.47172c0.2313,1.63737 -0.27696,4.05159 -0.3012,4.84605l-0.00923,0.30267c0,0 -0.10392,3.40504 -3.85246,3.30519z" fill="#14c700" stroke-width="0.5"/></g></g></svg>