<svg version="1.1" xmlns="http://www.w3.org/2000/svg" xmlns:xlink="http://www.w3.org/1999/xlink" width="1196.6967" height="798.13272" viewBox="0,0,1196.6967,798.13272"><g transform="translate(98.13811,-128.47392)"><g data-paper-data="{&quot;isPaintingLayer&quot;:true}" fill="#8a8a8a" fill-rule="nonzero" stroke="none" stroke-width="0" stroke-linecap="butt" stroke-linejoin="miter" stroke-miterlimit="10" stroke-dasharray="" stroke-dashoffset="0" style="mix-blend-mode: normal"><path d="M397.31985,926.60664c0,-7.92648 0,-15.85296 0,-23.77945c0.34687,-2.24934 0.69078,-4.49913 1.03168,-6.74937c2.16466,-14.28852 6.57445,-41.48529 7.9359,-56.90912c1.33148,-15.08432 0.61584,-30.27968 0.91253,-45.41975c0.2766,-14.11537 0.63015,-28.23147 0.63041,-42.34956c0.00087,-47.70369 0.00009,-95.40739 0.00001,-143.11108h287.8108c0,103.86131 0,214.96386 0,318.31832z"/><path d="M728.7545,847.20339c1.14365,10.19201 0.65869,20.50138 1.00014,30.75167c0.54029,16.21944 1.71652,32.42784 1.92761,48.65158h-14.55159c0,-5.50552 0,-11.01103 0,-16.51655c0,-13.43393 0,-26.86785 0,-40.30178c0.66138,-5.55145 1.32473,-11.10118 2.00072,-16.6464c1.33004,-10.9104 3.30689,-21.76216 3.97564,-32.73297c0.03769,-0.61835 0.07122,-1.23684 0.10092,-1.85544c1.68014,9.58138 4.46189,18.98354 5.54656,28.64989z"/><path d="M802.29084,839.19107c1.26674,16.87906 3.92287,33.66438 4.47693,50.58183c0.3891,11.8805 -0.23852,24.34856 -0.42056,36.83374h-6.74373c-1.64258,-4.70724 -3.33734,-9.39979 -4.81582,-14.15706c-3.21778,-10.35374 -3.29285,-21.41873 -4.69996,-32.18412c5.12104,-4.73092 5.12104,-12.21741 5.12104,-12.21741v-1.5015c0,-5.13765 -0.51452,-10.41775 -0.03092,-15.52232c0.38059,-4.01718 1.34715,-7.9798 1.5015,-12.01201c0.64315,-16.80178 0.50068,-33.71809 0.29953,-50.60924c1.47973,8.15538 3.12135,16.29279 3.76742,24.53972c0,3.36635 0,6.72077 0,10.06031c0,0 0,2.28586 0.864,5.12957c0.1949,3.68829 0.40417,7.3756 0.68056,11.05849z"/><path d="M1098.5586,608.28832v318.31832h-121.66817c0,-66.75477 0,-133.50953 0,-200.2643c0,-25.68168 0,-51.36336 0,-77.04505c0,-10.66667 0.00709,-21.33334 0,-32c-0.00199,-3.00031 0.14881,-6.00769 0.16294,-9.00898z"/><path d="M945.35889,616.11681c0.02545,2.21288 0.02192,4.42677 0,6.64131c0,-2.21377 0,-4.42754 0,-6.64131z"/><path d="M852.2658,926.60664c0,-2.48035 0,-4.96069 0,-7.44104c0.73548,0.70059 1.57974,1.3442 2.54885,1.89868c-0.00597,1.84781 -0.01022,3.69527 -0.01247,5.54236z"/><path d="M896.69875,926.60664h-9.89661c0.02795,-23.61362 0.37377,-47.28669 0.48224,-70.94732c2.97586,23.66546 6.21756,47.30628 9.41438,70.94732z"/><path d="M795.03087,608.28832h0.52727c-0.06643,0.36148 -0.13205,0.72205 -0.19545,1.08032c-0.11024,-0.36011 -0.22095,-0.72021 -0.33182,-1.08032z"/><path d=""/><path d="M-98.1381,926.60664v-318.31832h320.8154c0.00057,15.22906 0.0021,29.76415 0.00589,29.90269c0.00794,0.29047 3.48323,63.7661 3.51471,64.34134c1.33699,24.43383 1.18077,49.65151 4.06057,73.95697c1.28101,10.81168 2.97171,21.57087 4.46092,32.35584c2.91806,21.13282 5.84508,42.2644 8.76761,63.3966c1.46127,10.5661 2.90054,21.13527 4.38381,31.6983c0.0518,0.36892 0.10019,0.73861 0.14588,1.10891c-0.64997,1.97411 -1.31774,3.95888 -1.99587,5.98748l-1.5015,4.5045c0,0 -1.85201,5.55603 0.04638,11.06568z"/><path d="M595.66608,602.94334l-4.03759,-7.09396l122.25804,-69.30322l10.03759,25.09396z"/><path d="M412.97384,439.523l10.03759,-25.09397l130.25804,71.30322l-4.03759,10.09396z" data-paper-data="{&quot;index&quot;:null}"/><path d="M610.17058,414.74514l-7.03759,-12.09396l125.25804,-64.30322c0,0 -0.64569,3.38578 1.20539,8.01347c1.16053,2.90134 3.8322,7.0805 3.8322,7.0805z" data-paper-data="{&quot;index&quot;:null}"/><path d="M960.99642,256.17757l-6.03759,-11.09396l124.25804,-61.30322l3.03759,15.09397z" data-paper-data="{&quot;index&quot;:null}"/><path d="M794.17058,329.74514l-7.03759,-12.09396l125.25804,-64.30322c0,0 -0.64569,3.38577 1.20539,8.01347c1.16053,2.90134 3.8322,7.0805 3.8322,7.0805z" data-paper-data="{&quot;index&quot;:null}"/><path d="M778.67925,140.7315l3.04633,-12.25758l133.01982,38.7798l-7.96074,13.17883z" data-paper-data="{&quot;index&quot;:null}"/><path d="M378.09388,154.51556l-4.35297,-12.5463l413.16343,-10.44084l-8.43751,15.13584z" data-paper-data="{&quot;index&quot;:null}"/></g></g></svg>