<svg version="1.1" xmlns="http://www.w3.org/2000/svg" xmlns:xlink="http://www.w3.org/1999/xlink" width="24.31251" height="51.93884" viewBox="0,0,24.31251,51.93884"><g transform="translate(-527.33333,-285.41665)"><g data-paper-data="{&quot;isPaintingLayer&quot;:true}" fill-rule="nonzero" stroke-linecap="butt" stroke-linejoin="miter" stroke-miterlimit="10" stroke-dasharray="" stroke-dashoffset="0" style="mix-blend-mode: normal"><path d="M542.68664,312.27224c0.44043,0.30535 0.88803,0.49886 1.33483,0.49278c0.22497,-0.00308 0.88371,0.11105 0.67305,-0.19232c-0.48473,-0.69803 -1.25482,-0.55903 -2.00788,-0.30045zM531.47047,314.83356c-0.10696,-0.29749 -0.20268,-0.76526 -0.26531,-1.48725c-0.23717,-2.73392 0.47434,-3.64524 0.47434,-3.64524l0.61387,-0.74907c3.12804,-1.9739 6.44658,-1.96041 9.6233,-1.96041c0.79058,0 2.37226,-1.02861 3.0705,0.14789c1.22054,2.05651 1.73338,5.71642 0.56643,10.10214c-0.06234,0.23427 -0.13431,0.43543 -0.21421,0.60707c0.40037,1.38531 0.48832,3.4867 -0.00938,6.65984c-0.02729,0.17399 -0.08134,0.32001 -0.15544,0.4425c1.15924,2.99339 1.62072,8.32919 -0.35406,11.35131c-1.00201,1.53344 -2.24035,-0.54148 -3.19064,-1.17014c-3.12556,-2.0677 -6.86109,-1.24359 -10.04653,-1.24359c0,0 -0.75,0 -0.75,-2.88181c0,-0.54408 0.02673,-0.98543 0.0701,-1.34346c-0.04498,-0.37003 -0.0701,-0.78283 -0.0701,-1.21816c0,-0.65925 0.05761,-1.26682 0.15455,-1.75238l0.49545,-2.53835l0.26579,0.76595c0.36795,-1.46397 0.79599,-2.59829 1.26724,-3.46833c-0.05461,-0.04592 -0.10901,-0.09312 -0.1632,-0.14155c-0.60053,-0.53713 -1.47965,0.16906 -1.78288,-1.89379c-0.20884,-1.42074 0.09951,-3.10537 0.40018,-4.5831zM540.21786,329.38446c0.17712,0.01065 0.35449,0.01791 0.53214,0.02129c0.14807,0.0028 4.25634,1.68472 3.96606,0.06793c-0.16909,-0.94178 -0.57997,-0.52549 -0.8733,-0.72233c-1.22633,0.01856 -2.42996,0.28165 -3.6249,0.63315zM534.66617,325.31094c1.13964,-0.2385 2.26782,-0.61551 3.39636,-0.99565c-1.03794,-0.18109 -2.06034,-0.11481 -3.02572,0.57036c-0.11345,0.08053 -0.23822,0.23184 -0.37064,0.42527zM538.76277,316.54302c-1.10108,-0.60065 -2.21078,-1.18747 -3.3461,-1.22618c-0.49084,-0.01677 -1.08021,0.21706 -1.61553,0.58816c0.31693,0.28765 0.58705,0.66067 0.68289,0.70428c1.34401,0.61183 2.84103,0.51774 4.27875,-0.06625z" fill="#ffffff" stroke="#000000" stroke-width="1"/><path d="M528.08333,306.96098v-20.79433h19.83333v20.79433z" fill="#ffffff" stroke="#000000" stroke-width="1.5"/><path d="M540.25072,294.11818c-1.15374,-0.17793 -2.32577,-0.28481 -3.41964,-0.66151l-0.0108,0.04321l-0.48,-0.12c-0.11133,-0.02526 -0.19444,-0.12483 -0.19444,-0.2438c0,-0.08815 0.04563,-0.16565 0.11455,-0.21016l0.33075,-0.2205c0.0769,-0.05121 0.15453,-0.10331 0.23267,-0.1563c-0.03096,-0.03669 -0.05297,-0.08886 -0.05297,-0.16304c0,-0.25 0.25,-0.25 0.25,-0.25h0.39408c1.03256,-0.74655 2.06803,-1.64651 2.66258,-2.7165c0.23424,-0.42156 -0.96158,0.09201 -1.44385,0.0923c-0.98398,0.00058 -1.97017,0.14909 -2.94913,0.24619c-2.37469,0.51236 -5.45596,-0.49093 -7.58463,0.24018c0,0 -0.23717,0.07906 -0.31623,-0.15811c-0.07906,-0.23717 0.15811,-0.31623 0.15811,-0.31623c2.22423,-0.72313 5.22025,0.26087 7.66537,-0.25982c0.57135,-0.05757 4.59619,-0.74742 4.85702,-0.16151c0.38055,0.85485 -0.98044,2.11312 -2.17416,3.01993c1.91713,-0.06383 3.93824,-0.328 5.82533,-0.253l-0.0038,-0.02283l0.48855,-0.08143c0.01483,-0.00274 0.03012,-0.00418 0.04575,-0.00418c0.13807,0 0.25,0.11193 0.25,0.25c0,0.08921 -0.04673,0.16751 -0.11705,0.21175l-0.38653,0.25152l-0.00773,-0.01188l-0.02875,0.03153c-1.00584,0.24921 -1.89177,0.73668 -2.74649,1.29681c0.59906,0.18497 1.13378,0.37365 1.53364,0.53062c0.34041,0.13363 1.68863,0.40018 1.49554,0.99991c-0.03931,0.1221 -0.78838,0.6362 -0.92669,0.73472c-1.27764,0.65174 -2.56059,1.27486 -3.8984,1.7961c-0.43637,0.17002 -0.88878,0.32084 -1.31615,0.51244c-0.27951,0.12531 -1.06536,0.10339 -0.85807,0.32892c0.14544,0.15823 0.29481,0.28228 0.45007,0.37887c1.43593,-0.03859 2.86278,-0.01172 4.18162,0.21541v-0.02672l0.5,0c0.13807,0 0.25,0.11193 0.25,0.25c0,0.0892 -0.04672,0.16749 -0.11702,0.21174l-0.22128,0.14402c-0.99428,0.64067 -3.6353,1.92641 -5.3941,2.45681c1.36633,-0.07636 2.73198,-0.15973 4.09782,-0.24775c1.62589,-0.10478 3.26284,-0.09457 4.89704,-0.08104c0.6729,-0.06375 1.36805,-0.10012 2.09694,-0.10265c0.92187,-0.0032 1.84372,-0.00613 2.7656,-0.00613l0.25,0c0.13807,0 0.25,0.11193 0.25,0.25c0,0.13237 -0.10287,0.24071 -0.23302,0.24943l-0.49633,0.03818l-0.00289,-0.03755c-0.01326,0.00001 -0.02651,0.00001 -0.03977,0.00002c-1.74178,0.47536 -3.81332,0.37137 -5.81579,0.26061c-2.27801,0.33882 -4.36451,0.96893 -6.78886,1.60137c-0.52585,0.13718 -1.1073,0.38677 -1.70418,0.65133c1.67342,0.45887 3.43755,0.76174 5.02581,0.84094c1.46329,-0.10738 2.95551,-0.16624 4.16636,0.02067c0.37956,0 0.75912,0 1.13868,0l0.25,0c0.13807,0 0.25,0.11193 0.25,0.25c0,0.11246 -0.07426,0.20758 -0.17641,0.23899l-0.46887,0.15629l-0.02855,-0.08565c-2.42439,0.9686 -6.81236,0.19037 -9.20116,0.19037c-0.66894,-0.00063 -3.96432,0.09898 -4.42678,-0.32322c-0.66203,-0.60441 0.77771,-0.91138 1.03113,-1.00347c0.25109,-0.09124 0.49755,-0.18436 0.7414,-0.27788c-0.80881,-0.28213 -1.57168,-0.60139 -2.25293,-0.95101c-0.15695,-0.1897 -0.58878,-0.68551 -0.58856,-0.86543c0.00053,-0.44117 1.48951,-0.80382 1.7879,-0.90544c1.2178,-0.41473 3.47996,-1.9634 5.02428,-2.34509c-0.12216,-0.01929 -0.25008,-0.04517 -0.3785,-0.07846c-1.81265,0 -3.6253,0 -5.43796,0c-0.85168,-0.11302 -0.89834,-1.38792 -0.28865,-1.98621c1.61287,-1.58271 4.76513,-1.79202 6.55291,-2.99437c0.32578,-0.21541 0.64615,-0.43901 0.96562,-0.66232zM541.7641,299.81811c-0.52145,0.05223 -1.13452,-0.01417 -1.63115,-0.04396c-0.01348,0.08378 -0.06859,0.15364 -0.14344,0.18767l-0.4456,0.21433l-0.01396,-0.02901c-1.24191,0.84184 -2.77434,1.49888 -4.12595,2.02362c-0.62253,0.24169 -1.27062,0.43384 -1.90311,0.64835c-0.33118,0.11232 -1.2135,0.09882 -0.98433,0.36297c0.12302,0.1418 0.29766,0.23526 0.41144,0.38457c0.80862,0.39121 1.72191,0.74642 2.68479,1.05165c0.82268,-0.31726 1.63914,-0.62154 2.53016,-0.85398c1.67694,-0.43746 3.19974,-0.8734 4.73452,-1.21441c-0.5042,-0.00982 -0.99306,-0.00509 -1.45907,0.02494c-1.75503,0.1131 -3.50974,0.21909 -5.26601,0.31113l-0.00657,-0.00231v0.00239c0,0 -0.25,0 -0.25,0c-0.13807,0 -0.25,-0.11193 -0.25,-0.25c0,-0.08507 0.04249,-0.16021 0.1074,-0.20537l0.40416,-0.28868l0.03478,0.04869c1.58085,-1.32101 3.76429,-1.46765 5.57192,-2.3726zM540.94955,294.23804c-0.46055,0.31995 -0.91865,0.64875 -1.38868,0.95954c-1.40624,0.9165 -3.57738,1.75039 -5.23408,2.37202c-0.76476,0.28696 -1.78355,1.86791 -1.30595,1.69148c1.35009,0 2.81688,-0.1029 4.2929,-0.16229c-0.1033,-0.14778 -0.16353,-0.32015 -0.16121,-0.52015c0.00339,-0.29323 1.34648,-0.75099 1.54756,-0.82939c1.62552,-0.63377 3.19652,-1.33254 4.75235,-2.12068c0.22246,-0.15939 0.46232,-0.29347 0.70077,-0.42776c0.22182,-0.12492 -0.49098,-0.13798 -0.72791,-0.2311c-0.62306,-0.24489 -1.22048,-0.43619 -1.86996,-0.59856c-0.20037,-0.05009 -0.40248,-0.09382 -0.6058,-0.13311zM538.96628,305.94977c-1.0477,-0.17654 -2.11194,-0.42352 -3.12923,-0.72892c-0.52453,0.2269 -1.04847,0.43534 -1.54534,0.56111c0.19285,-0.01548 0.3737,-0.0247 0.4916,-0.02057c0.91772,0.03211 1.81838,0.25061 2.73753,0.24969c0.43274,0 0.92123,-0.02468 1.44544,-0.06131zM537.01105,293.02639c1.03906,-0.1191 2.60349,0.19447 3.97702,0.58106c0.42755,-0.2904 0.85967,-0.56871 1.30705,-0.81489c-1.63881,0.12032 -3.69454,-0.14519 -4.71178,-0.15613c-0.22287,0.15576 -0.41988,0.28821 -0.57229,0.38997z" fill="#ececec" stroke="none" stroke-width="0.5"/></g></g></svg>