<svg version="1.1" xmlns="http://www.w3.org/2000/svg" xmlns:xlink="http://www.w3.org/1999/xlink" width="2444.53857" height="906.17814" viewBox="0,0,2444.53857,906.17814"><g transform="translate(686.60535,-156.80915)"><g data-paper-data="{&quot;isPaintingLayer&quot;:true}" fill="#ffffff" fill-rule="nonzero" stroke="#000000" stroke-width="1.5" stroke-linecap="butt" stroke-linejoin="miter" stroke-miterlimit="10" stroke-dasharray="" stroke-dashoffset="0" style="mix-blend-mode: normal"><path d="M-685.85535,1062.23728v-466.95605h1059.9717c0.18008,135.96948 -0.23721,271.93975 -0.12611,407.90947c0.00605,7.40294 3.68252,17.02059 10.44141,20.88281c17.34658,9.91233 39.04204,-0.60296 39.05859,-20.88281c0.01821,-22.31306 0.0316,-44.62613 0.04111,-66.93919c1.99563,-0.1703 3.99066,-0.56031 5.92479,-1.14527c0.03881,16.18837 0.07109,32.3767 0.08966,48.56494c0.01973,17.20211 14.50994,33.4648 32.7244,28.39832c3.78239,12.46427 16.03622,15.57043 29.18556,15.8712c3.481,0.07962 8.02024,0.4034 11.44491,-0.68627c9.12745,-2.90419 17.59971,-11.37645 20.5039,-20.5039c0.22314,-0.70131 0.38409,-1.44499 0.49886,-2.21432c0.20572,0.84083 0.41361,1.68139 0.62368,2.52167c1.61994,6.47976 3.56115,13.30503 10.05469,17.01563c17.34613,9.91208 39.04265,-0.60278 39.05859,-20.88281c0.10691,-135.96949 0.67122,-271.94083 0.32181,-407.90947h175.22157c-2.65392,58.94079 -8.81449,118.34759 -12.40842,177.44784c-0.02281,0.00201 -0.04562,0.00398 -0.06842,0.00592c-13.48203,1.14575 -32.21751,-2.84637 -44.04636,6.29741c-20.55871,15.89201 -7.29978,46.99267 18.03543,44.51297c7.90477,-0.77369 15.8521,-1.09079 23.79684,-1.23994c-1.78254,62.48116 1.24278,124.37322 16.33759,184.75245c1.61994,6.47976 3.56115,13.30503 10.05469,17.01563c7.23545,4.13454 15.22725,4.71511 22.08692,2.51556c7.88107,1.73797 17.07511,1.48689 25.2547,1.35163c2.09277,-0.03461 4.34876,-0.33222 6.59802,-0.89466c11.59318,2.86135 23.49177,-2.09303 28.80315,-12.03843c2.01214,4.37154 4.76546,8.33291 9.65344,10.4714c4.61078,2.01722 9.4238,2.7914 14.00685,2.40073c0.33072,0.02516 0.66362,0.04549 0.99861,0.06096c1.74862,0.08078 6.50597,0.07971 8.37169,-0.38672c3.30836,-0.82709 6.7068,-1.73793 9.73476,-3.29566c15.26522,9.82657 38.15638,0.09344 38.17508,-21.06762c0.1201,-135.96977 0.04724,-271.93964 0.0072,-407.90947h832.60768v466.95606z"/><path d=""/><path d=""/><path d="M754.84834,481.64415v-33.03304h175.67568v33.03304z"/><path d="M1002.07958,558.74625v-33.03303h194.60311v33.03303z"/><path d="M1008.16716,406.58408v-33.03303h194.60311v33.03303z"/><path d="M737.83934,346.02252v-33.03303h175.67568v33.03303z"/><path d="M365.42793,342.51502v-33.03303h175.67568v33.03303z"/><path d="M199.18866,278.8123l11.87004,-30.82667l163.94183,63.127l-11.87004,30.82667z"/><path d="M46.20125,186.11696l17.07425,-28.27811l150.38812,90.80395l-17.07425,28.27811z"/><path d="M748.84834,627.64415v-33.03304h175.67568v33.03304z"/></g></g></svg>