<svg version="1.1" xmlns="http://www.w3.org/2000/svg" xmlns:xlink="http://www.w3.org/1999/xlink" width="47.41739" height="133.33332" viewBox="0,0,47.41739,133.33332"><g transform="translate(-517.55406,-260.89491)"><g data-paper-data="{&quot;isPaintingLayer&quot;:true}" fill="#383838" fill-rule="nonzero" stroke="none" stroke-linecap="butt" stroke-linejoin="miter" stroke-miterlimit="10" stroke-dasharray="" stroke-dashoffset="0" style="mix-blend-mode: normal"><path d="M546.72072,323.72824c0,14.63555 -2.91015,26.5 -6.5,26.5c-3.58985,0 -6.5,-11.86445 -6.5,-26.5c0,-14.63555 2.91015,-26.5 6.5,-26.5c3.58985,0 6.5,11.86445 6.5,26.5z" stroke-width="0"/><path d="M545.72072,369.22823c0,13.80712 -1.11929,25 -2.5,25c-1.38071,0 -2.5,-11.19288 -2.5,-25c0,-13.80712 1.11929,-25 2.5,-25c1.38071,0 2.5,11.19288 2.5,25z" stroke-width="0"/><path d="M539.72072,368.22823c0,13.80712 -1.11929,25 -2.5,25c-1.38071,0 -2.5,-11.19288 -2.5,-25c0,-13.80712 1.11929,-25 2.5,-25c1.38071,0 2.5,11.19288 2.5,25z" stroke-width="0"/><path d="M542.00941,312.34322c0.52127,-0.97383 6.07525,0.98346 12.40515,4.37173c6.32991,3.38828 11.03874,6.92446 10.51746,7.89829c-0.52127,0.97383 -6.07525,-0.98346 -12.40515,-4.37173c-6.32991,-3.38828 -11.03874,-6.92446 -10.51746,-7.89829z" stroke-width="0"/><path d="M554.17072,315.85074c4.94502,5.20528 8.30455,10.04173 7.50374,10.80249c-0.80081,0.76077 -5.45873,-2.84221 -10.40375,-8.04749c-4.94502,-5.20528 -8.30455,-10.04172 -7.50374,-10.80249c0.80081,-0.76077 5.45873,2.84221 10.40375,8.04749z" data-paper-data="{&quot;index&quot;:null}" stroke-width="0"/><path d="M517.55406,302.22824v-41.33333h44.66666v41.33334z" stroke-width="NaN"/></g></g></svg>